<svg width="18" height="18" viewBox="0 0 18 18" fill="none" xmlns="http://www.w3.org/2000/svg">
<path d="M18 9C18 13.3492 13.9703 16.875 9 16.875C8.10861 16.8762 7.22091 16.7605 6.35962 16.5308C5.70262 16.8638 4.194 17.5028 1.656 17.919C1.431 17.955 1.26 17.721 1.34888 17.5117C1.74713 16.5712 2.10713 15.318 2.21513 14.175C0.837 12.7913 0 10.98 0 9C0 4.65075 4.02975 1.125 9 1.125C13.9703 1.125 18 4.65075 18 9ZM5.625 9C5.625 8.70163 5.50647 8.41548 5.2955 8.2045C5.08452 7.99353 4.79837 7.875 4.5 7.875C4.20163 7.875 3.91548 7.99353 3.7045 8.2045C3.49353 8.41548 3.375 8.70163 3.375 9C3.375 9.29837 3.49353 9.58452 3.7045 9.7955C3.91548 10.0065 4.20163 10.125 4.5 10.125C4.79837 10.125 5.08452 10.0065 5.2955 9.7955C5.50647 9.58452 5.625 9.29837 5.625 9ZM10.125 9C10.125 8.70163 10.0065 8.41548 9.7955 8.2045C9.58452 7.99353 9.29837 7.875 9 7.875C8.70163 7.875 8.41548 7.99353 8.2045 8.2045C7.99353 8.41548 7.875 8.70163 7.875 9C7.875 9.29837 7.99353 9.58452 8.2045 9.7955C8.41548 10.0065 8.70163 10.125 9 10.125C9.29837 10.125 9.58452 10.0065 9.7955 9.7955C10.0065 9.58452 10.125 9.29837 10.125 9ZM13.5 10.125C13.7984 10.125 14.0845 10.0065 14.2955 9.7955C14.5065 9.58452 14.625 9.29837 14.625 9C14.625 8.70163 14.5065 8.41548 14.2955 8.2045C14.0845 7.99353 13.7984 7.875 13.5 7.875C13.2016 7.875 12.9155 7.99353 12.7045 8.2045C12.4935 8.41548 12.375 8.70163 12.375 9C12.375 9.29837 12.4935 9.58452 12.7045 9.7955C12.9155 10.0065 13.2016 10.125 13.5 10.125Z" fill="white"/>
</svg>
