<svg width="22" height="17" viewBox="0 0 22 17" fill="none" xmlns="http://www.w3.org/2000/svg">
<path fill-rule="evenodd" clip-rule="evenodd" d="M6.5 14.75C6.5 14.5511 6.57902 14.3603 6.71967 14.2197C6.86032 14.079 7.05109 14 7.25 14H20.75C20.9489 14 21.1397 14.079 21.2803 14.2197C21.421 14.3603 21.5 14.5511 21.5 14.75C21.5 14.9489 21.421 15.1397 21.2803 15.2803C21.1397 15.421 20.9489 15.5 20.75 15.5H7.25C7.05109 15.5 6.86032 15.421 6.71967 15.2803C6.57902 15.1397 6.5 14.9489 6.5 14.75ZM6.5 8.75C6.5 8.55109 6.57902 8.36032 6.71967 8.21967C6.86032 8.07902 7.05109 8 7.25 8H20.75C20.9489 8 21.1397 8.07902 21.2803 8.21967C21.421 8.36032 21.5 8.55109 21.5 8.75C21.5 8.94891 21.421 9.13968 21.2803 9.28033C21.1397 9.42098 20.9489 9.5 20.75 9.5H7.25C7.05109 9.5 6.86032 9.42098 6.71967 9.28033C6.57902 9.13968 6.5 8.94891 6.5 8.75ZM6.5 2.75C6.5 2.55109 6.57902 2.36032 6.71967 2.21967C6.86032 2.07902 7.05109 2 7.25 2H20.75C20.9489 2 21.1397 2.07902 21.2803 2.21967C21.421 2.36032 21.5 2.55109 21.5 2.75C21.5 2.94891 21.421 3.13968 21.2803 3.28033C21.1397 3.42098 20.9489 3.5 20.75 3.5H7.25C7.05109 3.5 6.86032 3.42098 6.71967 3.28033C6.57902 3.13968 6.5 2.94891 6.5 2.75Z" fill="#327296"/>
<path d="M2.36299 0.791461C2.38851 0.708749 2.43986 0.636389 2.5095 0.58499C2.57915 0.533592 2.66343 0.505859 2.74999 0.505859C2.83655 0.505859 2.92083 0.533592 2.99048 0.58499C3.06012 0.636389 3.11147 0.708749 3.13699 0.791461L3.37999 1.58646C3.43249 1.75896 3.58999 1.87746 3.76699 1.87746H4.59349C4.98199 1.87746 5.14849 2.37696 4.83949 2.61696L4.13749 3.16146C4.07115 3.21334 4.02215 3.28416 3.99697 3.36452C3.97179 3.44488 3.97162 3.531 3.99649 3.61146L4.25599 4.46496C4.37299 4.84896 3.93649 5.15796 3.62149 4.91496L2.99599 4.42896C2.92567 4.37423 2.8391 4.34451 2.74999 4.34451C2.66088 4.34451 2.57431 4.37423 2.50399 4.42896L1.87849 4.91346C1.56349 5.15796 1.12849 4.84896 1.24399 4.46496L1.50349 3.60996C1.52803 3.52971 1.52769 3.44391 1.50252 3.36385C1.47736 3.28379 1.42854 3.21323 1.36249 3.16146L0.66049 2.61696C0.35149 2.37696 0.51799 1.87746 0.90649 1.87746H1.73149C1.81893 1.87719 1.90396 1.84874 1.97394 1.79631C2.04393 1.74389 2.09515 1.6703 2.11999 1.58646L2.36299 0.791461ZM2.36299 6.79146C2.38851 6.70875 2.43986 6.63639 2.5095 6.58499C2.57915 6.53359 2.66343 6.50586 2.74999 6.50586C2.83655 6.50586 2.92083 6.53359 2.99048 6.58499C3.06012 6.63639 3.11147 6.70875 3.13699 6.79146L3.37999 7.58646C3.43249 7.75896 3.58999 7.87746 3.76699 7.87746H4.59349C4.98199 7.87746 5.14849 8.37696 4.83949 8.61696L4.13749 9.16146C4.07115 9.21334 4.02215 9.28416 3.99697 9.36452C3.97179 9.44488 3.97162 9.531 3.99649 9.61146L4.25599 10.465C4.37299 10.8475 3.93649 11.158 3.62149 10.915L2.99599 10.429C2.92567 10.3742 2.8391 10.3445 2.74999 10.3445C2.66088 10.3445 2.57431 10.3742 2.50399 10.429L1.87849 10.9135C1.56349 11.158 1.12849 10.849 1.24399 10.465L1.50349 9.60996C1.52803 9.52971 1.52769 9.44391 1.50252 9.36385C1.47736 9.2838 1.42854 9.21323 1.36249 9.16146L0.66049 8.61696C0.35149 8.37696 0.51799 7.87746 0.90649 7.87746H1.73149C1.81893 7.87719 1.90396 7.84874 1.97394 7.79631C2.04393 7.74389 2.09515 7.6703 2.11999 7.58646L2.36299 6.79146ZM2.36299 12.7915C2.38851 12.7087 2.43986 12.6364 2.5095 12.585C2.57915 12.5336 2.66343 12.5059 2.74999 12.5059C2.83655 12.5059 2.92083 12.5336 2.99048 12.585C3.06012 12.6364 3.11147 12.7087 3.13699 12.7915L3.37999 13.5865C3.43249 13.759 3.58999 13.8775 3.76699 13.8775H4.59349C4.98199 13.8775 5.14849 14.377 4.83949 14.617L4.13749 15.1615C4.07115 15.2133 4.02215 15.2842 3.99697 15.3645C3.97179 15.4449 3.97162 15.531 3.99649 15.6115L4.25599 16.465C4.37299 16.8475 3.93649 17.158 3.62149 16.915L2.99599 16.429C2.92567 16.3742 2.8391 16.3445 2.74999 16.3445C2.66088 16.3445 2.57431 16.3742 2.50399 16.429L1.87849 16.9135C1.56349 17.158 1.12849 16.849 1.24399 16.465L1.50349 15.61C1.52803 15.5297 1.52769 15.4439 1.50252 15.3639C1.47736 15.2838 1.42854 15.2132 1.36249 15.1615L0.66049 14.617C0.35149 14.377 0.51799 13.8775 0.90649 13.8775H1.73149C1.81893 13.8772 1.90396 13.8487 1.97394 13.7963C2.04393 13.7439 2.09515 13.6703 2.11999 13.5865L2.36299 12.7915Z" fill="#327296"/>
</svg>
