<svg width="15" height="15" viewBox="0 0 15 15" fill="none" xmlns="http://www.w3.org/2000/svg">
<path d="M6.54894 0.92705C6.8483 0.00573921 8.1517 0.00573969 8.45106 0.92705L9.52063 4.21885C9.6545 4.63087 10.0385 4.90983 10.4717 4.90983H13.9329C14.9016 4.90983 15.3044 6.14945 14.5207 6.71885L11.7205 8.75329C11.37 9.00793 11.2234 9.4593 11.3572 9.87132L12.4268 13.1631C12.7261 14.0844 11.6717 14.8506 10.888 14.2812L8.08778 12.2467C7.7373 11.9921 7.2627 11.9921 6.91221 12.2467L4.11204 14.2812C3.32833 14.8506 2.27385 14.0844 2.5732 13.1631L3.64277 9.87132C3.77665 9.4593 3.62999 9.00793 3.2795 8.75329L0.479333 6.71885C-0.304381 6.14945 0.0983949 4.90983 1.06712 4.90983H4.52832C4.96154 4.90983 5.3455 4.63087 5.47937 4.21885L6.54894 0.92705Z" fill="#CCCCCC"/>
</svg>
