<svg width="15" height="15" viewBox="0 0 15 15" fill="none" xmlns="http://www.w3.org/2000/svg">
<path d="M6.54894 1.42705C6.8483 0.505739 8.1517 0.50574 8.45106 1.42705L9.52063 4.71885C9.6545 5.13087 10.0385 5.40983 10.4717 5.40983H13.9329C14.9016 5.40983 15.3044 6.64945 14.5207 7.21885L11.7205 9.25329C11.37 9.50793 11.2234 9.9593 11.3572 10.3713L12.4268 13.6631C12.7261 14.5844 11.6717 15.3506 10.888 14.7812L8.08778 12.7467C7.7373 12.4921 7.2627 12.4921 6.91221 12.7467L4.11204 14.7812C3.32833 15.3506 2.27385 14.5844 2.5732 13.6631L3.64277 10.3713C3.77665 9.9593 3.62999 9.50793 3.2795 9.25329L0.479333 7.21885C-0.304381 6.64945 0.0983949 5.40983 1.06712 5.40983H4.52832C4.96154 5.40983 5.3455 5.13087 5.47937 4.71885L6.54894 1.42705Z" fill="#FFBC00"/>
</svg>
