<svg width="24" height="25" viewBox="0 0 24 25" fill="none" xmlns="http://www.w3.org/2000/svg">
<path d="M11.9057 15.1251C12.6018 15.1251 13.2695 14.8485 13.7618 14.3562C14.2541 13.8639 14.5307 13.1963 14.5307 12.5001C14.5307 12.4232 14.5271 12.347 14.5206 12.2718L11.6774 15.115C11.7526 15.1216 11.8285 15.1251 11.9057 15.1251ZM20.5944 4.38038L19.5932 3.38007C19.558 3.34493 19.5103 3.3252 19.4606 3.3252C19.4109 3.3252 19.3632 3.34493 19.3281 3.38007L16.7659 5.94296C15.3525 5.22062 13.7636 4.85944 11.9994 4.85944C7.49472 4.85944 4.13378 7.20554 1.91659 11.8977C1.82747 12.0864 1.78125 12.2925 1.78125 12.5012C1.78125 12.7099 1.82747 12.916 1.91659 13.1048C2.80253 14.9708 3.86932 16.4666 5.11698 17.5919L2.63753 20.0704C2.60239 20.1055 2.58265 20.1532 2.58265 20.2029C2.58265 20.2526 2.60239 20.3003 2.63753 20.3355L3.63807 21.336C3.67323 21.3711 3.72091 21.3909 3.77061 21.3909C3.82032 21.3909 3.86799 21.3711 3.90315 21.336L20.5944 4.64569C20.6118 4.62828 20.6257 4.6076 20.6351 4.58484C20.6445 4.56208 20.6494 4.53768 20.6494 4.51304C20.6494 4.4884 20.6445 4.464 20.6351 4.44124C20.6257 4.41847 20.6118 4.3978 20.5944 4.38038ZM7.78065 12.5001C7.78059 11.7876 7.96507 11.0872 8.31612 10.4672C8.66718 9.84723 9.17284 9.32873 9.78384 8.96225C10.3948 8.59576 11.0904 8.39378 11.8026 8.37598C12.5149 8.35818 13.2196 8.52518 13.8482 8.86069L12.7086 10.0002C12.2491 9.85307 11.7578 9.83535 11.2889 9.949C10.8199 10.0627 10.3913 10.3033 10.0501 10.6445C9.70887 10.9857 9.46824 11.4143 9.35459 11.8833C9.24094 12.3523 9.25866 12.8435 9.40581 13.303L8.26628 14.4426C7.9465 13.8451 7.77966 13.1777 7.78065 12.5001Z" fill="#039B24"/>
<path d="M22.0811 11.8949C21.2561 10.1574 20.2741 8.74063 19.1352 7.64453L15.757 11.023C16.0417 11.7675 16.1048 12.5784 15.9387 13.3579C15.7725 14.1374 15.3842 14.8521 14.8206 15.4157C14.2571 15.9793 13.5423 16.3676 12.7628 16.5338C11.9833 16.6999 11.1724 16.6368 10.428 16.352L7.5625 19.2175C8.89188 19.8327 10.3705 20.1402 11.9983 20.1402C16.503 20.1402 19.8639 17.7941 22.0811 13.102C22.1702 12.9132 22.2165 12.7071 22.2165 12.4984C22.2165 12.2897 22.1702 12.0836 22.0811 11.8949Z" fill="#039B24"/>
</svg>
