<svg width="20" height="21" viewBox="0 0 20 21" fill="none" xmlns="http://www.w3.org/2000/svg">
<path d="M15.0586 7.59154L7.92522 4.02487C3.13355 1.62487 1.16689 3.59153 3.56689 8.3832L4.29189 9.8332C4.50022 10.2582 4.50022 10.7499 4.29189 11.1749L3.56689 12.6165C1.16689 17.4082 3.12522 19.3749 7.92522 16.9749L15.0586 13.4082C18.2586 11.8082 18.2586 9.19153 15.0586 7.59154ZM12.3669 11.1249H7.86689C7.52522 11.1249 7.24189 10.8415 7.24189 10.4999C7.24189 10.1582 7.52522 9.87487 7.86689 9.87487H12.3669C12.7086 9.87487 12.9919 10.1582 12.9919 10.4999C12.9919 10.8415 12.7086 11.1249 12.3669 11.1249Z" fill="white"/>
</svg>
