<svg width="24" height="25" viewBox="0 0 24 25" fill="none" xmlns="http://www.w3.org/2000/svg">
<path d="M9.28163 12.5C9.28163 13.1962 9.55819 13.8639 10.0505 14.3562C10.5428 14.8484 11.2104 15.125 11.9066 15.125C12.6028 15.125 13.2705 14.8484 13.7628 14.3562C14.2551 13.8639 14.5316 13.1962 14.5316 12.5C14.5316 11.8038 14.2551 11.1361 13.7628 10.6438C13.2705 10.1516 12.6028 9.875 11.9066 9.875C11.2104 9.875 10.5428 10.1516 10.0505 10.6438C9.55819 11.1361 9.28163 11.8038 9.28163 12.5ZM22.0832 11.8953C19.8613 7.21484 16.5027 4.85938 12.0004 4.85938C7.49569 4.85938 4.13944 7.21484 1.91757 11.8977C1.82845 12.0864 1.78223 12.2925 1.78223 12.5012C1.78223 12.7099 1.82845 12.916 1.91757 13.1047C4.13944 17.7852 7.49804 20.1406 12.0004 20.1406C16.5051 20.1406 19.8613 17.7852 22.0832 13.1023C22.2637 12.7227 22.2637 12.282 22.0832 11.8953ZM11.9066 16.625C9.6285 16.625 7.78163 14.7781 7.78163 12.5C7.78163 10.2219 9.6285 8.375 11.9066 8.375C14.1848 8.375 16.0316 10.2219 16.0316 12.5C16.0316 14.7781 14.1848 16.625 11.9066 16.625Z" fill="#039B24"/>
</svg>
