<svg width="20" height="20" viewBox="0 0 20 20" fill="none" xmlns="http://www.w3.org/2000/svg">
<path d="M14.19 0H5.81C2.17 0 0 2.17 0 5.81V14.18C0 17.83 2.17 20 5.81 20H14.18C17.82 20 19.99 17.83 19.99 14.19V5.81C20 2.17 17.83 0 14.19 0ZM14.37 12.35L12.15 14.57C11.61 15.11 10.91 15.37 10.21 15.37C9.51 15.37 8.8 15.1 8.27 14.57C7.75 14.05 7.46 13.36 7.46 12.63C7.46 11.9 7.75 11.2 8.27 10.69L9.68 9.28C9.97 8.99 10.45 8.99 10.74 9.28C11.03 9.57 11.03 10.05 10.74 10.34L9.33 11.75C9.09 11.99 8.96 12.3 8.96 12.63C8.96 12.96 9.09 13.28 9.33 13.51C9.82 14 10.61 14 11.1 13.51L13.32 11.29C14.59 10.02 14.59 7.96 13.32 6.69C12.05 5.42 9.99 5.42 8.72 6.69L6.3 9.11C5.79 9.62 5.51 10.29 5.51 11C5.51 11.71 5.79 12.39 6.3 12.89C6.59 13.18 6.59 13.66 6.3 13.95C6.01 14.24 5.53 14.24 5.24 13.95C4.44 13.18 4 12.13 4 11.01C4 9.89 4.43 8.84 5.22 8.05L7.64 5.63C9.49 3.78 12.51 3.78 14.36 5.63C16.22 7.48 16.22 10.5 14.37 12.35Z" fill="#999999"/>
</svg>
