<svg width="30" height="30" viewBox="0 0 30 30" fill="none" xmlns="http://www.w3.org/2000/svg">
<rect width="30" height="30" rx="15" fill="#2767A5"/>
<path d="M22.875 14.125H22.25V12.875C22.25 11.0516 21.5257 9.30295 20.2364 8.01364C18.947 6.72433 17.1984 6 15.375 6C13.5516 6 11.803 6.72433 10.5136 8.01364C9.22433 9.30295 8.5 11.0516 8.5 12.875V14.125H7.875C7.37772 14.125 6.90081 14.3225 6.54917 14.6742C6.19754 15.0258 6 15.5027 6 16V18.5C6 18.9973 6.19754 19.4742 6.54917 19.8258C6.90081 20.1775 7.37772 20.375 7.875 20.375H8.5C8.5 20.8723 8.69754 21.3492 9.04917 21.7008C9.40081 22.0525 9.87772 22.25 10.375 22.25C10.8723 22.25 11.3492 22.0525 11.7008 21.7008C12.0525 21.3492 12.25 20.8723 12.25 20.375V14.125C12.2502 13.825 12.1783 13.5293 12.0405 13.2627C11.9027 12.9962 11.7029 12.7667 11.4579 12.5934C11.213 12.4201 10.93 12.3081 10.6328 12.2668C10.3356 12.2256 10.0329 12.2562 9.75 12.3562C9.88186 10.9623 10.5288 9.66771 11.5644 8.72544C12.6001 7.78316 13.9499 7.26099 15.35 7.26099C16.7501 7.26099 18.0999 7.78316 19.1356 8.72544C20.1712 9.66771 20.8181 10.9623 20.95 12.3562C20.67 12.266 20.3727 12.243 20.0822 12.2889C19.7916 12.3348 19.5159 12.4485 19.2774 12.6207C19.0389 12.7928 18.8443 13.0187 18.7092 13.2801C18.5742 13.5414 18.5025 13.8308 18.5 14.125V20.375C18.5008 20.6745 18.5734 20.9695 18.7117 21.2352C18.8499 21.5009 19.0498 21.7296 19.2946 21.9022C19.5394 22.0748 19.822 22.1862 20.1187 22.2271C20.4154 22.2681 20.7176 22.2373 21 22.1375V23.5H19.0625C18.9731 23.9542 18.7807 24.3819 18.5 24.75H21.625C21.7908 24.75 21.9497 24.6842 22.0669 24.5669C22.1842 24.4497 22.25 24.2908 22.25 24.125V20.375H22.875C23.3723 20.375 23.8492 20.1775 24.2008 19.8258C24.5525 19.4742 24.75 18.9973 24.75 18.5V16C24.75 15.5027 24.5525 15.0258 24.2008 14.6742C23.8492 14.3225 23.3723 14.125 22.875 14.125Z" fill="white"/>
<path d="M16 21H14.75C14.2527 21 13.7758 21.1975 13.4242 21.5492C13.0725 21.9008 12.875 22.3777 12.875 22.875C12.875 23.3723 13.0725 23.8492 13.4242 24.2008C13.7758 24.5525 14.2527 24.75 14.75 24.75H16C16.4973 24.75 16.9742 24.5525 17.3258 24.2008C17.6775 23.8492 17.875 23.3723 17.875 22.875C17.875 22.3777 17.6775 21.9008 17.3258 21.5492C16.9742 21.1975 16.4973 21 16 21Z" fill="white"/>
</svg>
