<svg width="18" height="18" viewBox="0 0 18 18" fill="none" xmlns="http://www.w3.org/2000/svg">
<path d="M15.0703 5.51001L6.51026 1.23001C0.760264 -1.64999 -1.59974 0.710012 1.28026 6.46001L2.15026 8.20001C2.40026 8.71001 2.40026 9.30001 2.15026 9.81001L1.28026 11.54C-1.59974 17.29 0.750264 19.65 6.51026 16.77L15.0703 12.49C18.9103 10.57 18.9103 7.43001 15.0703 5.51001ZM11.8403 9.75001H6.44026C6.03026 9.75001 5.69026 9.41001 5.69026 9.00001C5.69026 8.59001 6.03026 8.25001 6.44026 8.25001H11.8403C12.2503 8.25001 12.5903 8.59001 12.5903 9.00001C12.5903 9.41001 12.2503 9.75001 11.8403 9.75001Z" fill="#1F7ED0"/>
</svg>
