<svg width="40" height="40" viewBox="0 0 40 40" fill="none" xmlns="http://www.w3.org/2000/svg">
<rect width="40" height="40" rx="20" fill="white"/>
<path d="M30.5 18.8333H29.6667V17.1667C29.6667 14.7355 28.7009 12.4039 26.9818 10.6849C25.2627 8.96577 22.9312 8 20.5 8C18.0688 8 15.7373 8.96577 14.0182 10.6849C12.2991 12.4039 11.3333 14.7355 11.3333 17.1667V18.8333H10.5C9.83696 18.8333 9.20107 19.0967 8.73223 19.5656C8.26339 20.0344 8 20.6703 8 21.3333V24.6667C8 25.3297 8.26339 25.9656 8.73223 26.4344C9.20107 26.9033 9.83696 27.1667 10.5 27.1667H11.3333C11.3333 27.8297 11.5967 28.4656 12.0656 28.9344C12.5344 29.4033 13.1703 29.6667 13.8333 29.6667C14.4964 29.6667 15.1323 29.4033 15.6011 28.9344C16.0699 28.4656 16.3333 27.8297 16.3333 27.1667V18.8333C16.3335 18.4333 16.2377 18.039 16.054 17.6836C15.8702 17.3283 15.6038 17.0222 15.2772 16.7912C14.9507 16.5601 14.5734 16.4108 14.1771 16.3558C13.7809 16.3008 13.3772 16.3416 13 16.475C13.1758 14.6165 14.0384 12.8903 15.4193 11.6339C16.8001 10.3776 18.5998 9.68132 20.4667 9.68132C22.3335 9.68132 24.1333 10.3776 25.5141 11.6339C26.8949 12.8903 27.7575 14.6165 27.9333 16.475C27.56 16.3547 27.1636 16.3239 26.7762 16.3852C26.3888 16.4464 26.0212 16.598 25.7032 16.8275C25.3852 17.0571 25.1257 17.3583 24.9456 17.7068C24.7655 18.0552 24.67 18.4411 24.6667 18.8333V27.1667C24.6678 27.566 24.7646 27.9593 24.9489 28.3136C25.1332 28.6678 25.3998 28.9728 25.7262 29.2029C26.0526 29.433 26.4293 29.5816 26.8249 29.6362C27.2206 29.6908 27.6235 29.6498 28 29.5167V31.3333H25.4167C25.2975 31.939 25.0409 32.5091 24.6667 33H28.8333C29.0543 33 29.2663 32.9122 29.4226 32.7559C29.5789 32.5996 29.6667 32.3877 29.6667 32.1667V27.1667H30.5C31.163 27.1667 31.7989 26.9033 32.2678 26.4344C32.7366 25.9656 33 25.3297 33 24.6667V21.3333C33 20.6703 32.7366 20.0344 32.2678 19.5656C31.7989 19.0967 31.163 18.8333 30.5 18.8333Z" fill="#2767A5"/>
<path d="M21.3337 28H19.667C19.004 28 18.3681 28.2634 17.8992 28.7322C17.4304 29.2011 17.167 29.837 17.167 30.5C17.167 31.163 17.4304 31.7989 17.8992 32.2678C18.3681 32.7366 19.004 33 19.667 33H21.3337C21.9967 33 22.6326 32.7366 23.1014 32.2678C23.5703 31.7989 23.8337 31.163 23.8337 30.5C23.8337 29.837 23.5703 29.2011 23.1014 28.7322C22.6326 28.2634 21.9967 28 21.3337 28Z" fill="#2767A5"/>
</svg>
