<svg width="19" height="19" viewBox="0 0 19 19" fill="none" xmlns="http://www.w3.org/2000/svg">
<path d="M16.875 8.125H16.25V6.875C16.25 5.05164 15.5257 3.30295 14.2364 2.01364C12.947 0.724328 11.1984 0 9.375 0C7.55164 0 5.80295 0.724328 4.51364 2.01364C3.22433 3.30295 2.5 5.05164 2.5 6.875V8.125H1.875C1.37772 8.125 0.900805 8.32254 0.549175 8.67417C0.197544 9.02581 0 9.50272 0 10V12.5C0 12.9973 0.197544 13.4742 0.549175 13.8258C0.900805 14.1775 1.37772 14.375 1.875 14.375H2.5C2.5 14.8723 2.69754 15.3492 3.04917 15.7008C3.40081 16.0525 3.87772 16.25 4.375 16.25C4.87228 16.25 5.34919 16.0525 5.70083 15.7008C6.05246 15.3492 6.25 14.8723 6.25 14.375V8.125C6.25016 7.82495 6.1783 7.52925 6.04048 7.26273C5.90265 6.99621 5.70287 6.76667 5.45793 6.59337C5.21299 6.42007 4.93004 6.30809 4.63284 6.26683C4.33565 6.22557 4.03289 6.25623 3.75 6.35625C3.88186 4.96234 4.52883 3.66771 5.56445 2.72544C6.60006 1.78316 7.94987 1.26099 9.35 1.26099C10.7501 1.26099 12.0999 1.78316 13.1356 2.72544C14.1712 3.66771 14.8181 4.96234 14.95 6.35625C14.67 6.26603 14.3727 6.24295 14.0822 6.28888C13.7916 6.33482 13.5159 6.44847 13.2774 6.62066C13.0389 6.79284 12.8443 7.01873 12.7092 7.28007C12.5742 7.5414 12.5025 7.83084 12.5 8.125V14.375C12.5008 14.6745 12.5734 14.9695 12.7117 15.2352C12.8499 15.5009 13.0498 15.7296 13.2946 15.9022C13.5394 16.0748 13.822 16.1862 14.1187 16.2271C14.4154 16.2681 14.7176 16.2373 15 16.1375V17.5H13.0625C12.9731 17.9542 12.7807 18.3819 12.5 18.75H15.625C15.7908 18.75 15.9497 18.6842 16.0669 18.5669C16.1842 18.4497 16.25 18.2908 16.25 18.125V14.375H16.875C17.3723 14.375 17.8492 14.1775 18.2008 13.8258C18.5525 13.4742 18.75 12.9973 18.75 12.5V10C18.75 9.50272 18.5525 9.02581 18.2008 8.67417C17.8492 8.32254 17.3723 8.125 16.875 8.125Z" fill="white"/>
</svg>
