<svg width="20" height="20" viewBox="0 0 20 20" fill="none" xmlns="http://www.w3.org/2000/svg">
<path d="M11.5564 4.65744C11.5564 4.86184 11.5162 5.06426 11.4381 5.25313C11.3599 5.44199 11.2453 5.61362 11.1008 5.7582C10.9563 5.90278 10.7848 6.01749 10.596 6.09577C10.4072 6.17405 10.2048 6.21438 10.0004 6.21444C9.79596 6.21451 9.59354 6.17431 9.40467 6.09615C9.21581 6.01799 9.04418 5.90339 8.8996 5.75891C8.75502 5.61442 8.64031 5.44287 8.56203 5.25405C8.48375 5.06523 8.44343 4.86284 8.44336 4.65844C8.44323 4.24563 8.60709 3.84968 8.89889 3.55768C9.1907 3.26569 9.58655 3.10157 9.99936 3.10144C10.4122 3.10131 10.8081 3.26517 11.1001 3.55698C11.3921 3.84878 11.5562 4.24463 11.5564 4.65744Z" fill="black"/>
<path d="M10.0003 11.5555C10.8597 11.5555 11.5563 10.8588 11.5563 9.99948C11.5563 9.14013 10.8597 8.44348 10.0003 8.44348C9.14098 8.44348 8.44434 9.14013 8.44434 9.99948C8.44434 10.8588 9.14098 11.5555 10.0003 11.5555Z" fill="black"/>
<path d="M10.0003 16.8985C10.8597 16.8985 11.5563 16.2019 11.5563 15.3425C11.5563 14.4831 10.8597 13.7865 10.0003 13.7865C9.14098 13.7865 8.44434 14.4831 8.44434 15.3425C8.44434 16.2019 9.14098 16.8985 10.0003 16.8985Z" fill="black"/>
</svg>
