<svg width="26" height="26" viewBox="0 0 26 26" fill="none" xmlns="http://www.w3.org/2000/svg">
<path d="M15.0235 6.05478C15.0235 6.32051 14.9713 6.58364 14.8697 6.82917C14.7681 7.0747 14.6191 7.29781 14.4313 7.48577C14.2434 7.67372 14.0204 7.82284 13.775 7.92461C13.5295 8.02638 13.2664 8.0788 13.0007 8.07888C12.7349 8.07897 12.4718 8.02672 12.2263 7.92511C11.9807 7.8235 11.7576 7.67452 11.5697 7.48669C11.3817 7.29885 11.2326 7.07584 11.1308 6.83037C11.0291 6.58491 10.9766 6.32181 10.9766 6.05608C10.9764 5.51943 11.1894 5.00469 11.5688 4.6251C11.9481 4.2455 12.4627 4.03215 12.9994 4.03198C13.536 4.03181 14.0508 4.24483 14.4303 4.62418C14.8099 5.00353 15.0233 5.51813 15.0235 6.05478Z" fill="black"/>
<path d="M13.0013 15.0222C14.1185 15.0222 15.0241 14.1165 15.0241 12.9994C15.0241 11.8822 14.1185 10.9766 13.0013 10.9766C11.8842 10.9766 10.9785 11.8822 10.9785 12.9994C10.9785 14.1165 11.8842 15.0222 13.0013 15.0222Z" fill="black"/>
<path d="M13.0013 21.9681C14.1185 21.9681 15.0241 21.0624 15.0241 19.9453C15.0241 18.8281 14.1185 17.9225 13.0013 17.9225C11.8842 17.9225 10.9785 18.8281 10.9785 19.9453C10.9785 21.0624 11.8842 21.9681 13.0013 21.9681Z" fill="black"/>
</svg>
