<svg width="112" height="20" viewBox="0 0 112 20" fill="none" xmlns="http://www.w3.org/2000/svg">
<path fill-rule="evenodd" clip-rule="evenodd" d="M112 0H0V20H112V0ZM10.9513 2.92536C10.6519 2.00405 9.34852 2.00405 9.04917 2.92536L7.9796 6.21715C7.84573 6.62918 7.46177 6.90814 7.02855 6.90814H3.56735C2.59862 6.90814 2.19585 8.14775 2.97956 8.71715L5.77973 10.7516C6.13022 11.0062 6.27688 11.4576 6.143 11.8696L5.07343 15.1614C4.77408 16.0827 5.82856 16.8489 6.61227 16.2795L9.41244 14.245C9.76293 13.9904 10.2375 13.9904 10.588 14.245L13.3882 16.2795C14.1719 16.8489 15.2264 16.0827 14.927 15.1614L13.8575 11.8696C13.7236 11.4576 13.8702 11.0062 14.2207 10.7516L17.0209 8.71716C17.8046 8.14775 17.4018 6.90814 16.4331 6.90814H12.9719C12.5387 6.90814 12.1547 6.62918 12.0209 6.21716L10.9513 2.92536ZM33.9513 2.92536C33.6519 2.00405 32.3485 2.00405 32.0492 2.92536L30.9796 6.21715C30.8457 6.62918 30.4618 6.90814 30.0285 6.90814H26.5673C25.5986 6.90814 25.1958 8.14775 25.9796 8.71715L28.7797 10.7516C29.1302 11.0062 29.2769 11.4576 29.143 11.8696L28.0734 15.1614C27.7741 16.0827 28.8286 16.8489 29.6123 16.2795L32.4124 14.245C32.7629 13.9904 33.2375 13.9904 33.588 14.245L36.3882 16.2795C37.1719 16.8489 38.2264 16.0827 37.927 15.1614L36.8575 11.8696C36.7236 11.4576 36.8702 11.0062 37.2207 10.7516L40.0209 8.71716C40.8046 8.14775 40.4018 6.90814 39.4331 6.90814H35.9719C35.5387 6.90814 35.1547 6.62918 35.0209 6.21716L33.9513 2.92536ZM55.0492 2.92536C55.3485 2.00405 56.6519 2.00405 56.9513 2.92536L58.0209 6.21716C58.1547 6.62918 58.5387 6.90814 58.9719 6.90814H62.4331C63.4018 6.90814 63.8046 8.14775 63.0209 8.71716L60.2207 10.7516C59.8702 11.0062 59.7236 11.4576 59.8575 11.8696L60.927 15.1614C61.2264 16.0827 60.1719 16.8489 59.3882 16.2795L56.588 14.245C56.2375 13.9904 55.7629 13.9904 55.4124 14.245L52.6123 16.2795C51.8286 16.8489 50.7741 16.0827 51.0734 15.1614L52.143 11.8696C52.2769 11.4576 52.1302 11.0062 51.7797 10.7516L48.9796 8.71715C48.1958 8.14775 48.5986 6.90814 49.5673 6.90814H53.0285C53.4618 6.90814 53.8457 6.62918 53.9796 6.21715L55.0492 2.92536ZM79.9513 2.92536C79.6519 2.00405 78.3485 2.00405 78.0492 2.92536L76.9796 6.21715C76.8457 6.62918 76.4618 6.90814 76.0285 6.90814H72.5673C71.5986 6.90814 71.1958 8.14775 71.9796 8.71715L74.7797 10.7516C75.1302 11.0062 75.2769 11.4576 75.143 11.8696L74.0734 15.1614C73.7741 16.0827 74.8286 16.8489 75.6123 16.2795L78.4124 14.245C78.7629 13.9904 79.2375 13.9904 79.588 14.245L82.3882 16.2795C83.1719 16.8489 84.2264 16.0827 83.927 15.1614L82.8575 11.8696C82.7236 11.4576 82.8702 11.0062 83.2207 10.7516L86.0209 8.71716C86.8046 8.14775 86.4018 6.90814 85.4331 6.90814H81.9719C81.5387 6.90814 81.1547 6.62918 81.0209 6.21716L79.9513 2.92536ZM102 2.23441C102.4 2.23415 102.802 2.46445 102.951 2.92536L104.021 6.21716C104.155 6.62918 104.539 6.90814 104.972 6.90814H108.433C109.402 6.90814 109.805 8.14775 109.021 8.71716L106.221 10.7516C105.87 11.0062 105.724 11.4576 105.857 11.8696L106.927 15.1614C107.226 16.0827 106.172 16.8489 105.388 16.2795L102.588 14.245C102.413 14.1176 102.206 14.0539 102 14.0541C101.987 14.0541 101.974 14.0543 101.962 14.0548C101.768 14.0622 101.577 14.1257 101.412 14.245L98.6123 16.2795C97.8286 16.8489 96.7741 16.0827 97.0734 15.1614L98.143 11.8696C98.2769 11.4576 98.1302 11.0062 97.7797 10.7516L94.9796 8.71715C94.1958 8.14775 94.5986 6.90814 95.5673 6.90814H99.0285C99.4618 6.90814 99.8457 6.62918 99.9796 6.21715L101.049 2.92536C101.199 2.46496 101.599 2.23466 102 2.23441Z" fill="white"/>
<path d="M10.4755 3.08156L11.5451 6.37336C11.7459 6.99139 12.3218 7.40983 12.9717 7.40983H16.4329C16.9172 7.40983 17.1186 8.02964 16.7268 8.31434L13.9266 10.3488C13.4009 10.7307 13.1809 11.4078 13.3817 12.0258L14.4513 15.3176C14.6009 15.7783 14.0737 16.1613 13.6818 15.8766L10.8817 13.8422C10.3559 13.4602 9.64405 13.4602 9.11832 13.8422L6.31815 15.8766C5.9263 16.1613 5.39906 15.7783 5.54873 15.3176L6.6183 12.0258C6.81911 11.4078 6.59913 10.7307 6.07339 10.3488L3.27323 8.31434C2.88137 8.02964 3.08276 7.40983 3.56712 7.40983H7.02832C7.67816 7.40983 8.25409 6.99139 8.4549 6.37336L9.52447 3.08156C9.67415 2.6209 10.3259 2.6209 10.4755 3.08156Z" stroke="#F1C644"/>
<path d="M33.4755 3.08156L34.5451 6.37336C34.7459 6.99139 35.3218 7.40983 35.9717 7.40983H39.4329C39.9172 7.40983 40.1186 8.02964 39.7268 8.31434L36.9266 10.3488C36.4009 10.7307 36.1809 11.4078 36.3817 12.0258L37.4513 15.3176C37.6009 15.7783 37.0737 16.1613 36.6818 15.8766L33.8817 13.8422C33.3559 13.4602 32.6441 13.4602 32.1183 13.8422L29.3182 15.8766C28.9263 16.1613 28.3991 15.7783 28.5487 15.3176L29.6183 12.0258C29.8191 11.4078 29.5991 10.7307 29.0734 10.3488L26.2732 8.31434C25.8814 8.02964 26.0828 7.40983 26.5671 7.40983H30.0283C30.6782 7.40983 31.2541 6.99139 31.4549 6.37336L32.5245 3.08156C32.6741 2.6209 33.3259 2.6209 33.4755 3.08156Z" stroke="#F1C644"/>
<path d="M56.4755 3.08156L57.5451 6.37336C57.7459 6.99139 58.3218 7.40983 58.9717 7.40983H62.4329C62.9172 7.40983 63.1186 8.02964 62.7268 8.31434L59.9266 10.3488C59.4009 10.7307 59.1809 11.4078 59.3817 12.0258L60.4513 15.3176C60.6009 15.7783 60.0737 16.1613 59.6818 15.8766L56.8817 13.8422C56.3559 13.4602 55.6441 13.4602 55.1183 13.8422L52.3182 15.8766C51.9263 16.1613 51.3991 15.7783 51.5487 15.3176L52.6183 12.0258C52.8191 11.4078 52.5991 10.7307 52.0734 10.3488L49.2732 8.31434C48.8814 8.02964 49.0828 7.40983 49.5671 7.40983H53.0283C53.6782 7.40983 54.2541 6.99139 54.4549 6.37336L55.5245 3.08156C55.6741 2.6209 56.3259 2.6209 56.4755 3.08156Z" stroke="#F1C644"/>
<path d="M79.4755 3.08156L80.5451 6.37336C80.7459 6.99139 81.3218 7.40983 81.9717 7.40983H85.4329C85.9172 7.40983 86.1186 8.02964 85.7268 8.31434L82.9266 10.3488C82.4009 10.7307 82.1809 11.4078 82.3817 12.0258L83.4513 15.3176C83.6009 15.7783 83.0737 16.1613 82.6818 15.8766L79.8817 13.8422C79.3559 13.4602 78.6441 13.4602 78.1183 13.8422L75.3182 15.8766C74.9263 16.1613 74.3991 15.7783 74.5487 15.3176L75.6183 12.0258C75.8191 11.4078 75.5991 10.7307 75.0734 10.3488L72.2732 8.31434C71.8814 8.02964 72.0828 7.40983 72.5671 7.40983H76.0283C76.6782 7.40983 77.2541 6.99139 77.4549 6.37336L78.5245 3.08156C78.6741 2.6209 79.3259 2.6209 79.4755 3.08156Z" stroke="#F1C644"/>
<path d="M102.476 3.08156L103.545 6.37336C103.746 6.99139 104.322 7.40983 104.972 7.40983H108.433C108.917 7.40983 109.119 8.02964 108.727 8.31434L105.927 10.3488C105.401 10.7307 105.181 11.4078 105.382 12.0258L106.451 15.3176C106.601 15.7783 106.074 16.1613 105.682 15.8766L102.882 13.8422C102.356 13.4602 101.644 13.4602 101.118 13.8422L98.3182 15.8766C97.9263 16.1613 97.3991 15.7783 97.5487 15.3176L98.6183 12.0258C98.8191 11.4078 98.5991 10.7307 98.0734 10.3488L95.2732 8.31434C94.8814 8.02964 95.0828 7.40983 95.5671 7.40983H99.0283C99.6782 7.40983 100.254 6.99139 100.455 6.37336L101.524 3.08156C101.674 2.6209 102.326 2.6209 102.476 3.08156Z" stroke="#F1C644"/>
</svg>
