<svg width="16" height="18" viewBox="0 0 16 18" fill="none" xmlns="http://www.w3.org/2000/svg">
<path d="M15.1849 6.04183C14.3099 2.19183 10.9515 0.458496 8.00154 0.458496C8.00154 0.458496 8.00154 0.458496 7.99321 0.458496C5.05154 0.458496 1.68488 2.1835 0.809878 6.0335C-0.165122 10.3335 2.46821 13.9752 4.85154 16.2668C5.73488 17.1168 6.86821 17.5418 8.00154 17.5418C9.13488 17.5418 10.2682 17.1168 11.1432 16.2668C13.5265 13.9752 16.1599 10.3418 15.1849 6.04183ZM8.00154 10.2168C6.55154 10.2168 5.37654 9.04183 5.37654 7.59183C5.37654 6.14183 6.55154 4.96683 8.00154 4.96683C9.45154 4.96683 10.6265 6.14183 10.6265 7.59183C10.6265 9.04183 9.45154 10.2168 8.00154 10.2168Z" fill="#666666"/>
</svg>
