<svg width="124" height="30" viewBox="0 0 124 30" fill="none" xmlns="http://www.w3.org/2000/svg">
<g clip-path="url(#clip0_1149_6515)">
<path d="M33.562 23.2007C33.562 21.5599 32.9656 20.0596 32.0013 18.8657L18.2658 2.43246C17.0794 0.938522 15.2205 0.0383301 13.1396 0.0383301C9.50426 0.0383301 6.45898 3.0262 6.45898 6.76104C6.45898 8.40181 7.05535 9.90213 8.01969 11.096L21.7552 27.6059C22.9416 29.0998 24.8005 29.9936 26.8814 29.9936C30.5928 29.9234 33.562 26.9355 33.562 23.2007Z" fill="url(#paint0_radial_1149_6515)"/>
<path d="M30.9592 28.506C32.2217 27.5355 33.1099 26.1118 33.4081 24.6179L37.0497 8.25485C37.4938 6.38424 37.1259 4.29656 35.8633 2.6494C33.6365 -0.338472 29.4809 -0.861987 26.5054 1.37892C25.2429 2.34933 24.3547 3.77304 24.0565 5.26698L20.491 21.2597L20.4149 21.7066C19.9708 23.5773 20.3387 25.6649 21.6013 27.3121C23.8345 30.2234 28.0661 30.8235 30.9592 28.506Z" fill="url(#paint1_radial_1149_6515)"/>
<path d="M51.0082 23.2007C51.0082 21.5599 50.4119 20.0596 49.4475 18.8657L35.6423 2.43246C34.4559 0.938522 32.597 0.0383301 30.5224 0.0383301C26.8807 0.0383301 23.8418 3.0262 23.8418 6.76104C23.8418 8.40181 24.4382 9.90213 25.4025 11.096L39.138 27.6059C40.3244 29.0998 42.1833 29.9936 44.2642 29.9936C48.0391 29.9234 51.0082 26.9355 51.0082 23.2007Z" fill="url(#paint2_radial_1149_6515)"/>
<path d="M6.68058 16.4778C10.373 16.4778 13.3612 19.4912 13.3612 23.2005C13.3612 26.9162 10.3666 29.9232 6.68058 29.9232C2.99453 29.9232 0 26.9162 0 23.2005C0 19.4848 2.99453 16.4778 6.68058 16.4778Z" fill="url(#paint3_radial_1149_6515)"/>
<path d="M121.988 14.4605L121.843 14.3136L121.988 14.1668C123.029 12.8963 123.549 11.3258 123.473 9.685C123.327 5.95016 119.984 3.10913 115.898 3.10913H107.136C105.652 3.10913 104.535 4.303 104.535 5.72671V24.4073C104.535 25.9012 105.722 27.0249 107.136 27.0249H115.822C117.972 27.0249 119.977 26.2779 121.538 24.8606C123.099 23.4432 123.987 21.5726 123.987 19.5552C124.069 17.5952 123.327 15.8012 121.988 14.4605ZM109.668 7.808H116.279C117.541 7.808 118.359 8.93165 118.359 9.90206C118.359 11.1725 117.243 11.9961 116.279 11.9961H109.668V7.808ZM116.348 22.1536H109.668V16.7716H116.279C117.319 16.7716 118.949 17.5186 118.949 19.536C118.949 20.6597 118.055 22.1536 116.348 22.1536Z" fill="black"/>
<path d="M93.9966 12.5899C91.9918 12.0664 89.619 11.396 89.4667 9.74886C89.3906 8.62522 90.2851 7.6548 91.7697 7.43134C94.7389 7.06105 97.34 8.77844 98.7485 9.14873C100.157 9.52541 101.274 8.32515 101.419 7.13128C101.641 5.33728 99.8587 4.36686 99.1926 3.91996C98.0823 3.2496 96.0712 2.42603 93.102 2.42603C87.8299 2.42603 84.1946 5.49051 84.1946 9.82547C84.1946 12.2196 85.0828 13.937 86.7958 15.2075C90.1392 17.7484 96.6675 17.4484 96.6675 20.0659C96.6675 22.3835 92.3597 23.8774 87.6078 20.7363C87.1637 20.4362 86.7196 20.2128 86.1233 20.2128C84.8607 20.2128 83.7441 21.2598 83.7441 22.6069C83.7441 23.0538 83.8203 23.4305 84.0423 23.8008L83.9662 23.8774L84.0423 23.8008C84.0423 23.8774 84.1185 23.8774 84.1185 23.9476C84.5626 24.618 85.1589 25.2181 85.9773 25.665C87.1637 26.4886 89.3906 27.459 92.7341 27.459C95.4811 27.459 97.7841 26.7887 99.4146 25.4416C101.051 24.0945 101.94 22.1536 101.94 19.8361C102.092 15.3543 98.1585 13.7135 93.9966 12.5899Z" fill="black"/>
<path d="M78.7013 3.02612H77.0708C76.1826 3.02612 75.288 3.54964 74.9201 4.37322L69.4259 15.8778L63.9317 4.37322C63.4876 3.54964 62.6692 3.02612 61.7048 3.02612H60.068C58.6595 3.02612 57.4668 4.21999 57.4668 5.6437V24.6243C57.4668 26.495 59.4716 27.9123 61.4003 26.7886C62.1426 26.4183 62.5867 25.5948 62.5867 24.7712V13.4901L67.1927 22.3834C67.6368 23.2772 68.5313 23.7305 69.4195 23.7305C70.3077 23.7305 71.2023 23.2836 71.6464 22.3834L76.2524 13.4901V24.7712C76.2524 25.5948 76.6965 26.412 77.4388 26.7886C79.3674 27.8357 81.3722 26.4183 81.3722 24.6243V5.6437C81.3786 4.21999 80.1922 3.02612 78.7013 3.02612Z" fill="black"/>
</g>
<defs>
<radialGradient id="paint0_radial_1149_6515" cx="0" cy="0" r="1" gradientUnits="userSpaceOnUse" gradientTransform="translate(23.118 8.80634) scale(14.2056 14.2952)">
<stop offset="0.0184" stop-color="#6F0000"/>
<stop offset="0.3252" stop-color="#910D11"/>
<stop offset="0.4457" stop-color="#A61519"/>
<stop offset="0.5938" stop-color="#BC1B20"/>
<stop offset="0.7384" stop-color="#CB1E24"/>
<stop offset="0.8762" stop-color="#D52027"/>
<stop offset="1" stop-color="#DA2128"/>
</radialGradient>
<radialGradient id="paint1_radial_1149_6515" cx="0" cy="0" r="1" gradientUnits="userSpaceOnUse" gradientTransform="translate(33.9117 17.4179) scale(12.6648 12.7447)">
<stop offset="0.0368" stop-color="#6F0000"/>
<stop offset="0.3006" stop-color="#910D11"/>
<stop offset="0.4172" stop-color="#A01317"/>
<stop offset="0.6776" stop-color="#BE1B21"/>
<stop offset="0.8806" stop-color="#D11F26"/>
<stop offset="1" stop-color="#DA2128"/>
</radialGradient>
<radialGradient id="paint2_radial_1149_6515" cx="0" cy="0" r="1" gradientUnits="userSpaceOnUse" gradientTransform="translate(27.5861 2.90625) scale(25.5683 25.7295)">
<stop offset="0.3558" stop-color="#DA2128"/>
<stop offset="1" stop-color="#F37021"/>
</radialGradient>
<radialGradient id="paint3_radial_1149_6515" cx="0" cy="0" r="1" gradientUnits="userSpaceOnUse" gradientTransform="translate(3.30532 25.7895) scale(13.2664 13.35)">
<stop offset="0.3129" stop-color="#DA2128"/>
<stop offset="0.7914" stop-color="#910D11"/>
<stop offset="1" stop-color="#6F0000"/>
</radialGradient>
<clipPath id="clip0_1149_6515">
<rect width="124" height="30" fill="white"/>
</clipPath>
</defs>
</svg>
