<svg width="96" height="39" viewBox="0 0 96 39" fill="none" xmlns="http://www.w3.org/2000/svg">
<g clip-path="url(#clip0_994_9564)">
<path fill-rule="evenodd" clip-rule="evenodd" d="M76.3514 16.3948C78.6369 16.2351 80.8551 16.2183 83.023 15.8905C85.0732 15.5879 85.7538 14.0748 85.8714 12.5701C86.0227 10.6535 85.0984 9.2749 83.3507 8.74532C81.0568 8.04762 78.7041 8.61083 76.343 8.39227C76.3514 11.057 76.3514 13.5956 76.3514 16.3948ZM76.3514 31.7023C78.9646 31.5425 81.5273 31.5173 84.0481 31.1979C86.0647 30.9457 87.3587 29.3654 87.4847 27.6926C87.7116 24.7084 86.4008 23.4223 84.4514 22.7834C81.8046 21.9176 79.0738 22.4472 76.343 22.2791C76.3514 25.4061 76.3514 28.4239 76.3514 31.7023ZM89.2997 18.841C89.871 19.1016 90.6189 19.3958 91.3247 19.7573C93.6942 20.9929 95.1898 22.9516 95.7444 25.5406C96.1982 27.6505 95.9881 29.7521 95.1814 31.7863C94.484 33.5348 93.3077 34.8545 91.728 35.8128C89.9887 36.8636 88.0729 37.5024 86.0479 37.6033C82.4096 37.7798 78.7545 37.8555 75.1078 37.9312C73.276 37.9732 71.4359 37.9396 69.6041 37.9396C68.6378 37.9396 68.3438 37.6285 68.3438 36.6702C68.3438 25.507 68.3438 14.3353 68.3438 3.17211C68.3438 2.11294 68.579 1.88598 69.6461 1.88598C73.8726 1.88598 78.0991 1.85236 82.3256 1.90279C84.9051 1.92801 87.4007 2.35672 89.7114 3.63444C92.0137 4.90375 93.3497 6.82874 93.8622 9.37578C94.4168 12.1246 93.8202 14.6043 91.9969 16.6975C91.2491 17.5549 90.1903 18.1433 89.2997 18.841Z" fill="#1D4797"/>
<path fill-rule="evenodd" clip-rule="evenodd" d="M17.6778 10.0715C16.2074 14.5687 14.7958 18.881 13.3673 23.2438C16.241 23.2438 19.0223 23.2438 21.8959 23.2438C20.5095 18.8979 19.1231 14.5855 17.6778 10.0715ZM17.9803 1.884C19.0979 1.884 20.2154 1.86719 21.3245 1.89241C22.0808 1.90922 22.6185 2.16981 22.9126 2.98519C25.0637 8.9703 27.2567 14.9302 29.4414 20.9069C31.3488 26.1187 33.2813 31.3304 35.1803 36.5506C35.6004 37.7022 35.3904 37.946 34.1636 37.946C32.063 37.946 29.9623 37.9292 27.8701 37.9544C26.9963 37.9628 26.5089 37.5341 26.24 36.7523C25.5006 34.5667 24.7444 32.3812 24.047 30.1788C23.9125 29.7585 23.7361 29.6408 23.3328 29.6408C19.5348 29.6492 15.7369 29.6576 11.9389 29.6324C11.502 29.6324 11.3591 29.8257 11.2415 30.1872C10.5105 32.4064 9.73746 34.6088 9.03164 36.8448C8.77957 37.6434 8.25021 37.9208 7.51919 37.9292C5.41856 37.9544 3.31792 37.946 1.22569 37.9292C0.309819 37.9208 0.0829505 37.6097 0.402247 36.7523C1.95671 32.5661 3.53639 28.3967 5.09926 24.2105C6.35124 20.8565 7.59481 17.5024 8.83839 14.14C10.1912 10.4918 11.5272 6.83517 12.8884 3.18694C13.2833 2.13618 13.7287 1.86719 14.8546 1.86719C15.9133 1.884 16.9468 1.884 17.9803 1.884Z" fill="#1D4797"/>
<path fill-rule="evenodd" clip-rule="evenodd" d="M42.3584 19.9389C42.4508 24.9152 45.4253 29.1435 49.9795 30.6398C53.8615 31.9175 57.3149 30.9592 60.3482 28.3113C60.9784 27.7565 61.3986 27.7229 61.9867 28.3029C63.1799 29.4713 64.3646 30.6566 65.541 31.8586C66.1628 32.4891 66.146 33.0775 65.499 33.6912C62.7009 36.3391 59.4156 37.9698 55.584 38.6087C52.7019 39.0878 49.8871 38.8861 47.1395 38.0623C44.5767 37.2974 42.2828 35.9776 40.2494 34.1787C36.9136 31.2282 34.8129 27.5631 34.1155 23.2172C33.2165 17.6188 34.4012 12.3902 38.0311 7.94341C40.8291 4.52215 44.4086 2.19367 48.8452 1.4035C50.1055 1.18494 51.3827 0.907544 52.6431 0.949575C57.0292 1.09248 61.054 2.33657 64.4571 5.23666C64.7176 5.45522 64.9864 5.66537 65.2553 5.87552C66.0115 6.48076 66.062 7.01875 65.3477 7.80892C64.2386 9.02779 63.0623 10.1794 61.8523 11.3058C61.3649 11.7598 60.7432 11.8018 60.1466 11.3058C58.5753 10.0029 56.8108 9.04461 54.7858 8.76721C52.0633 8.39734 49.467 8.93533 47.2235 10.5493C44.1313 12.7601 42.4256 15.9628 42.3584 19.9389Z" fill="#1D4797"/>
<path fill-rule="evenodd" clip-rule="evenodd" d="M59.8937 19.9792C59.9189 23.6106 57.0537 26.4182 53.449 26.4267C49.8947 26.4351 46.8782 23.6527 46.979 19.7607C47.0714 16.0956 49.8107 13.4225 53.4322 13.4141C56.9696 13.4057 59.9357 16.02 59.8937 19.9792Z" fill="#22AAE2"/>
</g>
<defs>
<clipPath id="clip0_994_9564">
<rect width="95.7048" height="37.9029" fill="white" transform="translate(0.273438 0.953125)"/>
</clipPath>
</defs>
</svg>
