<svg width="20" height="20" viewBox="0 0 20 20" fill="none" xmlns="http://www.w3.org/2000/svg">
<path d="M1.66797 9.54984V13.7165C1.66797 15.6248 3.20964 17.1665 5.11797 17.1665H14.8763C16.7846 17.1665 18.3346 15.6165 18.3346 13.7082V9.54984C18.3346 8.9915 17.8846 8.5415 17.3263 8.5415H2.6763C2.11797 8.5415 1.66797 8.9915 1.66797 9.54984ZM6.66797 14.3748H5.0013C4.65964 14.3748 4.3763 14.0915 4.3763 13.7498C4.3763 13.4082 4.65964 13.1248 5.0013 13.1248H6.66797C7.00964 13.1248 7.29297 13.4082 7.29297 13.7498C7.29297 14.0915 7.00964 14.3748 6.66797 14.3748ZM12.0846 14.3748H8.7513C8.40964 14.3748 8.1263 14.0915 8.1263 13.7498C8.1263 13.4082 8.40964 13.1248 8.7513 13.1248H12.0846C12.4263 13.1248 12.7096 13.4082 12.7096 13.7498C12.7096 14.0915 12.4263 14.3748 12.0846 14.3748Z" fill="#666666"/>
<path d="M11.2513 3.84183V6.2835C11.2513 6.84183 10.8013 7.29183 10.243 7.29183H2.6763C2.10964 7.29183 1.66797 6.82516 1.66797 6.26683C1.6763 5.32516 2.0513 4.46683 2.6763 3.84183C3.3013 3.21683 4.16797 2.8335 5.11797 2.8335H10.243C10.8013 2.8335 11.2513 3.2835 11.2513 3.84183Z" fill="#666666"/>
<path d="M16.6417 1.6665H14.1917C13.1333 1.6665 12.5 2.29984 12.5 3.35817V5.80817C12.5 6.8665 13.1333 7.49984 14.1917 7.49984H16.6417C17.7 7.49984 18.3333 6.8665 18.3333 5.80817V3.35817C18.3333 2.29984 17.7 1.6665 16.6417 1.6665ZM17.1917 3.70817L15.2167 6.0165C15.1417 6.10817 15.025 6.1665 14.9083 6.1665C14.9 6.1665 14.9 6.1665 14.8917 6.1665C14.775 6.1665 14.6667 6.12484 14.5833 6.0415L13.6667 5.1415C13.5 4.97484 13.5 4.69984 13.6667 4.53317C13.8333 4.3665 14.1083 4.35817 14.275 4.53317L14.8583 5.10817L16.525 3.15817C16.6833 2.97484 16.95 2.95817 17.1333 3.10817C17.325 3.25817 17.3417 3.53317 17.1917 3.70817Z" fill="#666666"/>
</svg>
