<svg width="19" height="18" viewBox="0 0 19 18" fill="none" xmlns="http://www.w3.org/2000/svg">
<path d="M9.49977 15.9503C13.8853 15.9503 17.4409 12.6167 17.4409 8.50447C17.4409 4.39222 13.8853 1.05859 9.49977 1.05859C5.11426 1.05859 1.55859 4.39222 1.55859 8.50447C1.55859 10.3766 2.29613 12.0891 3.51411 13.3975C3.41782 14.4782 3.10017 15.6631 2.74878 16.5524C2.67036 16.7502 2.82223 16.9715 3.01977 16.9375C5.25918 16.5439 6.59032 15.9397 7.16903 15.6249C7.92931 15.8421 8.71292 15.9516 9.49977 15.9503Z" stroke="white" stroke-width="1.5"/>
<mask id="path-2-inside-1_1232_70653" fill="white">
<path d="M6.0855 8.8586C6.0855 9.12191 5.99806 9.32816 5.8226 9.4779C5.64421 9.62594 5.39775 9.69996 5.08263 9.69996H3.5V9.08462H4.81094C4.96468 9.08462 5.07677 9.05976 5.1466 9.0106C5.21643 8.95974 5.25164 8.8812 5.25164 8.77384C5.25164 8.67496 5.21819 8.59755 5.15129 8.54161C5.08146 8.48793 4.96821 8.46137 4.81153 8.46137L3.74177 8.46532V7.85055H4.79157C4.95001 7.85055 5.06386 7.82682 5.13369 7.77879C5.20058 7.73245 5.23403 7.65561 5.23403 7.54825C5.23403 7.44654 5.20058 7.37082 5.13369 7.31996C5.09965 7.29228 5.05447 7.2725 4.99872 7.26007C4.94004 7.24933 4.87138 7.24368 4.79157 7.24368H3.5V6.62891H5.01632C5.36724 6.62891 5.63306 6.69671 5.8138 6.83232C5.99219 6.96963 6.08139 7.18266 6.08139 7.47196C6.08139 7.61718 6.04794 7.74601 5.98104 7.85846C5.91121 7.9709 5.82084 8.06979 5.70935 8.15455C5.83199 8.22744 5.92119 8.31446 5.97694 8.4156C6.04911 8.53426 6.0855 8.68174 6.0855 8.8586Z"/>
</mask>
<path d="M6.0855 8.8586C6.0855 9.12191 5.99806 9.32816 5.8226 9.4779C5.64421 9.62594 5.39775 9.69996 5.08263 9.69996H3.5V9.08462H4.81094C4.96468 9.08462 5.07677 9.05976 5.1466 9.0106C5.21643 8.95974 5.25164 8.8812 5.25164 8.77384C5.25164 8.67496 5.21819 8.59755 5.15129 8.54161C5.08146 8.48793 4.96821 8.46137 4.81153 8.46137L3.74177 8.46532V7.85055H4.79157C4.95001 7.85055 5.06386 7.82682 5.13369 7.77879C5.20058 7.73245 5.23403 7.65561 5.23403 7.54825C5.23403 7.44654 5.20058 7.37082 5.13369 7.31996C5.09965 7.29228 5.05447 7.2725 4.99872 7.26007C4.94004 7.24933 4.87138 7.24368 4.79157 7.24368H3.5V6.62891H5.01632C5.36724 6.62891 5.63306 6.69671 5.8138 6.83232C5.99219 6.96963 6.08139 7.18266 6.08139 7.47196C6.08139 7.61718 6.04794 7.74601 5.98104 7.85846C5.91121 7.9709 5.82084 8.06979 5.70935 8.15455C5.83199 8.22744 5.92119 8.31446 5.97694 8.4156C6.04911 8.53426 6.0855 8.68174 6.0855 8.8586Z" fill="white"/>
<path d="M5.8226 9.4779L6.46128 10.2475L6.47176 10.2386L5.8226 9.4779ZM3.5 9.69996H2.5V10.7H3.5V9.69996ZM3.5 9.08462V8.08462H2.5V9.08462H3.5ZM5.1466 9.0106L5.72224 9.8283L5.7288 9.82368L5.73529 9.81896L5.1466 9.0106ZM5.15129 8.54161L5.79278 7.77447L5.77703 7.7613L5.76074 7.74878L5.15129 8.54161ZM4.81153 8.46137V7.46136L4.80783 7.46138L4.81153 8.46137ZM3.74177 8.46532H2.74177V9.46903L3.74546 9.46532L3.74177 8.46532ZM3.74177 7.85055V6.85055H2.74177V7.85055H3.74177ZM5.13369 7.77879L5.70038 8.60272L5.70307 8.60086L5.13369 7.77879ZM5.13369 7.31996L4.50263 8.0957L4.5154 8.10609L4.5285 8.11605L5.13369 7.31996ZM4.99872 7.26007L5.21637 6.28404L5.1976 6.27986L5.17869 6.2764L4.99872 7.26007ZM3.5 7.24368H2.5V8.24368H3.5V7.24368ZM3.5 6.62891V5.62891H2.5V6.62891H3.5ZM5.8138 6.83232L6.42379 6.03982L6.41397 6.03245L5.8138 6.83232ZM5.98104 7.85846L6.83056 8.38602L6.83558 8.37793L6.84045 8.36974L5.98104 7.85846ZM5.70935 8.15455L5.10417 7.35846L3.92318 8.25625L5.19844 9.01418L5.70935 8.15455ZM5.97694 8.4156L5.10115 8.8983L5.11147 8.91702L5.12258 8.93528L5.97694 8.4156ZM5.0855 8.8586C5.0855 8.8793 5.08227 8.86033 5.0993 8.8202C5.11783 8.77654 5.14673 8.74004 5.17345 8.71724L6.47176 10.2386C6.90312 9.87042 7.0855 9.36782 7.0855 8.8586H5.0855ZM5.18399 8.70837C5.20882 8.68776 5.22538 8.68397 5.2164 8.68666C5.20446 8.69025 5.16371 8.69996 5.08263 8.69996V10.7C5.54754 10.7 6.04819 10.5902 6.46122 10.2474L5.18399 8.70837ZM5.08263 8.69996H3.5V10.7H5.08263V8.69996ZM4.5 9.69996V9.08462H2.5V9.69996H4.5ZM3.5 10.0846H4.81094V8.08462H3.5V10.0846ZM4.81094 10.0846C5.02838 10.0846 5.39627 10.0578 5.72224 9.8283L4.57095 8.1929C4.67436 8.1201 4.76269 8.09662 4.79458 8.08958C4.82847 8.08209 4.8378 8.08462 4.81094 8.08462V10.0846ZM5.73529 9.81896C6.12336 9.53634 6.25164 9.11894 6.25164 8.77384H4.25164C4.25164 8.71995 4.26038 8.62217 4.31162 8.50699C4.36591 8.38493 4.45231 8.27914 4.5579 8.20224L5.73529 9.81896ZM6.25164 8.77384C6.25164 8.42328 6.11896 8.04723 5.79278 7.77447L4.5098 9.30874C4.42764 9.24003 4.35596 9.14792 4.30858 9.03826C4.26267 8.93202 4.25164 8.83757 4.25164 8.77384H6.25164ZM5.76074 7.74878C5.42411 7.49001 5.03427 7.46137 4.81153 7.46137V9.46137C4.83775 9.46137 4.82416 9.46402 4.78453 9.45468C4.74583 9.44556 4.6496 9.41727 4.54184 9.33443L5.76074 7.74878ZM4.80783 7.46138L3.73807 7.46533L3.74546 9.46532L4.81522 9.46136L4.80783 7.46138ZM4.74177 8.46532V7.85055H2.74177V8.46532H4.74177ZM3.74177 8.85055H4.79157V6.85055H3.74177V8.85055ZM4.79157 8.85055C5.00005 8.85055 5.37156 8.82888 5.70038 8.60271L4.56699 6.95486C4.67401 6.88125 4.76391 6.85956 4.79087 6.85391C4.82072 6.84766 4.8251 6.85055 4.79157 6.85055V8.85055ZM5.70307 8.60086C6.12255 8.31032 6.23403 7.86796 6.23403 7.54825H4.23403C4.23403 7.50167 4.24088 7.40484 4.29203 7.28731C4.34722 7.16053 4.44007 7.04276 4.5643 6.95672L5.70307 8.60086ZM6.23403 7.54825C6.23403 7.20535 6.10626 6.80317 5.73887 6.52388L4.5285 8.11605C4.4292 8.04056 4.34643 7.93775 4.29367 7.81786C4.24352 7.70391 4.23403 7.60588 4.23403 7.54825H6.23403ZM5.76475 6.54423C5.5761 6.39076 5.37369 6.31912 5.21637 6.28404L4.78107 8.2361C4.73524 8.22588 4.62321 8.19379 4.50263 8.0957L5.76475 6.54423ZM5.17869 6.2764C5.04732 6.25236 4.9165 6.24368 4.79157 6.24368V8.24368C4.80811 8.24368 4.81846 8.24428 4.82342 8.24467C4.82844 8.24507 4.8265 8.24516 4.81875 8.24374L5.17869 6.2764ZM4.79157 6.24368H3.5V8.24368H4.79157V6.24368ZM4.5 7.24368V6.62891H2.5V7.24368H4.5ZM3.5 7.62891H5.01632V5.62891H3.5V7.62891ZM5.01632 7.62891C5.13034 7.62891 5.19837 7.64023 5.23172 7.64873C5.26362 7.65687 5.24862 7.65845 5.21364 7.6322L6.41397 6.03245C5.98787 5.71274 5.47147 5.62891 5.01632 5.62891V7.62891ZM5.20386 7.62477C5.1805 7.60679 5.15702 7.58381 5.13611 7.55643C5.11529 7.52917 5.10109 7.50287 5.09199 7.48115C5.07431 7.43889 5.08139 7.42762 5.08139 7.47196H7.08139C7.08139 6.96868 6.91554 6.41841 6.42375 6.03988L5.20386 7.62477ZM5.08139 7.47196C5.08139 7.46742 5.08197 7.45093 5.08839 7.4262C5.09497 7.40087 5.10599 7.37346 5.12163 7.34717L6.84045 8.36974C7.00923 8.08605 7.08139 7.77684 7.08139 7.47196H5.08139ZM5.13153 7.33089C5.12869 7.33547 5.12254 7.34449 5.10417 7.35846L6.31453 8.95063C6.51915 8.79508 6.69374 8.60634 6.83056 8.38602L5.13153 7.33089ZM5.19844 9.01418C5.20385 9.01739 5.14939 8.98583 5.10115 8.8983L6.85272 7.9329C6.69299 7.64308 6.46014 7.43748 6.22026 7.29491L5.19844 9.01418ZM5.12258 8.93528C5.07745 8.86109 5.0855 8.81739 5.0855 8.8586H7.0855C7.0855 8.54609 7.02078 8.20743 6.8313 7.89592L5.12258 8.93528Z" fill="white" mask="url(#path-2-inside-1_1232_70653)"/>
<mask id="path-4-inside-2_1232_70653" fill="white">
<path d="M9.24997 8.75753C9.24997 9.07961 9.1285 9.32371 8.88615 9.48984C8.64379 9.65597 8.29464 9.73846 7.8381 9.73846C7.2994 9.73846 6.90096 9.61359 6.64276 9.36383C6.38632 9.11578 6.25781 8.72646 6.25781 8.19531C6.25781 7.65907 6.39513 7.26354 6.67034 7.0087C6.94145 6.75499 7.36395 6.62842 7.93844 6.62842H9.08449L9.08214 7.24319H7.92201C7.63389 7.24319 7.42498 7.29687 7.2953 7.40367C7.23427 7.45452 7.18791 7.51894 7.15622 7.59692C7.12043 7.67941 7.10282 7.77378 7.10282 7.88057H8.13796C8.51117 7.88057 8.78991 7.95233 8.97417 8.09529C9.15784 8.23995 9.24997 8.46032 9.24997 8.75753ZM8.42198 8.79031C8.42198 8.69142 8.39557 8.61684 8.34276 8.56598C8.28994 8.51965 8.20955 8.49591 8.10099 8.49591H7.10693C7.10693 8.70555 7.16796 8.86433 7.2906 8.97112C7.41031 9.08074 7.6022 9.13555 7.86568 9.13555C8.06696 9.13555 8.20896 9.1073 8.29347 9.05136C8.37973 8.99542 8.42198 8.9084 8.42198 8.79031Z"/>
</mask>
<path d="M9.24997 8.75753C9.24997 9.07961 9.1285 9.32371 8.88615 9.48984C8.64379 9.65597 8.29464 9.73846 7.8381 9.73846C7.2994 9.73846 6.90096 9.61359 6.64276 9.36383C6.38632 9.11578 6.25781 8.72646 6.25781 8.19531C6.25781 7.65907 6.39513 7.26354 6.67034 7.0087C6.94145 6.75499 7.36395 6.62842 7.93844 6.62842H9.08449L9.08214 7.24319H7.92201C7.63389 7.24319 7.42498 7.29687 7.2953 7.40367C7.23427 7.45452 7.18791 7.51894 7.15622 7.59692C7.12043 7.67941 7.10282 7.77378 7.10282 7.88057H8.13796C8.51117 7.88057 8.78991 7.95233 8.97417 8.09529C9.15784 8.23995 9.24997 8.46032 9.24997 8.75753ZM8.42198 8.79031C8.42198 8.69142 8.39557 8.61684 8.34276 8.56598C8.28994 8.51965 8.20955 8.49591 8.10099 8.49591H7.10693C7.10693 8.70555 7.16796 8.86433 7.2906 8.97112C7.41031 9.08074 7.6022 9.13555 7.86568 9.13555C8.06696 9.13555 8.20896 9.1073 8.29347 9.05136C8.37973 8.99542 8.42198 8.9084 8.42198 8.79031Z" fill="white"/>
<path d="M6.64276 9.36383L5.9475 10.0826L5.94751 10.0826L6.64276 9.36383ZM6.67034 7.0087L7.34977 7.74246L7.35363 7.73885L6.67034 7.0087ZM9.08449 6.62842L10.0845 6.63224L10.0883 5.62842H9.08449V6.62842ZM9.08214 7.24319V8.24319H10.0783L10.0821 7.24701L9.08214 7.24319ZM7.2953 7.40367L6.6596 6.63171L6.65513 6.63543L7.2953 7.40367ZM7.15622 7.59692L8.07359 7.99496L8.07824 7.98423L8.08265 7.97339L7.15622 7.59692ZM7.10282 7.88057H6.10282V8.88057H7.10282V7.88057ZM8.97417 8.09529L9.5929 7.30966L9.58716 7.3052L8.97417 8.09529ZM8.34276 8.56598L9.03638 7.84564L9.01968 7.82956L9.00225 7.81427L8.34276 8.56598ZM7.10693 8.49591V7.49591H6.10693V8.49591H7.10693ZM7.2906 8.97112L7.96595 8.23362L7.95673 8.22518L7.9473 8.21697L7.2906 8.97112ZM8.29347 9.05136L7.74934 8.2123L7.74146 8.21752L8.29347 9.05136ZM8.24997 8.75753C8.24997 8.79182 8.24403 8.77617 8.26345 8.73709C8.27261 8.71867 8.28434 8.70147 8.29702 8.68718C8.30943 8.67318 8.31887 8.66631 8.32076 8.66502L9.45154 10.3147C9.99468 9.94235 10.25 9.3729 10.25 8.75753H8.24997ZM8.32076 8.66502C8.3143 8.66944 8.19766 8.73846 7.8381 8.73846V10.7385C8.39162 10.7385 8.97329 10.6425 9.45154 10.3147L8.32076 8.66502ZM7.8381 8.73846C7.64238 8.73846 7.51337 8.71535 7.43431 8.69057C7.35956 8.66715 7.33833 8.64538 7.33802 8.64507L5.94751 10.0826C6.46719 10.5853 7.16742 10.7385 7.8381 10.7385V8.73846ZM7.33803 8.64508C7.338 8.64506 7.33789 8.64494 7.33767 8.6447C7.33745 8.64446 7.33706 8.64402 7.3365 8.64331C7.33543 8.64196 7.33336 8.63917 7.33049 8.63443C7.32482 8.62503 7.3148 8.60589 7.30387 8.5727C7.28111 8.50365 7.25781 8.38407 7.25781 8.19531H5.25781C5.25781 8.86626 5.41877 9.57113 5.9475 10.0826L7.33803 8.64508ZM7.25781 8.19531C7.25781 8.00902 7.28209 7.89198 7.30545 7.82475C7.32677 7.76341 7.34598 7.74594 7.34976 7.74245L5.99092 6.27495C5.43604 6.78874 5.25781 7.50306 5.25781 8.19531H7.25781ZM7.35363 7.73885C7.36029 7.73261 7.48315 7.62842 7.93844 7.62842V5.62842C7.24475 5.62842 6.52261 5.77736 5.98705 6.27855L7.35363 7.73885ZM7.93844 7.62842H9.08449V5.62842H7.93844V7.62842ZM8.0845 6.6246L8.08215 7.23938L10.0821 7.24701L10.0845 6.63224L8.0845 6.6246ZM9.08214 6.24319H7.92201V8.24319H9.08214V6.24319ZM7.92201 6.24319C7.55158 6.24319 7.05717 6.30434 6.65961 6.63172L7.93099 8.17561C7.89315 8.20678 7.85921 8.22605 7.83554 8.23726C7.81228 8.24828 7.79816 8.25191 7.7975 8.25208C7.79683 8.25225 7.8062 8.24984 7.82801 8.24748C7.84968 8.24515 7.88058 8.24319 7.92201 8.24319V6.24319ZM6.65513 6.63543C6.46045 6.79766 6.3195 6.99969 6.2298 7.22044L8.08265 7.97339C8.05632 8.03819 8.00809 8.11139 7.93546 8.17191L6.65513 6.63543ZM6.23886 7.19887C6.13871 7.42967 6.10282 7.66393 6.10282 7.88057H8.10282C8.10282 7.88363 8.10214 7.92916 8.07359 7.99496L6.23886 7.19887ZM7.10282 8.88057H8.13796V6.88057H7.10282V8.88057ZM8.13796 8.88057C8.26383 8.88057 8.33976 8.89302 8.37806 8.90286C8.41505 8.91237 8.39895 8.91469 8.36117 8.88538L9.58716 7.3052C9.1503 6.96626 8.61009 6.88057 8.13796 6.88057V8.88057ZM8.35545 8.88091C8.33556 8.86524 8.31511 8.84497 8.2967 8.82059C8.27836 8.79629 8.26586 8.77299 8.25793 8.75397C8.24245 8.71684 8.24997 8.71019 8.24997 8.75753H10.25C10.25 8.24305 10.0796 7.69302 9.59289 7.30968L8.35545 8.88091ZM9.42198 8.79031C9.42198 8.51676 9.34533 8.14314 9.03638 7.84564L7.64913 9.28632C7.44581 9.09053 7.42198 8.86609 7.42198 8.79031H9.42198ZM9.00225 7.81427C8.69327 7.5432 8.33185 7.49591 8.10099 7.49591V9.49591C8.08725 9.49591 7.88661 9.49609 7.68326 9.31769L9.00225 7.81427ZM8.10099 7.49591H7.10693V9.49591H8.10099V7.49591ZM6.10693 8.49591C6.10693 8.90305 6.2324 9.37566 6.63391 9.72528L7.9473 8.21697C8.01475 8.2757 8.06059 8.34696 8.0857 8.412C8.10858 8.4713 8.10693 8.50582 8.10693 8.49591H6.10693ZM6.61526 9.70863C7.00503 10.0655 7.49968 10.1356 7.86568 10.1356V8.13555C7.79896 8.13555 7.78218 8.12813 7.79907 8.13296C7.81865 8.13855 7.88821 8.16244 7.96595 8.23362L6.61526 9.70863ZM7.86568 10.1356C8.10568 10.1356 8.50253 10.1122 8.84547 9.8852L7.74146 8.21752C7.79486 8.18217 7.84106 8.16183 7.87143 8.15057C7.9019 8.13926 7.92276 8.13473 7.92975 8.13336C7.94112 8.13111 7.92382 8.13555 7.86568 8.13555V10.1356ZM8.83757 9.89038C9.25911 9.61701 9.42198 9.18166 9.42198 8.79031H7.42198C7.42198 8.73102 7.43273 8.6251 7.49229 8.5037C7.555 8.37586 7.6493 8.27723 7.74936 8.21234L8.83757 9.89038Z" fill="white" mask="url(#path-4-inside-2_1232_70653)"/>
<mask id="path-6-inside-3_1232_70653" fill="white">
<path d="M12.1554 8.76989C12.1554 9.06993 12.0574 9.30047 11.8625 9.46095C11.666 9.62029 11.3884 9.6994 11.0304 9.6994H9.35156V9.08462H10.8849C11.0357 9.08462 11.1425 9.05976 11.2035 9.0106C11.2622 8.96257 11.291 8.88233 11.291 8.76989C11.291 8.65462 11.2616 8.57155 11.2035 8.52126C11.1425 8.47324 11.0357 8.4495 10.8849 8.4495H9.35156V6.62891H11.9993L11.9969 7.24368H10.1361V7.83812H11.173C11.4741 7.83812 11.7147 7.91835 11.896 8.07883C11.9799 8.16246 12.045 8.26078 12.0908 8.37322C12.1336 8.48793 12.1554 8.62071 12.1554 8.76989Z"/>
</mask>
<path d="M12.1554 8.76989C12.1554 9.06993 12.0574 9.30047 11.8625 9.46095C11.666 9.62029 11.3884 9.6994 11.0304 9.6994H9.35156V9.08462H10.8849C11.0357 9.08462 11.1425 9.05976 11.2035 9.0106C11.2622 8.96257 11.291 8.88233 11.291 8.76989C11.291 8.65462 11.2616 8.57155 11.2035 8.52126C11.1425 8.47324 11.0357 8.4495 10.8849 8.4495H9.35156V6.62891H11.9993L11.9969 7.24368H10.1361V7.83812H11.173C11.4741 7.83812 11.7147 7.91835 11.896 8.07883C11.9799 8.16246 12.045 8.26078 12.0908 8.37322C12.1336 8.48793 12.1554 8.62071 12.1554 8.76989Z" fill="white"/>
<path d="M11.8625 9.46095L12.4922 10.2378L12.4983 10.2328L11.8625 9.46095ZM9.35156 9.6994H8.35156V10.6994H9.35156V9.6994ZM9.35156 9.08462V8.08462H8.35156V9.08462H9.35156ZM11.2035 9.0106L11.8309 9.78939L11.8369 9.78444L11.2035 9.0106ZM11.2035 8.52126L11.858 7.7652L11.8404 7.7499L11.822 7.73544L11.2035 8.52126ZM9.35156 8.4495H8.35156V9.4495H9.35156V8.4495ZM9.35156 6.62891V5.62891H8.35156V6.62891H9.35156ZM11.9993 6.62891L12.9993 6.63272L13.0031 5.62891H11.9993V6.62891ZM11.9969 7.24368V8.24368H12.9931L12.9969 7.2475L11.9969 7.24368ZM10.1361 7.24368V6.24368H9.13613V7.24368H10.1361ZM10.1361 7.83812H9.13613V8.83812H10.1361V7.83812ZM11.896 8.07883L12.6019 7.37051L12.5809 7.34961L12.5587 7.32998L11.896 8.07883ZM12.0908 8.37322L13.0276 8.02337L13.0225 8.00971L13.017 7.9962L12.0908 8.37322ZM11.1554 8.76989C11.1554 8.81155 11.1486 8.80735 11.1614 8.77734C11.1676 8.76253 11.1771 8.74537 11.19 8.72816C11.2028 8.71099 11.216 8.69797 11.2267 8.68908L12.4983 10.2328C12.9671 9.84665 13.1554 9.30756 13.1554 8.76989H11.1554ZM11.2328 8.6841C11.2764 8.64882 11.2542 8.6994 11.0304 8.6994V10.6994C11.5226 10.6994 12.0555 10.5918 12.4922 10.2378L11.2328 8.6841ZM11.0304 8.6994H9.35156V10.6994H11.0304V8.6994ZM10.3516 9.6994V9.08462H8.35156V9.6994H10.3516ZM9.35156 10.0846H10.8849V8.08462H9.35156V10.0846ZM10.8849 10.0846C11.0833 10.0846 11.4896 10.0643 11.8309 9.78937L10.5762 8.23183C10.6998 8.13229 10.8124 8.10109 10.8515 8.09201C10.8944 8.08204 10.9104 8.08462 10.8849 8.08462V10.0846ZM11.8369 9.78444C12.2252 9.46665 12.291 9.02802 12.291 8.76989H10.291C10.291 8.73665 10.2993 8.45849 10.5702 8.23675L11.8369 9.78444ZM12.291 8.76989C12.291 8.50937 12.2255 8.08327 11.858 7.7652L10.5491 9.27733C10.2978 9.05984 10.291 8.79987 10.291 8.76989H12.291ZM11.822 7.73544C11.4804 7.46658 11.0757 7.4495 10.8849 7.4495V9.4495C10.913 9.4495 10.8994 9.4522 10.8589 9.4431C10.8227 9.43498 10.7101 9.40545 10.5851 9.30709L11.822 7.73544ZM10.8849 7.4495H9.35156V9.4495H10.8849V7.4495ZM10.3516 8.4495V6.62891H8.35156V8.4495H10.3516ZM9.35156 7.62891H11.9993V5.62891H9.35156V7.62891ZM10.9993 6.62509L10.9969 7.23987L12.9969 7.2475L12.9993 6.63272L10.9993 6.62509ZM11.9969 6.24368H10.1361V8.24368H11.9969V6.24368ZM9.13613 7.24368V7.83812H11.1361V7.24368H9.13613ZM10.1361 8.83812H11.173V6.83812H10.1361V8.83812ZM11.173 8.83812C11.2355 8.83812 11.2617 8.84649 11.2634 8.84705C11.2641 8.84728 11.2602 8.84602 11.2534 8.84218C11.2466 8.83827 11.2395 8.83326 11.2332 8.82768L12.5587 7.32998C12.1534 6.9713 11.6571 6.83812 11.173 6.83812V8.83812ZM11.1901 8.78714C11.1846 8.78164 11.1789 8.77481 11.1738 8.7672C11.1688 8.75962 11.1659 8.75351 11.1646 8.75024L13.017 7.9962C12.9218 7.76235 12.7827 7.55072 12.6019 7.37051L11.1901 8.78714ZM11.154 8.72307C11.1473 8.70508 11.1554 8.71576 11.1554 8.76989H13.1554C13.1554 8.52567 13.12 8.27077 13.0276 8.02337L11.154 8.72307Z" fill="white" mask="url(#path-6-inside-3_1232_70653)"/>
<path d="M14.3421 10.6378C14.2232 10.6012 13.9015 10.5144 13.5814 10.4293L13.8355 10.2088L14.816 10.4828C14.8282 10.4887 14.8447 10.4971 14.8635 10.5078C14.9071 10.5326 14.9485 10.5615 14.9788 10.5897C14.8989 10.6637 14.8759 10.6762 14.8415 10.6861C14.7948 10.6995 14.6626 10.7197 14.3421 10.6378ZM15.0044 10.5541C15.0045 10.5541 15.0043 10.5547 15.0037 10.5559L15.0044 10.5541Z" fill="white" stroke="white"/>
<path d="M8.17791 11.4888C8.31035 11.4798 8.44431 11.4656 8.57926 11.4472L8.17791 11.4888ZM8.17791 11.4888C8.55316 11.444 8.91686 11.3595 9.26275 11.257L9.26285 11.2569C10.3692 10.9288 11.417 10.4377 12.3137 9.66235L12.3151 9.66113C12.328 9.64985 12.3361 9.64284 12.3439 9.63636L12.344 9.63649L12.3537 9.62799C12.6462 9.37176 13.0044 9.03684 13.278 8.64322C13.5521 8.24881 13.7736 7.7486 13.7126 7.17608L13.7126 7.17583C13.7058 7.11245 13.6942 7.0519 13.6784 6.99411C13.7366 7.05916 13.7819 7.13018 13.8152 7.20728C13.8658 7.37189 13.8804 7.56382 13.8633 7.76521L13.8633 7.76564C13.831 8.14766 13.6761 8.52972 13.4346 8.87997L13.4345 8.88021C13.0262 9.47304 12.4148 9.95115 11.7319 10.3544L11.7317 10.3544C11.1633 10.6903 10.5795 10.9499 9.9489 11.1388L9.94881 11.1389C9.49262 11.2757 9.03731 11.3851 8.57931 11.4472L8.17791 11.4888ZM5.78522 10.0345C5.80811 10.0826 5.83334 10.1289 5.86092 10.1747L5.74943 9.95259C5.7548 9.96442 5.75984 9.97635 5.76488 9.9883C5.77141 10.0038 5.77794 10.0192 5.78522 10.0345Z" fill="white" stroke="white"/>
<mask id="path-10-inside-4_1232_70653" fill="white">
<path fill-rule="evenodd" clip-rule="evenodd" d="M6.10156 9.89851C6.10156 9.89851 7.72645 11.314 10.5162 9.79736C10.2051 10.1511 6.7318 11.7688 6.10156 9.89851Z"/>
</mask>
<path fill-rule="evenodd" clip-rule="evenodd" d="M6.10156 9.89851C6.10156 9.89851 7.72645 11.314 10.5162 9.79736C10.2051 10.1511 6.7318 11.7688 6.10156 9.89851Z" fill="white"/>
<path d="M6.10156 9.89851L6.7584 9.14448L3.97529 6.72008L5.15392 10.2178L6.10156 9.89851ZM10.5162 9.79736L11.2671 10.4577L10.0385 8.9188L10.5162 9.79736ZM6.10156 9.89851C5.44472 10.6525 5.44524 10.653 5.44576 10.6534C5.44594 10.6536 5.44647 10.6541 5.44684 10.6544C5.44757 10.655 5.44833 10.6557 5.44912 10.6563C5.45069 10.6577 5.45238 10.6591 5.45418 10.6607C5.45777 10.6637 5.46181 10.6671 5.46628 10.6709C5.47523 10.6783 5.48594 10.6871 5.49841 10.697C5.52334 10.7168 5.55536 10.7413 5.59436 10.7692C5.67229 10.8251 5.77873 10.8952 5.91286 10.9698C6.18098 11.119 6.56292 11.2878 7.05007 11.3938C8.04643 11.6106 9.39445 11.5454 10.9938 10.6759L10.0385 8.9188C8.84815 9.56594 7.98888 9.55128 7.47536 9.43953C7.20758 9.38126 7.00894 9.29095 6.88522 9.22211C6.82343 9.18774 6.78113 9.15916 6.7593 9.14351C6.74842 9.13572 6.74281 9.13127 6.74257 9.13108C6.74246 9.13099 6.74371 9.13198 6.74634 9.13417C6.74765 9.13527 6.74931 9.13666 6.75132 9.13838C6.75233 9.13923 6.75342 9.14017 6.7546 9.14118C6.75519 9.14169 6.7558 9.14222 6.75644 9.14277C6.75675 9.14304 6.75725 9.14347 6.7574 9.14361C6.7579 9.14404 6.7584 9.14448 6.10156 9.89851ZM9.76516 9.13705C9.84264 9.04893 9.88223 9.04345 9.7543 9.11905C9.66498 9.17183 9.53411 9.24052 9.37036 9.31487C9.04069 9.46456 8.62543 9.61559 8.21565 9.70488C7.78869 9.79792 7.46124 9.80316 7.2583 9.75192C7.11355 9.71537 7.08122 9.67417 7.04921 9.57918L5.15392 10.2178C5.43703 11.058 6.0752 11.516 6.76868 11.6911C7.40396 11.8515 8.08245 11.7808 8.64148 11.659C9.2177 11.5335 9.76848 11.3306 10.1972 11.1359C10.4127 11.0381 10.6091 10.937 10.7717 10.8409C10.8958 10.7676 11.1119 10.6342 11.2671 10.4577L9.76516 9.13705Z" fill="white" mask="url(#path-10-inside-4_1232_70653)"/>
</svg>
