<svg width="26" height="26" viewBox="0 0 26 26" fill="none" xmlns="http://www.w3.org/2000/svg">
<path d="M17.3294 16.6878L23.1755 10.9379L23.2496 10.8534C23.3593 10.7061 23.4122 10.5242 23.3986 10.341C23.385 10.1579 23.3058 9.98578 23.1755 9.85631L17.3294 4.10901L17.2488 4.04011C16.7808 3.68911 16.0918 4.02711 16.0918 4.64981V7.41881L15.7993 7.43831C11.1674 7.80491 8.45429 10.7364 7.80689 16.0534C7.72369 16.7359 8.50629 17.1636 9.01329 16.7112C10.8736 15.0498 12.7963 14.0176 14.7918 13.6042C15.1116 13.5379 15.4327 13.4872 15.7564 13.4521L16.0918 13.4222V16.147L16.0983 16.2536C16.1763 16.8425 16.89 17.1194 17.3294 16.6878ZM15.8942 8.73441L17.3918 8.63431V5.99141L21.8716 10.3958L17.3918 14.8028V11.9987L15.629 12.1573H15.6186C13.4047 12.3952 11.3156 13.2818 9.34349 14.7599C9.73089 13.0192 10.3926 11.7101 11.2623 10.7728C12.3413 9.60931 13.8493 8.89691 15.8942 8.73311V8.73441ZM7.15039 5.19841C6.28844 5.19841 5.46179 5.54082 4.85229 6.15032C4.2428 6.75981 3.90039 7.58646 3.90039 8.44841V18.8484C3.90039 19.7104 4.2428 20.537 4.85229 21.1465C5.46179 21.756 6.28844 22.0984 7.15039 22.0984H17.5504C18.4123 22.0984 19.239 21.756 19.8485 21.1465C20.458 20.537 20.8004 19.7104 20.8004 18.8484V17.5484C20.8004 17.376 20.7319 17.2107 20.61 17.0888C20.4881 16.9669 20.3228 16.8984 20.1504 16.8984C19.978 16.8984 19.8127 16.9669 19.6908 17.0888C19.5689 17.2107 19.5004 17.376 19.5004 17.5484V18.8484C19.5004 19.3656 19.2949 19.8616 18.9292 20.2273C18.5636 20.593 18.0676 20.7984 17.5504 20.7984H7.15039C6.63322 20.7984 6.13723 20.593 5.77153 20.2273C5.40584 19.8616 5.20039 19.3656 5.20039 18.8484V8.44841C5.20039 7.93124 5.40584 7.43525 5.77153 7.06955C6.13723 6.70386 6.63322 6.49841 7.15039 6.49841H11.0504C11.2228 6.49841 11.3881 6.42993 11.51 6.30803C11.6319 6.18613 11.7004 6.0208 11.7004 5.84841C11.7004 5.67602 11.6319 5.51069 11.51 5.38879C11.3881 5.26689 11.2228 5.19841 11.0504 5.19841H7.15039Z" fill="#F26222"/>
</svg>
