<svg width="26" height="26" viewBox="0 0 26 26" fill="none" xmlns="http://www.w3.org/2000/svg">
<path d="M17.3274 16.6878L23.1735 10.9379L23.2476 10.8534C23.3573 10.7061 23.4102 10.5242 23.3966 10.341C23.383 10.1579 23.3038 9.98578 23.1735 9.85631L17.3274 4.10901L17.2468 4.04011C16.7788 3.68911 16.0898 4.02711 16.0898 4.64981V7.41881L15.7973 7.43831C11.1654 7.80491 8.45234 10.7364 7.80494 16.0534C7.72174 16.7359 8.50434 17.1636 9.01134 16.7112C10.8716 15.0498 12.7943 14.0176 14.7898 13.6042C15.1096 13.5379 15.4307 13.4872 15.7544 13.4521L16.0898 13.4222V16.147L16.0963 16.2536C16.1743 16.8425 16.888 17.1194 17.3274 16.6878ZM15.8922 8.73441L17.3898 8.63431V5.99141L21.8696 10.3958L17.3898 14.8028V11.9987L15.627 12.1573H15.6166C13.4027 12.3952 11.3136 13.2818 9.34154 14.7599C9.72894 13.0192 10.3906 11.7101 11.2603 10.7728C12.3393 9.60931 13.8473 8.89691 15.8922 8.73311V8.73441ZM7.14844 5.19841C6.28648 5.19841 5.45983 5.54082 4.85034 6.15032C4.24085 6.75981 3.89844 7.58646 3.89844 8.44841V18.8484C3.89844 19.7104 4.24085 20.537 4.85034 21.1465C5.45983 21.756 6.28648 22.0984 7.14844 22.0984H17.5484C18.4104 22.0984 19.237 21.756 19.8465 21.1465C20.456 20.537 20.7984 19.7104 20.7984 18.8484V17.5484C20.7984 17.376 20.73 17.2107 20.6081 17.0888C20.4862 16.9669 20.3208 16.8984 20.1484 16.8984C19.976 16.8984 19.8107 16.9669 19.6888 17.0888C19.5669 17.2107 19.4984 17.376 19.4984 17.5484V18.8484C19.4984 19.3656 19.293 19.8616 18.9273 20.2273C18.5616 20.593 18.0656 20.7984 17.5484 20.7984H7.14844C6.63127 20.7984 6.13527 20.593 5.76958 20.2273C5.40388 19.8616 5.19844 19.3656 5.19844 18.8484V8.44841C5.19844 7.93124 5.40388 7.43525 5.76958 7.06955C6.13527 6.70386 6.63127 6.49841 7.14844 6.49841H11.0484C11.2208 6.49841 11.3862 6.42993 11.5081 6.30803C11.63 6.18613 11.6984 6.0208 11.6984 5.84841C11.6984 5.67602 11.63 5.51069 11.5081 5.38879C11.3862 5.26689 11.2208 5.19841 11.0484 5.19841H7.14844Z" fill="#F26222"/>
</svg>
