<svg width="30" height="30" viewBox="0 0 30 30" fill="none" xmlns="http://www.w3.org/2000/svg">
<path d="M8.71097 8.71097C8.79806 8.62367 8.90151 8.5544 9.01541 8.50714C9.12931 8.45987 9.25141 8.43555 9.37472 8.43555C9.49804 8.43555 9.62014 8.45987 9.73404 8.50714C9.84793 8.5544 9.95139 8.62367 10.0385 8.71097L14.9997 13.6741L19.961 8.71097C20.0481 8.62381 20.1516 8.55466 20.2655 8.50749C20.3794 8.46032 20.5015 8.43604 20.6247 8.43604C20.748 8.43604 20.8701 8.46032 20.9839 8.50749C21.0978 8.55466 21.2013 8.62381 21.2885 8.71097C21.3756 8.79814 21.4448 8.90162 21.492 9.0155C21.5391 9.12939 21.5634 9.25145 21.5634 9.37472C21.5634 9.49799 21.5391 9.62006 21.492 9.73394C21.4448 9.84783 21.3756 9.95131 21.2885 10.0385L16.3253 14.9997L21.2885 19.961C21.3756 20.0481 21.4448 20.1516 21.492 20.2655C21.5391 20.3794 21.5634 20.5015 21.5634 20.6247C21.5634 20.748 21.5391 20.8701 21.492 20.9839C21.4448 21.0978 21.3756 21.2013 21.2885 21.2885C21.2013 21.3756 21.0978 21.4448 20.9839 21.492C20.8701 21.5391 20.748 21.5634 20.6247 21.5634C20.5015 21.5634 20.3794 21.5391 20.2655 21.492C20.1516 21.4448 20.0481 21.3756 19.961 21.2885L14.9997 16.3253L10.0385 21.2885C9.95131 21.3756 9.84783 21.4448 9.73394 21.492C9.62006 21.5391 9.49799 21.5634 9.37472 21.5634C9.25145 21.5634 9.12939 21.5391 9.0155 21.492C8.90162 21.4448 8.79814 21.3756 8.71097 21.2885C8.62381 21.2013 8.55466 21.0978 8.50749 20.9839C8.46032 20.8701 8.43604 20.748 8.43604 20.6247C8.43604 20.5015 8.46032 20.3794 8.50749 20.2655C8.55466 20.1516 8.62381 20.0481 8.71097 19.961L13.6741 14.9997L8.71097 10.0385C8.62367 9.95139 8.5544 9.84793 8.50714 9.73404C8.45987 9.62014 8.43555 9.49804 8.43555 9.37472C8.43555 9.25141 8.45987 9.12931 8.50714 9.01541C8.5544 8.90151 8.62367 8.79806 8.71097 8.71097Z" fill="white"/>
</svg>
