<svg width="30" height="30" viewBox="0 0 30 30" fill="none" xmlns="http://www.w3.org/2000/svg">
<path d="M8.71293 8.71293C8.80001 8.62562 8.90347 8.55635 9.01736 8.50909C9.13126 8.46183 9.25336 8.4375 9.37668 8.4375C9.49999 8.4375 9.62209 8.46183 9.73599 8.50909C9.84989 8.55635 9.95334 8.62562 10.0404 8.71293L15.0017 13.6761L19.9629 8.71293C20.0501 8.62576 20.1536 8.55662 20.2675 8.50944C20.3813 8.46227 20.5034 8.43799 20.6267 8.43799C20.7499 8.43799 20.872 8.46227 20.9859 8.50944C21.0998 8.55662 21.2033 8.62576 21.2904 8.71293C21.3776 8.80009 21.4467 8.90357 21.4939 9.01746C21.5411 9.13134 21.5654 9.25341 21.5654 9.37668C21.5654 9.49995 21.5411 9.62201 21.4939 9.73589C21.4467 9.84978 21.3776 9.95326 21.2904 10.0404L16.3273 15.0017L21.2904 19.9629C21.3776 20.0501 21.4467 20.1536 21.4939 20.2675C21.5411 20.3813 21.5654 20.5034 21.5654 20.6267C21.5654 20.7499 21.5411 20.872 21.4939 20.9859C21.4467 21.0998 21.3776 21.2033 21.2904 21.2904C21.2033 21.3776 21.0998 21.4467 20.9859 21.4939C20.872 21.5411 20.7499 21.5654 20.6267 21.5654C20.5034 21.5654 20.3813 21.5411 20.2675 21.4939C20.1536 21.4467 20.0501 21.3776 19.9629 21.2904L15.0017 16.3273L10.0404 21.2904C9.95326 21.3776 9.84978 21.4467 9.73589 21.4939C9.62201 21.5411 9.49995 21.5654 9.37668 21.5654C9.25341 21.5654 9.13134 21.5411 9.01746 21.4939C8.90357 21.4467 8.80009 21.3776 8.71293 21.2904C8.62576 21.2033 8.55662 21.0998 8.50944 20.9859C8.46227 20.872 8.43799 20.7499 8.43799 20.6267C8.43799 20.5034 8.46227 20.3813 8.50944 20.2675C8.55662 20.1536 8.62576 20.0501 8.71293 19.9629L13.6761 15.0017L8.71293 10.0404C8.62562 9.95334 8.55635 9.84989 8.50909 9.73599C8.46183 9.62209 8.4375 9.49999 8.4375 9.37668C8.4375 9.25336 8.46183 9.13126 8.50909 9.01736C8.55635 8.90347 8.62562 8.80001 8.71293 8.71293Z" fill="white"/>
</svg>
