<svg width="20" height="20" viewBox="0 0 20 20" fill="none" xmlns="http://www.w3.org/2000/svg">
<path fill-rule="evenodd" clip-rule="evenodd" d="M0 9.33214C0 4.1332 4.49145 0 9.93137 0C15.3682 0 19.8627 4.13306 19.8627 9.33214C19.8627 14.5311 15.3713 18.6643 9.93137 18.6643C9.05178 18.6643 8.1952 18.5573 7.37958 18.3536L4.59363 19.8999C4.06865 20.1913 3.42375 19.8117 3.42375 19.2112V16.3821C1.33534 14.6788 0 12.1588 0 9.33214ZM9.93137 1.43206C5.1902 1.43206 1.43206 5.01322 1.43206 9.33214C1.43206 11.7956 2.6452 14.0062 4.57169 15.4631L4.85582 15.678V18.1165L7.19446 16.8185L7.47815 16.8983C8.25226 17.116 9.07712 17.2322 9.93137 17.2322C14.6725 17.2322 18.4307 13.6511 18.4307 9.33214C18.4307 5.01336 14.6698 1.43206 9.93137 1.43206Z" fill="#333333"/>
</svg>
