<svg width="25" height="25" viewBox="0 0 25 25" fill="none" xmlns="http://www.w3.org/2000/svg">
<g clip-path="url(#clip0_4221_36857)">
<path d="M12.5 25.0019C19.4036 25.0019 25 19.4055 25 12.5019C25 5.59839 19.4036 0.00195312 12.5 0.00195312C5.59644 0.00195312 0 5.59839 0 12.5019C0 19.4055 5.59644 25.0019 12.5 25.0019Z" fill="#1977F3"/>
<path d="M17.3644 16.1154L17.9181 12.5013H14.4517V10.1563C14.4517 9.16842 14.9351 8.20337 16.489 8.20337H18.0658V5.12715C18.0658 5.12715 16.6349 4.88281 15.2673 4.88281C12.4126 4.88281 10.5458 6.61253 10.5458 9.74675V12.5013H7.37109V16.1154H10.5458V24.8501C11.1821 24.9503 11.8342 25.0013 12.4987 25.0013C13.1632 25.0013 13.8153 24.9485 14.4517 24.8501V16.1154H17.3644Z" fill="white"/>
</g>
<defs>
<clipPath id="clip0_4221_36857">
<rect width="25" height="25" rx="12.5" fill="white"/>
</clipPath>
</defs>
</svg>
