<svg width="25" height="25" viewBox="0 0 25 25" fill="none" xmlns="http://www.w3.org/2000/svg">
<path d="M21.875 25H3.125C1.4 25 0 23.6 0 21.875V3.125C0 1.4 1.4 0 3.125 0H21.875C23.6 0 25 1.4 25 3.125V21.875C25 23.6 23.6 25 21.875 25Z" fill="#C0C0C0"/>
<path d="M13.7868 11.214C13.1042 10.5317 12.1786 10.1484 11.2135 10.1484C10.2484 10.1484 9.32278 10.5317 8.6402 11.214L6.06607 13.7873C5.38348 14.4699 5 15.3957 5 16.361C5 17.3264 5.38348 18.2522 6.06607 18.9348C6.74866 19.6173 7.67445 20.0008 8.63978 20.0008C9.60511 20.0008 10.5309 19.6173 11.2135 18.9348L12.5001 17.6481" stroke="white" stroke-width="3" stroke-linecap="round" stroke-linejoin="round"/>
<path d="M11.2148 13.7868C11.8974 14.4691 12.823 14.8524 13.7881 14.8524C14.7533 14.8524 15.6789 14.4691 16.3614 13.7868L18.9356 11.2135C19.6182 10.5309 20.0016 9.60511 20.0016 8.63978C20.0016 7.67445 19.6182 6.74866 18.9356 6.06607C18.253 5.38348 17.3272 5 16.3619 5C15.3965 5 14.4707 5.38348 13.7881 6.06607L12.5015 7.35272" stroke="white" stroke-width="3" stroke-linecap="round" stroke-linejoin="round"/>
</svg>
