<svg width="25" height="25" viewBox="0 0 25 25" fill="none" xmlns="http://www.w3.org/2000/svg">
<g clip-path="url(#clip0_4221_36860)">
<path fill-rule="evenodd" clip-rule="evenodd" d="M12.4988 -0.862305C4.9726 -0.862305 -0.863281 4.65289 -0.863281 12.0989C-0.863281 15.9939 0.733486 19.3612 3.33241 21.6862C3.54954 21.8799 3.68316 22.1539 3.68984 22.4478L3.76334 24.8263C3.78672 25.5846 4.5684 26.079 5.26323 25.7716L7.9156 24.6025C8.13941 24.5022 8.39329 24.4855 8.63047 24.549C9.84976 24.8831 11.1459 25.0634 12.4988 25.0634C20.025 25.0634 25.8609 19.5483 25.8609 12.1022C25.8609 4.65623 20.025 -0.862305 12.4988 -0.862305Z" fill="url(#paint0_radial_4221_36860)"/>
<path fill-rule="evenodd" clip-rule="evenodd" d="M4.47461 15.8906L8.39971 9.66385C9.02438 8.67171 10.3606 8.42786 11.2993 9.12937L14.4227 11.4711C14.7099 11.6849 15.1041 11.6849 15.3881 11.4677L19.6038 8.26751C20.165 7.83993 20.8999 8.51471 20.5258 9.11266L16.5973 15.336C15.9727 16.3282 14.6364 16.572 13.6978 15.8705L10.5744 13.5288C10.2871 13.315 9.89292 13.315 9.60897 13.5322L5.39325 16.7324C4.83204 17.16 4.09713 16.4885 4.47461 15.8906Z" fill="white"/>
<path fill-rule="evenodd" clip-rule="evenodd" d="M12.5261 -0.522461C4.99995 -0.522461 -0.835938 4.99273 -0.835938 12.4387C-0.835938 16.3338 0.76083 19.701 3.35975 22.026C3.57689 22.2198 3.71051 22.4937 3.71719 22.7877L3.79068 25.1661C3.81406 25.9244 4.59574 26.4188 5.29057 26.1115L7.94294 24.9423C8.16676 24.8421 8.42064 24.8254 8.65781 24.8889C9.8771 25.2229 11.1732 25.4033 12.5261 25.4033C20.0523 25.4033 25.8882 19.8881 25.8882 12.4421C25.8882 4.99607 20.0523 -0.522461 12.5261 -0.522461Z" fill="url(#paint1_radial_4221_36860)"/>
<path fill-rule="evenodd" clip-rule="evenodd" d="M4.50195 16.2304L8.42705 10.0037C9.05173 9.01156 10.3879 8.7677 11.3266 9.46921L14.45 11.8109C14.7373 12.0247 15.1315 12.0247 15.4154 11.8076L19.6311 8.60736C20.1923 8.17977 20.9272 8.85455 20.5531 9.45251L16.6247 15.6759C16 16.668 14.6638 16.9119 13.7251 16.2104L10.6017 13.8687C10.3144 13.6549 9.92026 13.6549 9.63632 13.872L5.42059 17.0722C4.85939 17.4998 4.12447 16.8284 4.50195 16.2304Z" fill="white"/>
</g>
<defs>
<radialGradient id="paint0_radial_4221_36860" cx="0" cy="0" r="1" gradientUnits="userSpaceOnUse" gradientTransform="translate(4.28111 25.7169) scale(29.1186 29.1186)">
<stop stop-color="#0099FF"/>
<stop offset="0.6098" stop-color="#A033FF"/>
<stop offset="0.9348" stop-color="#FF5280"/>
<stop offset="1" stop-color="#FF7061"/>
</radialGradient>
<radialGradient id="paint1_radial_4221_36860" cx="0" cy="0" r="1" gradientUnits="userSpaceOnUse" gradientTransform="translate(4.30846 26.0568) scale(29.1186 29.1186)">
<stop stop-color="#0099FF"/>
<stop offset="0.6098" stop-color="#A033FF"/>
<stop offset="0.9348" stop-color="#FF5280"/>
<stop offset="1" stop-color="#FF7061"/>
</radialGradient>
<clipPath id="clip0_4221_36860">
<rect width="25" height="25" rx="12.5" fill="white"/>
</clipPath>
</defs>
</svg>
