<svg width="25" height="25" viewBox="0 0 25 25" fill="none" xmlns="http://www.w3.org/2000/svg">
<path fill-rule="evenodd" clip-rule="evenodd" d="M11.3469 0.0839844H13.5625C16.6032 0.0839844 18.3844 0.530861 19.9626 1.37774C21.5234 2.20066 22.799 3.47626 23.6219 5.03712C24.4688 6.61525 24.9157 8.39338 24.9157 11.4371V13.6434C24.9157 16.6872 24.4688 18.4653 23.6219 20.0434C22.7995 21.6054 21.5239 22.8822 19.9626 23.7059C18.4001 24.5528 16.6032 24.9997 13.5625 24.9997H11.3563C8.31252 24.9997 6.53439 24.5528 4.95626 23.7059C3.39379 22.8827 2.117 21.6059 1.29375 20.0434C0.446876 18.4809 0 16.6872 0 13.6434V11.4371C0 8.39338 0.446876 6.61525 1.29375 5.03712C2.1175 3.4758 3.39424 2.20015 4.95626 1.37774C6.52502 0.530861 8.31252 0.0839844 11.3469 0.0839844Z" fill="#0068FF"/>
<path opacity="0.12" fill-rule="evenodd" clip-rule="evenodd" d="M24.9165 13.2812V13.6438C24.9165 16.6875 24.4696 18.4656 23.6227 20.0438C22.8003 21.6058 21.5246 22.8825 19.9633 23.7063C18.4008 24.5532 16.6039 25 13.5633 25H11.3571C8.85705 25 7.22267 24.6875 5.84141 24.1282L3.56641 21.7844L24.9165 13.2812Z" fill="#001A33"/>
<path fill-rule="evenodd" clip-rule="evenodd" d="M3.81728 21.8657C5.07635 21.9519 6.33622 21.7096 7.47354 21.1626C11.9673 23.6438 18.9892 23.5251 23.2392 20.8063C23.4048 20.5594 23.5517 20.3001 23.7017 20.0344C24.5486 18.4501 24.9986 16.6657 24.9986 13.6094V11.4063C24.9986 8.35002 24.5486 6.56564 23.7017 4.98126C22.8742 3.41456 21.5934 2.1338 20.0267 1.30625C18.4423 0.450001 16.6579 0 13.5923 0H11.3767C8.77667 0 7.08916 0.312501 5.67041 0.953128C5.59228 1.02188 5.51416 1.09375 5.44228 1.16563C1.27977 5.17814 0.961018 13.875 4.49228 18.5938V18.6157C5.03603 19.4188 4.51103 20.8219 3.68915 21.6407C3.5704 21.7719 3.61728 21.8469 3.81728 21.8657Z" fill="white"/>
<path d="M10.2309 8.52832H5.35273V9.5752H8.74024L5.39961 13.7127C5.26761 13.8931 5.20444 14.1148 5.22148 14.3377V14.6065H9.82462C9.93514 14.6056 10.0408 14.5612 10.1187 14.4827C10.1966 14.4043 10.2402 14.2982 10.2402 14.1877V13.6252H6.68398L9.80899 9.6877C9.85587 9.63145 9.94024 9.52832 9.97774 9.47832L9.99649 9.4502C10.1516 9.22479 10.2284 8.95473 10.2152 8.68145L10.2309 8.52832Z" fill="#0068FF"/>
<path d="M16.4438 14.5971H17.1375V8.52832H16.0938V14.244C16.0937 14.3371 16.1305 14.4264 16.1961 14.4926C16.2616 14.5587 16.3506 14.5963 16.4438 14.5971V14.5971Z" fill="#0068FF"/>
<path d="M12.8664 9.87793C12.3961 9.87793 11.9363 10.0174 11.5452 10.2787C11.1541 10.54 10.8493 10.9114 10.6693 11.346C10.4893 11.7805 10.4422 12.2587 10.534 12.72C10.6257 13.1813 10.8522 13.6051 11.1848 13.9377C11.5174 14.2702 11.9412 14.4967 12.4025 14.5885C12.8638 14.6803 13.3419 14.6332 13.7765 14.4532C14.211 14.2732 14.5824 13.9684 14.8438 13.5773C15.1051 13.1862 15.2445 12.7264 15.2445 12.2561C15.2445 11.6253 14.994 11.0205 14.548 10.5745C14.102 10.1285 13.4971 9.87793 12.8664 9.87793V9.87793ZM12.8664 13.6529C12.5903 13.6523 12.3205 13.5699 12.0912 13.416C11.8619 13.2621 11.6833 13.0438 11.5781 12.7885C11.4728 12.5332 11.4456 12.2524 11.4999 11.9816C11.5541 11.7109 11.6874 11.4623 11.8829 11.2672C12.0784 11.0722 12.3273 10.9394 12.5982 10.8858C12.8691 10.8322 13.1498 10.86 13.4048 10.9658C13.6599 11.0716 13.8779 11.2507 14.0312 11.4803C14.1846 11.71 14.2664 11.9799 14.2664 12.2561C14.2664 12.4398 14.2302 12.6217 14.1598 12.7913C14.0894 12.961 13.9862 13.1152 13.8562 13.2449C13.7261 13.3747 13.5718 13.4775 13.4019 13.5475C13.2321 13.6175 13.0501 13.6534 12.8664 13.6529V13.6529Z" fill="#0068FF"/>
<path d="M20.2289 9.84375C19.7549 9.84375 19.2914 9.98433 18.8973 10.2477C18.5031 10.5111 18.1959 10.8854 18.0145 11.3234C17.8331 11.7614 17.7856 12.2433 17.8781 12.7082C17.9706 13.1732 18.1989 13.6003 18.5341 13.9355C18.8693 14.2707 19.2964 14.499 19.7613 14.5915C20.2263 14.6839 20.7082 14.6365 21.1462 14.4551C21.5841 14.2736 21.9585 13.9664 22.2218 13.5723C22.4852 13.1781 22.6258 12.7147 22.6258 12.2406C22.625 11.6052 22.3722 10.996 21.9229 10.5467C21.4735 10.0974 20.8644 9.84458 20.2289 9.84375V9.84375ZM20.2289 13.6563C19.9508 13.6563 19.6789 13.5738 19.4476 13.4193C19.2164 13.2647 19.0361 13.0451 18.9297 12.7882C18.8233 12.5312 18.7954 12.2484 18.8497 11.9757C18.9039 11.7029 19.0379 11.4523 19.2345 11.2556C19.4312 11.059 19.6818 10.925 19.9546 10.8708C20.2274 10.8165 20.5101 10.8444 20.7671 10.9508C21.024 11.0572 21.2436 11.2375 21.3982 11.4687C21.5527 11.7 21.6352 11.9719 21.6352 12.25C21.6352 12.4345 21.5988 12.6172 21.5281 12.7877C21.4574 12.9581 21.3537 13.1129 21.2231 13.2433C21.0925 13.3736 20.9374 13.4769 20.7668 13.5472C20.5962 13.6176 20.4134 13.6535 20.2289 13.6531V13.6563Z" fill="#0068FF"/>
<path d="M14.6922 14.5971H15.2547V10.0127H14.2734V14.1877C14.2767 14.2969 14.3221 14.4005 14.4002 14.4769C14.4783 14.5532 14.583 14.5963 14.6922 14.5971Z" fill="#0068FF"/>
</svg>
