<svg width="40" height="40" viewBox="0 0 40 40" fill="none" xmlns="http://www.w3.org/2000/svg">
<rect opacity="0.15" width="40" height="40" rx="10" transform="matrix(-1 0 0 1 40 0)" fill="#F1C644"/>
<path opacity="0.4" d="M11.6533 25.3333C11.8 24.68 11.5333 23.7467 11.0667 23.28L7.82666 20.04C6.81333 19.0267 6.41333 17.9467 6.70666 17.0133C7.01333 16.08 7.96 15.44 9.37333 15.2L13.5333 14.5067C14.1333 14.4 14.8667 13.8667 15.1467 13.32L17.44 8.72C18.1067 7.4 19.0133 6.66666 20 6.66666C20.9867 6.66666 21.8933 7.4 22.56 8.72L24.8533 13.32C25.0267 13.6667 25.3867 14 25.7733 14.2267L11.4133 28.5867C11.2267 28.7733 10.9067 28.6 10.96 28.3333L11.6533 25.3333Z" fill="#F1C644"/>
<path d="M28.9333 23.28C28.4533 23.76 28.1867 24.68 28.3467 25.3333L29.2667 29.3467C29.6533 31.0133 29.4133 32.2667 28.5867 32.8667C28.2533 33.1067 27.8533 33.2267 27.3867 33.2267C26.7067 33.2267 25.9067 32.9733 25.0267 32.4533L21.12 30.1333C20.5067 29.7733 19.4933 29.7733 18.88 30.1333L14.9733 32.4533C13.4933 33.32 12.2267 33.4667 11.4133 32.8667C11.1067 32.64 10.88 32.3333 10.7333 31.9333L26.9467 15.72C27.56 15.1067 28.4267 14.8267 29.2667 14.9733L30.6133 15.2C32.0267 15.44 32.9733 16.08 33.28 17.0133C33.5733 17.9467 33.1733 19.0267 32.16 20.04L28.9333 23.28Z" fill="#F1C644"/>
</svg>
