<svg width="26" height="26" viewBox="0 0 26 26" fill="none" xmlns="http://www.w3.org/2000/svg">
<path d="M22.3372 9.15416C21.1997 4.14916 16.8339 1.89583 12.9989 1.89583C12.9989 1.89583 12.9989 1.89583 12.988 1.89583C9.16388 1.89583 4.78722 4.13833 3.64972 9.14333C2.38222 14.7333 5.80555 19.4675 8.90388 22.4467C10.0522 23.5517 11.5147 24.5555 12.988 24.5555C14.4614 24.5555 15.9455 23.5517 17.083 22.4467C20.1814 19.4675 23.6047 14.7442 22.3372 9.15416ZM12.9989 14.5817C11.1139 14.5817 9.58638 13.0542 9.58638 11.1692C9.58638 9.28416 11.1139 7.75666 12.9989 7.75666C14.8839 7.75666 16.4114 9.28416 16.4114 11.1692C16.4114 13.0542 14.8839 14.5817 12.9989 14.5817Z" fill="#474747"/>
</svg>
