<svg width="280" height="144" viewBox="0 0 280 144" fill="none" xmlns="http://www.w3.org/2000/svg">
<path d="M0 117.92V85.864C0 77.821 4.8223 70.5604 12.2265 67.4193C118.981 22.1304 214.967 -21.032 271.712 11.183C277.151 14.271 280 20.3196 280 26.5743L280 117.92C280 128.965 271.046 137.92 260 137.92H20C8.95431 137.92 0 128.965 0 117.92Z" fill="url(#paint0_linear_2_74)" fill-opacity="0.5"/>
<path d="M0 123.92V91.864C0 83.821 4.8223 76.5604 12.2265 73.4193C118.981 28.1304 214.967 -15.032 271.712 17.183C277.151 20.271 280 26.3196 280 32.5743L280 123.92C280 134.965 271.046 143.92 260 143.92H20C8.95431 143.92 0 134.965 0 123.92Z" fill="url(#paint1_linear_2_74)"/>
<defs>
<linearGradient id="paint0_linear_2_74" x1="-3.47909e-07" y1="94.5" x2="284" y2="75" gradientUnits="userSpaceOnUse">
<stop stop-color="#DF0035"/>
<stop offset="1" stop-color="#FF8E8B"/>
</linearGradient>
<linearGradient id="paint1_linear_2_74" x1="-3.47909e-07" y1="100.5" x2="284" y2="81" gradientUnits="userSpaceOnUse">
<stop stop-color="#DF0035"/>
<stop offset="1" stop-color="#FF8E8B"/>
</linearGradient>
</defs>
</svg>
