<svg width="80" height="80" viewBox="0 0 80 80" fill="none" xmlns="http://www.w3.org/2000/svg">
<path d="M39.9993 6.6665C21.6327 6.6665 6.66602 21.6332 6.66602 39.9998C6.66602 58.3665 21.6327 73.3332 39.9993 73.3332C58.366 73.3332 73.3327 58.3665 73.3327 39.9998C73.3327 21.6332 58.366 6.6665 39.9993 6.6665ZM55.9327 32.3332L37.0327 51.2332C36.566 51.6998 35.9327 51.9665 35.266 51.9665C34.5993 51.9665 33.966 51.6998 33.4993 51.2332L24.066 41.7998C23.0993 40.8332 23.0993 39.2332 24.066 38.2665C25.0327 37.2998 26.6327 37.2998 27.5993 38.2665L35.266 45.9332L52.3993 28.7998C53.366 27.8332 54.966 27.8332 55.9327 28.7998C56.8993 29.7665 56.8993 31.3332 55.9327 32.3332Z" fill="#00CE2D"/>
</svg>
