<svg width="24" height="24" viewBox="0 0 24 24" fill="none" xmlns="http://www.w3.org/2000/svg">
<path d="M20.6695 8.91001C20.6695 8.72001 20.5995 8.53001 20.4495 8.38001C20.1595 8.09001 19.6795 8.09001 19.3895 8.38001L12.8695 14.9C12.3895 15.38 11.6095 15.38 11.1295 14.9L4.60953 8.38001C4.31953 8.09001 3.83953 8.09001 3.54953 8.38001C3.25953 8.67001 3.25953 9.15001 3.54953 9.44001L10.0695 15.96C10.5795 16.47 11.2695 16.76 11.9995 16.76C12.7295 16.76 13.4195 16.48 13.9295 15.96L20.4495 9.44001C20.5895 9.29001 20.6695 9.10001 20.6695 8.91001Z" fill="#474747"/>
</svg>
