<svg width="28" height="32" viewBox="0 0 28 32" fill="none" xmlns="http://www.w3.org/2000/svg">
<path d="M27.2422 10.675C25.6672 3.745 19.6222 0.625 14.3122 0.625C14.3122 0.625 14.3122 0.625 14.2972 0.625C9.00215 0.625 2.94215 3.73 1.36715 10.66C-0.387845 18.4 4.35216 24.955 8.64215 29.08C10.2322 30.61 12.2572 32 14.2972 32C16.3372 32 18.3922 30.61 19.9672 29.08C24.2572 24.955 28.9972 18.415 27.2422 10.675ZM14.3122 18.19C11.7022 18.19 9.58715 16.075 9.58715 13.465C9.58715 10.855 11.7022 8.74 14.3122 8.74C16.9222 8.74 19.0372 10.855 19.0372 13.465C19.0372 16.075 16.9222 18.19 14.3122 18.19Z" fill="#474747"/>
</svg>
