<svg width="20" height="20" viewBox="0 0 20 20" fill="none" xmlns="http://www.w3.org/2000/svg">
<path d="M14.5391 18.9596C13.5974 18.9596 12.6057 18.7346 11.5807 18.3013C10.5807 17.8763 9.5724 17.293 8.58906 16.5846C7.61406 15.868 6.6724 15.068 5.78073 14.193C4.8974 13.3013 4.0974 12.3596 3.38906 11.393C2.6724 10.393 2.0974 9.39297 1.68906 8.4263C1.25573 7.39297 1.03906 6.39297 1.03906 5.4513C1.03906 4.8013 1.15573 4.18464 1.38073 3.60964C1.61406 3.01797 1.98906 2.46797 2.4974 1.99297C3.13906 1.35964 3.8724 1.04297 4.65573 1.04297C4.98073 1.04297 5.31406 1.11797 5.5974 1.2513C5.9224 1.4013 6.1974 1.6263 6.3974 1.9263L8.33073 4.6513C8.50573 4.89297 8.63906 5.1263 8.73073 5.35964C8.83906 5.60964 8.8974 5.85964 8.8974 6.1013C8.8974 6.41797 8.80573 6.7263 8.63073 7.01797C8.50573 7.24297 8.31406 7.48464 8.0724 7.7263L7.50573 8.31797C7.51406 8.34297 7.5224 8.35964 7.53073 8.3763C7.63073 8.5513 7.83073 8.8513 8.21406 9.3013C8.6224 9.76797 9.00573 10.193 9.38906 10.5846C9.88073 11.068 10.2891 11.4513 10.6724 11.768C11.1474 12.168 11.4557 12.368 11.6391 12.4596L11.6224 12.5013L12.2307 11.9013C12.4891 11.643 12.7391 11.4513 12.9807 11.3263C13.4391 11.043 14.0224 10.993 14.6057 11.2346C14.8224 11.3263 15.0557 11.4513 15.3057 11.6263L18.0724 13.593C18.3807 13.8013 18.6057 14.068 18.7391 14.3846C18.8641 14.7013 18.9224 14.993 18.9224 15.2846C18.9224 15.6846 18.8307 16.0846 18.6557 16.4596C18.4807 16.8346 18.2641 17.1596 17.9891 17.4596C17.5141 17.9846 16.9974 18.3596 16.3974 18.6013C15.8224 18.8346 15.1974 18.9596 14.5391 18.9596ZM11.6224 12.5096L11.4891 13.0763L11.7141 12.493C11.6724 12.4846 11.6391 12.493 11.6224 12.5096Z" fill="#666666"/>
<path d="M15.4167 8.1237C15.075 8.1237 14.7917 7.84036 14.7917 7.4987C14.7917 7.1987 14.4917 6.5737 13.9917 6.04036C13.5 5.51536 12.9583 5.20703 12.5 5.20703C12.1583 5.20703 11.875 4.9237 11.875 4.58203C11.875 4.24036 12.1583 3.95703 12.5 3.95703C13.3083 3.95703 14.1583 4.39036 14.9 5.18203C15.5917 5.9237 16.0417 6.83203 16.0417 7.4987C16.0417 7.84036 15.7583 8.1237 15.4167 8.1237Z" fill="#666666"/>
<path d="M18.3333 8.1263C17.9917 8.1263 17.7083 7.84297 17.7083 7.5013C17.7083 4.6263 15.375 2.29297 12.5 2.29297C12.1583 2.29297 11.875 2.00964 11.875 1.66797C11.875 1.3263 12.1583 1.04297 12.5 1.04297C16.0583 1.04297 18.9583 3.94297 18.9583 7.5013C18.9583 7.84297 18.675 8.1263 18.3333 8.1263Z" fill="#666666"/>
</svg>
