<svg width="18" height="16" viewBox="0 0 18 16" fill="none" xmlns="http://www.w3.org/2000/svg">
<path d="M13.1641 0.917969H4.83073C2.33073 0.917969 0.664062 2.16797 0.664062 5.08464V10.918C0.664062 13.8346 2.33073 15.0846 4.83073 15.0846H13.1641C15.6641 15.0846 17.3307 13.8346 17.3307 10.918V5.08464C17.3307 2.16797 15.6641 0.917969 13.1641 0.917969ZM13.5557 5.99297L10.9474 8.0763C10.3974 8.51797 9.6974 8.73464 8.9974 8.73464C8.2974 8.73464 7.58906 8.51797 7.0474 8.0763L4.43906 5.99297C4.1724 5.7763 4.13073 5.3763 4.33906 5.10964C4.55573 4.84297 4.9474 4.79297 5.21406 5.00964L7.8224 7.09297C8.45573 7.6013 9.53073 7.6013 10.1641 7.09297L12.7724 5.00964C13.0391 4.79297 13.4391 4.83464 13.6474 5.10964C13.8641 5.3763 13.8224 5.7763 13.5557 5.99297Z" fill="#666666"/>
</svg>
