<svg width="36" height="36" viewBox="0 0 36 36" fill="none" xmlns="http://www.w3.org/2000/svg">
<path d="M26.175 34.125C24.48 34.125 22.695 33.72 20.85 32.94C19.05 32.175 17.235 31.125 15.465 29.85C13.71 28.56 12.015 27.12 10.41 25.545C8.82 23.94 7.38 22.245 6.105 20.505C4.815 18.705 3.78 16.905 3.045 15.165C2.265 13.305 1.875 11.505 1.875 9.81C1.875 8.64 2.085 7.53 2.49 6.495C2.91 5.43 3.585 4.44 4.5 3.585C5.655 2.445 6.975 1.875 8.385 1.875C8.97 1.875 9.57 2.01 10.08 2.25C10.665 2.52 11.16 2.925 11.52 3.465L15 8.37C15.315 8.805 15.555 9.225 15.72 9.645C15.915 10.095 16.02 10.545 16.02 10.98C16.02 11.55 15.855 12.105 15.54 12.63C15.315 13.035 14.97 13.47 14.535 13.905L13.515 14.97C13.53 15.015 13.545 15.045 13.56 15.075C13.74 15.39 14.1 15.93 14.79 16.74C15.525 17.58 16.215 18.345 16.905 19.05C17.79 19.92 18.525 20.61 19.215 21.18C20.07 21.9 20.625 22.26 20.955 22.425L20.925 22.5L22.02 21.42C22.485 20.955 22.935 20.61 23.37 20.385C24.195 19.875 25.245 19.785 26.295 20.22C26.685 20.385 27.105 20.61 27.555 20.925L32.535 24.465C33.09 24.84 33.495 25.32 33.735 25.89C33.96 26.46 34.065 26.985 34.065 27.51C34.065 28.23 33.9 28.95 33.585 29.625C33.27 30.3 32.88 30.885 32.385 31.425C31.53 32.37 30.6 33.045 29.52 33.48C28.485 33.9 27.36 34.125 26.175 34.125ZM20.925 22.515L20.685 23.535L21.09 22.485C21.015 22.47 20.955 22.485 20.925 22.515Z" fill="#474747"/>
<path d="M27.75 14.625C27.135 14.625 26.625 14.115 26.625 13.5C26.625 12.96 26.085 11.835 25.185 10.875C24.3 9.93 23.325 9.375 22.5 9.375C21.885 9.375 21.375 8.865 21.375 8.25C21.375 7.635 21.885 7.125 22.5 7.125C23.955 7.125 25.485 7.905 26.82 9.33C28.065 10.665 28.875 12.3 28.875 13.5C28.875 14.115 28.365 14.625 27.75 14.625Z" fill="#474747"/>
<path d="M33 14.625C32.385 14.625 31.875 14.115 31.875 13.5C31.875 8.325 27.675 4.125 22.5 4.125C21.885 4.125 21.375 3.615 21.375 3C21.375 2.385 21.885 1.875 22.5 1.875C28.905 1.875 34.125 7.095 34.125 13.5C34.125 14.115 33.615 14.625 33 14.625Z" fill="#474747"/>
</svg>
