<svg width="16" height="18" viewBox="0 0 16 18" fill="none" xmlns="http://www.w3.org/2000/svg">
<path d="M15.1849 6.04036C14.3099 2.19036 10.9515 0.457031 8.00154 0.457031C8.00154 0.457031 8.00154 0.457031 7.99321 0.457031C5.05154 0.457031 1.68488 2.18203 0.809878 6.03203C-0.165122 10.332 2.46821 13.9737 4.85154 16.2654C5.73488 17.1154 6.85988 17.8876 7.99321 17.8876C9.12654 17.8876 10.2682 17.1154 11.1432 16.2654C13.5265 13.9737 16.1599 10.3404 15.1849 6.04036ZM8.00154 10.2154C6.55154 10.2154 5.37654 9.04037 5.37654 7.59037C5.37654 6.14037 6.55154 4.96536 8.00154 4.96536C9.45154 4.96536 10.6265 6.14037 10.6265 7.59037C10.6265 9.04037 9.45154 10.2154 8.00154 10.2154Z" fill="#666666"/>
</svg>
