<svg width="26" height="26" viewBox="0 0 26 26" fill="none" xmlns="http://www.w3.org/2000/svg">
<path d="M4.82026 15.0674L12.3523 22.1429C12.6396 22.4128 12.7832 22.5477 12.9566 22.5624C12.9846 22.5647 13.0128 22.5647 13.0408 22.5624C13.2142 22.5477 13.3578 22.4128 13.6451 22.1429L21.1771 15.0674C23.2963 13.0766 23.5537 9.80065 21.7713 7.5034L21.4362 7.07145C19.304 4.32329 15.0241 4.78418 13.5259 7.92328C13.3143 8.3667 12.6831 8.3667 12.4715 7.92328C10.9733 4.78418 6.6934 4.32329 4.56121 7.07145L4.22607 7.5034C2.44372 9.80065 2.70107 13.0766 4.82026 15.0674Z" fill="#F26222" stroke="#F26222" stroke-width="2"/>
</svg>
