<svg width="35" height="36" viewBox="0 0 35 36" fill="none" xmlns="http://www.w3.org/2000/svg">
<g clip-path="url(#clip0_994_9643)">
<path d="M5.49665 32.4171C5.24693 32.4171 4.99489 32.3627 4.75755 32.2511C4.11347 31.9482 3.72423 31.2936 3.76579 30.583L3.98905 26.7698H2.27815C1.02197 26.7698 0 25.7479 0 24.4916V12.075C0 10.8188 1.02197 9.79688 2.27815 9.79688H21.6849C22.9411 9.79688 23.963 10.8188 23.963 12.075V24.4916C23.963 25.7478 22.941 26.7698 21.6849 26.7698H19.5385C19.0169 26.7698 18.594 26.3469 18.594 25.8253C18.594 25.3036 19.0169 24.8807 19.5385 24.8807H21.6849C21.8995 24.8807 22.0741 24.7062 22.0741 24.4916V12.075C22.0741 11.8604 21.8996 11.6859 21.6849 11.6859H2.27815C2.06364 11.6859 1.88898 11.8604 1.88898 12.075V24.4916C1.88898 24.7062 2.0635 24.8808 2.27815 24.8808H4.99052C5.25056 24.8808 5.49911 24.988 5.67767 25.1773C5.85609 25.3665 5.94864 25.6209 5.93347 25.8806L5.67466 30.3004L11.2155 25.1345C11.3904 24.9715 11.6205 24.8808 11.8596 24.8808H15.1857C15.7073 24.8808 16.1302 25.3037 16.1302 25.8253C16.1302 26.347 15.7073 26.7699 15.1857 26.7699H12.2315L6.67462 31.9506C6.34602 32.2571 5.92465 32.4171 5.49665 32.4171Z" fill="#F26222"/>
<path d="M32.7249 4.83594H13.3181C12.5816 4.83594 11.9844 5.43306 11.9844 6.16956V10.744H21.6878C22.4243 10.744 23.0214 11.3412 23.0214 12.0777V19.9199H23.1434L28.9723 25.3542C29.4914 25.8383 30.3357 25.4414 30.2942 24.7327L30.0123 19.9197H32.7247C33.4612 19.9197 34.0583 19.3226 34.0583 18.5861V6.16956C34.0585 5.43299 33.4614 4.83594 32.7249 4.83594Z" fill="#F26222" fill-opacity="0.2"/>
<path d="M29.5025 26.5112C29.0677 26.5112 28.6505 26.3454 28.3274 26.0443L22.7171 20.8138C22.3444 20.6874 22.076 20.3345 22.076 19.919V12.0769C22.076 11.8624 21.9015 11.6877 21.6869 11.6877H11.9836C11.4619 11.6877 11.0391 11.2648 11.0391 10.7432V6.16877C11.0391 4.91253 12.061 3.89062 13.3172 3.89062H32.7239C33.9801 3.89062 35.0021 4.9126 35.0021 6.16877V18.5854C35.0021 19.8416 33.9801 20.8635 32.7239 20.8635H31.013L31.2362 24.6768C31.2645 25.159 31.0998 25.6156 30.7727 25.9625C30.4439 26.3112 29.9809 26.5112 29.5025 26.5112ZM23.9652 19.3946L29.3275 24.394L29.0687 19.9743C29.0535 19.7146 29.1461 19.4603 29.3245 19.271C29.503 19.0817 29.7515 18.9745 30.0116 18.9745H32.724C32.9385 18.9745 33.1132 18.8 33.1132 18.5853V6.16877C33.1132 5.95426 32.9386 5.7796 32.724 5.7796H13.3172C13.1026 5.7796 12.928 5.95413 12.928 6.16877V9.79873H21.6869C22.9431 9.79873 23.9651 10.8207 23.9651 12.0769V19.3946H23.9652Z" fill="#F26222"/>
<path d="M17.4975 17.0922H6.16327C5.64162 17.0922 5.21875 16.6693 5.21875 16.1476C5.21875 15.626 5.64162 15.2031 6.16327 15.2031H17.4975C18.0191 15.2031 18.442 15.626 18.442 16.1476C18.442 16.6693 18.0191 17.0922 17.4975 17.0922Z" fill="#F26222"/>
<path d="M16.0065 21.9359H7.66327C7.14162 21.9359 6.71875 21.513 6.71875 20.9914C6.71875 20.4697 7.14162 20.0469 7.66327 20.0469H16.0065C16.5281 20.0469 16.951 20.4697 16.951 20.9914C16.951 21.513 16.5281 21.9359 16.0065 21.9359Z" fill="#F26222"/>
</g>
<defs>
<clipPath id="clip0_994_9643">
<rect width="35" height="35" fill="white" transform="translate(0 0.65625)"/>
</clipPath>
</defs>
</svg>
