<svg width="35" height="36" viewBox="0 0 35 36" fill="none" xmlns="http://www.w3.org/2000/svg">
<g clip-path="url(#clip0_994_9632)">
<path d="M29.5658 35.6562H26.9842C26.4358 35.6562 25.9914 35.2118 25.9914 34.6635C25.9914 34.1152 26.4358 33.6707 26.9842 33.6707H29.5658C31.4689 33.6707 33.0173 32.1223 33.0173 30.2192V6.09328C33.0173 4.19022 31.4689 2.64182 29.5658 2.64182H14.6568C14.1085 2.64182 13.6641 2.19734 13.6641 1.64903C13.6641 1.10072 14.1085 0.65625 14.6568 0.65625H29.5658C32.5639 0.65625 35.0028 3.09524 35.0028 6.09328V30.2192C35.0028 33.2173 32.5639 35.6562 29.5658 35.6562Z" fill="#F26222"/>
<path d="M19.8032 35.6562H5.43703C2.43899 35.6562 0 33.2173 0 30.2192V6.09328C0 3.09524 2.43899 0.65625 5.43703 0.65625H7.67129C8.2196 0.65625 8.66407 1.10072 8.66407 1.64903C8.66407 2.19734 8.2196 2.64182 7.67129 2.64182H5.43703C3.53397 2.64182 1.98557 4.19016 1.98557 6.09328V30.2192C1.98557 32.1223 3.53391 33.6707 5.43703 33.6707H19.8032C20.3515 33.6707 20.796 34.1152 20.796 34.6635C20.796 35.2118 20.3515 35.6562 19.8032 35.6562Z" fill="#F26222"/>
<path d="M27.1482 8.90877L6.90767 16.7964C6.25189 17.0519 6.29182 17.9927 6.96673 18.1918L11.5901 19.5568L13.0271 24.9377C13.2276 25.574 14.0337 25.7667 14.5004 25.2903L17.3457 22.5749L23.38 27.2685C24.0186 27.7372 24.9279 27.3888 25.09 26.6138L28.5457 10.092C28.7149 9.28263 27.9187 8.60847 27.1482 8.90877Z" fill="#F26222" fill-opacity="0.2"/>
<path d="M24.0138 28.4738H24.0137C23.5705 28.4738 23.1457 28.3339 22.7853 28.0694C22.7779 28.064 22.7706 28.0584 22.7633 28.0528L17.4047 23.8846L15.1885 25.9997C14.834 26.3543 14.365 26.5493 13.8653 26.5493C13.0406 26.5493 12.3203 26.0218 12.073 25.2366C12.0686 25.2226 12.0645 25.2086 12.0607 25.1945L10.7675 20.3518L6.67837 19.1444C5.95752 18.9317 5.47094 18.3089 5.43915 17.5579C5.40729 16.8068 5.83946 16.145 6.54008 15.8719L26.7806 7.9843C27.02 7.89099 27.2694 7.84375 27.5222 7.84375C28.1351 7.84375 28.7104 8.11924 29.1006 8.59953C29.4869 9.07497 29.6362 9.69328 29.5102 10.2958L26.0544 26.8176C25.8537 27.7772 24.9955 28.4738 24.0138 28.4738ZM23.9662 26.473C23.9822 26.4836 23.9969 26.4882 24.0138 26.4882C24.022 26.4882 24.0952 26.4861 24.111 26.411L27.5667 9.88927C27.5706 9.87067 27.5691 9.86322 27.5596 9.85153C27.5493 9.83882 27.5331 9.82918 27.5222 9.82918C27.5172 9.82918 27.5099 9.83096 27.5015 9.83424L7.95553 17.4512L11.8638 18.6052C12.1957 18.7032 12.4525 18.967 12.5419 19.3013L13.9208 24.4646L16.653 21.8572C17.0088 21.5176 17.5597 21.4898 17.9479 21.7918L23.9662 26.473Z" fill="#F26222"/>
<path d="M15.0179 25.2826C15.0491 25.3835 16.1865 23.9616 16.1986 23.8565L15.6884 21.3589C15.6212 21.0299 15.7405 20.6906 15.9987 20.4761L25.3501 12.7054C25.5751 12.5062 25.3137 12.1551 25.0585 12.3132L14.0618 19.0204C13.801 19.1794 13.6665 19.4835 13.7241 19.7833L15.0179 25.2826Z" fill="#F26222"/>
</g>
<defs>
<clipPath id="clip0_994_9632">
<rect width="35" height="35" fill="white" transform="translate(0 0.65625)"/>
</clipPath>
</defs>
</svg>
