<svg width="35" height="36" viewBox="0 0 35 36" fill="none" xmlns="http://www.w3.org/2000/svg">
<g clip-path="url(#clip0_994_9666)">
<path d="M29.5619 35.6562H26.9802C26.4319 35.6562 25.9874 35.2117 25.9874 34.6634C25.9874 34.1151 26.4319 33.6706 26.9802 33.6706H29.5619C31.4649 33.6706 33.0133 32.1223 33.0133 30.2192V6.09328C33.0133 4.19022 31.465 2.64181 29.5619 2.64181H14.6529C14.1046 2.64181 13.6602 2.19734 13.6602 1.64903C13.6602 1.10072 14.1046 0.65625 14.6529 0.65625H29.562C32.5598 0.65625 34.999 3.09524 34.999 6.09328V30.2192C34.9989 33.2172 32.5599 35.6562 29.5619 35.6562Z" fill="#F26222"/>
<path d="M19.8033 35.6562H5.43702C2.43899 35.6562 0 33.2172 0 30.2192V6.09328C0 3.09524 2.43899 0.65625 5.43702 0.65625H7.67128C8.21958 0.65625 8.66406 1.10072 8.66406 1.64903C8.66406 2.19734 8.21958 2.64181 7.67128 2.64181H5.43702C3.53397 2.64181 1.98556 4.19015 1.98556 6.09328V30.2192C1.98556 32.1222 3.5339 33.6706 5.43702 33.6706H19.8033C20.3515 33.6706 20.796 34.1151 20.796 34.6634C20.7961 35.2117 20.3515 35.6562 19.8033 35.6562Z" fill="#F26222"/>
<path d="M12.1398 29.4077C12.1398 28.5515 11.9999 26.4483 11.9987 25.8252C11.9982 25.5511 11.812 25.4714 11.5887 25.3997C10.2299 24.964 9.11041 24.2013 8.3143 22.9937C7.60296 21.9147 7.25268 20.7136 7.10332 19.4471C6.81361 16.9921 6.83603 14.5426 7.42659 12.1321C7.94879 10.0001 9.22649 8.52468 11.3361 7.76131C13.847 6.85261 16.4321 6.83853 19.0436 6.94175C20.3098 6.99179 21.5587 7.13726 22.7754 7.48213C24.0711 7.84936 25.3492 8.27777 26.2676 9.35265C26.9232 10.12 27.3165 11.0264 27.5716 11.9922C28.1512 14.1861 28.1628 16.4109 27.9614 18.6558C27.864 19.7423 27.7389 20.8151 27.3496 21.837C26.6048 23.7913 25.1698 24.9331 23.1563 25.4426C20.8488 26.0264 18.5125 26.2502 16.1412 26.1614C15.8128 26.1491 15.6188 26.3159 15.4194 26.5356C14.1986 27.7078 12.2309 29.3228 12.1398 29.4077Z" fill="#F26222" fill-opacity="0.2"/>
<path d="M12.1396 30.401C12.006 30.401 11.8712 30.3741 11.7439 30.3186C11.3814 30.1611 11.147 29.8035 11.147 29.4082C11.147 28.9666 11.1055 28.1291 11.0688 27.3902C11.0474 26.9576 11.0278 26.5629 11.0164 26.2545C9.50367 25.7135 8.31682 24.8016 7.48564 23.5408C6.749 22.4233 6.30152 21.1225 6.11757 19.5642C5.78219 16.7213 5.89499 14.2132 6.46257 11.8964C7.07384 9.40153 8.59996 7.69631 10.9986 6.82835C12.7608 6.19069 14.6552 5.90625 17.1412 5.90625C17.7051 5.90625 18.3221 5.92026 19.0831 5.95034C20.611 6.0107 21.8703 6.19418 23.0465 6.52757C24.4573 6.92747 25.9266 7.42526 27.0227 8.70836C27.7128 9.5161 28.2065 10.5075 28.5319 11.7391C29.0653 13.7584 29.1983 15.9845 28.9507 18.7449C28.8508 19.8569 28.7167 21.0389 28.2778 22.1909C27.4437 24.3797 25.8026 25.7978 23.4003 26.4054C21.3863 26.915 19.2799 27.1734 17.1395 27.1734C16.8288 27.1734 16.5125 27.168 16.1978 27.1572C16.1861 27.1693 16.1719 27.1844 16.155 27.2031C16.1396 27.22 16.1238 27.2362 16.1074 27.252C15.0987 28.2205 13.5905 29.4856 13.0229 29.9617C12.9119 30.0548 12.8358 30.1184 12.8062 30.1443C12.6199 30.3128 12.3815 30.401 12.1396 30.401ZM17.141 7.89181C14.8958 7.89181 13.2097 8.13962 11.6739 8.69538C9.91431 9.33214 8.84045 10.5338 8.39085 12.3688C7.88076 14.451 7.78218 16.7284 8.08925 19.3313C8.23609 20.5752 8.58075 21.5947 9.14321 22.4478C9.77643 23.4083 10.6755 24.0649 11.8919 24.4549C12.7993 24.7459 12.9907 25.3601 12.9914 25.8241C12.9919 26.0841 13.021 26.6707 13.0518 27.2918C13.0524 27.3046 13.0531 27.3175 13.0538 27.3303C13.6104 26.8492 14.2219 26.3081 14.7079 25.8428C14.9163 25.6146 15.3769 25.1405 16.1785 25.1697C16.4991 25.1817 16.8225 25.1879 17.1393 25.1879C19.1155 25.1879 21.058 24.9499 22.913 24.4805C24.7002 24.0283 25.8151 23.0761 26.422 21.4838C26.7712 20.5677 26.8818 19.5815 26.9728 18.5674C27.2024 16.0094 27.0909 14.0599 26.6119 12.2462C26.3643 11.3094 26.0048 10.574 25.5128 9.99803C24.7762 9.13568 23.6696 8.76797 22.5047 8.43787C21.4836 8.14837 20.3713 7.9884 19.0043 7.93433C18.2702 7.90528 17.678 7.89181 17.141 7.89181Z" fill="#F26222"/>
<path d="M22.6672 20.7406C22.581 21.5106 22.1584 21.9406 21.7366 22.3512C21.2603 22.815 20.6934 23.0905 20.0154 22.8191C19.4945 22.6106 18.9838 22.3729 18.4825 22.1208C16.9081 21.3293 15.5268 20.2714 14.3354 18.9797C12.9241 17.4494 11.8205 15.7241 11.1713 13.7288C11.0015 13.2072 11.0905 12.7421 11.5014 12.3846C11.8793 12.0558 12.2805 11.7458 12.7045 11.4804C13.0104 11.289 13.3811 11.308 13.6597 11.5565C14.4357 12.2482 15.0704 13.0569 15.4819 14.0169C15.6214 14.3424 15.5906 14.6855 15.2719 14.9376C15.1159 15.061 14.969 15.1956 14.8158 15.3224C14.3941 15.6716 14.3284 15.9144 14.4972 16.4308C14.8809 17.6051 15.7055 18.4181 16.7007 19.0733C17.0365 19.2944 17.4289 19.4377 17.8087 19.5815C18.1322 19.704 18.402 19.5692 18.61 19.305C18.7185 19.1672 18.8237 19.0268 18.935 18.8915C19.2524 18.5057 19.8099 18.3781 20.2245 18.6555C20.9528 19.1426 21.669 19.6506 22.3602 20.1882C22.5344 20.3236 22.5952 20.6043 22.6672 20.7406Z" fill="#F26222"/>
<path d="M23.7098 17.429C23.4356 17.429 23.2134 17.2067 23.2134 16.9326C23.2134 13.4936 20.4156 10.696 16.9769 10.696C16.7028 10.696 16.4805 10.4737 16.4805 10.1995C16.4805 9.92543 16.7028 9.70312 16.9769 9.70312C20.9631 9.70312 24.2062 12.9463 24.2062 16.9325C24.2062 17.2067 23.9841 17.429 23.7098 17.429Z" fill="#F26222"/>
<path d="M21.8735 17.4287C21.5994 17.4287 21.3771 17.2064 21.3771 16.9323C21.3771 14.506 19.4032 12.5319 16.9769 12.5319C16.7028 12.5319 16.4805 12.3096 16.4805 12.0355C16.4805 11.7614 16.7028 11.5391 16.9769 11.5391C19.9506 11.5391 22.37 13.9584 22.37 16.9322C22.37 17.2064 22.1478 17.4287 21.8735 17.4287Z" fill="#F26222"/>
<path d="M20.0374 17.4284C19.7632 17.4284 19.541 17.2061 19.541 16.9319C19.541 15.5181 18.3907 14.3678 16.9769 14.3678C16.7028 14.3678 16.4805 14.1455 16.4805 13.8714C16.4805 13.5973 16.7028 13.375 16.9769 13.375C18.9381 13.375 20.5337 14.9706 20.5337 16.9319C20.5337 17.2061 20.3116 17.4284 20.0374 17.4284Z" fill="#F26222"/>
</g>
<defs>
<clipPath id="clip0_994_9666">
<rect width="35" height="35" fill="white" transform="translate(0 0.65625)"/>
</clipPath>
</defs>
</svg>
