<svg width="35" height="36" viewBox="0 0 35 36" fill="none" xmlns="http://www.w3.org/2000/svg">
<g clip-path="url(#clip0_994_9654)">
<path d="M29.4629 35.6578H26.903C26.3594 35.6578 25.9185 35.2171 25.9185 34.6734C25.9185 34.1297 26.3594 33.6889 26.903 33.6889H29.4629C31.3499 33.6889 32.8853 32.1536 32.8853 30.2666V6.34436C32.8853 4.45736 31.35 2.92201 29.4629 2.92201H14.6798C14.1362 2.92201 13.6953 2.4813 13.6953 1.93757C13.6953 1.39384 14.1362 0.953125 14.6798 0.953125H29.4629C32.4356 0.953125 34.8541 3.37154 34.8541 6.34429V30.2666C34.8541 33.2394 32.4356 35.6578 29.4629 35.6578Z" fill="#F26222"/>
<path d="M19.7846 35.3609H5.5396C2.56699 35.3609 0.148438 32.9425 0.148438 29.9698V6.04741C0.148437 3.07467 2.56692 0.65625 5.5396 0.65625H7.75499C8.29858 0.65625 8.73943 1.09696 8.73943 1.64069C8.73943 2.18442 8.29858 2.62514 7.75499 2.62514H5.5396C3.65261 2.62514 2.11726 4.16042 2.11726 6.04748V29.9698C2.11726 31.8568 3.65254 33.3921 5.5396 33.3921H19.7847C20.3283 33.3921 20.7691 33.8328 20.7691 34.3766C20.7691 34.9203 20.3283 35.3609 19.7846 35.3609Z" fill="#F26222"/>
<path d="M26.7236 19.9645C26.8375 19.3804 26.8977 18.7771 26.8977 18.1597C26.8977 12.9695 22.6902 8.76194 17.5 8.76194C16.8825 8.76194 16.2789 8.82217 15.6947 8.93571C14.8916 8.46567 13.9576 8.19531 12.9597 8.19531C9.96383 8.19531 7.53516 10.624 7.53516 13.6198C7.53516 14.6173 7.80579 15.5515 8.27576 16.3548C8.16229 16.9391 8.10199 17.5423 8.10199 18.1599C8.10199 23.35 12.3094 27.5576 17.4998 27.5576C18.1172 27.5576 18.7205 27.4973 19.3047 27.3835C20.1077 27.8536 21.0419 28.1242 22.0396 28.1242C25.0356 28.1242 27.4642 25.6955 27.4642 22.6997C27.4643 21.7018 27.1937 20.768 26.7236 19.9645Z" fill="#F26222" fill-opacity="0.2"/>
<path d="M22.0397 29.1086C21.029 29.1086 20.0328 28.869 19.1363 28.4127C18.596 28.4985 18.047 28.5419 17.4999 28.5419C11.7751 28.5419 7.11762 23.8845 7.11762 18.1599C7.11762 17.6134 7.16096 17.0646 7.24668 16.5235C6.79038 15.6267 6.55078 14.6305 6.55078 13.6198C6.55078 10.086 9.42577 7.21094 12.9597 7.21094C13.9708 7.21094 14.967 7.45054 15.8633 7.90649C16.4042 7.82084 16.9532 7.77757 17.5 7.77757C23.2246 7.77757 27.882 12.435 27.882 18.1596C27.882 18.7069 27.8387 19.2558 27.7528 19.7962C28.2091 20.6931 28.4487 21.6894 28.4487 22.6997C28.4487 26.2335 25.5736 29.1086 22.0397 29.1086ZM19.3047 26.3989C19.4785 26.3989 19.6503 26.4449 19.802 26.5338C20.4792 26.9302 21.253 27.1397 22.0397 27.1397C24.4881 27.1397 26.4798 25.148 26.4798 22.6997C26.4798 21.9132 26.2702 21.1394 25.8738 20.4617C25.7529 20.255 25.7116 20.0114 25.7572 19.7763C25.8607 19.2457 25.9131 18.7017 25.9131 18.1597C25.9131 13.5206 22.139 9.74645 17.4998 9.74645C16.9582 9.74645 16.4139 9.79882 15.8822 9.90211C15.6471 9.94791 15.4037 9.90621 15.1972 9.78535C14.5205 9.38921 13.7467 9.17982 12.9595 9.17982C10.5113 9.17982 8.51946 11.1716 8.51946 13.6199C8.51946 14.4064 8.72892 15.1803 9.12526 15.8578C9.24612 16.0642 9.28762 16.3077 9.24202 16.5425C9.13873 17.0745 9.08637 17.6187 9.08637 18.1599C9.08637 22.7991 12.8606 26.5732 17.4998 26.5732C18.0417 26.5732 18.5855 26.5207 19.1163 26.4173C19.1789 26.4049 19.2419 26.3989 19.3047 26.3989Z" fill="#F26222"/>
<path d="M17.569 23.1359C16.2604 23.1359 15.2357 22.8579 14.4944 22.302C14.0384 21.96 13.711 21.5096 13.5121 20.9509C13.3079 20.3773 13.7406 19.7749 14.3495 19.7749H14.55C14.9194 19.7749 15.2622 19.9935 15.3937 20.3388C15.5099 20.6435 15.6916 20.888 15.9389 21.0721C16.3235 21.3585 16.85 21.5017 17.5183 21.5017C18.1303 21.5017 18.6146 21.3951 18.9714 21.1816C19.3279 20.9682 19.5063 20.6594 19.5063 20.255C19.5063 20.0753 19.4627 19.9237 19.3756 19.8002C19.2886 19.6767 19.1566 19.5686 18.9797 19.4758C18.8028 19.3832 18.5824 19.2976 18.3185 19.2188C18.0545 19.1403 17.7428 19.056 17.3834 18.9661L17.0212 18.865C16.5664 18.7471 16.1338 18.6279 15.724 18.507C15.314 18.3863 14.9546 18.2263 14.6459 18.0268C14.337 17.8275 14.0912 17.5691 13.9088 17.2519C13.7263 16.9347 13.6352 16.5233 13.6352 16.0179C13.6352 15.535 13.7363 15.1153 13.9383 14.7585C14.1406 14.402 14.4143 14.1071 14.7596 13.874C15.105 13.641 15.5051 13.4684 15.96 13.356C16.4149 13.2437 16.895 13.1875 17.4004 13.1875C17.9843 13.1875 18.5137 13.2563 18.9883 13.3939C19.4627 13.5316 19.8698 13.7295 20.2097 13.9877C20.5493 14.2461 20.8147 14.562 21.0057 14.9354C21.0075 14.9391 21.0095 14.9428 21.0114 14.9466C21.3025 15.523 20.8651 16.2031 20.2193 16.2031H20.0231C19.6724 16.2031 19.3402 16.011 19.1939 15.6923C19.0968 15.4809 18.9525 15.3073 18.7608 15.1713C18.4324 14.9384 17.9787 14.8217 17.4003 14.8217C16.8444 14.8217 16.4176 14.9214 16.12 15.1208C15.8223 15.3201 15.6736 15.5939 15.6736 15.942C15.6736 16.1049 15.7114 16.244 15.7873 16.359C15.8631 16.4742 15.981 16.5753 16.1411 16.6622C16.3012 16.7493 16.5061 16.8293 16.756 16.9023C17.0058 16.9754 17.3049 17.0539 17.6531 17.1381C18.0011 17.2168 18.3396 17.2954 18.6681 17.374C18.9965 17.4526 19.3054 17.5424 19.5947 17.6435C19.8838 17.7446 20.1477 17.8639 20.3864 18.0015C20.625 18.1391 20.8287 18.3062 20.9971 18.5028C21.1656 18.6994 21.2975 18.9324 21.3931 19.2019C21.4884 19.4714 21.5363 19.7888 21.5363 20.1537C21.5363 20.6311 21.4421 21.055 21.254 21.4257C21.0658 21.7963 20.7992 22.108 20.4538 22.3607C20.1084 22.6134 19.6915 22.8059 19.2029 22.9377C18.7145 23.0699 18.1698 23.1359 17.569 23.1359Z" fill="#F26222"/>
</g>
<defs>
<clipPath id="clip0_994_9654">
<rect width="35" height="35" fill="white" transform="translate(0 0.65625)"/>
</clipPath>
</defs>
</svg>
