<svg width="40" height="40" viewBox="0 0 40 40" fill="none" xmlns="http://www.w3.org/2000/svg">
<rect opacity="0.15" width="40" height="40" rx="10" transform="matrix(-1 0 0 1 40 0)" fill="#474747"/>
<path d="M20 20C23.6819 20 26.6667 17.0152 26.6667 13.3333C26.6667 9.65142 23.6819 6.66666 20 6.66666C16.3181 6.66666 13.3333 9.65142 13.3333 13.3333C13.3333 17.0152 16.3181 20 20 20Z" fill="#474747"/>
<path opacity="0.4" d="M20 23.3333C13.32 23.3333 7.87997 27.8133 7.87997 33.3333C7.87997 33.7067 8.1733 34 8.54663 34H31.4534C31.8267 34 32.12 33.7067 32.12 33.3333C32.12 27.8133 26.68 23.3333 20 23.3333Z" fill="#474747"/>
<path d="M32.5733 23.6533C31.3733 22.4533 30.4267 22.84 29.6133 23.6533L24.8933 28.3734C24.7066 28.5601 24.5333 28.9067 24.4933 29.16L24.24 30.96C24.1466 31.6133 24.6 32.0667 25.2533 31.9733L27.0533 31.72C27.3066 31.68 27.6666 31.5067 27.84 31.32L32.5599 26.6C33.3866 25.8 33.7733 24.8533 32.5733 23.6533Z" fill="#474747"/>
</svg>
