<svg width="40" height="40" viewBox="0 0 40 40" fill="none" xmlns="http://www.w3.org/2000/svg">
<g clip-path="url(#clip0_1162_59099)">
<path d="M14.4734 29.1354H10.0707C9.72407 29.1354 9.44141 28.8527 9.44141 28.506V18.3967C9.44141 18.05 9.72407 17.7674 10.0707 17.7674H14.4734C14.8201 17.7674 15.1027 18.05 15.1027 18.3967V28.506C15.1027 28.8527 14.8201 29.1354 14.4734 29.1354ZM16.6414 26.7594V19.5167C16.6414 17.7487 17.1454 15.9727 18.0841 14.4714C18.6574 13.554 19.9427 12.0847 20.6627 11.3247C20.8227 11.154 21.4041 10.6527 21.4041 10.378C21.4041 10.026 21.4441 9.45804 21.4574 8.39937C21.4654 7.72737 22.0121 7.17537 22.6841 7.1807H22.7134C23.8894 7.20737 24.2681 8.2927 24.2681 8.2927C24.2681 8.2927 25.2734 10.2767 24.3347 12.7034C23.5427 14.754 23.3827 14.9194 23.3827 14.9194C23.3827 14.9194 23.1267 15.29 23.9374 15.274C23.9374 15.274 28.8867 15.2527 29.0574 15.2527C29.4227 15.2527 30.5881 15.586 30.5214 17.0714C30.4734 18.17 29.7907 18.554 29.4414 18.6794C29.3721 18.7034 29.3641 18.7994 29.4281 18.8367C29.7854 19.0447 30.5161 19.57 30.5001 20.3754C30.4787 21.3514 30.0867 21.7114 29.2707 21.9354C29.1961 21.9567 29.1827 22.0554 29.2494 22.0927C29.5587 22.2687 30.0894 22.698 30.0574 23.5674C30.0254 24.4527 29.3854 24.7647 29.0361 24.8714C28.9667 24.8927 28.9534 24.9834 29.0147 25.026C29.2361 25.178 29.5641 25.522 29.5481 26.2287C29.5401 26.602 29.4147 26.874 29.2574 27.0687C29.0094 27.3754 28.6201 27.5354 28.2254 27.538L17.2441 27.5594C17.2387 27.5594 16.6414 27.5594 16.6414 26.7594Z" fill="white"/>
<path d="M19.9995 14.4498C19.1062 9.03118 8.51953 8.61784 8.51953 16.7458C8.51953 23.9485 19.9995 30.5885 19.9995 30.5885C19.9995 30.5885 31.4795 23.8605 31.4795 16.7458C31.4795 8.61784 20.8929 9.03118 19.9995 14.4498Z" fill="white"/>
<path d="M20.0038 39.9975C31.0494 39.9975 40.0037 31.0576 40.0037 20.0295C40.0037 9.0015 31.0494 0.0615234 20.0038 0.0615234C8.95816 0.0615234 0.00390625 9.0015 0.00390625 20.0295C0.00390625 31.0576 8.95816 39.9975 20.0038 39.9975Z" fill="#FFDE4A"/>
<path d="M20.1431 20.9092H6.8125C6.8125 20.9092 7.1645 32.4213 19.8524 33.064C20.0311 33.072 20.1511 33.0666 20.1511 33.0666C32.8417 32.424 33.191 20.9092 33.191 20.9092H20.1431Z" fill="#262C38"/>
<path d="M8.32422 26.445C8.32422 26.445 12.9855 24.221 19.9242 24.2423C23.3641 24.253 27.4628 24.5623 31.6361 26.4663C31.6361 26.4663 28.7854 33.4182 19.9908 33.4182C11.2175 33.4182 8.32422 26.445 8.32422 26.445Z" fill="#F05266"/>
<path d="M32.0053 10.96L26.48 13.6373L31.944 16.1492M7.94141 10.96L13.4667 13.6373L8.00274 16.1492" stroke="#262C38" stroke-miterlimit="10" stroke-linecap="round" stroke-linejoin="round"/>
</g>
<defs>
<clipPath id="clip0_1162_59099">
<rect width="40" height="40" fill="white"/>
</clipPath>
</defs>
</svg>
