<svg width="40" height="40" viewBox="0 0 40 40" fill="none" xmlns="http://www.w3.org/2000/svg">
<path d="M20 8.75C18.5166 8.75 17.0666 9.18987 15.8332 10.014C14.5999 10.8381 13.6386 12.0094 13.0709 13.3799C12.5032 14.7503 12.3547 16.2583 12.6441 17.7132C12.9335 19.168 13.6478 20.5044 14.6967 21.5533C15.7456 22.6022 17.082 23.3165 18.5368 23.6059C19.9917 23.8953 21.4997 23.7468 22.8701 23.1791C24.2406 22.6114 25.4119 21.6501 26.236 20.4168C27.0601 19.1834 27.5 17.7334 27.5 16.25C27.5 14.2609 26.7098 12.3532 25.3033 10.9467C23.8968 9.54018 21.9891 8.75 20 8.75Z" fill="#F26222"/>
<path d="M20 0C16.0444 0 12.1776 1.17298 8.8886 3.37061C5.59962 5.56823 3.03617 8.69181 1.52242 12.3463C0.00866566 16.0009 -0.387401 20.0222 0.384303 23.9018C1.15601 27.7814 3.06082 31.3451 5.85787 34.1421C8.65492 36.9392 12.2186 38.844 16.0982 39.6157C19.9778 40.3874 23.9991 39.9913 27.6537 38.4776C31.3082 36.9638 34.4318 34.4004 36.6294 31.1114C38.827 27.8224 40 23.9556 40 20C39.9939 14.6975 37.8849 9.61396 34.1355 5.86454C30.386 2.11513 25.3025 0.0060496 20 0ZM31.4171 32.7514C31.3887 30.8776 30.6252 29.09 29.2913 27.7737C27.9574 26.4574 26.1597 25.7178 24.2857 25.7143H15.7143C13.8403 25.7178 12.0426 26.4574 10.7087 27.7737C9.37478 29.09 8.61133 30.8776 8.58286 32.7514C5.99224 30.4382 4.16534 27.3927 3.34406 24.0181C2.52278 20.6435 2.74586 17.0991 3.98378 13.8541C5.22169 10.6091 7.41604 7.81667 10.2763 5.84652C13.1365 3.87638 16.5276 2.82146 20.0007 2.82146C23.4738 2.82146 26.865 3.87638 29.7252 5.84652C32.5854 7.81667 34.7797 10.6091 36.0177 13.8541C37.2556 17.0991 37.4787 20.6435 36.6574 24.0181C35.8361 27.3927 34.0078 30.4382 31.4171 32.7514Z" fill="#F26222"/>
</svg>
