<svg width="40" height="41" viewBox="0 0 40 41" fill="none" xmlns="http://www.w3.org/2000/svg">
<g clip-path="url(#clip0_1222_71587)">
<rect x="0.5" y="1" width="39" height="39" rx="19.5" fill="white" stroke="#F26222"/>
<g clip-path="url(#clip1_1222_71587)">
<path d="M19.5831 19.6506C23.0482 19.6506 25.8576 17.0166 25.8576 13.7674C25.8576 10.5183 23.0482 7.88428 19.5831 7.88428C16.118 7.88428 13.3086 10.5183 13.3086 13.7674C13.3086 15.2466 13.8913 16.5998 14.8537 17.6335C14.7776 18.4874 14.5266 19.4237 14.249 20.1263C14.187 20.2826 14.307 20.4574 14.4631 20.4305C16.2325 20.1196 17.2843 19.6422 17.7415 19.3934C18.3422 19.5651 18.9614 19.6516 19.5831 19.6506Z" stroke="#F26222"/>
<mask id="path-3-inside-1_1222_71587" fill="white">
<path d="M16.8866 14.0474C16.8866 14.2554 16.8175 14.4184 16.6789 14.5367C16.5379 14.6537 16.3432 14.7122 16.0942 14.7122H14.8438V14.226H15.8796C16.001 14.226 16.0896 14.2063 16.1448 14.1675C16.1999 14.1273 16.2278 14.0652 16.2278 13.9804C16.2278 13.9023 16.2013 13.8411 16.1485 13.7969C16.0933 13.7545 16.0038 13.7335 15.88 13.7335L15.0348 13.7366V13.2509H15.8643C15.9894 13.2509 16.0794 13.2321 16.1346 13.1942C16.1874 13.1576 16.2138 13.0969 16.2138 13.012C16.2138 12.9317 16.1874 12.8718 16.1346 12.8317C16.1077 12.8098 16.072 12.7942 16.0279 12.7843C15.9816 12.7759 15.9273 12.7714 15.8643 12.7714H14.8438V12.2856H16.0418C16.3191 12.2856 16.5291 12.3392 16.6719 12.4464C16.8129 12.5549 16.8834 12.7232 16.8834 12.9518C16.8834 13.0665 16.8569 13.1683 16.8041 13.2571C16.7489 13.346 16.6775 13.4241 16.5894 13.4911C16.6863 13.5487 16.7568 13.6174 16.8008 13.6974C16.8579 13.7911 16.8866 13.9076 16.8866 14.0474Z"/>
</mask>
<path d="M16.8866 14.0474C16.8866 14.2554 16.8175 14.4184 16.6789 14.5367C16.5379 14.6537 16.3432 14.7122 16.0942 14.7122H14.8438V14.226H15.8796C16.001 14.226 16.0896 14.2063 16.1448 14.1675C16.1999 14.1273 16.2278 14.0652 16.2278 13.9804C16.2278 13.9023 16.2013 13.8411 16.1485 13.7969C16.0933 13.7545 16.0038 13.7335 15.88 13.7335L15.0348 13.7366V13.2509H15.8643C15.9894 13.2509 16.0794 13.2321 16.1346 13.1942C16.1874 13.1576 16.2138 13.0969 16.2138 13.012C16.2138 12.9317 16.1874 12.8718 16.1346 12.8317C16.1077 12.8098 16.072 12.7942 16.0279 12.7843C15.9816 12.7759 15.9273 12.7714 15.8643 12.7714H14.8438V12.2856H16.0418C16.3191 12.2856 16.5291 12.3392 16.6719 12.4464C16.8129 12.5549 16.8834 12.7232 16.8834 12.9518C16.8834 13.0665 16.8569 13.1683 16.8041 13.2571C16.7489 13.346 16.6775 13.4241 16.5894 13.4911C16.6863 13.5487 16.7568 13.6174 16.8008 13.6974C16.8579 13.7911 16.8866 13.9076 16.8866 14.0474Z" fill="#F26222"/>
<path d="M16.6789 14.5367L17.3176 15.3063L17.3281 15.2974L16.6789 14.5367ZM14.8438 14.7122H13.8438V15.7122H14.8438V14.7122ZM14.8438 14.226V13.226H13.8438V14.226H14.8438ZM16.1448 14.1675L16.7204 14.9852L16.727 14.9806L16.7335 14.9758L16.1448 14.1675ZM16.1485 13.7969L16.79 13.0298L16.7742 13.0166L16.7579 13.0041L16.1485 13.7969ZM15.88 13.7335V12.7335L15.8763 12.7335L15.88 13.7335ZM15.0348 13.7366H14.0348V14.7403L15.0385 14.7366L15.0348 13.7366ZM15.0348 13.2509V12.2509H14.0348V13.2509H15.0348ZM16.1346 13.1942L16.7013 14.0181L16.7039 14.0163L16.1346 13.1942ZM16.1346 12.8317L15.5035 13.6074L15.5163 13.6178L15.5294 13.6278L16.1346 12.8317ZM16.0279 12.7843L16.2456 11.8083L16.2268 11.8041L16.2079 11.8007L16.0279 12.7843ZM14.8438 12.7714H13.8438V13.7714H14.8438V12.7714ZM14.8438 12.2856V11.2856H13.8438V12.2856H14.8438ZM16.6719 12.4464L17.2819 11.6539L17.2721 11.6465L16.6719 12.4464ZM16.8041 13.2571L17.6536 13.7847L17.6586 13.7766L17.6635 13.7684L16.8041 13.2571ZM16.5894 13.4911L15.9842 12.695L14.8032 13.5928L16.0785 14.3507L16.5894 13.4911ZM16.8008 13.6974L15.9251 14.1801L15.9354 14.1988L15.9465 14.217L16.8008 13.6974ZM15.8866 14.0474C15.8866 14.0405 15.888 13.9968 15.9142 13.935C15.9419 13.8697 15.9846 13.8146 16.0297 13.776L17.3281 15.2974C17.7226 14.9606 17.8866 14.5013 17.8866 14.0474H15.8866ZM16.0403 13.7672C16.0838 13.731 16.1227 13.7156 16.1396 13.7105C16.1535 13.7063 16.1422 13.7122 16.0942 13.7122V15.7122C16.493 15.7122 16.9419 15.6179 17.3175 15.3062L16.0403 13.7672ZM16.0942 13.7122H14.8438V15.7122H16.0942V13.7122ZM15.8438 14.7122V14.226H13.8438V14.7122H15.8438ZM14.8438 15.226H15.8796V13.226H14.8438V15.226ZM15.8796 15.226C16.0647 15.226 16.4091 15.2043 16.7204 14.9852L15.5691 13.3498C15.6799 13.2718 15.7777 13.2445 15.8214 13.2348C15.867 13.2247 15.8903 13.226 15.8796 13.226V15.226ZM16.7335 14.9758C17.1069 14.7039 17.2278 14.303 17.2278 13.9804H15.2278C15.2278 13.9153 15.2384 13.8077 15.2933 13.6843C15.3512 13.5539 15.4432 13.4414 15.5561 13.3591L16.7335 14.9758ZM17.2278 13.9804C17.2278 13.6506 17.1021 13.2908 16.79 13.0298L15.507 14.564C15.4178 14.4895 15.3409 14.3904 15.29 14.2726C15.2405 14.1582 15.2278 14.0545 15.2278 13.9804H17.2278ZM16.7579 13.0041C16.436 12.7566 16.0699 12.7335 15.88 12.7335V14.7335C15.8898 14.7335 15.862 14.7348 15.8105 14.7226C15.7599 14.7107 15.6541 14.6782 15.539 14.5897L16.7579 13.0041ZM15.8763 12.7335L15.0311 12.7366L15.0385 14.7366L15.8837 14.7335L15.8763 12.7335ZM16.0348 13.7366V13.2509H14.0348V13.7366H16.0348ZM15.0348 14.2509H15.8643V12.2509H15.0348V14.2509ZM15.8643 14.2509C16.0395 14.2509 16.3871 14.2342 16.7013 14.0181L15.5679 12.3703C15.6822 12.2916 15.7818 12.2662 15.8207 12.258C15.8625 12.2493 15.8812 12.2509 15.8643 12.2509V14.2509ZM16.7039 14.0163C17.1094 13.7354 17.2138 13.3092 17.2138 13.012H15.2138C15.2138 12.9542 15.2224 12.8477 15.2771 12.7221C15.3358 12.5873 15.4339 12.463 15.5652 12.3721L16.7039 14.0163ZM17.2138 13.012C17.2138 12.6905 17.0931 12.3042 16.7397 12.0356L15.5294 13.6278C15.4231 13.5469 15.335 13.4375 15.2788 13.3096C15.2251 13.1877 15.2138 13.0803 15.2138 13.012H17.2138ZM16.7656 12.0559C16.5841 11.9083 16.3912 11.8408 16.2456 11.8083L15.8103 13.7604C15.7527 13.7475 15.6312 13.7113 15.5035 13.6074L16.7656 12.0559ZM16.2079 11.8007C16.0888 11.7789 15.9724 11.7714 15.8643 11.7714V13.7714C15.8724 13.7714 15.875 13.7717 15.8727 13.7715C15.8705 13.7713 15.8619 13.7706 15.848 13.768L16.2079 11.8007ZM15.8643 11.7714H14.8438V13.7714H15.8643V11.7714ZM15.8438 12.7714V12.2856H13.8438V12.7714H15.8438ZM14.8438 13.2856H16.0418V11.2856H14.8438V13.2856ZM16.0418 13.2856C16.0793 13.2856 16.1076 13.2875 16.1279 13.2897C16.1482 13.2919 16.1584 13.2943 16.1601 13.2948C16.1642 13.2958 16.1257 13.2867 16.0718 13.2462L17.2721 11.6465C16.8839 11.3552 16.4233 11.2856 16.0418 11.2856V13.2856ZM16.062 13.2388C15.9911 13.1842 15.9381 13.1118 15.908 13.04C15.881 12.9754 15.8834 12.9378 15.8834 12.9518H17.8834C17.8834 12.5092 17.7362 12.0036 17.2819 11.6539L16.062 13.2388ZM15.8834 12.9518C15.8834 12.9068 15.8956 12.8283 15.9447 12.7459L17.6635 13.7684C17.8182 13.5083 17.8834 13.2262 17.8834 12.9518H15.8834ZM15.9546 12.7296C15.9599 12.721 15.9659 12.7132 15.9719 12.7066C15.9779 12.7 15.9825 12.6963 15.9842 12.695L17.1946 14.2872C17.3758 14.1494 17.5314 13.9814 17.6536 13.7847L15.9546 12.7296ZM16.0785 14.3507C16.0582 14.3386 15.985 14.2888 15.9251 14.1801L17.6766 13.2147C17.5286 12.9461 17.3145 12.7587 17.1003 12.6315L16.0785 14.3507ZM15.9465 14.217C15.8862 14.1179 15.8866 14.0433 15.8866 14.0474H17.8866C17.8866 13.772 17.8295 13.4643 17.6552 13.1777L15.9465 14.217Z" fill="#F26222" mask="url(#path-3-inside-1_1222_71587)"/>
<mask id="path-5-inside-2_1222_71587" fill="white">
<path d="M19.3876 13.9674C19.3876 14.2219 19.2916 14.4148 19.1001 14.546C18.9087 14.6773 18.6328 14.7425 18.2721 14.7425C17.8464 14.7425 17.5316 14.6438 17.3276 14.4465C17.125 14.2505 17.0234 13.9429 17.0234 13.5232C17.0234 13.0995 17.1319 12.787 17.3494 12.5856C17.5636 12.3852 17.8974 12.2852 18.3513 12.2852H19.2569L19.255 12.7709H18.3384C18.1107 12.7709 17.9456 12.8133 17.8432 12.8977C17.795 12.9379 17.7583 12.9888 17.7333 13.0504C17.705 13.1156 17.6911 13.1901 17.6911 13.2745H18.509C18.8039 13.2745 19.0241 13.3312 19.1697 13.4442C19.3148 13.5585 19.3876 13.7326 19.3876 13.9674ZM18.7334 13.9933C18.7334 13.9152 18.7125 13.8563 18.6708 13.8161C18.6291 13.7795 18.5656 13.7607 18.4798 13.7607H17.6943C17.6943 13.9263 17.7426 14.0518 17.8395 14.1362C17.9341 14.2228 18.0857 14.2661 18.2939 14.2661C18.4529 14.2661 18.5651 14.2438 18.6319 14.1996C18.7 14.1554 18.7334 14.0866 18.7334 13.9933Z"/>
</mask>
<path d="M19.3876 13.9674C19.3876 14.2219 19.2916 14.4148 19.1001 14.546C18.9087 14.6773 18.6328 14.7425 18.2721 14.7425C17.8464 14.7425 17.5316 14.6438 17.3276 14.4465C17.125 14.2505 17.0234 13.9429 17.0234 13.5232C17.0234 13.0995 17.1319 12.787 17.3494 12.5856C17.5636 12.3852 17.8974 12.2852 18.3513 12.2852H19.2569L19.255 12.7709H18.3384C18.1107 12.7709 17.9456 12.8133 17.8432 12.8977C17.795 12.9379 17.7583 12.9888 17.7333 13.0504C17.705 13.1156 17.6911 13.1901 17.6911 13.2745H18.509C18.8039 13.2745 19.0241 13.3312 19.1697 13.4442C19.3148 13.5585 19.3876 13.7326 19.3876 13.9674ZM18.7334 13.9933C18.7334 13.9152 18.7125 13.8563 18.6708 13.8161C18.6291 13.7795 18.5656 13.7607 18.4798 13.7607H17.6943C17.6943 13.9263 17.7426 14.0518 17.8395 14.1362C17.9341 14.2228 18.0857 14.2661 18.2939 14.2661C18.4529 14.2661 18.5651 14.2438 18.6319 14.1996C18.7 14.1554 18.7334 14.0866 18.7334 13.9933Z" fill="#F26222"/>
<path d="M17.3276 14.4465L16.6323 15.1652L16.6323 15.1652L17.3276 14.4465ZM17.3494 12.5856L18.0288 13.3194L18.0327 13.3158L17.3494 12.5856ZM19.2569 12.2852L20.2569 12.289L20.2607 11.2852H19.2569V12.2852ZM19.255 12.7709V13.7709H20.2512L20.255 12.7747L19.255 12.7709ZM17.8432 12.8977L17.2075 12.1257L17.203 12.1295L17.8432 12.8977ZM17.7333 13.0504L18.6507 13.4484L18.6553 13.4377L18.6597 13.4269L17.7333 13.0504ZM17.6911 13.2745H16.6911V14.2745H17.6911V13.2745ZM19.1697 13.4442L19.7884 12.6585L19.7827 12.6541L19.1697 13.4442ZM18.6708 13.8161L19.3644 13.0957L19.3477 13.0797L19.3303 13.0644L18.6708 13.8161ZM17.6943 13.7607V12.7607H16.6943V13.7607H17.6943ZM17.8395 14.1362L18.5148 13.3987L18.5056 13.3902L18.4962 13.382L17.8395 14.1362ZM18.6319 14.1996L18.0877 13.3605L18.0798 13.3657L18.6319 14.1996ZM18.3876 13.9674C18.3876 13.9679 18.388 13.9225 18.4202 13.8579C18.4541 13.7897 18.5013 13.7441 18.5348 13.7212L19.6655 15.3709C20.1578 15.0334 20.3876 14.5152 20.3876 13.9674H18.3876ZM18.5348 13.7212C18.5604 13.7036 18.5632 13.71 18.519 13.7204C18.4739 13.7311 18.3949 13.7425 18.2721 13.7425V15.7425C18.7298 15.7425 19.2382 15.6638 19.6655 15.3709L18.5348 13.7212ZM18.2721 13.7425C18.1329 13.7425 18.053 13.7259 18.0158 13.7142C17.9828 13.7039 17.9961 13.7018 18.0228 13.7277L16.6323 15.1652C17.0978 15.6155 17.7144 15.7425 18.2721 15.7425V13.7425ZM18.0229 13.7277C18.0542 13.758 18.0568 13.7786 18.0493 13.7557C18.04 13.7275 18.0234 13.6562 18.0234 13.5232H16.0234C16.0234 14.0827 16.1574 14.7058 16.6323 15.1652L18.0229 13.7277ZM18.0234 13.5232C18.0234 13.3932 18.0405 13.325 18.0495 13.2993C18.0563 13.2795 18.0539 13.2961 18.0288 13.3194L16.67 11.8519C16.1729 12.3122 16.0234 12.9435 16.0234 13.5232H18.0234ZM18.0327 13.3158C18.0077 13.3391 18.0008 13.3321 18.0477 13.3181C18.0982 13.3029 18.1939 13.2852 18.3513 13.2852V11.2852C17.7782 11.2852 17.1448 11.4075 16.6661 11.8555L18.0327 13.3158ZM18.3513 13.2852H19.2569V11.2852H18.3513V13.2852ZM18.2569 12.2813L18.255 12.7671L20.255 12.7747L20.2569 12.289L18.2569 12.2813ZM19.255 11.7709H18.3384V13.7709H19.255V11.7709ZM18.3384 11.7709C18.0284 11.7709 17.5778 11.8208 17.2075 12.1258L18.4789 13.6696C18.3898 13.743 18.313 13.766 18.2921 13.7714C18.2717 13.7766 18.2824 13.7709 18.3384 13.7709V11.7709ZM17.203 12.1295C17.0211 12.281 16.8899 12.4695 16.8069 12.6739L18.6597 13.4269C18.6267 13.508 18.5688 13.5947 18.4833 13.6659L17.203 12.1295ZM16.8159 12.6523C16.7233 12.8658 16.6911 13.0803 16.6911 13.2745H18.6911C18.6911 13.3 18.6867 13.3653 18.6507 13.4484L16.8159 12.6523ZM17.6911 14.2745H18.509V12.2745H17.6911V14.2745ZM18.509 14.2745C18.551 14.2745 18.5833 14.2766 18.6068 14.2791C18.6305 14.2817 18.643 14.2846 18.6465 14.2855C18.6542 14.2875 18.6138 14.2786 18.5567 14.2343L19.7827 12.6541C19.3845 12.3451 18.9028 12.2745 18.509 12.2745V14.2745ZM18.551 14.2298C18.4868 14.1793 18.438 14.1123 18.4101 14.0454C18.3849 13.9851 18.3876 13.9513 18.3876 13.9674H20.3876C20.3876 13.5153 20.2366 13.0115 19.7884 12.6586L18.551 14.2298ZM19.7334 13.9933C19.7334 13.7405 19.6623 13.3826 19.3644 13.0957L17.9772 14.5364C17.7628 14.3299 17.7334 14.0898 17.7334 13.9933H19.7334ZM19.3303 13.0644C19.0324 12.803 18.6879 12.7607 18.4798 12.7607V14.7607C18.4433 14.7607 18.2257 14.7559 18.0113 14.5678L19.3303 13.0644ZM18.4798 12.7607H17.6943V14.7607H18.4798V12.7607ZM16.6943 13.7607C16.6943 14.1238 16.807 14.5631 17.1828 14.8903L18.4962 13.382C18.5765 13.452 18.632 13.5372 18.6635 13.6188C18.6928 13.6948 18.6943 13.7486 18.6943 13.7607H16.6943ZM17.1641 14.8737C17.5288 15.2076 17.9831 15.2661 18.2939 15.2661V13.2661C18.2548 13.2661 18.2619 13.2616 18.2989 13.2721C18.3386 13.2835 18.4245 13.316 18.5148 13.3987L17.1641 14.8737ZM18.2939 15.2661C18.4916 15.2661 18.8587 15.2487 19.1839 15.0334L18.0798 13.3657C18.1909 13.2922 18.2822 13.2726 18.3038 13.2683C18.3302 13.2631 18.3309 13.2661 18.2939 13.2661V15.2661ZM19.176 15.0386C19.5794 14.777 19.7334 14.3599 19.7334 13.9933H17.7334C17.7334 13.9216 17.7464 13.805 17.8104 13.6744C17.8776 13.5375 17.9786 13.4313 18.0878 13.3606L19.176 15.0386Z" fill="#F26222" mask="url(#path-5-inside-2_1222_71587)"/>
<mask id="path-7-inside-3_1222_71587" fill="white">
<path d="M21.6841 13.9773C21.6841 14.2144 21.6067 14.3965 21.4527 14.5233C21.2974 14.6492 21.0781 14.7117 20.7953 14.7117H19.4688V14.226H20.6803C20.7994 14.226 20.8838 14.2063 20.932 14.1675C20.9784 14.1295 21.0011 14.0661 21.0011 13.9773C21.0011 13.8862 20.9779 13.8206 20.932 13.7808C20.8838 13.7429 20.7994 13.7241 20.6803 13.7241H19.4688V12.2856H21.5608L21.5589 12.7714H20.0887V13.2411H20.9079C21.1458 13.2411 21.3359 13.3045 21.4792 13.4313C21.5455 13.4973 21.5969 13.575 21.6331 13.6639C21.6669 13.7545 21.6841 13.8594 21.6841 13.9773Z"/>
</mask>
<path d="M21.6841 13.9773C21.6841 14.2144 21.6067 14.3965 21.4527 14.5233C21.2974 14.6492 21.0781 14.7117 20.7953 14.7117H19.4688V14.226H20.6803C20.7994 14.226 20.8838 14.2063 20.932 14.1675C20.9784 14.1295 21.0011 14.0661 21.0011 13.9773C21.0011 13.8862 20.9779 13.8206 20.932 13.7808C20.8838 13.7429 20.7994 13.7241 20.6803 13.7241H19.4688V12.2856H21.5608L21.5589 12.7714H20.0887V13.2411H20.9079C21.1458 13.2411 21.3359 13.3045 21.4792 13.4313C21.5455 13.4973 21.5969 13.575 21.6331 13.6639C21.6669 13.7545 21.6841 13.8594 21.6841 13.9773Z" fill="#F26222"/>
<path d="M21.4527 14.5233L22.0824 15.3002L22.0885 15.2952L21.4527 14.5233ZM19.4688 14.7117H18.4688V15.7117H19.4688V14.7117ZM19.4688 14.226V13.226H18.4688V14.226H19.4688ZM20.932 14.1675L21.5594 14.9463L21.5654 14.9413L20.932 14.1675ZM20.932 13.7808L21.5865 13.0248L21.5689 13.0095L21.5505 12.995L20.932 13.7808ZM19.4688 13.7241H18.4688V14.7241H19.4688V13.7241ZM19.4688 12.2856V11.2856H18.4688V12.2856H19.4688ZM21.5608 12.2856L22.5608 12.2895L22.5646 11.2856H21.5608V12.2856ZM21.5589 12.7714V13.7714H22.5551L22.5589 12.7752L21.5589 12.7714ZM20.0887 12.7714V11.7714H19.0887V12.7714H20.0887ZM20.0887 13.2411H19.0887V14.2411H20.0887V13.2411ZM21.4792 13.4313L22.1851 12.7229L22.1641 12.702L22.1419 12.6824L21.4792 13.4313ZM21.6331 13.6639L22.5699 13.314L22.5648 13.3004L22.5593 13.2869L21.6331 13.6639ZM20.6841 13.9773C20.6841 13.9875 20.6825 13.9554 20.7055 13.9012C20.7304 13.8425 20.7709 13.7894 20.8169 13.7514L22.0885 15.2952C22.5164 14.9427 22.6841 14.452 22.6841 13.9773H20.6841ZM20.823 13.7465C20.8426 13.7306 20.8607 13.7197 20.8747 13.7126C20.8884 13.7057 20.8966 13.7033 20.8967 13.7033C20.8967 13.7033 20.8947 13.7039 20.8906 13.7047C20.8864 13.7055 20.8802 13.7066 20.8717 13.7077C20.8545 13.7098 20.8294 13.7117 20.7953 13.7117V15.7117C21.2123 15.7117 21.687 15.6207 22.0824 15.3002L20.823 13.7465ZM20.7953 13.7117H19.4688V15.7117H20.7953V13.7117ZM20.4688 14.7117V14.226H18.4688V14.7117H20.4688ZM19.4688 15.226H20.6803V13.226H19.4688V15.226ZM20.6803 15.226C20.847 15.226 21.2309 15.2108 21.5594 14.9462L20.3047 13.3887C20.4347 13.284 20.5561 13.2489 20.6064 13.2372C20.6604 13.2247 20.69 13.226 20.6803 13.226V15.226ZM21.5654 14.9413C21.9414 14.6336 22.0011 14.2118 22.0011 13.9773H20.0011C20.0011 13.9204 20.0154 13.6254 20.2987 13.3936L21.5654 14.9413ZM22.0011 13.9773C22.0011 13.741 21.9418 13.3323 21.5865 13.0248L20.2776 14.5369C20.0141 14.3089 20.0011 14.0315 20.0011 13.9773H22.0011ZM21.5505 12.995C21.2217 12.7362 20.8395 12.7241 20.6803 12.7241V14.7241C20.6926 14.7241 20.6655 14.7256 20.6138 14.714C20.5664 14.7034 20.445 14.6701 20.3136 14.5667L21.5505 12.995ZM20.6803 12.7241H19.4688V14.7241H20.6803V12.7241ZM20.4688 13.7241V12.2856H18.4688V13.7241H20.4688ZM19.4688 13.2856H21.5608V11.2856H19.4688V13.2856ZM20.5608 12.2818L20.5589 12.7676L22.5589 12.7752L22.5608 12.2895L20.5608 12.2818ZM21.5589 11.7714H20.0887V13.7714H21.5589V11.7714ZM19.0887 12.7714V13.2411H21.0887V12.7714H19.0887ZM20.0887 14.2411H20.9079V12.2411H20.0887V14.2411ZM20.9079 14.2411C20.9388 14.2411 20.9366 14.2452 20.913 14.2374C20.8864 14.2285 20.8504 14.2102 20.8164 14.1801L22.1419 12.6824C21.7747 12.3574 21.3288 12.2411 20.9079 12.2411V14.2411ZM20.7733 14.1396C20.7427 14.1091 20.7201 14.0734 20.7069 14.0409L22.5593 13.2869C22.4737 13.0766 22.3483 12.8856 22.1851 12.7229L20.7733 14.1396ZM20.6963 14.0137C20.6806 13.9717 20.6841 13.9545 20.6841 13.9773H22.6841C22.6841 13.7644 22.6533 13.5373 22.5699 13.314L20.6963 14.0137Z" fill="#F26222" mask="url(#path-7-inside-3_1222_71587)"/>
<path d="M23.4373 15.3519C23.3638 15.3294 23.2051 15.2859 23.0261 15.2379L23.0348 15.2302L23.5803 15.3827C23.5404 15.376 23.4931 15.3661 23.4373 15.3519ZM23.8507 15.5023C23.8506 15.5023 23.8502 15.5018 23.8494 15.5007C23.8503 15.5018 23.8507 15.5023 23.8507 15.5023Z" fill="#F26222" stroke="#F26222"/>
<path d="M17.1652 15.7041C17.3061 15.8193 17.4802 15.9058 17.6795 15.9581L17.7194 15.7251M17.1652 15.7041L18.8446 15.9886C18.7001 16.0082 18.558 16.0216 18.4194 16.0269L18.3935 15.7438M17.1652 15.7041L17.2344 15.5684M17.1652 15.7041L19.2865 15.5634C18.9958 15.6496 18.6967 15.7161 18.3935 15.7438M17.7194 15.7251L17.6798 15.9582C17.6909 15.9611 17.702 15.9639 17.7133 15.9666L17.7135 15.9667C17.9344 16.0198 18.1714 16.0363 18.4193 16.0269L18.3935 15.7438M17.7194 15.7251C17.9414 15.763 18.1691 15.7643 18.3935 15.7438M17.7194 15.7251C17.551 15.6965 17.386 15.646 17.2344 15.5684M17.2344 15.5684C17.1143 15.5072 17.0035 15.4286 16.908 15.3353C16.883 15.3108 16.8591 15.2854 16.8363 15.259C16.8513 15.2935 16.8674 15.3269 16.8846 15.3591C16.8846 15.3592 16.8846 15.3592 16.8846 15.3592C16.9057 15.3988 16.9284 15.4367 16.9529 15.4729L16.9531 15.4731C17.0113 15.5592 17.0824 15.6364 17.1649 15.7039L17.2344 15.5684ZM16.6511 14.9763C16.6453 14.9643 16.6402 14.952 16.635 14.9398C16.6349 14.9395 16.6347 14.9391 16.6346 14.9387C16.6344 14.9384 16.6343 14.9381 16.6342 14.9378C16.6305 14.929 16.6267 14.9203 16.6228 14.9116L16.6511 14.9763ZM16.6511 14.9763C16.6684 15.0127 16.6875 15.0479 16.7082 15.0826L16.6511 14.9763ZM22.6045 14.0106C22.4471 14.2378 22.2495 14.444 22.0237 14.633C22.2133 14.4611 22.4258 14.2511 22.6045 14.0106Z" fill="#F26222" stroke="#F26222"/>
<mask id="path-11-inside-4_1222_71587" fill="white">
<path fill-rule="evenodd" clip-rule="evenodd" d="M16.9023 14.869C16.9023 14.869 18.1862 15.9874 20.3904 14.7891C20.1447 15.0685 17.4003 16.3468 16.9023 14.869Z"/>
</mask>
<path fill-rule="evenodd" clip-rule="evenodd" d="M16.9023 14.869C16.9023 14.869 18.1862 15.9874 20.3904 14.7891C20.1447 15.0685 17.4003 16.3468 16.9023 14.869Z" fill="#F26222"/>
<path d="M16.9023 14.869L17.5592 14.115L14.7761 11.6905L15.9547 15.1883L16.9023 14.869ZM20.3904 14.7891L21.1414 15.4494L19.9128 13.9105L20.3904 14.7891ZM16.9023 14.869C16.2455 15.623 16.246 15.6235 16.2465 15.6239C16.2467 15.6241 16.2472 15.6245 16.2476 15.6248C16.2483 15.6255 16.2491 15.6261 16.2498 15.6268C16.2514 15.6281 16.253 15.6295 16.2547 15.6309C16.2581 15.6339 16.2619 15.6371 16.2661 15.6405C16.2743 15.6474 16.2841 15.6553 16.2952 15.6642C16.3175 15.6819 16.3456 15.7033 16.3793 15.7275C16.4468 15.7759 16.5376 15.8357 16.6512 15.8989C16.8782 16.0252 17.1992 16.1667 17.6072 16.2555C18.4451 16.4379 19.5615 16.3779 20.868 15.6676L19.9128 13.9105C19.0152 14.3985 18.3875 14.3785 18.0324 14.3013C17.8439 14.2602 17.7062 14.1971 17.6236 14.1511C17.5823 14.1282 17.5556 14.11 17.5443 14.1018C17.5386 14.0978 17.537 14.0964 17.5394 14.0983C17.5406 14.0993 17.5428 14.1011 17.5461 14.1038C17.5478 14.1052 17.5497 14.1068 17.5519 14.1086C17.5529 14.1096 17.5541 14.1105 17.5553 14.1116C17.5559 14.1121 17.5566 14.1127 17.5572 14.1132C17.5575 14.1135 17.558 14.1139 17.5582 14.1141C17.5587 14.1145 17.5592 14.115 16.9023 14.869ZM19.6394 14.1288C19.7251 14.0314 19.7832 14.0124 19.6817 14.0724C19.6188 14.1096 19.5223 14.1605 19.3983 14.2167C19.1482 14.3303 18.8344 14.4442 18.528 14.5109C18.2046 14.5814 17.9827 14.5787 17.8677 14.5497C17.8214 14.538 17.8207 14.529 17.8371 14.5431C17.8582 14.5612 17.8584 14.5746 17.85 14.5497L15.9547 15.1883C16.2047 15.9303 16.7726 16.3359 17.3781 16.4888C17.9254 16.627 18.4983 16.5643 18.9539 16.4651C19.4266 16.362 19.876 16.1963 20.2252 16.0378C20.4009 15.958 20.5629 15.8748 20.6991 15.7943C20.7967 15.7366 20.9943 15.6166 21.1414 15.4494L19.6394 14.1288Z" fill="#F26222" mask="url(#path-11-inside-4_1222_71587)"/>
</g>
<path d="M14.9682 28.7272H13.8385C13.7951 28.4858 13.7142 28.2734 13.5959 28.0899C13.4776 27.9065 13.3328 27.7508 13.1614 27.6228C12.99 27.4949 12.7981 27.3983 12.5857 27.3332C12.3757 27.268 12.1524 27.2354 11.9159 27.2354C11.4886 27.2354 11.106 27.3428 10.7681 27.5577C10.4326 27.7725 10.1671 28.0875 9.97154 28.5027C9.77844 28.9178 9.68188 29.4248 9.68188 30.0234C9.68188 30.6268 9.77844 31.1362 9.97154 31.5513C10.1671 31.9665 10.4338 32.2803 10.7717 32.4927C11.1097 32.7052 11.4898 32.8114 11.9123 32.8114C12.1464 32.8114 12.3685 32.78 12.5785 32.7172C12.7909 32.652 12.9828 32.5567 13.1542 32.4312C13.3256 32.3057 13.4704 32.1524 13.5887 31.9713C13.7094 31.7879 13.7926 31.5779 13.8385 31.3413L14.9682 31.345C14.9078 31.7094 14.7908 32.045 14.617 32.3515C14.4456 32.6557 14.2247 32.9188 13.9544 33.1408C13.6864 33.3605 13.3799 33.5307 13.0347 33.6514C12.6895 33.7721 12.313 33.8324 11.905 33.8324C11.2629 33.8324 10.6909 33.6803 10.1888 33.3762C9.68671 33.0696 9.29084 32.6315 9.00118 32.0619C8.71394 31.4922 8.57031 30.8127 8.57031 30.0234C8.57031 29.2316 8.71514 28.5522 9.0048 27.9849C9.29446 27.4152 9.69033 26.9783 10.1924 26.6742C10.6945 26.3676 11.2654 26.2144 11.905 26.2144C12.2985 26.2144 12.6654 26.2711 13.0057 26.3845C13.3485 26.4956 13.6563 26.6597 13.929 26.877C14.2018 27.0918 14.4275 27.3549 14.6061 27.6663C14.7847 27.9752 14.9054 28.3289 14.9682 28.7272Z" fill="#F26222"/>
<path d="M17.3027 30.4289V33.731H16.2201V26.3157H17.2882V29.0747H17.357C17.4873 28.7754 17.6865 28.5377 17.9544 28.3615C18.2223 28.1853 18.5723 28.0971 19.0044 28.0971C19.3858 28.0971 19.7189 28.1756 20.0037 28.3325C20.291 28.4894 20.5131 28.7235 20.67 29.0349C20.8293 29.3439 20.9089 29.7301 20.9089 30.1936V33.731H19.8263V30.3239C19.8263 29.916 19.7213 29.5998 19.5113 29.3753C19.3013 29.1484 19.0092 29.0349 18.6351 29.0349C18.3792 29.0349 18.1499 29.0892 17.9471 29.1979C17.7468 29.3065 17.5887 29.4658 17.4728 29.6758C17.3594 29.8834 17.3027 30.1344 17.3027 30.4289Z" fill="#F26222"/>
<path d="M23.9721 33.8541C23.6197 33.8541 23.301 33.789 23.0162 33.6586C22.7314 33.5259 22.5057 33.334 22.3391 33.0829C22.175 32.8319 22.0929 32.5241 22.0929 32.1596C22.0929 31.8458 22.1533 31.5875 22.2739 31.3848C22.3946 31.182 22.5576 31.0215 22.7627 30.9032C22.9679 30.7849 23.1972 30.6956 23.4507 30.6353C23.7041 30.5749 23.9624 30.5291 24.2255 30.4977C24.5586 30.4591 24.829 30.4277 25.0366 30.4036C25.2442 30.377 25.395 30.3348 25.4892 30.2768C25.5833 30.2189 25.6304 30.1248 25.6304 29.9944V29.9691C25.6304 29.6529 25.5411 29.4079 25.3624 29.2341C25.1862 29.0603 24.9231 28.9734 24.5731 28.9734C24.2086 28.9734 23.9214 29.0542 23.7114 29.216C23.5038 29.3753 23.3602 29.5527 23.2805 29.7482L22.2631 29.5165C22.3838 29.1785 22.56 28.9058 22.7917 28.6982C23.0259 28.4882 23.295 28.3361 23.5991 28.242C23.9033 28.1454 24.2231 28.0971 24.5586 28.0971C24.7807 28.0971 25.0161 28.1237 25.2647 28.1768C25.5157 28.2275 25.7499 28.3216 25.9671 28.4592C26.1868 28.5968 26.3666 28.7935 26.5066 29.0494C26.6466 29.3029 26.7166 29.6323 26.7166 30.0379V33.731H25.6593V32.9707H25.6159C25.5459 33.1107 25.4409 33.2483 25.3009 33.3834C25.1609 33.5186 24.9811 33.6309 24.7614 33.7202C24.5417 33.8095 24.2786 33.8541 23.9721 33.8541ZM24.2074 32.9852C24.5067 32.9852 24.7626 32.926 24.975 32.8077C25.1899 32.6895 25.3528 32.535 25.4638 32.3443C25.5773 32.1512 25.634 31.9448 25.634 31.7251V31.0082C25.5954 31.0468 25.5205 31.0831 25.4095 31.1168C25.3009 31.1482 25.1766 31.176 25.0366 31.2001C24.8966 31.2219 24.7602 31.2424 24.6274 31.2617C24.4947 31.2786 24.3836 31.2931 24.2943 31.3051C24.0843 31.3317 23.8924 31.3763 23.7186 31.4391C23.5472 31.5019 23.4097 31.5924 23.3059 31.7107C23.2045 31.8265 23.1538 31.981 23.1538 32.1741C23.1538 32.442 23.2528 32.6448 23.4507 32.7824C23.6486 32.9176 23.9009 32.9852 24.2074 32.9852Z" fill="#F26222"/>
<path d="M30.7546 28.1696V29.0385H27.7168V28.1696H30.7546ZM28.5315 26.8371H29.6141V32.0981C29.6141 32.3081 29.6455 32.4662 29.7082 32.5724C29.771 32.6762 29.8519 32.7474 29.9508 32.786C30.0522 32.8222 30.1621 32.8403 30.2803 32.8403C30.3672 32.8403 30.4433 32.8343 30.5084 32.8222C30.5736 32.8102 30.6243 32.8005 30.6605 32.7933L30.856 33.6876C30.7933 33.7117 30.704 33.7359 30.5881 33.76C30.4722 33.7865 30.3274 33.801 30.1536 33.8034C29.8688 33.8083 29.6032 33.7576 29.357 33.6514C29.1108 33.5452 28.9117 33.381 28.7596 33.159C28.6075 32.9369 28.5315 32.6581 28.5315 32.3226V26.8371Z" fill="#F26222"/>
<circle cx="35" cy="35.5" r="3.5" fill="#76B51B" stroke="white"/>
</g>
<defs>
<clipPath id="clip0_1222_71587">
<rect width="40" height="40" fill="white" transform="translate(0 0.5)"/>
</clipPath>
<clipPath id="clip1_1222_71587">
<rect width="14.2222" height="14.2222" fill="white" transform="translate(12.4727 7.04785)"/>
</clipPath>
</defs>
</svg>
