<svg width="26" height="26" viewBox="0 0 26 26" fill="none" xmlns="http://www.w3.org/2000/svg">
<path d="M7.79961 13.0016C7.79961 12.8292 7.86809 12.6638 7.98999 12.5419C8.11189 12.42 8.27722 12.3516 8.44961 12.3516H12.3496V8.45156C12.3496 8.27917 12.4181 8.11384 12.54 7.99194C12.6619 7.87004 12.8272 7.80156 12.9996 7.80156C13.172 7.80156 13.3373 7.87004 13.4592 7.99194C13.5811 8.11384 13.6496 8.27917 13.6496 8.45156V12.3516H17.5496C17.722 12.3516 17.8873 12.42 18.0092 12.5419C18.1311 12.6638 18.1996 12.8292 18.1996 13.0016C18.1996 13.174 18.1311 13.3393 18.0092 13.4612C17.8873 13.5831 17.722 13.6516 17.5496 13.6516H13.6496V17.5516C13.6496 17.724 13.5811 17.8893 13.4592 18.0112C13.3373 18.1331 13.172 18.2016 12.9996 18.2016C12.8272 18.2016 12.6619 18.1331 12.54 18.0112C12.4181 17.8893 12.3496 17.724 12.3496 17.5516V13.6516H8.44961C8.27722 13.6516 8.11189 13.5831 7.98999 13.4612C7.86809 13.3393 7.79961 13.174 7.79961 13.0016ZM12.9996 23.4016C15.7579 23.4016 18.4031 22.3059 20.3535 20.3555C22.3039 18.4051 23.3996 15.7598 23.3996 13.0016C23.3996 10.2433 22.3039 7.59803 20.3535 5.64765C18.4031 3.69727 15.7579 2.60156 12.9996 2.60156C10.2414 2.60156 7.59608 3.69727 5.6457 5.64765C3.69532 7.59803 2.59961 10.2433 2.59961 13.0016C2.59961 15.7598 3.69532 18.4051 5.6457 20.3555C7.59608 22.3059 10.2414 23.4016 12.9996 23.4016ZM12.9996 22.1016C11.8046 22.1016 10.6213 21.8662 9.51719 21.4089C8.41313 20.9515 7.40995 20.2812 6.56494 19.4362C5.71992 18.5912 5.04962 17.588 4.59231 16.484C4.13499 15.3799 3.89961 14.1966 3.89961 13.0016C3.89961 11.8065 4.13499 10.6232 4.59231 9.51914C5.04962 8.41508 5.71992 7.4119 6.56494 6.56689C7.40995 5.72188 8.41313 5.05158 9.51719 4.59426C10.6213 4.13694 11.8046 3.90156 12.9996 3.90156C15.4131 3.90156 17.7277 4.86031 19.4343 6.56689C21.1409 8.27347 22.0996 10.5881 22.0996 13.0016C22.0996 15.415 21.1409 17.7297 19.4343 19.4362C17.7277 21.1428 15.4131 22.1016 12.9996 22.1016Z" fill="#4C5BD4"/>
</svg>
