<svg width="156" height="40" viewBox="0 0 156 40" fill="none" xmlns="http://www.w3.org/2000/svg">
<mask id="path-1-inside-1_2_4" fill="white">
<path fill-rule="evenodd" clip-rule="evenodd" d="M103.428 4L101.176 0L98.9245 4H17.8571C7.99492 4 0 11.9949 0 21.8571C0 31.7194 7.99492 39.7143 17.8571 39.7143H138.143C148.005 39.7143 156 31.7194 156 21.8571C156 11.9949 148.005 4 138.143 4H103.428Z"/>
</mask>
<path fill-rule="evenodd" clip-rule="evenodd" d="M103.428 4L101.176 0L98.9245 4H17.8571C7.99492 4 0 11.9949 0 21.8571C0 31.7194 7.99492 39.7143 17.8571 39.7143H138.143C148.005 39.7143 156 31.7194 156 21.8571C156 11.9949 148.005 4 138.143 4H103.428Z" fill="white"/>
<path d="M101.176 0L102.048 -0.490536L101.176 -2.03858L100.305 -0.490536L101.176 0ZM103.428 4L102.556 4.49054L102.843 5H103.428V4ZM98.9245 4V5H99.5092L99.796 4.49054L98.9245 4ZM100.305 0.490536L102.556 4.49054L104.299 3.50946L102.048 -0.490536L100.305 0.490536ZM99.796 4.49054L102.048 0.490536L100.305 -0.490536L98.0531 3.50946L99.796 4.49054ZM17.8571 5H98.9245V3H17.8571V5ZM1 21.8571C1 12.5472 8.5472 5 17.8571 5V3C7.44263 3 -1 11.4426 -1 21.8571H1ZM17.8571 38.7143C8.5472 38.7143 1 31.1671 1 21.8571H-1C-1 32.2717 7.44263 40.7143 17.8571 40.7143V38.7143ZM138.143 38.7143H17.8571V40.7143H138.143V38.7143ZM155 21.8571C155 31.1671 147.453 38.7143 138.143 38.7143V40.7143C148.557 40.7143 157 32.2717 157 21.8571H155ZM138.143 5C147.453 5 155 12.5472 155 21.8571H157C157 11.4426 148.557 3 138.143 3V5ZM103.428 5H138.143V3H103.428V5Z" fill="#F26222" mask="url(#path-1-inside-1_2_4)"/>
</svg>
