<svg width="40" height="40" viewBox="0 0 40 40" fill="none" xmlns="http://www.w3.org/2000/svg">
<rect width="40" height="40" rx="20" fill="#F26222"/>
<path d="M15.7891 27.5718V15.7185C15.7891 15.2518 15.9291 14.7968 16.1857 14.4118L19.3707 9.67517C19.8724 8.91684 21.1207 8.38017 22.1824 8.77684C23.3257 9.16184 24.0841 10.4452 23.8391 11.5885L23.2324 15.4035C23.1857 15.7535 23.2791 16.0685 23.4774 16.3135C23.6757 16.5352 23.9674 16.6752 24.2824 16.6752H29.0774C29.9991 16.6752 30.7924 17.0485 31.2591 17.7018C31.7024 18.3318 31.7841 19.1485 31.4924 19.9768L28.6224 28.7152C28.2607 30.1618 26.6857 31.3402 25.1224 31.3402H20.5724C19.7907 31.3402 18.6941 31.0718 18.1924 30.5702L16.6991 29.4152C16.1274 28.9835 15.7891 28.2952 15.7891 27.5718Z" fill="white"/>
<path d="M12.077 13.4434H10.8754C9.06703 13.4434 8.33203 14.1434 8.33203 15.87V27.6067C8.33203 29.3334 9.06703 30.0334 10.8754 30.0334H12.077C13.8854 30.0334 14.6204 29.3334 14.6204 27.6067V15.87C14.6204 14.1434 13.8854 13.4434 12.077 13.4434Z" fill="white"/>
</svg>
