<svg width="30" height="30" viewBox="0 0 30 30" fill="none" xmlns="http://www.w3.org/2000/svg">
<circle cx="15" cy="15" r="15" fill="#C4C4C4" fill-opacity="0.4"/>
<path d="M23.2817 9.225C22.9333 8.8754 22.5193 8.59801 22.0635 8.40874C21.6077 8.21947 21.119 8.12204 20.6254 8.12204C20.1319 8.12204 19.6432 8.21947 19.1873 8.40874C18.7315 8.59801 18.3176 8.8754 17.9692 9.225L18.8567 10.1125C19.0894 9.87981 19.3656 9.69523 19.6696 9.56931C19.9736 9.44338 20.2995 9.37856 20.6285 9.37856C20.9576 9.37856 21.2835 9.44338 21.5875 9.56931C21.8915 9.69523 22.1677 9.87981 22.4004 10.1125C22.6331 10.3452 22.8177 10.6214 22.9436 10.9254C23.0695 11.2295 23.1344 11.5553 23.1344 11.8844C23.1344 12.2134 23.0695 12.5393 22.9436 12.8433C22.8177 13.1473 22.6331 13.4236 22.4004 13.6562L17.4004 18.6562C16.9313 19.1262 16.2947 19.3905 15.6308 19.3911C14.9668 19.3917 14.3297 19.1285 13.8598 18.6594C13.3899 18.1903 13.1255 17.5537 13.1249 16.8897C13.1244 16.2257 13.3876 15.5887 13.8567 15.1187L14.7379 14.2312L13.8567 13.3437L12.9692 14.2312C12.6196 14.5796 12.3422 14.9936 12.1529 15.4494C11.9636 15.9052 11.8662 16.3939 11.8662 16.8875C11.8662 17.381 11.9636 17.8697 12.1529 18.3256C12.3422 18.7814 12.6196 19.1954 12.9692 19.5437C13.6763 20.2419 14.6317 20.6308 15.6254 20.625C16.1209 20.627 16.6118 20.5309 17.0699 20.3421C17.5279 20.1533 17.9441 19.8756 18.2942 19.525L23.2942 14.525C23.9948 13.8202 24.387 12.8662 24.3846 11.8724C24.3823 10.8787 23.9856 9.92647 23.2817 9.225V9.225Z" fill="black"/>
<path d="M7.61879 20.5125C7.38541 20.2802 7.20022 20.0041 7.07386 19.7C6.94749 19.396 6.88244 19.0699 6.88244 18.7406C6.88244 18.4114 6.94749 18.0853 7.07386 17.7812C7.20022 17.4772 7.38541 17.2011 7.61879 16.9688L12.6188 11.9688C12.8511 11.7354 13.1272 11.5502 13.4313 11.4238C13.7353 11.2975 14.0614 11.2324 14.3907 11.2324C14.72 11.2324 15.046 11.2975 15.3501 11.4238C15.6541 11.5502 15.9302 11.7354 16.1625 11.9688C16.3944 12.2029 16.577 12.4812 16.6994 12.7871C16.8218 13.0931 16.8815 13.4205 16.875 13.75C16.8769 14.0805 16.8133 14.4081 16.6878 14.7139C16.5623 15.0196 16.3774 15.2974 16.1438 15.5313L14.8188 16.875L15.7063 17.7625L17.0313 16.4375C17.7366 15.7322 18.1328 14.7756 18.1328 13.7781C18.1328 12.7807 17.7366 11.8241 17.0313 11.1188C16.326 10.4135 15.3694 10.0172 14.3719 10.0172C13.3745 10.0172 12.4179 10.4135 11.7125 11.1188L6.71254 16.1188C6.362 16.4673 6.08382 16.8816 5.89399 17.338C5.70417 17.7944 5.60645 18.2838 5.60645 18.7781C5.60645 19.2724 5.70417 19.7619 5.89399 20.2183C6.08382 20.6746 6.362 21.089 6.71254 21.4375C7.42431 22.1303 8.38185 22.5124 9.37504 22.5C10.377 22.501 11.3386 22.1055 12.05 21.4L11.1625 20.5125C10.9302 20.7459 10.6541 20.9311 10.3501 21.0574C10.046 21.1838 9.71995 21.2489 9.39067 21.2489C9.06138 21.2489 8.73534 21.1838 8.43127 21.0574C8.1272 20.9311 7.85109 20.7459 7.61879 20.5125V20.5125Z" fill="black"/>
</svg>
