<svg width="24" height="24" viewBox="0 0 24 24" fill="none" xmlns="http://www.w3.org/2000/svg">
<path d="M11.4 22.75H7.6C3.21 22.75 1.25 20.79 1.25 16.4V12.6C1.25 8.21 3.21 6.25 7.6 6.25H10.6C11.01 6.25 11.35 6.59 11.35 7C11.35 7.41 11.01 7.75 10.6 7.75H7.6C4.02 7.75 2.75 9.02 2.75 12.6V16.4C2.75 19.98 4.02 21.25 7.6 21.25H11.4C14.98 21.25 16.25 19.98 16.25 16.4V13.4C16.25 12.99 16.59 12.65 17 12.65C17.41 12.65 17.75 12.99 17.75 13.4V16.4C17.75 20.79 15.79 22.75 11.4 22.75Z" fill="#474747"/>
<path d="M17.0016 14.1485H13.8016C10.9916 14.1485 9.85156 13.0085 9.85156 10.1985V6.99852C9.85156 6.69852 10.0316 6.41852 10.3116 6.30852C10.5916 6.18852 10.9116 6.25852 11.1316 6.46852L17.5316 12.8685C17.7416 13.0785 17.8116 13.4085 17.6916 13.6885C17.5816 13.9685 17.3016 14.1485 17.0016 14.1485ZM11.3516 8.80852V10.1985C11.3516 12.1885 11.8116 12.6485 13.8016 12.6485H15.1916L11.3516 8.80852Z" fill="#474747"/>
<path d="M15.6016 2.75H11.6016C11.1916 2.75 10.8516 2.41 10.8516 2C10.8516 1.59 11.1916 1.25 11.6016 1.25H15.6016C16.0116 1.25 16.3516 1.59 16.3516 2C16.3516 2.41 16.0116 2.75 15.6016 2.75Z" fill="#474747"/>
<path d="M7 5.75C6.59 5.75 6.25 5.41 6.25 5C6.25 2.93 7.93 1.25 10 1.25H12.62C13.03 1.25 13.37 1.59 13.37 2C13.37 2.41 13.03 2.75 12.62 2.75H10C8.76 2.75 7.75 3.76 7.75 5C7.75 5.41 7.41 5.75 7 5.75Z" fill="#474747"/>
<path d="M19.1875 17.75C18.7775 17.75 18.4375 17.41 18.4375 17C18.4375 16.59 18.7775 16.25 19.1875 16.25C20.3275 16.25 21.2475 15.32 21.2475 14.19V8C21.2475 7.59 21.5875 7.25 21.9975 7.25C22.4075 7.25 22.7475 7.59 22.7475 8V14.19C22.7475 16.15 21.1475 17.75 19.1875 17.75Z" fill="#474747"/>
<path d="M22 8.74852H19C16.34 8.74852 15.25 7.65852 15.25 4.99852V1.99852C15.25 1.69852 15.43 1.41852 15.71 1.30852C15.99 1.18852 16.31 1.25852 16.53 1.46852L22.53 7.46852C22.74 7.67852 22.81 8.00852 22.69 8.28852C22.58 8.56852 22.3 8.74852 22 8.74852ZM16.75 3.80852V4.99852C16.75 6.82852 17.17 7.24852 19 7.24852H20.19L16.75 3.80852Z" fill="#474747"/>
</svg>
