<svg width="40" height="40" viewBox="0 0 40 40" fill="none" xmlns="http://www.w3.org/2000/svg">
<g clip-path="url(#clip0_1162_59106)">
<path d="M20 0C14.6957 0 9.6086 2.10714 5.85787 5.85787C2.10714 9.6086 0 14.6957 0 20C0 25.3043 2.10714 30.3915 5.85787 34.1423C9.6086 37.8927 14.6957 40 20 40C25.3043 40 30.3915 37.8927 34.1423 34.1423C37.8927 30.3915 40 25.3043 40 20C40 14.6957 37.8927 9.6086 34.1423 5.85787C30.3915 2.10714 25.3043 0 20 0Z" fill="url(#paint0_linear_1162_59106)"/>
<path d="M26.1845 10C20.6895 10 20.002 14.56 20.002 14.56C20.002 14.56 19.317 10 13.8221 10C8.53705 10 6.99705 15.555 7.64205 18.525C9.34205 26.375 20.002 31.875 20.002 31.875C20.002 31.875 30.6645 26.375 32.3645 18.525C33.007 15.555 31.4645 10 26.1845 10Z" fill="white"/>
</g>
<defs>
<linearGradient id="paint0_linear_1162_59106" x1="20" y1="0" x2="20" y2="40" gradientUnits="userSpaceOnUse">
<stop stop-color="#FF6680"/>
<stop offset="1" stop-color="#E61739"/>
</linearGradient>
<clipPath id="clip0_1162_59106">
<rect width="40" height="40" fill="white"/>
</clipPath>
</defs>
</svg>
