<svg width="40" height="40" viewBox="0 0 40 40" fill="none" xmlns="http://www.w3.org/2000/svg">
<rect width="40" height="40" rx="10" transform="matrix(-1 0 0 1 40 0)" fill="#FFD7D7"/>
<path d="M33.3333 15.5867C33.3333 17.1733 33.08 18.64 32.64 20H7.36C6.92 18.64 6.66666 17.1733 6.66666 15.5867C6.66666 11.4667 9.98666 8.13333 14.08 8.13333C16.4933 8.13333 18.6533 9.30666 20 11.1067C21.3467 9.30666 23.5067 8.13333 25.92 8.13333C30.0133 8.13333 33.3333 11.4667 33.3333 15.5867Z" fill="#FF4343"/>
<path opacity="0.4" d="M32.64 20C30.5333 26.6667 24.04 30.6533 20.8267 31.7467C20.3733 31.9067 19.6267 31.9067 19.1733 31.7467C15.96 30.6533 9.46667 26.6667 7.36 20H32.64Z" fill="#FF4343"/>
</svg>
