<svg width="26" height="26" viewBox="0 0 26 26" fill="none" xmlns="http://www.w3.org/2000/svg">
<path d="M10.8359 20.5833L10.1288 19.8762L9.42172 20.5833L10.1288 21.2904L10.8359 20.5833ZM14.4622 15.5429L10.1288 19.8762L11.543 21.2904L15.8764 16.9571L14.4622 15.5429ZM10.1288 21.2904L14.4622 25.6238L15.8764 24.2096L11.543 19.8762L10.1288 21.2904Z" fill="#F26222"/>
<path d="M6.43524 16.793C5.60057 15.3473 5.26625 13.6665 5.48415 12.0115C5.70204 10.3564 6.45997 8.81949 7.64038 7.63908C8.82079 6.45867 10.3577 5.70074 12.0128 5.48285C13.6678 5.26495 15.3486 5.59927 16.7943 6.43394C18.24 7.26862 19.3699 8.55701 20.0087 10.0993C20.6475 11.6416 20.7596 13.3515 20.3275 14.964C19.8955 16.5765 18.9434 18.0013 17.619 19.0176C16.2947 20.0338 14.672 20.5846 13.0026 20.5846" stroke="#F26222" stroke-width="2" stroke-linecap="round"/>
</svg>
