<svg width="24" height="24" viewBox="0 0 24 24" fill="none" xmlns="http://www.w3.org/2000/svg">
<path d="M10.9897 22.5C11.5897 22.5 12.5197 22.21 13.4097 20.75L15.1697 17.9C15.3397 17.62 15.8597 17.35 16.1797 17.37L19.5198 17.54C21.5198 17.64 22.2197 16.81 22.4697 16.31C22.7197 15.81 22.9398 14.74 21.6398 13.22L19.6597 10.92C19.4597 10.68 19.3497 10.16 19.4397 9.86002L20.4498 6.63004C20.9598 5.01004 20.3898 4.14004 20.0098 3.76004C19.6298 3.38004 18.7497 2.83003 17.1297 3.37003L14.1797 4.34003C13.9097 4.43003 13.4097 4.35003 13.1797 4.19003L10.0997 1.97003C8.68972 0.950032 7.66976 1.22003 7.19976 1.47003C6.72976 1.72003 5.92977 2.40005 5.95977 4.14005L6.02977 7.93002C6.03977 8.21002 5.80977 8.67003 5.58977 8.84003L3.10973 10.72C1.75973 11.75 1.70973 12.78 1.79973 13.31C1.88973 13.84 2.28972 14.8 3.90972 15.3L7.13976 16.31C7.43976 16.4 7.80976 16.79 7.88976 17.09L8.65972 20.03C9.16972 21.96 10.1697 22.39 10.7297 22.47C10.7997 22.49 10.8897 22.5 10.9897 22.5ZM16.1498 15.87C15.2898 15.87 14.3398 16.39 13.8998 17.11L12.1398 19.96C11.6398 20.78 11.1898 21.03 10.9498 20.99C10.7198 20.96 10.3597 20.58 10.1097 19.66L9.33977 16.72C9.12977 15.92 8.37977 15.13 7.58977 14.89L4.35973 13.88C3.73973 13.69 3.33977 13.38 3.27977 13.06C3.21977 12.74 3.49976 12.32 4.01976 11.92L6.49974 10.04C7.10974 9.58004 7.54972 8.66002 7.53972 7.90002L7.46972 4.11002C7.45972 3.44002 7.61972 2.94004 7.90972 2.79004C8.19972 2.64004 8.68974 2.79002 9.23974 3.18002L12.3198 5.40002C12.9298 5.84002 13.9397 6.00004 14.6697 5.76004L17.6197 4.79004C18.2397 4.59004 18.7397 4.60002 18.9697 4.83002C19.1997 5.06002 19.2198 5.56002 19.0298 6.18002L18.0198 9.41003C17.7698 10.2 17.9898 11.27 18.5298 11.89L20.5098 14.19C21.1398 14.92 21.2397 15.43 21.1297 15.64C21.0297 15.85 20.5497 16.08 19.5997 16.03L16.2598 15.86C16.2198 15.87 16.1798 15.87 16.1498 15.87Z" fill="#474747"/>
<path d="M2.08969 22.75C2.27969 22.75 2.46966 22.68 2.61966 22.53L5.64969 19.5C5.93969 19.21 5.93969 18.73 5.64969 18.44C5.35969 18.15 4.87969 18.15 4.58969 18.44L1.55966 21.47C1.26966 21.76 1.26966 22.24 1.55966 22.53C1.70966 22.68 1.89969 22.75 2.08969 22.75Z" fill="#474747"/>
</svg>
