<svg width="30" height="30" viewBox="0 0 30 30" fill="none" xmlns="http://www.w3.org/2000/svg">
<path d="M15 28.5125C14.1375 28.5125 13.325 28.075 12.75 27.3125L10.875 24.8125C10.8375 24.7625 10.6875 24.7 10.625 24.6875H10C4.7875 24.6875 1.5625 23.275 1.5625 16.25V10C1.5625 4.475 4.475 1.5625 10 1.5625H20C25.525 1.5625 28.4375 4.475 28.4375 10V16.25C28.4375 21.775 25.525 24.6875 20 24.6875H19.375C19.275 24.6875 19.1875 24.7375 19.125 24.8125L17.25 27.3125C16.675 28.075 15.8625 28.5125 15 28.5125ZM10 3.4375C5.525 3.4375 3.4375 5.525 3.4375 10V16.25C3.4375 21.9 5.375 22.8125 10 22.8125H10.625C11.2625 22.8125 11.9875 23.175 12.375 23.6875L14.25 26.1875C14.6875 26.7625 15.3125 26.7625 15.75 26.1875L17.625 23.6875C18.0375 23.1375 18.6875 22.8125 19.375 22.8125H20C24.475 22.8125 26.5625 20.725 26.5625 16.25V10C26.5625 5.525 24.475 3.4375 20 3.4375H10Z" fill="#474747"/>
<path d="M21.25 10.9375H8.75C8.2375 10.9375 7.8125 10.5125 7.8125 10C7.8125 9.4875 8.2375 9.0625 8.75 9.0625H21.25C21.7625 9.0625 22.1875 9.4875 22.1875 10C22.1875 10.5125 21.7625 10.9375 21.25 10.9375Z" fill="#474747"/>
<path d="M16.25 17.1875H8.75C8.2375 17.1875 7.8125 16.7625 7.8125 16.25C7.8125 15.7375 8.2375 15.3125 8.75 15.3125H16.25C16.7625 15.3125 17.1875 15.7375 17.1875 16.25C17.1875 16.7625 16.7625 17.1875 16.25 17.1875Z" fill="#474747"/>
</svg>
