<svg width="40" height="40" viewBox="0 0 40 40" fill="none" xmlns="http://www.w3.org/2000/svg">
<path d="M24.9997 37.9168H14.9997C5.94967 37.9168 2.08301 34.0502 2.08301 25.0002V15.0002C2.08301 5.95016 5.94967 2.0835 14.9997 2.0835H18.333C19.0163 2.0835 19.583 2.65016 19.583 3.3335C19.583 4.01683 19.0163 4.5835 18.333 4.5835H14.9997C7.31634 4.5835 4.58301 7.31683 4.58301 15.0002V25.0002C4.58301 32.6835 7.31634 35.4168 14.9997 35.4168H24.9997C32.683 35.4168 35.4163 32.6835 35.4163 25.0002V21.6668C35.4163 20.9835 35.983 20.4168 36.6663 20.4168C37.3497 20.4168 37.9163 20.9835 37.9163 21.6668V25.0002C37.9163 34.0502 34.0497 37.9168 24.9997 37.9168Z" fill="white"/>
<path d="M14.1662 29.4834C13.1496 29.4834 12.2162 29.1168 11.5329 28.4501C10.7162 27.6334 10.3662 26.4501 10.5496 25.2001L11.2662 20.1834C11.3996 19.2168 12.0329 17.9668 12.7162 17.2834L25.8496 4.1501C29.1662 0.833431 32.5329 0.833431 35.8496 4.1501C37.6662 5.96676 38.4829 7.81676 38.3162 9.66676C38.1662 11.1668 37.3662 12.6334 35.8496 14.1334L22.7162 27.2668C22.0329 27.9501 20.7829 28.5834 19.8162 28.7168L14.7996 29.4334C14.5829 29.4834 14.3662 29.4834 14.1662 29.4834ZM27.6162 5.91676L14.4829 19.0501C14.1662 19.3668 13.7996 20.1001 13.7329 20.5334L13.0162 25.5501C12.9496 26.0334 13.0496 26.4334 13.2996 26.6834C13.5496 26.9334 13.9496 27.0334 14.4329 26.9668L19.4496 26.2501C19.8829 26.1834 20.6329 25.8168 20.9329 25.5001L34.0662 12.3668C35.1496 11.2834 35.7162 10.3168 35.7996 9.41676C35.8996 8.33343 35.3329 7.18343 34.0662 5.9001C31.3996 3.23343 29.5662 3.98343 27.6162 5.91676Z" fill="white"/>
<path d="M33.0836 16.3835C32.9669 16.3835 32.8503 16.3668 32.7503 16.3335C28.3669 15.1001 24.8836 11.6168 23.6503 7.23346C23.4669 6.56679 23.8503 5.88346 24.5169 5.68346C25.1836 5.50013 25.8669 5.88346 26.0503 6.55013C27.0503 10.1001 29.8669 12.9168 33.4169 13.9168C34.0836 14.1001 34.4669 14.8001 34.2836 15.4668C34.1336 16.0335 33.6336 16.3835 33.0836 16.3835Z" fill="white"/>
</svg>
