<svg width="30" height="30" viewBox="0 0 30 30" fill="none" xmlns="http://www.w3.org/2000/svg">
<path d="M15.1496 16.9126C15.1246 16.9126 15.0871 16.9126 15.0621 16.9126C15.0246 16.9126 14.9746 16.9126 14.9371 16.9126C12.0996 16.8251 9.97461 14.6126 9.97461 11.8876C9.97461 9.1126 12.2371 6.8501 15.0121 6.8501C17.7871 6.8501 20.0496 9.1126 20.0496 11.8876C20.0371 14.6251 17.8996 16.8251 15.1871 16.9126C15.1621 16.9126 15.1621 16.9126 15.1496 16.9126ZM14.9996 8.7126C13.2496 8.7126 11.8371 10.1376 11.8371 11.8751C11.8371 13.5876 13.1746 14.9751 14.8746 15.0376C14.9121 15.0251 15.0371 15.0251 15.1621 15.0376C16.8371 14.9501 18.1496 13.5751 18.1621 11.8751C18.1621 10.1376 16.7496 8.7126 14.9996 8.7126Z" fill="#474747"/>
<path d="M15 28.4374C11.6375 28.4374 8.42504 27.1874 5.93754 24.9124C5.71254 24.7124 5.61254 24.4124 5.63754 24.1249C5.80004 22.6374 6.72504 21.2499 8.26254 20.2249C11.9875 17.7499 18.025 17.7499 21.7375 20.2249C23.275 21.2624 24.2 22.6374 24.3625 24.1249C24.4 24.4249 24.2875 24.7124 24.0625 24.9124C21.575 27.1874 18.3625 28.4374 15 28.4374ZM7.60004 23.8749C9.67504 25.6124 12.2875 26.5624 15 26.5624C17.7125 26.5624 20.325 25.6124 22.4 23.8749C22.175 23.1124 21.575 22.3749 20.6875 21.7749C17.6125 19.7249 12.4 19.7249 9.30004 21.7749C8.41254 22.3749 7.82504 23.1124 7.60004 23.8749Z" fill="#474747"/>
<path d="M15 28.4375C7.5875 28.4375 1.5625 22.4125 1.5625 15C1.5625 7.5875 7.5875 1.5625 15 1.5625C22.4125 1.5625 28.4375 7.5875 28.4375 15C28.4375 22.4125 22.4125 28.4375 15 28.4375ZM15 3.4375C8.625 3.4375 3.4375 8.625 3.4375 15C3.4375 21.375 8.625 26.5625 15 26.5625C21.375 26.5625 26.5625 21.375 26.5625 15C26.5625 8.625 21.375 3.4375 15 3.4375Z" fill="#474747"/>
</svg>
