<svg width="20" height="20" viewBox="0 0 20 20" fill="none" xmlns="http://www.w3.org/2000/svg">
<path d="M14.6089 6.47484C14.5505 6.4665 14.4922 6.4665 14.4339 6.47484C13.1422 6.43317 12.1172 5.37484 12.1172 4.07484C12.1172 2.74984 13.1922 1.6665 14.5255 1.6665C15.8505 1.6665 16.9339 2.7415 16.9339 4.07484C16.9255 5.37484 15.9005 6.43317 14.6089 6.47484Z" fill="#666666"/>
<path d="M17.3237 12.2498C16.3904 12.8748 15.082 13.1082 13.8737 12.9498C14.1904 12.2665 14.357 11.5082 14.3654 10.7082C14.3654 9.87485 14.182 9.08318 13.832 8.39151C15.0654 8.22485 16.3737 8.45818 17.3154 9.08318C18.632 9.94985 18.632 11.3748 17.3237 12.2498Z" fill="#666666"/>
<path d="M5.36745 6.47484C5.42578 6.4665 5.48411 6.4665 5.54245 6.47484C6.83411 6.43317 7.85911 5.37484 7.85911 4.07484C7.85911 2.7415 6.78411 1.6665 5.45078 1.6665C4.12578 1.6665 3.05078 2.7415 3.05078 4.07484C3.05078 5.37484 4.07578 6.43317 5.36745 6.47484Z" fill="#666666"/>
<path d="M5.4599 10.7083C5.4599 11.5167 5.6349 12.2833 5.95156 12.975C4.77656 13.1 3.55156 12.85 2.65156 12.2583C1.3349 11.3833 1.3349 9.95834 2.65156 9.08334C3.54323 8.48334 4.80156 8.24167 5.9849 8.37501C5.64323 9.07501 5.4599 9.86667 5.4599 10.7083Z" fill="#666666"/>
<path d="M10.1 13.225C10.0333 13.2167 9.95833 13.2167 9.88333 13.225C8.35 13.175 7.125 11.9167 7.125 10.3667C7.13333 8.78333 8.40833 7.5 10 7.5C11.5833 7.5 12.8667 8.78333 12.8667 10.3667C12.8583 11.9167 11.6417 13.175 10.1 13.225Z" fill="#666666"/>
<path d="M7.39297 14.9502C6.13464 15.7919 6.13464 17.1752 7.39297 18.0085C8.8263 18.9669 11.1763 18.9669 12.6096 18.0085C13.868 17.1669 13.868 15.7835 12.6096 14.9502C11.1846 13.9919 8.83464 13.9919 7.39297 14.9502Z" fill="#666666"/>
</svg>
