<svg width="40" height="40" viewBox="0 0 40 40" fill="none" xmlns="http://www.w3.org/2000/svg">
<rect opacity="0.15" width="40" height="40" rx="10" transform="matrix(-1 0 0 1 40 0)" fill="#BE2EDD"/>
<defs>
    <g id="u">
        <path opacity="0.4" d="M23.9727 14.3867V19.72C23.9727 20.0667 23.9594 20.4 23.9194 20.72C23.6127 24.32 21.4927 26.1066 17.586 26.1066H17.0527C16.7194 26.1066 16.3993 26.2667 16.1993 26.5333L14.5994 28.6667C13.8927 29.6133 12.746 29.6133 12.0393 28.6667L10.4393 26.5333C10.266 26.3067 9.87935 26.1066 9.58602 26.1066H9.05269C4.79936 26.1066 2.66602 25.0533 2.66602 19.72V14.3867C2.66602 10.48 4.46603 8.36001 8.05269 8.05334C8.37269 8.01334 8.70603 8 9.05269 8H17.586C21.8394 8 23.9727 10.1333 23.9727 14.3867Z" fill="#BE2EDD"/>
        <path d="M13.3197 18.6667C12.573 18.6667 11.9863 18.0667 11.9863 17.3333C11.9863 16.6 12.5863 16 13.3197 16C14.053 16 14.653 16.6 14.653 17.3333C14.653 18.0667 14.0663 18.6667 13.3197 18.6667Z" fill="#BE2EDD"/>
        <path d="M17.9857 18.6667C17.239 18.6667 16.6523 18.0667 16.6523 17.3333C16.6523 16.6 17.2523 16 17.9857 16C18.719 16 19.319 16.6 19.319 17.3333C19.319 18.0667 18.719 18.6667 17.9857 18.6667Z" fill="#BE2EDD"/>
        <path d="M8.66732 18.6667C7.92065 18.6667 7.33398 18.0667 7.33398 17.3333C7.33398 16.6 7.93398 16 8.66732 16C9.40065 16 10.0007 16.6 10.0007 17.3333C10.0007 18.0667 9.40065 18.6667 8.66732 18.6667Z" fill="#BE2EDD"/>
        <path d="M29.3061 9.05318V14.3865C29.3061 18.3065 27.5061 20.4132 23.9194 20.7198C23.9594 20.3998 23.9727 20.0665 23.9727 19.7198V14.3865C23.9727 10.1332 21.8394 7.99984 17.5861 7.99984H9.05273C8.70607 7.99984 8.37273 8.01318 8.05273 8.05318C8.3594 4.46652 10.4794 2.6665 14.3861 2.6665H22.9194C27.1727 2.6665 29.3061 4.79985 29.3061 9.05318Z" fill="#BE2EDD"/>
    </g>
</defs>
<use href="#u" x="4" y="4"></use>
</svg>