<svg width="40" height="40" viewBox="0 0 40 40" fill="none" xmlns="http://www.w3.org/2000/svg">
<rect opacity="0.15" width="40" height="40" rx="10" transform="matrix(-1 0 0 1 40 0)" fill="#BE2EDD"/>
<path opacity="0.4" d="M27.9733 18.3867V23.72C27.9733 24.0667 27.96 24.4 27.92 24.72C27.6133 28.32 25.4933 30.1066 21.5867 30.1066H21.0533C20.72 30.1066 20.4 30.2667 20.2 30.5333L18.6 32.6667C17.8933 33.6133 16.7467 33.6133 16.04 32.6667L14.44 30.5333C14.2666 30.3067 13.88 30.1066 13.5867 30.1066H13.0533C8.8 30.1066 6.66666 29.0533 6.66666 23.72V18.3867C6.66666 14.48 8.46667 12.36 12.0533 12.0533C12.3733 12.0133 12.7067 12 13.0533 12H21.5867C25.84 12 27.9733 14.1333 27.9733 18.3867Z" fill="#BE2EDD"/>
<path d="M17.32 22.6667C16.5733 22.6667 15.9867 22.0667 15.9867 21.3333C15.9867 20.6 16.5867 20 17.32 20C18.0533 20 18.6533 20.6 18.6533 21.3333C18.6533 22.0667 18.0667 22.6667 17.32 22.6667Z" fill="#BE2EDD"/>
<path d="M21.9867 22.6667C21.24 22.6667 20.6533 22.0667 20.6533 21.3333C20.6533 20.6 21.2533 20 21.9867 20C22.72 20 23.32 20.6 23.32 21.3333C23.32 22.0667 22.72 22.6667 21.9867 22.6667Z" fill="#BE2EDD"/>
<path d="M12.6667 22.6667C11.92 22.6667 11.3333 22.0667 11.3333 21.3333C11.3333 20.6 11.9333 20 12.6667 20C13.4 20 14 20.6 14 21.3333C14 22.0667 13.4 22.6667 12.6667 22.6667Z" fill="#BE2EDD"/>
<path d="M33.3067 13.0534V18.3867C33.3067 22.3067 31.5067 24.4134 27.92 24.72C27.96 24.4 27.9733 24.0667 27.9733 23.72V18.3867C27.9733 14.1333 25.84 12 21.5867 12H13.0533C12.7067 12 12.3733 12.0133 12.0533 12.0533C12.36 8.46668 14.48 6.66667 18.3867 6.66667H26.92C31.1733 6.66667 33.3067 8.80002 33.3067 13.0534Z" fill="#BE2EDD"/>
</svg>
