<svg width="26" height="26" viewBox="0 0 26 26" fill="none" xmlns="http://www.w3.org/2000/svg">
<path d="M18.9055 24.6458C17.6813 24.6458 16.3921 24.3533 15.0596 23.79C13.7596 23.2375 12.4488 22.4792 11.1705 21.5583C9.90297 20.6267 8.6788 19.5867 7.51964 18.4492C6.3713 17.29 5.3313 16.0658 4.41047 14.8092C3.4788 13.5092 2.7313 12.2092 2.20047 10.9525C1.63714 9.60916 1.35547 8.30916 1.35547 7.08499C1.35547 6.23999 1.50714 5.43832 1.79964 4.69082C2.10297 3.92166 2.59047 3.20666 3.2513 2.58916C4.08547 1.76582 5.0388 1.35416 6.05714 1.35416C6.47964 1.35416 6.91297 1.45166 7.2813 1.62499C7.7038 1.81999 8.0613 2.11249 8.3213 2.50249L10.8346 6.04499C11.0621 6.35916 11.2355 6.66249 11.3546 6.96582C11.4955 7.29082 11.5713 7.61582 11.5713 7.92999C11.5713 8.34166 11.4521 8.74249 11.2246 9.12166C11.0621 9.41416 10.813 9.72832 10.4988 10.0425L9.76214 10.8117C9.77297 10.8442 9.7838 10.8658 9.79464 10.8875C9.92464 11.115 10.1846 11.505 10.683 12.09C11.2138 12.6967 11.7121 13.2492 12.2105 13.7583C12.8496 14.3867 13.3805 14.885 13.8788 15.2967C14.4963 15.8167 14.8971 16.0767 15.1355 16.1958L15.1138 16.25L15.9046 15.47C16.2405 15.1342 16.5655 14.885 16.8796 14.7225C17.4755 14.3542 18.2338 14.2892 18.9921 14.6033C19.2738 14.7225 19.5771 14.885 19.9021 15.1125L23.4988 17.6692C23.8996 17.94 24.1921 18.2867 24.3655 18.6983C24.528 19.11 24.6038 19.4892 24.6038 19.8683C24.6038 20.3883 24.4846 20.9083 24.2571 21.3958C24.0296 21.8833 23.748 22.3058 23.3905 22.6958C22.773 23.3783 22.1013 23.8658 21.3213 24.18C20.5738 24.4833 19.7613 24.6458 18.9055 24.6458ZM15.1138 16.2608L14.9405 16.9975L15.233 16.2392C15.1788 16.2283 15.1355 16.2392 15.1138 16.2608Z" fill="#474747"/>
<path d="M20.0417 10.5625C19.5975 10.5625 19.2292 10.1942 19.2292 9.75001C19.2292 9.36001 18.8392 8.54751 18.1892 7.85418C17.55 7.17168 16.8458 6.77084 16.25 6.77084C15.8058 6.77084 15.4375 6.40251 15.4375 5.95834C15.4375 5.51418 15.8058 5.14584 16.25 5.14584C17.3008 5.14584 18.4058 5.70918 19.37 6.73834C20.2692 7.70251 20.8542 8.88334 20.8542 9.75001C20.8542 10.1942 20.4858 10.5625 20.0417 10.5625Z" fill="#474747"/>
<path d="M23.8333 10.5625C23.3892 10.5625 23.0208 10.1942 23.0208 9.74999C23.0208 6.01249 19.9875 2.97916 16.25 2.97916C15.8058 2.97916 15.4375 2.61082 15.4375 2.16666C15.4375 1.72249 15.8058 1.35416 16.25 1.35416C20.8758 1.35416 24.6458 5.12416 24.6458 9.74999C24.6458 10.1942 24.2775 10.5625 23.8333 10.5625Z" fill="#474747"/>
</svg>
