<svg width="24" height="24" viewBox="0 0 24 24" fill="none" xmlns="http://www.w3.org/2000/svg">
<path d="M11.4 22.75H7.6C3.21 22.75 1.25 20.79 1.25 16.4V12.6C1.25 8.21 3.21 6.25 7.6 6.25H10.6C11.01 6.25 11.35 6.59 11.35 7C11.35 7.41 11.01 7.75 10.6 7.75H7.6C4.02 7.75 2.75 9.02 2.75 12.6V16.4C2.75 19.98 4.02 21.25 7.6 21.25H11.4C14.98 21.25 16.25 19.98 16.25 16.4V13.4C16.25 12.99 16.59 12.65 17 12.65C17.41 12.65 17.75 12.99 17.75 13.4V16.4C17.75 20.79 15.79 22.75 11.4 22.75Z" fill="#474747"/>
<path d="M17.0016 14.15H13.8016C10.9916 14.15 9.85156 13.01 9.85156 10.2V6.99999C9.85156 6.69999 10.0316 6.41999 10.3116 6.30999C10.5916 6.18999 10.9116 6.25999 11.1316 6.46999L17.5316 12.87C17.7416 13.08 17.8116 13.41 17.6916 13.69C17.5816 13.97 17.3016 14.15 17.0016 14.15ZM11.3516 8.80999V10.2C11.3516 12.19 11.8116 12.65 13.8016 12.65H15.1916L11.3516 8.80999Z" fill="#474747"/>
<path d="M15.6016 2.75H11.6016C11.1916 2.75 10.8516 2.41 10.8516 2C10.8516 1.59 11.1916 1.25 11.6016 1.25H15.6016C16.0116 1.25 16.3516 1.59 16.3516 2C16.3516 2.41 16.0116 2.75 15.6016 2.75Z" fill="#474747"/>
<path d="M7 5.75C6.59 5.75 6.25 5.41 6.25 5C6.25 2.93 7.93 1.25 10 1.25H12.62C13.03 1.25 13.37 1.59 13.37 2C13.37 2.41 13.03 2.75 12.62 2.75H10C8.76 2.75 7.75 3.76 7.75 5C7.75 5.41 7.41 5.75 7 5.75Z" fill="#474747"/>
<path d="M19.1914 17.75C18.7814 17.75 18.4414 17.41 18.4414 17C18.4414 16.59 18.7814 16.25 19.1914 16.25C20.3314 16.25 21.2514 15.32 21.2514 14.19V8C21.2514 7.59 21.5914 7.25 22.0014 7.25C22.4114 7.25 22.7514 7.59 22.7514 8V14.19C22.7514 16.15 21.1514 17.75 19.1914 17.75Z" fill="#474747"/>
<path d="M22 8.74999H19C16.34 8.74999 15.25 7.65999 15.25 4.99999V1.99999C15.25 1.69999 15.43 1.41999 15.71 1.30999C15.99 1.18999 16.31 1.25999 16.53 1.46999L22.53 7.46999C22.74 7.67999 22.81 8.00999 22.69 8.28999C22.58 8.56999 22.3 8.74999 22 8.74999ZM16.75 3.80999V4.99999C16.75 6.82999 17.17 7.24999 19 7.24999H20.19L16.75 3.80999Z" fill="#474747"/>
</svg>
