<svg width="26" height="26" viewBox="0 0 26 26" fill="none" xmlns="http://www.w3.org/2000/svg">
<path d="M6.05767 4.3584C6.05767 4.14291 5.97206 3.93625 5.81969 3.78387C5.66732 3.6315 5.46066 3.5459 5.24517 3.5459C5.02968 3.5459 4.82302 3.6315 4.67064 3.78387C4.51827 3.93625 4.43267 4.14291 4.43267 4.3584V18.647L2.57042 16.7831C2.41785 16.6306 2.21093 16.5449 1.99517 16.5449C1.77941 16.5449 1.57248 16.6306 1.41992 16.7831C1.26735 16.9357 1.18164 17.1426 1.18164 17.3584C1.18164 17.5742 1.26735 17.7811 1.41992 17.9336L4.66992 21.182L4.68129 21.1934C4.83384 21.3421 5.03899 21.4246 5.25205 21.4228C5.46511 21.4209 5.66882 21.335 5.81879 21.1836L9.06879 17.9336C9.14434 17.8582 9.20428 17.7686 9.2452 17.67C9.28613 17.5714 9.30723 17.4657 9.30731 17.359C9.30738 17.2522 9.28643 17.1465 9.24564 17.0478C9.20486 16.9492 9.14504 16.8595 9.06961 16.784C8.99417 16.7084 8.90459 16.6485 8.80599 16.6075C8.70739 16.5666 8.60169 16.5455 8.49493 16.5454C8.38817 16.5454 8.28244 16.5663 8.18378 16.6071C8.08512 16.6479 7.99546 16.7077 7.91992 16.7831L6.05767 18.647V4.3584ZM11.7452 5.9834C11.7452 5.76791 11.8308 5.56125 11.9831 5.40887C12.1355 5.2565 12.3422 5.1709 12.5577 5.1709H23.9327C24.1482 5.1709 24.3548 5.2565 24.5072 5.40887C24.6596 5.56125 24.7452 5.76791 24.7452 5.9834C24.7452 6.19889 24.6596 6.40555 24.5072 6.55792C24.3548 6.7103 24.1482 6.7959 23.9327 6.7959H12.5577C12.3422 6.7959 12.1355 6.7103 11.9831 6.55792C11.8308 6.40555 11.7452 6.19889 11.7452 5.9834ZM12.5577 10.0459C12.3422 10.0459 12.1355 10.1315 11.9831 10.2839C11.8308 10.4362 11.7452 10.6429 11.7452 10.8584C11.7452 11.0739 11.8308 11.2805 11.9831 11.4329C12.1355 11.5853 12.3422 11.6709 12.5577 11.6709H20.6827C20.8982 11.6709 21.1048 11.5853 21.2572 11.4329C21.4096 11.2805 21.4952 11.0739 21.4952 10.8584C21.4952 10.6429 21.4096 10.4362 21.2572 10.2839C21.1048 10.1315 20.8982 10.0459 20.6827 10.0459H12.5577ZM12.5577 14.9209C12.3422 14.9209 12.1355 15.0065 11.9831 15.1589C11.8308 15.3112 11.7452 15.5179 11.7452 15.7334C11.7452 15.9489 11.8308 16.1555 11.9831 16.3079C12.1355 16.4603 12.3422 16.5459 12.5577 16.5459H17.4327C17.6482 16.5459 17.8548 16.4603 18.0072 16.3079C18.1596 16.1555 18.2452 15.9489 18.2452 15.7334C18.2452 15.5179 18.1596 15.3112 18.0072 15.1589C17.8548 15.0065 17.6482 14.9209 17.4327 14.9209H12.5577ZM12.5577 19.7959C12.3422 19.7959 12.1355 19.8815 11.9831 20.0339C11.8308 20.1862 11.7452 20.3929 11.7452 20.6084C11.7452 20.8239 11.8308 21.0305 11.9831 21.1829C12.1355 21.3353 12.3422 21.4209 12.5577 21.4209H14.1827C14.3982 21.4209 14.6048 21.3353 14.7572 21.1829C14.9096 21.0305 14.9952 20.8239 14.9952 20.6084C14.9952 20.3929 14.9096 20.1862 14.7572 20.0339C14.6048 19.8815 14.3982 19.7959 14.1827 19.7959H12.5577Z" fill="black"/>
</svg>
