<svg width="24" height="24" viewBox="0 0 24 24" fill="none" xmlns="http://www.w3.org/2000/svg">
<g clip-path="url(#clip0_2359_18955)">
<path d="M22 19.4286V20.5714H2V19.4286L4.22222 17.1429V10.2857C4.22222 6.74286 6.47778 3.62286 9.77778 2.61714V2.28571C9.77778 1.67951 10.0119 1.09812 10.4287 0.66947C10.8454 0.240816 11.4106 0 12 0C12.5894 0 13.1546 0.240816 13.5713 0.66947C13.9881 1.09812 14.2222 1.67951 14.2222 2.28571V2.61714C17.5222 3.62286 19.7778 6.74286 19.7778 10.2857V17.1429L22 19.4286ZM14.2222 21.7143C14.2222 22.3205 13.9881 22.9019 13.5713 23.3305C13.1546 23.7592 12.5894 24 12 24C11.4106 24 10.8454 23.7592 10.4287 23.3305C10.0119 22.9019 9.77778 22.3205 9.77778 21.7143" fill="#F26222"/>
</g>
<defs>
<clipPath id="clip0_2359_18955">
<rect width="24" height="24" fill="white"/>
</clipPath>
</defs>
</svg>
