<svg width="21" height="18" viewBox="0 0 21 18" fill="none" xmlns="http://www.w3.org/2000/svg">
<path d="M0.750897 17.3107C0.671858 17.3111 0.593297 17.2984 0.518397 17.2732C0.361761 17.2223 0.226219 17.1213 0.13269 16.9858C0.0391619 16.8502 -0.00715218 16.6876 0.000896699 16.5232C0.000896699 16.4107 0.773397 5.52066 11.6934 4.66566V0.750657C11.6933 0.601548 11.7376 0.455784 11.8207 0.331983C11.9038 0.208182 12.0219 0.111962 12.16 0.0556145C12.298 -0.000733355 12.4497 -0.0146521 12.5957 0.015636C12.7417 0.0459241 12.8754 0.119044 12.9796 0.225657L20.3821 7.78566C20.5196 7.92585 20.5965 8.11434 20.5965 8.31066C20.5965 8.50697 20.5196 8.69546 20.3821 8.83566L12.9796 16.3957C12.8754 16.5023 12.7417 16.5754 12.5957 16.6057C12.4497 16.636 12.298 16.622 12.16 16.5657C12.0219 16.5094 11.9038 16.4131 11.8207 16.2893C11.7376 16.1655 11.6933 16.0198 11.6934 15.8707V12.0307C4.4034 12.3082 1.41465 16.9057 1.38465 16.9619C1.31698 17.0688 1.2234 17.1568 1.1126 17.2177C1.00179 17.2787 0.877369 17.3107 0.750897 17.3107ZM13.1934 2.58816V5.36691C13.1935 5.56135 13.1181 5.74825 12.9831 5.88817C12.8481 6.02809 12.664 6.1101 12.4696 6.11691C5.40465 6.37566 2.87715 11.0819 1.96965 14.1082C3.84465 12.4882 7.1859 10.5082 12.3984 10.5082H12.4321C12.6311 10.5082 12.8218 10.5872 12.9625 10.7278C13.1031 10.8685 13.1821 11.0592 13.1821 11.2582V14.0369L18.8071 8.31441L13.1934 2.58816Z" fill="#333333"/>
</svg>
