<svg width="26" height="26" viewBox="0 0 26 26" fill="none" xmlns="http://www.w3.org/2000/svg">
<path d="M18.418 3.79166H7.58464C4.33464 3.79166 2.16797 5.41666 2.16797 9.20832V16.7917C2.16797 20.5833 4.33464 22.2083 7.58464 22.2083H18.418C21.668 22.2083 23.8346 20.5833 23.8346 16.7917V9.20832C23.8346 5.41666 21.668 3.79166 18.418 3.79166ZM18.9271 10.3892L15.5363 13.0975C14.8213 13.6717 13.9113 13.9533 13.0013 13.9533C12.0913 13.9533 11.1705 13.6717 10.4663 13.0975L7.07547 10.3892C6.7288 10.1075 6.67464 9.58749 6.94547 9.24082C7.22714 8.89416 7.7363 8.82916 8.08297 9.11082L11.4738 11.8192C12.2971 12.48 13.6946 12.48 14.518 11.8192L17.9088 9.11082C18.2555 8.82916 18.7755 8.88332 19.0463 9.24082C19.328 9.58749 19.2738 10.1075 18.9271 10.3892Z" fill="#474747"/>
</svg>
