<svg width="40" height="40" viewBox="0 0 40 40" fill="none" xmlns="http://www.w3.org/2000/svg">
<rect opacity="0.15" width="40" height="40" rx="10" transform="matrix(-1 0 0 1 40 0)" fill="#22A6B3"/>
<path opacity="0.4" d="M28.0533 22.0666C27.4933 22.6133 27.1733 23.4 27.2533 24.24C27.3733 25.68 28.6933 26.7333 30.1333 26.7333H32.6667V28.32C32.6667 31.08 30.4133 33.3333 27.6533 33.3333H12.3467C9.58668 33.3333 7.33334 31.08 7.33334 28.32V19.3467C7.33334 16.5867 9.58668 14.3333 12.3467 14.3333H27.6533C30.4133 14.3333 32.6667 16.5867 32.6667 19.3467V21.2667H29.9733C29.2267 21.2667 28.5467 21.56 28.0533 22.0666Z" fill="#22A6B3"/>
<path d="M23.8 9.26666V14.3333H12.3467C9.58668 14.3333 7.33334 16.5867 7.33334 19.3467V14.4533C7.33334 12.8667 8.30668 11.4533 9.78668 10.8933L20.3733 6.89329C22.0267 6.27996 23.8 7.49333 23.8 9.26666Z" fill="#22A6B3"/>
<path d="M34.08 22.6266V25.3734C34.08 26.1067 33.4933 26.7066 32.7467 26.7333H30.1333C28.6933 26.7333 27.3733 25.68 27.2533 24.24C27.1733 23.4 27.4933 22.6133 28.0533 22.0666C28.5467 21.56 29.2267 21.2667 29.9733 21.2667H32.7467C33.4933 21.2933 34.08 21.8933 34.08 22.6266Z" fill="#22A6B3"/>
<path d="M22.6667 21H13.3333C12.7867 21 12.3333 20.5467 12.3333 20C12.3333 19.4533 12.7867 19 13.3333 19H22.6667C23.2133 19 23.6667 19.4533 23.6667 20C23.6667 20.5467 23.2133 21 22.6667 21Z" fill="#22A6B3"/>
</svg>
