<svg width="48" height="48" viewBox="0 0 48 48" fill="none" xmlns="http://www.w3.org/2000/svg">
<path d="M18 20C20.2091 20 22 18.2091 22 16C22 13.7909 20.2091 12 18 12C15.7909 12 14 13.7909 14 16C14 18.2091 15.7909 20 18 20Z" stroke="white" stroke-width="3" stroke-linecap="round" stroke-linejoin="round"/>
<path d="M26 4H18C8 4 4 8 4 18V30C4 40 8 44 18 44H30C40 44 44 40 44 30V20" stroke="white" stroke-width="3" stroke-linecap="round" stroke-linejoin="round"/>
<path d="M38.2817 5.18006L31.0217 12.4401C30.7417 12.7201 30.4617 13.2601 30.4217 13.6601L30.0217 16.4401C29.8817 17.4401 30.5817 18.1401 31.5817 18.0001L34.3617 17.6001C34.7417 17.5401 35.3017 17.2801 35.5817 17.0001L42.8417 9.74006C44.1017 8.48006 44.6817 7.04006 42.8417 5.20006C40.9817 3.32006 39.5417 3.92006 38.2817 5.18006Z" stroke="white" stroke-width="3" stroke-miterlimit="10" stroke-linecap="round" stroke-linejoin="round"/>
<path d="M37.2383 6.21997C37.8583 8.41997 39.5783 10.14 41.7783 10.76" stroke="white" stroke-width="3" stroke-miterlimit="10" stroke-linecap="round" stroke-linejoin="round"/>
<path d="M5.33984 37.9001L15.1998 31.2801C16.7798 30.2201 19.0598 30.3401 20.4798 31.5601L21.1398 32.1401C22.6998 33.4801 25.2198 33.4801 26.7798 32.1401L35.0998 25.0001C36.6598 23.6601 39.1798 23.6601 40.7398 25.0001L43.9998 27.8001" stroke="white" stroke-width="3" stroke-linecap="round" stroke-linejoin="round"/>
</svg>
