<svg width="90" height="33" viewBox="0 0 90 33" fill="none" xmlns="http://www.w3.org/2000/svg">
<g clip-path="url(#clip0_1126_6452)">
<path fill-rule="evenodd" clip-rule="evenodd" d="M67.6132 25.3047C66.9047 25.3088 66.7255 25.5298 66.7255 25.5298L67.02 26.0253C67.02 26.0253 67.1792 25.8983 67.5295 25.8983C67.5295 25.8983 67.9169 25.8981 67.9195 26.058C67.9235 26.3036 67.3092 26.3214 67.3092 26.3214V26.8225H67.9998V26.6189C67.9998 26.6189 68.7117 26.5944 68.7117 26.0663C68.7117 25.5382 68.3218 25.3006 67.6132 25.3047ZM49.7131 25.5678L48.5047 26.5028L48.9305 27.0236L50.1158 26.0648L49.7131 25.5678ZM55.5708 25.7097V31.2136H56.4224V27.7456H57.8378C57.8378 27.7456 58.5168 27.7811 58.5168 28.6097V31.2136H59.4031V28.4912C59.4031 28.4912 59.4031 27.0272 58.0566 27.0354L56.4224 27.0455V25.7097H55.5708ZM76.5893 25.7097V30.4086C76.5893 31.2255 77.2677 31.2254 77.2677 31.2254H78.9876C79.6593 31.2254 80.1546 30.8198 80.3906 30.2925C80.6785 29.6496 80.6274 28.8617 80.6274 28.8617C80.6274 26.9776 79.1155 27.0592 79.1155 27.0592H77.4969V25.7097H76.5893ZM23.7734 25.7216V26.4318H25.235V31.2254H26.0982V26.4318H27.4905V25.7216H23.7734ZM27.7094 25.7216V31.2254H28.561V27.7575H29.9764C29.9764 27.7575 30.6554 27.793 30.6554 28.6215V31.2254H31.5416V28.5031C31.5416 28.5031 31.5417 27.0391 30.1952 27.0473L28.561 27.0574V25.7216H27.7094ZM38.5846 26.9645C37.4798 26.9842 36.3981 27.4773 36.3751 29.1186C36.3751 31.2254 38.1932 31.2254 38.1932 31.2254C38.1932 31.2254 39.9196 31.3439 40.38 30.8231C40.38 30.8231 41.0127 30.2787 41.0012 28.8347C40.8786 27.0299 39.6044 26.956 38.5846 26.9645ZM33.1987 27.0592C33.1987 27.0592 32.0133 27.0592 32.0133 28.5506V29.9235C32.0133 29.9235 32.0135 31.2254 33.4175 31.2254H35.8572V30.5509H33.7166C33.7166 30.5509 32.9111 30.5507 32.9111 29.7222V29.4499H35.5693C35.5693 29.4499 36.0641 29.4145 36.0641 28.6215C36.0641 27.8285 35.558 27.0592 34.8445 27.0592H33.1987ZM44.6493 27.0592C44.6493 27.0592 43.2223 27.0593 43.2223 28.5624V29.8997C43.2223 29.8997 43.3144 31.2254 44.8219 31.2254H46.8589V30.539H45.0292C45.0292 30.539 44.1086 30.3851 44.1086 29.3199V28.7753C44.1086 28.7753 44.2005 27.7456 45.0867 27.7456H46.8589V27.0592H44.6493ZM47.492 27.0592V27.7456H49.7475C49.7475 27.7456 50.1733 27.8167 50.1733 28.3611V28.5624H48.3436C48.3436 28.5624 47.1467 28.5624 47.1467 29.7578V30.243C47.1467 30.243 47.1468 31.2254 48.2861 31.2254H50.1733C50.1733 31.2254 51.0595 31.261 51.0595 30.3614V28.0651C51.0595 28.0651 51.048 27.0592 49.8626 27.0592H47.492ZM52.9585 27.0592C52.9585 27.0592 51.5312 27.0593 51.5312 28.5624V29.8997C51.5312 29.8997 51.6235 31.2254 53.1311 31.2254H55.1681V30.539H53.3381C53.3381 30.539 52.4175 30.3851 52.4175 29.3199V28.7753C52.4175 28.7753 52.5094 27.7456 53.3956 27.7456H55.1681V27.0592H52.9585ZM63.2007 27.0592C63.2007 27.0592 61.7737 27.0593 61.7737 28.5624V29.8997C61.7737 29.8997 61.8657 31.2254 63.3733 31.2254H65.4103V30.539H63.5806C63.5806 30.539 62.6597 30.3851 62.6597 29.3199V28.7753C62.6597 28.7753 62.7519 27.7456 63.638 27.7456H65.4103V27.0592H63.2007ZM65.7325 27.0592V29.8525C65.7325 31.2137 66.964 31.2254 66.964 31.2254H69.0009C69.7605 31.2254 69.7605 30.5746 69.7605 30.5746V27.0592H68.8973V30.172C68.8973 30.5744 68.5289 30.5746 68.5289 30.5746H67.574C66.6303 30.5746 66.5841 29.7697 66.5841 29.7697V27.0592H65.7325ZM86.1432 27.0592C86.1432 27.0592 85.4611 27.0592 85.4611 27.8314V31.2254H86.3087V28.0809C86.3087 28.0809 86.299 27.7489 86.6609 27.7489H87.8511C87.8511 27.7489 88.4513 27.7575 88.4513 28.4921V31.2254H89.3367V28.2082C89.3367 28.2082 89.3367 27.0592 88.2512 27.0592H86.1432ZM70.6112 27.0948V27.7813H72.8667C72.8667 27.7813 73.2925 27.8523 73.2925 28.3968V28.5981H71.4628C71.4628 28.5981 70.2659 28.598 70.2659 29.7934V30.2786C70.2659 30.2786 70.266 31.2611 71.4054 31.2611H73.2925C73.2925 31.2611 74.1788 31.2966 74.1788 30.3971V28.1007C74.1788 28.1007 74.1672 27.0948 72.9819 27.0948H70.6112ZM81.2792 27.0948V27.7813H83.5347C83.5347 27.7813 83.9605 27.8523 83.9605 28.3968V28.5981H82.1308C82.1308 28.5981 80.934 28.598 80.934 29.7934V30.2786C80.934 30.2786 80.934 31.2611 82.0734 31.2611H83.9605C83.9605 31.2611 84.8468 31.2966 84.8468 30.3971V28.1007C84.8468 28.1007 84.8352 27.0948 83.6499 27.0948H81.2792ZM38.804 27.7471C39.4573 27.7554 40.1283 28.0207 40.1383 29.2014C40.1498 30.5507 38.9643 30.5862 38.9643 30.5862C38.9643 30.5862 37.2383 30.8111 37.2498 29.2842C37.2613 27.7574 38.5269 27.7575 38.5269 27.7575C38.6175 27.7501 38.7107 27.7459 38.804 27.7471V27.7471ZM77.4969 27.7489H78.8647C79.0405 27.7489 79.7356 27.7489 79.7356 29.1806C79.7356 30.6123 78.7368 30.5746 78.7368 30.5746H77.8497C77.498 30.5746 77.4969 30.2572 77.4969 30.2572V27.7489ZM33.6129 27.7575H34.4761C34.4761 27.7575 35.1898 27.8639 35.2013 28.7516H32.9111V28.4796C32.9111 28.4796 32.9339 27.7575 33.6129 27.7575ZM48.5968 29.2251H50.1733V30.1601C50.1733 30.1601 50.1734 30.539 49.8052 30.539H48.5278C48.5278 30.539 48.0558 30.4797 48.0558 30.1601V29.7459C48.0558 29.7459 48.0559 29.2251 48.5968 29.2251V29.2251ZM71.716 29.2608H73.2925V30.1957C73.2925 30.1957 73.2927 30.5746 72.9244 30.5746H71.647C71.647 30.5746 71.175 30.5153 71.175 30.1957V29.7815C71.175 29.7815 71.1751 29.2608 71.716 29.2608ZM82.384 29.2608H83.9605V30.1957C83.9605 30.1957 83.9607 30.5746 83.5924 30.5746H82.315C82.315 30.5746 81.843 30.5153 81.843 30.1957V29.7815C81.843 29.7815 81.8431 29.2608 82.384 29.2608ZM82.4403 31.4757V32.4015H83.345V31.4757H82.4403Z" fill="#050505"/>
<path d="M19.4892 0.828125C19.4892 0.828125 18.6135 0.892195 18.6124 1.71949L18.609 4.49471C18.609 4.49471 19.2941 3.55211 20.2581 3.55211H21.4058C21.4058 3.55211 22.3443 3.49456 22.3443 2.69194V1.70048C22.3443 1.70048 22.3442 0.828122 21.3853 0.828125H19.4892ZM44.0893 1.46702C43.0463 1.46702 43.0465 2.43412 43.0465 2.43412V4.63238H40.7382V6.10947C40.7382 6.10947 40.7381 7.05905 41.781 7.05905H43.0465V14.4273C43.1149 16.8426 45.5938 18.244 47.7139 18.244H50.5351C51.3045 18.244 51.4243 17.1528 51.4243 17.1528V15.7461C50.0223 16.0274 48.8766 15.7285 48.8766 15.7285C46.7052 15.0779 46.7736 13.3898 46.7736 13.3898V7.05905H54.1257V14.4273C54.1941 16.8426 56.6733 18.244 58.7934 18.244H61.6143C62.3837 18.244 62.5035 17.1528 62.5035 17.1528V15.7461C61.1015 16.0274 59.9561 15.7285 59.9561 15.7285C57.7847 15.0779 57.8531 13.3898 57.8531 13.3898V7.05905H61.428C62.4723 7.05905 62.4521 6.18818 62.4521 6.18818V4.63238H57.8531V2.53986C57.8531 1.52742 56.9639 1.46702 56.9639 1.46702H55.1685C54.1255 1.46702 54.1257 2.43412 54.1257 2.43412V4.63238H46.7736V2.53986C46.7736 1.52742 45.8847 1.46702 45.8847 1.46702H44.0893ZM81.988 1.46702C80.945 1.46702 80.9452 2.43412 80.9452 2.43412V14.4273C81.0135 16.8426 83.4925 18.244 85.6126 18.244H88.4338C89.2032 18.244 89.323 17.1528 89.323 17.1528V15.7461C87.921 16.0274 86.7753 15.7285 86.7753 15.7285C84.6039 15.0779 84.6723 13.3898 84.6723 13.3898V2.53986C84.6723 1.52742 83.7834 1.46702 83.7834 1.46702H81.988ZM31.5416 4.53615C30.927 4.53767 28.3445 4.61673 26.3641 5.7872C25.0639 6.55569 24.2333 7.84089 24.1965 10.5298C24.1965 10.5298 24.2046 14.5152 24.7518 15.4648C24.7518 15.4648 25.3937 16.8197 26.8288 17.6375C27.449 17.9909 28.6959 18.244 29.6246 18.244H38.7377C38.7377 18.244 39.6269 18.1552 39.6269 17.0298V15.7989H30.5649C30.5649 15.7989 28.1372 15.7285 28.0859 12.8973C28.0834 12.7489 28.0829 12.6297 28.081 12.4928H38.3444C38.3444 12.4928 40.1398 12.3522 40.1398 9.96066C40.1398 9.96066 40.4304 7.49858 38.5668 5.96868C36.7031 4.43879 33.7123 4.5831 31.6771 4.53733C31.6771 4.53733 31.6294 4.53597 31.5416 4.53612L31.5416 4.53615ZM70.4906 4.53615C69.876 4.53752 67.2936 4.61673 65.3132 5.7872C64.0129 6.55569 63.1823 7.84089 63.1455 10.5298C63.1455 10.5298 63.1537 14.5152 63.7008 15.4648C63.7008 15.4648 64.3428 16.8197 65.7778 17.6375C66.398 17.9909 67.6449 18.244 68.5736 18.244H77.6867C77.6867 18.244 78.5759 18.1552 78.5759 17.0298V15.7989H69.5139C69.5139 15.7989 67.0862 15.7285 67.0349 12.8973C67.0324 12.7489 67.0316 12.6297 67.0298 12.4928H77.2934C77.2934 12.4928 79.0888 12.3522 79.0888 9.96066C79.0888 9.96066 79.3794 7.49858 77.5158 5.96868C75.6521 4.43879 72.6613 4.5831 70.6261 4.53733C70.6261 4.53733 70.5784 4.53597 70.4906 4.53612L70.4906 4.53615ZM0.632812 4.6802L6.99344 17.3063C6.99344 17.3063 7.33273 18.375 9.21974 18.375H9.89811C9.89811 18.375 11.2975 18.4403 11.976 17.1973C12.6544 15.9543 18.3369 4.6802 18.3369 4.6802H15.4319C15.4319 4.6802 14.3296 4.85473 13.6299 6.33759C12.9302 7.82044 9.7075 14.8639 9.7075 14.8639C9.7075 14.8639 9.453 15.2564 9.26219 14.8639C9.07137 14.4714 5.06402 5.87958 5.06402 5.87958C5.06402 5.87958 4.34316 4.6802 3.53748 4.6802H0.632812ZM19.5241 4.6802C19.5241 4.6802 18.6124 4.68035 18.6124 5.74889V17.3283C18.6124 17.3283 18.6759 18.244 19.5876 18.244H21.623C21.623 18.244 22.3442 18.2006 22.3442 17.0666V5.6179C22.3442 5.6179 22.1955 4.6802 21.4746 4.6802H19.5241ZM32.1544 6.94975C33.2198 6.9502 34.7988 7.10978 35.643 7.95606C35.643 7.95606 36.2757 8.48345 36.2757 9.29236C36.2757 10.1189 35.7628 10.119 35.6089 10.119H29.881C29.881 10.119 28.9508 10.0361 28.0793 10.8886C28.0971 9.72356 28.1544 9.36275 28.1544 9.36275C28.1544 9.36275 28.1371 7.32271 31.0607 7.00618C31.0607 7.00618 31.5151 6.94944 32.1544 6.94975V6.94975ZM71.1034 6.94975C72.1689 6.9502 73.7478 7.10978 74.592 7.95606C74.592 7.95606 75.2248 8.48345 75.2248 9.29236C75.2248 10.1189 74.7118 10.119 74.558 10.119H68.8301C68.8301 10.119 67.8998 10.0361 67.0283 10.8886C67.0462 9.72356 67.1034 9.36275 67.1034 9.36275C67.1034 9.36275 67.086 7.32271 70.0098 7.00618C70.0098 7.00618 70.4642 6.94945 71.1034 6.94975V6.94975Z" fill="#EF0032"/>
</g>
<defs>
<clipPath id="clip0_1126_6452">
<rect width="90" height="32" fill="white" transform="translate(0 0.65625)"/>
</clipPath>
</defs>
</svg>
