<svg width="92" height="29" viewBox="0 0 92 29" fill="none" xmlns="http://www.w3.org/2000/svg">
<path fill-rule="evenodd" clip-rule="evenodd" d="M12.1172 27.4084L13.0116 23.113H13.54L12.9849 25.7741L14.5241 24.2968H15.2197L13.8987 25.4574L14.6974 27.4084H14.1205L13.5024 25.8118L12.8589 26.3708L12.6444 27.4084H12.1172ZM15.0973 27.4084H15.6245L15.902 26.0724C15.982 25.6876 16.0717 25.4051 16.1735 25.2248C16.268 25.0555 16.4026 24.9191 16.5735 24.8168C16.7456 24.7133 16.9285 24.6622 17.1237 24.6622C17.3951 24.6622 17.5321 24.7766 17.5321 25.008C17.5321 25.0823 17.5042 25.254 17.4473 25.5232L17.0558 27.4072H17.5818L17.9635 25.5695C18.0266 25.2711 18.0569 25.0689 18.0569 24.9654C18.0569 24.7279 17.9805 24.5428 17.8266 24.4125C17.6812 24.2871 17.4873 24.2249 17.2461 24.2249C16.8995 24.2249 16.5419 24.404 16.1747 24.7608L16.5165 23.1118H15.9893L15.0973 27.4084ZM18.5113 26.2271C18.5113 25.6206 18.6895 25.1164 19.0446 24.7182C19.3379 24.3906 19.7233 24.2262 20.1995 24.2262C20.5849 24.2262 20.8891 24.3467 21.1146 24.5891C21.3339 24.8266 21.4442 25.1383 21.4442 25.5268C21.4442 25.8739 21.3788 26.1955 21.2467 26.4914C21.0988 26.8178 20.8903 27.0638 20.6201 27.2294C20.351 27.3951 20.0699 27.4779 19.7766 27.4779C19.2542 27.4779 18.8846 27.2794 18.6689 26.8823C18.5647 26.6948 18.5113 26.4756 18.5113 26.2271ZM19.0385 26.1747C19.0385 26.4329 19.0979 26.6412 19.2142 26.7983C19.3464 26.9785 19.5354 27.0687 19.7826 27.0687C20.0238 27.0687 20.2383 26.9761 20.4274 26.791C20.608 26.6132 20.7425 26.3769 20.8322 26.0822C20.8928 25.8837 20.9231 25.6998 20.9231 25.5256C20.9231 25.276 20.8625 25.0689 20.7425 24.9082C20.6092 24.7279 20.4213 24.6378 20.1802 24.6378C19.8566 24.6378 19.5839 24.7925 19.3597 25.1042C19.1452 25.3978 19.0385 25.7546 19.0385 26.1747ZM19.4712 23.9193L20.2432 23.113H20.8261L21.1885 23.9193H20.728L20.4916 23.3944L20.0105 23.9193H19.4712ZM21.7387 27.4084L22.3859 24.2968H22.8634L22.7495 24.8387C23.1482 24.4295 23.5275 24.2262 23.8875 24.2262C24.1286 24.2262 24.3213 24.2907 24.4643 24.4198C24.617 24.555 24.6922 24.7413 24.6922 24.98C24.6922 25.1006 24.6667 25.2833 24.617 25.5256L24.2232 27.4097H23.6948L24.1068 25.4379C24.148 25.2431 24.1686 25.1006 24.1686 25.0141C24.1686 24.7815 24.0305 24.6646 23.7541 24.6646C23.1421 24.6646 22.7458 25.0982 22.5677 25.9628L22.2659 27.4097H21.7387V27.4084ZM25.0315 27.6898L25.5648 27.7397C25.5587 27.9504 25.6266 28.088 25.7659 28.1526C25.8617 28.1952 25.9853 28.2171 26.1356 28.2171C26.4555 28.2171 26.6858 28.1343 26.8227 27.9687C26.9149 27.8591 26.9985 27.6179 27.076 27.2428L27.1294 26.9907C26.8543 27.2696 26.5634 27.4097 26.2544 27.4097C25.8968 27.4097 25.6193 27.2733 25.4205 27.0029C25.2424 26.7605 25.1527 26.4524 25.1527 26.0798C25.1527 25.7607 25.2278 25.4562 25.3781 25.1627C25.5308 24.8582 25.7369 24.6207 25.9962 24.4502C26.2265 24.3017 26.4616 24.2274 26.7052 24.2274C27.1112 24.2274 27.4251 24.421 27.6444 24.8083L27.7474 24.298H28.231L27.6069 27.3013C27.5451 27.5972 27.4699 27.8298 27.3827 27.9955C27.2627 28.222 27.0942 28.3901 26.8785 28.5021C26.681 28.6032 26.4519 28.6543 26.1938 28.6543C25.6763 28.6543 25.3284 28.5289 25.1503 28.2768C25.0606 28.1514 25.0158 28.0101 25.0158 27.8493C25.0158 27.7994 25.0206 27.747 25.0315 27.6898ZM25.6896 26.031C25.6896 26.2466 25.7102 26.4061 25.7514 26.5109C25.8702 26.8202 26.0726 26.9737 26.361 26.9737C26.5707 26.9737 26.7622 26.8969 26.9355 26.7423C27.0845 26.6095 27.2045 26.4366 27.2942 26.2235C27.3996 25.9677 27.4517 25.7229 27.4517 25.4915C27.4517 25.2565 27.3887 25.0616 27.2627 24.9057C27.1257 24.7377 26.9452 24.6536 26.7173 24.6536C26.4495 24.6536 26.2131 24.7937 26.0083 25.0726C25.9223 25.1883 25.8496 25.3405 25.7853 25.5305C25.7223 25.7217 25.6896 25.8885 25.6896 26.031ZM30.0404 27.4084L30.6876 24.2968H31.1651L31.0512 24.8387C31.4499 24.4295 31.8292 24.2262 32.1892 24.2262C32.4303 24.2262 32.623 24.2907 32.7661 24.4198C32.9188 24.555 32.9939 24.7413 32.9939 24.98C32.9939 25.1006 32.9684 25.2833 32.9188 25.5256L32.5249 27.4097H31.9965L32.4085 25.4379C32.4497 25.2431 32.4703 25.1006 32.4703 25.0141C32.4703 24.7815 32.3322 24.6646 32.0559 24.6646C31.4438 24.6646 31.0475 25.0982 30.8694 25.9628L30.5676 27.4097H30.0404V27.4084ZM33.332 27.6898L33.8653 27.7397C33.8592 27.9504 33.9271 28.088 34.0665 28.1526C34.1622 28.1952 34.2858 28.2171 34.4361 28.2171C34.756 28.2171 34.9863 28.1343 35.1233 27.9687C35.2154 27.8591 35.299 27.6179 35.3766 27.2428L35.4299 26.9907C35.1548 27.2696 34.8651 27.4097 34.5549 27.4097C34.1973 27.4097 33.9198 27.2733 33.7211 27.0029C33.5429 26.7605 33.4532 26.4524 33.4532 26.0798C33.4532 25.7607 33.5284 25.4562 33.6786 25.1627C33.8313 24.8582 34.0374 24.6207 34.2967 24.4502C34.527 24.3017 34.7621 24.2274 35.0069 24.2274C35.4129 24.2274 35.7268 24.421 35.9462 24.8083L36.0492 24.298H36.5327L35.9086 27.3013C35.8468 27.5972 35.7716 27.8298 35.6844 27.9955C35.5644 28.222 35.3959 28.3901 35.1802 28.5021C34.9827 28.6032 34.7536 28.6543 34.4955 28.6543C33.978 28.6543 33.6302 28.5289 33.452 28.2768C33.3623 28.1514 33.3175 28.0101 33.3175 27.8493C33.3175 27.7994 33.3223 27.747 33.332 27.6898ZM33.9913 26.031C33.9913 26.2466 34.0119 26.4061 34.0531 26.5109C34.1719 26.8202 34.3743 26.9737 34.6627 26.9737C34.8724 26.9737 35.0639 26.8969 35.2372 26.7423C35.3862 26.6095 35.5062 26.4366 35.5959 26.2235C35.7013 25.9677 35.7535 25.7229 35.7535 25.4915C35.7535 25.2565 35.6904 25.0616 35.5644 24.9057C35.4275 24.7377 35.2469 24.6536 35.019 24.6536C34.7512 24.6536 34.5149 24.7937 34.3101 25.0726C34.224 25.1883 34.1513 25.3405 34.0871 25.5305C34.0228 25.7217 33.9913 25.8885 33.9913 26.031ZM38.7954 26.8458C38.4221 27.266 38.0416 27.4754 37.6562 27.4754C37.432 27.4754 37.2466 27.4145 37.0987 27.2915C36.9375 27.1624 36.8563 26.9871 36.8563 26.7666C36.8563 26.6351 36.889 26.4098 36.9557 26.0932L37.329 24.2968H37.8537L37.4393 26.2856C37.4041 26.4536 37.3859 26.5827 37.3859 26.6729C37.3859 26.9213 37.5277 27.0443 37.8089 27.0443C38.1167 27.0443 38.3821 26.9103 38.6076 26.6424C38.7057 26.5194 38.7881 26.3745 38.8524 26.2064C38.8996 26.0895 38.9493 25.9007 39.0002 25.6401L39.2814 24.2956H39.8122L39.754 24.5708C39.8461 24.5014 39.9104 24.376 39.9492 24.1957H39.725L39.8122 23.7829H40.2231L40.1479 24.1433C40.0752 24.4868 39.931 24.695 39.7128 24.7645L39.1614 27.4072H38.6742L38.7954 26.8458ZM38.4197 23.9156H38.8306L38.4936 23.1094H37.8513L38.4197 23.9156ZM40.0025 27.4084H40.5297L40.8314 25.9616C41.0096 25.0969 41.4059 24.6634 42.0179 24.6634C42.293 24.6634 42.4324 24.7791 42.4324 25.0129C42.4324 25.1006 42.4118 25.2419 42.3706 25.4367L41.9585 27.4084H42.4869L42.8808 25.5244C42.9317 25.2821 42.956 25.1006 42.956 24.9788C42.956 24.7413 42.8808 24.5538 42.7281 24.4186C42.5851 24.2895 42.3912 24.2249 42.1512 24.2249C41.7925 24.2249 41.4132 24.4295 41.0132 24.8375L41.1272 24.2956H40.6497L40.0025 27.4084ZM43.2953 27.6898L43.8286 27.7397C43.8225 27.9504 43.8904 28.088 44.0297 28.1526C44.1255 28.1952 44.2491 28.2171 44.3994 28.2171C44.7193 28.2171 44.9496 28.1343 45.0865 27.9687C45.1786 27.8591 45.2623 27.6179 45.3398 27.2428L45.3932 26.9907C45.118 27.2696 44.8284 27.4097 44.5181 27.4097C44.1606 27.4097 43.8831 27.2733 43.6843 27.0029C43.5062 26.7605 43.4165 26.4524 43.4165 26.0798C43.4165 25.7607 43.4916 25.4562 43.6419 25.1627C43.7946 24.8582 44.0006 24.6207 44.26 24.4502C44.4903 24.3017 44.7254 24.2274 44.969 24.2274C45.375 24.2274 45.6889 24.421 45.9082 24.8083L46.0112 24.298H46.4948L45.8707 27.3013C45.8088 27.5972 45.7337 27.8298 45.6465 27.9955C45.5265 28.222 45.358 28.3901 45.1423 28.5021C44.9447 28.6032 44.7157 28.6543 44.4575 28.6543C43.94 28.6543 43.5922 28.5289 43.4141 28.2768C43.3244 28.1514 43.2795 28.0101 43.2795 27.8493C43.2795 27.7994 43.2856 27.747 43.2953 27.6898ZM43.9534 26.031C43.9534 26.2466 43.974 26.4061 44.0152 26.5109C44.134 26.8202 44.3363 26.9737 44.6248 26.9737C44.8344 26.9737 45.0259 26.8969 45.1992 26.7423C45.3483 26.6095 45.4683 26.4366 45.558 26.2235C45.6634 25.9677 45.7155 25.7229 45.7155 25.4915C45.7155 25.2565 45.6525 25.0616 45.5265 24.9057C45.3895 24.7377 45.2089 24.6536 44.9811 24.6536C44.7133 24.6536 44.4769 24.7937 44.2721 25.0726C44.1861 25.1883 44.1133 25.3405 44.0491 25.5305C43.9861 25.7217 43.9534 25.8885 43.9534 26.031ZM49.0847 27.4084L48.5769 24.2968H49.092L49.3562 26.0103C49.3865 26.2003 49.4216 26.506 49.464 26.9286C49.567 26.7057 49.6955 26.4512 49.8506 26.1687L50.8868 24.298H51.4443L49.6713 27.4097H49.0847V27.4084ZM53.404 26.8458C53.0307 27.266 52.6502 27.4754 52.2648 27.4754C52.0406 27.4754 51.8552 27.4145 51.7073 27.2915C51.5461 27.1624 51.4649 26.9871 51.4649 26.7666C51.4649 26.6351 51.4976 26.4098 51.5643 26.0932L51.9376 24.2968H52.4623L52.0479 26.2856C52.0127 26.4536 51.9945 26.5827 51.9945 26.6729C51.9945 26.9213 52.1363 27.0443 52.4175 27.0443C52.7253 27.0443 52.9907 26.9103 53.2162 26.6424C53.3143 26.5194 53.3967 26.3745 53.461 26.2064C53.5082 26.0895 53.5579 25.9007 53.6088 25.6401L53.89 24.2956H54.4208L54.3626 24.5708C54.4548 24.5014 54.519 24.376 54.5578 24.1957H54.3336L54.4208 23.7829H54.8317L54.7565 24.1433C54.6838 24.4868 54.5396 24.695 54.3214 24.7645L53.77 27.4072H53.2828L53.404 26.8458ZM55.2292 26.1747C55.2292 26.4281 55.2873 26.6363 55.4049 26.7983C55.5394 26.9773 55.7285 27.0674 55.9733 27.0674C56.2108 27.0674 56.4254 26.9749 56.618 26.7898C56.7998 26.612 56.9356 26.3757 57.0228 26.081C57.0834 25.8861 57.1137 25.6998 57.1137 25.5244C57.1137 25.2723 57.0531 25.0665 56.9331 24.9069C56.801 24.7267 56.6132 24.6378 56.3708 24.6378C56.0484 24.6378 55.7745 24.7925 55.5516 25.103C55.3358 25.4014 55.2292 25.7595 55.2292 26.1747ZM57.1792 24.1969H57.4046C57.3755 24.3467 57.3246 24.46 57.2531 24.5343C57.0313 24.3297 56.7441 24.2262 56.389 24.2262C55.9139 24.2262 55.5285 24.3906 55.234 24.7194C54.8801 25.1189 54.7032 25.6231 54.7032 26.2271C54.7032 26.4731 54.7553 26.6923 54.8571 26.8835C55.0753 27.2781 55.4449 27.4742 55.966 27.4742C56.2642 27.4742 56.5478 27.3926 56.8107 27.2282C57.0774 27.0626 57.2858 26.8166 57.4349 26.4902C57.567 26.1991 57.6324 25.8776 57.6324 25.5256C57.6324 25.1688 57.5415 24.8777 57.3585 24.6524C57.4749 24.5416 57.5561 24.3711 57.6033 24.1421L57.6761 23.7816H57.2652L57.1792 24.1969ZM57.9318 27.4084L58.5789 24.2968H59.0564L58.9425 24.8387C59.3413 24.4295 59.7206 24.2262 60.0805 24.2262C60.3217 24.2262 60.5144 24.2907 60.6574 24.4198C60.8101 24.555 60.8853 24.7413 60.8853 24.98C60.8853 25.1006 60.8598 25.2833 60.8101 25.5256L60.4162 27.4097H59.8878L60.2999 25.4379C60.3411 25.2431 60.3617 25.1006 60.3617 25.0141C60.3617 24.7815 60.2235 24.6646 59.9472 24.6646C59.3352 24.6646 58.9389 25.0982 58.7607 25.9628L58.459 27.4097H57.9318V27.4084ZM62.7044 27.4084L64.0508 25.8289L63.2788 24.2968H63.8618L64.1247 24.8509C64.2169 25.0446 64.3029 25.2419 64.3865 25.4452L65.2797 24.2968H65.9233L64.6241 25.8703L65.4058 27.4084H64.8216L64.5126 26.7752C64.4447 26.6363 64.3696 26.4695 64.2871 26.2746L63.3661 27.4084H62.7044ZM67.9847 27.0212C67.6333 27.3256 67.2758 27.4779 66.9146 27.4779C66.6395 27.4779 66.4117 27.3975 66.2347 27.2379C66.0529 27.0723 65.9608 26.8507 65.9608 26.5754C65.9608 26.232 66.105 25.9689 66.3923 25.7899C66.5207 25.712 66.6795 25.6535 66.8698 25.617C66.9691 25.5975 67.2055 25.5804 67.5787 25.5634C67.8854 25.5488 68.112 25.511 68.2574 25.455C68.2986 25.3101 68.3192 25.1895 68.3192 25.0945C68.3192 24.8034 68.095 24.6585 67.649 24.6585C67.2152 24.6585 66.9316 24.8473 66.797 25.226L66.2638 25.1785C66.4892 24.5416 66.9594 24.2237 67.6745 24.2237C68.0562 24.2237 68.3592 24.3163 68.5846 24.499C68.7555 24.6378 68.8416 24.8156 68.8416 25.0324C68.8416 25.198 68.8173 25.3904 68.7689 25.6097L68.5968 26.383C68.5422 26.6278 68.5144 26.8275 68.5144 26.9846C68.5144 27.0833 68.5362 27.2221 68.5786 27.4072H68.0453C68.0162 27.3062 67.9956 27.1783 67.9847 27.0212ZM68.1799 25.8325C68.0538 25.8837 67.832 25.9227 67.5169 25.9494C67.2685 25.9701 67.1 25.9921 67.0128 26.014C66.8043 26.0615 66.6613 26.1406 66.5813 26.2551C66.5171 26.3465 66.4844 26.4488 66.4844 26.5596C66.4844 26.7252 66.5438 26.8543 66.6601 26.9469C66.7668 27.0285 66.9049 27.0699 67.0746 27.0699C67.2576 27.0699 67.4285 27.0224 67.5884 26.9262C67.7472 26.8312 67.8732 26.7009 67.9641 26.5377C68.055 26.3733 68.1278 26.1382 68.1799 25.8325Z" fill="#00AEEF"/>
<path fill-rule="evenodd" clip-rule="evenodd" d="M8.1878 11.9586L5.11677 20.1768H3.06134L0 11.9586H2.05059L4.08784 17.5462L6.12631 11.9586H8.1878ZM11.2225 10.9612H9.17795V8.88109H11.2237V10.9612H11.2225ZM11.2225 20.1768H9.17795V11.9428H11.2237V20.1768H11.2225ZM27.5702 20.189H25.6323C25.5705 19.932 25.5075 19.7189 25.4384 19.4035C24.9548 19.932 24.1853 20.1951 23.1285 20.1951C22.3989 20.1951 21.7941 20.027 21.3239 19.6921C20.7713 19.2999 20.4949 18.73 20.4949 17.981C20.4949 16.9093 20.9131 16.17 21.7566 15.7681C22.1432 15.5806 22.9309 15.4125 24.121 15.2664C24.9609 15.1568 25.3839 14.9327 25.3839 14.5868C25.3839 14.2811 25.2554 14.0375 25.0033 13.8561C24.75 13.6746 24.4555 13.5821 24.1174 13.5821C23.7696 13.5821 23.4739 13.6758 23.2266 13.8646C22.9479 14.068 22.7891 14.3591 22.7516 14.7329H20.7616C20.8088 14.096 20.9591 13.5784 21.21 13.1875C21.4633 12.7953 21.8705 12.4909 22.434 12.2753C22.9576 12.078 23.5478 11.9793 24.2107 11.9793C26.4504 11.9988 27.5702 13.0669 27.5702 15.1836V20.189ZM25.3536 16.1956C25.1475 16.3637 24.7852 16.4964 24.264 16.5951C23.6726 16.7059 23.2909 16.8094 23.1139 16.9081C22.7516 17.0944 22.5673 17.4196 22.5673 17.8824C22.5673 18.4755 22.8788 18.769 23.4969 18.769C23.7817 18.769 24.075 18.7044 24.3828 18.5704C24.6858 18.4365 24.9161 18.2782 25.0736 18.0906C25.2796 17.8349 25.3851 17.4549 25.3851 16.9531C25.3851 16.8618 25.3778 16.7351 25.3681 16.5671C25.3596 16.399 25.3536 16.2735 25.3536 16.1956ZM36.8136 16.1652C36.8136 17.2673 36.5445 18.1819 36.004 18.9054C35.3799 19.7372 34.4879 20.1561 33.3305 20.1671H33.3147C32.2761 20.1671 31.4556 19.764 30.6994 18.9516V22.2521H28.6343V11.9903H30.6739C30.6739 11.9903 30.663 13.1863 30.6739 13.1972C30.6739 13.1972 31.7392 11.9988 33.1548 11.9988C33.8601 11.9988 34.5194 12.1925 35.1254 12.5773C35.7338 12.967 36.1664 13.4554 36.4258 14.0509C36.6851 14.6465 36.8136 15.3516 36.8136 16.1652ZM34.5267 16.1652C34.5267 14.588 33.8843 13.794 32.6058 13.794C31.3563 13.794 30.7321 14.6246 30.7321 16.2784C30.7321 16.9726 30.9297 17.5255 31.3211 17.9396C31.6823 18.3159 32.1137 18.5022 32.6239 18.5022C33.1402 18.5022 33.5741 18.3086 33.9207 17.925C34.3255 17.4938 34.5267 16.9068 34.5267 16.1652ZM44.9941 20.1963H42.8938V15.1397C42.8938 14.5965 42.8066 14.2129 42.6333 13.9864C42.4248 13.7233 42.06 13.5942 41.5389 13.5942C41.0287 13.5942 40.6287 13.7635 40.3512 14.1033C40.0713 14.4443 39.9295 14.8718 39.9295 15.3869V20.1951H37.8316V8.875H39.9295V13.1034C40.0894 12.7624 40.3839 12.486 40.8166 12.2838C41.2529 12.0743 41.7316 11.972 42.2552 11.972C43.0053 11.972 43.6319 12.1669 44.1349 12.5554C44.7081 12.9999 44.9953 13.6381 44.9953 14.4614V20.1963H44.9941ZM62.4011 20.1963H60.302V15.1397C60.302 14.5965 60.2147 14.2129 60.0402 13.9864C59.8318 13.7233 59.4682 13.5942 58.9459 13.5942C58.4356 13.5942 58.0381 13.7635 57.7582 14.1033C57.4794 14.4443 57.3376 14.8718 57.3376 15.3869V20.1951H55.2398V11.9574H57.3376V13.1034C57.4964 12.7624 57.7921 12.486 58.226 12.2838C58.6598 12.0743 59.1385 11.972 59.6633 11.972C60.4135 11.972 61.0376 12.1669 61.543 12.5554C62.1163 12.9999 62.4011 13.6381 62.4011 14.4614V20.1963ZM19.4091 20.1963H17.31V15.1397C17.31 14.5965 17.2227 14.2129 17.0482 13.9864C16.8398 13.7233 16.475 13.5942 15.9538 13.5942C15.4436 13.5942 15.0449 13.7635 14.7662 14.1033C14.4874 14.4443 14.3444 14.8718 14.3444 15.3869V20.1951H12.2466V11.9574H14.3444V13.1034C14.5044 12.7624 14.8001 12.486 15.2327 12.2838C15.6678 12.0743 16.1465 11.972 16.6713 11.972C17.4191 11.972 18.0456 12.1669 18.5498 12.5554C19.1243 12.9999 19.4103 13.6381 19.4103 14.4614V20.1963H19.4091ZM70.6349 16.6072H65.3885C65.4357 17.2478 65.6369 17.7435 65.9908 18.0943C66.295 18.3841 66.6658 18.5278 67.1021 18.5278C67.4245 18.5278 67.7178 18.4523 67.9735 18.2964C68.2304 18.1405 68.3989 17.9311 68.4753 17.6668H70.5307C70.3041 18.4608 69.8944 19.0734 69.3018 19.5094C68.7128 19.943 68.0123 20.1622 67.2003 20.1622C64.6565 20.1622 63.3864 18.7434 63.3864 15.9033C63.3864 14.7062 63.7087 13.7489 64.3499 13.0291C64.9946 12.313 65.8963 11.9526 67.0597 11.9526C69.4424 11.9526 70.6349 13.5078 70.6349 16.6072ZM68.5771 15.3053C68.5262 14.7804 68.3541 14.3664 68.0535 14.0619C67.7542 13.7623 67.4075 13.6089 67.0161 13.6089C66.6356 13.6089 66.3059 13.7526 66.032 14.0339C65.7254 14.3347 65.5351 14.7622 65.4588 15.3066H68.5771V15.3053Z" fill="#00AEEF"/>
<path fill-rule="evenodd" clip-rule="evenodd" d="M54.1912 16.0696C54.1912 17.3216 53.8276 18.3239 53.098 19.0777C52.3684 19.8328 51.3807 20.2079 50.1336 20.2079C48.866 20.2079 47.8637 19.8267 47.1317 19.0619C46.396 18.2995 46.0312 17.3021 46.0312 16.0696C46.0312 14.831 46.3936 13.8275 47.122 13.0651C47.8504 12.3003 48.855 11.9191 50.1336 11.9191C51.4122 11.9191 52.4133 12.3088 53.1441 13.0858C53.8421 13.8458 54.1912 14.8383 54.1912 16.0696ZM52.0485 16.0635C52.0485 14.4571 51.4086 13.6582 50.1288 13.6582C48.8405 13.6582 48.1933 14.4571 48.1933 16.0635C48.1933 17.6674 48.8393 18.47 50.1288 18.47C51.4086 18.47 52.0485 17.6674 52.0485 16.0635ZM91.2374 7.45682C90.8799 7.91352 90.417 8.27279 89.8861 8.49566C89.3529 8.71731 88.7797 8.69418 88.2161 8.71732C84.4931 8.8732 83.4496 11.0885 82.9212 14.0686C82.8303 14.5789 82.5988 15.0819 82.2849 15.4899C81.9347 15.9356 81.4547 16.2669 80.9154 16.4276C80.3083 16.6091 79.6599 16.5409 79.0382 16.6371C78.4552 16.7284 77.8468 16.9123 77.4505 17.3849C77.0288 17.8879 76.9767 18.7818 77.0979 19.4041C77.2336 20.0812 77.0845 20.812 76.6349 21.3856C76.3634 21.7375 76.012 21.9799 75.6339 22.1175C75.3987 22.2052 75.1454 22.2563 74.88 22.2563C73.6366 22.2563 72.6295 21.2041 72.6295 19.9059C72.6295 19.694 72.6573 19.4894 72.7083 19.2933C72.7858 18.9645 72.93 18.649 73.147 18.3726C73.3009 18.1753 73.4863 17.9999 73.6972 17.8647C74.4595 17.3715 75.4521 17.5846 76.1938 17.0402C76.6398 16.7102 76.9015 16.1171 77.0373 15.5337C77.1269 15.2731 77.1742 14.9747 77.1742 14.6374C77.1742 14.0089 77.0312 13.3099 76.8118 12.7265C75.9223 10.3736 73.1373 9.17036 70.8358 8.85859C70.1789 8.7709 69.5075 8.78917 68.8531 8.75142H68.8519C68.5828 8.75142 68.3199 8.7234 68.0678 8.66738C67.4703 8.5663 66.9031 8.36048 66.3892 7.91596C64.8174 6.5556 64.512 4.17223 65.6378 2.44164C65.6403 2.43921 65.6439 2.43555 65.6463 2.4319C65.6766 2.38562 65.7069 2.33934 65.7397 2.2955C65.759 2.26749 65.7796 2.23948 65.799 2.21268C65.8136 2.1932 65.8257 2.17371 65.8427 2.15544C65.8451 2.15301 65.8463 2.14814 65.8499 2.1457C66.5589 1.23595 67.6424 0.65625 68.8519 0.65625C69.1028 0.65625 69.3367 0.686696 69.5681 0.737847C70.1886 0.862069 70.7934 1.14705 71.317 1.59888C72.1883 2.3503 72.444 3.34408 72.787 4.40728C73.4366 6.42529 74.7661 8.80987 76.4846 10.0606C77.3984 10.7268 78.5049 11.0885 79.6308 11.0885C81.9444 11.0885 83.8847 9.74641 84.7476 7.61636C84.9487 7.12556 85.0942 6.61406 85.1863 6.09159C85.2869 5.53016 85.2469 4.9541 85.3693 4.39145C85.482 3.8702 85.6977 3.36844 86.0237 2.94828C86.6891 2.0982 87.6538 1.66099 88.6245 1.66099C88.6342 1.66099 88.6403 1.66099 88.65 1.66099C90.4351 1.66099 91.8943 3.08468 91.984 4.87616C92.064 5.77373 91.8216 6.7054 91.2374 7.45682Z" fill="#00AEEF"/>
</svg>
