<svg width="90" height="23" viewBox="0 0 90 23" fill="none" xmlns="http://www.w3.org/2000/svg">
<g clip-path="url(#clip0_1126_6462)">
<path fill-rule="evenodd" clip-rule="evenodd" d="M77.0684 9.74944V14.6994H75.3226V8.92524C75.3226 7.42191 73.762 6.83524 72.2189 6.83524H71.429C69.8859 6.83524 68.3429 7.42191 68.3429 8.92524V14.6994H66.5796V5.62524H68.3253V6.06365C68.5455 5.86278 68.8391 5.64278 69.1152 5.55191C69.7391 5.31278 70.6024 5.16611 71.962 5.16611C73.2115 5.16611 74.1115 5.23944 74.7179 5.40365C75.3785 5.56944 75.8923 5.86278 76.3152 6.32031C76.6088 6.66944 76.8115 7.05365 76.9216 7.53191C77.0125 7.93365 77.0684 8.61278 77.0684 9.74944ZM47.3492 5.12944H49.095C49.1125 4.21278 49.1492 3.31365 49.2418 2.91191C49.3327 2.50857 49.4987 2.17698 49.7748 1.90278C50.0684 1.55365 50.5088 1.27944 51.0593 1.11524C51.5748 0.968573 52.4748 0.839443 53.6684 0.820312H55.3024L53.7226 2.34278C53.6684 2.34278 53.0987 2.36031 53.0429 2.36031C50.729 2.36031 50.895 3.82857 50.895 5.12944H54.9721L53.3189 6.79857H50.8391L50.8583 14.6803H49.095V6.79857H47.3492V5.12944ZM45.5859 2.15944H47.3492V3.93698H45.5859V2.15944Z" fill="#FF2E17"/>
<path fill-rule="evenodd" clip-rule="evenodd" d="M32.0856 9.93135C32.0856 11.0122 31.958 11.8922 31.7011 12.5714C31.4426 13.2505 30.5793 14.808 26.3553 14.808C22.1122 14.808 21.2489 13.2505 20.992 12.5714C20.7351 11.8922 20.625 11.0122 20.625 9.93135C20.625 8.84889 20.7351 7.96889 20.992 7.30889C21.2489 6.61382 22.1122 5.05469 26.3553 5.05469C30.5793 5.05469 31.4426 6.61382 31.7011 7.30889C31.958 7.96889 32.0856 8.84889 32.0856 9.93135ZM29.8644 7.84136C29.6984 7.45715 29.4223 7.20049 28.9819 7.05222C28.5415 6.90715 27.7324 6.83382 26.3553 6.79715C24.959 6.83382 24.1692 6.90715 23.7112 7.05222C23.2692 7.20049 22.9947 7.45715 22.8287 7.84136C22.7011 8.15222 22.5543 8.88556 22.5543 9.93135C22.5543 10.9947 22.7011 11.7105 22.8287 12.0214C22.9947 12.4072 23.2692 12.6638 23.7112 12.8089C24.1692 12.9572 24.959 13.048 26.3553 13.0656C27.7324 13.048 28.5415 12.9572 28.9819 12.8089C29.4223 12.6638 29.6984 12.4072 29.8644 12.0214C29.992 11.7105 30.1388 10.9947 30.1388 9.93135C30.1388 8.88556 29.992 8.15222 29.8644 7.84136Z" fill="#005DB2"/>
<path fill-rule="evenodd" clip-rule="evenodd" d="M65.2943 9.93135C65.2943 11.0122 65.165 11.8922 64.9081 12.5714C64.6512 13.2505 63.7879 14.808 59.564 14.808C55.3384 14.808 54.4576 13.2505 54.2007 12.5714C53.9613 11.8922 53.832 11.0122 53.832 9.93135C53.832 8.84889 53.9613 7.96889 54.2007 7.30889C54.4576 6.61382 55.3384 5.05469 59.564 5.05469C63.7879 5.05469 64.6512 6.61382 64.9081 7.30889C65.165 7.96889 65.2943 8.84889 65.2943 9.93135ZM63.0714 7.84136C62.9246 7.45715 62.631 7.20049 62.1906 7.05222C61.7485 6.90715 60.9586 6.83382 59.564 6.79715C58.1677 6.83382 57.3778 6.90715 56.9182 7.05222C56.4778 7.20049 56.2017 7.45715 56.0374 7.84136C55.9081 8.15222 55.7613 8.88556 55.7613 9.93135C55.7613 10.9947 55.9081 11.7105 56.0374 12.0214C56.2017 12.4072 56.4778 12.6638 56.9182 12.8089C57.3778 12.9572 58.1677 13.048 59.564 13.0656C60.9586 13.048 61.7485 12.9572 62.1906 12.8089C62.631 12.6638 62.9246 12.4072 63.0714 12.0214C63.2182 11.7105 63.3475 10.9947 63.3475 9.93135C63.3475 8.88556 63.2182 8.15222 63.0714 7.84136Z" fill="#FF2E17"/>
<path fill-rule="evenodd" clip-rule="evenodd" d="M19.2124 7.51423C19.1023 7.03757 18.8997 6.65177 18.606 6.30423C18.1832 5.8451 17.6693 5.55336 16.9895 5.38757C16.3832 5.22177 15.4832 5.14844 14.2337 5.14844C12.8757 5.14844 11.9566 5.26003 11.3326 5.49757H11.3135C10.7997 5.6809 10.3768 6.0109 10.0656 6.48757C9.69699 5.99336 9.23901 5.66336 8.66933 5.4609C8.02625 5.26003 6.81348 5.14844 5.3071 5.14844C4.16933 5.14844 3.37944 5.22177 2.90231 5.38757C2.55284 5.53423 2.20337 5.75423 1.87306 6.0651V5.60757H0.128906V14.6818H1.87306V8.90757C1.87306 7.40423 3.41614 6.81757 4.97678 6.81757H5.74912C7.30976 6.81757 8.8704 7.40423 8.8704 8.90757V14.6818H10.6161V8.90757C10.6161 7.40423 12.1401 6.81757 13.7023 6.81757H14.4922C16.0528 6.81757 17.6135 7.40423 17.6135 8.90757V14.6818H19.3592V9.73177C19.3592 8.61423 19.3225 7.91757 19.2124 7.51423Z" fill="#005DB2"/>
<path fill-rule="evenodd" clip-rule="evenodd" d="M88.715 10.6089H80.1378C80.1745 11.3056 80.2846 11.7838 80.3947 12.0214C80.5416 12.4072 80.8352 12.6638 81.2772 12.8089C81.7176 12.9572 82.5075 13.048 83.9038 13.0656C85.2985 13.048 86.0884 12.9572 86.5479 12.8089C86.824 12.718 87.0442 12.5714 87.2086 12.3705H89.3213C89.3038 12.4422 89.2847 12.498 89.2671 12.5714C89.0086 13.2505 88.1277 14.808 83.9038 14.808C79.6783 14.808 78.815 13.2505 78.558 12.5714C78.3011 11.8922 78.1719 11.0122 78.1719 9.93135C78.1719 8.84889 78.3011 7.96889 78.558 7.30889C78.815 6.61382 79.6783 5.05469 83.9038 5.05469C88.1277 5.05469 89.0086 6.61382 89.2671 7.30889C89.5049 7.96889 89.6341 8.84889 89.6341 9.93135C89.6341 10.1705 89.6341 10.3889 89.615 10.5914H88.715V10.6089ZM80.3947 7.84136C80.3038 8.04382 80.2112 8.42802 80.157 8.96049H87.6506C87.5948 8.42802 87.5038 8.04382 87.4304 7.84136C87.2644 7.45715 86.9884 7.20049 86.5479 7.05222C86.0884 6.90715 85.2985 6.83382 83.9038 6.79715C82.5075 6.83382 81.7176 6.90715 81.2772 7.05222C80.8352 7.20049 80.5416 7.45715 80.3947 7.84136Z" fill="#FF2E17"/>
<path fill-rule="evenodd" clip-rule="evenodd" d="M45.5869 5.12944H47.3502V14.6803H45.5869V5.12944ZM44.3566 9.93277C44.3566 11.0136 44.2289 11.8936 43.9895 12.5728C43.7326 13.2519 42.8502 14.8094 38.6262 14.8094C37.0098 14.8094 35.8895 14.5894 35.0997 14.2594V14.6994H33.3555V0.820312H35.0997V5.60611C35.8895 5.27611 37.0098 5.05611 38.6262 5.05611C42.8502 5.05611 43.7326 6.61524 43.9895 7.31031C44.2289 7.97031 44.3566 8.85031 44.3566 9.93277ZM42.4289 9.93277C42.4289 8.88698 42.2805 8.15365 42.1528 7.84278C41.9869 7.45857 41.7124 7.20191 41.2704 7.05365C40.8124 6.90857 40.0225 6.83524 38.6262 6.79857C37.23 6.83524 36.697 6.90857 36.239 7.05365C35.797 7.20191 35.5225 7.45857 35.3566 7.84278C35.2465 8.08191 35.1364 8.59364 35.0997 9.30944V10.5561C35.1364 11.2703 35.2465 11.7852 35.3566 12.0228C35.5225 12.4086 35.797 12.6652 36.239 12.8103C36.697 12.9586 37.23 13.0494 38.6262 13.067C40.0225 13.0494 40.8124 12.9586 41.2704 12.8103C41.7124 12.6652 41.9869 12.4086 42.1528 12.0228C42.2805 11.7294 42.4289 10.9961 42.4289 9.93277ZM0.696991 19.4661L1.68954 18.2194H2.40603L1.32252 19.4661L2.35018 20.767H1.63369L0.696991 19.4661ZM0.679438 20.767H0.128906V18.2194H0.679438V20.767ZM5.4555 17.2119L4.97678 17.687H4.62891L4.99593 17.2119H5.4555ZM4.15018 17.7603L3.91242 18.017H3.52625L3.92997 17.5594H4.3704L4.79327 18.017H4.38954L4.15018 17.7603ZM5.06933 18.2194V18.677H4.35284C4.18688 18.677 4.07678 18.677 4.00337 18.6961C3.89327 18.7152 3.80231 18.7694 3.72891 18.8603C3.67306 18.9336 3.63635 19.0628 3.6188 19.2636H5.06933V19.7228H3.6188C3.63635 19.9619 3.70976 20.107 3.83901 20.1994C3.94912 20.2728 4.13263 20.3094 4.3704 20.3094H5.06933V20.767H4.35284C4.11348 20.767 3.92997 20.7494 3.80231 20.7128C3.59965 20.6761 3.45284 20.6028 3.32359 20.4736C3.10337 20.2361 2.99327 19.9061 2.99327 19.4836C2.99327 19.0086 3.14008 18.6594 3.43369 18.4219C3.59965 18.2928 3.83901 18.2194 4.13263 18.2194H5.06933ZM6.83263 18.677H6.00603V18.2194H8.24646V18.677H7.38316V20.767H6.83263V18.677ZM10.7997 18.897V20.767H10.2858V18.2194H10.9832L12.03 20.107V18.2194H12.5438V20.767H11.8656L10.7997 18.897Z" fill="#005DB2"/>
<path fill-rule="evenodd" clip-rule="evenodd" d="M15.9219 17.2109L15.4448 17.686H15.0953L15.4639 17.2109H15.9219ZM14.6182 17.7593L14.3788 18.016H13.9751L14.398 17.5585H14.8209L15.2613 18.016H14.8576L14.6182 17.7593ZM15.5916 18.5309C15.7943 18.7509 15.8852 19.0809 15.8852 19.5193C15.8852 20.3643 15.4815 20.7851 14.6374 20.7851C13.7741 20.7851 13.332 20.3451 13.332 19.5018C13.332 18.6218 13.7374 18.2009 14.6006 18.2009C15.0586 18.2009 15.3905 18.3093 15.5916 18.5309ZM14.0485 18.8785C13.9751 19.0076 13.9384 19.2085 13.9384 19.4827C13.9384 19.7585 13.9751 19.9609 14.0677 20.0885C14.1778 20.2718 14.3613 20.3451 14.6182 20.3451C15.0586 20.3451 15.2788 20.0693 15.2788 19.4827C15.2788 19.226 15.2421 19.0251 15.1512 18.8785C15.0411 18.7143 14.8576 18.6218 14.6182 18.6218C14.3421 18.6218 14.1586 18.7143 14.0485 18.8785ZM16.6017 18.2185H17.1538V20.766H16.6017V18.2185ZM20.3852 19.2451H21.6714V20.766H20.5145C20.1475 20.766 19.8905 20.6927 19.7054 20.5651C19.431 20.3451 19.3017 19.9976 19.3017 19.5018C19.3017 18.9885 19.431 18.6393 19.7054 18.4385C19.8905 18.2918 20.165 18.2185 20.532 18.2185H21.6714V18.676H20.6054C20.331 18.676 20.1475 18.7318 20.0549 18.8785C19.9639 18.9885 19.9081 19.1893 19.9081 19.4476C19.9081 19.7951 19.9639 20.0343 20.0916 20.1618C20.1842 20.2543 20.3677 20.3085 20.6246 20.3085H21.1209V19.7043H20.3852V19.2451ZM22.5347 18.2185H23.0852V20.766H22.5347V18.2185ZM25.7852 17.4851L25.2905 17.9427H24.9586L25.3081 17.4851H25.7852ZM23.7475 20.766L24.831 18.2185H25.4549L26.5384 20.766H25.8953L25.6384 20.1618H24.6475L24.4081 20.766H23.7475ZM25.1421 18.8243L24.7751 19.7218H25.5108L25.1421 18.8243ZM29.1475 18.676H28.3209V18.2185H30.5613V18.676H29.7171V20.766H29.1475V18.676ZM31.7916 19.7951V20.766H31.2411V18.2185H32.5081C32.8751 18.2185 33.132 18.2551 33.2788 18.3651C33.4815 18.4943 33.5741 18.676 33.5741 18.9327C33.5741 19.3185 33.4081 19.556 33.0778 19.6676C33.3714 19.7409 33.5374 19.9785 33.5549 20.3818C33.5549 20.5476 33.5916 20.6751 33.6108 20.766H33.0044C32.9852 20.7118 32.9677 20.6018 32.9485 20.3993C32.9118 20.1618 32.8576 19.9976 32.7475 19.9243C32.6549 19.8318 32.4714 19.7951 32.232 19.7951H31.7916ZM31.7916 19.3376H32.5639C32.8384 19.3376 32.9677 19.2451 32.9677 18.9885C32.9677 18.8243 32.8943 18.7318 32.765 18.6951C32.7283 18.676 32.6741 18.676 32.5639 18.676H31.7916V19.3376ZM34.8953 21.3527H34.5108V20.986H34.8953V21.3527ZM34.4182 18.2185H34.9687V20.766H34.4182V18.2185ZM39.2677 19.9976H38.3485V19.5385H39.2677V19.9976ZM43.2171 19.4651L44.2081 18.2185H44.9421L43.8586 19.4651L44.8879 20.766H44.1538L43.2171 19.4651ZM43.198 20.766H42.6475V18.2185H43.198V20.766ZM47.7171 18.2185V20.766H47.165V19.7043H46.1549V20.766H45.6044V18.2185H46.1549V19.2627H47.165V18.2185H47.7171ZM51.0586 17.9427V18.2918L50.8017 18.5851C50.9677 18.8243 51.0586 19.1527 51.0586 19.5193C51.0586 20.3643 50.6374 20.7851 49.8108 20.7851C48.9283 20.7851 48.4879 20.3451 48.4879 19.5018C48.4879 18.6218 48.8916 18.2009 49.7741 18.2009C50.1778 18.2009 50.4714 18.2918 50.6916 18.4751L50.8209 18.3285H50.765V17.9427H51.0586ZM49.2219 18.8785C49.131 19.0076 49.0943 19.2085 49.0943 19.4827C49.0943 19.7585 49.1485 19.9609 49.2219 20.0885C49.332 20.2718 49.5171 20.3451 49.7741 20.3451C50.232 20.3451 50.4538 20.0693 50.4538 19.4827C50.4538 19.226 50.398 19.0251 50.3246 18.8785C50.2145 18.7143 50.031 18.6218 49.7741 18.6218C49.5171 18.6218 49.332 18.7143 49.2219 18.8785ZM51.7751 18.2185H52.3272V20.766H51.7751V18.2185ZM54.6044 18.2185H55.7054C56.2017 18.2185 56.5512 18.3285 56.7538 18.566C56.8448 18.676 56.9007 18.8243 56.9549 19.0076C56.9916 19.1718 57.0108 19.3376 57.0108 19.5018C57.0108 19.7409 56.9741 19.9609 56.9007 20.1618C56.7906 20.4727 56.5879 20.6576 56.2576 20.7293C56.165 20.7485 55.964 20.766 55.7054 20.766H54.6044V18.2185ZM55.1549 18.676V20.3085H55.7054C55.964 20.3085 56.1283 20.2543 56.2209 20.1427C56.3485 19.9976 56.4044 19.776 56.4044 19.4827C56.4044 19.1527 56.331 18.9151 56.165 18.7876C56.0741 18.7143 55.9081 18.676 55.7054 18.676H55.1549ZM59.1411 21.3527H58.7374V20.986H59.1411V21.3527ZM57.5421 20.766L58.6081 18.2185H59.2512L60.3171 20.766H59.6741L59.4347 20.1618H58.4421L58.1852 20.766H57.5421ZM58.9384 17.7593L58.7007 18.016H58.2953L58.7182 17.5585H59.1586L59.5815 18.016H59.1778L58.9384 17.7593ZM58.9384 18.8243L58.5714 19.7218H59.3054L58.9384 18.8243ZM61.6943 19.6485L60.7384 18.2185H61.4007L61.9879 19.2085L62.6118 18.2185H63.2741L62.264 19.6676V20.766H61.6943V19.6485ZM65.8815 18.676H65.0549V18.2185H67.2953V18.676H66.432V20.766H65.8815V18.676ZM67.9576 18.2185H68.5273V20.766H67.9576V18.2185ZM71.0421 17.2109L71.3916 17.686H71.0613L70.565 17.2109H71.0421ZM70.5108 17.7593L70.2714 18.016H69.8852L70.3081 17.5585H70.731L71.1539 18.016H70.7677L70.5108 17.7593ZM71.4283 18.2185V18.676H70.7118C70.565 18.676 70.4374 18.676 70.3815 18.6951C70.2538 18.7143 70.1613 18.7685 70.0879 18.8593C70.032 18.9327 69.9953 19.0618 69.9778 19.2627H71.4283V19.7218H69.9778C69.9953 19.9609 70.0687 20.106 70.198 20.1985C70.3081 20.2718 70.4916 20.3085 70.7485 20.3085H71.4283V20.766H70.7118C70.4741 20.766 70.2906 20.7485 70.1613 20.7118C69.9778 20.6751 69.8118 20.6018 69.6842 20.4727C69.464 20.2351 69.3539 19.9051 69.3539 19.4827C69.3539 19.0076 69.5007 18.6585 69.7943 18.4209C69.9586 18.2918 70.198 18.2185 70.5108 18.2185H71.4283ZM73.4118 18.2185L74.0549 20.1985L74.7347 18.2185H75.5421V20.766H75.0283V18.8418L74.331 20.766H73.7613L73.1374 18.8418V20.766H72.6044V18.2185H73.4118ZM78.3539 18.896V20.766H77.8384V18.2185H78.5374L79.565 20.106V18.2185H80.098V20.766H79.4182L78.3539 18.896ZM80.7586 20.766L81.8421 18.2185H82.4677L83.5512 20.766H82.9081L82.6512 20.1618H81.6586L81.4209 20.766H80.7586ZM82.7246 17.5951C82.6879 17.8885 82.5044 18.0527 82.1549 18.0527C81.8054 18.0527 81.6219 17.8885 81.6044 17.5951H81.8054C81.8421 17.7418 81.9714 17.8343 82.1741 17.8343C82.3751 17.8343 82.4852 17.7418 82.5219 17.5951H82.7246ZM82.1549 18.8243L81.7879 19.7218H82.5219L82.1549 18.8243ZM84.7448 18.896V20.766H84.231V18.2185H84.9283L85.9576 20.106V18.2185H86.4906V20.766H85.8108L84.7448 18.896ZM88.364 19.2451H89.631V20.766H88.4741C88.1055 20.766 87.8485 20.6927 87.6842 20.5651C87.4081 20.3451 87.2613 19.9976 87.2613 19.5018C87.2613 18.9885 87.4081 18.6393 87.665 18.4385C87.8485 18.2918 88.1246 18.2185 88.4916 18.2185H89.631V18.676H88.565C88.3081 18.676 88.1246 18.7318 88.0145 18.8785C87.9219 18.9885 87.8677 19.1893 87.8677 19.4476C87.8677 19.7951 87.9411 20.0343 88.0687 20.1618C88.1613 20.2543 88.3273 20.3085 88.5842 20.3085H89.0788V19.7043H88.364V19.2451Z" fill="#005DB2"/>
</g>
<defs>
<clipPath id="clip0_1126_6462">
<rect width="90" height="22" fill="white" transform="translate(0 0.65625)"/>
</clipPath>
</defs>
</svg>
