<svg width="14" height="14" viewBox="0 0 14 14" fill="none" xmlns="http://www.w3.org/2000/svg">
<path d="M1.42806 4.63119C1.59215 4.46715 1.81467 4.375 2.04669 4.375C2.2787 4.375 2.50122 4.46715 2.66531 4.63119L6.99655 8.96244L11.3278 4.63119C11.4928 4.4718 11.7139 4.3836 11.9433 4.3856C12.1727 4.38759 12.3922 4.47961 12.5544 4.64185C12.7166 4.80408 12.8086 5.02354 12.8106 5.25296C12.8126 5.48238 12.7244 5.70341 12.565 5.86844L7.61518 10.8183C7.45109 10.9824 7.22857 11.0745 6.99655 11.0745C6.76454 11.0745 6.54202 10.9824 6.37793 10.8183L1.42806 5.86844C1.26403 5.70435 1.17188 5.48183 1.17188 5.24981C1.17188 5.01779 1.26403 4.79528 1.42806 4.63119Z" fill="#474747"/>
</svg>
