<svg width="26" height="26" viewBox="0 0 26 26" fill="none" xmlns="http://www.w3.org/2000/svg">
<path d="M4.82417 15.0659L12.3562 22.1414C12.6435 22.4113 12.7871 22.5463 12.9605 22.5609C12.9885 22.5633 13.0167 22.5633 13.0447 22.5609C13.2181 22.5463 13.3617 22.4113 13.649 22.1414L21.181 15.0659C23.3002 13.0752 23.5576 9.79918 21.7752 7.50194L21.4401 7.06998C19.3079 4.32183 15.028 4.78271 13.5298 7.92182C13.3182 8.36524 12.687 8.36524 12.4754 7.92182C10.9772 4.78271 6.6973 4.32183 4.56511 7.06998L4.22997 7.50194C2.44763 9.79918 2.70498 13.0752 4.82417 15.0659Z" stroke="#FF4343"/>
</svg>
