<svg width="20" height="20" viewBox="0 0 20 20" fill="none" xmlns="http://www.w3.org/2000/svg">
<path d="M9.99844 3.875C6.0151 3.875 2.77344 7.11667 2.77344 11.1C2.77344 15.0833 6.0151 18.3333 9.99844 18.3333C13.9818 18.3333 17.2234 15.0917 17.2234 11.1083C17.2234 7.125 13.9818 3.875 9.99844 3.875ZM10.6234 10.8333C10.6234 11.175 10.3401 11.4583 9.99844 11.4583C9.65677 11.4583 9.37344 11.175 9.37344 10.8333V6.66667C9.37344 6.325 9.65677 6.04167 9.99844 6.04167C10.3401 6.04167 10.6234 6.325 10.6234 6.66667V10.8333Z" fill="#666666"/>
<path d="M12.4089 2.87484H7.59219C7.25885 2.87484 6.99219 2.60817 6.99219 2.27484C6.99219 1.9415 7.25885 1.6665 7.59219 1.6665H12.4089C12.7422 1.6665 13.0089 1.93317 13.0089 2.2665C13.0089 2.59984 12.7422 2.87484 12.4089 2.87484Z" fill="#666666"/>
</svg>
