<svg width="26" height="26" viewBox="0 0 26 26" fill="none" xmlns="http://www.w3.org/2000/svg">
<path d="M4.82026 15.0698L12.3523 22.1453C12.6396 22.4152 12.7832 22.5502 12.9566 22.5648C12.9846 22.5672 13.0128 22.5672 13.0408 22.5648C13.2142 22.5502 13.3578 22.4152 13.6451 22.1453L21.1771 15.0698C23.2963 13.0791 23.5537 9.80309 21.7713 7.50584L21.4362 7.07389C19.304 4.32573 15.0241 4.78662 13.5259 7.92573C13.3143 8.36914 12.6831 8.36914 12.4715 7.92572C10.9733 4.78662 6.6934 4.32573 4.56121 7.07389L4.22607 7.50584C2.44372 9.80309 2.70107 13.0791 4.82026 15.0698Z" fill="white" stroke="white"/>
</svg>
