<svg width="40" height="40" viewBox="0 0 40 40" fill="none" xmlns="http://www.w3.org/2000/svg">
<rect width="40" height="40" rx="10" transform="matrix(-1 0 0 1 40 0)" fill="#FFECE3"/>
<path opacity="0.4" d="M31.3333 17.5867H27.48C24.32 17.5867 21.7467 15.0133 21.7467 11.8533V8C21.7467 7.26666 21.1467 6.66666 20.4133 6.66666H14.76C10.6533 6.66666 7.33334 9.33333 7.33334 14.0933V25.9067C7.33334 30.6667 10.6533 33.3333 14.76 33.3333H25.24C29.3467 33.3333 32.6667 30.6667 32.6667 25.9067V18.92C32.6667 18.1867 32.0667 17.5867 31.3333 17.5867Z" fill="#F26222"/>
<path d="M25.0667 6.94667C24.52 6.4 23.5733 6.77333 23.5733 7.53333V12.1867C23.5733 14.1333 25.2267 15.7467 27.24 15.7467C28.5067 15.76 30.2667 15.76 31.7733 15.76C32.5333 15.76 32.9333 14.8667 32.4 14.3333C30.48 12.4 27.04 8.92 25.0667 6.94667Z" fill="#F26222"/>
<path d="M22 22.3333H14C13.4533 22.3333 13 21.88 13 21.3333C13 20.7867 13.4533 20.3333 14 20.3333H22C22.5467 20.3333 23 20.7867 23 21.3333C23 21.88 22.5467 22.3333 22 22.3333Z" fill="#F26222"/>
<path d="M19.3333 27.6667H14C13.4533 27.6667 13 27.2133 13 26.6667C13 26.12 13.4533 25.6667 14 25.6667H19.3333C19.88 25.6667 20.3333 26.12 20.3333 26.6667C20.3333 27.2133 19.88 27.6667 19.3333 27.6667Z" fill="#F26222"/>
</svg>
