<svg width="40" height="40" viewBox="0 0 40 40" fill="none" xmlns="http://www.w3.org/2000/svg">
<rect width="40" height="40" rx="10" transform="matrix(-1 0 0 1 40 0)" fill="#D6FFD7"/>
<path opacity="0.4" d="M18.2292 6.47084C19.2067 5.63501 20.8075 5.63501 21.7992 6.47084L24.0375 8.39751C24.4625 8.76584 25.2558 9.06334 25.8225 9.06334H28.2308C29.7325 9.06334 30.965 10.2958 30.965 11.7975V14.2058C30.965 14.7583 31.2625 15.5658 31.6308 15.9908L33.5575 18.2292C34.3933 19.2067 34.3933 20.8075 33.5575 21.7992L31.6308 24.0375C31.2625 24.4625 30.965 25.2558 30.965 25.8225V28.2308C30.965 29.7325 29.7325 30.965 28.2308 30.965H25.8225C25.27 30.965 24.4625 31.2625 24.0375 31.6308L21.7992 33.5575C20.8217 34.3933 19.2208 34.3933 18.2292 33.5575L15.9908 31.6308C15.5658 31.2625 14.7725 30.965 14.2058 30.965H11.755C10.2533 30.965 9.02083 29.7325 9.02083 28.2308V25.8083C9.02083 25.2558 8.72333 24.4625 8.36917 24.0375L6.45667 21.785C5.635 20.8075 5.635 19.2208 6.45667 18.2433L8.36917 15.9908C8.72333 15.5658 9.02083 14.7725 9.02083 14.22V11.7833C9.02083 10.2817 10.2533 9.04917 11.755 9.04917H14.2058C14.7583 9.04917 15.5658 8.75167 15.9908 8.38334L18.2292 6.47084Z" fill="#00CA08"/>
<path d="M18.2858 24.4908C18.0025 24.4908 17.7333 24.3775 17.535 24.1792L14.1067 20.7508C13.6958 20.34 13.6958 19.66 14.1067 19.2492C14.5175 18.8383 15.1975 18.8383 15.6083 19.2492L18.2858 21.9267L24.3775 15.835C24.7883 15.4242 25.4683 15.4242 25.8792 15.835C26.29 16.2458 26.29 16.9258 25.8792 17.3367L19.0367 24.1792C18.8383 24.3775 18.5692 24.4908 18.2858 24.4908Z" fill="#00CA08"/>
</svg>
