<svg width="40" height="40" viewBox="0 0 40 40" fill="none" xmlns="http://www.w3.org/2000/svg">
<rect opacity="0.15" width="40" height="40" rx="10" transform="matrix(-1 0 0 1 40 0)" fill="#F26222"/>
<path opacity="0.4" d="M32 13.3333V26.6667C32 30.6667 30 33.3333 25.3333 33.3333H14.6667C10 33.3333 8 30.6667 8 26.6667V13.3333C8 9.33333 10 6.66666 14.6667 6.66666H25.3333C30 6.66666 32 9.33333 32 13.3333Z" fill="#F26222"/>
<path d="M24.6667 6.66666V17.1466C24.6667 17.7333 23.9733 18.0267 23.5466 17.64L20.4534 14.7867C20.2 14.5467 19.8 14.5467 19.5466 14.7867L16.4534 17.64C16.0267 18.04 15.3333 17.7333 15.3333 17.1466V6.66666H24.6667Z" fill="#F26222"/>
<path d="M27.3333 23.6667H21.6667C21.12 23.6667 20.6667 23.2133 20.6667 22.6667C20.6667 22.12 21.12 21.6667 21.6667 21.6667H27.3333C27.88 21.6667 28.3333 22.12 28.3333 22.6667C28.3333 23.2133 27.88 23.6667 27.3333 23.6667Z" fill="#F26222"/>
<path d="M27.3333 29H16C15.4533 29 15 28.5467 15 28C15 27.4533 15.4533 27 16 27H27.3333C27.88 27 28.3333 27.4533 28.3333 28C28.3333 28.5467 27.88 29 27.3333 29Z" fill="#F26222"/>
</svg>
