<svg width="60" height="60" viewBox="0 0 60 60" fill="none" xmlns="http://www.w3.org/2000/svg">
<path d="M0 10C0 4.47715 4.47715 0 10 0H50C55.5228 0 60 4.47715 60 10V50C60 55.5228 55.5228 60 50 60H10C4.47715 60 0 55.5228 0 50V10Z" fill="#F26222"/>
<path d="M18.3333 31.6667H38.1L32.05 38.9333C31.9099 39.1019 31.8044 39.2963 31.7395 39.5057C31.6746 39.715 31.6515 39.935 31.6716 40.1532C31.7123 40.5939 31.9263 41.0005 32.2667 41.2833C32.607 41.5662 33.0458 41.7024 33.4865 41.6617C33.9272 41.6211 34.3338 41.407 34.6167 41.0667L42.95 31.0667C43.0061 30.9871 43.0562 30.9036 43.1 30.8167C43.1 30.7333 43.1833 30.6833 43.2167 30.6C43.2922 30.4089 43.3317 30.2055 43.3333 30C43.3317 29.7945 43.2922 29.5911 43.2167 29.4C43.2167 29.3167 43.1333 29.2667 43.1 29.1833C43.0562 29.0964 43.0061 29.0129 42.95 28.9333L34.6167 18.9333C34.4599 18.7452 34.2637 18.5939 34.0419 18.4902C33.8201 18.3865 33.5782 18.3329 33.3333 18.3333C32.9439 18.3326 32.5665 18.4682 32.2667 18.7167C32.0979 18.8566 31.9584 19.0284 31.8561 19.2223C31.7539 19.4163 31.6909 19.6284 31.6708 19.8467C31.6506 20.065 31.6738 20.2851 31.7388 20.4945C31.8039 20.7038 31.9096 20.8983 32.05 21.0667L38.1 28.3333H18.3333C17.8913 28.3333 17.4674 28.5089 17.1548 28.8215C16.8423 29.1341 16.6667 29.558 16.6667 30C16.6667 30.442 16.8423 30.866 17.1548 31.1785C17.4674 31.4911 17.8913 31.6667 18.3333 31.6667Z" fill="white"/>
</svg>
