<svg width="24" height="24" viewBox="0 0 24 24" fill="none" xmlns="http://www.w3.org/2000/svg">
<path d="M8.38086 12L10.7909 14.42L15.6209 9.58" stroke="#474747" stroke-width="1.5" stroke-linecap="round" stroke-linejoin="round"/>
<path d="M10.7509 2.45C11.4409 1.86 12.5709 1.86 13.2709 2.45L14.8509 3.81C15.1509 4.07 15.7109 4.28 16.1109 4.28H17.8109C18.8709 4.28 19.7409 5.15 19.7409 6.21V7.91C19.7409 8.3 19.9509 8.87 20.2109 9.17L21.5709 10.75C22.1609 11.44 22.1609 12.57 21.5709 13.27L20.2109 14.85C19.9509 15.15 19.7409 15.71 19.7409 16.11V17.81C19.7409 18.87 18.8709 19.74 17.8109 19.74H16.1109C15.7209 19.74 15.1509 19.95 14.8509 20.21L13.2709 21.57C12.5809 22.16 11.4509 22.16 10.7509 21.57L9.17086 20.21C8.87086 19.95 8.31086 19.74 7.91086 19.74H6.18086C5.12086 19.74 4.25086 18.87 4.25086 17.81V16.1C4.25086 15.71 4.04086 15.15 3.79086 14.85L2.44086 13.26C1.86086 12.57 1.86086 11.45 2.44086 10.76L3.79086 9.17C4.04086 8.87 4.25086 8.31 4.25086 7.92V6.2C4.25086 5.14 5.12086 4.27 6.18086 4.27H7.91086C8.30086 4.27 8.87086 4.06 9.17086 3.8L10.7509 2.45Z" stroke="#474747" stroke-width="1.5" stroke-linecap="round" stroke-linejoin="round"/>
</svg>
