<svg width="24" height="24" viewBox="0 0 24 24" fill="none" xmlns="http://www.w3.org/2000/svg">
<path d="M21.2641 8.35524L15.645 2.73551C14.4331 1.52415 12.3904 1.85553 11.6241 3.38823L8.83782 8.96093C8.76062 9.11554 8.62592 9.23374 8.46259 9.29019L4.35608 10.7087C3.34135 11.0591 3.0438 12.3514 3.80327 13.1103L6.87918 16.1863L2 21.0661V22H2.9344L7.81358 17.1207L10.8895 20.1967C11.649 20.9562 12.9406 20.6586 13.291 19.6439L14.7101 15.5373C14.7664 15.374 14.8844 15.2393 15.0388 15.162L20.6119 12.3757C22.1446 11.6093 22.476 9.56661 21.2641 8.35524ZM14.7106 3.66993L20.3297 9.28966C20.4629 9.42288 20.5625 9.58583 20.6204 9.76509C20.6783 9.94436 20.6928 10.1348 20.6626 10.3208C20.6325 10.5067 20.5586 10.6829 20.4471 10.8347C20.3355 10.9865 20.1895 11.1096 20.021 11.1939L14.4479 13.9803C13.9845 14.2121 13.6303 14.6162 13.4612 15.106L12.0427 19.2126C12.0354 19.2339 12.0228 19.2529 12.0061 19.2679C11.9894 19.283 11.9692 19.2935 11.9473 19.2985C11.9253 19.3036 11.9025 19.3029 11.8809 19.2967C11.8594 19.2904 11.8397 19.2788 11.8239 19.2628L4.73767 12.1759C4.72184 12.16 4.71032 12.1404 4.70418 12.1188C4.69803 12.0973 4.69747 12.0745 4.70254 12.0527C4.70762 12.0309 4.71816 12.0107 4.73318 11.9941C4.7482 11.9774 4.7672 11.9649 4.7884 11.9576L8.8949 10.5391C9.3848 10.3699 9.78891 10.0154 10.0206 9.55181L12.8064 3.97911C12.8906 3.81052 13.0137 3.66436 13.1656 3.55269C13.3174 3.44102 13.4936 3.36704 13.6796 3.33684C13.8656 3.30665 14.0562 3.3211 14.2355 3.37901C14.4149 3.43692 14.5779 3.53664 14.7111 3.66993H14.7106Z" fill="#474747"/>
</svg>
