<svg width="30" height="30" viewBox="0 0 30 30" fill="none" xmlns="http://www.w3.org/2000/svg">
<rect width="30" height="30" rx="10" fill="#D0D0D0"/>
<path d="M19.5895 6.90456C19.8238 7.13897 19.9555 7.45685 19.9555 7.78831C19.9555 8.11976 19.8238 8.43765 19.5895 8.67205L13.402 14.8595L19.5895 21.047C19.8172 21.2828 19.9432 21.5985 19.9403 21.9263C19.9375 22.254 19.806 22.5676 19.5743 22.7993C19.3425 23.0311 19.029 23.1625 18.7012 23.1654C18.3735 23.1682 18.0578 23.0422 17.822 22.8145L10.7507 15.7433C10.5164 15.5089 10.3848 15.191 10.3848 14.8595C10.3848 14.5281 10.5164 14.2102 10.7507 13.9758L17.822 6.90456C18.0564 6.67022 18.3743 6.53857 18.7057 6.53857C19.0372 6.53857 19.3551 6.67022 19.5895 6.90456V6.90456Z" fill="white"/>
</svg>
