<svg width="40" height="40" viewBox="0 0 40 40" fill="none" xmlns="http://www.w3.org/2000/svg">
<rect width="40" height="40" rx="10" transform="matrix(-1 0 0 1 40 0)" fill="#FFECE3"/>
<path opacity="0.4" d="M24.64 8H14.0267C9.42666 8 6.66666 10.7467 6.66666 15.36V25.96C6.66666 30.5867 9.42666 33.3333 14.0267 33.3333H24.6267C29.24 33.3333 31.9867 30.5867 31.9867 25.9733V15.36C32 10.7467 29.24 8 24.64 8Z" fill="#F1C644"/>
<path d="M32.0267 7.97333C29.64 5.57333 27.3067 5.52 24.8533 7.97333L23.3467 9.46666C23.2133 9.6 23.1733 9.78666 23.2267 9.96C24.16 13.2267 26.7733 15.84 30.04 16.7733C30.08 16.7867 30.1467 16.7867 30.1867 16.7867C30.32 16.7867 30.4533 16.7333 30.5467 16.64L32.0267 15.1467C33.24 13.9333 33.84 12.7733 33.84 11.5867C33.84 10.3867 33.24 9.2 32.0267 7.97333Z" fill="#F1C644"/>
<path d="M27.8133 17.8933C27.4533 17.72 27.1067 17.5467 26.7867 17.3467C26.52 17.1867 26.2533 17.0133 26 16.8267C25.7867 16.6933 25.5467 16.4933 25.3067 16.2933C25.28 16.28 25.2 16.2133 25.0933 16.1067C24.68 15.7733 24.24 15.32 23.8267 14.8267C23.8 14.8 23.72 14.72 23.6533 14.6C23.52 14.4533 23.32 14.2 23.1467 13.92C23 13.7333 22.8267 13.4667 22.6667 13.1867C22.4667 12.8533 22.2933 12.52 22.1333 12.1733C21.96 11.8 21.8267 11.4533 21.7067 11.12L14.5333 18.2933C14.0667 18.76 13.6133 19.64 13.52 20.2933L12.9467 24.2667C12.8267 25.1067 13.0533 25.8933 13.5733 26.4133C14.0133 26.8533 14.6133 27.08 15.28 27.08C15.4267 27.08 15.5733 27.0667 15.72 27.0533L19.68 26.4933C20.3333 26.4 21.2133 25.96 21.68 25.48L28.8533 18.3067C28.52 18.2 28.1867 18.0533 27.8133 17.8933Z" fill="#F1C644"/>
</svg>
