<svg width="23" height="18" viewBox="0 0 23 18" fill="none" xmlns="http://www.w3.org/2000/svg">
<path d="M18.4403 3.5H18.4401C17.5381 3.4998 16.6776 3.12554 16.0466 2.46695C16.0466 2.46693 16.0466 2.46692 16.0466 2.4669L14.8564 1.22495L14.8563 1.2249C14.4093 0.758248 13.8075 0.50017 13.1847 0.5L18.4403 3.5ZM18.4403 3.5H20.125C20.7479 3.5 21.3497 3.75799 21.7969 4.22463C22.2448 4.692 22.5 5.33026 22.5 6V15C22.5 15.6697 22.2448 16.308 21.7969 16.7754C21.3497 17.242 20.7479 17.5 20.125 17.5H2.875C2.25214 17.5 1.65026 17.242 1.20306 16.7754C0.755169 16.308 0.5 15.6697 0.5 15V6C0.5 5.33026 0.755169 4.692 1.20306 4.22463C1.65026 3.75799 2.25214 3.5 2.875 3.5H4.55975H4.55986C5.4619 3.4998 6.32239 3.12554 6.95337 2.46695C6.95339 2.46693 6.9534 2.46692 6.95342 2.4669L8.14362 1.22495L8.14367 1.2249M18.4403 3.5L8.14367 1.2249M8.14367 1.2249C8.59074 0.758248 9.19248 0.50017 9.81525 0.5C9.81529 0.5 9.81532 0.5 9.81536 0.5M8.14367 1.2249L9.81536 0.5M9.81536 0.5H13.1846H9.81536Z" fill="#666666" stroke="white"/>
</svg>
