<svg width="26" height="26" viewBox="0 0 26 26" fill="none" xmlns="http://www.w3.org/2000/svg">
<path d="M22.1604 3.83961C20.9596 2.62691 19.531 1.66343 17.9567 1.00452C16.3824 0.345603 14.6934 0.00423967 12.9868 3.92422e-05C11.2802 -0.00416118 9.58953 0.328884 8.01201 0.980042C6.43449 1.6312 5.00117 2.58764 3.7944 3.7944C2.58764 5.00117 1.6312 6.43449 0.980042 8.01201C0.328884 9.58953 -0.00416118 11.2802 3.92422e-05 12.9868C0.00423967 14.6934 0.345603 16.3824 1.00452 17.9567C1.66343 19.531 2.62691 20.9596 3.83961 22.1604C5.04042 23.3731 6.46901 24.3366 8.04331 24.9955C9.61761 25.6544 11.3066 25.9958 13.0132 26C14.7198 26.0042 16.4105 25.6711 17.988 25.02C19.5655 24.3688 20.9988 23.4124 22.2056 22.2056C23.4124 20.9988 24.3688 19.5655 25.02 17.988C25.6711 16.4105 26.0042 14.7198 26 13.0132C25.9958 11.3066 25.6544 9.61761 24.9955 8.04331C24.3366 6.46901 23.3731 5.04042 22.1604 3.83961ZM1.89579 13C1.89538 12.0172 2.02568 11.0388 2.28328 10.0904C2.70779 11.0041 3.3243 11.7936 3.7436 12.7311C4.28551 13.9363 5.74062 13.6021 6.38316 14.6581C6.95341 15.5956 6.34442 16.7812 6.77123 17.7621C7.08123 18.474 7.81225 18.6296 8.31657 19.1501C8.83187 19.6752 8.82089 20.3947 8.89954 21.0795C8.9883 21.884 9.13226 22.6815 9.33041 23.4663C9.33041 23.4721 9.33041 23.4784 9.33503 23.4842C5.00728 21.9643 1.89579 17.839 1.89579 13ZM13 24.1042C12.3799 24.104 11.7608 24.0522 11.1493 23.9492C11.1557 23.7925 11.1586 23.6462 11.1742 23.5444C11.3147 22.6248 11.7751 21.7255 12.3962 21.0372C13.0098 20.3583 13.8507 19.8991 14.3689 19.1287C14.8767 18.3769 15.0288 17.3648 14.8195 16.4863C14.5112 15.1885 12.7478 14.7553 11.797 14.0514C11.2505 13.6466 10.7641 13.0208 10.0464 12.9699C9.71558 12.9468 9.43856 13.0179 9.11064 12.9335C8.8099 12.8554 8.57393 12.6935 8.25353 12.7357C7.65494 12.8144 7.27728 13.454 6.63417 13.3672C6.02401 13.2857 5.39535 12.5714 5.25655 11.9902C5.07842 11.243 5.66949 11.0007 6.30277 10.9342C6.56708 10.9064 6.86377 10.8763 7.11766 10.9735C7.45194 11.0972 7.60983 11.4246 7.90999 11.59C8.47272 11.8988 8.58666 11.4055 8.50048 10.9058C8.37151 10.1574 8.22114 9.85265 8.88855 9.33735C9.35123 8.98224 9.74681 8.72546 9.67279 8.08755C9.62883 7.71278 9.42352 7.54332 9.61495 7.17029C9.76012 6.88632 10.1586 6.63012 10.4183 6.46066C11.0886 6.02344 13.2898 6.05582 12.3904 4.83205C12.1261 4.47289 11.6386 3.83093 11.1759 3.74302C10.5976 3.63372 10.3408 4.27915 9.93767 4.56369C9.52126 4.85807 8.71042 5.19236 8.29344 4.7372C7.73244 4.12473 8.66531 3.92405 8.87178 3.49607C8.96721 3.29654 8.87178 3.01952 8.711 2.75868C8.91959 2.67077 9.13165 2.58923 9.34718 2.51404C9.48225 2.61381 9.64249 2.6739 9.80985 2.68755C10.1968 2.71299 10.5617 2.50363 10.8995 2.76736C11.2742 3.05653 11.5443 3.42204 12.0417 3.51227C12.5229 3.5996 13.0324 3.3191 13.1515 2.82635C13.2238 2.52677 13.1515 2.21041 13.0821 1.901C15.2451 1.91344 17.3568 2.56123 19.1547 3.76384C19.0391 3.71989 18.9008 3.7251 18.7302 3.80433C18.3792 3.96742 17.8818 4.38267 17.8407 4.79445C17.7939 5.26176 18.4833 5.32769 18.8106 5.32769C19.3022 5.32769 19.8002 5.10792 19.6417 4.53998C19.5729 4.29361 19.4792 4.0374 19.3282 3.88241C19.6911 4.13419 20.0387 4.40726 20.3693 4.70018C20.3641 4.70539 20.3589 4.71002 20.3536 4.7158C20.0205 5.06281 19.6336 5.33752 19.4057 5.75971C19.245 6.05698 19.0639 6.1981 18.7383 6.27502C18.559 6.31723 18.3543 6.33285 18.2039 6.45314C17.7852 6.7828 18.0235 7.57513 18.4202 7.81283C18.9217 8.11299 19.6654 7.97188 20.0437 7.54332C20.3392 7.20788 20.5133 6.62549 21.0448 6.62607C21.2788 6.62558 21.5035 6.7172 21.6705 6.88112C21.8903 7.10899 21.8469 7.32182 21.8938 7.60636C21.9765 8.11184 22.4224 7.8377 22.6936 7.58265C22.8913 7.93453 23.0697 8.29691 23.228 8.6682C22.9296 9.09791 22.6925 9.56637 21.9747 9.06553C21.545 8.76536 21.2807 8.32987 20.7411 8.19454C20.2698 8.07887 19.7869 8.19917 19.3213 8.27955C18.7921 8.37151 18.1646 8.412 17.7632 8.81279C17.3752 9.19912 17.1699 9.71616 16.7569 10.1042C15.9582 10.8561 15.6211 11.6767 16.1381 12.7397C16.6355 13.7617 17.6759 14.3163 18.7985 14.2434C19.9014 14.17 21.0471 13.5303 21.0153 15.1329C21.0037 15.7003 21.1223 16.093 21.2963 16.6199C21.4577 17.1057 21.4467 17.5764 21.4837 18.0779C21.5189 18.665 21.6107 19.2474 21.7579 19.8169C20.7212 21.1516 19.3933 22.2317 17.8754 22.9748C16.3576 23.7178 14.69 24.1041 13 24.1042Z" fill="#F26222"/>
</svg>
