<svg width="26" height="26" viewBox="0 0 26 26" fill="#red" xmlns="http://www.w3.org/2000/svg">
<path d="M4.82222 15.0659L12.3542 22.1414C12.6415 22.4113 12.7852 22.5463 12.9586 22.5609C12.9866 22.5633 13.0147 22.5633 13.0427 22.5609C13.2161 22.5463 13.3598 22.4113 13.6471 22.1414L21.1791 15.0659C23.2983 13.0752 23.5556 9.79918 21.7733 7.50194L21.4381 7.06998C19.306 4.32183 15.0261 4.78271 13.5279 7.92182C13.3162 8.36524 12.6851 8.36524 12.4734 7.92182C10.9752 4.78271 6.69535 4.32183 4.56316 7.06998L4.22802 7.50194C2.44568 9.79918 2.70302 13.0752 4.82222 15.0659Z" stroke="#FF4343" fill="#red"/>
</svg>
