<svg width="20" height="20" viewBox="0 0 20 20" fill="none" xmlns="http://www.w3.org/2000/svg">
<path d="M11.556 4.6575C11.5561 4.8619 11.5159 5.06432 11.4377 5.25319C11.3595 5.44205 11.2449 5.61368 11.1005 5.75826C10.956 5.90284 10.7844 6.01755 10.5956 6.09583C10.4068 6.17411 10.2044 6.21444 9.99999 6.2145C9.79559 6.21457 9.59318 6.17437 9.40431 6.09621C9.21544 6.01805 9.04382 5.90346 8.89923 5.75897C8.75465 5.61448 8.63995 5.44293 8.56167 5.25411C8.48338 5.06529 8.44306 4.8629 8.44299 4.6585C8.44286 4.24569 8.60672 3.84974 8.89853 3.55774C9.19033 3.26575 9.58618 3.10163 9.99899 3.1015C10.4118 3.10137 10.8078 3.26523 11.0998 3.55704C11.3917 3.84884 11.5559 4.24469 11.556 4.6575Z" fill="#474747"/>
<path d="M9.99997 11.5555C10.8593 11.5555 11.556 10.8588 11.556 9.99948C11.556 9.14013 10.8593 8.44348 9.99997 8.44348C9.14061 8.44348 8.44397 9.14013 8.44397 9.99948C8.44397 10.8588 9.14061 11.5555 9.99997 11.5555Z" fill="#474747"/>
<path d="M9.99997 16.8985C10.8593 16.8985 11.556 16.2019 11.556 15.3425C11.556 14.4831 10.8593 13.7865 9.99997 13.7865C9.14061 13.7865 8.44397 14.4831 8.44397 15.3425C8.44397 16.2019 9.14061 16.8985 9.99997 16.8985Z" fill="#474747"/>
</svg>
