<svg width="20" height="20" viewBox="0 0 20 20" fill="none" xmlns="http://www.w3.org/2000/svg">
<path d="M4.63376 10.0049L7.98626 6.65238C8.09699 6.54215 8.16241 6.39443 8.16964 6.23835C8.17686 6.08227 8.12536 5.92915 8.02529 5.80915C7.92522 5.68916 7.78383 5.611 7.62899 5.59008C7.47415 5.56916 7.31709 5.607 7.18876 5.69613L7.10251 5.76738L2.64501 10.2299L2.58251 10.3174L2.54876 10.3874L2.52001 10.4724L2.51376 10.4974C2.50436 10.5413 2.49975 10.5862 2.50001 10.6311L2.50626 10.5386L2.50251 10.5774V10.6836L2.52126 10.7911L2.54626 10.8699L2.59626 10.9649L2.66501 11.0524L7.10251 15.4924C7.21275 15.6031 7.36046 15.6685 7.51654 15.6758C7.67262 15.683 7.82574 15.6315 7.94574 15.5314C8.06573 15.4313 8.14389 15.29 8.16481 15.1351C8.18573 14.9803 8.1479 14.8232 8.05876 14.6949L7.98626 14.6074L4.63376 11.2574L10 11.2536C14.4025 11.2536 17.3563 8.78363 17.495 5.26238L17.5 5.00488C17.5 4.83912 17.4342 4.68015 17.317 4.56294C17.1997 4.44573 17.0408 4.37988 16.875 4.37988C16.7093 4.37988 16.5503 4.44573 16.4331 4.56294C16.3159 4.68015 16.25 4.83912 16.25 5.00488C16.25 7.84613 13.9913 9.88488 10.3275 9.99863L10 10.0049H4.63376L7.98626 6.65238L4.63376 10.0049Z" fill="#4C5BD4"/>
</svg>
