<svg width="40" height="40" viewBox="0 0 40 40" fill="none" xmlns="http://www.w3.org/2000/svg">
<rect width="40" height="40" rx="10" transform="matrix(-1 0 0 1 40 0)" fill="#E4E4E4"/>
<path opacity="0.4" d="M20 6.66666C16.5067 6.66666 13.6667 9.50666 13.6667 13C13.6667 16.4267 16.3467 19.2 19.84 19.32C19.9467 19.3067 20.0533 19.3067 20.1333 19.32C20.16 19.32 20.1733 19.32 20.2 19.32C20.2133 19.32 20.2133 19.32 20.2267 19.32C23.64 19.2 26.32 16.4267 26.3333 13C26.3333 9.50666 23.4933 6.66666 20 6.66666Z" fill="#474747"/>
<path d="M26.7733 22.8667C23.0533 20.3867 16.9867 20.3867 13.24 22.8667C11.5467 24 10.6133 25.5333 10.6133 27.1733C10.6133 28.8133 11.5467 30.3333 13.2267 31.4533C15.0933 32.7067 17.5467 33.3333 20 33.3333C22.4533 33.3333 24.9067 32.7067 26.7733 31.4533C28.4533 30.32 29.3867 28.8 29.3867 27.1467C29.3733 25.5067 28.4533 23.9867 26.7733 22.8667Z" fill="#474747"/>
</svg>
