<svg width="24" height="24" viewBox="0 0 24 24" fill="none" xmlns="http://www.w3.org/2000/svg">
<path d="M8 5.75C7.59 5.75 7.25 5.41 7.25 5V2C7.25 1.59 7.59 1.25 8 1.25C8.41 1.25 8.75 1.59 8.75 2V5C8.75 5.41 8.41 5.75 8 5.75Z" fill="#474747"/>
<path d="M16 5.75C15.59 5.75 15.25 5.41 15.25 5V2C15.25 1.59 15.59 1.25 16 1.25C16.41 1.25 16.75 1.59 16.75 2V5C16.75 5.41 16.41 5.75 16 5.75Z" fill="#474747"/>
<path d="M8.5 14.5023C8.37 14.5023 8.24 14.4723 8.12 14.4223C7.99 14.3723 7.89 14.3023 7.79 14.2123C7.61 14.0223 7.5 13.7723 7.5 13.5023C7.5 13.3723 7.53 13.2423 7.58 13.1223C7.63 13.0023 7.7 12.8923 7.79 12.7923C7.89 12.7023 7.99 12.6323 8.12 12.5823C8.48 12.4323 8.93 12.5123 9.21 12.7923C9.39 12.9823 9.5 13.2423 9.5 13.5023C9.5 13.5623 9.49 13.6323 9.48 13.7023C9.47 13.7623 9.45 13.8223 9.42 13.8823C9.4 13.9423 9.37 14.0023 9.33 14.0623C9.3 14.1123 9.25 14.1623 9.21 14.2123C9.02 14.3923 8.76 14.5023 8.5 14.5023Z" fill="#474747"/>
<path d="M12 14.4989C11.87 14.4989 11.74 14.4689 11.62 14.4189C11.49 14.3689 11.39 14.2989 11.29 14.2089C11.11 14.0189 11 13.7689 11 13.4989C11 13.3689 11.03 13.2389 11.08 13.1189C11.13 12.9989 11.2 12.8889 11.29 12.7889C11.39 12.6989 11.49 12.6289 11.62 12.5789C11.98 12.4189 12.43 12.5089 12.71 12.7889C12.89 12.9789 13 13.2389 13 13.4989C13 13.5589 12.99 13.6289 12.98 13.6989C12.97 13.7589 12.95 13.8189 12.92 13.8789C12.9 13.9389 12.87 13.9989 12.83 14.0589C12.8 14.1089 12.75 14.1589 12.71 14.2089C12.52 14.3889 12.26 14.4989 12 14.4989Z" fill="#474747"/>
<path d="M15.5 14.4989C15.37 14.4989 15.24 14.4689 15.12 14.4189C14.99 14.3689 14.89 14.2989 14.79 14.2089C14.75 14.1589 14.71 14.1089 14.67 14.0589C14.63 13.9989 14.6 13.9389 14.58 13.8789C14.55 13.8189 14.53 13.7589 14.52 13.6989C14.51 13.6289 14.5 13.5589 14.5 13.4989C14.5 13.2389 14.61 12.9789 14.79 12.7889C14.89 12.6989 14.99 12.6289 15.12 12.5789C15.49 12.4189 15.93 12.5089 16.21 12.7889C16.39 12.9789 16.5 13.2389 16.5 13.4989C16.5 13.5589 16.49 13.6289 16.48 13.6989C16.47 13.7589 16.45 13.8189 16.42 13.8789C16.4 13.9389 16.37 13.9989 16.33 14.0589C16.3 14.1089 16.25 14.1589 16.21 14.2089C16.02 14.3889 15.76 14.4989 15.5 14.4989Z" fill="#474747"/>
<path d="M8.5 18.0031C8.37 18.0031 8.24 17.9731 8.12 17.9231C8 17.8731 7.89 17.8031 7.79 17.7131C7.61 17.5231 7.5 17.2631 7.5 17.0031C7.5 16.8731 7.53 16.7431 7.58 16.6231C7.63 16.4931 7.7 16.3831 7.79 16.2931C8.16 15.9231 8.84 15.9231 9.21 16.2931C9.39 16.4831 9.5 16.7431 9.5 17.0031C9.5 17.2631 9.39 17.5231 9.21 17.7131C9.02 17.8931 8.76 18.0031 8.5 18.0031Z" fill="#474747"/>
<path d="M12 18.0031C11.74 18.0031 11.48 17.8931 11.29 17.7131C11.11 17.5231 11 17.2631 11 17.0031C11 16.8731 11.03 16.7431 11.08 16.6231C11.13 16.4931 11.2 16.3831 11.29 16.2931C11.66 15.9231 12.34 15.9231 12.71 16.2931C12.8 16.3831 12.87 16.4931 12.92 16.6231C12.97 16.7431 13 16.8731 13 17.0031C13 17.2631 12.89 17.5231 12.71 17.7131C12.52 17.8931 12.26 18.0031 12 18.0031Z" fill="#474747"/>
<path d="M15.5 18.0009C15.24 18.0009 14.98 17.8909 14.79 17.7109C14.7 17.6209 14.63 17.5109 14.58 17.3809C14.53 17.2609 14.5 17.1309 14.5 17.0009C14.5 16.8709 14.53 16.7409 14.58 16.6209C14.63 16.4909 14.7 16.3809 14.79 16.2909C15.02 16.0609 15.37 15.9509 15.69 16.0209C15.76 16.0309 15.82 16.0509 15.88 16.0809C15.94 16.1009 16 16.1309 16.06 16.1709C16.11 16.2009 16.16 16.2509 16.21 16.2909C16.39 16.4809 16.5 16.7409 16.5 17.0009C16.5 17.2609 16.39 17.5209 16.21 17.7109C16.02 17.8909 15.76 18.0009 15.5 18.0009Z" fill="#474747"/>
<path d="M20.5 9.84375H3.5C3.09 9.84375 2.75 9.50375 2.75 9.09375C2.75 8.68375 3.09 8.34375 3.5 8.34375H20.5C20.91 8.34375 21.25 8.68375 21.25 9.09375C21.25 9.50375 20.91 9.84375 20.5 9.84375Z" fill="#474747"/>
<path d="M16 22.75H8C4.35 22.75 2.25 20.65 2.25 17V8.5C2.25 4.85 4.35 2.75 8 2.75H16C19.65 2.75 21.75 4.85 21.75 8.5V17C21.75 20.65 19.65 22.75 16 22.75ZM8 4.25C5.14 4.25 3.75 5.64 3.75 8.5V17C3.75 19.86 5.14 21.25 8 21.25H16C18.86 21.25 20.25 19.86 20.25 17V8.5C20.25 5.64 18.86 4.25 16 4.25H8Z" fill="#474747"/>
</svg>
