<svg width="20" height="20" viewBox="0 0 20 20" fill="none" xmlns="http://www.w3.org/2000/svg">
<path d="M4.16927 10.8337H14.0526L11.0276 14.467C10.9576 14.5513 10.9048 14.6485 10.8723 14.7531C10.8399 14.8578 10.8284 14.9678 10.8384 15.0769C10.8587 15.2973 10.9658 15.5005 11.1359 15.642C11.3061 15.7834 11.5255 15.8515 11.7459 15.8312C11.9662 15.8109 12.1695 15.7038 12.3109 15.5337L16.4776 10.5337C16.5056 10.4939 16.5307 10.4521 16.5526 10.4087C16.5526 10.367 16.5943 10.342 16.6109 10.3003C16.6487 10.2048 16.6685 10.1031 16.6693 10.0003C16.6685 9.89759 16.6487 9.79588 16.6109 9.70033C16.6109 9.65866 16.5693 9.63366 16.5526 9.59199C16.5307 9.54854 16.5056 9.50676 16.4776 9.46699L12.3109 4.46699C12.2326 4.37292 12.1345 4.29727 12.0236 4.24542C11.9127 4.19357 11.7917 4.16679 11.6693 4.16699C11.4746 4.16661 11.2859 4.23443 11.1359 4.35866C11.0516 4.42862 10.9818 4.51454 10.9307 4.61149C10.8795 4.70845 10.8481 4.81454 10.838 4.92368C10.8279 5.03283 10.8395 5.14289 10.872 5.24756C10.9046 5.35223 10.9574 5.44945 11.0276 5.53366L14.0526 9.16699H4.16927C3.94826 9.16699 3.7363 9.25479 3.58002 9.41107C3.42374 9.56735 3.33594 9.77931 3.33594 10.0003C3.33594 10.2213 3.42374 10.4333 3.58002 10.5896C3.7363 10.7459 3.94826 10.8337 4.16927 10.8337Z" fill="white"/>
</svg>
