<svg width="24" height="24" viewBox="0 0 24 24" fill="none" xmlns="http://www.w3.org/2000/svg">
<path d="M20.998 6.25C20.998 5.38805 20.6556 4.5614 20.0461 3.9519C19.4366 3.34241 18.61 3 17.748 3H6.25C5.38805 3 4.5614 3.34241 3.9519 3.9519C3.34241 4.5614 3 5.38805 3 6.25V17.749C3 18.611 3.34241 19.4376 3.9519 20.0471C4.5614 20.6566 5.38805 20.999 6.25 20.999H11.164L11.52 19.575L11.54 19.499H6.25C5.78587 19.499 5.34075 19.3146 5.01256 18.9864C4.68437 18.6582 4.5 18.2131 4.5 17.749V8.499H19.498V11.232C19.9741 11.0433 20.4877 10.9679 20.998 11.012V6.25ZM6.25 4.5H17.749C18.715 4.5 19.499 5.283 19.499 6.25V7H4.499V6.25C4.499 5.283 5.283 4.5 6.249 4.5H6.25ZM19.098 12.669L13.197 18.57C12.8525 18.9142 12.6081 19.3456 12.49 19.818L12.033 21.648C11.833 22.445 12.555 23.166 13.351 22.967L15.181 22.509C15.6533 22.3911 16.0847 22.1471 16.429 21.803L22.33 15.9C22.7476 15.469 22.979 14.8911 22.9743 14.291C22.9695 13.6909 22.7289 13.1168 22.3045 12.6925C21.8801 12.2682 21.3059 12.0278 20.7058 12.0232C20.1057 12.0187 19.5278 12.2502 19.097 12.668L19.098 12.669Z" fill="#F26222"/>
</svg>
