<svg width="20" height="20" viewBox="0 0 20 20" fill="none" xmlns="http://www.w3.org/2000/svg">
<path opacity="0.15" d="M10.0002 1.11108C8.24217 1.11108 6.52359 1.63241 5.06182 2.60913C3.60005 3.58586 2.46074 4.97411 1.78796 6.59834C1.11518 8.22257 0.93915 10.0098 1.28213 11.7341C1.62511 13.4584 2.47169 15.0422 3.71483 16.2854C4.95796 17.5285 6.54181 18.3751 8.26609 18.7181C9.99036 19.061 11.7776 18.885 13.4019 18.2122C15.0261 17.5395 16.4143 16.4001 17.3911 14.9384C18.3678 13.4766 18.8891 11.758 18.8891 9.99997C18.8891 7.64249 17.9526 5.38157 16.2856 3.71458C14.6186 2.04759 12.3577 1.11108 10.0002 1.11108ZM9.878 15.4722C9.6967 15.4722 9.51947 15.4184 9.36873 15.3177C9.21798 15.217 9.10049 15.0738 9.03111 14.9063C8.96173 14.7388 8.94358 14.5545 8.97895 14.3767C9.01432 14.1989 9.10162 14.0355 9.22982 13.9073C9.35802 13.7791 9.52135 13.6918 9.69917 13.6565C9.87698 13.6211 10.0613 13.6393 10.2288 13.7086C10.3963 13.778 10.5395 13.8955 10.6402 14.0463C10.7409 14.197 10.7947 14.3742 10.7947 14.5555C10.7947 14.7986 10.6981 15.0318 10.5262 15.2037C10.3543 15.3756 10.1211 15.4722 9.878 15.4722ZM10.6391 10.9944V11.95C10.6379 12.1443 10.5625 12.3308 10.4282 12.4713C10.2939 12.6118 10.111 12.6956 9.91689 12.7055H9.85578C9.75755 12.7092 9.65955 12.6935 9.56745 12.6591C9.47536 12.6247 9.39097 12.5725 9.31918 12.5053C9.24738 12.4382 9.1896 12.3575 9.14916 12.2679C9.10872 12.1783 9.08642 12.0816 9.08356 11.9833V10.45C9.0744 10.3609 9.08343 10.2709 9.1101 10.1854C9.13677 10.1 9.18052 10.0208 9.23871 9.95274C9.29689 9.88469 9.36829 9.82916 9.44858 9.78953C9.52887 9.7499 9.61637 9.72699 9.70578 9.7222C10.578 9.65553 12.028 9.33331 12.028 7.91664C12.028 6.89997 11.2447 6.21108 10.1224 6.21108C9.69703 6.21811 9.27816 6.31707 8.89458 6.50119C8.51101 6.68531 8.1718 6.95022 7.90022 7.27775C7.79751 7.38689 7.66466 7.46301 7.51857 7.49645C7.37248 7.52988 7.21975 7.51912 7.07979 7.46552C6.93983 7.41192 6.81898 7.3179 6.7326 7.19544C6.64621 7.07297 6.5982 6.92758 6.59467 6.77775C6.59794 6.56831 6.6838 6.36865 6.83356 6.2222C7.24613 5.74455 7.75842 5.3632 8.33435 5.10499C8.91027 4.84678 9.53581 4.71801 10.1669 4.72775C12.2224 4.72775 13.6558 6.00553 13.6558 7.83886C13.6558 9.53331 12.5613 10.6666 10.6391 10.9944Z" fill="#474747"/>
<path fill-rule="evenodd" clip-rule="evenodd" d="M9.3683 15.3178C9.51904 15.4185 9.69627 15.4723 9.87757 15.4723C10.1207 15.4723 10.3538 15.3757 10.5258 15.2038C10.6977 15.0319 10.7942 14.7987 10.7942 14.5556C10.7942 14.3743 10.7405 14.1971 10.6398 14.0463C10.539 13.8956 10.3959 13.7781 10.2284 13.7087C10.0609 13.6393 9.87655 13.6212 9.69874 13.6565C9.52092 13.6919 9.35759 13.7792 9.22939 13.9074C9.10119 14.0356 9.01389 14.1989 8.97852 14.3768C8.94315 14.5546 8.9613 14.7389 9.03068 14.9064C9.10006 15.0739 9.21755 15.217 9.3683 15.3178ZM10.6387 11.95V10.9945C12.5609 10.6667 13.6553 9.53336 13.6553 7.83892C13.6553 6.00559 12.222 4.72781 10.1665 4.72781C9.53538 4.71807 8.90984 4.84684 8.33392 5.10505C7.758 5.36325 7.2457 5.74461 6.83313 6.22225C6.68337 6.3687 6.59752 6.56837 6.59424 6.77781C6.59777 6.92764 6.64578 7.07303 6.73217 7.19549C6.81855 7.31796 6.93941 7.41197 7.07936 7.46557C7.21932 7.51917 7.37205 7.52994 7.51814 7.49651C7.66423 7.46307 7.79708 7.38695 7.89979 7.27781C8.17137 6.95028 8.51058 6.68536 8.89416 6.50125C9.27773 6.31713 9.6966 6.21817 10.122 6.21114C11.2442 6.21114 12.0276 6.90003 12.0276 7.9167C12.0276 9.33336 10.5776 9.65559 9.70535 9.72225C9.61594 9.72705 9.52844 9.74996 9.44815 9.78959C9.36786 9.82922 9.29646 9.88475 9.23828 9.9528C9.18009 10.0209 9.13634 10.1 9.10967 10.1855C9.083 10.271 9.07397 10.361 9.08313 10.45V11.9834C9.08599 12.0816 9.10829 12.1783 9.14873 12.2679C9.18917 12.3575 9.24696 12.4382 9.31875 12.5054C9.39055 12.5725 9.47493 12.6248 9.56703 12.6592C9.65913 12.6935 9.75712 12.7093 9.85535 12.7056H9.91646C10.1105 12.6957 10.2935 12.6119 10.4278 12.4714C10.5621 12.3309 10.6375 12.1444 10.6387 11.95Z" fill="#474747"/>
</svg>
