<svg width="26" height="26" viewBox="0 0 26 26" fill="none" xmlns="http://www.w3.org/2000/svg">
<path d="M4.82173 15.0672L12.3537 22.1427C12.641 22.4126 12.7847 22.5475 12.9581 22.5622C12.9861 22.5646 13.0142 22.5646 13.0422 22.5622C13.2157 22.5475 13.3593 22.4126 13.6466 22.1427L21.1786 15.0672C23.2978 13.0765 23.5551 9.80046 21.7728 7.50322L21.4377 7.07127C19.3055 4.32311 15.0256 4.784 13.5274 7.9231C13.3158 8.36652 12.6846 8.36652 12.4729 7.9231C10.9747 4.784 6.69486 4.32311 4.56267 7.07127L4.22753 7.50322C2.44519 9.80046 2.70254 13.0765 4.82173 15.0672Z" stroke="#FF4343"/>
</svg>
