<svg width="96" height="39" viewBox="0 0 96 39" fill="none" xmlns="http://www.w3.org/2000/svg">
<g clip-path="url(#clip0_23_11180)">
<path fill-rule="evenodd" clip-rule="evenodd" d="M76.3514 16.015C78.6369 15.8552 80.8551 15.8384 83.023 15.5106C85.0732 15.208 85.7538 13.6949 85.8714 12.1902C86.0227 10.2736 85.0984 8.89502 83.3507 8.36544C81.0568 7.66774 78.7041 8.23094 76.343 8.01238C76.3514 10.6771 76.3514 13.2157 76.3514 16.015ZM76.3514 31.3224C78.9646 31.1627 81.5273 31.1374 84.0481 30.818C86.0647 30.5658 87.3587 28.9855 87.4847 27.3127C87.7116 24.3285 86.4008 23.0424 84.4514 22.4036C81.8046 21.5377 79.0738 22.0673 76.343 21.8992C76.3514 25.0262 76.3514 28.044 76.3514 31.3224ZM89.2997 18.4611C89.871 18.7217 90.6189 19.0159 91.3247 19.3774C93.6942 20.6131 95.1898 22.5717 95.7444 25.1607C96.1982 27.2707 95.9881 29.3722 95.1814 31.4064C94.484 33.1549 93.3077 34.4747 91.728 35.4329C89.9887 36.4837 88.0729 37.1226 86.0479 37.2234C82.4096 37.4 78.7545 37.4756 75.1078 37.5513C73.276 37.5933 71.4359 37.5597 69.6041 37.5597C68.6378 37.5597 68.3438 37.2486 68.3438 36.2904C68.3438 25.1271 68.3438 13.9555 68.3438 2.79222C68.3438 1.73306 68.579 1.5061 69.6461 1.5061C73.8726 1.5061 78.0991 1.47247 82.3256 1.52291C84.9051 1.54813 87.4007 1.97684 89.7114 3.25456C92.0137 4.52387 93.3497 6.44886 93.8622 8.99589C94.4168 11.7447 93.8202 14.2245 91.9969 16.3176C91.2491 17.175 90.1903 17.7634 89.2997 18.4611Z" fill="#1D4797"/>
<path fill-rule="evenodd" clip-rule="evenodd" d="M17.6759 9.69357C16.2055 14.1908 14.7938 18.5031 13.3654 22.8659C16.2391 22.8659 19.0203 22.8659 21.894 22.8659C20.5075 18.5199 19.1211 14.2076 17.6759 9.69357ZM17.9784 1.50607C19.0959 1.50607 20.2135 1.48926 21.3226 1.51448C22.0788 1.53129 22.6166 1.79188 22.9107 2.60726C25.0617 8.59237 27.2548 14.5523 29.4394 20.529C31.3468 25.7407 33.2794 30.9525 35.1784 36.1726C35.5985 37.3243 35.3884 37.568 34.1617 37.568C32.061 37.568 29.9604 37.5512 27.8682 37.5765C26.9943 37.5849 26.507 37.1562 26.2381 36.3744C25.4986 34.1888 24.7424 32.0032 24.045 29.8009C23.9106 29.3806 23.7341 29.2629 23.3308 29.2629C19.5329 29.2713 15.7349 29.2797 11.937 29.2545C11.5 29.2545 11.3572 29.4478 11.2396 29.8093C10.5085 32.0285 9.7355 34.2308 9.02969 36.4669C8.77762 37.2654 8.24826 37.5428 7.51724 37.5512C5.4166 37.5765 3.31597 37.5681 1.22374 37.5512C0.307866 37.5428 0.0809974 37.2318 0.400293 36.3744C1.95476 32.1882 3.53444 28.0188 5.09731 23.8326C6.34928 20.4785 7.59286 17.1245 8.83643 13.7621C10.1892 10.1139 11.5252 6.45724 12.8865 2.80901C13.2814 1.75825 13.7267 1.48926 14.8526 1.48926C15.9114 1.50607 16.9449 1.50607 17.9784 1.50607Z" fill="#1D4797"/>
<path fill-rule="evenodd" clip-rule="evenodd" d="M42.3545 19.5619C42.4469 24.5383 45.4214 28.7665 49.9756 30.2628C53.8576 31.5405 57.311 30.5822 60.3443 27.9343C60.9745 27.3795 61.3946 27.3459 61.9828 27.9259C63.176 29.0944 64.3607 30.2796 65.5371 31.4817C66.1589 32.1121 66.1421 32.7006 65.4951 33.3142C62.697 35.9621 59.4116 37.5929 55.5801 38.2318C52.698 38.7109 49.8832 38.5092 47.1355 37.6854C44.5728 36.9204 42.2789 35.6007 40.2455 33.8018C36.9097 30.8512 34.809 27.1862 34.1116 22.8403C33.2125 17.2418 34.3973 12.0133 38.0272 7.56646C40.8252 4.1452 44.4047 1.81672 48.8413 1.02655C50.1016 0.807991 51.3788 0.530591 52.6392 0.572622C57.0253 0.715525 61.0501 1.95962 64.4532 4.85971C64.7136 5.07827 64.9825 5.28842 65.2514 5.49857C66.0076 6.10381 66.0581 6.64179 65.3438 7.43196C64.2347 8.65084 63.0583 9.80247 61.8484 10.9289C61.361 11.3828 60.7392 11.4248 60.1427 10.9289C58.5714 9.62594 56.8069 8.66765 54.7819 8.39025C52.0594 8.02039 49.463 8.55837 47.2196 10.1723C44.1274 12.3831 42.4217 15.5858 42.3545 19.5619Z" fill="#1D4797"/>
<path fill-rule="evenodd" clip-rule="evenodd" d="M59.8898 19.6042C59.915 23.2356 57.0497 26.0432 53.4451 26.0517C49.8908 26.0601 46.8743 23.2777 46.9751 19.3857C47.0675 15.7206 49.8068 13.0475 53.4283 13.0391C56.9657 13.0307 59.9318 15.645 59.8898 19.6042Z" fill="#22AAE2"/>
</g>
<defs>
<clipPath id="clip0_23_11180">
<rect width="95.7048" height="37.9029" fill="white" transform="translate(0.273438 0.572266)"/>
</clipPath>
</defs>
</svg>
