<svg width="60" height="54" viewBox="0 0 60 54" fill="none" xmlns="http://www.w3.org/2000/svg">
<path fill-rule="evenodd" clip-rule="evenodd" d="M51.4708 0.2947C51.1499 0.45672 50.7543 0.789665 50.5917 1.03446C50.316 1.4494 50.2959 1.61941 50.2959 3.54701V5.61437L48.144 5.65602C45.7967 5.70133 45.6332 5.75032 44.9994 6.59932C44.6208 7.10647 44.6208 8.34892 44.9994 8.85607C45.6332 9.70507 45.7967 9.75405 48.144 9.79937L50.2959 9.84102V11.9084C50.2959 13.8338 50.3162 14.0065 50.5908 14.4209C51.0149 15.061 51.9686 15.5056 52.6651 15.3879C53.3579 15.2708 54.172 14.555 54.353 13.9036C54.4259 13.6404 54.486 12.6188 54.4864 11.6333L54.4872 9.84141L56.5737 9.79963C58.8843 9.7534 59.0705 9.69223 59.6936 8.77683C60.2852 7.90753 59.9968 6.68917 59.0295 5.97154C58.6979 5.72544 58.4481 5.69335 56.5737 5.65575L54.4872 5.61397L54.4864 3.82206C54.486 2.83659 54.4277 1.82125 54.3568 1.56597C54.134 0.763994 53.1093 0 52.2564 0C52.1452 0 51.7917 0.132681 51.4708 0.2947ZM20.6856 1.6198C20.3563 1.70861 19.8226 1.93625 19.4994 2.12564C18.4108 2.76363 17.9093 3.47799 16.3196 6.65512C15.4931 8.30675 14.7201 9.69537 14.6017 9.74082C14.4834 9.78614 12.7224 9.82334 10.6885 9.82334C8.59702 9.82334 6.65265 9.88503 6.21322 9.96532C3.41475 10.4767 0.917259 12.8362 0.199762 15.6466C0.0270026 16.3232 0.00041419 18.4337 0.00041419 31.4761C0.00041419 48.1995 -0.0475237 47.2508 0.888051 49.0354C1.80922 50.7924 3.34598 52.0864 5.30502 52.7542L6.35284 53.1115H29.8634C49.1864 53.1115 53.5023 53.08 54.0943 52.9343C56.8393 52.2589 59.1537 49.9557 59.787 47.2695C59.9557 46.5535 59.9847 44.5963 59.9863 33.8121C59.9882 22.4374 59.9673 21.1483 59.7757 20.7444C59.4631 20.0856 58.8908 19.7344 58.0321 19.6744C57.1753 19.6146 56.5778 19.9354 56.1315 20.6949C55.8664 21.1462 55.8616 21.3373 55.797 33.8681L55.7315 46.5833L55.3348 47.2279C54.855 48.0073 53.9425 48.6503 53.0421 48.8435C52.1087 49.0436 7.88004 49.0436 6.94656 48.8435C6.04622 48.6503 5.1337 48.0073 4.65393 47.2279L4.2572 46.5833L4.22222 31.6708L4.18738 16.7584L4.46715 16.1079C4.62105 15.7502 4.98216 15.245 5.26965 14.9853C6.26207 14.0888 6.27177 14.0872 11.1368 14.0146L15.5278 13.9491L16.392 13.5235C17.7208 12.869 18.1398 12.3122 19.7875 9.01245C20.59 7.40536 21.3379 5.98739 21.4495 5.86126C21.6381 5.64816 22.1593 5.63205 28.8411 5.63205C35.7334 5.63205 36.0506 5.62144 36.5353 5.37415C36.8133 5.2323 37.1759 4.89765 37.3412 4.63033C37.9666 3.61826 37.5864 2.23488 36.5353 1.69865C36.0495 1.45084 35.7419 1.44115 28.6571 1.44953C23.2507 1.45608 21.1247 1.50153 20.6856 1.6198ZM28.3571 16.9147C25.4201 17.2878 22.7768 18.5969 20.6141 20.7496C18.965 22.3911 17.9385 24.1365 17.202 26.5513C16.881 27.6038 16.8503 27.897 16.8417 29.9939C16.8336 32.0037 16.8698 32.4232 17.1366 33.3994C17.755 35.6623 18.816 37.5187 20.4927 39.2708C22.2181 41.0739 24.2597 42.2744 26.7185 42.9318C28.4555 43.3962 31.326 43.4227 33.0471 42.9901C35.606 42.3468 37.718 41.1289 39.4959 39.271C41.1848 37.5059 42.2598 35.6175 42.8382 33.3994C43.2665 31.7568 43.3333 29.1578 42.9896 27.5054C42.437 24.8486 41.2786 22.6702 39.4312 20.8133C37.1733 18.5438 34.6345 17.2944 31.5006 16.9104C30.1716 16.7475 29.6685 16.7481 28.3571 16.9147ZM32.2865 21.298C33.4163 21.5853 34.8105 22.3064 35.7738 23.1016C39.3087 26.0199 40.0816 31.2573 37.5412 35.0786C35.8933 37.5572 32.9272 39.1624 29.9943 39.1624C26.21 39.1624 22.6293 36.5892 21.4238 33.0033C20.9351 31.5498 20.8207 29.571 21.1417 28.1281C21.9596 24.4517 24.9286 21.7012 28.7501 21.0796C29.6019 20.941 31.2935 21.0455 32.2865 21.298Z" fill="#F26222"/>
</svg>
