<svg width="18" height="18" viewBox="0 0 18 18" fill="none" xmlns="http://www.w3.org/2000/svg">
<path d="M18 9C18 13.3492 13.9703 16.875 9 16.875C8.10861 16.8762 7.22091 16.7605 6.35962 16.5307C5.70262 16.8637 4.194 17.5027 1.656 17.919C1.431 17.955 1.26 17.721 1.34888 17.5117C1.74713 16.5712 2.10713 15.318 2.21513 14.175C0.837 12.7912 0 10.98 0 9C0 4.65075 4.02975 1.125 9 1.125C13.9703 1.125 18 4.65075 18 9ZM5.0625 5.625C4.91332 5.625 4.77024 5.68426 4.66475 5.78975C4.55926 5.89524 4.5 6.03832 4.5 6.1875C4.5 6.33668 4.55926 6.47976 4.66475 6.58525C4.77024 6.69074 4.91332 6.75 5.0625 6.75H12.9375C13.0867 6.75 13.2298 6.69074 13.3352 6.58525C13.4407 6.47976 13.5 6.33668 13.5 6.1875C13.5 6.03832 13.4407 5.89524 13.3352 5.78975C13.2298 5.68426 13.0867 5.625 12.9375 5.625H5.0625ZM5.0625 8.4375C4.91332 8.4375 4.77024 8.49676 4.66475 8.60225C4.55926 8.70774 4.5 8.85081 4.5 9C4.5 9.14918 4.55926 9.29226 4.66475 9.39775C4.77024 9.50324 4.91332 9.5625 5.0625 9.5625H12.9375C13.0867 9.5625 13.2298 9.50324 13.3352 9.39775C13.4407 9.29226 13.5 9.14918 13.5 9C13.5 8.85081 13.4407 8.70774 13.3352 8.60225C13.2298 8.49676 13.0867 8.4375 12.9375 8.4375H5.0625ZM5.0625 11.25C4.91332 11.25 4.77024 11.3093 4.66475 11.4148C4.55926 11.5202 4.5 11.6633 4.5 11.8125C4.5 11.9617 4.55926 12.1048 4.66475 12.2102C4.77024 12.3157 4.91332 12.375 5.0625 12.375H9.5625C9.71168 12.375 9.85476 12.3157 9.96025 12.2102C10.0657 12.1048 10.125 11.9617 10.125 11.8125C10.125 11.6633 10.0657 11.5202 9.96025 11.4148C9.85476 11.3093 9.71168 11.25 9.5625 11.25H5.0625Z" fill="#F26222"/>
</svg>
