<svg width="30" height="30" viewBox="0 0 30 30" fill="none" xmlns="http://www.w3.org/2000/svg">
<circle cx="15" cy="15" r="14.5" fill="white" stroke="#FF7031"/>
<path d="M13.6702 14.3711H14.7015C15.2067 14.3711 15.6233 14.2878 15.9515 14.1211C16.2848 13.9492 16.5322 13.7174 16.6937 13.4258C16.8603 13.1289 16.9437 12.7956 16.9437 12.4258C16.9437 11.9883 16.8707 11.6211 16.7249 11.3242C16.5791 11.0273 16.3603 10.8034 16.0687 10.6523C15.777 10.5013 15.4072 10.4258 14.9593 10.4258C14.553 10.4258 14.1937 10.5065 13.8812 10.668C13.5739 10.8242 13.3317 11.0482 13.1546 11.3398C12.9827 11.6315 12.8968 11.9753 12.8968 12.3711H11.4515C11.4515 11.793 11.5973 11.2669 11.889 10.793C12.1806 10.319 12.5895 9.94141 13.1155 9.66016C13.6468 9.37891 14.2614 9.23828 14.9593 9.23828C15.6468 9.23828 16.2483 9.36068 16.764 9.60547C17.2796 9.84505 17.6806 10.2044 17.9671 10.6836C18.2536 11.1576 18.3968 11.7487 18.3968 12.457C18.3968 12.7435 18.3291 13.0508 18.1937 13.3789C18.0635 13.7018 17.8577 14.0039 17.5765 14.2852C17.3004 14.5664 16.9411 14.7982 16.4983 14.9805C16.0556 15.1576 15.5244 15.2461 14.9046 15.2461H13.6702V14.3711ZM13.6702 15.5586V14.6914H14.9046C15.6286 14.6914 16.2275 14.7773 16.7015 14.9492C17.1754 15.1211 17.5478 15.3503 17.8187 15.6367C18.0947 15.9232 18.2874 16.2383 18.3968 16.582C18.5114 16.9206 18.5687 17.2591 18.5687 17.5977C18.5687 18.1289 18.4775 18.6003 18.2952 19.0117C18.1181 19.4232 17.8655 19.7721 17.5374 20.0586C17.2145 20.3451 16.8343 20.5612 16.3968 20.707C15.9593 20.8529 15.4827 20.9258 14.9671 20.9258C14.4723 20.9258 14.0062 20.8555 13.5687 20.7148C13.1364 20.5742 12.7536 20.3711 12.4202 20.1055C12.0869 19.8346 11.8265 19.5039 11.639 19.1133C11.4515 18.7174 11.3577 18.2669 11.3577 17.7617H12.803C12.803 18.1576 12.889 18.5039 13.0608 18.8008C13.2379 19.0977 13.4879 19.3294 13.8108 19.4961C14.139 19.6576 14.5244 19.7383 14.9671 19.7383C15.4098 19.7383 15.79 19.6628 16.1077 19.5117C16.4306 19.3555 16.678 19.1211 16.8499 18.8086C17.027 18.4961 17.1155 18.1029 17.1155 17.6289C17.1155 17.1549 17.0166 16.7669 16.8187 16.4648C16.6207 16.1576 16.3395 15.931 15.9749 15.7852C15.6155 15.6341 15.1911 15.5586 14.7015 15.5586H13.6702Z" fill="#474747"/>
</svg>
