<svg width="30" height="30" viewBox="0 0 30 30" fill="none" xmlns="http://www.w3.org/2000/svg">
<circle cx="15" cy="15" r="14.5" fill="white" stroke="#FF7031"/>
<path d="M19.014 19.582V20.7695H11.5687V19.7305L15.2952 15.582C15.7536 15.0716 16.1077 14.6393 16.3577 14.2852C16.6129 13.9258 16.79 13.6055 16.889 13.3242C16.9931 13.0378 17.0452 12.7461 17.0452 12.4492C17.0452 12.0742 16.9671 11.7357 16.8108 11.4336C16.6598 11.1263 16.4358 10.8815 16.139 10.6992C15.8421 10.5169 15.4827 10.4258 15.0608 10.4258C14.5556 10.4258 14.1338 10.5247 13.7952 10.7227C13.4619 10.9154 13.2119 11.1862 13.0452 11.5352C12.8786 11.8841 12.7952 12.2852 12.7952 12.7383H11.3499C11.3499 12.0977 11.4905 11.5117 11.7718 10.9805C12.053 10.4492 12.4697 10.0273 13.0218 9.71484C13.5739 9.39714 14.2536 9.23828 15.0608 9.23828C15.7796 9.23828 16.3942 9.36589 16.9046 9.62109C17.415 9.87109 17.8056 10.2253 18.0765 10.6836C18.3525 11.1367 18.4905 11.668 18.4905 12.2773C18.4905 12.6107 18.4332 12.9492 18.3187 13.293C18.2093 13.6315 18.0556 13.9701 17.8577 14.3086C17.665 14.6471 17.4385 14.9805 17.178 15.3086C16.9228 15.6367 16.6494 15.9596 16.3577 16.2773L13.3108 19.582H19.014Z" fill="#474747"/>
</svg>
