<svg width="30" height="30" viewBox="0 0 30 30" fill="none" xmlns="http://www.w3.org/2000/svg">
<circle cx="15" cy="15" r="14.5" fill="white" stroke="#FF7031"/>
<path d="M13.389 15.3555L12.2327 15.0586L12.803 9.39453H18.639V10.7305H14.0296L13.6858 13.8242C13.8942 13.7044 14.1572 13.5924 14.4749 13.4883C14.7978 13.3841 15.1676 13.332 15.5843 13.332C16.1103 13.332 16.5817 13.4232 16.9983 13.6055C17.415 13.7826 17.7692 14.0378 18.0608 14.3711C18.3577 14.7044 18.5843 15.1055 18.7405 15.5742C18.8968 16.043 18.9749 16.5664 18.9749 17.1445C18.9749 17.6914 18.8994 18.194 18.7483 18.6523C18.6025 19.1107 18.3812 19.5117 18.0843 19.8555C17.7874 20.194 17.4124 20.457 16.9593 20.6445C16.5114 20.832 15.9827 20.9258 15.3733 20.9258C14.915 20.9258 14.4801 20.8633 14.0687 20.7383C13.6624 20.6081 13.2978 20.4128 12.9749 20.1523C12.6572 19.8867 12.3968 19.5586 12.1937 19.168C11.9957 18.7721 11.8707 18.3086 11.8187 17.7773H13.1937C13.2562 18.2044 13.3812 18.5638 13.5687 18.8555C13.7562 19.1471 14.001 19.3685 14.303 19.5195C14.6103 19.6654 14.9671 19.7383 15.3733 19.7383C15.7171 19.7383 16.0218 19.6784 16.2874 19.5586C16.553 19.4388 16.777 19.2669 16.9593 19.043C17.1416 18.819 17.2796 18.5482 17.3733 18.2305C17.4723 17.9128 17.5218 17.556 17.5218 17.1602C17.5218 16.8008 17.4723 16.4674 17.3733 16.1602C17.2744 15.8529 17.126 15.5846 16.928 15.3555C16.7353 15.1263 16.4983 14.9492 16.2171 14.8242C15.9358 14.694 15.6129 14.6289 15.2483 14.6289C14.764 14.6289 14.3968 14.694 14.1468 14.8242C13.902 14.9544 13.6494 15.1315 13.389 15.3555Z" fill="#474747"/>
</svg>
