<svg width="30" height="30" viewBox="0 0 30 30" fill="none" xmlns="http://www.w3.org/2000/svg">
<circle cx="15" cy="15" r="14.5" fill="#F26222" stroke="#FF7031"/>
<path d="M19.012 19.582V20.7695H11.5667V19.7305L15.2933 15.582C15.7516 15.0716 16.1058 14.6393 16.3558 14.2852C16.611 13.9258 16.7881 13.6055 16.887 13.3242C16.9912 13.0378 17.0433 12.7461 17.0433 12.4492C17.0433 12.0742 16.9651 11.7357 16.8089 11.4336C16.6579 11.1263 16.4339 10.8815 16.137 10.6992C15.8401 10.5169 15.4808 10.4258 15.0589 10.4258C14.5537 10.4258 14.1318 10.5247 13.7933 10.7227C13.4599 10.9154 13.2099 11.1862 13.0433 11.5352C12.8766 11.8841 12.7933 12.2852 12.7933 12.7383H11.348C11.348 12.0977 11.4886 11.5117 11.7698 10.9805C12.0511 10.4492 12.4677 10.0273 13.0198 9.71484C13.5719 9.39714 14.2516 9.23828 15.0589 9.23828C15.7776 9.23828 16.3922 9.36589 16.9026 9.62109C17.4131 9.87109 17.8037 10.2253 18.0745 10.6836C18.3506 11.1367 18.4886 11.668 18.4886 12.2773C18.4886 12.6107 18.4313 12.9492 18.3167 13.293C18.2073 13.6315 18.0537 13.9701 17.8558 14.3086C17.6631 14.6471 17.4365 14.9805 17.1761 15.3086C16.9209 15.6367 16.6474 15.9596 16.3558 16.2773L13.3089 19.582H19.012Z" fill="white"/>
</svg>
