<svg width="30" height="30" viewBox="0 0 30 30" fill="none" xmlns="http://www.w3.org/2000/svg">
<circle cx="15" cy="15" r="14.5" fill="white" stroke="#FF7031"/>
<path d="M17.1077 9.37891H17.2327V10.6055H17.1077C16.3421 10.6055 15.7015 10.7305 15.1858 10.9805C14.6702 11.2253 14.2614 11.556 13.9593 11.9727C13.6572 12.3841 13.4385 12.8477 13.303 13.3633C13.1728 13.8789 13.1077 14.4023 13.1077 14.9336V16.6055C13.1077 17.1107 13.1676 17.5586 13.2874 17.9492C13.4072 18.3346 13.5713 18.6602 13.7796 18.9258C13.9879 19.1914 14.2223 19.3919 14.4827 19.5273C14.7483 19.6628 15.0244 19.7305 15.3108 19.7305C15.6442 19.7305 15.9411 19.668 16.2015 19.543C16.4619 19.4128 16.6806 19.2331 16.8577 19.0039C17.04 18.7695 17.178 18.4935 17.2718 18.1758C17.3655 17.8581 17.4124 17.5091 17.4124 17.1289C17.4124 16.7904 17.3707 16.4648 17.2874 16.1523C17.2041 15.8346 17.0765 15.5534 16.9046 15.3086C16.7327 15.0586 16.5166 14.8633 16.2562 14.7227C16.001 14.5768 15.6963 14.5039 15.3421 14.5039C14.9411 14.5039 14.5661 14.6029 14.2171 14.8008C13.8733 14.9935 13.5895 15.2487 13.3655 15.5664C13.1468 15.8789 13.0218 16.2201 12.9905 16.5898L12.2249 16.582C12.2978 15.9987 12.4332 15.5013 12.6312 15.0898C12.8343 14.6732 13.0843 14.3346 13.3812 14.0742C13.6832 13.8086 14.0192 13.6159 14.389 13.4961C14.764 13.3711 15.1598 13.3086 15.5765 13.3086C16.1442 13.3086 16.6338 13.4154 17.0452 13.6289C17.4567 13.8424 17.7952 14.1289 18.0608 14.4883C18.3265 14.8424 18.5218 15.2435 18.6468 15.6914C18.777 16.1341 18.8421 16.5898 18.8421 17.0586C18.8421 17.5951 18.7666 18.0977 18.6155 18.5664C18.4645 19.0352 18.2379 19.4466 17.9358 19.8008C17.639 20.1549 17.2718 20.431 16.8343 20.6289C16.3968 20.8268 15.889 20.9258 15.3108 20.9258C14.6963 20.9258 14.1598 20.8008 13.7015 20.5508C13.2431 20.2956 12.8629 19.957 12.5608 19.5352C12.2588 19.1133 12.0322 18.6445 11.8812 18.1289C11.7301 17.6133 11.6546 17.0898 11.6546 16.5586V15.8789C11.6546 15.0768 11.7353 14.2904 11.8968 13.5195C12.0582 12.7487 12.3369 12.0508 12.7327 11.4258C13.1338 10.8008 13.6885 10.3034 14.3968 9.93359C15.1051 9.5638 16.0088 9.37891 17.1077 9.37891Z" fill="#474747"/>
</svg>
