<svg width="30" height="30" viewBox="0 0 30 30" fill="none" xmlns="http://www.w3.org/2000/svg">
<circle cx="15" cy="15" r="14.5" fill="#F26222" stroke="#FF7031"/>
<path d="M13.387 15.3555L12.2308 15.0586L12.8011 9.39453H18.637V10.7305H14.0276L13.6839 13.8242C13.8922 13.7044 14.1552 13.5924 14.473 13.4883C14.7959 13.3841 15.1657 13.332 15.5823 13.332C16.1084 13.332 16.5797 13.4232 16.9964 13.6055C17.4131 13.7826 17.7672 14.0378 18.0589 14.3711C18.3558 14.7044 18.5823 15.1055 18.7386 15.5742C18.8948 16.043 18.973 16.5664 18.973 17.1445C18.973 17.6914 18.8974 18.194 18.7464 18.6523C18.6006 19.1107 18.3792 19.5117 18.0823 19.8555C17.7855 20.194 17.4105 20.457 16.9573 20.6445C16.5094 20.832 15.9808 20.9258 15.3714 20.9258C14.9131 20.9258 14.4782 20.8633 14.0667 20.7383C13.6605 20.6081 13.2959 20.4128 12.973 20.1523C12.6552 19.8867 12.3948 19.5586 12.1917 19.168C11.9938 18.7721 11.8688 18.3086 11.8167 17.7773H13.1917C13.2542 18.2044 13.3792 18.5638 13.5667 18.8555C13.7542 19.1471 13.999 19.3685 14.3011 19.5195C14.6084 19.6654 14.9651 19.7383 15.3714 19.7383C15.7151 19.7383 16.0198 19.6784 16.2855 19.5586C16.5511 19.4388 16.775 19.2669 16.9573 19.043C17.1396 18.819 17.2776 18.5482 17.3714 18.2305C17.4704 17.9128 17.5198 17.556 17.5198 17.1602C17.5198 16.8008 17.4704 16.4674 17.3714 16.1602C17.2724 15.8529 17.124 15.5846 16.9261 15.3555C16.7334 15.1263 16.4964 14.9492 16.2151 14.8242C15.9339 14.694 15.611 14.6289 15.2464 14.6289C14.762 14.6289 14.3948 14.694 14.1448 14.8242C13.9 14.9544 13.6474 15.1315 13.387 15.3555Z" fill="white"/>
</svg>
