<svg width="30" height="30" viewBox="0 0 30 30" fill="none" xmlns="http://www.w3.org/2000/svg">
<circle cx="15" cy="15" r="14.5" fill="#F26222" stroke="#FF7031"/>
<path d="M13.6683 14.3711H14.6995C15.2047 14.3711 15.6214 14.2878 15.9495 14.1211C16.2829 13.9492 16.5302 13.7174 16.6917 13.4258C16.8584 13.1289 16.9417 12.7956 16.9417 12.4258C16.9417 11.9883 16.8688 11.6211 16.723 11.3242C16.5771 11.0273 16.3584 10.8034 16.0667 10.6523C15.775 10.5013 15.4052 10.4258 14.9573 10.4258C14.5511 10.4258 14.1917 10.5065 13.8792 10.668C13.5719 10.8242 13.3297 11.0482 13.1526 11.3398C12.9808 11.6315 12.8948 11.9753 12.8948 12.3711H11.4495C11.4495 11.793 11.5954 11.2669 11.887 10.793C12.1787 10.319 12.5875 9.94141 13.1136 9.66016C13.6448 9.37891 14.2594 9.23828 14.9573 9.23828C15.6448 9.23828 16.2464 9.36068 16.762 9.60547C17.2776 9.84505 17.6787 10.2044 17.9651 10.6836C18.2516 11.1576 18.3948 11.7487 18.3948 12.457C18.3948 12.7435 18.3271 13.0508 18.1917 13.3789C18.0615 13.7018 17.8558 14.0039 17.5745 14.2852C17.2985 14.5664 16.9391 14.7982 16.4964 14.9805C16.0537 15.1576 15.5224 15.2461 14.9026 15.2461H13.6683V14.3711ZM13.6683 15.5586V14.6914H14.9026C15.6266 14.6914 16.2256 14.7773 16.6995 14.9492C17.1735 15.1211 17.5459 15.3503 17.8167 15.6367C18.0927 15.9232 18.2855 16.2383 18.3948 16.582C18.5094 16.9206 18.5667 17.2591 18.5667 17.5977C18.5667 18.1289 18.4756 18.6003 18.2933 19.0117C18.1162 19.4232 17.8636 19.7721 17.5355 20.0586C17.2125 20.3451 16.8323 20.5612 16.3948 20.707C15.9573 20.8529 15.4808 20.9258 14.9651 20.9258C14.4704 20.9258 14.0042 20.8555 13.5667 20.7148C13.1344 20.5742 12.7516 20.3711 12.4183 20.1055C12.0849 19.8346 11.8245 19.5039 11.637 19.1133C11.4495 18.7174 11.3558 18.2669 11.3558 17.7617H12.8011C12.8011 18.1576 12.887 18.5039 13.0589 18.8008C13.236 19.0977 13.486 19.3294 13.8089 19.4961C14.137 19.6576 14.5224 19.7383 14.9651 19.7383C15.4079 19.7383 15.7881 19.6628 16.1058 19.5117C16.4287 19.3555 16.6761 19.1211 16.848 18.8086C17.025 18.4961 17.1136 18.1029 17.1136 17.6289C17.1136 17.1549 17.0146 16.7669 16.8167 16.4648C16.6188 16.1576 16.3375 15.931 15.973 15.7852C15.6136 15.6341 15.1891 15.5586 14.6995 15.5586H13.6683Z" fill="white"/>
</svg>
