<svg width="141" height="36" viewBox="0 0 141 36" fill="none" xmlns="http://www.w3.org/2000/svg">
<g clip-path="url(#clip0_23_11223)">
<path d="M38.6938 27.2947C38.6938 25.429 38.0193 23.723 36.9287 22.3654L21.3942 3.67936C20.0524 1.98063 17.9501 0.957031 15.5966 0.957031C11.4851 0.957031 8.04102 4.3545 8.04102 8.60133C8.04102 10.467 8.71549 12.173 9.80613 13.5306L25.3406 32.3038C26.6824 34.0025 28.7847 35.0188 31.1382 35.0188C35.3358 34.939 38.6938 31.5415 38.6938 27.2947Z" fill="url(#paint0_radial_23_11223)"/>
<path d="M35.7525 33.3277C37.1804 32.2242 38.1849 30.6053 38.5221 28.9066L42.6408 10.3004C43.143 8.17333 42.7269 5.79946 41.299 3.9265C38.7805 0.529027 34.0807 -0.0662557 30.7154 2.48185C29.2876 3.5853 28.283 5.20418 27.9458 6.90291L23.9133 25.0881L23.8272 25.5962C23.3249 27.7233 23.7411 30.0972 25.169 31.9701C27.6947 35.2805 32.4806 35.9629 35.7525 33.3277Z" fill="url(#paint1_radial_23_11223)"/>
<path d="M58.4257 27.2947C58.4257 25.429 57.7512 23.723 56.6606 22.3654L41.0472 3.67936C39.7054 1.98063 37.603 0.957031 35.2567 0.957031C31.1381 0.957031 27.7012 4.3545 27.7012 8.60133C27.7012 10.467 28.3756 12.173 29.4663 13.5306L45.0008 32.3038C46.3425 34.0025 48.4449 35.0188 50.7984 35.0188C55.0677 34.939 58.4257 31.5415 58.4257 27.2947Z" fill="url(#paint2_radial_23_11223)"/>
<path d="M8.29189 19.6504C12.4679 19.6504 15.8475 23.0769 15.8475 27.2947C15.8475 31.5198 12.4607 34.939 8.29189 34.939C4.12306 34.939 0.736328 31.5198 0.736328 27.2947C0.736328 23.0696 4.12306 19.6504 8.29189 19.6504Z" fill="url(#paint3_radial_23_11223)"/>
<path d="M138.702 17.3557L138.537 17.1887L138.702 17.0218C139.879 15.5771 140.467 13.7913 140.381 11.9256C140.216 7.67874 136.435 4.44824 131.814 4.44824H121.905C120.226 4.44824 118.963 5.80578 118.963 7.42466V28.6661C118.963 30.3648 120.305 31.6425 121.905 31.6425H131.728C134.16 31.6425 136.428 30.7931 138.193 29.1815C139.958 27.5699 140.962 25.4429 140.962 23.1488C141.056 20.9202 140.216 18.8802 138.702 17.3557ZM124.768 9.79127H132.244C133.672 9.79127 134.598 11.0689 134.598 12.1724C134.598 13.6171 133.335 14.5535 132.244 14.5535H124.768V9.79127ZM132.323 26.1035H124.768V19.9837H132.244C133.421 19.9837 135.265 20.833 135.265 23.1271C135.265 24.4047 134.253 26.1035 132.323 26.1035Z" fill="#333333"/>
<path d="M107.046 15.2291C104.779 14.6338 102.095 13.8715 101.923 11.9986C101.837 10.7209 102.849 9.61744 104.528 9.36336C107.886 8.94231 110.828 10.8951 112.421 11.3162C114.014 11.7445 115.276 10.3797 115.441 9.02216C115.693 6.98223 113.676 5.87878 112.923 5.37061C111.667 4.60836 109.393 3.67188 106.035 3.67188C100.072 3.67188 95.9606 7.15646 95.9606 12.0857C95.9606 14.808 96.9652 16.7608 98.9025 18.2055C102.684 21.0948 110.067 20.7536 110.067 23.73C110.067 26.3652 105.195 28.064 99.8209 24.4923C99.3186 24.1511 98.8164 23.897 98.1419 23.897C96.714 23.897 95.4512 25.0875 95.4512 26.6193C95.4512 27.1275 95.5373 27.5558 95.7884 27.9768L95.7023 28.064L95.7884 27.9768C95.7884 28.064 95.8745 28.064 95.8745 28.1438C96.3768 28.9061 97.0513 29.5885 97.9769 30.0966C99.3186 31.0331 101.837 32.1366 105.619 32.1366C108.725 32.1366 111.33 31.3743 113.174 29.8425C115.025 28.3108 116.03 26.1039 116.03 23.4687C116.202 18.3725 111.753 16.5068 107.046 15.2291Z" fill="#333333"/>
<path d="M89.7461 4.35449H87.9021C86.8975 4.35449 85.8858 4.94978 85.4696 5.88626L79.2559 18.968L73.0421 5.88626C72.5398 4.94978 71.6142 4.35449 70.5236 4.35449H68.6723C67.0794 4.35449 65.7305 5.71203 65.7305 7.33091V28.9135C65.7305 31.0406 67.9979 32.6522 70.1791 31.3745C71.0186 30.9535 71.5209 30.017 71.5209 29.0805V16.2529L76.7302 26.3654C77.2324 27.3818 78.2441 27.8972 79.2487 27.8972C80.2532 27.8972 81.2649 27.389 81.7672 26.3654L86.9764 16.2529V29.0805C86.9764 30.017 87.4787 30.9462 88.3182 31.3745C90.4995 32.5651 92.7669 30.9535 92.7669 28.9135V7.33091C92.7741 5.71203 91.4323 4.35449 89.7461 4.35449Z" fill="#333333"/>
</g>
<defs>
<radialGradient id="paint0_radial_23_11223" cx="0" cy="0" r="1" gradientUnits="userSpaceOnUse" gradientTransform="translate(26.882 10.927) scale(16.0662 16.2549)">
<stop offset="0.0184" stop-color="#6F0000"/>
<stop offset="0.3252" stop-color="#910D11"/>
<stop offset="0.4457" stop-color="#A61519"/>
<stop offset="0.5938" stop-color="#BC1B20"/>
<stop offset="0.7384" stop-color="#CB1E24"/>
<stop offset="0.8762" stop-color="#D52027"/>
<stop offset="1" stop-color="#DA2128"/>
</radialGradient>
<radialGradient id="paint1_radial_23_11223" cx="0" cy="0" r="1" gradientUnits="userSpaceOnUse" gradientTransform="translate(39.0918 20.7196) scale(14.3236 14.4918)">
<stop offset="0.0368" stop-color="#6F0000"/>
<stop offset="0.3006" stop-color="#910D11"/>
<stop offset="0.4172" stop-color="#A01317"/>
<stop offset="0.6776" stop-color="#BE1B21"/>
<stop offset="0.8806" stop-color="#D11F26"/>
<stop offset="1" stop-color="#DA2128"/>
</radialGradient>
<radialGradient id="paint2_radial_23_11223" cx="0" cy="0" r="1" gradientUnits="userSpaceOnUse" gradientTransform="translate(31.9359 4.21811) scale(28.9171 29.2567)">
<stop offset="0.3558" stop-color="#DA2128"/>
<stop offset="1" stop-color="#F37021"/>
</radialGradient>
<radialGradient id="paint3_radial_23_11223" cx="0" cy="0" r="1" gradientUnits="userSpaceOnUse" gradientTransform="translate(4.47456 30.2386) scale(15.0039 15.1801)">
<stop offset="0.3129" stop-color="#DA2128"/>
<stop offset="0.7914" stop-color="#910D11"/>
<stop offset="1" stop-color="#6F0000"/>
</radialGradient>
<clipPath id="clip0_23_11223">
<rect width="140.241" height="34.1126" fill="white" transform="translate(0.736328 0.914062)"/>
</clipPath>
</defs>
</svg>
