<svg width="22" height="39" viewBox="0 0 22 39" fill="none" xmlns="http://www.w3.org/2000/svg">
<path d="M14.6712 36.9942L2.71024 24.55L14.6712 12.1057C30.9639 -14.7979 15.0052 11.5849 15.0052 11.2741C15.0052 10.9633 14.8853 10.6648 14.6712 10.4425C14.5672 10.3348 14.443 10.2493 14.306 10.1909C14.169 10.1325 14.0219 10.1025 13.8733 10.1025C13.7247 10.1025 13.5775 10.1325 13.4405 10.1909C13.3035 10.2493 13.1794 10.3348 13.0754 10.4425L0.348497 23.681C0.125057 23.9135 0 24.2253 0 24.55C0 24.8746 0.125057 25.1864 0.348497 25.4189L13.0729 38.6574C13.177 38.7658 13.3015 38.852 13.4389 38.9109C13.5764 38.9697 13.7241 39 13.8733 39C14.0225 39 14.1702 38.9697 14.3076 38.9109C14.4451 38.852 14.5695 38.7658 14.6736 38.6574C14.8878 38.4351 15.0076 38.1366 15.0076 37.8258C15.0076 37.515 14.8878 37.2165 14.6736 36.9942H14.6712Z" fill="black"/>
</svg>
