<svg width="630" height="30" viewBox="0 0 630 30" fill="none" xmlns="http://www.w3.org/2000/svg">
<rect x="10" y="16" width="612" height="1" fill="#D9D9D9"/>
<circle cx="15" cy="15" r="15" fill="#F26222"/>
<path d="M16.3108 9.33203V20.7695H14.8655V11.1367L11.9515 12.1992V10.8945L16.0843 9.33203H16.3108Z" fill="white"/>
<circle cx="315" cy="15" r="14.5" fill="white" stroke="#FF7031"/>
<path d="M313.67 14.3711H314.701C315.207 14.3711 315.623 14.2878 315.951 14.1211C316.285 13.9492 316.532 13.7174 316.694 13.4258C316.86 13.1289 316.944 12.7956 316.944 12.4258C316.944 11.9883 316.871 11.6211 316.725 11.3242C316.579 11.0273 316.36 10.8034 316.069 10.6523C315.777 10.5013 315.407 10.4258 314.959 10.4258C314.553 10.4258 314.194 10.5065 313.881 10.668C313.574 10.8242 313.332 11.0482 313.155 11.3398C312.983 11.6315 312.897 11.9753 312.897 12.3711H311.451C311.451 11.793 311.597 11.2669 311.889 10.793C312.181 10.319 312.589 9.94141 313.116 9.66016C313.647 9.37891 314.261 9.23828 314.959 9.23828C315.647 9.23828 316.248 9.36068 316.764 9.60547C317.28 9.84505 317.681 10.2044 317.967 10.6836C318.254 11.1576 318.397 11.7487 318.397 12.457C318.397 12.7435 318.329 13.0508 318.194 13.3789C318.063 13.7018 317.858 14.0039 317.576 14.2852C317.3 14.5664 316.941 14.7982 316.498 14.9805C316.056 15.1576 315.524 15.2461 314.905 15.2461H313.67V14.3711ZM313.67 15.5586V14.6914H314.905C315.629 14.6914 316.228 14.7773 316.701 14.9492C317.175 15.1211 317.548 15.3503 317.819 15.6367C318.095 15.9232 318.287 16.2383 318.397 16.582C318.511 16.9206 318.569 17.2591 318.569 17.5977C318.569 18.1289 318.478 18.6003 318.295 19.0117C318.118 19.4232 317.866 19.7721 317.537 20.0586C317.214 20.3451 316.834 20.5612 316.397 20.707C315.959 20.8529 315.483 20.9258 314.967 20.9258C314.472 20.9258 314.006 20.8555 313.569 20.7148C313.136 20.5742 312.754 20.3711 312.42 20.1055C312.087 19.8346 311.826 19.5039 311.639 19.1133C311.451 18.7174 311.358 18.2669 311.358 17.7617H312.803C312.803 18.1576 312.889 18.5039 313.061 18.8008C313.238 19.0977 313.488 19.3294 313.811 19.4961C314.139 19.6576 314.524 19.7383 314.967 19.7383C315.41 19.7383 315.79 19.6628 316.108 19.5117C316.431 19.3555 316.678 19.1211 316.85 18.8086C317.027 18.4961 317.116 18.1029 317.116 17.6289C317.116 17.1549 317.017 16.7669 316.819 16.4648C316.621 16.1576 316.339 15.931 315.975 15.7852C315.616 15.6341 315.191 15.5586 314.701 15.5586H313.67Z" fill="#474747"/>
<circle cx="165" cy="15" r="14.5" fill="white" stroke="#FF7031"/>
<path d="M169.014 19.582V20.7695H161.569V19.7305L165.295 15.582C165.754 15.0716 166.108 14.6393 166.358 14.2852C166.613 13.9258 166.79 13.6055 166.889 13.3242C166.993 13.0378 167.045 12.7461 167.045 12.4492C167.045 12.0742 166.967 11.7357 166.811 11.4336C166.66 11.1263 166.436 10.8815 166.139 10.6992C165.842 10.5169 165.483 10.4258 165.061 10.4258C164.556 10.4258 164.134 10.5247 163.795 10.7227C163.462 10.9154 163.212 11.1862 163.045 11.5352C162.879 11.8841 162.795 12.2852 162.795 12.7383H161.35C161.35 12.0977 161.491 11.5117 161.772 10.9805C162.053 10.4492 162.47 10.0273 163.022 9.71484C163.574 9.39714 164.254 9.23828 165.061 9.23828C165.78 9.23828 166.394 9.36589 166.905 9.62109C167.415 9.87109 167.806 10.2253 168.076 10.6836C168.353 11.1367 168.491 11.668 168.491 12.2773C168.491 12.6107 168.433 12.9492 168.319 13.293C168.209 13.6315 168.056 13.9701 167.858 14.3086C167.665 14.6471 167.438 14.9805 167.178 15.3086C166.923 15.6367 166.649 15.9596 166.358 16.2773L163.311 19.582H169.014Z" fill="#474747"/>
<circle cx="465" cy="15" r="14.5" fill="white" stroke="#FF7031"/>
<path d="M469.248 16.9414V18.1289H461.03V17.2773L466.123 9.39453H467.303L466.037 11.6758L462.67 16.9414H469.248ZM467.662 9.39453V20.7695H466.217V9.39453H467.662Z" fill="#474747"/>
<circle cx="615" cy="15" r="14.5" fill="white" stroke="#FF7031"/>
<path d="M613.389 15.3555L612.233 15.0586L612.803 9.39453H618.639V10.7305H614.03L613.686 13.8242C613.894 13.7044 614.157 13.5924 614.475 13.4883C614.798 13.3841 615.168 13.332 615.584 13.332C616.11 13.332 616.582 13.4232 616.998 13.6055C617.415 13.7826 617.769 14.0378 618.061 14.3711C618.358 14.7044 618.584 15.1055 618.741 15.5742C618.897 16.043 618.975 16.5664 618.975 17.1445C618.975 17.6914 618.899 18.194 618.748 18.6523C618.603 19.1107 618.381 19.5117 618.084 19.8555C617.787 20.194 617.412 20.457 616.959 20.6445C616.511 20.832 615.983 20.9258 615.373 20.9258C614.915 20.9258 614.48 20.8633 614.069 20.7383C613.662 20.6081 613.298 20.4128 612.975 20.1523C612.657 19.8867 612.397 19.5586 612.194 19.168C611.996 18.7721 611.871 18.3086 611.819 17.7773H613.194C613.256 18.2044 613.381 18.5638 613.569 18.8555C613.756 19.1471 614.001 19.3685 614.303 19.5195C614.61 19.6654 614.967 19.7383 615.373 19.7383C615.717 19.7383 616.022 19.6784 616.287 19.5586C616.553 19.4388 616.777 19.2669 616.959 19.043C617.142 18.819 617.28 18.5482 617.373 18.2305C617.472 17.9128 617.522 17.556 617.522 17.1602C617.522 16.8008 617.472 16.4674 617.373 16.1602C617.274 15.8529 617.126 15.5846 616.928 15.3555C616.735 15.1263 616.498 14.9492 616.217 14.8242C615.936 14.694 615.613 14.6289 615.248 14.6289C614.764 14.6289 614.397 14.694 614.147 14.8242C613.902 14.9544 613.649 15.1315 613.389 15.3555Z" fill="#474747"/>
</svg>
