<svg width="630" height="30" viewBox="0 0 630 30" fill="none" xmlns="http://www.w3.org/2000/svg">
<rect x="10" y="16" width="612" height="1" fill="#D9D9D9"/>
<circle cx="15" cy="15" r="14.5" fill="white" stroke="#F26222"/>
<path d="M16.3089 9.33203V20.7695H14.8636V11.1367L11.9495 12.1992V10.8945L16.0823 9.33203H16.3089Z" fill="#474747"/>
<circle cx="315" cy="15" r="14.5" fill="#F26222" stroke="#FF7031"/>
<path d="M313.668 14.3711H314.7C315.205 14.3711 315.621 14.2878 315.95 14.1211C316.283 13.9492 316.53 13.7174 316.692 13.4258C316.858 13.1289 316.942 12.7956 316.942 12.4258C316.942 11.9883 316.869 11.6211 316.723 11.3242C316.577 11.0273 316.358 10.8034 316.067 10.6523C315.775 10.5013 315.405 10.4258 314.957 10.4258C314.551 10.4258 314.192 10.5065 313.879 10.668C313.572 10.8242 313.33 11.0482 313.153 11.3398C312.981 11.6315 312.895 11.9753 312.895 12.3711H311.45C311.45 11.793 311.595 11.2669 311.887 10.793C312.179 10.319 312.588 9.94141 313.114 9.66016C313.645 9.37891 314.259 9.23828 314.957 9.23828C315.645 9.23828 316.246 9.36068 316.762 9.60547C317.278 9.84505 317.679 10.2044 317.965 10.6836C318.252 11.1576 318.395 11.7487 318.395 12.457C318.395 12.7435 318.327 13.0508 318.192 13.3789C318.061 13.7018 317.856 14.0039 317.575 14.2852C317.298 14.5664 316.939 14.7982 316.496 14.9805C316.054 15.1576 315.522 15.2461 314.903 15.2461H313.668V14.3711ZM313.668 15.5586V14.6914H314.903C315.627 14.6914 316.226 14.7773 316.7 14.9492C317.173 15.1211 317.546 15.3503 317.817 15.6367C318.093 15.9232 318.285 16.2383 318.395 16.582C318.509 16.9206 318.567 17.2591 318.567 17.5977C318.567 18.1289 318.476 18.6003 318.293 19.0117C318.116 19.4232 317.864 19.7721 317.535 20.0586C317.213 20.3451 316.832 20.5612 316.395 20.707C315.957 20.8529 315.481 20.9258 314.965 20.9258C314.47 20.9258 314.004 20.8555 313.567 20.7148C313.134 20.5742 312.752 20.3711 312.418 20.1055C312.085 19.8346 311.825 19.5039 311.637 19.1133C311.45 18.7174 311.356 18.2669 311.356 17.7617H312.801C312.801 18.1576 312.887 18.5039 313.059 18.8008C313.236 19.0977 313.486 19.3294 313.809 19.4961C314.137 19.6576 314.522 19.7383 314.965 19.7383C315.408 19.7383 315.788 19.6628 316.106 19.5117C316.429 19.3555 316.676 19.1211 316.848 18.8086C317.025 18.4961 317.114 18.1029 317.114 17.6289C317.114 17.1549 317.015 16.7669 316.817 16.4648C316.619 16.1576 316.338 15.931 315.973 15.7852C315.614 15.6341 315.189 15.5586 314.7 15.5586H313.668Z" fill="white"/>
<circle cx="165" cy="15" r="14.5" fill="white" stroke="#FF7031"/>
<path d="M169.012 19.582V20.7695H161.567V19.7305L165.293 15.582C165.752 15.0716 166.106 14.6393 166.356 14.2852C166.611 13.9258 166.788 13.6055 166.887 13.3242C166.991 13.0378 167.043 12.7461 167.043 12.4492C167.043 12.0742 166.965 11.7357 166.809 11.4336C166.658 11.1263 166.434 10.8815 166.137 10.6992C165.84 10.5169 165.481 10.4258 165.059 10.4258C164.554 10.4258 164.132 10.5247 163.793 10.7227C163.46 10.9154 163.21 11.1862 163.043 11.5352C162.877 11.8841 162.793 12.2852 162.793 12.7383H161.348C161.348 12.0977 161.489 11.5117 161.77 10.9805C162.051 10.4492 162.468 10.0273 163.02 9.71484C163.572 9.39714 164.252 9.23828 165.059 9.23828C165.778 9.23828 166.392 9.36589 166.903 9.62109C167.413 9.87109 167.804 10.2253 168.075 10.6836C168.351 11.1367 168.489 11.668 168.489 12.2773C168.489 12.6107 168.431 12.9492 168.317 13.293C168.207 13.6315 168.054 13.9701 167.856 14.3086C167.663 14.6471 167.436 14.9805 167.176 15.3086C166.921 15.6367 166.647 15.9596 166.356 16.2773L163.309 19.582H169.012Z" fill="#474747"/>
<circle cx="465" cy="15" r="14.5" fill="white" stroke="#FF7031"/>
<path d="M469.246 16.9414V18.1289H461.028V17.2773L466.121 9.39453H467.301L466.035 11.6758L462.668 16.9414H469.246ZM467.66 9.39453V20.7695H466.215V9.39453H467.66Z" fill="#474747"/>
<circle cx="615" cy="15" r="14.5" fill="white" stroke="#FF7031"/>
<path d="M613.387 15.3555L612.231 15.0586L612.801 9.39453H618.637V10.7305H614.028L613.684 13.8242C613.892 13.7044 614.155 13.5924 614.473 13.4883C614.796 13.3841 615.166 13.332 615.582 13.332C616.108 13.332 616.58 13.4232 616.996 13.6055C617.413 13.7826 617.767 14.0378 618.059 14.3711C618.356 14.7044 618.582 15.1055 618.739 15.5742C618.895 16.043 618.973 16.5664 618.973 17.1445C618.973 17.6914 618.897 18.194 618.746 18.6523C618.601 19.1107 618.379 19.5117 618.082 19.8555C617.785 20.194 617.41 20.457 616.957 20.6445C616.509 20.832 615.981 20.9258 615.371 20.9258C614.913 20.9258 614.478 20.8633 614.067 20.7383C613.66 20.6081 613.296 20.4128 612.973 20.1523C612.655 19.8867 612.395 19.5586 612.192 19.168C611.994 18.7721 611.869 18.3086 611.817 17.7773H613.192C613.254 18.2044 613.379 18.5638 613.567 18.8555C613.754 19.1471 613.999 19.3685 614.301 19.5195C614.608 19.6654 614.965 19.7383 615.371 19.7383C615.715 19.7383 616.02 19.6784 616.285 19.5586C616.551 19.4388 616.775 19.2669 616.957 19.043C617.14 18.819 617.278 18.5482 617.371 18.2305C617.47 17.9128 617.52 17.556 617.52 17.1602C617.52 16.8008 617.47 16.4674 617.371 16.1602C617.272 15.8529 617.124 15.5846 616.926 15.3555C616.733 15.1263 616.496 14.9492 616.215 14.8242C615.934 14.694 615.611 14.6289 615.246 14.6289C614.762 14.6289 614.395 14.694 614.145 14.8242C613.9 14.9544 613.647 15.1315 613.387 15.3555Z" fill="#474747"/>
</svg>
