<svg width="68" height="68" viewBox="0 0 68 68" fill="none" xmlns="http://www.w3.org/2000/svg">
<path d="M33.9993 0.666504C15.6327 0.666504 0.666016 15.6332 0.666016 33.9998C0.666016 52.3665 15.6327 67.3332 33.9993 67.3332C52.366 67.3332 67.3327 52.3665 67.3327 33.9998C67.3327 15.6332 52.366 0.666504 33.9993 0.666504ZM49.9327 26.3332L31.0327 45.2332C30.566 45.6998 29.9327 45.9665 29.266 45.9665C28.5993 45.9665 27.966 45.6998 27.4993 45.2332L18.066 35.7998C17.0993 34.8332 17.0993 33.2332 18.066 32.2665C19.0327 31.2998 20.6327 31.2998 21.5993 32.2665L29.266 39.9332L46.3993 22.7998C47.366 21.8332 48.966 21.8332 49.9327 22.7998C50.8993 23.7665 50.8993 25.3332 49.9327 26.3332Z" fill="#00CE2D"/>
</svg>
