<svg width="17" height="17" viewBox="0 0 17 17" fill="none" xmlns="http://www.w3.org/2000/svg">
<g clip-path="url(#clip0_7_4230)">
<path d="M16.1075 11.5647L16.0886 8.73133V5.43995C16.1321 5.36849 16.1559 5.28676 16.1574 5.20312C16.1589 5.11947 16.1382 5.03692 16.0974 4.9639C16.0566 4.89089 15.9971 4.83003 15.925 4.78756C15.8529 4.74508 15.7709 4.72252 15.6872 4.72217H0.944444C0.693962 4.72217 0.453739 4.82167 0.276621 4.99879C0.0995037 5.17591 0 5.41613 0 5.66661L0 11.3333C0 11.5838 0.0995037 11.824 0.276621 12.0011C0.453739 12.1782 0.693962 12.2777 0.944444 12.2777H15.7014C15.7847 12.2777 15.8666 12.2556 15.9387 12.2137C16.0107 12.1718 16.0704 12.1116 16.1116 12.0392C16.1529 11.9668 16.1742 11.8847 16.1735 11.8014C16.1728 11.718 16.15 11.6364 16.1075 11.5647ZM4.96306 10.0016H4.43417L2.89472 7.95217V10.0063H2.36111V7.08328H2.89472L4.43889 9.13745V7.08328H4.96778L4.96306 10.0016ZM7.95222 7.5555H6.28528V8.25911H7.79639V8.73133H6.28528V9.49161H7.95222V9.96383H5.75167V7.08328H7.9475L7.95222 7.5555ZM11.8669 9.99217H11.3333L10.6014 7.82467L9.86944 10.0016H9.34056L8.39611 7.08328H8.97222L9.59556 9.17522L10.3133 7.08328H10.8894L11.5789 9.17522L12.2069 7.08328H12.7878L11.8669 9.99217Z" fill="#F26222"/>
</g>
<defs>
<clipPath id="clip0_7_4230">
<rect width="17" height="17" fill="white"/>
</clipPath>
</defs>
</svg>
