<svg width="28" height="28" viewBox="0 0 28 28" fill="none" xmlns="http://www.w3.org/2000/svg">
<path fill-rule="evenodd" clip-rule="evenodd" d="M2.13307 1.0687C1.84088 1.16016 1.49109 1.41305 1.30257 1.66909C0.971179 2.11924 0.992227 1.23998 1.00667 14.0139L1.01983 25.6295L1.14572 25.8837C1.30623 26.2078 1.61087 26.5124 1.93499 26.6729L2.1892 26.7988H14.0099H25.8306L26.0848 26.6729C26.2247 26.6037 26.4311 26.455 26.5436 26.3425C26.6562 26.23 26.8049 26.0235 26.8741 25.8837L27 25.6295V19.681V13.7325L26.8789 13.4645C26.7241 13.1221 26.2987 12.7265 25.9711 12.6204C25.8379 12.5772 23.6355 12.1278 21.0769 11.6216C18.5183 11.1153 16.3742 10.6889 16.3122 10.6738L16.1996 10.6464L16.1851 7.35834L16.1707 4.07024L16.0044 3.73255C15.6725 3.05859 15.3544 2.8989 13.9082 2.68043C13.335 2.59385 10.6058 2.17954 7.84336 1.75979C5.08098 1.34004 2.71302 0.998127 2.58124 1.00001C2.44951 1.00189 2.24782 1.0328 2.13307 1.0687ZM8.66624 2.98182C12.0054 3.48648 14.7784 3.92138 14.8286 3.94822C14.8788 3.97507 14.9554 4.04772 14.9987 4.10965C15.0694 4.21057 15.0776 5.34271 15.0776 14.9894V25.7566H13.4507H11.8237V23.1695C11.8237 20.1241 11.8375 20.2231 11.343 19.7314C10.853 19.2442 10.8762 19.2483 8.58311 19.2486C6.78763 19.2488 6.61925 19.2563 6.38136 19.3467C5.98749 19.4964 5.70206 19.7597 5.50917 20.1514L5.34139 20.4921L5.32654 23.1243L5.3117 25.7566H3.93607C2.3975 25.7566 2.28915 25.7367 2.14227 25.4272C2.07002 25.2749 2.06209 24.1403 2.06209 13.923C2.06209 5.62422 2.0775 2.54372 2.11959 2.42297C2.17171 2.27344 2.4189 2.06494 2.54468 2.06448C2.57239 2.06438 5.3271 2.47717 8.66624 2.98182ZM4.4968 6.30957C4.21514 6.46266 4.17975 6.91688 4.43112 7.15304L4.56153 7.27557H5.87523H7.18893L7.31934 7.15304C7.57523 6.91266 7.5343 6.45767 7.24333 6.30718C7.03793 6.20097 4.69285 6.20301 4.4968 6.30957ZM9.83697 6.38192C9.59512 6.62377 9.64789 7.04256 9.94206 7.21633C10.0649 7.28889 10.2572 7.30099 11.2875 7.30099C12.6399 7.30099 12.7401 7.27963 12.8725 6.96279C12.9653 6.74056 12.8972 6.48858 12.7029 6.3358C12.58 6.23915 12.499 6.23331 11.2791 6.23331H9.98558L9.83697 6.38192ZM4.4968 9.56345C4.21514 9.71653 4.17975 10.1708 4.43112 10.4069L4.56153 10.5294H5.87523H7.18893L7.31934 10.4069C7.57523 10.1665 7.5343 9.71155 7.24333 9.56106C7.03793 9.45485 4.69285 9.45688 4.4968 9.56345ZM9.83697 9.63579C9.59512 9.87765 9.64789 10.2964 9.94206 10.4702C10.0649 10.5428 10.2572 10.5549 11.2875 10.5549C12.6399 10.5549 12.7401 10.5335 12.8725 10.2167C12.9653 9.99443 12.8972 9.74246 12.7029 9.58968C12.58 9.49303 12.499 9.48718 11.2791 9.48718H9.98558L9.83697 9.63579ZM20.9182 12.6936C23.4802 13.1988 25.6298 13.6468 25.6951 13.689C25.9662 13.8646 25.9577 13.6709 25.9577 19.6844C25.9577 25.8629 25.9771 25.5109 25.6284 25.6764C25.4783 25.7476 24.9403 25.7566 20.8278 25.7566H16.1961V18.7658C16.1961 14.9209 16.2105 11.7751 16.228 11.7751C16.2456 11.7751 18.3561 12.1884 20.9182 12.6936ZM4.4968 12.8173C4.21514 12.9704 4.17975 13.4246 4.43112 13.6608L4.56153 13.7833H5.87523H7.18893L7.31934 13.6608C7.57523 13.4204 7.5343 12.9654 7.24333 12.8149C7.03793 12.7087 4.69285 12.7108 4.4968 12.8173ZM9.83697 12.8897C9.59512 13.1315 9.64789 13.5503 9.94206 13.7241C10.0649 13.7966 10.2572 13.8087 11.2875 13.8087C12.6399 13.8087 12.7401 13.7874 12.8725 13.4705C12.9653 13.2483 12.8972 12.9963 12.7029 12.8436C12.58 12.7469 12.499 12.7411 11.2791 12.7411H9.98558L9.83697 12.8897ZM4.4968 16.0712C4.21514 16.2243 4.17975 16.6785 4.43112 16.9147L4.56153 17.0372H5.87523H7.18893L7.31934 16.9147C7.57523 16.6743 7.5343 16.2193 7.24333 16.0688C7.03793 15.9626 4.69285 15.9646 4.4968 16.0712ZM9.83697 16.1435C9.59512 16.3854 9.64789 16.8042 9.94206 16.978C10.0649 17.0505 10.2572 17.0626 11.2875 17.0626C12.6399 17.0626 12.7401 17.0413 12.8725 16.7244C12.9653 16.5022 12.8972 16.2502 12.7029 16.0974C12.58 16.0008 12.499 15.9949 11.2791 15.9949H9.98558L9.83697 16.1435ZM19.5986 16.1435C19.3567 16.3854 19.4095 16.8042 19.7037 16.978C19.8265 17.0505 20.0188 17.0626 21.0492 17.0626C22.4016 17.0626 22.5017 17.0413 22.6341 16.7244C22.7269 16.5022 22.6588 16.2502 22.4646 16.0974C22.3417 16.0008 22.2606 15.9949 21.0407 15.9949H19.7472L19.5986 16.1435ZM19.5986 19.3974C19.3567 19.6393 19.4095 20.0581 19.7037 20.2318C19.8265 20.3044 20.0188 20.3165 21.0492 20.3165C22.4016 20.3165 22.5017 20.2951 22.6341 19.9783C22.7269 19.7561 22.6588 19.5041 22.4646 19.3513C22.3417 19.2547 22.2606 19.2488 21.0407 19.2488H19.7472L19.5986 19.3974ZM10.5897 20.4828L10.7306 20.6238L10.7447 23.1902L10.7587 25.7566H8.59664H6.43449V23.2423C6.43449 21.556 6.45249 20.6884 6.48919 20.608C6.51929 20.5419 6.60506 20.4494 6.67985 20.4025C6.80157 20.326 7.00575 20.3184 8.63228 20.3295L10.4488 20.3419L10.5897 20.4828ZM19.5986 22.6513C19.3567 22.8932 19.4095 23.3119 19.7037 23.4857C19.8265 23.5583 20.0188 23.5704 21.0492 23.5704C22.4016 23.5704 22.5017 23.549 22.6341 23.2322C22.7269 23.0099 22.6588 22.758 22.4646 22.6052C22.3417 22.5085 22.2606 22.5027 21.0407 22.5027H19.7472L19.5986 22.6513Z" fill="#474747" stroke="#474747" stroke-width="0.5"/>
</svg>
