<svg width="26" height="30" viewBox="0 0 26 30" fill="none" xmlns="http://www.w3.org/2000/svg">
<path fill-rule="evenodd" clip-rule="evenodd" d="M17.4341 0.0601034C17.0194 0.226853 16.0642 2.3376 15.6842 3.92694L15.5386 4.53552L15.1036 4.23129C13.5692 3.15842 11.7671 2.81516 10.0177 3.26244C9.50154 3.39442 9.44539 3.39918 9.39378 3.31535C8.50241 1.86809 7.57354 1.13507 6.30545 0.878141C5.75744 0.767088 5.06509 0.788641 4.51607 0.933895C3.7784 1.129 2.65023 1.81529 2.14811 2.37435C1.9872 2.55352 1.93542 2.65998 1.93542 2.81142C1.93542 3.12421 2.36188 3.89937 2.83331 4.44347C2.96337 4.59354 3.06977 4.73828 3.06977 4.76517C3.06977 4.79205 2.97409 4.84463 2.85708 4.88206C2.36551 5.03923 1.8428 5.36791 1.41889 5.78643C0.795903 6.40147 0.413909 7.06138 0.146373 7.98463C-0.0136845 8.53683 -0.039718 8.82666 0.0547735 9.00316C0.123062 9.13078 0.798001 9.52979 1.17659 9.66636C1.29757 9.71004 1.47101 9.77486 1.56199 9.81043L1.72732 9.87503L1.52501 10.0856C1.0568 10.5728 0.705438 11.2731 0.539539 12.0498C0.394172 12.7304 0.436143 14.0781 0.613555 14.4268C0.700333 14.5974 0.987324 14.7484 1.22463 14.7484C1.40148 14.7484 1.40284 14.7767 1.23637 14.9983C0.714059 15.6935 0.45157 16.5994 0.454179 17.6977C0.456561 18.6934 0.55973 19.0959 0.845927 19.2263C1.14137 19.3609 2.0746 19.4233 2.70212 19.3503C3.03126 19.3121 3.34201 19.2649 3.39277 19.2454C3.46827 19.2164 3.47745 19.2349 3.4432 19.3471C3.42017 19.4226 3.38744 19.7408 3.37043 20.0543C3.34513 20.5209 3.36135 20.7107 3.46021 21.1015C3.72333 22.1421 4.29787 22.9964 5.24222 23.7513C5.85347 24.24 6.01664 24.2423 6.60855 23.7713C7.92531 22.7235 8.56689 21.4539 8.50048 20.0271C8.48516 19.6974 8.45221 19.3789 8.42731 19.3192C8.38812 19.2254 8.40043 19.216 8.51925 19.2487C8.95785 19.3698 9.78485 19.4175 10.3318 19.3533C11.2512 19.2455 11.31 19.1841 11.4037 18.2363C11.5259 17.0019 11.2444 15.8234 10.6304 14.9983C10.5585 14.9018 10.4998 14.8094 10.4998 14.7931C10.4998 14.7767 10.6028 14.7496 10.7288 14.7327C11.0101 14.6949 11.2252 14.5602 11.2942 14.3787C11.3229 14.3034 11.3733 13.9758 11.4064 13.6507C11.5056 12.6758 11.3447 11.7244 10.9474 10.9367L10.7842 10.613L10.9681 10.5847C11.0693 10.5691 11.2749 10.5406 11.425 10.5214C11.8345 10.4691 12.0137 10.2774 12.0861 9.814C12.1178 9.61123 12.1439 9.34058 12.1441 9.21251L12.1446 8.97974L12.8521 8.94917C14.0035 8.89948 14.0872 8.79728 14.0948 7.43186C14.0982 6.81699 14.0745 6.51644 14.0006 6.24079C13.8649 5.7351 13.5547 5.12016 13.2408 4.73482C12.9447 4.37132 12.9628 4.36741 13.6044 4.65599C14.3549 4.99357 15.185 5.69063 15.6619 6.38378C15.9357 6.78176 16.2681 7.52981 16.4076 8.06182C16.5307 8.53161 16.5327 8.60319 16.5536 13.529C16.5652 16.2741 16.567 18.7243 16.5575 18.9739L16.5402 19.4276L16.2735 18.9299C15.703 17.8657 14.9051 16.805 14.17 16.1338C13.4561 15.482 13.1266 15.5273 12.8063 16.3217C11.8266 18.7505 11.8993 21.9277 12.9982 24.7124C13.3558 25.6188 14.0738 26.8465 14.6673 27.5666L14.9244 27.8786L10.3441 27.9069C5.52842 27.9367 5.58962 27.9332 5.45321 28.1881C5.37857 28.3276 5.37874 28.621 5.45361 28.7608C5.61134 29.0556 5.12465 29.0413 15.0088 29.0413C24.893 29.0413 24.4063 29.0556 24.564 28.7608C24.6389 28.621 24.6391 28.3276 24.5644 28.1881C24.4335 27.9435 24.3644 27.9365 21.7689 27.9069L19.2841 27.8786L19.7689 27.5195C20.5998 26.9043 22.2698 25.2197 22.5159 24.7487C22.7276 24.3433 22.3543 23.8653 21.9034 23.9643C21.7841 23.9905 21.6262 24.1218 21.4033 24.3803C20.4204 25.5202 19.4004 26.4467 18.389 27.1181C18.0644 27.3336 17.7773 27.5099 17.7509 27.5099C17.6766 27.5099 17.6963 26.5837 17.7846 25.9201C18.0039 24.2731 18.4655 22.8018 19.2612 21.2128C20.4455 18.8481 22.3562 16.6707 24.3495 15.4145C24.6344 15.235 24.8741 15.0946 24.8822 15.1027C24.9204 15.1409 24.7861 16.7634 24.7074 17.2156C24.5754 17.9733 24.3154 18.9606 24.0572 19.6844C23.9314 20.0372 23.8284 20.3849 23.8284 20.4572C23.8284 20.5294 23.9024 20.6713 23.9928 20.7725C24.2098 21.0154 24.5466 21.0322 24.7678 20.8111C25.0756 20.5033 25.6582 18.5203 25.8743 17.0455C26.0142 16.0899 26.0455 14.2406 25.9266 13.9534C25.846 13.7589 25.6143 13.6141 25.3838 13.6141C25.2267 13.6141 24.3951 14.0388 23.8001 14.4229C23.5557 14.5807 23.4551 14.6203 23.4433 14.5634C23.4342 14.5199 23.4772 14.2565 23.5389 13.9783C23.6804 13.339 23.855 12.2454 23.95 11.4021C24.0625 10.4039 24.0459 7.80659 23.9213 6.89304C23.7926 5.95023 23.5715 4.86891 23.4656 4.66398C23.3244 4.391 22.9492 4.28749 22.7095 4.45538C22.3129 4.73324 21.2224 6.06548 20.5321 7.11572L20.085 7.79576L20.0845 7.20261C20.0824 4.88308 19.3372 2.13585 18.2485 0.433986C17.9795 0.0133681 17.7791 -0.0785711 17.4341 0.0601034ZM17.9496 2.30652C18.9483 4.64436 19.2079 7.51036 18.6655 10.2076C18.5317 10.8729 18.1438 12.0928 17.8891 12.6499L17.7204 13.0185L17.6887 10.7498C17.6612 8.77828 17.6423 8.41427 17.545 7.97068C17.3966 7.29506 17.1387 6.64184 16.7936 6.06746L16.5116 5.59835L16.6002 5.08296C16.6489 4.79954 16.7515 4.31891 16.8281 4.01491C17.0656 3.07266 17.6091 1.69958 17.7058 1.7977C17.7316 1.82379 17.8412 2.05276 17.9496 2.30652ZM6.21521 2.01709C6.95158 2.20891 7.64087 2.72152 8.13425 3.44433L8.39776 3.83029L8.19154 4.00839C7.42273 4.67221 6.26904 5.01484 5.44567 4.82376C4.67924 4.64589 3.8996 4.07333 3.40763 3.32704L3.17855 2.97953L3.4082 2.77296C3.70818 2.50304 4.44698 2.12122 4.86522 2.01992C5.30892 1.9125 5.80968 1.91148 6.21521 2.01709ZM11.0751 4.64306C12.282 4.97769 12.991 6.0036 12.9944 7.41989L12.9953 7.83331L12.511 7.81692L12.0267 7.80052L11.8435 7.34678C11.6252 6.80638 11.4037 6.47254 10.9984 6.07336C10.5071 5.58956 9.7207 5.19123 9.03385 5.07842C8.74022 5.03015 8.76172 5.00083 9.28278 4.7384C9.64663 4.55509 9.71718 4.5396 10.1891 4.53943C10.5113 4.53932 10.8394 4.57772 11.0751 4.64306ZM4.82801 5.86787C5.23961 5.9559 5.77452 6.14556 5.92828 6.25792C6.02368 6.32768 6.01954 6.35672 5.85216 6.79072C5.1116 8.71113 3.42567 9.3986 1.49585 8.56712C1.33205 8.49656 1.19809 8.41563 1.19809 8.38727C1.19809 8.21417 1.5853 7.38286 1.82476 7.04187C2.53174 6.03513 3.62033 5.60958 4.82801 5.86787ZM8.88332 6.21306C10.2451 6.50022 11.0683 7.61426 10.9993 9.07667L10.9819 9.44534L10.6767 9.46275C9.91099 9.50642 9.00067 9.20446 8.49622 8.73943C8.01826 8.2989 7.66389 7.37974 7.66389 6.58076C7.66389 6.14437 7.68079 6.12724 8.10952 6.12832C8.31677 6.12889 8.66496 6.167 8.88332 6.21306ZM22.7436 6.65199C23.1223 9.26628 22.8794 12.3396 22.0647 15.2409L21.8954 15.8437L21.1701 16.5948C20.0145 17.7913 19.1373 19.0102 18.3148 20.562L17.9239 21.2993L17.9509 19.5694C17.9832 17.5031 18.0971 16.5553 18.5301 14.7495C19.2612 11.7007 20.475 9.0246 22.1333 6.80615C22.3891 6.46403 22.6157 6.18407 22.6371 6.18407C22.6584 6.18407 22.7063 6.39467 22.7436 6.65199ZM6.85845 8.26941C6.93014 8.44824 7.00206 8.62395 7.01828 8.6598C7.04839 8.72633 6.6077 8.83347 6.54831 8.77408C6.50759 8.73336 6.64315 7.94203 6.69062 7.94328C6.71121 7.94379 6.7867 8.09058 6.85845 8.26941ZM5.32344 9.95023C5.38646 10.0132 5.33399 11.1131 5.25288 11.4305C5.04984 12.2245 4.52117 12.939 3.87765 13.2892C3.43435 13.5304 2.79979 13.6708 2.15321 13.6708H1.59511L1.59063 13.4297C1.57282 12.4687 1.65909 11.9886 1.9467 11.4472C2.38553 10.6213 3.17078 10.0839 4.16022 9.9322C4.50211 9.87985 5.26485 9.89165 5.32344 9.95023ZM7.79673 9.95392C8.72616 10.1196 9.50852 10.6557 9.89403 11.391C10.206 11.9862 10.3715 12.8169 10.2943 13.3996L10.2566 13.684L9.56995 13.6579C8.78741 13.6283 8.33571 13.5044 7.85214 13.1871C6.95895 12.6009 6.52954 11.7329 6.52954 10.5137V9.93498L6.68551 9.91133C7.00421 9.86306 7.3642 9.87684 7.79673 9.95392ZM5.33762 15.0462C5.33717 15.3659 5.29832 15.7908 5.2513 15.9904C5.00321 17.0427 4.22851 17.8406 3.17577 18.1278C2.80059 18.2303 1.76577 18.2921 1.65937 18.2185C1.55166 18.1441 1.56624 17.1508 1.68155 16.7088C2.05464 15.2781 3.1642 14.4771 4.78548 14.468L5.33847 14.4648L5.33762 15.0462ZM7.93886 14.5461C8.13692 14.5885 8.48148 14.7135 8.70455 14.8238C9.71883 15.3251 10.2692 16.2784 10.2913 17.5722C10.2992 18.0352 10.2837 18.1677 10.2162 18.2139C10.1645 18.2493 9.9052 18.261 9.55611 18.2437C8.25092 18.1792 7.30215 17.6054 6.84279 16.6029C6.59976 16.0724 6.52954 15.7198 6.52954 15.0292V14.4648L7.05418 14.4668C7.34276 14.4679 7.74086 14.5036 7.93886 14.5461ZM14.7064 18.5178C15.5907 19.833 16.1848 21.4144 16.4287 23.1023C16.6041 24.3156 16.4995 26.0836 16.1882 27.1688L16.099 27.48L15.7894 27.1404C15.3868 26.6988 14.7569 25.7555 14.4302 25.1049C13.23 22.7153 12.9182 19.8945 13.5938 17.5411L13.6795 17.2426L14.0222 17.6262C14.2106 17.8371 14.5185 18.2383 14.7064 18.5178ZM6.22707 17.8254C6.54208 18.115 6.86123 18.5368 7.05509 18.9195C7.65822 20.1105 7.41456 21.382 6.37884 22.4484L5.96713 22.8723L5.73016 22.6847C5.59988 22.5815 5.38226 22.3556 5.24659 22.1827C4.23679 20.8962 4.2335 19.545 5.23706 18.2794C5.46875 17.9872 5.88098 17.5843 5.94819 17.5843C5.95737 17.5843 6.08289 17.6928 6.22707 17.8254Z" fill="#474747"/>
</svg>
