<svg width="28" height="28" viewBox="0 0 28 28" fill="none" xmlns="http://www.w3.org/2000/svg">
<path fill-rule="evenodd" clip-rule="evenodd" d="M15.0117 1.14843L14.8633 1.29687V13.5684V25.8399L15.0117 25.9883C15.1403 26.1169 15.198 26.1367 15.4434 26.1367H15.7266V26.5684C15.7266 26.8067 15.9198 27 16.1582 27C16.3966 27 16.5898 26.8067 16.5898 26.5684V26.1367H20.9316H25.2734V26.5684C25.2734 26.8067 25.4667 27 25.7051 27C25.9435 27 26.1367 26.8067 26.1367 26.5684V26.1367H26.4199C26.6653 26.1367 26.723 26.1169 26.8516 25.9883L27 25.8399V13.5684V1.29687L26.8516 1.14843L26.7031 1H20.9316H15.1601L15.0117 1.14843ZM26.1367 5.54492V9.22656H20.9316H15.7266V5.54492V1.86328H20.9316H26.1367V5.54492ZM17.0469 6.20508V7.93164C17.0469 8.17003 17.2401 8.36328 17.4785 8.36328C17.7169 8.36328 17.9102 8.17003 17.9102 7.93164V6.20508V4.47852C17.9102 4.24013 17.7169 4.04688 17.4785 4.04688C17.2401 4.04688 17.0469 4.24013 17.0469 4.47852V6.20508ZM1.14843 10.2383L1 10.3867V18.1133V25.8399L1.14843 25.9883C1.27701 26.1169 1.33475 26.1367 1.58007 26.1367H1.86328V26.5684C1.86328 26.8067 2.05653 27 2.29492 27C2.53331 27 2.72656 26.8067 2.72656 26.5684V26.1367H7.5H12.2734V26.5684C12.2734 26.8067 12.4667 27 12.7051 27C12.9435 27 13.1367 26.8067 13.1367 26.5684V26.1367H13.4199C13.6652 26.1367 13.723 26.1169 13.8516 25.9883L14 25.8399V18.1133V10.3867L13.8516 10.2383L13.7031 10.0898H7.5H1.29687L1.14843 10.2383ZM26.1367 17.6816V25.2734H20.9316H15.7266V17.6816V10.0898H20.9316H26.1367V17.6816ZM13.1367 12.248V13.543H7.5H1.86328V12.248V10.9531H7.5H13.1367V12.248ZM17.0469 14V16.6152C17.0469 16.8536 17.2401 17.0469 17.4785 17.0469C17.7169 17.0469 17.9102 16.8536 17.9102 16.6152V14V11.3848C17.9102 11.1464 17.7169 10.9531 17.4785 10.9531C17.2401 10.9531 17.0469 11.1464 17.0469 11.3848V14ZM2.72656 12.248C2.72656 12.4864 2.91981 12.6797 3.1582 12.6797C3.39659 12.6797 3.58984 12.4864 3.58984 12.248C3.58984 12.0097 3.39659 11.8164 3.1582 11.8164C2.91981 11.8164 2.72656 12.0097 2.72656 12.248ZM4.487 11.8503C4.46836 11.8689 4.45312 12.0631 4.45312 12.2819C4.45312 12.5016 4.63121 12.6797 4.85089 12.6797H4.88477C5.12315 12.6797 5.31641 12.4864 5.31641 12.248V12.2142C5.31641 11.9945 5.13832 11.8164 4.91864 11.8164C4.69982 11.8164 4.50558 11.8316 4.487 11.8503ZM6.21356 11.8503C6.19492 11.8689 6.17969 12.0631 6.17969 12.2819C6.17969 12.5016 6.35777 12.6797 6.57746 12.6797H6.61133C6.84972 12.6797 7.04297 12.4864 7.04297 12.248V12.2142C7.04297 11.9945 6.86488 11.8164 6.6452 11.8164C6.42638 11.8164 6.23214 11.8316 6.21356 11.8503ZM9.68359 12.248C9.68359 12.4864 9.87685 12.6797 10.1152 12.6797H10.9785H11.8418C12.0802 12.6797 12.2734 12.4864 12.2734 12.248C12.2734 12.0097 12.0802 11.8164 11.8418 11.8164H10.9785H10.1152C9.87685 11.8164 9.68359 12.0097 9.68359 12.248ZM13.1367 19.8652V25.2734H7.5H1.86328V19.8652V14.457H7.5H13.1367V19.8652ZM6.91602 14.8992C4.70332 15.1995 3.0278 16.9103 2.76668 19.1358C2.65247 20.1091 2.89373 21.2022 3.4182 22.0875C3.75148 22.6501 4.48659 23.3852 5.0492 23.7185C6.98066 24.8627 9.43776 24.5203 10.9598 22.8949C12.8939 20.8297 12.6315 17.581 10.391 15.8515C9.44319 15.1199 8.06758 14.7429 6.91602 14.8992ZM8.16016 15.7983C8.36963 15.8358 8.7124 15.9333 8.92188 16.015C9.30624 16.1649 9.88672 16.5036 9.88672 16.5781C9.88672 16.6003 9.7553 16.748 9.59473 16.9064L9.30273 17.1943L9.03821 17.0269C8.45215 16.6558 7.56718 16.5059 6.85711 16.6573C4.90574 17.0734 3.88255 19.2193 4.783 21.0074C4.99633 21.431 5.49947 21.9815 5.88617 22.2145C6.8663 22.8048 8.12375 22.8081 9.04675 22.2227L9.29364 22.0661L9.60285 22.3767L9.91211 22.6873L9.78516 22.7862C9.53414 22.9818 8.88348 23.2898 8.51273 23.3885C7.99039 23.5275 7.49015 23.5651 7.02403 23.5002C5.27619 23.2571 3.95872 21.9945 3.65865 20.275C3.2004 17.6489 5.53416 15.328 8.16016 15.7983ZM10.782 17.542C11.3608 18.4123 11.5415 19.6162 11.2509 20.665C11.1504 21.0278 10.8391 21.6785 10.6496 21.9219L10.5508 22.0488L9.88865 21.3894L9.22656 20.73V19.6333V18.5367L9.86569 17.8933C10.2173 17.5395 10.5235 17.25 10.5463 17.25C10.5691 17.25 10.6751 17.3814 10.782 17.542ZM7.88218 17.5084C8.04681 17.5389 8.29336 17.6205 8.43016 17.6898L8.67889 17.8159L8.57819 17.9265C8.37146 18.1537 8.36328 18.2194 8.36328 19.6511V21.0434L8.5174 21.2561L8.67152 21.4689L8.40314 21.5911C7.09984 22.185 5.58976 21.3769 5.35495 19.9599C5.17828 18.8938 5.88155 17.8218 6.93882 17.5459C7.3376 17.4417 7.48878 17.4357 7.88218 17.5084Z" fill="#474747" stroke="#474747" stroke-width="0.2"/>
</svg>
