<svg width="28" height="28" viewBox="0 0 28 28" fill="none" xmlns="http://www.w3.org/2000/svg">
<mask id="path-1-outside-1_1238_7330" maskUnits="userSpaceOnUse" x="0" y="0" width="28" height="28" fill="black">
<rect fill="white" width="28" height="28"/>
<path fill-rule="evenodd" clip-rule="evenodd" d="M23.2573 1.01759C23.1874 1.02975 22.9584 1.0644 22.7486 1.09447C22.2724 1.16279 21.4392 1.40059 20.8505 1.63621C20.3538 1.83503 20.2324 1.95755 20.2324 2.26047C20.2324 2.51363 20.3678 2.70244 20.5941 2.76491C20.7583 2.81024 20.8634 2.78862 21.4622 2.58654C22.3572 2.28448 22.9094 2.1636 23.5713 2.12483C24.479 2.07166 25.102 2.26199 25.5098 2.71704C25.7879 3.02744 25.9061 3.35122 25.9399 3.89484C25.9968 4.80956 25.653 6.14172 24.9655 7.67053L24.8319 7.9674L24.3808 7.28895C21.432 2.85369 16.1562 0.79185 11.065 2.08489C9.37578 2.51394 7.76216 3.32192 6.36615 4.4377C3.26636 6.91526 1.51685 10.8634 1.7864 14.7729C1.85218 15.7277 1.93878 16.2641 2.17042 17.1526C2.71155 19.2283 3.73153 21.0219 5.2697 22.6029C6.08953 23.4456 6.83707 24.0395 7.88936 24.6838L8.06432 24.791L7.61213 24.9999C6.56574 25.4833 5.43657 25.8284 4.58993 25.9237C3.20404 26.0795 2.41153 25.6139 2.16258 24.4977C2.00624 23.7966 2.16452 22.7019 2.59657 21.4962C2.81152 20.8964 2.84642 20.6586 2.73953 20.523C2.52742 20.2539 2.14081 20.1892 1.91629 20.3854C1.68785 20.585 1.22858 21.9509 1.08231 22.8657C0.788955 24.6998 1.28653 26.0608 2.46622 26.6511C2.94818 26.8922 3.32904 26.9855 3.97493 27.0205C5.18275 27.0861 6.86154 26.6163 8.68106 25.7035C9.24594 25.4202 9.30298 25.4018 9.44421 25.458C10.3424 25.8155 11.6037 26.1418 12.624 26.2803C13.4041 26.3863 15.0598 26.3608 15.8784 26.2301C19.9599 25.5785 23.3146 23.1234 25.1355 19.4551C26.0462 17.6208 26.4706 15.6502 26.3955 13.606C26.3426 12.1656 26.145 11.1594 25.6403 9.75949L25.4366 9.19455L25.6729 8.72409C26.146 7.78205 26.5855 6.61346 26.793 5.74555C27.3795 3.29246 26.7112 1.668 24.8957 1.13405C24.5656 1.03698 23.5576 0.965341 23.2573 1.01759ZM15.1063 2.87145C17.697 3.14069 19.9612 4.1794 21.8293 5.95567C22.6716 6.75657 23.5447 7.9155 24.0021 8.83984L24.1899 9.21933L23.8397 9.82278C22.8588 11.5136 21.3406 13.5394 19.6008 15.4788C18.6375 16.5526 18.5766 16.6342 18.5766 16.8494C18.5766 17.1123 18.8508 17.371 19.1294 17.371C19.3919 17.371 19.4855 17.2899 20.3475 16.3155C21.7713 14.7061 22.8867 13.2631 23.9979 11.593L24.7249 10.5004L24.8088 10.7889C25.1693 12.0291 25.2599 12.68 25.2611 14.0385C25.2622 15.2675 25.2047 15.7612 24.9379 16.813C23.6276 21.979 18.6837 25.5762 13.4018 25.2069C12.3084 25.1304 10.5357 24.7692 10.6718 24.6506C10.6962 24.6293 11.071 24.3991 11.5047 24.1388C12.7506 23.3914 14.758 21.9801 15.014 21.6716C15.1054 21.5615 15.0946 21.1614 14.9962 21.0113C14.8904 20.8499 14.5992 20.7551 14.4107 20.8209C14.3317 20.8484 14.0062 21.0728 13.6873 21.3195C12.6253 22.1408 11.2855 23.0211 9.9045 23.8047L9.29636 24.1497L8.91239 23.9599C8.7012 23.8555 8.2718 23.6007 7.95809 23.3937C3.89525 20.7124 2.02069 15.8182 3.2626 11.1343C4.45999 6.61819 8.47149 3.26188 13.1582 2.85491C13.6204 2.81477 14.6445 2.82347 15.1063 2.87145ZM19.9758 6.79427C19.1131 6.89842 18.3015 7.18521 17.6731 7.60795C17.5404 7.69719 15.5196 9.67849 13.1824 12.0109L8.9329 16.2517H8.21553C7.82098 16.2517 7.42088 16.2668 7.32645 16.2852C7.19524 16.3109 6.9871 16.4839 6.44363 17.0189C5.75985 17.6921 5.73247 17.7271 5.73247 17.9268C5.73247 18.3103 5.8207 18.3565 7.81615 19.0187C8.79553 19.3437 9.64304 19.6095 9.69946 19.6095C9.75593 19.6095 10.4656 19.3447 11.2767 19.021L12.7512 18.4325L13.7052 17.4825C14.2299 16.96 14.6591 16.5474 14.6591 16.5656C14.6591 16.6322 15.8291 20.3791 15.879 20.4723C15.9073 20.5251 15.9913 20.6162 16.0658 20.6749C16.2199 20.796 16.4377 20.7802 16.7451 20.6254C16.9647 20.5148 17.9977 19.4635 18.0677 19.2793C18.0998 19.195 18.1187 18.0246 18.1187 16.1334V13.1219L19.242 12.003C20.3908 10.8585 20.7149 10.4734 20.9671 9.95272C21.2794 9.30791 21.4758 8.37767 21.4763 7.53978C21.4766 7.1235 21.4675 7.08519 21.3324 6.93403C21.1963 6.78161 21.166 6.77194 20.7855 6.75891C20.564 6.75133 20.1996 6.76726 19.9758 6.79427ZM20.1741 8.09861C20.1191 8.56149 19.9496 9.15685 19.7648 9.53589C19.5958 9.88266 19.4542 10.0433 18.2128 11.2967L16.8468 12.676V15.7516V18.8274L16.6978 18.9701L16.5488 19.1128L16.3685 18.5345C16.2693 18.2163 15.9937 17.3264 15.756 16.5569C15.3855 15.3571 15.3038 15.1415 15.1823 15.0436C15.0153 14.9089 14.8182 14.8977 14.593 15.0102C14.5034 15.0548 13.8807 15.6371 13.2091 16.3041L11.9881 17.5167L10.7681 18.0035C10.0971 18.2712 9.5247 18.491 9.49616 18.4919C9.40229 18.4948 7.23152 17.7533 7.23126 17.7183C7.23116 17.6994 7.29033 17.6136 7.36278 17.5275L7.4945 17.371H8.36552H9.23653L13.6649 12.9531C17.9547 8.67347 18.106 8.52872 18.5003 8.32791C19.0249 8.06071 19.4972 7.92685 20.1401 7.86315C20.1854 7.85867 20.1948 7.92405 20.1741 8.09861ZM8.82789 9.55797C8.61415 9.65097 7.02343 10.7187 6.91908 10.8392C6.72422 11.0642 6.76604 11.4271 7.00893 11.6181C7.07858 11.6729 7.94181 11.9861 8.92715 12.3141C10.8853 12.966 10.8903 12.9668 11.1563 12.682C11.3256 12.5008 11.3485 12.2518 11.2165 12.0284C11.1117 11.8509 11.0703 11.8318 10.0039 11.4667C9.52816 11.3039 9.02972 11.1325 8.89621 11.0859L8.65343 11.001L8.93045 10.8027L9.20743 10.6043L11.1574 10.6041C12.999 10.6039 13.1164 10.5984 13.2696 10.505C13.606 10.2999 13.5852 9.74932 13.2346 9.57415C13.0737 9.49376 12.8594 9.48536 11.0214 9.48709C9.42406 9.48857 8.95223 9.50383 8.82789 9.55797Z"/>
</mask>
<path fill-rule="evenodd" clip-rule="evenodd" d="M23.2573 1.01759C23.1874 1.02975 22.9584 1.0644 22.7486 1.09447C22.2724 1.16279 21.4392 1.40059 20.8505 1.63621C20.3538 1.83503 20.2324 1.95755 20.2324 2.26047C20.2324 2.51363 20.3678 2.70244 20.5941 2.76491C20.7583 2.81024 20.8634 2.78862 21.4622 2.58654C22.3572 2.28448 22.9094 2.1636 23.5713 2.12483C24.479 2.07166 25.102 2.26199 25.5098 2.71704C25.7879 3.02744 25.9061 3.35122 25.9399 3.89484C25.9968 4.80956 25.653 6.14172 24.9655 7.67053L24.8319 7.9674L24.3808 7.28895C21.432 2.85369 16.1562 0.79185 11.065 2.08489C9.37578 2.51394 7.76216 3.32192 6.36615 4.4377C3.26636 6.91526 1.51685 10.8634 1.7864 14.7729C1.85218 15.7277 1.93878 16.2641 2.17042 17.1526C2.71155 19.2283 3.73153 21.0219 5.2697 22.6029C6.08953 23.4456 6.83707 24.0395 7.88936 24.6838L8.06432 24.791L7.61213 24.9999C6.56574 25.4833 5.43657 25.8284 4.58993 25.9237C3.20404 26.0795 2.41153 25.6139 2.16258 24.4977C2.00624 23.7966 2.16452 22.7019 2.59657 21.4962C2.81152 20.8964 2.84642 20.6586 2.73953 20.523C2.52742 20.2539 2.14081 20.1892 1.91629 20.3854C1.68785 20.585 1.22858 21.9509 1.08231 22.8657C0.788955 24.6998 1.28653 26.0608 2.46622 26.6511C2.94818 26.8922 3.32904 26.9855 3.97493 27.0205C5.18275 27.0861 6.86154 26.6163 8.68106 25.7035C9.24594 25.4202 9.30298 25.4018 9.44421 25.458C10.3424 25.8155 11.6037 26.1418 12.624 26.2803C13.4041 26.3863 15.0598 26.3608 15.8784 26.2301C19.9599 25.5785 23.3146 23.1234 25.1355 19.4551C26.0462 17.6208 26.4706 15.6502 26.3955 13.606C26.3426 12.1656 26.145 11.1594 25.6403 9.75949L25.4366 9.19455L25.6729 8.72409C26.146 7.78205 26.5855 6.61346 26.793 5.74555C27.3795 3.29246 26.7112 1.668 24.8957 1.13405C24.5656 1.03698 23.5576 0.965341 23.2573 1.01759ZM15.1063 2.87145C17.697 3.14069 19.9612 4.1794 21.8293 5.95567C22.6716 6.75657 23.5447 7.9155 24.0021 8.83984L24.1899 9.21933L23.8397 9.82278C22.8588 11.5136 21.3406 13.5394 19.6008 15.4788C18.6375 16.5526 18.5766 16.6342 18.5766 16.8494C18.5766 17.1123 18.8508 17.371 19.1294 17.371C19.3919 17.371 19.4855 17.2899 20.3475 16.3155C21.7713 14.7061 22.8867 13.2631 23.9979 11.593L24.7249 10.5004L24.8088 10.7889C25.1693 12.0291 25.2599 12.68 25.2611 14.0385C25.2622 15.2675 25.2047 15.7612 24.9379 16.813C23.6276 21.979 18.6837 25.5762 13.4018 25.2069C12.3084 25.1304 10.5357 24.7692 10.6718 24.6506C10.6962 24.6293 11.071 24.3991 11.5047 24.1388C12.7506 23.3914 14.758 21.9801 15.014 21.6716C15.1054 21.5615 15.0946 21.1614 14.9962 21.0113C14.8904 20.8499 14.5992 20.7551 14.4107 20.8209C14.3317 20.8484 14.0062 21.0728 13.6873 21.3195C12.6253 22.1408 11.2855 23.0211 9.9045 23.8047L9.29636 24.1497L8.91239 23.9599C8.7012 23.8555 8.2718 23.6007 7.95809 23.3937C3.89525 20.7124 2.02069 15.8182 3.2626 11.1343C4.45999 6.61819 8.47149 3.26188 13.1582 2.85491C13.6204 2.81477 14.6445 2.82347 15.1063 2.87145ZM19.9758 6.79427C19.1131 6.89842 18.3015 7.18521 17.6731 7.60795C17.5404 7.69719 15.5196 9.67849 13.1824 12.0109L8.9329 16.2517H8.21553C7.82098 16.2517 7.42088 16.2668 7.32645 16.2852C7.19524 16.3109 6.9871 16.4839 6.44363 17.0189C5.75985 17.6921 5.73247 17.7271 5.73247 17.9268C5.73247 18.3103 5.8207 18.3565 7.81615 19.0187C8.79553 19.3437 9.64304 19.6095 9.69946 19.6095C9.75593 19.6095 10.4656 19.3447 11.2767 19.021L12.7512 18.4325L13.7052 17.4825C14.2299 16.96 14.6591 16.5474 14.6591 16.5656C14.6591 16.6322 15.8291 20.3791 15.879 20.4723C15.9073 20.5251 15.9913 20.6162 16.0658 20.6749C16.2199 20.796 16.4377 20.7802 16.7451 20.6254C16.9647 20.5148 17.9977 19.4635 18.0677 19.2793C18.0998 19.195 18.1187 18.0246 18.1187 16.1334V13.1219L19.242 12.003C20.3908 10.8585 20.7149 10.4734 20.9671 9.95272C21.2794 9.30791 21.4758 8.37767 21.4763 7.53978C21.4766 7.1235 21.4675 7.08519 21.3324 6.93403C21.1963 6.78161 21.166 6.77194 20.7855 6.75891C20.564 6.75133 20.1996 6.76726 19.9758 6.79427ZM20.1741 8.09861C20.1191 8.56149 19.9496 9.15685 19.7648 9.53589C19.5958 9.88266 19.4542 10.0433 18.2128 11.2967L16.8468 12.676V15.7516V18.8274L16.6978 18.9701L16.5488 19.1128L16.3685 18.5345C16.2693 18.2163 15.9937 17.3264 15.756 16.5569C15.3855 15.3571 15.3038 15.1415 15.1823 15.0436C15.0153 14.9089 14.8182 14.8977 14.593 15.0102C14.5034 15.0548 13.8807 15.6371 13.2091 16.3041L11.9881 17.5167L10.7681 18.0035C10.0971 18.2712 9.5247 18.491 9.49616 18.4919C9.40229 18.4948 7.23152 17.7533 7.23126 17.7183C7.23116 17.6994 7.29033 17.6136 7.36278 17.5275L7.4945 17.371H8.36552H9.23653L13.6649 12.9531C17.9547 8.67347 18.106 8.52872 18.5003 8.32791C19.0249 8.06071 19.4972 7.92685 20.1401 7.86315C20.1854 7.85867 20.1948 7.92405 20.1741 8.09861ZM8.82789 9.55797C8.61415 9.65097 7.02343 10.7187 6.91908 10.8392C6.72422 11.0642 6.76604 11.4271 7.00893 11.6181C7.07858 11.6729 7.94181 11.9861 8.92715 12.3141C10.8853 12.966 10.8903 12.9668 11.1563 12.682C11.3256 12.5008 11.3485 12.2518 11.2165 12.0284C11.1117 11.8509 11.0703 11.8318 10.0039 11.4667C9.52816 11.3039 9.02972 11.1325 8.89621 11.0859L8.65343 11.001L8.93045 10.8027L9.20743 10.6043L11.1574 10.6041C12.999 10.6039 13.1164 10.5984 13.2696 10.505C13.606 10.2999 13.5852 9.74932 13.2346 9.57415C13.0737 9.49376 12.8594 9.48536 11.0214 9.48709C9.42406 9.48857 8.95223 9.50383 8.82789 9.55797Z" fill="#474747"/>
<path fill-rule="evenodd" clip-rule="evenodd" d="M23.2573 1.01759C23.1874 1.02975 22.9584 1.0644 22.7486 1.09447C22.2724 1.16279 21.4392 1.40059 20.8505 1.63621C20.3538 1.83503 20.2324 1.95755 20.2324 2.26047C20.2324 2.51363 20.3678 2.70244 20.5941 2.76491C20.7583 2.81024 20.8634 2.78862 21.4622 2.58654C22.3572 2.28448 22.9094 2.1636 23.5713 2.12483C24.479 2.07166 25.102 2.26199 25.5098 2.71704C25.7879 3.02744 25.9061 3.35122 25.9399 3.89484C25.9968 4.80956 25.653 6.14172 24.9655 7.67053L24.8319 7.9674L24.3808 7.28895C21.432 2.85369 16.1562 0.79185 11.065 2.08489C9.37578 2.51394 7.76216 3.32192 6.36615 4.4377C3.26636 6.91526 1.51685 10.8634 1.7864 14.7729C1.85218 15.7277 1.93878 16.2641 2.17042 17.1526C2.71155 19.2283 3.73153 21.0219 5.2697 22.6029C6.08953 23.4456 6.83707 24.0395 7.88936 24.6838L8.06432 24.791L7.61213 24.9999C6.56574 25.4833 5.43657 25.8284 4.58993 25.9237C3.20404 26.0795 2.41153 25.6139 2.16258 24.4977C2.00624 23.7966 2.16452 22.7019 2.59657 21.4962C2.81152 20.8964 2.84642 20.6586 2.73953 20.523C2.52742 20.2539 2.14081 20.1892 1.91629 20.3854C1.68785 20.585 1.22858 21.9509 1.08231 22.8657C0.788955 24.6998 1.28653 26.0608 2.46622 26.6511C2.94818 26.8922 3.32904 26.9855 3.97493 27.0205C5.18275 27.0861 6.86154 26.6163 8.68106 25.7035C9.24594 25.4202 9.30298 25.4018 9.44421 25.458C10.3424 25.8155 11.6037 26.1418 12.624 26.2803C13.4041 26.3863 15.0598 26.3608 15.8784 26.2301C19.9599 25.5785 23.3146 23.1234 25.1355 19.4551C26.0462 17.6208 26.4706 15.6502 26.3955 13.606C26.3426 12.1656 26.145 11.1594 25.6403 9.75949L25.4366 9.19455L25.6729 8.72409C26.146 7.78205 26.5855 6.61346 26.793 5.74555C27.3795 3.29246 26.7112 1.668 24.8957 1.13405C24.5656 1.03698 23.5576 0.965341 23.2573 1.01759ZM15.1063 2.87145C17.697 3.14069 19.9612 4.1794 21.8293 5.95567C22.6716 6.75657 23.5447 7.9155 24.0021 8.83984L24.1899 9.21933L23.8397 9.82278C22.8588 11.5136 21.3406 13.5394 19.6008 15.4788C18.6375 16.5526 18.5766 16.6342 18.5766 16.8494C18.5766 17.1123 18.8508 17.371 19.1294 17.371C19.3919 17.371 19.4855 17.2899 20.3475 16.3155C21.7713 14.7061 22.8867 13.2631 23.9979 11.593L24.7249 10.5004L24.8088 10.7889C25.1693 12.0291 25.2599 12.68 25.2611 14.0385C25.2622 15.2675 25.2047 15.7612 24.9379 16.813C23.6276 21.979 18.6837 25.5762 13.4018 25.2069C12.3084 25.1304 10.5357 24.7692 10.6718 24.6506C10.6962 24.6293 11.071 24.3991 11.5047 24.1388C12.7506 23.3914 14.758 21.9801 15.014 21.6716C15.1054 21.5615 15.0946 21.1614 14.9962 21.0113C14.8904 20.8499 14.5992 20.7551 14.4107 20.8209C14.3317 20.8484 14.0062 21.0728 13.6873 21.3195C12.6253 22.1408 11.2855 23.0211 9.9045 23.8047L9.29636 24.1497L8.91239 23.9599C8.7012 23.8555 8.2718 23.6007 7.95809 23.3937C3.89525 20.7124 2.02069 15.8182 3.2626 11.1343C4.45999 6.61819 8.47149 3.26188 13.1582 2.85491C13.6204 2.81477 14.6445 2.82347 15.1063 2.87145ZM19.9758 6.79427C19.1131 6.89842 18.3015 7.18521 17.6731 7.60795C17.5404 7.69719 15.5196 9.67849 13.1824 12.0109L8.9329 16.2517H8.21553C7.82098 16.2517 7.42088 16.2668 7.32645 16.2852C7.19524 16.3109 6.9871 16.4839 6.44363 17.0189C5.75985 17.6921 5.73247 17.7271 5.73247 17.9268C5.73247 18.3103 5.8207 18.3565 7.81615 19.0187C8.79553 19.3437 9.64304 19.6095 9.69946 19.6095C9.75593 19.6095 10.4656 19.3447 11.2767 19.021L12.7512 18.4325L13.7052 17.4825C14.2299 16.96 14.6591 16.5474 14.6591 16.5656C14.6591 16.6322 15.8291 20.3791 15.879 20.4723C15.9073 20.5251 15.9913 20.6162 16.0658 20.6749C16.2199 20.796 16.4377 20.7802 16.7451 20.6254C16.9647 20.5148 17.9977 19.4635 18.0677 19.2793C18.0998 19.195 18.1187 18.0246 18.1187 16.1334V13.1219L19.242 12.003C20.3908 10.8585 20.7149 10.4734 20.9671 9.95272C21.2794 9.30791 21.4758 8.37767 21.4763 7.53978C21.4766 7.1235 21.4675 7.08519 21.3324 6.93403C21.1963 6.78161 21.166 6.77194 20.7855 6.75891C20.564 6.75133 20.1996 6.76726 19.9758 6.79427ZM20.1741 8.09861C20.1191 8.56149 19.9496 9.15685 19.7648 9.53589C19.5958 9.88266 19.4542 10.0433 18.2128 11.2967L16.8468 12.676V15.7516V18.8274L16.6978 18.9701L16.5488 19.1128L16.3685 18.5345C16.2693 18.2163 15.9937 17.3264 15.756 16.5569C15.3855 15.3571 15.3038 15.1415 15.1823 15.0436C15.0153 14.9089 14.8182 14.8977 14.593 15.0102C14.5034 15.0548 13.8807 15.6371 13.2091 16.3041L11.9881 17.5167L10.7681 18.0035C10.0971 18.2712 9.5247 18.491 9.49616 18.4919C9.40229 18.4948 7.23152 17.7533 7.23126 17.7183C7.23116 17.6994 7.29033 17.6136 7.36278 17.5275L7.4945 17.371H8.36552H9.23653L13.6649 12.9531C17.9547 8.67347 18.106 8.52872 18.5003 8.32791C19.0249 8.06071 19.4972 7.92685 20.1401 7.86315C20.1854 7.85867 20.1948 7.92405 20.1741 8.09861ZM8.82789 9.55797C8.61415 9.65097 7.02343 10.7187 6.91908 10.8392C6.72422 11.0642 6.76604 11.4271 7.00893 11.6181C7.07858 11.6729 7.94181 11.9861 8.92715 12.3141C10.8853 12.966 10.8903 12.9668 11.1563 12.682C11.3256 12.5008 11.3485 12.2518 11.2165 12.0284C11.1117 11.8509 11.0703 11.8318 10.0039 11.4667C9.52816 11.3039 9.02972 11.1325 8.89621 11.0859L8.65343 11.001L8.93045 10.8027L9.20743 10.6043L11.1574 10.6041C12.999 10.6039 13.1164 10.5984 13.2696 10.505C13.606 10.2999 13.5852 9.74932 13.2346 9.57415C13.0737 9.49376 12.8594 9.48536 11.0214 9.48709C9.42406 9.48857 8.95223 9.50383 8.82789 9.55797Z" stroke="#474747" stroke-width="0.4" mask="url(#path-1-outside-1_1238_7330)"/>
</svg>
