<svg width="26" height="19" viewBox="0 0 26 19" fill="none" xmlns="http://www.w3.org/2000/svg">
<path fill-rule="evenodd" clip-rule="evenodd" d="M8.22457 0.055681C5.57383 0.395498 3.24332 1.96481 1.89178 4.31994C1.23023 5.47282 1.03866 6.1869 0.610089 9.0977C0.0744516 12.7359 0.00518523 13.3115 0.000241777 14.166C-0.00505062 15.0842 0.0745096 15.451 0.440383 16.1964C0.631723 16.5864 0.784447 16.791 1.18161 17.1896C2.10603 18.1176 3.12183 18.535 4.44429 18.5303C5.83735 18.5254 7.0678 17.905 7.84177 16.8173C7.98141 16.6211 8.4843 15.6829 8.95934 14.7324L9.82299 13.0043H12.9935H16.1641L17.0277 14.7324C17.5028 15.6829 18.0057 16.6211 18.1453 16.8173C19.3597 18.5239 21.7233 19.0336 23.7151 18.0185C24.1465 17.7986 24.3471 17.6474 24.7759 17.2185C25.2042 16.7901 25.3505 16.5961 25.5459 16.1975C26.081 15.1061 26.1148 14.587 25.7955 12.3653C25.6646 11.4548 25.4397 9.81852 25.2956 8.72919C24.9675 6.24772 24.7587 5.47973 24.097 4.31994C22.7392 1.94007 20.4162 0.374644 17.764 0.05237C17.1731 -0.0194271 8.78783 -0.0165228 8.22457 0.055681ZM17.7404 1.93925C19.1588 2.18073 20.3243 2.79054 21.3188 3.81173C22.2882 4.80701 22.8151 5.82292 23.1104 7.26589C23.2388 7.89336 23.6341 10.4334 23.9628 12.7429C24.2073 14.4606 24.1991 14.6962 23.8715 15.3609C23.1166 16.8923 20.8344 17.1895 19.779 15.8939C19.6685 15.7582 19.1196 14.7306 18.5591 13.6101C17.4804 11.4539 17.3436 11.2487 16.935 11.1749C16.8304 11.156 14.9866 11.1482 12.8379 11.1575C9.01064 11.1741 8.92759 11.1769 8.76678 11.2931C8.64819 11.3787 8.2957 12.0156 7.49759 13.586C6.26917 16.0033 6.14355 16.1874 5.51033 16.4987C4.77282 16.8614 3.72498 16.7859 3.00318 16.3183C2.36868 15.9071 1.99466 15.3511 1.87922 14.6476C1.81873 14.2792 1.84746 14.0154 2.31395 10.6517C2.58869 8.67087 2.86802 6.85416 2.93473 6.61455C3.09449 6.04052 3.49142 5.21049 3.86264 4.67411C4.23823 4.1315 5.12072 3.274 5.6666 2.92129C6.42876 2.42888 7.25862 2.1008 8.13733 1.94448C8.84669 1.81831 17.0038 1.81384 17.7404 1.93925ZM7.88818 3.82561C7.52615 3.98977 7.41326 4.26848 7.41163 5.0026L7.41035 5.56896L6.84331 5.57024C6.10831 5.57186 5.82927 5.68461 5.66491 6.04621C5.43385 6.55472 5.59448 7.1162 6.02712 7.3123C6.2184 7.39903 6.40794 7.42552 6.84331 7.4265L7.41035 7.42778L7.41163 7.99414C7.41326 8.72826 7.52615 9.00697 7.88818 9.17113C8.20404 9.31432 8.47773 9.31432 8.79359 9.17113C9.15562 9.00697 9.26851 8.72826 9.27014 7.99414L9.27142 7.42778L9.83846 7.4265C10.5735 7.42488 10.8525 7.31213 11.0169 6.95053C11.2479 6.44202 11.0873 5.88054 10.6547 5.68444C10.4634 5.59771 10.2738 5.57122 9.83846 5.57024L9.27142 5.56896L9.27014 5.0026C9.26851 4.26848 9.15562 3.98977 8.79359 3.82561C8.47773 3.68242 8.20404 3.68242 7.88818 3.82561ZM17.1935 3.82561C17.0033 3.91181 16.9176 3.99744 16.8313 4.18739C16.6002 4.69589 16.7609 5.25737 17.1935 5.45348C17.7026 5.68426 18.2648 5.52382 18.4611 5.0917C18.6045 4.77623 18.6045 4.50286 18.4611 4.18739C18.2648 3.75527 17.7026 3.59483 17.1935 3.82561ZM15.3324 5.68444C15.1423 5.77064 15.0565 5.85626 14.9702 6.04621C14.7392 6.55472 14.8998 7.1162 15.3324 7.3123C15.8415 7.54309 16.4037 7.38265 16.6 6.95053C16.7434 6.63505 16.7434 6.36169 16.6 6.04621C16.4037 5.61409 15.8415 5.45365 15.3324 5.68444ZM19.0546 5.68444C18.8644 5.77064 18.7787 5.85626 18.6924 6.04621C18.4613 6.55472 18.6219 7.1162 19.0546 7.3123C19.5637 7.54309 20.1258 7.38265 20.3222 6.95053C20.4655 6.63505 20.4655 6.36169 20.3222 6.04621C20.1258 5.61409 19.5637 5.45365 19.0546 5.68444ZM17.1935 7.54326C17.0033 7.62947 16.9176 7.71509 16.8313 7.90504C16.6002 8.41354 16.7609 8.97502 17.1935 9.17113C17.7026 9.40191 18.2648 9.24147 18.4611 8.80935C18.6045 8.49388 18.6045 8.22051 18.4611 7.90504C18.2648 7.47292 17.7026 7.31248 17.1935 7.54326Z" fill="#474747"/>
</svg>
