<svg width="26" height="28" viewBox="0 0 26 28" fill="none" xmlns="http://www.w3.org/2000/svg">
<path fill-rule="evenodd" clip-rule="evenodd" d="M12.5284 0.046777C11.9753 0.155372 11.6933 0.351616 10.6231 1.37261C9.9484 2.01617 9.53099 2.37467 9.39838 2.4243C9.21566 2.4927 9.08569 2.48411 7.98336 2.33055C7.31573 2.23755 6.61145 2.15933 6.41828 2.15674C5.6262 2.14613 4.90056 2.52817 4.46008 3.18775C4.19178 3.58957 4.13663 3.7856 3.8801 5.24935C3.76297 5.91772 3.63078 6.53488 3.58629 6.62083C3.4883 6.81034 3.34953 6.89895 2.26242 7.46583C0.782395 8.23756 0.526339 8.44064 0.222932 9.08314C0.0527754 9.4435 0.00139456 9.696 1.59146e-05 10.1792C-0.0013097 10.6285 0.0788636 10.8485 0.735256 12.1966C1.16656 13.0826 1.29594 13.398 1.29594 13.5637C1.29594 13.7295 1.16656 14.0449 0.735256 14.9308C0.0788636 16.279 -0.0013097 16.499 1.59146e-05 16.9483C0.00139456 17.4315 0.0527754 17.684 0.222932 18.0443C0.526339 18.6868 0.782395 18.8899 2.26242 19.6616C3.34953 20.2285 3.4883 20.3171 3.58629 20.5066C3.63078 20.5926 3.76318 21.211 3.88058 21.8809C3.99797 22.5508 4.12693 23.2081 4.16707 23.3416C4.4543 24.2959 5.34326 24.9613 6.34532 24.9719C6.54947 24.9741 7.27463 24.8975 7.95685 24.8018C9.08474 24.6436 9.21539 24.6346 9.39838 24.7032C9.53099 24.7528 9.9484 25.1113 10.6231 25.7548C11.4373 26.5317 11.7136 26.7626 11.9745 26.8847C12.6483 27.2 13.3516 27.2 14.0254 26.8847C14.2862 26.7626 14.5625 26.5317 15.3768 25.7548C16.0514 25.1113 16.4689 24.7528 16.6015 24.7032C16.7842 24.6348 16.9142 24.6433 18.0165 24.7969C18.6841 24.8899 19.3884 24.9681 19.5816 24.9707C20.3736 24.9813 21.0993 24.5993 21.5398 23.9397C21.8081 23.5379 21.8632 23.3419 22.1197 21.8781C22.2369 21.2097 22.3691 20.5926 22.4136 20.5066C22.5125 20.3152 22.6315 20.2403 23.8771 19.5855C25.0511 18.9684 25.3112 18.7829 25.5957 18.3598C25.8763 17.9423 25.9955 17.5504 25.9998 17.0307C26.0042 16.4931 25.9501 16.3389 25.2646 14.9308C24.8333 14.0449 24.7039 13.7295 24.7039 13.5637C24.7039 13.398 24.8333 13.0826 25.2646 12.1966C25.9501 10.7886 26.0042 10.6343 25.9998 10.0967C25.9955 9.57701 25.8763 9.18511 25.5957 8.76764C25.3112 8.34456 25.0511 8.15903 23.8771 7.54192C22.6315 6.88712 22.5125 6.81225 22.4136 6.62083C22.3691 6.53488 22.2369 5.91772 22.1197 5.24935C21.8632 3.7856 21.8081 3.58957 21.5398 3.18775C21.0993 2.52817 20.3736 2.14613 19.5816 2.15674C19.3884 2.15933 18.6841 2.23755 18.0165 2.33055C16.9142 2.48411 16.7842 2.4927 16.6015 2.4243C16.4689 2.37467 16.0514 2.01617 15.3768 1.37261C14.5749 0.607619 14.2842 0.363865 14.0343 0.246892C13.5246 0.00844013 13.047 -0.0550835 12.5284 0.046777ZM13.3976 1.68158C13.4851 1.73715 13.9922 2.20091 14.5245 2.71212C15.5877 3.73316 15.8677 3.91864 16.492 4.01578C16.8539 4.07209 16.9787 4.06101 18.6072 3.82786C19.1685 3.74742 19.652 3.70378 19.7589 3.72383C19.9815 3.76561 20.2294 3.96398 20.309 4.16404C20.3411 4.2448 20.4654 4.87059 20.5853 5.55461C20.822 6.90558 20.9055 7.1856 21.1985 7.61096C21.4594 7.98982 21.7024 8.15669 22.9981 8.84654C23.6089 9.17174 24.1537 9.47733 24.2087 9.52558C24.3414 9.64191 24.4533 9.91467 24.4533 10.1217C24.4533 10.2265 24.2267 10.756 23.8458 11.5418C23.2124 12.8482 23.1302 13.0805 23.1302 13.5637C23.1302 14.0469 23.2124 14.2792 23.8458 15.5856C24.2267 16.3714 24.4533 16.901 24.4533 17.0058C24.4533 17.2128 24.3414 17.4855 24.2087 17.6019C24.1537 17.6501 23.6089 17.9557 22.9981 18.2809C21.7024 18.9708 21.4594 19.1376 21.1985 19.5165C20.9055 19.9419 20.822 20.2219 20.5853 21.5728C20.4654 22.2569 20.3411 22.8827 20.309 22.9634C20.2294 23.1635 19.9815 23.3618 19.7589 23.4036C19.652 23.4237 19.1685 23.38 18.6072 23.2996C16.9787 23.0664 16.8539 23.0554 16.492 23.1117C15.8677 23.2088 15.5877 23.3943 14.5245 24.4153C13.9922 24.9265 13.4851 25.3903 13.3976 25.4459C13.2156 25.5615 12.8244 25.5786 12.6449 25.4788C12.5808 25.4432 12.0965 25.0022 11.5686 24.4988C10.541 23.5189 10.3267 23.355 9.87146 23.2005C9.44743 23.0566 8.94656 23.0712 7.60471 23.2665C6.89704 23.3694 6.35126 23.4243 6.24086 23.4036C6.01832 23.3618 5.77043 23.1635 5.69089 22.9634C5.65876 22.8827 5.53442 22.2569 5.41453 21.5728C5.17782 20.2219 5.09431 19.9419 4.80135 19.5165C4.54041 19.1376 4.2974 18.9708 3.00174 18.2809C2.39095 17.9557 1.84618 17.6501 1.79114 17.6019C1.65847 17.4855 1.54659 17.2128 1.54659 17.0058C1.54659 16.901 1.77311 16.3714 2.15409 15.5856C2.78742 14.2792 2.86961 14.0469 2.86961 13.5637C2.86961 13.0805 2.78742 12.8482 2.15409 11.5418C1.77311 10.756 1.54659 10.2265 1.54659 10.1217C1.54659 9.91467 1.65847 9.64191 1.79114 9.52558C1.84618 9.47733 2.39095 9.17174 3.00174 8.84654C4.2974 8.15669 4.54041 7.98982 4.80135 7.61096C5.09431 7.1856 5.17782 6.90558 5.41453 5.55461C5.53442 4.87059 5.65876 4.2448 5.69089 4.16404C5.77043 3.96398 6.01832 3.76561 6.24097 3.72383C6.34781 3.70378 6.83129 3.74742 7.39267 3.82786C9.02111 4.06101 9.14593 4.07209 9.50782 4.01578C10.1322 3.91864 10.4121 3.73316 11.4753 2.71212C12.0076 2.20091 12.5147 1.73715 12.6022 1.68158C12.811 1.54897 13.1888 1.54897 13.3976 1.68158ZM9.26168 6.59061C7.94587 6.88325 7.00574 8.05181 7.00893 9.39063C7.01195 10.6597 7.87047 11.78 9.12551 12.1526C9.48709 12.26 10.1776 12.2631 10.5765 12.1592C11.6258 11.8859 12.4801 10.9768 12.6851 9.91552C13.067 7.93876 11.2285 6.15321 9.26168 6.59061ZM17.8517 7.68573C17.6866 7.77523 7.22304 18.2383 7.1373 18.3996C6.9611 18.7309 7.10204 19.1876 7.44511 19.3967C7.63552 19.5128 7.95855 19.5348 8.1384 19.444C8.30283 19.3609 18.7704 8.90121 18.8625 8.72787C19.0387 8.39652 18.8978 7.93987 18.5547 7.73075C18.3659 7.61563 18.0216 7.59357 17.8517 7.68573ZM10.5388 8.29032C11.24 8.72379 11.3714 9.6819 10.8099 10.2676C10.2926 10.8073 9.47887 10.8192 8.9483 10.2948C8.61255 9.96293 8.48381 9.3279 8.66473 8.89618C8.96792 8.17239 9.87422 7.87943 10.5388 8.29032ZM15.4006 14.971C14.3676 15.2492 13.5174 16.1626 13.3147 17.2119C13.1873 17.8719 13.35 18.7138 13.7117 19.2651C14.1648 19.9557 14.9274 20.4529 15.7174 20.5727C17.4231 20.8314 18.9951 19.4696 18.9909 17.7368C18.9879 16.4677 18.1294 15.3474 16.8743 14.9748C16.5203 14.8697 15.7836 14.8678 15.4006 14.971ZM16.7068 16.5836C17.1512 16.8104 17.4197 17.254 17.415 17.7541C17.4079 18.5172 16.8137 19.0644 16.0449 19.0154C14.9596 18.9463 14.4415 17.6402 15.1899 16.86C15.5945 16.4381 16.2039 16.3271 16.7068 16.5836Z" fill="#474747"/>
</svg>
