<svg width="26" height="27" viewBox="0 0 26 27" fill="none" xmlns="http://www.w3.org/2000/svg">
<path fill-rule="evenodd" clip-rule="evenodd" d="M22.1642 0.0817566C21.6761 0.214442 21.4853 0.299055 21.1296 0.540593C20.7658 0.787643 20.3696 1.22045 20.1755 1.58274C20.0975 1.72854 20.0278 1.8552 20.0208 1.86418C20.0138 1.87316 19.9121 1.83152 19.7948 1.77171C19.2438 1.49062 18.4521 1.39978 17.7848 1.54114C17.1593 1.67368 16.7252 1.93246 16.0795 2.55772L15.5036 3.11546L14.7782 2.39911C14.1491 1.77789 14.0163 1.67082 13.7779 1.59304C13.4224 1.477 13.042 1.51374 12.7059 1.69669C12.5446 1.78447 12.0876 2.20386 11.4366 2.86152C10.3352 3.97419 10.2509 4.09988 10.2509 4.62914C10.2509 5.07293 10.3814 5.32482 10.8764 5.83658L11.3317 6.30716L11.0082 6.4699C10.1824 6.88526 8.95142 7.63391 8.14316 8.21231C6.65846 9.27477 5.78029 10.0628 3.09816 12.7396C1.42157 14.4128 0.863222 15.0019 0.669399 15.302C-0.22383 16.6848 -0.223064 18.4804 0.671287 19.8186C0.832449 20.0598 1.71971 20.9795 3.52397 22.7757C6.11762 25.3577 6.14717 25.385 6.60401 25.6176C7.69831 26.1748 8.7899 26.2556 9.92906 25.8637C10.7629 25.5769 10.9501 25.4223 13.2672 23.1069C14.435 21.94 15.6492 20.6981 15.9655 20.3473C17.4191 18.7349 18.438 17.3037 19.4093 15.5098L19.8042 14.7804L20.2245 15.1839C20.5478 15.4942 20.7074 15.6082 20.9154 15.6773C21.2831 15.7994 21.7529 15.7617 22.0502 15.5861C22.352 15.4078 24.2437 13.4811 24.3562 13.2375C24.4952 12.9362 24.5168 12.5477 24.4121 12.2273C24.3344 11.9888 24.2273 11.8561 23.6061 11.227L22.8897 10.5016L23.4556 9.91748C24.0859 9.26681 24.3291 8.85717 24.4646 8.21752C24.6054 7.55312 24.5141 6.76043 24.2335 6.21035C24.1737 6.09307 24.132 5.99142 24.141 5.98437C24.15 5.97738 24.2782 5.9069 24.4259 5.82775C25.0406 5.49849 25.6006 4.8246 25.8541 4.10902C26.0282 3.61762 26.0507 2.67612 25.8989 2.2306C25.5437 1.18774 24.8605 0.491347 23.8397 0.131922C23.4035 -0.021636 22.6299 -0.0448049 22.1642 0.0817566ZM23.596 1.68235C24.1587 1.97156 24.4609 2.46571 24.4622 3.09816C24.4637 3.91479 23.9812 4.4909 23.1375 4.67997C22.6421 4.79102 22.3251 5.10681 22.2644 5.54998C22.2195 5.87736 22.3104 6.14528 22.5751 6.46633C22.896 6.8555 23.0255 7.21671 22.9963 7.6409C22.9623 8.13485 22.8244 8.38843 22.288 8.94275L21.8153 9.43139L19.2227 6.83907C17.7967 5.41331 16.63 4.22124 16.63 4.19006C16.63 4.08518 17.5206 3.27376 17.7662 3.15496C18.2661 2.91306 18.9385 2.9744 19.3636 3.30066C19.959 3.75765 20.172 3.82864 20.601 3.7131C20.8889 3.63558 21.1981 3.32648 21.2771 3.03727C21.4424 2.43223 21.5022 2.30255 21.7267 2.0625C22.1065 1.65653 22.4532 1.51098 22.9836 1.53502C23.2437 1.54681 23.4102 1.58687 23.596 1.68235ZM18.1354 7.8952L22.8812 12.6412L22.1285 13.3938L21.3758 14.1465L16.6175 9.38816L11.8591 4.62976L12.5981 3.88947C13.0045 3.48233 13.3489 3.14919 13.3633 3.14919C13.3778 3.14919 15.5252 5.28492 18.1354 7.8952ZM18.6203 13.6575C18.6203 13.7595 17.9651 14.9948 17.5082 15.7543C16.2728 17.808 15.1088 19.155 11.5522 22.6471C10.1287 24.0448 9.99479 24.1624 9.64476 24.3226C8.89932 24.6638 8.15317 24.6558 7.39303 24.2984C7.02549 24.1256 6.91041 24.0186 4.49952 21.6077C2.09107 19.1993 1.9814 19.0813 1.8083 18.7142C1.5194 18.1015 1.45301 17.5329 1.60243 16.9515C1.76911 16.3028 1.85943 16.1873 3.57557 14.4276C7.28928 10.6194 8.98153 9.25002 11.7486 7.8139L12.4708 7.43907L15.5455 10.5121C17.2366 12.2022 18.6203 13.6177 18.6203 13.6575ZM11.5285 11.9396C11.1639 12.1266 11.0073 12.5901 11.1916 12.9373C11.2791 13.1024 13.0354 14.8516 13.1947 14.9323C13.3547 15.0135 13.6526 15.0019 13.8529 14.9069C14.0346 14.8206 14.1955 14.6007 14.2519 14.3618C14.3296 14.0317 14.2285 13.8864 13.2241 12.8837C12.0955 11.757 11.9945 11.7007 11.5285 11.9396ZM8.97423 14.4692C8.71963 14.6021 8.54495 14.963 8.59389 15.2553C8.6269 15.4528 8.71892 15.5632 9.55545 16.4094C10.0642 16.924 10.5494 17.3813 10.6336 17.4255C10.9879 17.6115 11.4843 17.4577 11.6489 17.1109C11.7504 16.8968 11.7541 16.6098 11.6577 16.4279C11.5701 16.2628 9.81383 14.5136 9.6546 14.4329C9.48722 14.3481 9.17433 14.3648 8.97423 14.4692ZM6.49781 16.973C6.25663 17.0825 6.11583 17.2741 6.07996 17.5416C6.03117 17.9053 6.12007 18.032 7.12562 19.0313C8.1499 20.0493 8.224 20.0976 8.64135 20.0193C8.9946 19.953 9.27558 19.5111 9.20562 19.1319C9.17668 18.975 9.01302 18.7843 8.21818 17.9813C7.69418 17.452 7.19155 16.9869 7.10123 16.9479C6.88418 16.8542 6.74665 16.8599 6.49781 16.973Z" fill="#474747"/>
</svg>
