<svg width="28" height="28" viewBox="0 0 28 28" fill="none" xmlns="http://www.w3.org/2000/svg">
<mask id="path-1-outside-1_1238_7265" maskUnits="userSpaceOnUse" x="0" y="0" width="28" height="28" fill="black">
<rect fill="white" width="28" height="28"/>
<path fill-rule="evenodd" clip-rule="evenodd" d="M1.30505 1.04607C1.24912 1.069 1.15761 1.13855 1.10168 1.20073C1.00056 1.31309 1 1.38534 1 14.0177V26.7217L1.14098 26.8626L1.28192 27.0036L8.47643 27.0168C14.9442 27.0287 15.6866 27.0219 15.8259 26.9499C16.0791 26.819 16.1254 26.6268 16.1254 25.7087V24.8936H19.303H22.4806V25.7087C22.4806 27.0365 22.4723 27.0291 23.9652 27.0288C25.4388 27.0285 25.4287 27.0379 25.4292 25.669L25.4295 24.8936H25.6099C25.8357 24.8936 26.0496 24.7859 26.131 24.631C26.1786 24.5404 26.1962 23.4599 26.2054 20.0637L26.2175 15.615L26.4547 15.5997C26.7334 15.5817 26.9352 15.4152 26.9821 15.1645C26.9985 15.0767 27.0048 14.5536 26.996 14.0018L26.9801 12.9988L26.8391 12.8579L26.6982 12.717L21.8058 12.6916L16.9135 12.6662L16.9014 7.02277C16.8922 2.68094 16.875 1.35193 16.8269 1.26062C16.6817 0.984195 17.0934 0.99777 8.94657 1.00123C4.79966 1.00301 1.36098 1.02319 1.30505 1.04607ZM8.39747 11.2172V20.3687H5.21987H2.04226V11.2172V2.0657H5.21987H8.39747V11.2172ZM15.8588 7.36595L15.8458 12.6662L13.7613 12.6916C12.6148 12.7056 11.6359 12.737 11.5859 12.7613C11.3758 12.8638 11.3463 13.0389 11.3463 14.185V15.2767L11.5005 15.431C11.6397 15.5702 11.6906 15.5867 12.0217 15.6001L12.3886 15.615L12.4007 20.0637C12.4099 23.4599 12.4275 24.5404 12.4751 24.631C12.5564 24.7859 12.7703 24.8936 12.9961 24.8936H13.1766V25.4275V25.9613H11.3209H9.46515V14.0135V2.0657H12.6684H15.8717L15.8588 7.36595ZM6.2848 9.55362C6.27107 9.58942 6.26609 10.0642 6.27371 10.6086L6.28754 11.5985L6.80867 11.613L7.3298 11.6275V10.5581V9.4886H6.8198C6.45242 9.4886 6.30279 9.5068 6.2848 9.55362ZM10.5328 10.5563V11.624H11.0667H11.6005V10.5563V9.4886H11.0667H10.5328V10.5563ZM25.9379 14.1406V14.5219H19.1759H12.414V14.1406V13.7593H19.1759H25.9379V14.1406ZM25.1244 17.3182V19.0468H19.303H13.4816V17.3182V15.5896H19.303H25.1244V17.3182ZM18.515 17.1911V17.725H19.303H20.0911V17.1911V16.6573H19.303H18.515V17.1911ZM25.1244 21.9702V23.826H19.303H13.4816V21.9702V20.1145H19.303H25.1244V21.9702ZM18.515 21.716V22.2499H19.303H20.0911V21.716V21.1822H19.303H18.515V21.716ZM8.39747 23.6989V25.9613H5.21987H2.04226V23.6989V21.4364H5.21987H8.39747V23.6989ZM4.43182 23.5972V24.131H5.21987H6.00791V23.5972V23.0633H5.21987H4.43182V23.5972ZM15.0577 25.4275V25.9613H14.651H14.2443V25.4275V24.8936H14.651H15.0577V25.4275ZM24.3618 25.4275V25.9613H23.955H23.5483V25.4275V24.8936H23.955H24.3618V25.4275Z"/>
</mask>
<path fill-rule="evenodd" clip-rule="evenodd" d="M1.30505 1.04607C1.24912 1.069 1.15761 1.13855 1.10168 1.20073C1.00056 1.31309 1 1.38534 1 14.0177V26.7217L1.14098 26.8626L1.28192 27.0036L8.47643 27.0168C14.9442 27.0287 15.6866 27.0219 15.8259 26.9499C16.0791 26.819 16.1254 26.6268 16.1254 25.7087V24.8936H19.303H22.4806V25.7087C22.4806 27.0365 22.4723 27.0291 23.9652 27.0288C25.4388 27.0285 25.4287 27.0379 25.4292 25.669L25.4295 24.8936H25.6099C25.8357 24.8936 26.0496 24.7859 26.131 24.631C26.1786 24.5404 26.1962 23.4599 26.2054 20.0637L26.2175 15.615L26.4547 15.5997C26.7334 15.5817 26.9352 15.4152 26.9821 15.1645C26.9985 15.0767 27.0048 14.5536 26.996 14.0018L26.9801 12.9988L26.8391 12.8579L26.6982 12.717L21.8058 12.6916L16.9135 12.6662L16.9014 7.02277C16.8922 2.68094 16.875 1.35193 16.8269 1.26062C16.6817 0.984195 17.0934 0.99777 8.94657 1.00123C4.79966 1.00301 1.36098 1.02319 1.30505 1.04607ZM8.39747 11.2172V20.3687H5.21987H2.04226V11.2172V2.0657H5.21987H8.39747V11.2172ZM15.8588 7.36595L15.8458 12.6662L13.7613 12.6916C12.6148 12.7056 11.6359 12.737 11.5859 12.7613C11.3758 12.8638 11.3463 13.0389 11.3463 14.185V15.2767L11.5005 15.431C11.6397 15.5702 11.6906 15.5867 12.0217 15.6001L12.3886 15.615L12.4007 20.0637C12.4099 23.4599 12.4275 24.5404 12.4751 24.631C12.5564 24.7859 12.7703 24.8936 12.9961 24.8936H13.1766V25.4275V25.9613H11.3209H9.46515V14.0135V2.0657H12.6684H15.8717L15.8588 7.36595ZM6.2848 9.55362C6.27107 9.58942 6.26609 10.0642 6.27371 10.6086L6.28754 11.5985L6.80867 11.613L7.3298 11.6275V10.5581V9.4886H6.8198C6.45242 9.4886 6.30279 9.5068 6.2848 9.55362ZM10.5328 10.5563V11.624H11.0667H11.6005V10.5563V9.4886H11.0667H10.5328V10.5563ZM25.9379 14.1406V14.5219H19.1759H12.414V14.1406V13.7593H19.1759H25.9379V14.1406ZM25.1244 17.3182V19.0468H19.303H13.4816V17.3182V15.5896H19.303H25.1244V17.3182ZM18.515 17.1911V17.725H19.303H20.0911V17.1911V16.6573H19.303H18.515V17.1911ZM25.1244 21.9702V23.826H19.303H13.4816V21.9702V20.1145H19.303H25.1244V21.9702ZM18.515 21.716V22.2499H19.303H20.0911V21.716V21.1822H19.303H18.515V21.716ZM8.39747 23.6989V25.9613H5.21987H2.04226V23.6989V21.4364H5.21987H8.39747V23.6989ZM4.43182 23.5972V24.131H5.21987H6.00791V23.5972V23.0633H5.21987H4.43182V23.5972ZM15.0577 25.4275V25.9613H14.651H14.2443V25.4275V24.8936H14.651H15.0577V25.4275ZM24.3618 25.4275V25.9613H23.955H23.5483V25.4275V24.8936H23.955H24.3618V25.4275Z" fill="#474747"/>
<path fill-rule="evenodd" clip-rule="evenodd" d="M1.30505 1.04607C1.24912 1.069 1.15761 1.13855 1.10168 1.20073C1.00056 1.31309 1 1.38534 1 14.0177V26.7217L1.14098 26.8626L1.28192 27.0036L8.47643 27.0168C14.9442 27.0287 15.6866 27.0219 15.8259 26.9499C16.0791 26.819 16.1254 26.6268 16.1254 25.7087V24.8936H19.303H22.4806V25.7087C22.4806 27.0365 22.4723 27.0291 23.9652 27.0288C25.4388 27.0285 25.4287 27.0379 25.4292 25.669L25.4295 24.8936H25.6099C25.8357 24.8936 26.0496 24.7859 26.131 24.631C26.1786 24.5404 26.1962 23.4599 26.2054 20.0637L26.2175 15.615L26.4547 15.5997C26.7334 15.5817 26.9352 15.4152 26.9821 15.1645C26.9985 15.0767 27.0048 14.5536 26.996 14.0018L26.9801 12.9988L26.8391 12.8579L26.6982 12.717L21.8058 12.6916L16.9135 12.6662L16.9014 7.02277C16.8922 2.68094 16.875 1.35193 16.8269 1.26062C16.6817 0.984195 17.0934 0.99777 8.94657 1.00123C4.79966 1.00301 1.36098 1.02319 1.30505 1.04607ZM8.39747 11.2172V20.3687H5.21987H2.04226V11.2172V2.0657H5.21987H8.39747V11.2172ZM15.8588 7.36595L15.8458 12.6662L13.7613 12.6916C12.6148 12.7056 11.6359 12.737 11.5859 12.7613C11.3758 12.8638 11.3463 13.0389 11.3463 14.185V15.2767L11.5005 15.431C11.6397 15.5702 11.6906 15.5867 12.0217 15.6001L12.3886 15.615L12.4007 20.0637C12.4099 23.4599 12.4275 24.5404 12.4751 24.631C12.5564 24.7859 12.7703 24.8936 12.9961 24.8936H13.1766V25.4275V25.9613H11.3209H9.46515V14.0135V2.0657H12.6684H15.8717L15.8588 7.36595ZM6.2848 9.55362C6.27107 9.58942 6.26609 10.0642 6.27371 10.6086L6.28754 11.5985L6.80867 11.613L7.3298 11.6275V10.5581V9.4886H6.8198C6.45242 9.4886 6.30279 9.5068 6.2848 9.55362ZM10.5328 10.5563V11.624H11.0667H11.6005V10.5563V9.4886H11.0667H10.5328V10.5563ZM25.9379 14.1406V14.5219H19.1759H12.414V14.1406V13.7593H19.1759H25.9379V14.1406ZM25.1244 17.3182V19.0468H19.303H13.4816V17.3182V15.5896H19.303H25.1244V17.3182ZM18.515 17.1911V17.725H19.303H20.0911V17.1911V16.6573H19.303H18.515V17.1911ZM25.1244 21.9702V23.826H19.303H13.4816V21.9702V20.1145H19.303H25.1244V21.9702ZM18.515 21.716V22.2499H19.303H20.0911V21.716V21.1822H19.303H18.515V21.716ZM8.39747 23.6989V25.9613H5.21987H2.04226V23.6989V21.4364H5.21987H8.39747V23.6989ZM4.43182 23.5972V24.131H5.21987H6.00791V23.5972V23.0633H5.21987H4.43182V23.5972ZM15.0577 25.4275V25.9613H14.651H14.2443V25.4275V24.8936H14.651H15.0577V25.4275ZM24.3618 25.4275V25.9613H23.955H23.5483V25.4275V24.8936H23.955H24.3618V25.4275Z" stroke="#474747" stroke-width="0.4" mask="url(#path-1-outside-1_1238_7265)"/>
</svg>
