<svg width="28" height="24" viewBox="0 0 28 24" fill="none" xmlns="http://www.w3.org/2000/svg">
<path fill-rule="evenodd" clip-rule="evenodd" d="M14.4528 1.04765C14.1028 1.11729 13.6273 1.30054 13.316 1.48575C12.9396 1.70976 12.3708 2.27964 12.145 2.65881C11.3761 3.95033 11.5478 5.60225 12.5665 6.71398C12.8833 7.05969 12.8914 7.07531 12.7693 7.10728C12.6994 7.12555 12.4502 7.23569 12.2157 7.35196C11.4085 7.75218 10.643 8.67933 10.1845 9.81211C10.0777 10.0759 9.98426 10.2989 9.97685 10.3076C9.96939 10.3164 9.8737 10.2628 9.76425 10.1885C9.65475 10.1142 9.47811 10.0292 9.3717 9.99967C9.05796 9.9125 4.32533 9.93237 4.07447 10.0219C3.43217 10.251 3.10884 10.7812 3.42104 11.0933C3.59501 11.2674 3.82696 11.2654 3.99065 11.0886C4.20645 10.8554 4.37323 10.7979 4.83281 10.7979H5.26175V11.5196C5.26175 12.2149 5.26655 12.2462 5.39257 12.3722L5.52333 12.503H6.75372H7.98412L8.11488 12.3722C8.241 12.2461 8.24569 12.2152 8.24569 11.5145V10.7876L8.75051 10.806C9.19091 10.8222 9.27078 10.84 9.3766 10.9459L9.49788 11.0673V12.9293V14.7912L9.37655 14.9126L9.25522 15.034L6.77637 15.0489L4.29752 15.0637L4.14022 14.9064C4.05369 14.8199 3.98292 14.7233 3.98292 14.6918C3.98292 14.6548 4.16377 14.6344 4.49153 14.6344C4.96054 14.6344 5.01036 14.6242 5.13094 14.5036C5.21343 14.4211 5.26175 14.3119 5.26175 14.2081C5.26175 14.1043 5.21343 13.9951 5.13094 13.9126C5.01036 13.792 4.96054 13.7818 4.49153 13.7818H3.98292V13.3555V12.9293H4.27839C4.63396 12.9293 4.83548 12.7751 4.83548 12.503C4.83548 12.3992 4.78715 12.2899 4.70466 12.2075L4.5739 12.0767H3.34351H2.11312L1.98235 12.2075C1.80929 12.3805 1.80929 12.6254 1.98235 12.7984C2.10294 12.9191 2.15276 12.9293 2.62177 12.9293H3.13037V13.3555V13.7818H2.19549C1.27388 13.7818 1.2587 13.7837 1.1298 13.9126C0.956733 14.0856 0.956733 14.3305 1.1298 14.5036C1.25859 14.6324 1.27458 14.6344 2.18441 14.6344H3.10826L3.17279 14.8755C3.29747 15.3417 3.62576 15.6931 4.08411 15.8509C4.20091 15.891 4.68015 15.9132 5.4337 15.9132H6.60218L6.40791 16.1397C5.86035 16.778 5.35777 18.3704 5.28131 19.7092C5.2463 20.3223 5.24673 20.3256 5.38474 20.4636C5.52056 20.5995 5.53798 20.6022 6.25844 20.6026L6.9935 20.603L7.08137 20.9676C7.3723 22.1746 8.32892 23.1377 9.55116 23.4542C9.96396 23.5611 10.7902 23.5611 11.203 23.4542C12.4181 23.1395 13.3822 22.1722 13.6701 20.9786L13.7606 20.603L16.987 20.6026L20.2134 20.6022L20.2816 20.9326C20.591 22.4307 22.0311 23.5843 23.5917 23.5843C25.4515 23.5843 27 22.0358 27 20.176C27 18.9126 26.2514 17.6964 25.1351 17.1461C24.6647 16.9142 24.1104 16.7683 23.694 16.7667L23.4499 16.7657L22.6937 14.9996C22.2778 14.0283 21.9441 13.227 21.9521 13.219C21.9601 13.211 22.0977 13.2384 22.2579 13.28C22.6876 13.3914 22.8817 13.3776 23.0346 13.2247L23.1654 13.094V11.2242V9.35434L23.0273 9.21628C22.8984 9.08739 22.8662 9.08041 22.5397 9.11088C21.8499 9.17531 21.1291 9.66782 20.8533 10.263L20.7306 10.5277L20.576 10.3648C20.4909 10.2752 20.3013 10.1381 20.1548 10.0603C19.8948 9.92209 19.868 9.919 19.0466 9.93237C18.0537 9.94852 17.8343 9.88543 17.4505 9.47333C17.2205 9.2263 16.7179 8.54937 16.7179 8.48655C16.7179 8.46827 16.7736 8.45335 16.8416 8.45335C16.9096 8.45335 17.0952 8.38739 17.2542 8.30682C17.5836 8.13977 17.8538 7.81905 17.9519 7.47872C17.9909 7.34312 18.0869 7.19445 18.1947 7.10275C18.6173 6.74302 18.6807 6.29549 18.3768 5.81763C18.2843 5.67211 18.185 5.4683 18.1563 5.36471C18.0875 5.11705 18.089 4.83 18.159 4.83C18.1897 4.83 18.2736 4.77112 18.3455 4.69919C18.5023 4.54242 18.5166 4.25858 18.3965 3.68438C18.0727 2.137 16.6249 0.979391 15.0395 1.00028C14.8343 1.003 14.5703 1.02431 14.4528 1.04765ZM15.6767 1.92764C16.1439 2.04935 16.5715 2.30085 16.9042 2.64965C17.1968 2.95641 17.4813 3.46437 17.5483 3.79937L17.5818 3.96764L16.7636 3.98667C16.0654 4.00286 15.9088 4.02242 15.6962 4.11998C15.344 4.2817 14.9866 4.63104 14.8141 4.98229C14.6757 5.26416 14.6654 5.33397 14.6483 6.10121L14.63 6.91945L14.4618 6.88588C14.1268 6.81895 13.6188 6.53442 13.312 6.24183C12.9632 5.90912 12.7117 5.48151 12.59 5.01426C12.1201 3.20999 13.8724 1.45767 15.6767 1.92764ZM17.2427 5.2226C17.2799 5.444 17.3908 5.78657 17.497 6.00818L17.6853 6.4011L17.5613 6.48145C17.3302 6.63113 17.1975 6.7962 17.1975 6.93405C17.1975 7.14527 17.0615 7.42288 16.9091 7.52274C16.7488 7.62776 16.2338 7.60773 15.7855 7.47904L15.519 7.40258L15.5045 6.4733C15.4907 5.58872 15.496 5.53266 15.6139 5.30967C15.8033 4.95154 16.0758 4.83 16.6893 4.83H17.1767L17.2427 5.2226ZM14.3756 7.86765C15.0764 8.00054 15.512 8.33751 16.2261 9.2993C16.7677 10.0286 17.1076 10.3631 17.5093 10.5618C17.6748 10.6438 17.8179 10.7161 17.8273 10.7225C17.8367 10.729 17.7945 10.832 17.7335 10.9515C17.6726 11.071 17.5943 11.3511 17.5597 11.5741C17.4982 11.9697 17.4934 11.9787 17.359 11.9518C16.5617 11.7923 15.6465 11.1224 15.0988 10.2972C14.8145 9.86891 14.621 9.79239 14.354 10.0025C14.0975 10.2042 14.1673 10.4794 14.6295 11.0894L14.7899 11.3011L14.6421 11.4891C14.4139 11.7792 14.1569 12.2636 14.0531 12.5989L13.9592 12.9026L12.1602 12.9166L10.3611 12.9307L10.3944 12.4904C10.4393 11.8974 10.6413 11.045 10.899 10.3609C11.6168 8.45612 12.8428 7.57693 14.3756 7.86765ZM22.3128 11.2242C22.3128 12.5799 22.318 12.5694 21.8679 12.1167C21.582 11.829 21.4603 11.5625 21.4603 11.2242C21.4603 10.8858 21.582 10.6193 21.8679 10.3316C22.318 9.87888 22.3128 9.86843 22.3128 11.2242ZM19.8948 10.8901C19.9911 10.9586 20.11 11.1329 20.1951 11.33L20.336 11.6565L20.0963 11.7592C19.6952 11.9312 19.2164 12.0357 18.796 12.043L18.3964 12.0501L18.3787 11.8945C18.3351 11.5127 18.6165 11.0133 18.9825 10.8225C19.2058 10.7061 19.6865 10.7417 19.8948 10.8901ZM7.39314 11.2242V11.6504H6.75372H6.11431V11.2242V10.7979H6.75372H7.39314V11.2242ZM15.832 12.2024C16.2586 12.4828 16.6555 12.6521 17.2241 12.7964L17.7037 12.918L18.3 15.4946C18.6635 17.0654 18.8975 18.1882 18.8995 18.3709C18.9032 18.7336 18.7874 19.0845 18.5988 19.2813L18.459 19.4272L18.3708 19.1666C18.2172 18.7127 17.8415 18.3199 17.4241 18.1766L17.2241 18.1079L17.1948 16.6243C17.1633 15.0381 17.1632 15.037 16.8494 14.4178C16.5428 13.8128 15.7213 13.1745 15.1018 13.0601C14.9896 13.0393 14.8855 12.9904 14.8705 12.9513C14.8047 12.7798 15.3373 11.8791 15.4583 11.9575C15.4917 11.9791 15.6599 12.0893 15.832 12.2024ZM21.6886 14.8336L22.6746 17.1376L21.7467 18.4437L20.8189 19.7497H20.0836H19.3483L19.5242 19.39C19.7375 18.9536 19.8254 18.4475 19.7582 18.0431C19.7171 17.7955 18.6788 13.2797 18.6057 13.0303C18.5848 12.9588 18.6503 12.939 19.0057 12.9093C19.4322 12.8737 20.2318 12.6711 20.4941 12.532C20.5712 12.4912 20.6497 12.4739 20.6685 12.4937C20.6873 12.5134 21.1463 13.5664 21.6886 14.8336ZM14.642 13.8355C15.2671 13.954 15.8613 14.3647 16.1033 14.8454C16.3041 15.244 16.3449 15.5829 16.3449 16.8483V18.0446H15.4924H14.6398V17.4329C14.6398 16.4787 14.3896 15.8917 13.8003 15.4638C13.3114 15.1088 13.0463 15.0606 11.5786 15.0606H10.278L10.3275 14.8878C10.3547 14.7928 10.3771 14.505 10.3771 14.2484V13.7818H12.368C13.4825 13.7818 14.4835 13.8055 14.642 13.8355ZM12.9423 15.9751C13.2074 16.0545 13.5329 16.3337 13.66 16.5908C13.7444 16.7613 13.7639 16.9611 13.7869 17.8881L13.8139 18.9839L14.004 19.3668L14.1941 19.7497H10.149H6.10386L6.13946 19.4167C6.23303 18.5415 6.64779 17.2803 7.01983 16.7396C7.27058 16.3751 7.71013 16.0776 8.16576 15.964C8.44135 15.8952 12.709 15.9052 12.9423 15.9751ZM24.2022 17.6999C25.5708 18.0564 26.415 19.4532 26.0677 20.7865C25.8113 21.771 24.9924 22.5245 23.9928 22.6957C22.9397 22.8761 21.7977 22.2892 21.325 21.3248C21.2236 21.1179 21.1256 20.8707 21.1073 20.7754L21.074 20.6022H21.503H21.932L22.0622 20.8866C22.2288 21.2504 22.5181 21.5383 22.8944 21.7148C23.304 21.907 23.9177 21.9088 24.311 21.7191C24.6488 21.5561 24.9724 21.2339 25.1397 20.8939C25.3183 20.5309 25.3252 19.8451 25.154 19.4728C25.0078 19.1552 24.6481 18.7939 24.3195 18.6348C23.8168 18.3915 23.0997 18.4426 22.664 18.7528C22.5704 18.8194 22.525 18.8336 22.5518 18.7877C22.6208 18.6698 23.2261 17.8171 23.3158 17.7115C23.4165 17.593 23.774 17.5884 24.2022 17.6999ZM17.1984 18.9949C17.4079 19.1052 17.6624 19.519 17.6079 19.6609C17.578 19.739 17.4638 19.7497 16.6592 19.7497C15.6286 19.7497 15.4301 19.7101 15.1176 19.4427C14.9341 19.2856 14.7464 19.0246 14.7464 18.9264C14.7464 18.9103 15.2563 18.8971 15.8796 18.8971C16.8756 18.8971 17.0351 18.909 17.1984 18.9949ZM24.0586 19.4658C24.3301 19.6685 24.4176 19.8415 24.4176 20.176C24.4176 20.5129 24.3303 20.6832 24.0507 20.892C23.8184 21.0655 23.3483 21.0461 23.0946 20.8526C22.987 20.7706 22.899 20.6806 22.899 20.6528C22.899 20.625 23.0918 20.6022 23.3276 20.6022C23.7118 20.6022 23.7699 20.5887 23.8871 20.4714C24.0602 20.2984 24.0602 20.0535 23.8871 19.8805C23.7699 19.7633 23.7118 19.7497 23.3276 19.7497C23.0918 19.7497 22.899 19.7294 22.899 19.7047C22.899 19.6424 23.0547 19.5074 23.2454 19.4043C23.4511 19.2931 23.8697 19.3248 24.0586 19.4658ZM21.9464 19.7106C21.8938 19.7628 21.8877 19.7567 21.9166 19.6808C21.9366 19.6283 21.9664 19.5987 21.9828 19.6151C21.9992 19.6314 21.9829 19.6744 21.9464 19.7106ZM8.83736 20.8697C9.07896 21.4313 9.73585 21.8491 10.3771 21.8491C11.0183 21.8491 11.6752 21.4313 11.9168 20.8697L12.0319 20.6022H12.4633H12.8948L12.8602 20.7754C12.7916 21.119 12.5094 21.6216 12.2072 21.9385C11.2131 22.9806 9.54104 22.9806 8.54696 21.9385C8.24473 21.6216 7.96259 21.119 7.89396 20.7754L7.85938 20.6022H8.29082H8.72227L8.83736 20.8697ZM11.0698 20.6516C11.0698 20.7349 10.8005 20.9185 10.583 20.9837C10.427 21.0304 10.3271 21.0304 10.1711 20.9837C9.95368 20.9185 9.68437 20.7349 9.68437 20.6516C9.68437 20.6238 9.98693 20.6022 10.3771 20.6022C10.7672 20.6022 11.0698 20.6238 11.0698 20.6516Z" fill="#474747" stroke="#474747" stroke-width="0.3"/>
</svg>
