<svg width="28" height="28" viewBox="0 0 28 28" fill="none" xmlns="http://www.w3.org/2000/svg">
<path fill-rule="evenodd" clip-rule="evenodd" d="M12.0428 1.05281C11.9926 1.08212 11.8639 1.28814 11.7568 1.51058C11.5042 2.03581 11.1501 2.38892 10.6071 2.65724C10.2992 2.80931 10.1728 2.9032 10.1365 3.00662C10.0373 3.28935 10.126 3.41103 10.7235 3.81192C11.3284 4.21769 11.4833 4.37788 11.7845 4.90923C12.1031 5.47129 12.4422 5.4831 12.7302 4.94222C12.9917 4.45124 13.2023 4.23205 13.8097 3.81858C14.4135 3.40767 14.5014 3.28729 14.4029 3.00662C14.3668 2.90368 14.2413 2.80991 13.9417 2.66185C13.4001 2.39428 13.0313 2.02763 12.7817 1.5088C12.6746 1.2863 12.5416 1.0799 12.4861 1.05021C12.3591 0.982274 12.1618 0.983412 12.0428 1.05281ZM21.7098 2.24362C20.813 2.43795 19.8875 2.86809 19.4146 3.31043C19.0705 3.63217 18.9112 4.00484 18.9099 4.49046C18.9091 4.85099 18.9441 4.95777 19.6211 6.65744L20.3331 8.4452L20.3673 9.44743C20.4344 11.4134 20.6664 13.4581 21.0097 15.1087L21.1787 15.9213L21.2076 20.797L21.2366 25.6727L21.3786 25.9753C21.5521 26.3453 21.8259 26.6274 22.2001 26.8218C22.443 26.9479 22.5476 26.9684 22.9433 26.968C23.3194 26.9675 23.4535 26.9433 23.6748 26.836C24.0187 26.6692 24.3475 26.3416 24.5174 25.9964L24.65 25.7269L24.6788 20.8512L24.7076 15.9755L24.8833 15.1087C25.2397 13.3504 25.4533 11.4659 25.5244 9.45117L25.5616 8.39845L26.2608 6.66118C27.04 4.72525 27.0884 4.53022 26.922 3.99546C26.7144 3.32814 25.7674 2.66938 24.5146 2.32077C23.7883 2.11869 22.4557 2.08202 21.7098 2.24362ZM12.6653 2.81608L13.0847 3.22738L12.6952 3.58807C12.4809 3.7864 12.2894 3.94871 12.2697 3.94871C12.25 3.94871 12.0589 3.78684 11.8452 3.58894L11.4565 3.22917L11.8496 2.82378C12.0658 2.60085 12.2433 2.41535 12.2442 2.41156C12.2451 2.40782 12.4346 2.58985 12.6653 2.81608ZM23.9615 3.08669C24.7393 3.24693 25.7572 3.7241 25.992 4.03848C26.2287 4.35556 26.2057 4.45698 25.4878 6.25622L24.8198 7.93054H24.3691C24.1213 7.93054 23.9186 7.92215 23.9186 7.91191C23.9186 7.90167 23.9917 7.5322 24.0811 7.09084C24.1705 6.64948 24.2437 6.23017 24.2437 6.15898C24.2437 5.97349 24.0135 5.76356 23.8102 5.76356C23.4929 5.76356 23.4213 5.90907 23.2156 6.97073C22.9716 8.23127 22.9349 8.22878 22.6721 6.93395C22.458 5.87901 22.3984 5.76356 22.068 5.76356C21.8859 5.76356 21.643 5.97408 21.643 6.13189C21.643 6.18818 21.7161 6.5953 21.8055 7.03666C21.8949 7.47802 21.9681 7.85968 21.9681 7.88482C21.9681 7.90996 21.7653 7.93054 21.5175 7.93054H21.0669L20.3988 6.25622C19.6851 4.46738 19.6675 4.39202 19.8867 4.05766C20.086 3.75347 21.1284 3.25322 21.9139 3.08479C22.403 2.97991 23.448 2.98088 23.9615 3.08669ZM15.077 4.95338C15.0267 4.98269 14.898 5.18871 14.7909 5.41116C14.5384 5.93638 14.1842 6.28949 13.6412 6.55781C13.3334 6.70988 13.2069 6.80377 13.1706 6.90719C13.0714 7.18992 13.1601 7.3116 13.7577 7.71249C14.3625 8.11826 14.5174 8.27845 14.8186 8.8098C15.1373 9.37186 15.4763 9.38367 15.7644 8.84279C16.0258 8.35181 16.2364 8.13262 16.8439 7.71916C17.4476 7.30824 17.5355 7.18786 17.437 6.90719C17.4009 6.80425 17.2755 6.71048 16.9758 6.56242C16.4343 6.29485 16.0654 5.9282 15.8158 5.40937C15.7088 5.18687 15.5758 4.98047 15.5203 4.95078C15.3933 4.88284 15.1959 4.88398 15.077 4.95338ZM15.6994 6.71665L16.1189 7.12795L15.7293 7.48864C15.515 7.68698 15.3235 7.84928 15.3038 7.84928C15.2841 7.84928 15.0931 7.68741 14.8793 7.48951L14.4907 7.12974L14.8837 6.72435C15.0999 6.50142 15.2774 6.31592 15.2784 6.31213C15.2792 6.30839 15.4687 6.49042 15.6994 6.71665ZM10.3091 7.55376C10.2588 7.58307 10.1301 7.78909 10.023 8.01153C9.77044 8.53676 9.41631 8.88987 8.87331 9.15819C8.56546 9.31026 8.439 9.40415 8.4027 9.50757C8.30349 9.7903 8.39219 9.91198 8.98975 10.3129C9.59457 10.7186 9.74947 10.8788 10.0507 11.4102C10.3694 11.9722 10.7084 11.984 10.9964 11.4432C11.2579 10.9522 11.4685 10.733 12.0759 10.3195C12.6797 9.90862 12.7676 9.78824 12.6691 9.50757C12.633 9.40463 12.5075 9.31086 12.2079 9.1628C11.6663 8.89523 11.2975 8.52858 11.0479 8.00975C10.9409 7.78725 10.8078 7.58085 10.7524 7.55116C10.6254 7.48322 10.428 7.48436 10.3091 7.55376ZM24.6571 9.59641C24.637 10.0359 24.6053 10.621 24.5867 10.8966L24.5528 11.3977H23.881C23.2401 11.3977 23.2032 11.4038 23.0763 11.5307C22.9004 11.7066 22.9004 11.9556 23.0763 12.1315C23.2021 12.2574 23.2429 12.2645 23.8349 12.2645C24.1789 12.2645 24.46 12.2828 24.4595 12.3051C24.4562 12.467 24.2131 14.0305 24.0719 14.7984L23.8999 15.7341L22.9486 15.7193L21.9973 15.7046L21.8497 14.9462C21.5349 13.3274 21.3193 11.459 21.2323 9.59641L21.195 8.79734H22.9442H24.6935L24.6571 9.59641ZM10.9315 9.31703L11.351 9.72833L10.9614 10.089C10.7471 10.2874 10.5556 10.4497 10.5359 10.4497C10.5162 10.4497 10.3251 10.2878 10.1114 10.0899L9.72276 9.73011L10.1158 9.32473C10.332 9.1018 10.5095 8.91631 10.5104 8.91251C10.5113 8.90877 10.7008 9.0908 10.9315 9.31703ZM16.7396 13.8716C16.4886 14.0042 16.3808 14.1147 16.2726 14.3502C16.1811 14.5496 16.173 14.7518 16.1719 16.8829C16.1709 18.9352 16.1612 19.1989 16.087 19.1989C16.041 19.1989 15.9434 19.2587 15.8703 19.3319L15.7373 19.4648V23.0994V26.7341L15.8703 26.867L16.0032 27H17.9045H19.8058L19.9387 26.867L20.0717 26.7341V23.0994V19.4648L19.9387 19.3319C19.8656 19.2587 19.7692 19.1989 19.7247 19.1989C19.6545 19.1989 19.6414 18.9475 19.6274 17.3434L19.6112 15.4879L19.4684 15.1834C19.2955 14.8148 18.9954 14.4721 18.6874 14.2916C18.3582 14.0986 17.3793 13.781 17.1218 13.7836C17.001 13.7848 16.829 13.8244 16.7396 13.8716ZM7.33924 14.0266C7.29454 14.0354 7.0751 14.0722 6.85161 14.1086C4.48927 14.4925 2.51421 16.4172 1.99711 18.8392C1.76159 19.9422 1.87748 21.2559 2.30237 22.3004L2.45115 22.666H1.85857C1.29303 22.666 1.25966 22.6724 1.12545 22.8066C0.988589 22.9435 0.985663 22.961 1.01487 23.4703C1.0704 24.4378 1.42713 25.2475 2.08992 25.9103C2.51622 26.3365 2.98234 26.624 3.57367 26.8253L4.00711 26.9729H7.93523H11.8633L12.2968 26.8253C13.7996 26.3136 14.7651 25.0477 14.8556 23.4703C14.8848 22.961 14.8819 22.9435 14.745 22.8066C14.6108 22.6724 14.5774 22.666 14.0119 22.666H13.4193L13.5681 22.3004C14.0942 21.0071 14.1332 19.4632 13.674 18.1078C13.4868 17.5553 13.0395 16.7439 12.662 16.2721C11.6964 15.0653 10.2979 14.2783 8.72085 14.0542C8.37425 14.0049 7.53548 13.9881 7.33924 14.0266ZM17.654 14.8085C18.2985 15.0263 18.466 15.1402 18.6321 15.4735L18.7714 15.753V17.4759V19.1989H17.9045H17.0376V16.9597C17.0376 15.7281 17.0539 14.7042 17.0737 14.6843C17.1266 14.6315 17.1369 14.6337 17.654 14.8085ZM9.1893 15.0211C10.1657 15.2741 10.9183 15.7143 11.6466 16.4584C12.5544 17.3859 13.0289 18.4459 13.1161 19.7406C13.1751 20.6169 12.9829 21.5978 12.6066 22.341L12.4557 22.6389L11.9292 22.6544L11.4026 22.6699L11.6177 22.3373C12.0505 21.6676 12.2402 20.9755 12.2402 20.0657C12.2402 18.8471 11.8312 17.8418 10.9953 17.006C10.1594 16.1702 9.15392 15.7612 7.93523 15.7612C6.9915 15.7612 6.32497 15.9521 5.58724 16.4336C3.87253 17.5528 3.18221 19.6318 3.88244 21.5679C3.97114 21.8132 4.1391 22.1614 4.25575 22.3419L4.46781 22.6699L3.94128 22.6544L3.41475 22.6389L3.26386 22.341C2.64051 21.1099 2.57457 19.4946 3.09389 18.1765C3.36344 17.4924 3.70478 16.9834 4.2791 16.4096C5.14426 15.5451 6.06187 15.0878 7.31215 14.8982C7.67342 14.8434 8.78408 14.9161 9.1893 15.0211ZM23.7976 21.091C23.7833 25.5326 23.7819 25.5852 23.6714 25.7331C23.4602 26.016 23.2855 26.1061 22.9487 26.1061C22.6936 26.1061 22.6021 26.0796 22.4456 25.9602C22.0558 25.663 22.0764 25.9389 22.0764 21.0191V16.5985H22.9442H23.8121L23.7976 21.091ZM7.32764 16.8287C7.25461 16.9256 6.59685 17.8026 5.866 18.7776C5.1351 19.7527 4.52151 20.5348 4.50238 20.5157C4.43931 20.4526 4.46814 19.7202 4.54887 19.3343C4.79512 18.1577 5.73456 17.1287 6.90427 16.7543C7.06898 16.7016 7.26154 16.6571 7.33214 16.6556L7.46044 16.6527L7.32764 16.8287ZM9.22175 16.8556C9.43977 16.9416 9.54673 17.0111 9.52251 17.0511C9.46231 17.1505 5.54634 22.1408 5.4396 22.254C5.34506 22.3544 5.33991 22.3532 5.20884 22.2009C5.1351 22.1152 5.02024 21.9452 4.9536 21.8232L4.8324 21.6013L6.68679 19.1294C8.54021 16.6586 8.54124 16.6574 8.71229 16.6898C8.8064 16.7076 9.03564 16.7822 9.22175 16.8556ZM10.9179 18.3116C11.0058 18.4642 11.0777 18.6177 11.0777 18.6528C11.0777 18.6878 10.3811 19.6052 9.52966 20.6913L7.98161 22.666H7.11542C6.43658 22.666 6.25817 22.6514 6.29046 22.5983C6.3131 22.5611 7.22123 21.3987 8.30848 20.0153L10.2852 17.5001L10.5217 17.7671C10.6517 17.9139 10.83 18.159 10.9179 18.3116ZM11.3249 20.7755C11.2148 21.3096 10.8804 21.9723 10.5262 22.3584L10.2379 22.6726L9.66593 22.6558L9.09394 22.6389L10.2348 21.186L11.3757 19.733L11.3916 20.0539C11.4004 20.2304 11.3704 20.5551 11.3249 20.7755ZM19.2048 20.499V20.9324H17.9045H16.6042V20.499V20.0657H17.9045H19.2048V20.499ZM19.2048 23.9662V26.1332H17.9045H16.6042V23.9662V21.7992H17.9045H19.2048V23.9662ZM5.35167 23.8025C5.3016 24.2253 5.41733 24.5427 5.73792 24.8619C5.90984 25.0331 6.09481 25.1591 6.23481 25.2005C6.54381 25.2918 9.32664 25.2918 9.63564 25.2005C9.77564 25.1591 9.96061 25.0331 10.1325 24.8619C10.4531 24.5427 10.5688 24.2253 10.5188 23.8025L10.4868 23.5328H12.2452C13.2122 23.5328 14.0031 23.5511 14.0027 23.5735C14.0022 23.5958 13.9651 23.7703 13.92 23.9612C13.6826 24.9686 12.8388 25.8123 11.8312 26.0498C11.3153 26.1714 4.55515 26.1714 4.03924 26.0498C2.9222 25.7865 2.13728 24.9302 1.89352 23.7089L1.85835 23.5328H3.62097H5.38363L5.35167 23.8025ZM9.536 23.6658C9.61987 23.7496 9.66901 23.8607 9.66901 23.9662C9.66901 24.0718 9.61987 24.1828 9.536 24.2666L9.40304 24.3996H7.93523H6.46741L6.33445 24.2666C6.25058 24.1828 6.20144 24.0718 6.20144 23.9662C6.20144 23.8607 6.25058 23.7496 6.33445 23.6658L6.46741 23.5328H7.93523H9.40304L9.536 23.6658Z" fill="#474747" stroke="#474747" stroke-width="0.3"/>
</svg>
