<svg width="26" height="20" viewBox="0 0 26 20" fill="none" xmlns="http://www.w3.org/2000/svg">
<path fill-rule="evenodd" clip-rule="evenodd" d="M12.1857 0.0761847C10.7784 0.4458 9.76291 1.72739 9.73842 3.16471C9.73187 3.54732 9.80354 3.69086 10.1027 3.89444C10.4275 4.11549 10.9008 3.99993 11.1153 3.64718C11.1686 3.55957 11.2282 3.34791 11.2478 3.1769C11.3057 2.67106 11.4556 2.34345 11.7753 2.02376C12.1313 1.66771 12.4901 1.5199 12.9984 1.5199C13.5066 1.5199 13.8654 1.66771 14.2214 2.02376C14.5855 2.38784 14.7348 2.75639 14.7333 3.28772C14.7324 3.59187 14.7053 3.7156 14.5828 3.97342C14.3988 4.36117 14.2072 4.55768 13.6833 4.89621C12.7557 5.49561 12.2365 6.43557 12.2365 7.51546V7.90763L6.71314 11.1009C1.52811 14.0985 1.16764 14.3159 0.8283 14.6497C0.425466 15.046 0.191517 15.4504 0.0720539 15.9571C-0.260991 17.3696 0.589525 18.7895 2.0238 19.2153C2.27374 19.2895 3.30579 19.2972 13.0113 19.2972H23.723L24.1074 19.1682C24.8269 18.9266 25.3987 18.4254 25.7181 17.7565C26.3679 16.3956 25.8706 14.944 24.4703 14.1139C24.2088 13.9589 21.6921 12.4985 18.8776 10.8687L13.7603 7.90535V7.59043C13.7603 6.88965 13.9752 6.53284 14.6815 6.06118C15.2721 5.66668 15.6141 5.30194 15.8882 4.77421C16.157 4.25664 16.2491 3.87107 16.2491 3.26289C16.2491 2.30566 15.9734 1.6448 15.2885 0.960426C14.7927 0.464948 14.429 0.249285 13.8316 0.0964509C13.362 -0.0236219 12.6014 -0.0329677 12.1857 0.0761847ZM18.4817 12.3996C21.4302 14.1067 23.9163 15.5577 24.0065 15.6242C24.0966 15.6907 24.2288 15.8449 24.3003 15.9668C24.6566 16.5748 24.4197 17.3655 23.7955 17.6512L23.5271 17.7741L12.9382 17.7611L2.34943 17.748L2.1008 17.5943C1.94669 17.499 1.79371 17.346 1.69842 17.1919C1.56524 16.9765 1.54472 16.8953 1.54472 16.5838C1.54472 16.2817 1.56738 16.1857 1.68659 15.9829C1.76465 15.8501 1.89037 15.6962 1.96594 15.6408C2.35009 15.3597 12.983 9.24514 13.047 9.26871C13.0877 9.28369 15.5333 10.6926 18.4817 12.3996Z" fill="#474747"/>
</svg>
