<svg width="26" height="23" viewBox="0 0 26 23" fill="none" xmlns="http://www.w3.org/2000/svg">
<path fill-rule="evenodd" clip-rule="evenodd" d="M9.46746 0.0730992C8.1977 0.353105 7.15183 1.28629 6.65144 2.58583C6.24386 3.6442 6.22185 4.89521 6.59197 5.96156C6.81627 6.60792 7.10558 7.0643 7.61227 7.57109C8.14219 8.10117 8.47811 8.32415 9.04381 8.52135C9.5349 8.69254 10.3731 8.73717 10.8769 8.61894C12.3405 8.27545 13.4674 7.04381 13.8476 5.37237C13.9833 4.77602 13.9608 3.75338 13.7985 3.1398C13.2367 1.01619 11.326 -0.336719 9.46746 0.0730992ZM10.9615 1.73168C11.5895 2.04031 12.1089 2.72017 12.3161 3.50483C12.4316 3.94261 12.4317 4.74374 12.3163 5.18212C12.1024 5.99429 11.5832 6.6771 10.9414 6.99019C10.6663 7.12443 10.5868 7.13896 10.1282 7.13896C9.66934 7.13896 9.59031 7.12448 9.31498 6.98999C8.71318 6.69601 8.18509 6.01365 7.96293 5.24322C7.83652 4.80489 7.82763 4.00045 7.94412 3.54783C8.19383 2.5775 8.90856 1.75888 9.66441 1.57737C10.0523 1.48426 10.5875 1.54789 10.9615 1.73168ZM17.7973 2.07853C16.2918 2.31721 15.0107 3.55902 14.5694 5.20754C14.4177 5.774 14.4158 6.77001 14.5653 7.32377C14.9969 8.92248 16.2254 9.92209 17.7494 9.91467C19.3411 9.9069 20.735 8.78504 21.3409 7.02409C21.5075 6.53992 21.5112 6.51059 21.5102 5.69039C21.5094 4.9254 21.4978 4.81754 21.3783 4.46206C20.9973 3.32826 20.1486 2.4702 19.1046 2.16341C18.7663 2.06399 18.1439 2.02353 17.7973 2.07853ZM18.8823 3.70997C19.5756 4.01082 20.0141 4.7717 20.0141 5.67408C20.0141 6.1853 19.9366 6.51303 19.702 6.99421C19.4385 7.53465 19.0137 7.97786 18.5475 8.19876C18.2424 8.34336 18.163 8.35881 17.7268 8.35881C17.1776 8.35881 17.012 8.29965 16.6364 7.96907C16.3313 7.7005 16.0679 7.16122 15.9944 6.65423C15.7975 5.29791 16.777 3.78891 17.9708 3.60949C18.324 3.55637 18.598 3.58656 18.8823 3.70997ZM2.36693 5.10837C0.490651 5.56333 -0.493918 7.73374 0.248257 9.77881C0.671595 10.9452 1.59482 11.8572 2.70747 12.2079C3.207 12.3654 3.98572 12.365 4.49531 12.207C5.23489 11.9777 5.89778 11.4014 6.26841 10.6653C6.56361 10.0792 6.66323 9.58394 6.63492 8.84304C6.61428 8.30239 6.58638 8.13461 6.44996 7.73105C6.21453 7.03467 5.94296 6.60228 5.40653 6.06972C5.03468 5.70051 4.85842 5.56816 4.50857 5.39555C3.80421 5.04799 3.03901 4.94537 2.36693 5.10837ZM3.78556 6.73489C3.94739 6.81377 4.206 7.00559 4.36026 7.16112C5.42905 8.23891 5.3645 10.0691 4.23685 10.6614C4.01743 10.7766 3.91634 10.7969 3.57153 10.7951C3.22834 10.7933 3.1213 10.7707 2.88536 10.65C2.48276 10.444 2.22319 10.2165 1.98349 9.85953C1.66928 9.39161 1.54191 8.96777 1.54002 8.38422C1.5383 7.84942 1.62069 7.55661 1.88026 7.17546C2.28494 6.58109 3.08887 6.39521 3.78556 6.73489ZM22.2759 8.76868C22.0802 8.81158 21.6887 8.95882 21.4058 9.0959C20.0593 9.74857 19.1494 11.1843 19.1512 12.6537C19.1524 13.6091 19.4357 14.3225 20.0603 14.9429C20.7108 15.5891 21.3695 15.8352 22.3267 15.7896C22.9577 15.7596 23.4007 15.6318 23.972 15.315C24.4135 15.0703 25.1644 14.3208 25.4419 13.8481C26.099 12.7284 26.1818 11.3906 25.6588 10.3411C25.4058 9.83315 25.1464 9.53103 24.7033 9.22831C24.0186 8.76044 23.1036 8.58723 22.2759 8.76868ZM10.9897 9.34658C9.88048 9.54196 8.91563 9.98136 8.0443 10.6881C7.3651 11.239 7.01134 11.7131 5.36455 14.2802C4.49475 15.636 3.71887 16.8825 3.64035 17.0502C3.16268 18.0707 3.16481 19.3886 3.64579 20.4165C4.16427 21.5245 5.13146 22.3158 6.34119 22.6217C6.70359 22.7134 6.87091 22.7264 7.43219 22.7064C8.00781 22.6859 8.15205 22.6623 8.52716 22.5274C10.4865 21.8227 10.6922 21.7792 12.0596 21.7808C12.9152 21.7818 13.1582 21.7997 13.5943 21.8943C14.0907 22.0019 14.2919 22.0654 15.4905 22.4925C15.9729 22.6645 16.0852 22.6848 16.6595 22.7049C17.5721 22.7368 18.1974 22.5845 18.9345 22.151C19.3435 21.9103 20.0032 21.239 20.2661 20.7961C20.6248 20.1913 20.7838 19.6503 20.8142 18.9308C20.8439 18.2298 20.7642 17.7365 20.5319 17.1838C20.4025 16.8758 18.1743 13.333 17.315 12.0692C17.0057 11.6141 16.3897 10.9419 15.9733 10.605C14.6511 9.53505 12.7069 9.04411 10.9897 9.34658ZM23.4536 10.29C23.603 10.3344 23.8067 10.4515 23.9429 10.5714C24.9799 11.4842 24.4419 13.4309 22.962 14.1206C22.7252 14.2311 22.6088 14.2512 22.1996 14.2528C21.783 14.2545 21.6828 14.2374 21.4688 14.1281C21.1556 13.9681 20.9092 13.682 20.7716 13.3185C20.6327 12.9512 20.6564 12.2622 20.822 11.8491C21.2878 10.6877 22.4581 9.99437 23.4536 10.29ZM13.2107 10.92C14.3004 11.2015 15.2522 11.8323 15.8889 12.6951C16.3267 13.2882 18.9027 17.3396 19.0874 17.7255C19.2355 18.0349 19.2688 18.1685 19.2898 18.5387C19.3342 19.3179 19.1571 19.8414 18.6718 20.3655C18.0884 20.9957 17.5451 21.2225 16.7178 21.1812C16.2862 21.1597 16.1553 21.1284 15.6255 20.9204C14.3923 20.4362 13.4225 20.2533 12.085 20.2527C10.6822 20.2522 9.72581 20.4302 8.47633 20.9247C7.96349 21.1277 7.83169 21.1591 7.40149 21.1809C6.99635 21.2014 6.8488 21.1868 6.55217 21.0967C5.85508 20.8849 5.23454 20.3137 4.96276 19.6335C4.86233 19.382 4.84434 19.2456 4.84337 18.7275C4.8423 18.1843 4.85648 18.0842 4.97267 17.8126C5.10752 17.4974 7.86646 13.1546 8.25427 12.647C8.98384 11.6922 10.1339 11.0152 11.3481 10.8259C11.803 10.7549 12.7589 10.8032 13.2107 10.92Z" fill="#474747"/>
</svg>
