<svg width="314" height="290" viewBox="0 0 314 290" fill="none" xmlns="http://www.w3.org/2000/svg">
<path d="M152.143 289.176C236.169 289.176 304.286 249.85 304.286 201.338C304.286 152.826 236.169 113.5 152.143 113.5C68.1168 113.5 0 152.826 0 201.338C0 249.85 68.1168 289.176 152.143 289.176Z" fill="#EBEBEB"/>
<path d="M304.287 201.258C304.252 181.117 292.29 160.983 268.406 144.682L267.124 143.82L52.5117 267.728L53.8362 268.38C82.0643 282.214 117.034 289.159 151.99 289.18L304.287 201.258Z" fill="#FAFAFA"/>
<path d="M117.67 153.111C132.47 153.111 144.468 146.184 144.468 137.638C144.468 129.092 132.47 122.164 117.67 122.164C102.869 122.164 90.8711 129.092 90.8711 137.638C90.8711 146.184 102.869 153.111 117.67 153.111Z" fill="#E0E0E0"/>
<path opacity="0.05" d="M201.487 244.401C223.219 244.401 240.836 234.229 240.836 221.681C240.836 209.133 223.219 198.961 201.487 198.961C179.754 198.961 162.137 209.133 162.137 221.681C162.137 234.229 179.754 244.401 201.487 244.401Z" fill="black"/>
<path d="M45.387 229.684C62.4864 229.684 76.3482 221.68 76.3482 211.807C76.3482 201.934 62.4864 193.93 45.387 193.93C28.2876 193.93 14.4258 201.934 14.4258 211.807C14.4258 221.68 28.2876 229.684 45.387 229.684Z" fill="#E0E0E0"/>
<path d="M111.5 62.5078V137.493C111.5 138.39 112.096 139.294 113.287 139.981C114.621 140.655 116.095 141.006 117.59 141.006C119.085 141.006 120.559 140.655 121.893 139.981C123.084 139.28 123.68 138.39 123.68 137.493V62.5078H111.5Z" fill="#B16668"/>
<path d="M157.899 101.31L120.189 10.2344H114.933L77.2164 101.338C76.945 101.996 76.8224 102.706 76.8574 103.417C76.8925 104.128 77.0843 104.822 77.4191 105.451C77.754 106.079 78.2236 106.625 78.7943 107.051C79.365 107.476 80.0228 107.77 80.7204 107.912L81.3371 108.031C82.5324 108.268 83.5934 108.949 84.3061 109.937C85.0189 110.926 85.3302 112.148 85.1775 113.357C85.0794 114.155 85.1824 114.966 85.4772 115.714C85.7719 116.463 86.2491 117.126 86.8653 117.644C87.4815 118.161 88.2172 118.516 89.0056 118.677C89.794 118.837 90.61 118.799 91.3795 118.564L93.2437 117.989C94.3633 117.644 95.5703 117.719 96.6385 118.2C97.7067 118.682 98.5627 119.536 99.0463 120.603L100.924 124.738C101.204 125.354 101.611 125.906 102.117 126.355C102.624 126.804 103.22 127.142 103.866 127.345C104.512 127.549 105.194 127.614 105.866 127.537C106.539 127.459 107.188 127.241 107.771 126.896L115.088 122.558C115.83 122.117 116.677 121.884 117.54 121.884C118.404 121.884 119.251 122.117 119.993 122.558L127.309 126.896C127.892 127.241 128.541 127.459 129.214 127.537C129.887 127.614 130.569 127.549 131.215 127.345C131.861 127.142 132.456 126.804 132.963 126.355C133.47 125.906 133.877 125.354 134.156 124.738L136.027 120.603C136.512 119.535 137.37 118.681 138.439 118.2C139.508 117.719 140.716 117.644 141.837 117.989L143.701 118.557C144.47 118.794 145.286 118.834 146.074 118.675C146.862 118.515 147.598 118.16 148.214 117.643C148.83 117.126 149.307 116.463 149.601 115.714C149.895 114.965 149.996 114.155 149.896 113.357C149.747 112.147 150.061 110.926 150.774 109.938C151.488 108.951 152.548 108.269 153.744 108.031L154.36 107.912C155.065 107.777 155.731 107.486 156.309 107.061C156.888 106.636 157.364 106.087 157.703 105.454C158.042 104.822 158.236 104.121 158.27 103.404C158.304 102.687 158.177 101.972 157.899 101.31Z" fill="#F26222"/>
<path opacity="0.3" d="M157.899 101.31L120.189 10.2344H114.933L77.2164 101.338C76.945 101.996 76.8224 102.706 76.8574 103.417C76.8925 104.128 77.0843 104.822 77.4191 105.451C77.754 106.079 78.2236 106.625 78.7943 107.051C79.365 107.476 80.0228 107.77 80.7204 107.912L81.3371 108.031C82.5324 108.268 83.5934 108.949 84.3061 109.937C85.0189 110.926 85.3302 112.148 85.1775 113.357C85.0794 114.155 85.1824 114.966 85.4772 115.714C85.7719 116.463 86.2491 117.126 86.8653 117.644C87.4815 118.161 88.2172 118.516 89.0056 118.677C89.794 118.837 90.61 118.799 91.3795 118.564L93.2437 117.989C94.3633 117.644 95.5703 117.719 96.6385 118.2C97.7067 118.682 98.5627 119.536 99.0463 120.603L100.924 124.738C101.204 125.354 101.611 125.906 102.117 126.355C102.624 126.804 103.22 127.142 103.866 127.345C104.512 127.549 105.194 127.614 105.866 127.537C106.539 127.459 107.188 127.241 107.771 126.896L115.088 122.558C115.83 122.117 116.677 121.884 117.54 121.884C118.404 121.884 119.251 122.117 119.993 122.558L127.309 126.896C127.892 127.241 128.541 127.459 129.214 127.537C129.887 127.614 130.569 127.549 131.215 127.345C131.861 127.142 132.456 126.804 132.963 126.355C133.47 125.906 133.877 125.354 134.156 124.738L136.027 120.603C136.512 119.535 137.37 118.681 138.439 118.2C139.508 117.719 140.716 117.644 141.837 117.989L143.701 118.557C144.47 118.794 145.286 118.834 146.074 118.675C146.862 118.515 147.598 118.16 148.214 117.643C148.83 117.126 149.307 116.463 149.601 115.714C149.895 114.965 149.996 114.155 149.896 113.357C149.747 112.147 150.061 110.926 150.774 109.938C151.488 108.951 152.548 108.269 153.744 108.031L154.36 107.912C155.065 107.777 155.731 107.486 156.309 107.061C156.888 106.636 157.364 106.087 157.703 105.454C158.042 104.822 158.236 104.121 158.27 103.404C158.304 102.687 158.177 101.972 157.899 101.31Z" fill="black"/>
<path opacity="0.1" d="M110.721 20.4088L114.926 10.8359H120.182L127.148 27.0594L149.91 82.0229C149.8 82.6007 149.512 83.1295 149.086 83.5345C148.66 83.9394 148.117 84.2001 147.534 84.2795C146.61 84.4317 145.78 84.9337 145.217 85.6814C144.653 86.429 144.399 87.365 144.507 88.2951L144.584 88.9959C144.657 89.6169 144.569 90.2465 144.328 90.8237C144.087 91.4008 143.702 91.9061 143.209 92.2908C142.715 92.6754 142.131 92.9264 141.513 93.0195C140.895 93.1126 140.263 93.0447 139.678 92.8222L137.814 92.1214C136.944 91.7898 135.979 91.804 135.119 92.1611C134.259 92.5182 133.568 93.1911 133.189 94.0416L130.876 99.2345C130.665 99.704 130.357 100.124 129.972 100.466C129.588 100.808 129.135 101.066 128.644 101.221C128.154 101.377 127.636 101.427 127.124 101.368C126.613 101.31 126.119 101.144 125.676 100.881L119.425 96.6766C118.86 96.3396 118.215 96.1616 117.557 96.1616C116.9 96.1616 116.254 96.3396 115.69 96.6766L108.717 100.881C108.274 101.144 107.78 101.31 107.269 101.368C106.757 101.427 106.239 101.377 105.748 101.221C105.258 101.066 104.805 100.808 104.421 100.466C104.036 100.124 103.728 99.704 103.517 99.2345L101.204 94.0416C100.825 93.1911 100.134 92.5182 99.2737 92.1611C98.4136 91.804 97.4493 91.7898 96.579 92.1214L94.7149 92.8222C94.1304 93.0425 93.499 93.1089 92.8815 93.015C92.2639 92.921 91.6809 92.6699 91.1883 92.2857C90.6958 91.9015 90.3102 91.3971 90.0688 90.821C89.8273 90.2449 89.7379 89.6164 89.8093 88.9959L89.8934 88.2951C90.0013 87.365 89.747 86.429 89.1833 85.6814C88.6197 84.9337 87.7898 84.4317 86.866 84.2795C86.449 84.2247 86.0502 84.0748 85.7002 83.8416C85.3503 83.6083 85.0586 83.2978 84.8477 82.934L110.721 20.4088Z" fill="black"/>
<path d="M149.488 74.8304L120.187 6.59375H114.931L84.8672 74.8304C83.788 77.0239 84.4047 79.6378 86.8224 80.0373C87.7463 80.1895 88.5762 80.6915 89.1398 81.4392C89.7035 82.1868 89.9578 83.1228 89.8499 84.0529L89.7658 84.7537C89.6951 85.3743 89.7848 86.0027 90.0264 86.5787C90.2679 87.1547 90.6532 87.6592 91.1454 88.0438C91.6375 88.4284 92.2202 88.6803 92.8375 88.7754C93.4548 88.8705 94.0863 88.8057 94.6714 88.587L96.5355 87.8862C97.4058 87.5546 98.3701 87.5688 99.2302 87.9259C100.09 88.2831 100.781 88.9559 101.161 89.8064L103.473 94.9993C103.683 95.4704 103.99 95.8916 104.374 96.2352C104.759 96.5788 105.211 96.837 105.703 96.9926C106.194 97.1483 106.713 97.1979 107.225 97.1382C107.737 97.0784 108.231 96.9108 108.673 96.6462L115.646 92.4835C116.211 92.1465 116.856 91.9685 117.514 91.9685C118.171 91.9685 118.817 92.1465 119.381 92.4835L125.633 96.6462C126.075 96.9108 126.569 97.0784 127.081 97.1382C127.593 97.1979 128.112 97.1483 128.603 96.9926C129.095 96.837 129.547 96.5788 129.932 96.2352C130.316 95.8916 130.623 95.4704 130.833 94.9993L133.145 89.8064C133.525 88.9559 134.216 88.2831 135.076 87.9259C135.936 87.5688 136.9 87.5546 137.77 87.8862L139.635 88.587C140.22 88.8078 140.852 88.8742 141.47 88.7799C142.088 88.6857 142.672 88.4339 143.165 88.0488C143.657 87.6638 144.043 87.1584 144.284 86.5813C144.524 86.0042 144.613 85.3748 144.54 84.7537L144.463 84.0529C144.355 83.122 144.609 82.1851 145.173 81.4364C145.736 80.6876 146.566 80.1841 147.49 80.0303C149.957 79.6379 150.574 77.0239 149.488 74.8304Z" fill="#F26222"/>
<path opacity="0.2" d="M149.488 74.8304L120.187 6.59375H114.931L84.8672 74.8304C83.788 77.0239 84.4047 79.6378 86.8224 80.0373C87.7463 80.1895 88.5762 80.6915 89.1398 81.4392C89.7035 82.1868 89.9578 83.1228 89.8499 84.0529L89.7658 84.7537C89.6951 85.3743 89.7848 86.0027 90.0264 86.5787C90.2679 87.1547 90.6532 87.6592 91.1454 88.0438C91.6375 88.4284 92.2202 88.6803 92.8375 88.7754C93.4548 88.8705 94.0863 88.8057 94.6714 88.587L96.5355 87.8862C97.4058 87.5546 98.3701 87.5688 99.2302 87.9259C100.09 88.2831 100.781 88.9559 101.161 89.8064L103.473 94.9993C103.683 95.4704 103.99 95.8916 104.374 96.2352C104.759 96.5788 105.211 96.837 105.703 96.9926C106.194 97.1483 106.713 97.1979 107.225 97.1382C107.737 97.0784 108.231 96.9108 108.673 96.6462L115.646 92.4835C116.211 92.1465 116.856 91.9685 117.514 91.9685C118.171 91.9685 118.817 92.1465 119.381 92.4835L125.633 96.6462C126.075 96.9108 126.569 97.0784 127.081 97.1382C127.593 97.1979 128.112 97.1483 128.603 96.9926C129.095 96.837 129.547 96.5788 129.932 96.2352C130.316 95.8916 130.623 95.4704 130.833 94.9993L133.145 89.8064C133.525 88.9559 134.216 88.2831 135.076 87.9259C135.936 87.5688 136.9 87.5546 137.77 87.8862L139.635 88.587C140.22 88.8078 140.852 88.8742 141.47 88.7799C142.088 88.6857 142.672 88.4339 143.165 88.0488C143.657 87.6638 144.043 87.1584 144.284 86.5813C144.524 86.0042 144.613 85.3748 144.54 84.7537L144.463 84.0529C144.355 83.122 144.609 82.1851 145.173 81.4364C145.736 80.6876 146.566 80.1841 147.49 80.0303C149.957 79.6379 150.574 77.0239 149.488 74.8304Z" fill="black"/>
<path opacity="0.1" d="M114.936 6.59375H120.192L141.546 56.3153C141.38 56.461 141.199 56.588 141.006 56.6937L140.845 56.7849C140.296 57.0956 139.847 57.557 139.551 58.1145C139.256 58.6721 139.126 59.3025 139.177 59.9314C139.223 60.4557 139.141 60.9833 138.94 61.4697C138.739 61.956 138.424 62.3867 138.021 62.7255C137.618 63.0644 137.14 63.3013 136.626 63.4163C136.113 63.5313 135.579 63.521 135.07 63.3864L133.795 63.05C133.081 62.8619 132.325 62.9201 131.648 63.2152C130.972 63.5102 130.415 64.0248 130.067 64.6758L128.322 67.9345C127.911 68.695 127.218 69.2638 126.392 69.5181C125.567 69.7724 124.674 69.692 123.907 69.2941L119.085 66.7712C118.616 66.5262 118.094 66.3982 117.564 66.3982C117.035 66.3982 116.513 66.5262 116.044 66.7712L111.222 69.2941C110.455 69.692 109.562 69.7724 108.736 69.5181C107.911 69.2638 107.218 68.695 106.807 67.9345L105.062 64.6758C104.713 64.0243 104.155 63.5094 103.477 63.2144C102.799 62.9194 102.042 62.8615 101.327 63.05L100.059 63.3864C99.5498 63.521 99.0161 63.5313 98.5025 63.4163C97.9889 63.3013 97.5106 63.0644 97.1078 62.7255C96.7051 62.3867 96.3898 61.956 96.1886 61.4697C95.9874 60.9833 95.9062 60.4557 95.9519 59.9314C96.0042 59.3033 95.8747 58.6733 95.579 58.1167C95.2833 57.56 94.8337 57.1001 94.284 56.7919L94.1228 56.7008C93.778 56.5024 93.4718 56.2437 93.2188 55.9369L114.936 6.59375Z" fill="black"/>
<path d="M142.194 47.9908L120.168 1.6891L119.993 1.40878C119.748 0.980697 119.394 0.624997 118.967 0.377632C118.54 0.130266 118.055 0 117.561 0C117.068 0 116.583 0.130266 116.156 0.377632C115.729 0.624997 115.375 0.980697 115.13 1.40878L114.954 1.69611L92.9283 47.9908C92.6951 48.3677 92.5407 48.7879 92.4744 49.2262C92.4081 49.6644 92.4313 50.1116 92.5427 50.5406C92.654 50.9696 92.8512 51.3716 93.1222 51.7223C93.3933 52.073 93.7326 52.3651 94.1197 52.581L94.2809 52.6721C94.8301 52.9811 95.2791 53.4411 95.5748 53.9975C95.8704 54.554 96.0002 55.1836 95.9488 55.8117C95.9031 56.336 95.9843 56.8636 96.1855 57.3499C96.3867 57.8362 96.702 58.267 97.1047 58.6058C97.5075 58.9446 97.9858 59.1815 98.4994 59.2965C99.013 59.4116 99.5467 59.4013 100.055 59.2666L101.324 58.9302C102.039 58.743 102.796 58.8016 103.473 59.0964C104.15 59.3913 104.709 59.9054 105.059 60.5561L106.804 63.8148C107.213 64.5766 107.906 65.1465 108.732 65.401C109.559 65.6555 110.452 65.5741 111.219 65.1743L116.041 62.6585C116.51 62.4135 117.032 62.2855 117.561 62.2855C118.091 62.2855 118.613 62.4135 119.082 62.6585L123.904 65.1743C124.67 65.5741 125.564 65.6555 126.39 65.401C127.217 65.1465 127.909 64.5766 128.319 63.8148L130.064 60.5561C130.412 59.906 130.97 59.3921 131.646 59.0972C132.322 58.8023 133.078 58.7435 133.792 58.9302L135.067 59.2666C135.576 59.4013 136.11 59.4116 136.623 59.2965C137.137 59.1815 137.615 58.9446 138.018 58.6058C138.421 58.267 138.736 57.8362 138.937 57.3499C139.138 56.8636 139.22 56.336 139.174 55.8117C139.123 55.1836 139.252 54.554 139.548 53.9975C139.844 53.4411 140.293 52.9811 140.842 52.6721L141.003 52.581C141.39 52.3651 141.729 52.073 142 51.7223C142.272 51.3716 142.469 50.9696 142.58 50.5406C142.691 50.1116 142.715 49.6644 142.648 49.2262C142.582 48.7879 142.428 48.3677 142.194 47.9908Z" fill="#F26222"/>
<path opacity="0.1" d="M142.194 47.9908L120.168 1.6891L119.993 1.40878C119.748 0.980697 119.394 0.624997 118.967 0.377632C118.54 0.130266 118.055 0 117.561 0C117.068 0 116.583 0.130266 116.156 0.377632C115.729 0.624997 115.375 0.980697 115.13 1.40878L114.954 1.69611L92.9283 47.9908C92.6951 48.3677 92.5407 48.7879 92.4744 49.2262C92.4081 49.6644 92.4313 50.1116 92.5427 50.5406C92.654 50.9696 92.8512 51.3716 93.1222 51.7223C93.3933 52.073 93.7326 52.3651 94.1197 52.581L94.2809 52.6721C94.8301 52.9811 95.2791 53.4411 95.5748 53.9975C95.8704 54.554 96.0002 55.1836 95.9488 55.8117C95.9031 56.336 95.9843 56.8636 96.1855 57.3499C96.3867 57.8362 96.702 58.267 97.1047 58.6058C97.5075 58.9446 97.9858 59.1815 98.4994 59.2965C99.013 59.4116 99.5467 59.4013 100.055 59.2666L101.324 58.9302C102.039 58.743 102.796 58.8016 103.473 59.0964C104.15 59.3913 104.709 59.9054 105.059 60.5561L106.804 63.8148C107.213 64.5766 107.906 65.1465 108.732 65.401C109.559 65.6555 110.452 65.5741 111.219 65.1743L116.041 62.6585C116.51 62.4135 117.032 62.2855 117.561 62.2855C118.091 62.2855 118.613 62.4135 119.082 62.6585L123.904 65.1743C124.67 65.5741 125.564 65.6555 126.39 65.401C127.217 65.1465 127.909 64.5766 128.319 63.8148L130.064 60.5561C130.412 59.906 130.97 59.3921 131.646 59.0972C132.322 58.8023 133.078 58.7435 133.792 58.9302L135.067 59.2666C135.576 59.4013 136.11 59.4116 136.623 59.2965C137.137 59.1815 137.615 58.9446 138.018 58.6058C138.421 58.267 138.736 57.8362 138.937 57.3499C139.138 56.8636 139.22 56.336 139.174 55.8117C139.123 55.1836 139.252 54.554 139.548 53.9975C139.844 53.4411 140.293 52.9811 140.842 52.6721L141.003 52.581C141.39 52.3651 141.729 52.073 142 51.7223C142.272 51.3716 142.469 50.9696 142.58 50.5406C142.691 50.1116 142.715 49.6644 142.648 49.2262C142.582 48.7879 142.428 48.3677 142.194 47.9908Z" fill="black"/>
<path d="M114.626 139.823C114.584 138.859 114.172 137.949 113.475 137.282C112.779 136.615 111.852 136.242 110.887 136.242C109.923 136.242 108.995 136.615 108.299 137.282C107.602 137.949 107.19 138.859 107.148 139.823V140.033C107.204 140.337 107.332 140.624 107.522 140.868C107.713 141.112 107.96 141.307 108.242 141.434C109.062 141.849 109.968 142.065 110.887 142.065C111.806 142.065 112.712 141.849 113.533 141.434C113.814 141.306 114.06 141.111 114.251 140.867C114.441 140.623 114.57 140.337 114.626 140.033V139.823Z" fill="#37474F"/>
<path d="M113.535 141.458C113.816 141.33 114.062 141.135 114.253 140.891C114.443 140.647 114.572 140.361 114.628 140.057V139.846C114.61 139.193 114.42 138.556 114.078 137.999C113.736 137.442 113.254 136.984 112.68 136.672C112.68 136.714 114.544 139.02 113.185 140.561C112.245 141.627 108.98 141.823 107.578 140.982C107.765 141.181 107.982 141.349 108.223 141.479C109.048 141.894 109.958 142.108 110.881 142.105C111.804 142.101 112.714 141.88 113.535 141.458Z" fill="#263238"/>
<path d="M108.578 141.709C108.543 141.033 108.25 140.396 107.759 139.929C107.268 139.463 106.616 139.203 105.939 139.203C105.262 139.203 104.611 139.463 104.12 139.929C103.629 140.396 103.336 141.033 103.301 141.709V141.856C103.338 142.073 103.428 142.278 103.562 142.453C103.696 142.628 103.871 142.767 104.072 142.858C104.65 143.152 105.29 143.305 105.939 143.305C106.588 143.305 107.228 143.152 107.807 142.858C108.007 142.767 108.182 142.628 108.317 142.453C108.451 142.278 108.541 142.073 108.578 141.856C108.581 141.831 108.581 141.805 108.578 141.779C108.581 141.756 108.581 141.732 108.578 141.709Z" fill="#455A64"/>
<path d="M107.806 142.861C108.007 142.77 108.182 142.63 108.316 142.456C108.45 142.281 108.54 142.076 108.577 141.859C108.581 141.834 108.581 141.808 108.577 141.782C108.581 141.759 108.581 141.735 108.577 141.712C108.57 141.412 108.511 141.116 108.402 140.836C108.465 141.964 107.932 142.651 106.265 142.868C104.597 143.086 103.503 142.371 103.363 142.111C103.501 142.436 103.75 142.701 104.064 142.861C104.644 143.156 105.285 143.31 105.935 143.31C106.586 143.31 107.227 143.156 107.806 142.861Z" fill="#37474F"/>
<path d="M127.941 139.064C127.906 138.393 127.615 137.761 127.128 137.298C126.641 136.836 125.995 136.578 125.323 136.578C124.652 136.578 124.005 136.836 123.518 137.298C123.031 137.761 122.74 138.393 122.706 139.064C122.702 139.087 122.702 139.11 122.706 139.134C122.702 139.159 122.702 139.185 122.706 139.211C122.74 139.427 122.828 139.631 122.962 139.805C123.095 139.979 123.27 140.117 123.47 140.206C124.044 140.496 124.679 140.647 125.323 140.647C125.967 140.647 126.602 140.496 127.177 140.206C127.376 140.115 127.549 139.977 127.683 139.803C127.816 139.63 127.904 139.426 127.941 139.211V139.064Z" fill="#455A64"/>
<path d="M127.179 140.207C127.378 140.116 127.552 139.978 127.685 139.804C127.818 139.631 127.907 139.427 127.943 139.211V139.064C127.936 138.767 127.877 138.472 127.768 138.195C127.831 139.317 127.298 139.996 125.665 140.207C124.033 140.417 122.925 139.716 122.785 139.464C122.926 139.785 123.173 140.048 123.486 140.207C124.059 140.494 124.691 140.644 125.333 140.644C125.974 140.644 126.606 140.494 127.179 140.207Z" fill="#37474F"/>
<path d="M51.5797 131.242V212.247C51.5797 213.221 50.935 214.196 49.6526 214.938C48.2098 215.668 46.6158 216.048 44.9993 216.048C43.3827 216.048 41.7887 215.668 40.346 214.938C39.0635 214.196 38.4258 213.221 38.4258 212.247V131.242H51.5797Z" fill="#B16668"/>
<path d="M1.40832 173.173L42.1597 74.7812H47.8362L88.5945 173.215C88.8891 173.927 89.0221 174.695 88.9841 175.464C88.9461 176.233 88.7379 176.984 88.3746 177.663C88.0113 178.342 87.5019 178.932 86.8831 179.391C86.2644 179.849 85.5516 180.165 84.7962 180.314L84.0954 180.447C82.8043 180.705 81.6583 181.441 80.8875 182.508C80.1167 183.575 79.7781 184.894 79.9397 186.201C80.0446 187.063 79.9325 187.937 79.6134 188.745C79.2943 189.552 78.7783 190.267 78.1126 190.824C77.4468 191.381 76.6522 191.763 75.8013 191.935C74.9503 192.106 74.0698 192.063 73.2401 191.807L71.2288 191.191C70.0165 190.807 68.7058 190.881 67.544 191.397C66.3821 191.913 65.4494 192.837 64.9216 193.994L62.8963 198.465C62.5939 199.132 62.1544 199.727 61.6064 200.212C61.0584 200.698 60.4142 201.062 59.7159 201.282C59.0175 201.501 58.2808 201.571 57.5536 201.487C56.8265 201.402 56.1253 201.165 55.4959 200.792L47.6539 196.103C46.8493 195.629 45.9321 195.378 44.9979 195.378C44.0637 195.378 43.1466 195.629 42.3419 196.103L34.4089 200.792C33.7794 201.165 33.0783 201.402 32.3511 201.487C31.624 201.571 30.8872 201.501 30.1889 201.282C29.4905 201.062 28.8463 200.698 28.2983 200.212C27.7503 199.727 27.3108 199.132 27.0085 198.465L24.9831 193.994C24.4554 192.837 23.5226 191.913 22.3607 191.397C21.1989 190.881 19.8882 190.807 18.676 191.191L16.6577 191.807C15.8279 192.063 14.9475 192.106 14.0965 191.935C13.2455 191.763 12.451 191.381 11.7852 190.824C11.1194 190.267 10.6035 189.552 10.2844 188.745C9.96525 187.937 9.85308 187.063 9.95805 186.201C10.1233 184.895 9.787 183.575 9.01702 182.507C8.24705 181.439 7.10072 180.703 5.80933 180.447L5.10853 180.314C4.3565 180.154 3.64935 179.829 3.03789 179.362C2.42642 178.896 1.92582 178.3 1.57205 177.618C1.21828 176.935 1.02012 176.182 0.991811 175.414C0.963503 174.645 1.10575 173.88 1.40832 173.173Z" fill="#F26222"/>
<path opacity="0.3" d="M1.40832 173.173L42.1597 74.7812H47.8362L88.5945 173.215C88.8891 173.927 89.0221 174.695 88.9841 175.464C88.9461 176.233 88.7379 176.984 88.3746 177.663C88.0113 178.342 87.5019 178.932 86.8831 179.391C86.2644 179.849 85.5516 180.165 84.7962 180.314L84.0954 180.447C82.8043 180.705 81.6583 181.441 80.8875 182.508C80.1167 183.575 79.7781 184.894 79.9397 186.201C80.0446 187.063 79.9325 187.937 79.6134 188.745C79.2943 189.552 78.7783 190.267 78.1126 190.824C77.4468 191.381 76.6522 191.763 75.8013 191.935C74.9503 192.106 74.0698 192.063 73.2401 191.807L71.2288 191.191C70.0165 190.807 68.7058 190.881 67.544 191.397C66.3821 191.913 65.4494 192.837 64.9216 193.994L62.8963 198.465C62.5939 199.132 62.1544 199.727 61.6064 200.212C61.0584 200.698 60.4142 201.062 59.7159 201.282C59.0175 201.501 58.2808 201.571 57.5536 201.487C56.8265 201.402 56.1253 201.165 55.4959 200.792L47.6539 196.103C46.8493 195.629 45.9321 195.378 44.9979 195.378C44.0637 195.378 43.1466 195.629 42.3419 196.103L34.4089 200.792C33.7794 201.165 33.0783 201.402 32.3511 201.487C31.624 201.571 30.8872 201.501 30.1889 201.282C29.4905 201.062 28.8463 200.698 28.2983 200.212C27.7503 199.727 27.3108 199.132 27.0085 198.465L24.9831 193.994C24.4554 192.837 23.5226 191.913 22.3607 191.397C21.1989 190.881 19.8882 190.807 18.676 191.191L16.6577 191.807C15.8279 192.063 14.9475 192.106 14.0965 191.935C13.2455 191.763 12.451 191.381 11.7852 190.824C11.1194 190.267 10.6035 189.552 10.2844 188.745C9.96525 187.937 9.85308 187.063 9.95805 186.201C10.1233 184.895 9.787 183.575 9.01702 182.507C8.24705 181.439 7.10072 180.703 5.80933 180.447L5.10853 180.314C4.3565 180.154 3.64935 179.829 3.03789 179.362C2.42642 178.896 1.92582 178.3 1.57205 177.618C1.21828 176.935 1.02012 176.182 0.991811 175.414C0.963503 174.645 1.10575 173.88 1.40832 173.173Z" fill="black"/>
<path opacity="0.1" d="M52.3913 85.7344L47.8362 75.3906H42.1597L34.6331 92.9106L10.0352 152.31C10.1541 152.933 10.4657 153.503 10.9259 153.939C11.3861 154.375 11.9717 154.656 12.6001 154.742C13.5989 154.908 14.4957 155.451 15.1049 156.26C15.7141 157.069 15.989 158.081 15.8728 159.087L15.7887 159.844C15.7108 160.516 15.8073 161.196 16.0689 161.82C16.3304 162.444 16.7481 162.99 17.2819 163.405C17.8156 163.82 18.4473 164.091 19.1162 164.192C19.7851 164.292 20.4685 164.219 21.1007 163.978L23.112 163.208C24.0567 162.851 25.102 162.871 26.0328 163.262C26.9636 163.653 27.7091 164.386 28.1157 165.31L30.6106 170.916C30.8363 171.424 31.1672 171.879 31.5814 172.249C31.9956 172.62 32.4837 172.899 33.0135 173.067C33.5433 173.235 34.1028 173.289 34.655 173.225C35.2072 173.161 35.7395 172.981 36.2169 172.696L42.9796 168.197C43.5886 167.833 44.2849 167.641 44.9944 167.641C45.704 167.641 46.4003 167.833 47.0092 168.197L54.5568 172.696C55.0345 172.98 55.5668 173.159 56.1187 173.223C56.6706 173.286 57.2297 173.232 57.7591 173.063C58.2886 172.895 58.7766 172.617 59.1909 172.247C59.6052 171.877 59.9366 171.424 60.1632 170.916L62.658 165.31C63.0647 164.386 63.8102 163.653 64.7409 163.262C65.6717 162.871 66.7171 162.851 67.6617 163.208L69.673 163.978C70.3052 164.219 70.9887 164.292 71.6575 164.192C72.3264 164.091 72.9581 163.82 73.4919 163.405C74.0256 162.99 74.4434 162.444 74.7049 161.82C74.9664 161.196 75.0629 160.516 74.985 159.844L74.901 159.087C74.7848 158.081 75.0597 157.069 75.6689 156.26C76.2781 155.451 77.1749 154.908 78.1737 154.742C78.6239 154.684 79.0547 154.522 79.4327 154.271C79.8106 154.019 80.1256 153.684 80.3532 153.291L52.3913 85.7344Z" fill="black"/>
<path d="M10.4922 144.55L42.1612 70.8125H47.8377L80.2986 144.55C81.4619 146.926 80.7962 149.75 78.1962 150.157C77.1974 150.323 76.3006 150.866 75.6914 151.675C75.0822 152.484 74.8073 153.496 74.9235 154.502L75.0076 155.252C75.0854 155.923 74.989 156.604 74.7274 157.228C74.4659 157.852 74.0482 158.397 73.5144 158.813C72.9807 159.228 72.349 159.499 71.6801 159.6C71.0112 159.7 70.3278 159.627 69.6956 159.386L67.6843 158.622C66.7396 158.266 65.6943 158.285 64.7635 158.677C63.8327 159.068 63.0872 159.801 62.6806 160.725L60.1857 166.331C59.9582 166.838 59.6264 167.29 59.212 167.66C58.7975 168.029 58.3098 168.307 57.7806 168.475C57.2515 168.643 56.6928 168.697 56.1412 168.635C55.5895 168.572 55.0573 168.394 54.5794 168.111L47.0248 163.605C46.4158 163.241 45.7195 163.048 45.01 163.048C44.3004 163.048 43.6041 163.241 42.9952 163.605L36.2325 168.111C35.7545 168.394 35.2223 168.572 34.6707 168.635C34.119 168.697 33.5604 168.643 33.0312 168.475C32.502 168.307 32.0143 168.029 31.5999 167.66C31.1854 167.29 30.8536 166.838 30.6261 166.331L28.1313 160.725C27.7246 159.801 26.9791 159.068 26.0483 158.677C25.1175 158.285 24.0722 158.266 23.1276 158.622L21.0953 159.407C20.463 159.648 19.7796 159.721 19.1107 159.621C18.4419 159.52 17.8101 159.249 17.2764 158.834C16.7426 158.418 16.3249 157.873 16.0634 157.249C15.8018 156.625 15.7054 155.944 15.7832 155.273L15.8673 154.516C15.9834 153.511 15.7082 152.5 15.0989 151.692C14.4896 150.884 13.5928 150.342 12.5946 150.178C9.99463 149.764 9.32186 146.919 10.4922 144.55Z" fill="#F26222"/>
<path opacity="0.2" d="M10.4922 144.55L42.1612 70.8125H47.8377L80.2986 144.55C81.4619 146.926 80.7962 149.75 78.1962 150.157C77.1974 150.323 76.3006 150.866 75.6914 151.675C75.0822 152.484 74.8073 153.496 74.9235 154.502L75.0076 155.252C75.0854 155.923 74.989 156.604 74.7274 157.228C74.4659 157.852 74.0482 158.397 73.5144 158.813C72.9807 159.228 72.349 159.499 71.6801 159.6C71.0112 159.7 70.3278 159.627 69.6956 159.386L67.6843 158.622C66.7396 158.266 65.6943 158.285 64.7635 158.677C63.8327 159.068 63.0872 159.801 62.6806 160.725L60.1857 166.331C59.9582 166.838 59.6264 167.29 59.212 167.66C58.7975 168.029 58.3098 168.307 57.7806 168.475C57.2515 168.643 56.6928 168.697 56.1412 168.635C55.5895 168.572 55.0573 168.394 54.5794 168.111L47.0248 163.605C46.4158 163.241 45.7195 163.048 45.01 163.048C44.3004 163.048 43.6041 163.241 42.9952 163.605L36.2325 168.111C35.7545 168.394 35.2223 168.572 34.6707 168.635C34.119 168.697 33.5604 168.643 33.0312 168.475C32.502 168.307 32.0143 168.029 31.5999 167.66C31.1854 167.29 30.8536 166.838 30.6261 166.331L28.1313 160.725C27.7246 159.801 26.9791 159.068 26.0483 158.677C25.1175 158.285 24.0722 158.266 23.1276 158.622L21.0953 159.407C20.463 159.648 19.7796 159.721 19.1107 159.621C18.4419 159.52 17.8101 159.249 17.2764 158.834C16.7426 158.418 16.3249 157.873 16.0634 157.249C15.8018 156.625 15.7054 155.944 15.7832 155.273L15.8673 154.516C15.9834 153.511 15.7082 152.5 15.0989 151.692C14.4896 150.884 13.5928 150.342 12.5946 150.178C9.99463 149.764 9.32186 146.919 10.4922 144.55Z" fill="black"/>
<path opacity="0.1" d="M47.8397 70.8125H42.1632L19.0859 124.536C19.2653 124.691 19.4602 124.827 19.6676 124.942L19.8428 125.04C20.4382 125.373 20.9248 125.871 21.2442 126.474C21.5637 127.077 21.7024 127.759 21.6438 128.439C21.596 129.006 21.685 129.576 21.9032 130.101C22.1214 130.626 22.4625 131.091 22.8979 131.457C23.3333 131.823 23.8502 132.08 24.4051 132.204C24.96 132.329 25.5368 132.319 26.0869 132.174L27.4885 131.81C28.2593 131.605 29.0767 131.667 29.8081 131.985C30.5395 132.303 31.1421 132.859 31.5181 133.562L33.4102 137.066C33.8506 137.889 34.5986 138.505 35.4913 138.78C36.3839 139.054 37.3488 138.965 38.1757 138.531L43.3896 135.811C43.8957 135.543 44.4599 135.402 45.033 135.402C45.606 135.402 46.1702 135.543 46.6763 135.811L51.8833 138.531C52.7115 138.963 53.6768 139.052 54.57 138.778C55.4633 138.503 56.2126 137.888 56.6557 137.066L58.5408 133.562C58.919 132.859 59.5229 132.304 60.2553 131.986C60.9876 131.668 61.8056 131.606 62.5774 131.81L63.979 132.174C64.5288 132.319 65.1054 132.33 65.6601 132.205C66.2148 132.08 66.7314 131.824 67.1663 131.458C67.6012 131.092 67.9417 130.626 68.159 130.101C68.3763 129.575 68.4642 129.005 68.4151 128.439C68.3587 127.761 68.4985 127.08 68.8178 126.479C69.1371 125.878 69.6225 125.381 70.2161 125.047L70.3983 124.942C70.7702 124.733 71.0986 124.455 71.3654 124.122L47.8397 70.8125Z" fill="black"/>
<path d="M18.3817 115.55L42.2088 65.5133L42.391 65.2119C42.6559 64.7488 43.0384 64.3639 43.4999 64.0962C43.9614 63.8285 44.4855 63.6875 45.019 63.6875C45.5525 63.6875 46.0766 63.8285 46.5381 64.0962C46.9996 64.3639 47.3821 64.7488 47.647 65.2119L47.8432 65.5203L71.6703 115.55C71.9215 115.958 72.0878 116.412 72.1593 116.885C72.2307 117.358 72.2058 117.841 72.086 118.304C71.9662 118.768 71.7541 119.202 71.4623 119.581C71.1705 119.961 70.805 120.277 70.3879 120.512L70.2057 120.61C69.612 120.943 69.1267 121.44 68.8074 122.042C68.4881 122.643 68.3483 123.323 68.4046 124.002C68.4537 124.568 68.3659 125.138 68.1485 125.664C67.9312 126.189 67.5907 126.654 67.1558 127.02C66.7209 127.387 66.2043 127.643 65.6496 127.768C65.0949 127.892 64.5183 127.882 63.9686 127.737L62.567 127.373C61.7951 127.169 60.9771 127.231 60.2448 127.549C59.5125 127.866 58.9086 128.422 58.5304 129.125L56.6452 132.629C56.2021 133.451 55.4528 134.066 54.5596 134.34C53.6663 134.614 52.7011 134.526 51.8728 134.093L46.6659 131.374C46.1598 131.105 45.5955 130.965 45.0225 130.965C44.4495 130.965 43.8852 131.105 43.3791 131.374L38.1652 134.093C37.3383 134.527 36.3734 134.617 35.4808 134.342C34.5882 134.068 33.8402 133.452 33.3998 132.629L31.5076 129.125C31.1316 128.421 30.5291 127.866 29.7977 127.548C29.0662 127.23 28.2489 127.168 27.478 127.373L26.0764 127.737C25.5263 127.882 24.9496 127.892 24.3946 127.767C23.8397 127.642 23.3228 127.386 22.8874 127.02C22.4521 126.654 22.1109 126.189 21.8927 125.664C21.6745 125.139 21.5856 124.569 21.6334 124.002C21.696 123.322 21.5589 122.64 21.2389 122.037C20.919 121.435 20.4301 120.939 19.8323 120.61L19.6571 120.505C19.2408 120.27 18.8762 119.954 18.5851 119.575C18.2941 119.196 18.0827 118.762 17.9635 118.299C17.8444 117.837 17.82 117.354 17.8919 116.882C17.9637 116.41 18.1303 115.957 18.3817 115.55Z" fill="#F26222"/>
<path opacity="0.1" d="M18.3817 115.55L42.2088 65.5133L42.391 65.2119C42.6559 64.7488 43.0384 64.3639 43.4999 64.0962C43.9614 63.8285 44.4855 63.6875 45.019 63.6875C45.5525 63.6875 46.0766 63.8285 46.5381 64.0962C46.9996 64.3639 47.3821 64.7488 47.647 65.2119L47.8432 65.5203L71.6703 115.55C71.9215 115.958 72.0878 116.412 72.1593 116.885C72.2307 117.358 72.2058 117.841 72.086 118.304C71.9662 118.768 71.7541 119.202 71.4623 119.581C71.1705 119.961 70.805 120.277 70.3879 120.512L70.2057 120.61C69.612 120.943 69.1267 121.44 68.8074 122.042C68.4881 122.643 68.3483 123.323 68.4046 124.002C68.4537 124.568 68.3659 125.138 68.1485 125.664C67.9312 126.189 67.5907 126.654 67.1558 127.02C66.7209 127.387 66.2043 127.643 65.6496 127.768C65.0949 127.892 64.5183 127.882 63.9686 127.737L62.567 127.373C61.7951 127.169 60.9771 127.231 60.2448 127.549C59.5125 127.866 58.9086 128.422 58.5304 129.125L56.6452 132.629C56.2021 133.451 55.4528 134.066 54.5596 134.34C53.6663 134.614 52.7011 134.526 51.8728 134.093L46.6659 131.374C46.1598 131.105 45.5955 130.965 45.0225 130.965C44.4495 130.965 43.8852 131.105 43.3791 131.374L38.1652 134.093C37.3383 134.527 36.3734 134.617 35.4808 134.342C34.5882 134.068 33.8402 133.452 33.3998 132.629L31.5076 129.125C31.1316 128.421 30.5291 127.866 29.7977 127.548C29.0662 127.23 28.2489 127.168 27.478 127.373L26.0764 127.737C25.5263 127.882 24.9496 127.892 24.3946 127.767C23.8397 127.642 23.3228 127.386 22.8874 127.02C22.4521 126.654 22.1109 126.189 21.8927 125.664C21.6745 125.139 21.5856 124.569 21.6334 124.002C21.696 123.322 21.5589 122.64 21.2389 122.037C20.919 121.435 20.4301 120.939 19.8323 120.61L19.6571 120.505C19.2408 120.27 18.8762 119.954 18.5851 119.575C18.2941 119.196 18.0827 118.762 17.9635 118.299C17.8444 117.837 17.82 117.354 17.8919 116.882C17.9637 116.41 18.1303 115.957 18.3817 115.55Z" fill="black"/>
<path d="M48.1758 214.789C48.2192 213.747 48.6638 212.762 49.4168 212.04C50.1697 211.317 51.1726 210.914 52.2159 210.914C53.2592 210.914 54.2621 211.317 55.015 212.04C55.7679 212.762 56.2126 213.747 56.256 214.789V215.014C56.198 215.346 56.0607 215.66 55.8558 215.928C55.6508 216.197 55.3843 216.412 55.0786 216.555C54.1928 217.006 53.2132 217.241 52.2194 217.241C51.2256 217.241 50.2459 217.006 49.3601 216.555C49.0532 216.413 48.7852 216.198 48.579 215.93C48.3728 215.661 48.2345 215.347 48.1758 215.014V214.789Z" fill="#37474F"/>
<path d="M49.3601 216.552C49.0532 216.41 48.7852 216.195 48.579 215.927C48.3728 215.658 48.2345 215.344 48.1758 215.011V214.786C48.1962 214.081 48.4011 213.394 48.77 212.792C49.1389 212.191 49.6589 211.697 50.2782 211.359C50.2782 211.394 48.2669 213.889 49.7386 215.564C50.7547 216.713 54.2447 216.924 55.7724 216.02C55.5637 216.23 55.328 216.411 55.0716 216.559C54.1862 217.008 53.2075 217.241 52.215 217.239C51.2226 217.238 50.2445 217.003 49.3601 216.552Z" fill="#263238"/>
<path d="M54.7305 216.821C54.7305 216.065 55.031 215.339 55.5659 214.804C56.1008 214.269 56.8263 213.969 57.5827 213.969C58.3392 213.969 59.0647 214.269 59.5996 214.804C60.1345 215.339 60.435 216.065 60.435 216.821C60.4381 216.847 60.4381 216.872 60.435 216.898C60.4384 216.926 60.4384 216.954 60.435 216.982C60.3961 217.218 60.2997 217.44 60.1542 217.63C60.0087 217.819 59.8187 217.97 59.601 218.068C58.9756 218.386 58.2841 218.552 57.5827 218.552C56.8813 218.552 56.1898 218.386 55.5644 218.068C55.3485 217.968 55.16 217.816 55.0148 217.627C54.8697 217.438 54.7721 217.217 54.7305 216.982V216.821Z" fill="#455A64"/>
<path d="M55.5371 218.068C55.3211 217.968 55.1326 217.816 54.9875 217.627C54.8423 217.438 54.7448 217.217 54.7031 216.982V216.821C54.7141 216.497 54.7805 216.177 54.8993 215.875C54.8293 217.101 55.4039 217.837 57.212 218.068C59.02 218.3 60.1904 217.536 60.3445 217.256C60.1915 217.609 59.9185 217.897 59.5737 218.068C58.9483 218.386 58.2568 218.552 57.5554 218.552C56.854 218.552 56.1625 218.386 55.5371 218.068Z" fill="#37474F"/>
<path d="M33.7844 213.968C33.7844 213.218 34.0823 212.499 34.6126 211.969C35.1429 211.439 35.8621 211.141 36.6121 211.141C37.362 211.141 38.0813 211.439 38.6116 211.969C39.1419 212.499 39.4398 213.218 39.4398 213.968C39.4491 214.019 39.4491 214.072 39.4398 214.123C39.4048 214.358 39.3106 214.58 39.1659 214.769C39.0213 214.958 38.8309 215.107 38.6128 215.202C37.9928 215.516 37.3073 215.68 36.6121 215.68C35.9168 215.68 35.2313 215.516 34.6113 215.202C34.3958 215.103 34.2077 214.953 34.0636 214.765C33.9194 214.577 33.8235 214.356 33.7844 214.123C33.775 214.072 33.775 214.019 33.7844 213.968Z" fill="#455A64"/>
<path d="M34.6113 215.204C34.3958 215.105 34.2077 214.955 34.0636 214.767C33.9194 214.579 33.8235 214.358 33.7844 214.124C33.775 214.074 33.775 214.021 33.7844 213.97C33.7916 213.649 33.8557 213.331 33.9736 213.031C33.9035 214.244 34.4781 214.979 36.2652 215.211C38.0522 215.442 39.2225 214.678 39.3767 214.398C39.2241 214.747 38.9538 215.033 38.6128 215.204C37.9928 215.518 37.3073 215.682 36.6121 215.682C35.9168 215.682 35.2313 215.518 34.6113 215.204Z" fill="#37474F"/>
<path d="M132.377 221.474L136.483 219.126C136.483 219.126 138.453 208.278 136.981 198.95C134.879 185.838 125.985 181.318 122.741 182.621C119.496 183.925 118.739 187.807 124.591 195.383C128.046 199.854 132.517 209.329 132.377 221.474Z" fill="#F26222"/>
<path opacity="0.3" d="M132.377 221.474L136.483 219.126C136.483 219.126 138.453 208.278 136.981 198.95C134.879 185.838 125.985 181.318 122.741 182.621C119.496 183.925 118.739 187.807 124.591 195.383C128.046 199.854 132.517 209.329 132.377 221.474Z" fill="black"/>
<path d="M133.87 216.263H133.828C133.751 216.253 133.681 216.212 133.634 216.15C133.587 216.089 133.566 216.011 133.576 215.934C135.272 203.656 130.338 190.207 124.788 184.79C124.734 184.735 124.703 184.661 124.703 184.584C124.703 184.506 124.734 184.432 124.788 184.377C124.815 184.349 124.847 184.327 124.882 184.312C124.918 184.297 124.956 184.289 124.995 184.289C125.033 184.289 125.071 184.297 125.107 184.312C125.143 184.327 125.175 184.349 125.201 184.377C130.85 189.899 135.882 203.565 134.158 216.025C134.143 216.091 134.107 216.151 134.055 216.194C134.003 216.237 133.938 216.261 133.87 216.263Z" fill="white"/>
<path d="M120.99 228.048C120.345 228.427 119.006 227.607 118.495 227.263C117.616 226.667 116.906 225.853 116.434 224.902C115.902 223.816 115.723 222.59 115.923 221.398C116.024 220.771 116.172 220.153 116.364 219.548C116.532 218.945 116.708 218.349 116.876 217.747C117.089 217.166 117.18 216.548 117.142 215.932C116.988 214.705 115.895 213.829 114.9 213.128C113.905 212.428 112.657 211.222 112.664 209.743C112.745 208.593 113.203 207.502 113.968 206.639C114.668 205.742 115.516 204.95 116.161 204.004C116.663 203.345 116.925 202.534 116.904 201.705C116.833 201.199 116.664 200.711 116.406 200.269C115.804 199.353 115.276 198.39 114.83 197.388C114.615 196.882 114.548 196.325 114.636 195.782C114.724 195.239 114.964 194.732 115.327 194.319C115.69 194.05 116.102 193.856 116.539 193.748C116.977 193.64 117.432 193.62 117.878 193.688C118.719 193.792 119.527 194.076 120.247 194.522C122.594 195.826 123.94 198.615 126.435 199.617C127.422 199.93 128.428 200.175 129.448 200.353C129.96 200.449 130.446 200.65 130.876 200.944C131.306 201.239 131.669 201.62 131.943 202.063C132.854 203.892 131.158 206.141 131.803 208.083C132.371 209.8 134.038 210.458 134.977 212.007C135.359 212.691 135.511 213.48 135.412 214.257C135.329 215.57 135.009 216.857 134.466 218.055C133.852 219.249 133.15 220.394 132.364 221.482C132.342 221.51 121.095 227.992 120.99 228.048Z" fill="#F26222"/>
<path opacity="0.15" d="M120.99 228.048C120.345 228.427 119.006 227.607 118.495 227.263C117.616 226.667 116.906 225.853 116.434 224.902C115.902 223.816 115.723 222.59 115.923 221.398C116.024 220.771 116.172 220.153 116.364 219.548C116.532 218.945 116.708 218.349 116.876 217.747C117.089 217.166 117.18 216.548 117.142 215.932C116.988 214.705 115.895 213.829 114.9 213.128C113.905 212.428 112.657 211.222 112.664 209.743C112.745 208.593 113.203 207.502 113.968 206.639C114.668 205.742 115.516 204.95 116.161 204.004C116.663 203.345 116.925 202.534 116.904 201.705C116.833 201.199 116.664 200.711 116.406 200.269C115.804 199.353 115.276 198.39 114.83 197.388C114.615 196.882 114.548 196.325 114.636 195.782C114.724 195.239 114.964 194.732 115.327 194.319C115.69 194.05 116.102 193.856 116.539 193.748C116.977 193.64 117.432 193.62 117.878 193.688C118.719 193.792 119.527 194.076 120.247 194.522C122.594 195.826 123.94 198.615 126.435 199.617C127.422 199.93 128.428 200.175 129.448 200.353C129.96 200.449 130.446 200.65 130.876 200.944C131.306 201.239 131.669 201.62 131.943 202.063C132.854 203.892 131.158 206.141 131.803 208.083C132.371 209.8 134.038 210.458 134.977 212.007C135.359 212.691 135.511 213.48 135.412 214.257C135.329 215.57 135.009 216.857 134.466 218.055C133.852 219.249 133.15 220.394 132.364 221.482C132.342 221.51 121.095 227.992 120.99 228.048Z" fill="black"/>
<path d="M127.654 224.502C127.575 224.498 127.501 224.464 127.447 224.407C127.394 224.349 127.365 224.273 127.367 224.194C127.85 212.575 122.377 199.75 118.396 196.022C118.369 195.995 118.347 195.963 118.331 195.927C118.316 195.892 118.309 195.854 118.309 195.815C118.309 195.776 118.316 195.738 118.331 195.703C118.347 195.667 118.369 195.635 118.396 195.608C118.451 195.554 118.526 195.523 118.603 195.523C118.681 195.523 118.755 195.554 118.81 195.608C122.874 199.414 128.46 212.427 127.969 224.236C127.96 224.312 127.923 224.382 127.864 224.431C127.806 224.481 127.73 224.506 127.654 224.502Z" fill="white"/>
<path d="M125.915 210.773C125.884 210.779 125.853 210.779 125.823 210.773C123.078 210.017 120.258 209.562 117.414 209.413C117.372 209.42 117.329 209.417 117.288 209.406C117.247 209.394 117.209 209.374 117.177 209.346C117.145 209.318 117.119 209.284 117.101 209.246C117.083 209.207 117.074 209.165 117.074 209.122C117.074 209.08 117.083 209.038 117.101 208.999C117.119 208.961 117.145 208.927 117.177 208.899C117.209 208.871 117.247 208.851 117.288 208.839C117.329 208.828 117.372 208.825 117.414 208.832C120.315 208.987 123.191 209.457 125.992 210.233C126.065 210.259 126.126 210.311 126.163 210.38C126.199 210.449 126.208 210.529 126.188 210.605C126.163 210.656 126.125 210.699 126.076 210.729C126.028 210.759 125.971 210.774 125.915 210.773Z" fill="white"/>
<path d="M285.676 50.3291C285.649 50.1015 285.564 49.8846 285.429 49.6993C285.294 49.514 285.114 49.3665 284.905 49.2709C284.322 48.9797 283.679 48.8281 283.027 48.8281C282.375 48.8281 281.732 48.9797 281.149 49.2709C280.94 49.3661 280.758 49.5134 280.622 49.6986C280.486 49.8839 280.4 50.1009 280.371 50.3291V183.361C280.371 184.188 281.555 184.861 283.02 184.861C284.485 184.861 285.676 184.16 285.676 183.361V50.3291Z" fill="#37474F"/>
<path d="M283.019 51.8337C284.486 51.8337 285.675 51.1592 285.675 50.327C285.675 49.4949 284.486 48.8203 283.019 48.8203C281.552 48.8203 280.363 49.4949 280.363 50.327C280.363 51.1592 281.552 51.8337 283.019 51.8337Z" fill="#455A64"/>
<path d="M313.036 101.006L307.829 91.9797L273.195 72L270.574 73.5137V85.5394L305.208 105.519L307.878 104.047L313.036 101.006Z" fill="#F26222"/>
<path d="M270.574 73.5156L305.208 93.4954L310.415 102.515L305.208 105.521L270.574 85.5413V73.5156Z" fill="#F26222"/>
<g opacity="0.3">
<path opacity="0.3" d="M270.578 73.5156L305.212 93.4954L310.432 102.543L305.212 105.521L270.578 85.5413V73.5156Z" fill="black"/>
</g>
<path opacity="0.1" d="M307.829 91.9797L305.208 93.4935L270.574 73.5137L273.195 72L307.829 91.9797Z" fill="black"/>
<path opacity="0.2" d="M305.207 93.4981L307.828 91.9844L313.035 101.011L310.428 102.545L305.207 93.4981Z" fill="black"/>
<path d="M301.649 70.3663L267.016 50.3516L261.809 53.358L267.016 62.3843L301.649 82.392V70.3663Z" fill="#F26222"/>
<path d="M267.016 50.3481L269.56 48.8203L304.249 68.8631L301.649 70.3628L267.016 50.3481Z" fill="#F26222"/>
<g opacity="0.4">
<path opacity="0.4" d="M267.016 50.3481L269.56 48.8203L304.249 68.8631L301.649 70.3628L267.016 50.3481Z" fill="white"/>
</g>
<path d="M304.244 80.8851L301.645 82.3848V70.3591L304.244 68.8594V80.8851Z" fill="#F26222"/>
<path opacity="0.1" d="M304.244 80.8851L301.645 82.3848V70.3591L304.244 68.8594V80.8851Z" fill="black"/>
<path d="M292.895 107.53L258.262 87.5156L253.055 90.5221L258.262 99.5483L292.895 119.556V107.53Z" fill="#F26222"/>
<path d="M258.262 87.5199L260.813 85.9922L295.495 106.035L292.895 107.535L258.262 87.5199Z" fill="#F26222"/>
<g opacity="0.4">
<path opacity="0.4" d="M258.262 87.5199L260.813 85.9922L295.495 106.035L292.895 107.535L258.262 87.5199Z" fill="white"/>
</g>
<path d="M295.498 118.057L292.898 119.557V107.531L295.498 106.031V118.057Z" fill="#F26222"/>
<path opacity="0.1" d="M295.498 118.057L292.898 119.557V107.531L295.498 106.031V118.057Z" fill="black"/>
<path d="M196.752 17.9506C197.927 17.561 199.152 17.3416 200.389 17.2988C201.576 17.2464 202.762 17.4054 203.893 17.7683C204.972 18.1203 205.964 18.6984 206.801 19.4643C207.563 20.2248 208.159 21.135 208.551 22.1374C208.943 23.1397 209.123 24.2125 209.079 25.2879C209.016 26.1169 208.829 26.9318 208.525 27.7056C208.235 28.4586 207.876 29.1835 207.453 29.8711C207.033 30.5719 206.633 31.2096 206.262 31.8263C205.902 32.4115 205.597 33.0285 205.351 33.6694C205.124 34.2362 205.059 34.8547 205.162 35.4565C205.205 35.7388 205.169 36.0277 205.056 36.2904C205.007 36.4182 204.929 36.5328 204.828 36.6253C204.727 36.7177 204.606 36.7854 204.475 36.823L201.587 37.7761C201.45 37.8214 201.305 37.8392 201.161 37.8283C201.016 37.8175 200.876 37.7783 200.747 37.713C200.616 37.6585 200.5 37.5734 200.408 37.4649C200.317 37.3564 200.252 37.2277 200.221 37.0893C199.955 36.1802 199.877 35.2266 199.99 34.2861C200.103 33.4428 200.326 32.6181 200.655 31.8333C200.97 31.0778 201.35 30.3509 201.791 29.6609C202.23 28.9881 202.629 28.3434 202.989 27.7267C203.321 27.1754 203.593 26.5904 203.802 25.9817C203.981 25.4545 203.981 24.883 203.802 24.3558C203.653 23.8895 203.393 23.4664 203.043 23.1233C202.694 22.7802 202.267 22.5273 201.798 22.3866C200.636 22.0349 199.39 22.0817 198.259 22.5197C196.11 23.2299 194.883 24.83 194.58 27.3202C194.562 27.5825 194.495 27.8393 194.383 28.0771C194.313 28.1894 194.221 28.2864 194.113 28.3623C194.005 28.4381 193.882 28.4913 193.753 28.5186L190.683 29.5277C190.468 29.6039 190.231 29.5912 190.024 29.4927C189.916 29.4426 189.82 29.3697 189.743 29.279C189.665 29.1882 189.608 29.0819 189.576 28.9671C189.303 27.9939 189.274 26.9687 189.492 25.9817C189.723 24.8491 190.15 23.7654 190.753 22.779C191.42 21.7004 192.255 20.7351 193.227 19.9198C194.262 19.0388 195.459 18.3697 196.752 17.9506ZM205.4 39.0375C205.673 38.9552 205.968 38.9823 206.221 39.1131C206.475 39.2438 206.668 39.468 206.759 39.7383L207.867 43.0881C207.912 43.222 207.93 43.3636 207.919 43.5046C207.908 43.6455 207.869 43.7828 207.804 43.9081C207.741 44.0363 207.654 44.1507 207.547 44.2446C207.44 44.3385 207.315 44.4099 207.18 44.4547L203.914 45.5339C203.64 45.6183 203.344 45.5923 203.088 45.4614C202.833 45.3305 202.639 45.105 202.548 44.8331L201.44 41.4903C201.354 41.2162 201.379 40.919 201.51 40.6633C201.641 40.4075 201.868 40.2137 202.141 40.1238L205.4 39.0375Z" fill="#F26222"/>
<path d="M219.898 48.9259C220.658 48.529 221.469 48.2411 222.309 48.0709C223.106 47.9027 223.927 47.8766 224.734 47.9939C225.507 48.1132 226.246 48.3977 226.899 48.8278C227.593 49.2892 228.154 49.9248 228.525 50.6709C228.844 51.2465 229.044 51.8804 229.114 52.535C229.163 53.1044 229.13 53.6779 229.016 54.238C228.901 54.7912 228.737 55.3331 228.525 55.8568L227.936 57.3215C227.76 57.762 227.622 58.2169 227.523 58.681C227.431 59.0935 227.458 59.5235 227.6 59.9214C227.656 60.1113 227.656 60.3132 227.6 60.5031C227.58 60.5951 227.539 60.6814 227.481 60.7554C227.423 60.8295 227.348 60.8894 227.264 60.9306L225.406 61.9047C225.227 61.9968 225.019 62.0169 224.825 61.9607C224.729 61.9386 224.639 61.8931 224.565 61.8284C224.49 61.7636 224.433 61.6815 224.397 61.5893C224.111 61.0004 223.948 60.3586 223.921 59.7042C223.904 59.1174 223.963 58.5309 224.096 57.9592C224.225 57.4093 224.403 56.8722 224.629 56.3544C224.846 55.8428 225.042 55.3592 225.224 54.8967C225.387 54.485 225.507 54.0576 225.582 53.6213C225.642 53.2407 225.581 52.8507 225.406 52.507C225.25 52.207 225.024 51.9491 224.747 51.7551C224.471 51.5612 224.151 51.4368 223.816 51.3927C222.984 51.2848 222.141 51.4574 221.419 51.8833C220.752 52.221 220.206 52.7562 219.855 53.416C219.503 54.0757 219.365 54.8278 219.457 55.5695C219.476 55.7508 219.459 55.9341 219.408 56.1091C219.335 56.2777 219.199 56.411 219.029 56.4805L217.046 57.5247C216.906 57.6004 216.743 57.618 216.59 57.5738C216.511 57.5511 216.438 57.5118 216.375 57.4587C216.312 57.4055 216.261 57.3396 216.226 57.2654C215.933 56.632 215.799 55.937 215.834 55.2401C215.861 54.4436 216.03 53.6583 216.331 52.9205C216.661 52.1091 217.12 51.3565 217.691 50.6919C218.303 49.964 219.054 49.3639 219.898 48.9259ZM228.175 62.3111C228.261 62.2627 228.358 62.2332 228.457 62.2248C228.556 62.2163 228.655 62.229 228.749 62.2621C228.843 62.2892 228.93 62.3356 229.005 62.3984C229.08 62.4611 229.141 62.5388 229.184 62.6265L230.319 64.7779C230.409 64.9535 230.426 65.1572 230.368 65.3456C230.308 65.5344 230.178 65.6927 230.004 65.7871L227.901 66.8874C227.815 66.9348 227.72 66.9637 227.623 66.9722C227.525 66.9806 227.426 66.9684 227.334 66.9364C227.239 66.9109 227.151 66.866 227.075 66.8044C226.999 66.7429 226.937 66.6661 226.892 66.579L225.764 64.4205C225.674 64.2463 225.656 64.0439 225.714 63.8566C225.771 63.6693 225.9 63.512 226.072 63.4184L228.175 62.3111Z" fill="#F26222"/>
<g opacity="0.2">
<path opacity="0.2" d="M219.902 48.9259C220.661 48.529 221.473 48.2411 222.313 48.0709C223.11 47.9027 223.931 47.8766 224.738 47.9939C225.511 48.1132 226.249 48.3977 226.903 48.8278C227.597 49.2892 228.158 49.9248 228.529 50.6709C228.848 51.2465 229.048 51.8804 229.118 52.535C229.167 53.1044 229.134 53.6779 229.019 54.238C228.905 54.7912 228.741 55.3331 228.529 55.8568L227.94 57.3215C227.764 57.762 227.626 58.2169 227.527 58.681C227.435 59.0935 227.462 59.5235 227.604 59.9214C227.66 60.1113 227.66 60.3132 227.604 60.5031C227.584 60.5951 227.543 60.6814 227.485 60.7554C227.426 60.8295 227.352 60.8894 227.267 60.9306L225.41 61.9047C225.231 61.9968 225.023 62.0169 224.829 61.9607C224.732 61.9386 224.643 61.8931 224.569 61.8284C224.494 61.7636 224.437 61.6815 224.401 61.5893C224.114 61.0004 223.952 60.3586 223.925 59.7042C223.908 59.1174 223.966 58.5309 224.1 57.9592C224.229 57.4093 224.407 56.8722 224.632 56.3544C224.85 55.8428 225.046 55.3592 225.228 54.8967C225.391 54.485 225.511 54.0576 225.586 53.6213C225.646 53.2407 225.585 52.8507 225.41 52.507C225.254 52.207 225.028 51.9491 224.751 51.7551C224.474 51.5612 224.155 51.4368 223.82 51.3927C222.988 51.2848 222.145 51.4574 221.423 51.8833C220.756 52.221 220.21 52.7562 219.859 53.416C219.507 54.0757 219.368 54.8278 219.461 55.5695C219.479 55.7508 219.463 55.9341 219.412 56.1091C219.339 56.2777 219.203 56.411 219.033 56.4805L217.05 57.5247C216.91 57.6004 216.747 57.618 216.594 57.5738C216.515 57.5511 216.442 57.5118 216.379 57.4587C216.316 57.4055 216.265 57.3396 216.23 57.2654C215.937 56.632 215.802 55.937 215.837 55.2401C215.865 54.4436 216.034 53.6583 216.335 52.9205C216.665 52.1091 217.124 51.3565 217.695 50.6919C218.307 49.964 219.057 49.3639 219.902 48.9259ZM228.179 62.3111C228.265 62.2627 228.361 62.2332 228.461 62.2248C228.56 62.2163 228.659 62.229 228.753 62.2621C228.847 62.2892 228.934 62.3356 229.009 62.3984C229.084 62.4611 229.145 62.5388 229.188 62.6265L230.323 64.7779C230.413 64.9535 230.43 65.1572 230.372 65.3456C230.312 65.5344 230.182 65.6927 230.008 65.7871L227.905 66.8874C227.819 66.9348 227.724 66.9637 227.627 66.9722C227.529 66.9806 227.43 66.9684 227.338 66.9364C227.243 66.9109 227.155 66.866 227.079 66.8044C227.003 66.7429 226.941 66.6661 226.896 66.579L225.768 64.4205C225.678 64.2463 225.66 64.0439 225.718 63.8566C225.775 63.6693 225.904 63.512 226.076 63.4184L228.179 62.3111Z" fill="black"/>
</g>
<path d="M235.533 39.2442C235.644 39.2763 235.747 39.3308 235.837 39.4043C235.926 39.4778 235.999 39.5688 236.052 39.6716C236.112 39.7771 236.149 39.8939 236.161 40.0146C236.173 40.1353 236.16 40.2572 236.122 40.3724L235.281 43.1266C235.208 43.3488 235.052 43.5343 234.846 43.6441C234.639 43.7539 234.398 43.7794 234.174 43.7152L231.482 42.8953C231.371 42.8616 231.268 42.8057 231.179 42.7311C231.09 42.6564 231.017 42.5645 230.964 42.4608C230.902 42.356 230.864 42.2391 230.852 42.1181C230.84 41.9971 230.854 41.8749 230.894 41.76L231.735 39.0059C231.768 38.8946 231.824 38.7913 231.899 38.7022C231.974 38.6131 232.066 38.54 232.169 38.4873C232.275 38.4273 232.392 38.3901 232.512 38.3781C232.633 38.366 232.755 38.3793 232.87 38.4172L235.533 39.2442ZM239.738 21.0725C240.708 21.3674 241.63 21.7993 242.478 22.3549C243.29 22.8783 244.002 23.5428 244.58 24.3172C245.132 25.0614 245.518 25.9141 245.716 26.819C245.909 27.7869 245.851 28.7883 245.547 29.7273C245.335 30.4754 244.975 31.1734 244.489 31.7807C244.055 32.304 243.548 32.7619 242.983 33.1402C242.429 33.5022 241.845 33.8164 241.238 34.0793L239.5 34.8361C238.984 35.0542 238.491 35.3217 238.028 35.635C237.604 35.9036 237.266 36.2878 237.054 36.7423C236.95 36.9506 236.79 37.1254 236.591 37.2469C236.499 37.3108 236.394 37.3518 236.283 37.3664C236.172 37.381 236.059 37.3689 235.954 37.331L233.571 36.6302C233.343 36.5611 233.152 36.405 233.038 36.1957C232.972 36.0926 232.932 35.9746 232.922 35.8523C232.912 35.7301 232.933 35.6072 232.982 35.4949C233.235 34.7621 233.633 34.0877 234.152 33.5116C234.627 33.0014 235.166 32.5561 235.757 32.1871C236.323 31.8283 236.922 31.5233 237.544 31.2761C238.154 31.0308 238.722 30.7855 239.254 30.5753C239.735 30.3628 240.193 30.1022 240.621 29.7974C240.991 29.5295 241.264 29.1482 241.399 28.7112C241.518 28.3302 241.544 27.9259 241.473 27.533C241.402 27.14 241.237 26.77 240.992 26.4546C240.384 25.6703 239.53 25.1126 238.568 24.8708C237.724 24.599 236.817 24.5939 235.971 24.856C235.125 25.118 234.379 25.6347 233.837 26.3355C233.701 26.502 233.537 26.6442 233.354 26.7559C233.149 26.8375 232.921 26.8375 232.716 26.7559L230.179 25.9851C230.001 25.9275 229.849 25.8082 229.751 25.6487C229.704 25.5628 229.675 25.4679 229.667 25.3701C229.658 25.2723 229.67 25.1738 229.702 25.081C229.982 24.3024 230.449 23.6045 231.062 23.0487C231.75 22.4 232.547 21.878 233.417 21.507C234.37 21.1001 235.383 20.8493 236.416 20.7641C237.533 20.6489 238.661 20.7537 239.738 21.0725Z" fill="#F26222"/>
<g opacity="0.6">
<path opacity="0.6" d="M235.537 39.2442C235.648 39.2763 235.751 39.3308 235.84 39.4043C235.93 39.4778 236.003 39.5688 236.056 39.6716C236.115 39.7771 236.153 39.8939 236.165 40.0146C236.177 40.1353 236.164 40.2572 236.126 40.3724L235.285 43.1266C235.212 43.3488 235.056 43.5343 234.85 43.6441C234.643 43.7539 234.402 43.7794 234.177 43.7152L231.486 42.8953C231.375 42.8616 231.272 42.8057 231.183 42.7311C231.094 42.6564 231.02 42.5645 230.968 42.4608C230.906 42.356 230.868 42.2391 230.856 42.1181C230.844 41.9971 230.858 41.8749 230.898 41.76L231.739 39.0059C231.772 38.8946 231.828 38.7913 231.903 38.7022C231.978 38.6131 232.069 38.54 232.173 38.4873C232.279 38.4273 232.395 38.3901 232.516 38.3781C232.637 38.366 232.759 38.3793 232.874 38.4172L235.537 39.2442ZM239.742 21.0725C240.711 21.3674 241.634 21.7993 242.482 22.3549C243.294 22.8783 244.006 23.5428 244.584 24.3172C245.135 25.0614 245.522 25.9141 245.72 26.819C245.913 27.7869 245.855 28.7883 245.551 29.7273C245.339 30.4754 244.979 31.1734 244.493 31.7807C244.059 32.304 243.552 32.7619 242.986 33.1402C242.433 33.5022 241.849 33.8164 241.241 34.0793L239.503 34.8361C238.988 35.0542 238.495 35.3217 238.032 35.635C237.608 35.9036 237.27 36.2878 237.058 36.7423C236.954 36.9506 236.794 37.1254 236.595 37.2469C236.503 37.3108 236.397 37.3518 236.287 37.3664C236.176 37.381 236.063 37.3689 235.957 37.331L233.575 36.6302C233.347 36.5611 233.156 36.405 233.042 36.1957C232.976 36.0926 232.936 35.9746 232.926 35.8523C232.916 35.7301 232.937 35.6072 232.986 35.4949C233.239 34.7621 233.637 34.0877 234.156 33.5116C234.631 33.0014 235.17 32.5561 235.761 32.1871C236.327 31.8283 236.925 31.5233 237.548 31.2761C238.158 31.0308 238.726 30.7855 239.258 30.5753C239.739 30.3628 240.197 30.1022 240.625 29.7974C240.995 29.5295 241.268 29.1482 241.403 28.7112C241.522 28.3302 241.547 27.9259 241.477 27.533C241.406 27.14 241.241 26.77 240.996 26.4546C240.388 25.6703 239.534 25.1126 238.571 24.8708C237.728 24.599 236.821 24.5939 235.975 24.856C235.128 25.118 234.383 25.6347 233.841 26.3355C233.705 26.502 233.541 26.6442 233.357 26.7559C233.153 26.8375 232.925 26.8375 232.72 26.7559L230.183 25.9851C230.005 25.9275 229.853 25.8082 229.755 25.6487C229.708 25.5628 229.679 25.4679 229.671 25.3701C229.662 25.2723 229.674 25.1738 229.706 25.081C229.986 24.3024 230.453 23.6045 231.066 23.0487C231.754 22.4 232.551 21.878 233.421 21.507C234.374 21.1001 235.387 20.8493 236.42 20.7641C237.537 20.6489 238.665 20.7537 239.742 21.0725Z" fill="white"/>
</g>
<path d="M197.486 206.273C197.672 207.54 197.567 208.831 197.178 210.051C196.435 212.027 194.935 212.903 194.045 213.674C193.048 214.563 192.173 215.581 191.445 216.701C190.727 217.931 189.808 219.033 188.726 219.96C187.885 220.661 185.559 220.661 184.444 220.184C183.33 219.708 182.959 219.259 183.043 217.465C183.127 215.671 188.6 215.167 188.6 215.167L197.486 206.273Z" fill="#455A64"/>
<path d="M183.875 212.132C183.406 212.301 183.273 213.184 183.174 214.936C183.09 216.267 182.474 218.201 184.31 219.077C185.774 219.778 188.143 219.386 189.173 218.145C190.449 216.611 191.318 215.251 193.133 213.373C194.71 211.747 196.328 211.221 197.078 207.928C197.562 205.825 197.232 204.914 195.817 204.277C193.862 203.401 190.715 206.078 189.159 206.477C187.821 206.82 184.38 211.957 183.875 212.132Z" fill="#F26222"/>
<path opacity="0.2" d="M183.875 212.132C183.406 212.301 183.273 213.184 183.174 214.936C183.09 216.267 182.474 218.201 184.31 219.077C185.774 219.778 188.143 219.386 189.173 218.145C190.449 216.611 191.318 215.251 193.133 213.373C194.71 211.747 196.328 211.221 197.078 207.928C197.562 205.825 197.232 204.914 195.817 204.277C193.862 203.401 190.715 206.078 189.159 206.477C187.821 206.82 184.38 211.957 183.875 212.132Z" fill="black"/>
<path d="M189.15 206.475L189.416 206.391C190.309 206.458 191.167 206.76 191.906 207.265C192.644 207.771 193.236 208.463 193.621 209.271C193.873 209.86 193.053 210.294 192.584 209.832C192.17 209.047 191.571 208.375 190.838 207.875C190.105 207.376 189.261 207.063 188.379 206.965C188.6 206.752 188.862 206.585 189.15 206.475Z" fill="#FAFAFA"/>
<path d="M187.884 207.453C188.721 207.564 189.517 207.884 190.199 208.382C190.881 208.88 191.427 209.542 191.787 210.305C192.04 210.887 191.22 211.322 190.75 210.866C190.404 210.181 189.91 209.581 189.304 209.11C188.698 208.638 187.995 208.307 187.246 208.14C187.442 207.93 187.66 207.656 187.884 207.453Z" fill="#FAFAFA"/>
<path d="M221.687 233.968C221.96 235.468 221.399 236.232 219.458 237.304C217.517 238.376 214.483 238.706 211.329 237.71C208.175 236.715 206.683 235.307 205.372 234.949C204.062 234.592 200.796 234.501 199.499 234.094C198.203 233.688 198.238 233.015 198.273 231.445L221.687 233.968Z" fill="#455A64"/>
<path d="M199.703 223.922C199.303 225.072 198.961 226.241 198.68 227.426C198.385 228.729 197.979 230.93 198.399 231.89C198.82 232.85 200.607 233.551 203.375 233.586C205.162 233.586 207.93 234.882 209.815 235.983C211.7 237.083 213.908 237.174 215.996 236.971C218.463 236.725 221.042 235.352 221.456 234.343C221.869 233.334 221.995 232.57 216.249 229.984C216.193 229.984 209.57 227.37 206.83 224.216L199.703 223.922Z" fill="#F26222"/>
<g opacity="0.2">
<path opacity="0.2" d="M199.703 223.922C199.303 225.072 198.961 226.241 198.68 227.426C198.385 228.729 197.979 230.93 198.399 231.89C198.82 232.85 200.607 233.551 203.375 233.586C205.162 233.586 207.93 234.882 209.815 235.983C211.7 237.083 213.908 237.174 215.996 236.971C218.463 236.725 221.042 235.352 221.456 234.343C221.869 233.334 221.995 232.57 216.249 229.984C216.193 229.984 209.57 227.37 206.83 224.216L199.703 223.922Z" fill="black"/>
</g>
<path d="M210.602 236.375C210.602 236.375 211.197 231.407 215.269 230.068C218.955 228.856 222.088 231.624 221.688 233.972C221.415 235.556 216.895 239.06 210.602 236.375Z" fill="#FAFAFA"/>
<path d="M214.27 229.113C213.232 229.184 212.247 229.595 211.467 230.284C210.283 231.237 210.234 231.888 210.234 231.888C210.143 231.984 210.025 232.048 209.895 232.071C209.766 232.094 209.633 232.074 209.515 232.015C209.398 231.956 209.303 231.861 209.244 231.743C209.185 231.626 209.166 231.492 209.189 231.363C209.189 231.363 209.512 228.861 212.826 228.412C213.11 228.361 213.403 228.401 213.663 228.527C213.922 228.653 214.135 228.858 214.27 229.113Z" fill="#FAFAFA"/>
<path d="M211.976 227.957C210.943 227.943 209.943 228.318 209.173 229.008C207.989 229.968 207.968 230.739 207.968 230.739C207.878 230.834 207.759 230.899 207.63 230.921C207.5 230.944 207.367 230.925 207.25 230.866C207.132 230.806 207.037 230.711 206.978 230.593C206.92 230.476 206.9 230.342 206.924 230.213C206.924 230.213 207.239 227.704 210.554 227.263C210.834 227.213 211.122 227.254 211.378 227.378C211.634 227.503 211.843 227.705 211.976 227.957Z" fill="#FAFAFA"/>
<path d="M209.71 226.603C208.678 226.518 207.653 226.823 206.836 227.458C205.589 228.334 205.512 229.098 205.512 229.098C205.414 229.184 205.292 229.236 205.163 229.248C205.033 229.261 204.903 229.232 204.791 229.166C204.68 229.1 204.591 229 204.54 228.881C204.488 228.762 204.475 228.629 204.503 228.502C204.503 228.502 205 226.029 208.336 225.804C208.62 225.774 208.906 225.836 209.153 225.979C209.4 226.123 209.595 226.341 209.71 226.603Z" fill="#FAFAFA"/>
<path d="M183.929 209.281L183.859 212.659C184.659 213.193 185.59 213.498 186.55 213.543C187.511 213.587 188.466 213.369 189.312 212.911C189.41 212.708 189.753 209.407 189.753 209.407L183.929 209.281Z" fill="#FFA8A7"/>
<path d="M199.757 221.586C199.757 221.586 199.757 223.184 199.701 224.102C199.645 225.02 200.731 226.4 203.535 226.358C205.497 226.358 206.884 225.826 206.835 224.207L206.884 221.873L199.757 221.586Z" fill="#FFA8A7"/>
<path d="M180.873 180.595C181.203 173.475 182.731 170.385 182.731 170.385C182.731 170.385 182.359 161.576 181.392 150.762C179.92 134.329 181.224 131.897 184.602 124.588C184.602 124.588 211.842 121.616 212.451 133.102C213.215 147.406 212.76 176.454 212.276 181.457C211.793 186.461 211.898 181.836 210.468 192.025C209.333 200.078 206.894 221.844 206.894 221.844C205.774 222.386 204.538 222.643 203.295 222.593C202.051 222.543 200.84 222.187 199.767 221.557C199.767 221.557 198.043 194.829 198.4 189.012C198.828 181.913 199.269 180.112 199.269 180.112C199.269 180.112 196.466 157.035 196.081 153.32C196.081 153.32 195.499 159.943 195.016 164.982C194.532 170.02 194.483 174.092 193.215 184.492C192.219 192.663 189.844 210.288 189.844 210.288C188.867 210.665 187.817 210.81 186.775 210.713C185.733 210.616 184.728 210.278 183.838 209.728C183.838 209.728 180.6 186.321 180.873 180.595Z" fill="#455A64"/>
<path d="M196.119 210.355C196.119 210.355 196.049 206.41 190.73 205.751L190.422 205.919C191.035 204.955 191.984 204.254 193.085 203.95C194.865 203.508 196.253 203.992 197.157 205.211C198.061 206.431 197.058 209.605 196.119 210.355Z" fill="#FAFAFA"/>
<path d="M196.069 153.351L195.718 148.634C192.753 147.584 189.928 146.172 187.309 144.43C188.813 146.963 191.247 148.808 194.092 149.574L194.94 154.206L195.01 165.033L196.069 153.351Z" fill="#37474F"/>
<path d="M186.286 60.8047C184.793 62.6688 173.756 80.427 172.144 83.7698C170.532 87.1126 170.139 89.2571 172.69 91.9481C176.524 95.9917 186.188 105.747 186.188 105.747L191.598 92.8381L181.562 86.531L191.374 65.7663L186.286 60.8047Z" fill="#FFA8A7"/>
<path d="M181.578 86.5383C181.578 86.5383 178.831 85.5712 176.539 87.0569C176.539 87.0569 178.347 84.506 182.089 85.466L181.578 86.5383Z" fill="#F28F8F"/>
<path d="M191.858 91.8185L182.979 87.3895C179.707 86.92 175.446 92.0358 175.565 95.9602L183.351 102.828L191.858 91.8185Z" fill="#455A64"/>
<path d="M193.145 85.2422L192.584 91.4162C191.183 91.8507 191.442 93.8059 192.262 95.0113L192.101 96.8264L201.211 97.6463L202.578 87.2254L193.145 85.2422Z" fill="#FFA8A7"/>
<path d="M183.152 95.8987C184.161 93.1585 188.142 91.0491 190.56 91.2384L192.585 91.4136C192.024 92.5348 192.837 93.3337 194.309 93.7612C196.201 94.3078 199.684 94.6162 201.737 93.4038L201.8 92.8782C201.8 92.8782 205.676 93.9855 206.818 94.413C210.028 95.6183 211.086 96.2421 214.408 104.869C215.809 108.562 214.954 112.388 211.128 114.477C210.841 116.761 210.518 120.356 210.518 120.356C211.574 125.253 212.349 130.207 212.838 135.192C212.838 135.192 210.82 139.769 196.839 138.998C186.011 138.402 180.973 132.922 180.973 132.922C181.239 130.266 182.921 126.026 186.369 118.023C182.276 106.516 181.652 100.005 183.152 95.8987Z" fill="#37474F"/>
<path d="M240.956 90.1924H240.921C240.431 89.9413 240.045 89.5264 239.829 89.0199C239.613 88.5134 239.582 87.9473 239.74 87.4199C239.898 86.8926 240.236 86.4374 240.695 86.1335C241.155 85.8296 241.706 85.6961 242.253 85.7563C242.265 85.7571 242.278 85.7606 242.289 85.7664C242.3 85.7723 242.31 85.7804 242.318 85.7903C242.326 85.8002 242.332 85.8116 242.335 85.8239C242.338 85.8361 242.339 85.8489 242.337 85.8614C242.336 85.8732 242.333 85.8846 242.327 85.895C242.322 85.9054 242.314 85.9145 242.305 85.9218C242.296 85.929 242.285 85.9343 242.274 85.9372C242.262 85.9401 242.25 85.9405 242.239 85.9385C241.737 85.888 241.233 86.0137 240.814 86.2941C240.394 86.5746 240.085 86.9923 239.94 87.4755C239.795 87.9587 239.823 88.4773 240.019 88.9424C240.214 89.4075 240.566 89.7899 241.012 90.0242C241.023 90.03 241.033 90.0379 241.04 90.0475C241.048 90.0571 241.053 90.0681 241.057 90.0798C241.06 90.0916 241.061 90.1039 241.059 90.116C241.058 90.1281 241.054 90.1398 241.047 90.1503C241.039 90.1662 241.025 90.1788 241.009 90.1864C240.992 90.194 240.974 90.1961 240.956 90.1924Z" fill="#E0E0E0"/>
<path d="M239.523 88.2871L240.056 88.9458C240.258 89.4464 240.605 89.8757 241.051 90.1792L241.577 90.831L241.976 90.5156C242.097 90.421 242.187 90.2924 242.235 90.1464C242.282 90.0003 242.285 89.8433 242.243 89.6957C242.159 89.3026 241.984 88.9348 241.732 88.6218C241.48 88.3089 241.158 88.0598 240.792 87.8946C240.655 87.8226 240.501 87.7928 240.347 87.809C240.194 87.8252 240.048 87.8867 239.93 87.9857L239.523 88.2871Z" fill="#455A64"/>
<path d="M240.757 90.8922C241.458 91.1585 241.913 90.78 241.801 90.0512C241.715 89.6592 241.538 89.2927 241.285 88.9812C241.032 88.6697 240.709 88.4217 240.343 88.2572C239.643 87.9909 239.194 88.3693 239.306 89.0981C239.391 89.4899 239.566 89.8564 239.818 90.168C240.07 90.4796 240.391 90.7277 240.757 90.8922Z" fill="#263238"/>
<path d="M238.992 89.325L240.457 91.14L241.081 90.6355C241.166 90.5661 241.229 90.4736 241.262 90.3691C241.296 90.2647 241.299 90.1527 241.27 90.0468C241.205 89.7718 241.078 89.5155 240.898 89.2978C240.718 89.0802 240.491 88.9072 240.233 88.7924C240.135 88.741 240.025 88.7189 239.916 88.7289C239.806 88.7388 239.702 88.7804 239.616 88.8484L238.992 89.325Z" fill="#37474F"/>
<path d="M225.492 95.7494L226.193 97.999C226.55 99.0992 227.637 99.9752 229.361 100.354C232.865 101.118 237.588 99.6178 239.985 96.9969C241.176 95.6934 241.561 94.3548 241.225 93.2476L240.524 90.998L239.634 91.4465C239.14 91.1847 238.612 90.9936 238.064 90.8789C234.56 90.115 229.837 91.6147 227.44 94.2357C227.062 94.6434 226.742 95.1008 226.487 95.5953L225.492 95.7494Z" fill="#F26222"/>
<path opacity="0.3" d="M225.492 95.7494L226.193 97.999C226.55 99.0992 227.637 99.9752 229.361 100.354C232.865 101.118 237.588 99.6178 239.985 96.9969C241.176 95.6934 241.561 94.3548 241.225 93.2476L240.524 90.998L239.634 91.4465C239.14 91.1847 238.612 90.9936 238.064 90.8789C234.56 90.115 229.837 91.6147 227.44 94.2357C227.062 94.6434 226.742 95.1008 226.487 95.5953L225.492 95.7494Z" fill="black"/>
<path d="M241.764 90.4472C241.47 90.4185 241.185 90.3353 240.923 90.202C240.912 90.1961 240.902 90.1882 240.895 90.1786C240.887 90.1691 240.882 90.1581 240.878 90.1463C240.875 90.1345 240.874 90.1222 240.876 90.1101C240.877 90.098 240.881 90.0864 240.888 90.0758C240.893 90.0645 240.9 90.0544 240.909 90.046C240.919 90.0377 240.93 90.0314 240.941 90.0275C240.953 90.0235 240.966 90.0221 240.978 90.0231C240.991 90.0242 241.003 90.0278 241.014 90.0338C241.253 90.1598 241.515 90.2383 241.785 90.265C242.343 90.2997 242.894 90.1172 243.322 89.7557C243.749 89.3941 244.021 88.8815 244.079 88.3247C244.138 87.7679 243.98 87.2099 243.637 86.7671C243.294 86.3243 242.794 86.0309 242.24 85.9481C242.228 85.9483 242.216 85.9458 242.204 85.9407C242.193 85.9356 242.183 85.9281 242.175 85.9188C242.167 85.9094 242.161 85.8984 242.158 85.8865C242.155 85.8746 242.154 85.8622 242.156 85.85C242.157 85.838 242.16 85.8264 242.166 85.8156C242.171 85.8049 242.178 85.7954 242.188 85.7876C242.197 85.7797 242.207 85.7738 242.219 85.7701C242.23 85.7664 242.242 85.765 242.254 85.7659C242.569 85.7888 242.876 85.8747 243.157 86.0184C243.437 86.1622 243.687 86.361 243.889 86.603C244.092 86.8449 244.244 87.1252 244.336 87.4269C244.428 87.7287 244.458 88.046 244.425 88.3598C244.393 88.6736 244.297 88.9777 244.144 89.2538C243.992 89.53 243.785 89.7726 243.537 89.9673C243.288 90.162 243.003 90.3049 242.699 90.3873C242.394 90.4697 242.076 90.4901 241.764 90.4472Z" fill="#E0E0E0"/>
<path d="M237.348 88.6107C233.879 87.8398 229.12 89.3115 226.717 91.9675C224.313 94.6236 225.189 97.3356 228.658 98.1065C232.127 98.8774 236.885 97.3637 239.289 94.7427C241.693 92.1217 240.817 89.3746 237.348 88.6107Z" fill="#F26222"/>
<path opacity="0.2" d="M237.348 88.6107C233.879 87.8398 229.12 89.3115 226.717 91.9675C224.313 94.6236 225.189 97.3356 228.658 98.1065C232.127 98.8774 236.885 97.3637 239.289 94.7427C241.693 92.1217 240.817 89.3746 237.348 88.6107Z" fill="black"/>
<path d="M227.829 93.0001C229.03 91.8404 230.483 90.9749 232.075 90.4715C233.667 89.9681 235.354 89.8405 237.003 90.0988C237.609 90.2084 238.178 90.4687 238.657 90.8557C238.825 91.0018 238.952 91.1891 239.026 91.3992C239.099 91.6093 239.117 91.835 239.077 92.0541C238.922 92.6817 238.6 93.2556 238.145 93.715C236.944 94.8747 235.491 95.7402 233.899 96.2436C232.308 96.747 230.621 96.8746 228.972 96.6163C228.367 96.512 227.8 96.2537 227.325 95.8664L227.255 95.8033C226.344 94.8502 227.353 93.5327 227.829 93.0001Z" fill="#F26222"/>
<path opacity="0.5" d="M227.829 93.0001C229.03 91.8404 230.483 90.9749 232.075 90.4715C233.667 89.9681 235.354 89.8405 237.003 90.0988C237.609 90.2084 238.178 90.4687 238.657 90.8557C238.825 91.0018 238.952 91.1891 239.026 91.3992C239.099 91.6093 239.117 91.835 239.077 92.0541C238.922 92.6817 238.6 93.2556 238.145 93.715C236.944 94.8747 235.491 95.7402 233.899 96.2436C232.308 96.747 230.621 96.8746 228.972 96.6163C228.367 96.512 227.8 96.2537 227.325 95.8664L227.255 95.8033C226.344 94.8502 227.353 93.5327 227.829 93.0001Z" fill="black"/>
<path d="M228.198 94.1311C229.4 92.9732 230.853 92.1089 232.444 91.6056C234.036 91.1023 235.722 90.9737 237.371 91.2298C237.977 91.3394 238.546 91.5997 239.025 91.9867L239.088 92.0498C238.933 92.6774 238.611 93.2513 238.156 93.7107C236.955 94.8704 235.502 95.7359 233.91 96.2393C232.319 96.7428 230.632 96.8703 228.983 96.612C228.378 96.5077 227.811 96.2495 227.336 95.8621L227.266 95.799C227.419 95.1688 227.741 94.5922 228.198 94.1311Z" fill="#F0F0F0"/>
<path d="M232.16 93.9297L230.135 95.4434C229.974 95.5625 230.135 95.6817 230.38 95.5906L233.078 94.4833L232.16 93.9297Z" fill="#455A64"/>
<path d="M233.793 94.0837L235.818 92.57C235.98 92.4509 235.818 92.3317 235.573 92.4228L232.875 93.5301L233.793 94.0837Z" fill="#455A64"/>
<path d="M233.813 94.5023C233.516 94.6759 233.183 94.7782 232.841 94.8013C232.498 94.8244 232.154 94.7676 231.837 94.6355C231.381 94.3621 231.514 93.8506 232.138 93.5072C232.435 93.3336 232.768 93.2313 233.111 93.2082C233.453 93.185 233.797 93.2418 234.114 93.374C234.57 93.6473 234.437 94.1589 233.813 94.5023Z" fill="#F26222"/>
<path d="M233.513 94.3295C233.323 94.4425 233.109 94.509 232.889 94.5236C232.668 94.5383 232.448 94.5006 232.245 94.4136C231.943 94.2384 232.034 93.909 232.441 93.7128C232.631 93.5998 232.845 93.5333 233.065 93.5187C233.285 93.5041 233.506 93.5418 233.709 93.6287C234.011 93.7759 233.919 94.1053 233.513 94.3295Z" fill="#37474F"/>
<path d="M241.845 92.5721C241.523 92.0403 241.093 91.5819 240.584 91.2266L241.165 93.0767C241.621 94.4432 240.626 96.2373 239.637 97.2815C238.972 97.9822 237.724 98.7882 237.619 98.5359C237.479 98.1785 237.689 96.4335 237.332 94.8497C236.897 92.9575 235.776 93.8756 235.482 95.2982C235.321 96.0761 234.48 98.0593 234.241 99.566C233.947 101.409 234.325 102.986 233.772 104.317C233.344 105.362 228.866 110.982 226.245 113.995C223.554 110.407 219.938 105.733 216.777 101.717C212.369 96.0691 211.465 94.8847 207.933 94.7726C205.13 102.86 209.931 111.003 209.931 111.003C209.931 111.003 216.56 119.055 220.688 123.288C224.668 127.374 226.07 127.023 227.983 125.39C229.896 123.758 234.837 116.434 236.939 112.377C239.042 108.319 241.291 105.25 242.546 103.098C244.648 99.482 244.038 95.6836 241.845 92.5721Z" fill="#FFA8A7"/>
<path d="M206.803 94.3995C206.803 94.3995 210.11 93.9299 212.346 95.717C213.75 96.9899 215.024 98.3983 216.151 99.9218C219.242 104.056 225.002 111.737 225.002 111.737C224.052 113.454 222.763 114.96 221.214 116.165C219.665 117.369 217.888 118.247 215.99 118.745C215.99 118.745 210.328 112.823 208.211 109.887C204.469 104.708 204.854 97.2938 206.803 94.3995Z" fill="#455A64"/>
<path d="M192.583 91.4169C192.583 91.4169 188.056 93.4212 187.144 96.3225L182.891 95.7899C184.107 93.7302 186.026 92.1777 188.294 91.4169C189.695 91.0173 191.181 91.0173 192.583 91.4169Z" fill="#F26222"/>
<path opacity="0.2" d="M192.583 91.4169C192.583 91.4169 188.056 93.4212 187.144 96.3225L182.891 95.7899C184.107 93.7302 186.026 92.1777 188.294 91.4169C189.695 91.0173 191.181 91.0173 192.583 91.4169Z" fill="black"/>
<path d="M202.418 100.459C202.418 100.459 204.184 95.0984 206.805 94.3976C205.37 93.5267 203.738 93.0326 202.061 92.9609C200.299 94.2409 198.899 95.955 197.996 97.9366L202.418 100.459Z" fill="#F26222"/>
<path opacity="0.2" d="M202.418 100.459C202.418 100.459 204.184 95.0984 206.805 94.3976C205.37 93.5267 203.738 93.0326 202.061 92.9609C200.299 94.2409 198.899 95.955 197.996 97.9366L202.418 100.459Z" fill="black"/>
<path d="M185.425 94.3987C182.903 94.3637 177.934 97.5593 177.051 99.5286C176.168 101.498 172.685 127.49 174.85 130.097C177.563 133.363 190.023 140.763 195.874 140.553C200.682 140.385 205.405 136.741 206.134 135.451C207.325 133.349 205.714 104.616 204.179 102.171C201.67 98.2741 188.649 94.4548 185.425 94.3987Z" fill="#F26222"/>
<path opacity="0.2" d="M201.431 99.7891L198.936 101.471C196.42 102.922 195.06 106.741 195.103 115.886C195.145 125.032 194.969 137.422 196.434 138.732C197.899 140.043 200.849 139.146 201.024 139.097C203.652 137.976 205.643 136.294 206.112 135.467C207.303 133.364 205.692 104.632 204.157 102.186C203.429 101.202 202.499 100.385 201.431 99.7891Z" fill="black"/>
<path opacity="0.1" d="M205.254 136.448C203.537 138.046 199.718 140.436 195.849 140.576C190.026 140.779 177.559 133.379 174.825 130.113C172.667 127.513 176.101 101.611 177.026 99.5441C177.951 97.4767 182.878 94.3862 185.4 94.4143C187.923 94.4423 196.866 96.9792 201.407 99.7894L198.912 101.471C196.403 102.922 195.036 106.741 195.085 115.894C195.135 125.046 194.945 137.429 196.41 138.733C197.875 140.036 200.825 139.146 201 139.097C202.553 138.452 203.99 137.557 205.254 136.448Z" fill="black"/>
<path d="M185.166 94.3984C182.362 94.3984 178.2 96.655 176.791 98.8415C175.383 101.028 174.373 107.384 175.39 109.255C176.406 111.126 183.302 114.862 188.004 116.754C191.753 118.289 193.715 117.889 195.012 116.943C195.853 116.34 196 114.546 196.063 113.215C196.231 109.795 195.951 107.966 198.011 105.955C200.072 103.943 203.751 102.254 204.374 103.768C204.374 103.768 205.208 101.491 200.941 99.29C193.912 95.6599 188.586 94.3984 185.166 94.3984Z" fill="#F26222"/>
<path d="M189.136 112.422L191.617 113.361C191.617 113.361 191.287 120.909 191.301 123.873C191.301 123.873 190.72 125.141 190.18 125.352C189.64 125.562 188.933 124.139 188.82 123.067C188.708 121.995 188.877 114.98 189.136 112.422Z" fill="#455A64"/>
<path d="M189.066 113.014L191.589 113.883C191.654 113.911 191.725 113.922 191.795 113.916C191.865 113.91 191.933 113.886 191.992 113.847C192.051 113.808 192.1 113.755 192.133 113.693C192.167 113.631 192.184 113.561 192.184 113.491L192.282 112.278C192.283 112.142 192.243 112.008 192.169 111.893C192.094 111.779 191.987 111.688 191.862 111.634L189.332 110.723C189.269 110.695 189.199 110.683 189.13 110.689C189.061 110.694 188.995 110.717 188.936 110.754C188.878 110.792 188.83 110.843 188.796 110.903C188.763 110.964 188.745 111.032 188.743 111.101L188.652 112.377C188.653 112.511 188.692 112.643 188.765 112.756C188.838 112.869 188.943 112.959 189.066 113.014Z" fill="#37474F"/>
<path d="M190.021 121.806C190.224 121.9 190.397 122.047 190.52 122.233C190.644 122.418 190.714 122.635 190.722 122.858C190.735 122.946 190.723 123.036 190.689 123.118C190.654 123.201 190.598 123.272 190.526 123.325C190.454 123.377 190.369 123.409 190.28 123.417C190.191 123.425 190.101 123.408 190.021 123.369C189.817 123.277 189.644 123.13 189.52 122.944C189.396 122.758 189.327 122.541 189.32 122.318C189.334 121.876 189.643 121.652 190.021 121.806Z" fill="#E0E0E0"/>
<path d="M178.776 107.016L181.201 108.088C181.201 108.088 180.5 115.607 180.346 118.558C180.346 118.558 179.701 119.798 179.155 119.959C178.608 120.121 177.97 118.684 177.907 117.612C177.844 116.539 178.391 109.553 178.776 107.016Z" fill="#455A64"/>
<path d="M178.681 107.589L181.148 108.592C181.211 108.623 181.281 108.638 181.351 108.636C181.422 108.634 181.491 108.614 181.552 108.578C181.613 108.543 181.664 108.493 181.701 108.433C181.738 108.373 181.76 108.305 181.764 108.234L181.925 107.022C181.932 106.887 181.9 106.753 181.833 106.637C181.766 106.52 181.667 106.425 181.547 106.363L179.066 105.319C179.004 105.287 178.935 105.272 178.865 105.274C178.795 105.275 178.727 105.295 178.667 105.329C178.606 105.364 178.555 105.413 178.519 105.473C178.482 105.532 178.461 105.6 178.457 105.669L178.295 106.938C178.284 107.073 178.315 107.208 178.384 107.325C178.453 107.442 178.557 107.534 178.681 107.589Z" fill="#37474F"/>
<path d="M179.179 116.429C179.374 116.535 179.537 116.692 179.649 116.883C179.761 117.075 179.819 117.293 179.817 117.515C179.823 117.601 179.806 117.686 179.769 117.763C179.731 117.84 179.674 117.906 179.603 117.955C179.532 118.003 179.45 118.032 179.364 118.038C179.279 118.045 179.193 118.029 179.116 117.992C178.919 117.889 178.755 117.732 178.644 117.54C178.532 117.347 178.477 117.128 178.485 116.905C178.485 116.464 178.808 116.254 179.179 116.429Z" fill="#E0E0E0"/>
<path d="M176.112 121.408C176.112 124.428 176.028 125.676 176.161 127.126C176.18 127.722 176.35 128.302 176.655 128.814C176.96 129.325 177.391 129.75 177.906 130.049C179.371 131.086 185.685 134.408 187.549 135.298C189.834 136.377 192.322 137.099 192.287 135.298C192.287 133.749 192.287 130.455 192.287 129.327C192.287 127.925 191.586 127.035 188.783 125.725C186.098 124.484 180.121 121.121 178.467 120.371C177.065 119.761 176.119 120.504 176.112 121.408Z" fill="#F26222"/>
<path d="M208.444 73.245C208.444 73.245 213.216 67.092 209.67 63.7562C205.465 59.8107 199.894 59.8948 192.613 62.4317C189.207 63.623 184.252 67.078 183.81 73.7636C183.474 78.9285 197.868 82.7338 197.539 86.2658L208.444 73.245Z" fill="#263238"/>
<path d="M209.672 75.9297C209.672 75.9297 211.62 79.0552 211.347 79.3776C210.862 79.6779 210.328 79.8914 209.77 80.0083L209.672 75.9297Z" fill="#F28F8F"/>
<path d="M203.715 66.0004C205.664 67.0797 209.034 69.0629 209.714 76.3722C210.415 83.8778 208.684 86.4357 207.612 87.3888C206.911 88.0265 203.351 88.1737 201.515 87.55C199.209 86.7651 194.255 84.1511 192.005 80.2266C189.356 75.6084 188.95 69.5325 192.208 67.2479C196.82 64.0312 202.061 65.0964 203.715 66.0004Z" fill="#FFA8A7"/>
<path d="M202.477 87.7864C204.059 88.0727 205.685 88.013 207.242 87.6112C205.581 87.6169 203.953 87.1502 202.547 86.2656L202.477 87.7864Z" fill="#F28F8F"/>
<path d="M203.616 74.838C204.88 74.3641 205.991 73.5556 206.83 72.4989C207.67 71.4422 208.206 70.1772 208.382 68.8392C209.118 64.0808 203.168 62.0625 203.168 62.0625L203.616 74.838Z" fill="#263238"/>
<path d="M202.986 81.3842C202.593 82.0079 201.059 82.5966 199.44 80.9147C197.821 79.2328 197.877 76.1773 200.204 75.4695C202.53 74.7617 203.645 77.4598 203.645 77.4598C205.831 73.2059 204.289 66.3311 204.289 66.3311C204.289 66.3311 199.216 61.1101 190.974 63.605C186.552 64.9435 184.282 69.5618 183.791 73.0027C183.3 76.4436 181.976 82.5896 183.693 84.8181C185.41 87.0467 192.039 90.4946 197.996 90.2073C203.953 89.9199 203.967 88.7426 203.967 88.7426L203.056 81.223C203.056 81.223 203.042 81.2861 202.986 81.3842Z" fill="#263238"/>
<path d="M186.284 60.8038C188.597 58.0006 192.262 58.6524 195.114 59.1219C197.966 59.5914 202.122 59.9909 201.421 61.9251C200.72 63.8593 198.618 65.5903 193.712 65.1137C188.807 64.6372 187.903 65.1137 186.802 66.4102C186.774 66.3681 183.565 65.0787 186.284 60.8038Z" fill="#FFA8A7"/>
</svg>
