<svg width="26" height="26" viewBox="0 0 26 26" fill="none" xmlns="http://www.w3.org/2000/svg">
<path fill-rule="evenodd" clip-rule="evenodd" d="M8.07192 0.0505043C6.65247 0.211262 5.24368 0.732125 4.0323 1.5441C0.632875 3.82267 -0.813715 8.02674 0.454624 11.9417C0.668901 12.6033 1.24461 13.7485 1.65579 14.3312C2.17022 15.0603 3.23815 16.1042 3.95608 16.5798C4.73962 17.0988 5.54383 17.4976 5.81969 17.5039C6.33021 17.5156 6.65358 16.9184 6.37071 16.4863C6.32528 16.417 6.04459 16.2414 5.72051 16.0796C5.15694 15.7982 4.49917 15.3853 4.16523 15.1034L3.99328 14.9582L4.32676 14.5209C5.31096 13.2303 5.94637 11.6538 6.11939 10.0733L6.15415 9.75557H7.67701C9.33701 9.75557 9.41394 9.74393 9.62171 9.46156C9.721 9.32658 9.72364 9.23237 9.73696 5.34515L9.75058 1.36687H9.93223C10.4563 1.36687 11.7987 1.75529 12.5142 2.11397C12.929 2.32196 13.6402 2.77566 13.9522 3.03134L14.1668 3.2072L13.9402 3.48555C13.2195 4.37084 12.391 6.00038 12.391 6.53273C12.391 7.02492 12.9026 7.32127 13.3514 7.08903C13.5295 6.99686 13.6114 6.86864 13.7589 6.45093C14.0053 5.75304 14.8661 4.29168 15.0691 4.2266C15.1696 4.19442 15.6173 4.85337 15.9976 5.5933C16.3889 6.35464 16.4986 6.46786 16.8442 6.46786C17.22 6.46786 17.4895 6.19876 17.4889 5.82412C17.4886 5.55049 17.0465 4.65763 16.5423 3.912C16.0881 3.24019 15.0083 2.14361 14.3219 1.65686C13.4061 1.00753 11.983 0.39378 10.892 0.177657C9.99183 -0.00069219 8.94194 -0.0480248 8.07192 0.0505043ZM8.42761 4.90029V8.43372H7.29245H6.15735L6.09896 7.95846C5.90592 6.38677 5.16777 4.65387 4.19226 3.48209L3.9851 3.23323L4.18652 3.05813C4.73997 2.57713 5.83433 1.97518 6.64916 1.70354C7.12066 1.54639 7.92324 1.37531 8.21166 1.37048L8.42761 1.36687V4.90029ZM3.38088 4.59362C4.08906 5.53021 4.65888 6.95725 4.79739 8.14138L4.83159 8.43372H3.09811H1.36463V8.25105C1.36463 7.99374 1.55096 7.10698 1.7001 6.65429C1.96986 5.83556 2.90304 4.18049 3.06686 4.23016C3.09481 4.23865 3.23612 4.40221 3.38088 4.59362ZM15.8463 7.90584C14.8189 8.09507 14.532 8.1609 14.0901 8.30885C10.9636 9.35546 8.66765 11.9581 8.01166 15.1993C7.90805 15.7112 7.89433 15.922 7.89621 16.9749C7.89809 18.0217 7.91262 18.2355 8.01369 18.7014C8.63274 21.5561 10.4373 23.8843 12.9862 25.1166C13.6606 25.4426 14.5964 25.7478 15.334 25.8823C16.1949 26.0393 17.6629 26.0392 18.5255 25.8823C21.9869 25.2524 24.8328 22.6177 25.7042 19.2365C26.5444 15.976 25.5671 12.5973 23.1239 10.3157C21.8853 9.15911 20.4124 8.39375 18.7158 8.02531C18.3024 7.93553 18.0033 7.91224 17.0912 7.89887C16.4764 7.88982 15.9162 7.89297 15.8463 7.90584ZM18.1812 9.27833C18.4453 9.319 18.6678 9.35876 18.6757 9.36664C18.6964 9.38733 16.9995 10.6112 16.9388 10.6195C16.9108 10.6232 16.4998 10.345 16.0254 10.0012L15.1629 9.3761L15.4411 9.31214C16.1021 9.16023 17.3173 9.14523 18.1812 9.27833ZM4.79394 10.0733C4.66187 11.241 4.11477 12.5828 3.34074 13.6375C3.11818 13.9407 3.07677 13.975 3.00461 13.9158C2.87799 13.8118 2.34227 12.9783 2.1252 12.5475C1.75457 11.812 1.36463 10.4742 1.36463 9.93824V9.75557H3.09725H4.82986L4.79394 10.0733ZM14.9854 10.8802L16.2528 11.8025L16.2527 12.4694L16.2526 13.1365L14.8778 14.1351L13.5031 15.1338L12.8791 14.9272L12.255 14.7205L11.755 13.1782L11.2549 11.6359L11.4037 11.4788C11.9436 10.9093 13.4647 9.8633 13.6515 9.93311C13.688 9.94678 14.2883 10.373 14.9854 10.8802ZM20.5352 10.0672C21.0565 10.3296 21.7403 10.823 22.1813 11.2552L22.5966 11.6621L22.0999 13.1811C21.8268 14.0165 21.5713 14.7176 21.5322 14.7391C21.4931 14.7606 21.2096 14.8567 20.9022 14.9527L20.3432 15.1271L18.9713 14.1281L17.5993 13.129L17.5875 12.4718L17.5757 11.8146L18.8833 10.8639C19.6024 10.3411 20.1971 9.91211 20.205 9.91069C20.2127 9.90926 20.3614 9.97968 20.5352 10.0672ZM10.6364 13.9978L10.9572 14.9954L10.7976 15.115C10.1778 15.5795 9.22004 16.2595 9.20581 16.2453C9.16984 16.2093 9.30505 15.4084 9.42563 14.9436C9.60977 14.2338 10.2022 12.8869 10.2912 12.9759C10.3046 12.9893 10.4599 13.4492 10.6364 13.9978ZM24.1249 14.0516C24.414 14.788 24.6858 15.929 24.6297 16.1706C24.6165 16.2272 24.3999 16.0943 23.8493 15.6919C23.4301 15.3855 23.0429 15.1033 22.9887 15.0648C22.8931 14.9967 22.8987 14.969 23.1857 14.091C23.6158 12.7752 23.5465 12.8797 23.7511 13.2382C23.847 13.4059 24.0152 13.772 24.1249 14.0516ZM18.2853 15.2624C18.8582 15.6775 19.3548 16.044 19.3888 16.0768C19.4371 16.1234 19.3449 16.4617 18.9674 17.624L18.484 19.1117L16.9256 19.0982L15.3672 19.0848L14.8982 17.6613C14.6402 16.8783 14.4288 16.2034 14.4284 16.1615C14.4279 16.1195 14.9898 15.6796 15.6769 15.1839L16.9262 14.2826L17.0849 14.3951C17.1722 14.457 17.7124 14.8473 18.2853 15.2624ZM12.5268 16.1974L13.099 16.3858L13.5551 17.7862C13.8059 18.5563 14.0393 19.2921 14.0736 19.4212L14.1361 19.6559L13.7629 20.1711L13.3897 20.6863H11.7547H10.1198L9.88828 20.1906C9.63005 19.6377 9.44194 19.0729 9.32121 18.4881C9.20825 17.941 9.21501 17.8827 9.40637 17.7541C9.49687 17.6933 10.0739 17.2767 10.6888 16.8283C11.3036 16.3798 11.8399 16.0121 11.8806 16.011C11.9212 16.0099 12.212 16.0938 12.5268 16.1974ZM23.3397 16.9539L24.6398 17.8988L24.6093 18.0851C24.4842 18.8459 24.1976 19.7412 23.8737 20.3832L23.7208 20.6863H22.096H20.4711L20.1121 20.2C19.9147 19.9325 19.7433 19.6866 19.7312 19.6535C19.7191 19.6203 19.9438 18.8743 20.2303 17.9958L20.7513 16.3983L21.3095 16.2076C21.6164 16.1028 21.9063 16.0152 21.9536 16.013C22.0008 16.0107 22.6246 16.4342 23.3397 16.9539ZM19.0221 20.9377C19.2177 21.2133 19.3778 21.4618 19.3778 21.4897C19.3778 21.5177 19.1605 22.2175 18.8951 23.0449C18.5826 24.0188 18.3855 24.5577 18.3361 24.5732C18.1582 24.6291 17.3643 24.7027 16.9388 24.7027C16.5087 24.7027 15.7249 24.6296 15.5324 24.5714C15.4714 24.553 15.309 24.1216 14.9608 23.0526C14.6932 22.2314 14.4743 21.5323 14.4743 21.499C14.4743 21.4657 14.6384 21.212 14.8388 20.9353L15.2033 20.4321L16.9348 20.4343L18.6664 20.4365L19.0221 20.9377ZM13.5057 22.8343C13.6564 23.2887 13.8088 23.7568 13.8445 23.8746L13.9093 24.0887L13.6368 23.9681C12.9202 23.651 12.0809 23.0557 11.4521 22.4188L11.0469 22.0082H12.1393H13.2318L13.5057 22.8343ZM22.7568 22.0522C22.7568 22.1317 21.9543 22.8656 21.4999 23.2018C21.0849 23.5089 19.9621 24.1397 19.9621 24.0658C19.9621 24.0247 20.5771 22.0989 20.607 22.0463C20.6375 21.9926 22.7568 21.9984 22.7568 22.0522Z" fill="#474747"/>
</svg>
