<svg width="26" height="21" viewBox="0 0 26 21" fill="none" xmlns="http://www.w3.org/2000/svg">
<path fill-rule="evenodd" clip-rule="evenodd" d="M22.3809 0.700613C20.8193 1.09556 19.4889 1.4471 19.4244 1.48185C19.1995 1.60313 19.1517 1.76187 19.0197 2.8235C18.9489 3.39343 18.8782 3.93503 18.8626 4.02713L18.8343 4.19457L16.9663 4.20947C15.1832 4.22369 15.093 4.22911 14.9833 4.32846C14.6974 4.58733 14.6989 4.50069 14.9316 7.27833C15.0494 8.68321 15.1384 9.89534 15.1295 9.97198C15.1016 10.2139 14.9245 10.1786 14.5436 9.85544C13.9373 9.34114 13.3716 9.12801 12.6128 9.12801C12.3194 9.12801 12.0307 9.16177 11.8416 9.21819L11.5391 9.30837L11.2693 9.06571C10.6873 8.54245 10.0796 8.30551 9.30467 8.29983C8.5611 8.29431 8.01101 8.48379 7.42612 8.94677L7.14267 9.17115L6.41331 9.17735C5.6029 9.18428 5.35122 9.24039 4.77113 9.54343C4.58431 9.64106 4.31231 9.82512 4.16681 9.95244L3.90216 10.1839L3.65168 10.1085C3.50976 10.0658 3.18859 10.0331 2.91071 10.0331C1.60564 10.0331 0.488268 10.8722 0.100722 12.143C-0.0322804 12.5793 -0.0339996 14.4656 0.0981694 14.9943C0.379074 16.1183 1.13718 17.0669 2.16458 17.5801C2.43835 17.7169 2.80672 17.8592 2.98312 17.8964L3.30383 17.964L3.32175 18.6766C3.34113 19.4492 3.38119 19.5763 3.66366 19.7614C3.79494 19.8475 4.14862 19.8543 9.22424 19.8688C12.2054 19.8773 14.7487 19.8693 14.8759 19.8511C15.041 19.8274 15.1565 19.7686 15.2796 19.6455L15.4521 19.473V18.7139V17.9548L15.6214 17.909C15.7145 17.8839 15.7955 17.8665 15.8014 17.8705C15.8072 17.8744 15.8607 18.4511 15.9202 19.152C15.9797 19.8529 16.0396 20.4633 16.0534 20.5084C16.0672 20.5535 16.15 20.659 16.2375 20.7428L16.3966 20.8953L19.2445 20.9096C21.312 20.92 22.1324 20.9074 22.2381 20.8636C22.3181 20.8305 22.4331 20.7339 22.4935 20.6491C22.5961 20.505 22.6469 19.9717 23.2592 12.6198C23.9829 3.92841 23.9584 4.50944 23.6093 4.29653C23.4613 4.20624 23.3212 4.19869 21.7948 4.19853C20.2535 4.19832 20.1409 4.19212 20.1428 4.10715C20.1476 3.89299 20.3328 2.58224 20.3624 2.55265C20.3803 2.53478 21.5594 2.22892 22.9826 1.87284C24.4059 1.51681 25.633 1.19313 25.7097 1.15349C25.9378 1.03549 26.0526 0.733538 25.9767 0.451435C25.9036 0.180064 25.7176 0.0223677 25.4448 0.000591339C25.2836 -0.0123286 24.4184 0.185378 22.3809 0.700613ZM10.9361 0.677482C10.7383 0.766411 10.6071 0.996678 10.6071 1.25487C10.6071 1.53332 10.7292 1.72228 10.9878 1.84377C11.1768 1.93264 11.2368 1.9986 11.3339 2.22428C11.4658 2.53082 11.4538 2.78958 11.2997 2.95978C11.2484 3.01646 11.0584 3.12998 10.8774 3.21203C10.2668 3.48892 9.92389 3.86777 9.75208 4.45526C9.50139 5.31267 9.89211 6.28594 10.6491 6.68937C11.0017 6.87729 11.3609 6.9099 11.57 6.77288C11.761 6.64775 11.8831 6.28359 11.8093 6.05968C11.7381 5.844 11.57 5.6775 11.3747 5.629C11.0896 5.5582 10.8861 5.13195 10.9781 4.79842C11.0321 4.60311 11.2443 4.41676 11.5448 4.30101C12 4.12565 12.3535 3.79879 12.5515 3.37014C12.6418 3.17463 12.6625 3.02938 12.6636 2.58333C12.6648 2.07133 12.6539 2.01298 12.4928 1.67164C12.1307 0.904571 11.4285 0.456124 10.9361 0.677482ZM6.7683 1.79928C6.55538 1.9291 6.48276 2.06883 6.48276 2.34879C6.48276 2.63548 6.60034 2.81354 6.85765 2.91649C7.10948 3.01724 7.28828 3.3306 7.29463 3.68231C7.30015 3.98697 7.23623 4.06068 6.77851 4.27787C6.26765 4.52033 5.95929 4.80577 5.75101 5.22905C5.59368 5.54882 5.57982 5.61728 5.58013 6.07286C5.5805 6.52022 5.59654 6.60263 5.74434 6.91521C6.02717 7.51365 6.59623 7.94761 7.09958 7.94876C7.63284 7.95001 7.90989 7.29458 7.54605 6.89255C7.49968 6.84129 7.3597 6.75423 7.23503 6.69912C7.05415 6.6191 6.987 6.55054 6.90261 6.35981C6.70573 5.91465 6.86108 5.65291 7.50448 5.3458C7.99023 5.11397 8.20929 4.90079 8.4083 4.4661C8.83455 3.53498 8.37214 2.20792 7.48129 1.80579C7.18575 1.67237 6.9795 1.67049 6.7683 1.79928ZM18.666 5.644C18.6499 5.75148 18.5734 6.35512 18.4962 6.98549C18.4189 7.61586 18.3503 8.13818 18.3437 8.14615C18.3371 8.15417 18.1585 8.07212 17.9468 7.96381C17.5814 7.77689 17.537 7.76694 17.0671 7.76694C16.7949 7.76694 16.5003 7.78543 16.4125 7.80804L16.2528 7.84909L16.1645 6.76611C16.1159 6.17044 16.0764 5.63035 16.0767 5.56586L16.0772 5.44864H17.3863H18.6954L18.666 5.644ZM22.5522 5.48771C22.5743 5.52871 22.3896 7.88025 22.3562 7.9821C22.3428 8.02289 22.2678 8.02758 22.1114 7.99736C21.4532 7.87019 20.9063 7.97491 20.1375 8.37543C19.8532 8.52354 19.6107 8.63476 19.5985 8.62257C19.5773 8.60137 19.9087 5.80665 19.961 5.56586L19.9864 5.44864H21.2587C21.9585 5.44864 22.5405 5.46625 22.5522 5.48771ZM17.3683 9.12421C17.636 9.23596 18.1602 9.57907 18.1601 9.64242C18.1601 9.67107 18.0568 10.5147 17.9306 11.5172C17.6746 13.5511 17.6755 13.576 18.0147 13.7827C18.3307 13.9754 18.7647 13.8663 18.9064 13.5587C18.9483 13.4678 19.0692 12.6783 19.1751 11.8044C19.281 10.9305 19.3847 10.1586 19.4056 10.0892C19.4371 9.98412 19.4979 9.95182 19.7669 9.89696C19.9459 9.86044 20.3514 9.69972 20.6755 9.53676L21.2608 9.24252L21.7153 9.2631C21.9652 9.2744 22.1875 9.30144 22.2093 9.32317C22.2417 9.35557 21.4985 18.7125 21.405 19.4496L21.3769 19.671H19.3246C17.7289 19.671 17.2674 19.6565 17.2505 19.6059C17.2167 19.5044 16.3821 9.35609 16.4 9.2643C16.4373 9.07284 17.0375 8.98605 17.3683 9.12421ZM9.99933 9.71639C10.2738 9.84924 10.5243 10.0882 10.7182 10.402C10.9709 10.8109 11.2918 10.8669 11.8145 10.5932C12.1107 10.438 12.1773 10.424 12.6097 10.4249C13.0182 10.4257 13.1172 10.4444 13.3454 10.5641C13.6208 10.7084 13.8885 10.9706 14.0842 11.2875C14.2829 11.6096 14.6528 11.687 15.0424 11.4882C15.1587 11.4289 15.26 11.3879 15.2676 11.397C15.2753 11.4062 15.297 11.6071 15.3159 11.8435L15.3503 12.2733H8.39418C4.56837 12.2733 1.43809 12.2604 1.43809 12.2446C1.43809 12.0494 1.90019 11.5894 2.26528 11.4213C2.63532 11.2508 3.2398 11.2669 3.6522 11.4581C4.19166 11.7083 4.32997 11.6728 4.77696 11.1699C5.15628 10.7431 5.55159 10.5238 6.07526 10.4498C6.60909 10.3744 6.96288 10.461 7.36554 10.7658C7.77262 11.074 7.89114 11.1117 8.14693 11.0143C8.55261 10.8599 8.70416 10.3506 8.43841 10.0347C8.30619 9.87763 8.30489 9.8695 8.39934 9.79792C8.49061 9.72874 8.6668 9.65981 8.91395 9.59647C9.1389 9.53879 9.77854 9.60949 9.99933 9.71639ZM15.4532 13.5887C15.6427 15.7709 15.6979 16.5254 15.6696 16.5511C15.4808 16.7228 15.3357 16.7274 9.6433 16.743C5.56055 16.7542 3.89715 16.7418 3.58051 16.6976C2.21235 16.5069 1.2818 15.4178 1.2818 14.0076V13.5757H8.36694C12.2638 13.5757 15.4526 13.5816 15.4532 13.5887ZM14.2017 18.2904V18.577H9.40887H4.61598V18.2904V18.0039H9.40887H14.2017V18.2904Z" fill="#474747"/>
</svg>
