<svg width="26" height="26" viewBox="0 0 26 26" fill="none" xmlns="http://www.w3.org/2000/svg">
<path fill-rule="evenodd" clip-rule="evenodd" d="M7.94667 0.0159093C7.8908 0.0287076 7.72041 0.0645126 7.56805 0.0954929C6.47557 0.317332 5.38826 1.23455 4.92676 2.32363C4.44977 3.44918 4.56033 4.79265 5.21396 5.81449L5.38501 6.08189H3.7652C2.87429 6.08189 2.02239 6.1052 1.87206 6.13374C0.95992 6.30672 0.223302 7.04334 0.0503209 7.95548C-0.0194607 8.32348 -0.0157025 10.0222 0.0556028 10.3582C0.189884 10.9906 0.640418 11.5937 1.19126 11.8785L1.52173 12.0494L1.52188 17.9465C1.52203 21.7444 1.54052 23.9409 1.57394 24.1169C1.74692 25.029 2.48354 25.7656 3.39568 25.9386C3.77308 26.0102 22.2269 26.0102 22.6043 25.9386C23.5165 25.7656 24.2531 25.029 24.4261 24.1169C24.4595 23.9409 24.478 21.7444 24.4781 17.9465L24.4783 12.0494L24.8087 11.8785C25.3596 11.5937 25.8101 10.9906 25.9444 10.3582C26.0157 10.0222 26.0195 8.32348 25.9497 7.95548C25.7767 7.04334 25.0401 6.30672 24.1279 6.13374C23.9776 6.1052 23.1257 6.08189 22.2348 6.08189H20.615L20.786 5.81449C21.4397 4.79265 21.5502 3.44918 21.0732 2.32363C20.6137 1.23917 19.6014 0.380105 18.4342 0.0840657C18.025 -0.0197434 16.9706 -0.00689421 16.5551 0.10692C15.9463 0.273654 15.5009 0.531654 15.0538 0.976651C14.394 1.63318 13.9833 2.35349 13.3233 4.01149C13.1594 4.42307 13.014 4.75979 13 4.75979C12.986 4.75979 12.8406 4.42307 12.6767 4.01149C12.0167 2.35349 11.606 1.63318 10.9462 0.976651C10.5042 0.536732 10.0521 0.27274 9.47029 0.114843C9.17542 0.0348529 8.15337 -0.0315768 7.94667 0.0159093ZM9.28263 1.654C10.0513 1.94882 10.4653 2.5988 11.48 5.10423L11.8759 6.08189H10.0833C9.07633 6.08189 8.17085 6.05918 8.01731 6.03003C7.07359 5.85106 6.34388 5.09499 6.18405 4.13054C5.99344 2.98016 6.81178 1.8085 7.97755 1.56274C8.32117 1.49031 8.97511 1.53607 9.28263 1.654ZM17.9827 1.56289C19.1751 1.78899 20.0101 2.95862 19.816 4.13054C19.6561 5.09499 18.9264 5.85106 17.9827 6.03003C17.8292 6.05918 16.9237 6.08189 15.9167 6.08189H14.1241L14.52 5.10423C15.3523 3.04928 15.7491 2.31835 16.2454 1.92607C16.7005 1.56634 17.3191 1.43704 17.9827 1.56289ZM9.95277 9.12912V10.6527H6.04012C2.21899 10.6527 2.1228 10.6504 1.92706 10.5505C1.57079 10.3687 1.52208 10.1977 1.52208 9.12912C1.52208 8.07071 1.5717 7.89215 1.91624 7.71023C2.10045 7.61302 2.22361 7.60992 6.02945 7.60774L9.95277 7.6055V9.12912ZM14.5236 16.0362V24.4669H13H11.4764V16.0362V7.6055H13H14.5236V16.0362ZM24.0729 7.70774C24.4292 7.88951 24.4779 8.06051 24.4779 9.12912C24.4779 10.1977 24.4292 10.3687 24.0729 10.5505C23.8772 10.6504 23.781 10.6527 19.9599 10.6527H16.0472V9.12912V7.6055H19.9599C23.781 7.6055 23.8772 7.60789 24.0729 7.70774ZM9.95277 18.3216V24.4669H6.80193C3.74433 24.4669 3.64519 24.4638 3.45068 24.3646C3.32163 24.2988 3.21376 24.1909 3.14794 24.0619C3.04722 23.8645 3.0457 23.7743 3.0457 18.0189V12.1764H6.49923H9.95277V18.3216ZM22.9543 18.0189C22.9543 23.7743 22.9528 23.8645 22.8521 24.0619C22.7862 24.1909 22.6784 24.2988 22.5493 24.3646C22.3548 24.4638 22.2557 24.4669 19.1981 24.4669H16.0472V18.3216V12.1764H19.5008H22.9543V18.0189Z" fill="#474747"/>
</svg>
