<svg width="14" height="14" viewBox="0 0 14 14" fill="none" xmlns="http://www.w3.org/2000/svg">
<path d="M0.712925 0.712925C0.800011 0.625619 0.903465 0.556351 1.01736 0.509089C1.13126 0.461827 1.25336 0.4375 1.37668 0.4375C1.49999 0.4375 1.62209 0.461827 1.73599 0.509089C1.84989 0.556351 1.95334 0.625619 2.04043 0.712925L7.00168 5.67605L11.9629 0.712925C12.0501 0.62576 12.1536 0.556617 12.2675 0.509444C12.3813 0.462271 12.5034 0.437991 12.6267 0.437991C12.7499 0.437991 12.872 0.462271 12.9859 0.509444C13.0998 0.556617 13.2033 0.62576 13.2904 0.712925C13.3776 0.80009 13.4467 0.90357 13.4939 1.01746C13.5411 1.13134 13.5654 1.25341 13.5654 1.37668C13.5654 1.49995 13.5411 1.62201 13.4939 1.73589C13.4467 1.84978 13.3776 1.95326 13.2904 2.04043L8.3273 7.00168L13.2904 11.9629C13.3776 12.0501 13.4467 12.1536 13.4939 12.2675C13.5411 12.3813 13.5654 12.5034 13.5654 12.6267C13.5654 12.7499 13.5411 12.872 13.4939 12.9859C13.4467 13.0998 13.3776 13.2033 13.2904 13.2904C13.2033 13.3776 13.0998 13.4467 12.9859 13.4939C12.872 13.5411 12.7499 13.5654 12.6267 13.5654C12.5034 13.5654 12.3813 13.5411 12.2675 13.4939C12.1536 13.4467 12.0501 13.3776 11.9629 13.2904L7.00168 8.3273L2.04043 13.2904C1.95326 13.3776 1.84978 13.4467 1.73589 13.4939C1.62201 13.5411 1.49995 13.5654 1.37668 13.5654C1.25341 13.5654 1.13134 13.5411 1.01746 13.4939C0.90357 13.4467 0.80009 13.3776 0.712925 13.2904C0.62576 13.2033 0.556617 13.0998 0.509444 12.9859C0.462271 12.872 0.437991 12.7499 0.437991 12.6267C0.437991 12.5034 0.462271 12.3813 0.509444 12.2675C0.556617 12.1536 0.62576 12.0501 0.712925 11.9629L5.67605 7.00168L0.712925 2.04043C0.625619 1.95334 0.556351 1.84989 0.509089 1.73599C0.461827 1.62209 0.4375 1.49999 0.4375 1.37668C0.4375 1.25336 0.461827 1.13126 0.509089 1.01736C0.556351 0.903465 0.625619 0.800011 0.712925 0.712925Z" fill="white"/>
</svg>
