<svg width="26" height="21" viewBox="0 0 26 21" fill="none" xmlns="http://www.w3.org/2000/svg">
<path fill-rule="evenodd" clip-rule="evenodd" d="M15.5283 0.0734626C15.3413 0.157027 15.1717 0.337146 15.0996 0.528771C15.0697 0.607937 15.0453 0.912891 15.0453 1.20639V1.74005H14.0317C13.4743 1.74005 12.9652 1.76035 12.9005 1.78515C12.7099 1.85823 12.5074 2.09645 12.4484 2.31707C12.3743 2.5939 12.4954 2.91731 12.7451 3.10894L12.9271 3.24871L13.9809 3.26512L15.0349 3.28159L15.0528 3.87881C15.0686 4.40572 15.0847 4.49578 15.1892 4.64306C15.3477 4.8667 15.547 4.96193 15.8563 4.96193C15.9975 4.96193 16.1131 4.97369 16.1131 4.98806C16.1131 5.00248 16.0211 5.14967 15.9088 5.31521C15.6654 5.67386 15.394 6.25119 15.2696 6.67515C15.1899 6.94681 15.1773 7.27979 15.1603 9.57741L15.1411 12.1728H13.5718H12.0025L11.9495 12.0066C11.8389 11.66 11.1811 9.39851 11.1811 9.36471C11.1811 9.34523 11.2816 9.28022 11.4043 9.22024C11.7428 9.05485 11.9736 8.82389 12.1448 8.47931C12.2793 8.20851 12.2997 8.11278 12.2997 7.75167C12.2997 7.24313 12.2029 6.84003 11.9665 6.36483C11.5463 5.51998 10.6986 4.88082 9.76914 4.70801C9.58976 4.67462 8.111 4.65508 5.76752 4.65508C1.72717 4.65508 1.73993 4.65427 1.2117 4.94347C1.07951 5.01583 0.85325 5.19319 0.708851 5.33766C-0.0478169 6.0948 -0.215909 7.21638 0.287808 8.14725C0.572995 8.67431 1.27226 9.20842 1.78508 9.29091C1.89134 9.308 1.97829 9.33362 1.97829 9.34788C1.97829 9.3621 1.82097 9.54033 1.62868 9.74397C0.816692 10.6037 0.266657 11.7623 0.1007 12.9621C0.0707526 13.179 0.0461947 14.0248 0.0461947 14.8417C0.0461947 16.2739 0.0501605 16.334 0.157239 16.5256C0.315925 16.8096 0.586875 16.9289 1.07315 16.9289H1.45784L1.58938 17.3508C1.77887 17.9588 2.03772 18.3711 2.56402 18.903C2.95292 19.2962 3.0991 19.4054 3.50555 19.6062C4.18051 19.9396 4.52209 20.0204 5.25776 20.0204C5.99378 20.0204 6.33475 19.9397 7.01189 19.6053C7.4217 19.403 7.56427 19.2964 7.95252 18.9022C8.47357 18.3731 8.72083 17.9795 8.92111 17.3602L9.06077 16.9284L13.7103 16.9415L18.3598 16.9545L18.4735 17.3125C19.0178 19.025 20.615 20.1412 22.3651 20.0319C22.9676 19.9943 23.3436 19.8953 23.8711 19.6352C24.8533 19.1508 25.614 18.2161 25.9069 17.1335C26.0314 16.6733 26.0309 15.6476 25.9061 15.1901C25.8103 14.8392 25.5488 14.2504 25.3694 13.9814L25.2625 13.8211L25.3962 13.7873C25.6162 13.7318 25.7732 13.6013 25.8848 13.3812C25.975 13.2036 25.9858 13.1157 25.9598 12.7765C25.8276 11.0519 24.6911 9.69887 23.0025 9.25563C22.737 9.18592 22.3556 9.13862 21.9044 9.11934L21.213 9.08978L20.773 6.98752C20.531 5.83122 20.333 4.86185 20.3331 4.83326C20.3331 4.80467 20.4565 4.70704 20.6073 4.61632C21.192 4.26462 21.649 3.5803 21.7657 2.88202C21.9809 1.59409 21.0709 0.297971 19.7797 0.0531593C19.3477 -0.0287174 15.7181 -0.0113804 15.5283 0.0734626ZM19.6604 1.61465C19.9117 1.7202 20.0726 1.87603 20.1862 2.1236C20.3013 2.3745 20.307 2.60448 20.2041 2.85216C20.1032 3.09508 19.9962 3.21122 19.7632 3.33084C19.5907 3.41941 19.4461 3.4277 18.0726 3.4277H16.5707V2.48159V1.53548H18.0214C19.2157 1.53548 19.5054 1.54944 19.6604 1.61465ZM18.8273 5.15371C18.8417 5.20296 19.0722 6.29032 19.3393 7.57012L19.8251 9.89704L19.8248 11.4568L19.8245 13.0166L19.405 13.4513C18.9471 13.9259 18.667 14.3945 18.4727 15.0111L18.3598 15.3691L14.5737 15.3822L10.7876 15.3954L10.7527 15.131C10.705 14.7694 10.4552 14.0071 10.2525 13.6048C9.95569 13.0155 9.69964 12.6694 9.17406 12.1472C8.43762 11.4156 7.67425 10.9829 6.6814 10.7344C6.14891 10.6012 5.12785 10.5536 4.56765 10.636C3.79394 10.7498 2.94042 11.0812 2.37233 11.4882C2.23953 11.5834 2.13082 11.6437 2.13082 11.6223C2.13082 11.6009 2.20988 11.4652 2.30659 11.3208C2.88825 10.4521 3.81443 9.79455 4.8717 9.49988C5.22995 9.4 5.4135 9.39084 7.41967 9.37238L9.58158 9.35249L9.97455 10.6987C10.6363 12.9655 10.5939 12.8498 10.8761 13.1603C11.0317 13.3316 11.2309 13.4845 11.3962 13.5597C11.6632 13.681 11.6712 13.6815 13.5708 13.6815H15.4775L15.7653 13.5393C16.0967 13.3756 16.3823 13.0809 16.5383 12.7416C16.6436 12.5125 16.6478 12.423 16.6753 9.8459C16.6965 7.86188 16.7206 7.1346 16.7701 6.982C17.0396 6.15178 17.6681 5.47717 18.4519 5.17672C18.7973 5.04432 18.7952 5.04447 18.8273 5.15371ZM9.87119 6.33522C10.355 6.57706 10.7161 7.07978 10.7636 7.57769L10.7873 7.82583H6.48286C2.96238 7.82583 2.14816 7.81314 2.0124 7.75607C1.52694 7.55202 1.37085 6.89731 1.71084 6.49089C1.97107 6.17985 1.81065 6.1909 5.89331 6.20343L9.63039 6.21488L9.87119 6.33522ZM22.784 10.7851C23.2174 10.9376 23.5013 11.1238 23.8073 11.4562C24.0509 11.7209 24.3426 12.1972 24.2921 12.2479C24.2819 12.2582 23.6158 12.2742 22.8118 12.2836L21.35 12.3007V11.462L21.35 10.6234L21.922 10.6532C22.295 10.6727 22.5949 10.7186 22.784 10.7851ZM6.46384 12.2665C7.75773 12.6559 8.73878 13.64 9.14152 14.9526C9.20065 15.1454 9.24905 15.3238 9.24905 15.3489C9.24905 15.3755 7.64435 15.3947 5.43475 15.3947H1.62044L1.6511 15.2541C1.96502 13.8151 2.89725 12.712 4.14299 12.3058C4.60766 12.1543 4.84231 12.1262 5.48656 12.145C5.93084 12.158 6.22497 12.1945 6.46384 12.2665ZM23.1524 14.03C24.638 14.7396 24.9596 16.6849 23.7807 17.8303C23.4307 18.1704 23.1343 18.3372 22.6963 18.4409C21.7866 18.6562 20.8688 18.3223 20.2989 17.5689C20.0172 17.1963 19.8677 16.7882 19.8371 16.3074C19.7663 15.1946 20.4255 14.2474 21.528 13.878C21.6606 13.8335 21.9108 13.8156 22.2463 13.8265C22.7159 13.8416 22.7956 13.8595 23.1524 14.03ZM21.7691 15.4967C21.274 15.8003 21.2842 16.5228 21.7875 16.813C22.037 16.9569 22.2739 16.9593 22.5193 16.8206C22.8841 16.6144 23.0226 16.1637 22.8321 15.803C22.6278 15.4164 22.1327 15.2737 21.7691 15.4967ZM7.39674 17.1074C6.985 18.0985 5.83871 18.6862 4.76451 18.4568C4.06108 18.3065 3.38749 17.7542 3.11878 17.1074L3.04465 16.9289H5.25776H7.47087L7.39674 17.1074Z" fill="#474747"/>
</svg>
