<svg width="26" height="26" viewBox="0 0 26 26" fill="none" xmlns="http://www.w3.org/2000/svg">
<path fill-rule="evenodd" clip-rule="evenodd" d="M1.75503 0.0731413C1.32757 0.180123 1.00758 0.362809 0.685258 0.683957C0.353288 1.01475 0.152603 1.37901 0.0601554 1.81866C-0.0206667 2.20298 -0.0197529 16.1857 0.06112 16.5637C0.247793 17.436 0.948792 18.137 1.82098 18.3237C2.00369 18.3628 3.01783 18.3813 4.98127 18.3813C6.57146 18.3813 7.87254 18.3911 7.87254 18.403C7.87254 18.4149 7.64408 18.8872 7.36486 19.4526C7.00674 20.1778 6.85718 20.5344 6.85718 20.663C6.85718 20.92 7.01162 21.1799 7.24322 21.3127L7.44101 21.4261L11.3882 21.427L15.3354 21.4278V22.6693C15.3354 23.4028 15.3589 24.0208 15.393 24.1798C15.5796 25.0521 16.2806 25.7532 17.1528 25.9399C17.5246 26.0195 23.8018 26.0203 24.1792 25.9408C25.0407 25.7594 25.7602 25.0399 25.9402 24.1798C26.0207 23.7957 26.0195 11.4358 25.939 11.0596C25.8454 10.6222 25.6432 10.255 25.3135 9.92373C24.8173 9.42523 24.311 9.24193 23.4303 9.24193H22.9505V5.66482C22.9505 3.19013 22.9328 2.0048 22.893 1.81866C22.7058 0.944125 22.0027 0.240494 21.1331 0.0576043C20.7234 -0.0286106 2.10188 -0.0136322 1.75503 0.0731413ZM21.0227 1.62643C21.1517 1.69224 21.2595 1.80008 21.3253 1.9291C21.4249 2.12427 21.4275 2.22176 21.4275 5.68569V9.24193H19.4247C18.1236 9.24193 17.3276 9.26209 17.1528 9.29951C16.2784 9.48666 15.5749 10.1899 15.392 11.0596C15.3592 11.2152 15.3354 11.8522 15.3354 12.5701V13.8116H8.43098H1.52658L1.52871 7.95988C1.5311 1.38236 1.50003 1.89427 1.91206 1.64481L2.11041 1.52473L11.4664 1.52448C20.7433 1.52422 20.824 1.52509 21.0227 1.62643ZM24.0687 10.8674C24.3718 11.022 24.4736 11.2638 24.4736 11.8294V12.2884H20.666H16.8584L16.8605 11.8187C16.863 11.2633 16.9434 11.0677 17.2439 10.8858L17.4422 10.7657L20.6553 10.7654C23.7757 10.7652 23.8742 10.7681 24.0687 10.8674ZM24.4736 17.6197V21.4278H20.666H16.8584V17.6197V13.8116H20.666H24.4736V17.6197ZM15.3354 16.0965V16.8581H8.7298H2.12422L1.9217 16.7443C1.61953 16.5744 1.52658 16.3508 1.52658 15.7939V15.3349H8.43098H15.3354V16.0965ZM13.6989 19.118C13.9009 19.5232 14.0662 19.8659 14.0662 19.8796C14.0662 19.8933 12.9011 19.9046 11.477 19.9046C10.053 19.9046 8.88789 19.8933 8.88789 19.8796C8.88789 19.8659 9.05314 19.5232 9.25514 19.118L9.6224 18.3813H11.477H13.3317L13.6989 19.118ZM15.3331 18.6479L15.3308 18.9145L15.2085 18.686C15.0541 18.3977 15.0541 18.3813 15.2085 18.3813C15.328 18.3813 15.3352 18.3968 15.3331 18.6479ZM24.4736 23.41C24.4736 23.9756 24.3718 24.2174 24.0687 24.372C23.8742 24.4713 23.7754 24.4743 20.6622 24.4743H17.456L17.2535 24.3604C16.9514 24.1906 16.8584 23.967 16.8584 23.41V22.951H20.666H24.4736V23.41Z" fill="#474747"/>
</svg>
