<svg width="20" height="20" viewBox="0 0 20 20" fill="none" xmlns="http://www.w3.org/2000/svg">
<path fill-rule="evenodd" clip-rule="evenodd" d="M9.9987 0.835938C4.9362 0.835938 0.832031 4.9401 0.832031 10.0026C0.832031 15.0651 4.9362 19.1693 9.9987 19.1693C15.0612 19.1693 19.1654 15.0651 19.1654 10.0026C19.1654 4.9401 15.0612 0.835938 9.9987 0.835938ZM13.0879 8.09177C13.2397 7.9346 13.3237 7.7241 13.3218 7.5056C13.3199 7.28711 13.2322 7.07809 13.0777 6.92359C12.9232 6.76908 12.7142 6.68144 12.4957 6.67954C12.2772 6.67764 12.0667 6.76164 11.9095 6.91344L9.9987 8.82427L8.08786 6.91344C8.01099 6.83385 7.91904 6.77036 7.81737 6.72669C7.7157 6.68301 7.60635 6.66002 7.4957 6.65906C7.38505 6.6581 7.27532 6.67918 7.1729 6.72109C7.07049 6.76299 6.97745 6.82486 6.8992 6.90311C6.82096 6.98135 6.75908 7.07439 6.71718 7.17681C6.67528 7.27922 6.65419 7.38895 6.65516 7.4996C6.65612 7.61025 6.6791 7.7196 6.72278 7.82127C6.76645 7.92294 6.82994 8.0149 6.90953 8.09177L8.82036 10.0026L6.90953 11.9134C6.82994 11.9903 6.76645 12.0823 6.72278 12.1839C6.6791 12.2856 6.65612 12.395 6.65516 12.5056C6.65419 12.6163 6.67528 12.726 6.71718 12.8284C6.75908 12.9308 6.82096 13.0239 6.8992 13.1021C6.97745 13.1803 7.07049 13.2422 7.1729 13.2841C7.27532 13.326 7.38505 13.3471 7.4957 13.3461C7.60635 13.3452 7.7157 13.3222 7.81737 13.2785C7.91904 13.2348 8.01099 13.1714 8.08786 13.0918L9.9987 11.1809L11.9095 13.0918C12.0667 13.2436 12.2772 13.3276 12.4957 13.3257C12.7142 13.3238 12.9232 13.2361 13.0777 13.0816C13.2322 12.9271 13.3199 12.7181 13.3218 12.4996C13.3237 12.2811 13.2397 12.0706 13.0879 11.9134L11.177 10.0026L13.0879 8.09177Z" fill="#F26222"/>
</svg>
