<svg width="80" height="71" viewBox="0 0 80 71" fill="none" xmlns="http://www.w3.org/2000/svg">
<path fill-rule="evenodd" clip-rule="evenodd" d="M68.6277 0.392934C68.1999 0.60896 67.6725 1.05289 67.4556 1.37928C67.0879 1.93253 67.0612 2.15921 67.0612 4.72935V7.48582L64.1919 7.54136C61.0623 7.60178 60.8443 7.66709 59.9993 8.79909C59.4944 9.47529 59.4944 11.1319 59.9993 11.8081C60.8443 12.9401 61.0623 13.0054 64.1919 13.0658L67.0612 13.1214V15.8778C67.0612 18.445 67.0883 18.6753 67.4543 19.2279C68.0198 20.0814 69.2915 20.6741 70.2201 20.5172C71.1439 20.3611 72.2293 19.4067 72.4706 18.5381C72.5679 18.1872 72.648 16.8251 72.6486 15.5111L72.6496 13.1219L75.4316 13.0662C78.5124 13.0045 78.7607 12.923 79.5914 11.7024C80.3803 10.5434 79.9957 8.91889 78.706 7.96206C78.2638 7.63391 77.9308 7.59113 75.4316 7.54101L72.6496 7.4853L72.6486 5.09609C72.648 3.78212 72.5703 2.42833 72.4757 2.08796C72.1786 1.01866 70.8124 0 69.6752 0C69.5269 0 69.0556 0.176907 68.6277 0.392934ZM27.5808 2.15974C27.1418 2.27814 26.4301 2.58166 25.9991 2.83419C24.5477 3.68484 23.879 4.63731 21.7595 8.87349C20.6575 11.0757 19.6268 12.9272 19.4689 12.9878C19.3112 13.0482 16.9632 13.0978 14.2513 13.0978C11.4627 13.0978 8.8702 13.18 8.28429 13.2871C4.55299 13.9689 1.22301 17.115 0.26635 20.8622C0.0360035 21.7643 0.000552253 24.5783 0.000552253 41.9681C0.000552253 64.2659 -0.0633649 63.001 1.18407 65.3805C2.41229 67.7232 4.46131 69.4485 7.07336 70.339L8.47046 70.8154H39.8178C65.5819 70.8154 71.3363 70.7733 72.1257 70.5791C75.7858 69.6785 78.8716 66.6077 79.716 63.026C79.9409 62.0713 79.9797 59.4617 79.9818 45.0828C79.9842 29.9166 79.9564 28.1978 79.7009 27.6592C79.2841 26.7808 78.5211 26.3126 77.3762 26.2326C76.2337 26.1528 75.437 26.5805 74.842 27.5932C74.4885 28.195 74.4821 28.4498 74.396 45.1575L74.3087 62.1111L73.7797 62.9705C73.14 64.0098 71.9233 64.867 70.7228 65.1246C69.4782 65.3915 10.5067 65.3915 9.26208 65.1246C8.06163 64.867 6.84493 64.0098 6.20524 62.9705L5.67626 62.1111L5.62963 42.2278L5.58318 22.3445L5.9562 21.4772C6.1614 21.0003 6.64288 20.3267 7.02621 19.9804C8.34943 18.785 8.36235 18.7829 14.8491 18.6862L20.7038 18.5989L21.856 18.0313C23.6277 17.1586 24.1864 16.4162 26.3833 12.0166C27.4533 9.87381 28.4505 7.98319 28.5993 7.81501C28.8508 7.53088 29.5457 7.5094 38.4548 7.5094C47.6445 7.5094 48.0675 7.49525 48.7137 7.16554C49.0844 6.9764 49.5678 6.53021 49.7882 6.17377C50.6221 4.82435 50.1151 2.97983 48.7137 2.26487C48.0659 1.93446 47.6559 1.92153 38.2094 1.93271C31.0009 1.94144 28.1662 2.00204 27.5808 2.15974ZM37.8095 22.553C33.8934 23.0504 30.3691 24.7959 27.4855 27.6662C25.2866 29.8547 23.918 32.182 22.936 35.4017C22.508 36.8051 22.4671 37.196 22.4556 39.9919C22.4447 42.6715 22.4931 43.2309 22.8489 44.5325C23.6733 47.5497 25.0881 50.025 27.3236 52.3611C29.6241 54.7652 32.3463 56.3659 35.6246 57.2424C37.9407 57.8616 41.768 57.8969 44.0627 57.3201C47.4746 56.4625 50.2906 54.8385 52.6612 52.3613C54.9131 50.0079 56.3464 47.49 57.1176 44.5325C57.6886 42.3423 57.7777 38.877 57.3194 36.6738C56.5826 33.1315 55.0382 30.2269 52.5749 27.7511C49.5643 24.7251 46.1793 23.0593 42.0008 22.5472C40.2287 22.33 39.558 22.3309 37.8095 22.553ZM43.0486 28.3974C44.555 28.7804 46.4141 29.7419 47.6983 30.8022C52.4116 34.6932 53.4421 41.6765 50.0549 46.7715C47.8578 50.0763 43.9029 52.2165 39.9925 52.2165C34.9467 52.2165 30.1724 48.7856 28.5651 44.0044C27.9135 42.0664 27.7609 39.428 28.1889 37.5042C29.2795 32.6023 33.2382 28.9349 38.3334 28.1061C39.4692 27.9213 41.7247 28.0607 43.0486 28.3974Z" fill="#F26222"/>
</svg>
