<svg width="47" height="41" viewBox="0 0 47 41" fill="none" xmlns="http://www.w3.org/2000/svg">
<path fill-rule="evenodd" clip-rule="evenodd" d="M39.9609 0.227497C39.7149 0.35257 39.4117 0.609591 39.2869 0.798565C39.0756 1.11888 39.0602 1.25012 39.0602 2.73815V4.33407L37.4104 4.36622C35.6108 4.40121 35.4855 4.43902 34.9996 5.09441C34.7093 5.48591 34.7093 6.44504 34.9996 6.83653C35.4855 7.49193 35.6108 7.52974 37.4104 7.56473L39.0602 7.59688V9.1928C39.0602 10.6791 39.0758 10.8125 39.2862 11.1324C39.6114 11.6265 40.3426 11.9697 40.8765 11.8789C41.4077 11.7885 42.0318 11.2359 42.1706 10.733C42.2265 10.5299 42.2726 9.74122 42.2729 8.98047L42.2735 7.59718L43.8732 7.56493C45.6446 7.52924 45.7874 7.48202 46.2651 6.77536C46.7187 6.1043 46.4975 5.16378 45.756 4.6098C45.5017 4.41981 45.3102 4.39504 43.8732 4.36602L42.2735 4.33377L42.2729 2.95048C42.2726 2.18973 42.2279 1.40593 42.1735 1.20887C42.0027 0.589773 41.2172 0 40.5632 0C40.478 0 40.207 0.102424 39.9609 0.227497ZM16.359 1.25042C16.1065 1.31898 15.6973 1.4947 15.4495 1.64091C14.6149 2.13342 14.2304 2.68487 13.0117 5.13749C12.3781 6.41248 11.7854 7.48445 11.6946 7.51953C11.604 7.55452 10.2539 7.58323 8.69449 7.58323C7.09105 7.58323 5.60036 7.63085 5.26347 7.69283C3.11797 8.08757 1.20323 9.90906 0.653151 12.0786C0.520702 12.6009 0.500318 14.2301 0.500318 24.2983C0.500318 37.2081 0.463565 36.4757 1.18084 37.8534C1.88707 39.2098 3.06525 40.2086 4.56718 40.7242L5.37051 41H23.3953C38.2096 41 41.5184 40.9756 41.9723 40.8632C44.0768 40.3418 45.8512 38.5639 46.3367 36.4902C46.466 35.9374 46.4883 34.4266 46.4895 26.1016C46.4909 17.3208 46.475 16.3257 46.328 16.0139C46.0884 15.5053 45.6496 15.2342 44.9913 15.1879C44.3344 15.1417 43.8763 15.3893 43.5342 15.9756C43.3309 16.3241 43.3272 16.4716 43.2777 26.1449L43.2275 35.9605L42.9233 36.458C42.5555 37.0598 41.8559 37.5561 41.1656 37.7052C40.45 37.8597 6.54137 37.8597 5.8257 37.7052C5.13544 37.5561 4.43584 37.0598 4.06801 36.458L3.76385 35.9605L3.73704 24.4486L3.71033 12.9368L3.92482 12.4347C4.04281 12.1585 4.31965 11.7686 4.54007 11.5681C5.30092 10.876 5.30835 10.8748 9.03822 10.8187L12.4047 10.7682L13.0672 10.4396C14.0859 9.93434 14.4072 9.50452 15.6704 6.95726C16.2857 5.71664 16.859 4.62203 16.9446 4.52466C17.0892 4.36016 17.4888 4.34772 22.6115 4.34772C27.8956 4.34772 28.1388 4.33953 28.5104 4.14863C28.7235 4.03913 29.0015 3.7808 29.1282 3.57443C29.6077 2.79316 29.3162 1.72524 28.5104 1.31129C28.1379 1.11999 27.9021 1.11251 22.4704 1.11898C18.3255 1.12404 16.6956 1.15912 16.359 1.25042ZM22.2405 13.0575C19.9887 13.3455 17.9622 14.3561 16.3041 16.0179C15.0398 17.285 14.2528 18.6324 13.6882 20.4966C13.4421 21.3091 13.4186 21.5354 13.412 23.1541C13.4057 24.7056 13.4335 25.0294 13.6381 25.783C14.1122 27.5299 14.9256 28.963 16.2111 30.3155C17.5338 31.7074 19.0991 32.6342 20.9842 33.1417C22.3159 33.5002 24.5166 33.5206 25.8361 33.1866C27.7979 32.6901 29.4171 31.7499 30.7802 30.3156C32.075 28.9531 32.8992 27.4953 33.3426 25.783C33.671 24.515 33.7222 22.5086 33.4587 21.233C33.035 19.1821 32.1469 17.5005 30.7306 16.067C28.9995 14.3151 27.0531 13.3506 24.6505 13.0542C23.6315 12.9284 23.2458 12.9289 22.2405 13.0575ZM25.253 16.4413C26.1191 16.663 27.1881 17.2197 27.9265 17.8335C30.6367 20.0864 31.2292 24.1294 29.2816 27.0793C28.0182 28.9927 25.7442 30.2318 23.4957 30.2318C20.5943 30.2318 17.8492 28.2454 16.9249 25.4772C16.5503 24.3552 16.4625 22.8276 16.7086 21.7138C17.3357 18.8758 19.612 16.7525 22.5417 16.2726C23.1948 16.1656 24.4917 16.2463 25.253 16.4413Z" fill="#F26222"/>
</svg>
