<svg width="30" height="19" viewBox="0 0 30 19" fill="none" xmlns="http://www.w3.org/2000/svg">
<path fill-rule="evenodd" clip-rule="evenodd" d="M3.54194 0.0165682C3.47751 0.0295186 3.27981 0.0680793 3.10262 0.102227C2.92543 0.136374 2.53179 0.282778 2.2279 0.427497C1.77018 0.645563 1.5934 0.771989 1.19736 1.16462C0.808005 1.55064 0.668535 1.7406 0.4453 2.18898C-0.0195041 3.12246 0.000118964 2.80032 0.000118964 9.50497C0.000118964 16.2096 -0.0195041 15.8875 0.4453 16.821C0.668535 17.2694 0.808005 17.4593 1.19736 17.8453C1.59439 18.2389 1.76907 18.3637 2.2279 18.5814C2.53179 18.7257 2.92543 18.8788 3.10262 18.9218C3.36481 18.9854 4.94075 19 11.5669 19H19.709L20.1581 18.848C20.8343 18.6192 21.3554 18.303 21.8161 17.8421C22.6307 17.0272 22.947 16.2473 23.0089 14.9012L23.0479 14.0544L25.4115 15.4064C27.2129 16.4367 27.8518 16.7742 28.0975 16.8247C28.8561 16.9808 29.682 16.4912 29.9027 15.7544C30.0324 15.321 30.0324 3.68891 29.9027 3.25556C29.6689 2.47529 28.7645 1.98149 27.9886 2.21059C27.8157 2.26163 26.6395 2.89638 25.3617 3.62828L23.0479 4.95352L23.0102 4.10779C22.9798 3.42862 22.9426 3.17054 22.8213 2.79748C22.4109 1.536 21.4717 0.606537 20.1581 0.161926L19.709 0.00994788L11.6841 0.00146892C7.27033 -0.00317696 3.60638 0.0035597 3.54194 0.0165682ZM19.4332 1.8996C20.1057 2.05338 20.627 2.47325 20.9283 3.10382L21.1149 3.49436V9.50497V15.5156L20.9303 15.9018C20.8288 16.1143 20.6351 16.3978 20.4998 16.5319C20.3646 16.666 20.0786 16.858 19.8643 16.9587L19.4747 17.1416L11.6603 17.1572C4.75348 17.171 3.8046 17.1623 3.49081 17.0826C2.84348 16.9182 2.32437 16.4821 2.03471 15.8594L1.9018 15.5737V9.50497V3.43629L2.03471 3.15057C2.21601 2.76083 2.51527 2.41228 2.85332 2.19723C3.42971 1.83055 3.02419 1.84716 11.4791 1.84449C16.3625 1.84298 19.2739 1.86313 19.4332 1.8996ZM28.1007 12.148L28.0855 14.7911L25.5667 13.3493L23.0479 11.9075V9.50515V7.10282L25.5667 5.65998L28.0855 4.21709L28.1007 6.86106C28.1091 8.31522 28.1091 10.6943 28.1007 12.148ZM11.0881 4.77517C10.5896 5.02768 10.5475 5.20364 10.5444 7.04881L10.5418 8.57069L8.88236 8.58776L7.22289 8.60483L7.01312 8.76355C6.46614 9.17744 6.53397 10.0093 7.13977 10.3157C7.35843 10.4263 7.47922 10.4342 8.95452 10.4342H10.535L10.5531 12.0457C10.573 13.8308 10.5849 13.8916 10.9656 14.1608C11.2324 14.3494 11.7802 14.3524 12.043 14.1665C12.398 13.9154 12.4163 13.8112 12.4163 12.0369V10.4342L14.0125 10.4329C15.4419 10.4317 15.6338 10.4203 15.8486 10.3236C16.5208 10.021 16.5403 9.07111 15.8818 8.70426C15.6594 8.58033 15.5945 8.5758 14.0338 8.5758H12.4163V6.97302C12.4163 5.20294 12.3974 5.09388 12.0483 4.84742C11.8152 4.68284 11.3408 4.64712 11.0881 4.77517Z" fill="#F26222"/>
</svg>
