<svg width="30" height="27" viewBox="0 0 30 27" fill="none" xmlns="http://www.w3.org/2000/svg">
<path fill-rule="evenodd" clip-rule="evenodd" d="M25.7354 0.14735C25.5749 0.22836 25.3772 0.394833 25.2958 0.517231C25.158 0.7247 25.148 0.809705 25.148 1.77351V2.80718L24.072 2.82801C22.8984 2.85067 22.8166 2.87516 22.4997 3.29966C22.3104 3.55323 22.3104 4.17446 22.4997 4.42803C22.8166 4.85253 22.8984 4.87703 24.072 4.89968L25.148 4.92051V5.95419C25.148 6.91688 25.1581 7.00326 25.2954 7.21046C25.5074 7.53051 25.9843 7.75278 26.3325 7.69397C26.679 7.63542 27.086 7.27752 27.1765 6.95178C27.213 6.82021 27.243 6.3094 27.2432 5.81666L27.2436 4.92071L28.2868 4.89982C29.4421 4.8767 29.5353 4.84612 29.8468 4.38841C30.1426 3.95376 29.9984 3.34459 29.5148 2.98577C29.3489 2.86272 29.2241 2.84667 28.2868 2.82788L27.2436 2.80699L27.2432 1.91103C27.243 1.41829 27.2139 0.910624 27.1784 0.782986C27.067 0.381997 26.5547 0 26.1282 0C26.0726 0 25.8958 0.0663403 25.7354 0.14735ZM10.3428 0.809901C10.1782 0.854303 9.9113 0.968123 9.74968 1.06282C9.2054 1.38182 8.95464 1.73899 8.1598 3.32756C7.74657 4.15337 7.36005 4.84769 7.30085 4.87041C7.24171 4.89307 6.36121 4.91167 5.34424 4.91167C4.29851 4.91167 3.32632 4.94251 3.10661 4.98266C1.70737 5.23833 0.45863 6.41811 0.0998812 7.82331C0.0135013 8.16162 0.000207095 9.21685 0.000207095 15.738C0.000207095 24.0997 -0.0237618 23.6254 0.444026 24.5177C0.904609 25.3962 1.67299 26.0432 2.65251 26.3771L3.17642 26.5558H14.9317C24.5932 26.5558 26.7511 26.54 27.0471 26.4672C28.4197 26.1294 29.5768 24.9779 29.8935 23.6348C29.9778 23.2767 29.9924 22.2981 29.9932 16.906C29.9941 11.2187 29.9837 10.5742 29.8879 10.3722C29.7315 10.0428 29.4454 9.86722 29.0161 9.83722C28.5876 9.80729 28.2889 9.96768 28.0658 10.3474C27.9332 10.5731 27.9308 10.6687 27.8985 16.9341L27.8658 23.2917L27.6674 23.6139C27.4275 24.0037 26.9712 24.3251 26.5211 24.4217C26.0543 24.5218 3.94002 24.5218 3.47328 24.4217C3.02311 24.3251 2.56685 24.0037 2.32696 23.6139L2.1286 23.2917L2.11111 15.8354L2.09369 8.37918L2.23358 8.05396C2.31053 7.87511 2.49108 7.62252 2.63483 7.49265C3.13104 7.04438 3.13588 7.0436 5.5684 7.00732L7.76392 6.97457L8.19602 6.76173C8.8604 6.43448 9.0699 6.15609 9.89375 4.50623C10.295 3.70268 10.6689 2.9937 10.7247 2.93063C10.819 2.82408 11.0796 2.81602 14.4205 2.81602C17.8667 2.81602 18.0253 2.81072 18.2676 2.68708C18.4067 2.61615 18.5879 2.44883 18.6706 2.31516C18.9833 1.80913 18.7932 1.11744 18.2676 0.849326C18.0247 0.725421 17.871 0.720575 14.3285 0.724766C11.6253 0.728041 10.5623 0.750765 10.3428 0.809901ZM14.1786 8.45737C12.71 8.64388 11.3884 9.29845 10.3071 10.3748C9.48248 11.1955 8.96924 12.0682 8.601 13.2757C8.44049 13.8019 8.42516 13.9485 8.42084 14.997C8.41678 16.0018 8.43492 16.2116 8.56832 16.6997C8.87749 17.8311 9.40802 18.7594 10.2463 19.6354C11.109 20.5369 12.1299 21.1372 13.3592 21.4659C14.2277 21.6981 15.663 21.7113 16.5235 21.495C17.803 21.1734 18.859 20.5644 19.7479 19.6355C20.5924 18.753 21.1299 17.8087 21.4191 16.6997C21.6332 15.8784 21.6666 14.5789 21.4948 13.7527C21.2185 12.4243 20.6393 11.3351 19.7156 10.4066C18.5866 9.27192 17.3173 8.64722 15.7503 8.45521C15.0858 8.37374 14.8342 8.37407 14.1786 8.45737ZM16.1432 10.649C16.7081 10.7926 17.4053 11.1532 17.8869 11.5508C19.6544 13.01 20.0408 15.6287 18.7706 17.5393C17.9467 18.7786 16.4636 19.5812 14.9972 19.5812C13.105 19.5812 11.3147 18.2946 10.7119 16.5016C10.4676 15.7749 10.4103 14.7855 10.5708 14.0641C10.9798 12.2259 12.4643 10.8506 14.375 10.5398C14.801 10.4705 15.6468 10.5228 16.1432 10.649Z" fill="#F26222"/>
</svg>
