<svg width="47" height="29" viewBox="0 0 47 29" fill="none" xmlns="http://www.w3.org/2000/svg">
<path fill-rule="evenodd" clip-rule="evenodd" d="M5.93098 0.0252883C5.83218 0.0450547 5.52905 0.103911 5.25735 0.15603C4.98565 0.20815 4.38208 0.431608 3.91611 0.652495C3.21428 0.985333 2.94321 1.1783 2.33596 1.77758C1.73894 2.36677 1.52509 2.6567 1.18279 3.34108C0.470094 4.76586 0.500182 4.27418 0.500182 14.5076C0.500182 24.741 0.470094 24.2493 1.18279 25.6741C1.52509 26.3585 1.73894 26.6484 2.33596 27.2376C2.94474 27.8384 3.21257 28.0288 3.91611 28.3611C4.38208 28.5813 4.98565 28.815 5.25735 28.8807C5.65937 28.9778 8.07581 29 18.2359 29H30.7205L31.4092 28.768C32.4459 28.4187 33.245 27.9362 33.9513 27.2327C35.2004 25.9889 35.6854 24.7985 35.7804 22.7439L35.8401 21.4514L39.4643 23.515C42.2264 25.0877 43.2061 25.6027 43.5828 25.6799C44.746 25.9181 46.0124 25.1707 46.3508 24.0462C46.5497 23.3847 46.5497 5.63044 46.3508 4.96902C45.9923 3.77807 44.6056 3.02437 43.4159 3.37405C43.1507 3.45197 41.3473 4.42079 39.3879 5.5379L35.8401 7.56063L35.7823 6.26979C35.7357 5.23316 35.6787 4.83925 35.4926 4.26984C34.8634 2.34443 33.4232 0.925767 31.4092 0.24715L30.7205 0.0151836L18.4156 0.00224204C11.6478 -0.00484904 6.02978 0.00543322 5.93098 0.0252883ZM30.2976 2.89939C31.3287 3.13411 32.1281 3.77497 32.59 4.7374L32.8761 5.3335V14.5076V23.6817L32.5931 24.2712C32.4375 24.5955 32.1404 25.0282 31.9331 25.2329C31.7257 25.4375 31.2872 25.7307 30.9586 25.8843L30.3613 26.1636L18.3791 26.1873C7.78867 26.2083 6.33372 26.195 5.85257 26.0734C4.86 25.8225 4.06404 25.1569 3.61989 24.2064L3.4161 23.7703V14.5076V5.24486L3.61989 4.80876C3.89788 4.2139 4.35675 3.6819 4.87509 3.35367C5.75889 2.794 5.13708 2.81935 18.1012 2.81528C25.5891 2.81297 30.0533 2.84373 30.2976 2.89939ZM43.5877 18.5417L43.5644 22.5758L39.7022 20.3752L35.8401 18.1746V14.5079V10.8411L39.7022 8.63892L43.5644 6.43661L43.5877 10.4721C43.6006 12.6917 43.6006 16.3229 43.5877 18.5417ZM17.5017 7.28842C16.7373 7.67382 16.6728 7.9424 16.6681 10.7587L16.6641 13.0816L14.1196 13.1076L11.5751 13.1337L11.2535 13.3759C10.4147 14.0077 10.5188 15.2773 11.4476 15.745C11.7829 15.9138 11.9681 15.9258 14.2303 15.9258H16.6537L16.6814 18.3855C16.712 21.1101 16.7302 21.203 17.314 21.6138C17.723 21.9017 18.563 21.9063 18.9659 21.6226C19.5103 21.2393 19.5383 21.0803 19.5383 18.3721V15.9258L21.9858 15.9239C24.1775 15.9221 24.4718 15.9047 24.8011 15.757C25.8319 15.2951 25.8618 13.8454 24.8521 13.2854C24.5111 13.0963 24.4115 13.0894 22.0185 13.0894H19.5383V10.643C19.5383 7.94133 19.5094 7.77487 18.9741 7.39869C18.6166 7.14749 17.8892 7.09297 17.5017 7.28842Z" fill="#F26222"/>
</svg>
