<svg width="80" height="51" viewBox="0 0 80 51" fill="none" xmlns="http://www.w3.org/2000/svg">
<path fill-rule="evenodd" clip-rule="evenodd" d="M9.44518 0.0441818C9.27336 0.0787162 8.74617 0.181545 8.27365 0.272604C7.80114 0.363664 6.75145 0.754074 5.94106 1.13999C4.72048 1.7215 4.24906 2.05864 3.19297 3.10567C2.15468 4.13504 1.78276 4.6416 1.18747 5.83729C-0.052011 8.32656 0.000317237 7.46753 0.000317237 25.3466C0.000317237 43.2257 -0.052011 42.3666 1.18747 44.8559C1.78276 46.0516 2.15468 46.5582 3.19297 47.5875C4.25172 48.6372 4.71752 48.9698 5.94106 49.5504C6.75145 49.9351 7.80114 50.3435 8.27365 50.4582C8.97282 50.6278 13.1753 50.6667 30.8451 50.6667H52.5574L53.7551 50.2614C55.5581 49.6511 56.9479 48.808 58.1763 47.579C60.3486 45.4058 61.1921 43.3262 61.3572 39.7365L61.4611 37.4784L67.764 41.0838C72.5676 43.8313 74.2715 44.7311 74.9266 44.866C76.9496 45.2822 79.1519 43.9764 79.7405 42.0117C80.0865 40.8561 80.0865 9.83709 79.7405 8.6815C79.1171 6.60076 76.7055 5.28397 74.6364 5.8949C74.1751 6.03102 71.0387 7.72367 67.6311 9.67541L61.4611 13.2094L61.3605 10.9541C61.2795 9.14299 61.1804 8.45478 60.8567 7.45994C59.7625 4.09601 57.2578 1.61743 53.7551 0.431803L52.5574 0.0265277L31.1575 0.00391713C19.3876 -0.00847189 9.61701 0.00949252 9.44518 0.0441818ZM51.8219 5.06561C53.6151 5.47569 55.0053 6.59534 55.8087 8.27684L56.3063 9.3183V25.3466V41.3749L55.8141 42.4049C55.5434 42.9714 55.0269 43.7274 54.6662 44.085C54.3055 44.4426 53.5429 44.9547 52.9715 45.2231L51.9326 45.7111L31.0941 45.7526C12.6759 45.7893 10.1456 45.766 9.30882 45.5536C7.58261 45.1151 6.19833 43.9523 5.4259 42.2917L5.07147 41.5298V25.3466V9.16343L5.4259 8.40151C5.90935 7.36223 6.7074 6.43274 7.60885 5.85928C9.1459 4.88148 8.0645 4.92577 30.6108 4.91864C43.6332 4.91462 51.397 4.96836 51.8219 5.06561ZM74.9352 32.3947L74.8946 39.4428L68.1778 35.5981L61.4611 31.7533V25.3471V18.9409L68.1778 15.0933L74.8946 11.2456L74.9352 18.2962C74.9575 22.1739 74.9575 28.5182 74.9352 32.3947ZM29.5681 12.7338C28.2388 13.4071 28.1267 13.8764 28.1184 18.7968L28.1115 22.8552L23.6863 22.9007L19.261 22.9462L18.7017 23.3695C17.243 24.4732 17.4239 26.6914 19.0394 27.5085C19.6225 27.8033 19.9446 27.8244 23.8787 27.8244H28.0934L28.1415 32.1218C28.1948 36.882 28.2265 37.0443 29.2417 37.7621C29.953 38.2651 31.4138 38.273 32.1146 37.7774C33.0613 37.1078 33.1101 36.83 33.1101 32.0985V27.8244L37.3666 27.821C41.1783 27.8179 41.69 27.7875 42.2628 27.5295C44.0554 26.7226 44.1074 24.1896 42.3516 23.2114C41.7584 22.8809 41.5852 22.8688 37.4235 22.8688H33.1101V18.5947C33.1101 13.8745 33.0598 13.5837 32.1288 12.9264C31.5071 12.4876 30.242 12.3923 29.5681 12.7338Z" fill="#F26222"/>
</svg>
