<svg width="20" height="20" viewBox="0 0 20 20" fill="none" xmlns="http://www.w3.org/2000/svg">
<path d="M9.52447 3.08156C9.67415 2.6209 10.3259 2.6209 10.4755 3.08156L11.5451 6.37336C11.7459 6.99139 12.3218 7.40983 12.9717 7.40983H16.4329C16.9172 7.40983 17.1186 8.02964 16.7268 8.31434L13.9266 10.3488C13.4009 10.7307 13.1809 11.4078 13.3817 12.0258L14.4513 15.3176C14.6009 15.7783 14.0737 16.1613 13.6818 15.8766L10.8817 13.8422C10.3559 13.4602 9.64405 13.4602 9.11832 13.8422L6.31815 15.8766C5.9263 16.1613 5.39906 15.7783 5.54873 15.3176L6.6183 12.0258C6.81911 11.4078 6.59913 10.7307 6.07339 10.3488L3.27323 8.31434C2.88137 8.02964 3.08276 7.40983 3.56712 7.40983H7.02832C7.67816 7.40983 8.25409 6.99139 8.4549 6.37336L9.52447 3.08156Z" stroke="#F1C644"/>
<path fill-rule="evenodd" clip-rule="evenodd" d="M10.0006 2.23438V14.054C9.7945 14.0542 9.58848 14.1178 9.41342 14.245L6.61325 16.2795C5.82954 16.8489 4.77506 16.0827 5.07441 15.1614L6.14398 11.8696C6.27785 11.4576 6.13119 11.0062 5.78071 10.7516L2.98054 8.71715C2.19682 8.14775 2.5996 6.90814 3.56832 6.90814H7.02952C7.46275 6.90814 7.8467 6.62918 7.98058 6.21715L9.05015 2.92536C9.19974 2.46495 9.60008 2.23462 10.0006 2.23438Z" fill="#F1C644"/>
</svg>
