<svg width="20" height="20" viewBox="0 0 20 20" fill="none" xmlns="http://www.w3.org/2000/svg">
<path d="M13.9592 2.96797V1.66797C13.9592 1.3263 13.6758 1.04297 13.3342 1.04297C12.9925 1.04297 12.7092 1.3263 12.7092 1.66797V2.91797H7.29251V1.66797C7.29251 1.3263 7.00918 1.04297 6.66751 1.04297C6.32584 1.04297 6.04251 1.3263 6.04251 1.66797V2.96797C3.79251 3.1763 2.70084 4.51797 2.53418 6.50964C2.51751 6.7513 2.71751 6.9513 2.95084 6.9513H17.0508C17.2925 6.9513 17.4925 6.74297 17.4675 6.50964C17.3008 4.51797 16.2092 3.1763 13.9592 2.96797Z" fill="#999999"/>
<path d="M16.6667 8.19922H3.33333C2.875 8.19922 2.5 8.57422 2.5 9.03255V14.1659C2.5 16.6659 3.75 18.3326 6.66667 18.3326H13.3333C16.25 18.3326 17.5 16.6659 17.5 14.1659V9.03255C17.5 8.57422 17.125 8.19922 16.6667 8.19922ZM7.675 15.1742C7.63333 15.2076 7.59167 15.2492 7.55 15.2742C7.5 15.3076 7.45 15.3326 7.4 15.3492C7.35 15.3742 7.3 15.3909 7.25 15.3992C7.19167 15.4076 7.14167 15.4159 7.08333 15.4159C6.975 15.4159 6.86667 15.3909 6.76667 15.3492C6.65833 15.3076 6.575 15.2492 6.49167 15.1742C6.34167 15.0159 6.25 14.7992 6.25 14.5826C6.25 14.3659 6.34167 14.1492 6.49167 13.9909C6.575 13.9159 6.65833 13.8576 6.76667 13.8159C6.91667 13.7492 7.08333 13.7326 7.25 13.7659C7.3 13.7742 7.35 13.7909 7.4 13.8159C7.45 13.8326 7.5 13.8576 7.55 13.8909C7.59167 13.9242 7.63333 13.9576 7.675 13.9909C7.825 14.1492 7.91667 14.3659 7.91667 14.5826C7.91667 14.7992 7.825 15.0159 7.675 15.1742ZM7.675 12.2576C7.51667 12.4076 7.3 12.4992 7.08333 12.4992C6.86667 12.4992 6.65 12.4076 6.49167 12.2576C6.34167 12.0992 6.25 11.8826 6.25 11.6659C6.25 11.4492 6.34167 11.2326 6.49167 11.0742C6.725 10.8409 7.09167 10.7659 7.4 10.8992C7.50833 10.9409 7.6 10.9992 7.675 11.0742C7.825 11.2326 7.91667 11.4492 7.91667 11.6659C7.91667 11.8826 7.825 12.0992 7.675 12.2576ZM10.5917 15.1742C10.4333 15.3242 10.2167 15.4159 10 15.4159C9.78333 15.4159 9.56667 15.3242 9.40833 15.1742C9.25833 15.0159 9.16667 14.7992 9.16667 14.5826C9.16667 14.3659 9.25833 14.1492 9.40833 13.9909C9.71667 13.6826 10.2833 13.6826 10.5917 13.9909C10.7417 14.1492 10.8333 14.3659 10.8333 14.5826C10.8333 14.7992 10.7417 15.0159 10.5917 15.1742ZM10.5917 12.2576C10.55 12.2909 10.5083 12.3242 10.4667 12.3576C10.4167 12.3909 10.3667 12.4159 10.3167 12.4326C10.2667 12.4576 10.2167 12.4742 10.1667 12.4826C10.1083 12.4909 10.0583 12.4992 10 12.4992C9.78333 12.4992 9.56667 12.4076 9.40833 12.2576C9.25833 12.0992 9.16667 11.8826 9.16667 11.6659C9.16667 11.4492 9.25833 11.2326 9.40833 11.0742C9.48333 10.9992 9.575 10.9409 9.68333 10.8992C9.99167 10.7659 10.3583 10.8409 10.5917 11.0742C10.7417 11.2326 10.8333 11.4492 10.8333 11.6659C10.8333 11.8826 10.7417 12.0992 10.5917 12.2576ZM13.5083 15.1742C13.35 15.3242 13.1333 15.4159 12.9167 15.4159C12.7 15.4159 12.4833 15.3242 12.325 15.1742C12.175 15.0159 12.0833 14.7992 12.0833 14.5826C12.0833 14.3659 12.175 14.1492 12.325 13.9909C12.6333 13.6826 13.2 13.6826 13.5083 13.9909C13.6583 14.1492 13.75 14.3659 13.75 14.5826C13.75 14.7992 13.6583 15.0159 13.5083 15.1742ZM13.5083 12.2576C13.4667 12.2909 13.425 12.3242 13.3833 12.3576C13.3333 12.3909 13.2833 12.4159 13.2333 12.4326C13.1833 12.4576 13.1333 12.4742 13.0833 12.4826C13.025 12.4909 12.9667 12.4992 12.9167 12.4992C12.7 12.4992 12.4833 12.4076 12.325 12.2576C12.175 12.0992 12.0833 11.8826 12.0833 11.6659C12.0833 11.4492 12.175 11.2326 12.325 11.0742C12.4083 10.9992 12.4917 10.9409 12.6 10.8992C12.75 10.8326 12.9167 10.8159 13.0833 10.8492C13.1333 10.8576 13.1833 10.8742 13.2333 10.8992C13.2833 10.9159 13.3333 10.9409 13.3833 10.9742C13.425 11.0076 13.4667 11.0409 13.5083 11.0742C13.6583 11.2326 13.75 11.4492 13.75 11.6659C13.75 11.8826 13.6583 12.0992 13.5083 12.2576Z" fill="#999999"/>
</svg>
