<svg width="18" height="18" viewBox="0 0 18 18" fill="none" xmlns="http://www.w3.org/2000/svg">
<path d="M8.99977 15.9503C13.3853 15.9503 16.9409 12.6167 16.9409 8.50447C16.9409 4.39222 13.3853 1.05859 8.99977 1.05859C4.61426 1.05859 1.05859 4.39222 1.05859 8.50447C1.05859 10.3766 1.79613 12.0891 3.01411 13.3975C2.91782 14.4782 2.60017 15.6631 2.24878 16.5524C2.17036 16.7502 2.32223 16.9715 2.51977 16.9375C4.75918 16.5439 6.09032 15.9397 6.66903 15.6249C7.42931 15.8421 8.21292 15.9516 8.99977 15.9503Z" fill="#666666"/>
<mask id="path-2-inside-1_2091_212355" fill="white">
<path d="M5.5855 8.8586C5.5855 9.12191 5.49806 9.32816 5.3226 9.4779C5.14421 9.62594 4.89775 9.69996 4.58263 9.69996H3V9.08462H4.31094C4.46468 9.08462 4.57677 9.05976 4.6466 9.0106C4.71643 8.95974 4.75164 8.8812 4.75164 8.77384C4.75164 8.67496 4.71819 8.59755 4.65129 8.54161C4.58146 8.48793 4.46821 8.46137 4.31153 8.46137L3.24177 8.46532V7.85055H4.29157C4.45001 7.85055 4.56386 7.82682 4.63369 7.77879C4.70058 7.73245 4.73403 7.65561 4.73403 7.54825C4.73403 7.44654 4.70058 7.37082 4.63369 7.31996C4.59965 7.29228 4.55447 7.2725 4.49872 7.26007C4.44004 7.24933 4.37138 7.24368 4.29157 7.24368H3V6.62891H4.51632C4.86724 6.62891 5.13306 6.69671 5.3138 6.83232C5.49219 6.96963 5.58139 7.18266 5.58139 7.47196C5.58139 7.61718 5.54794 7.74601 5.48104 7.85846C5.41121 7.9709 5.32084 8.06979 5.20935 8.15455C5.33199 8.22744 5.42119 8.31446 5.47694 8.4156C5.54911 8.53426 5.5855 8.68174 5.5855 8.8586Z"/>
</mask>
<path d="M5.5855 8.8586C5.5855 9.12191 5.49806 9.32816 5.3226 9.4779C5.14421 9.62594 4.89775 9.69996 4.58263 9.69996H3V9.08462H4.31094C4.46468 9.08462 4.57677 9.05976 4.6466 9.0106C4.71643 8.95974 4.75164 8.8812 4.75164 8.77384C4.75164 8.67496 4.71819 8.59755 4.65129 8.54161C4.58146 8.48793 4.46821 8.46137 4.31153 8.46137L3.24177 8.46532V7.85055H4.29157C4.45001 7.85055 4.56386 7.82682 4.63369 7.77879C4.70058 7.73245 4.73403 7.65561 4.73403 7.54825C4.73403 7.44654 4.70058 7.37082 4.63369 7.31996C4.59965 7.29228 4.55447 7.2725 4.49872 7.26007C4.44004 7.24933 4.37138 7.24368 4.29157 7.24368H3V6.62891H4.51632C4.86724 6.62891 5.13306 6.69671 5.3138 6.83232C5.49219 6.96963 5.58139 7.18266 5.58139 7.47196C5.58139 7.61718 5.54794 7.74601 5.48104 7.85846C5.41121 7.9709 5.32084 8.06979 5.20935 8.15455C5.33199 8.22744 5.42119 8.31446 5.47694 8.4156C5.54911 8.53426 5.5855 8.68174 5.5855 8.8586Z" fill="white"/>
<path d="M5.3226 9.4779L5.96128 10.2475L5.97176 10.2386L5.3226 9.4779ZM3 9.69996H2V10.7H3V9.69996ZM3 9.08462V8.08462H2V9.08462H3ZM4.6466 9.0106L5.22224 9.8283L5.2288 9.82368L5.23529 9.81896L4.6466 9.0106ZM4.65129 8.54161L5.29278 7.77447L5.27703 7.7613L5.26074 7.74878L4.65129 8.54161ZM4.31153 8.46137V7.46136L4.30783 7.46138L4.31153 8.46137ZM3.24177 8.46532H2.24177V9.46903L3.24546 9.46532L3.24177 8.46532ZM3.24177 7.85055V6.85055H2.24177V7.85055H3.24177ZM4.63369 7.77879L5.20038 8.60272L5.20307 8.60086L4.63369 7.77879ZM4.63369 7.31996L4.00263 8.0957L4.0154 8.10609L4.0285 8.11605L4.63369 7.31996ZM4.49872 7.26007L4.71637 6.28404L4.6976 6.27986L4.67869 6.2764L4.49872 7.26007ZM3 7.24368H2V8.24368H3V7.24368ZM3 6.62891V5.62891H2V6.62891H3ZM5.3138 6.83232L5.92379 6.03982L5.91397 6.03245L5.3138 6.83232ZM5.48104 7.85846L6.33056 8.38602L6.33558 8.37793L6.34045 8.36974L5.48104 7.85846ZM5.20935 8.15455L4.60417 7.35846L3.42318 8.25625L4.69844 9.01418L5.20935 8.15455ZM5.47694 8.4156L4.60115 8.8983L4.61147 8.91702L4.62258 8.93528L5.47694 8.4156ZM4.5855 8.8586C4.5855 8.8793 4.58227 8.86033 4.5993 8.8202C4.61783 8.77654 4.64673 8.74004 4.67345 8.71724L5.97176 10.2386C6.40312 9.87042 6.5855 9.36782 6.5855 8.8586H4.5855ZM4.68399 8.70837C4.70882 8.68776 4.72538 8.68397 4.7164 8.68666C4.70446 8.69025 4.66372 8.69996 4.58263 8.69996V10.7C5.04754 10.7 5.54819 10.5902 5.96122 10.2474L4.68399 8.70837ZM4.58263 8.69996H3V10.7H4.58263V8.69996ZM4 9.69996V9.08462H2V9.69996H4ZM3 10.0846H4.31094V8.08462H3V10.0846ZM4.31094 10.0846C4.52838 10.0846 4.89627 10.0578 5.22224 9.8283L4.07095 8.1929C4.17436 8.1201 4.26269 8.09662 4.29458 8.08958C4.32847 8.08209 4.3378 8.08462 4.31094 8.08462V10.0846ZM5.23529 9.81896C5.62336 9.53634 5.75164 9.11894 5.75164 8.77384H3.75164C3.75164 8.71995 3.76038 8.62217 3.81162 8.50699C3.86591 8.38493 3.95231 8.27914 4.0579 8.20224L5.23529 9.81896ZM5.75164 8.77384C5.75164 8.42328 5.61896 8.04723 5.29278 7.77447L4.0098 9.30874C3.92764 9.24003 3.85596 9.14792 3.80858 9.03826C3.76267 8.93202 3.75164 8.83757 3.75164 8.77384H5.75164ZM5.26074 7.74878C4.92411 7.49001 4.53427 7.46137 4.31153 7.46137V9.46137C4.33775 9.46137 4.32416 9.46402 4.28453 9.45468C4.24583 9.44556 4.1496 9.41727 4.04184 9.33443L5.26074 7.74878ZM4.30783 7.46138L3.23807 7.46533L3.24546 9.46532L4.31522 9.46136L4.30783 7.46138ZM4.24177 8.46532V7.85055H2.24177V8.46532H4.24177ZM3.24177 8.85055H4.29157V6.85055H3.24177V8.85055ZM4.29157 8.85055C4.50005 8.85055 4.87156 8.82888 5.20038 8.60271L4.06699 6.95486C4.17401 6.88125 4.26391 6.85956 4.29087 6.85391C4.32072 6.84766 4.3251 6.85055 4.29157 6.85055V8.85055ZM5.20307 8.60086C5.62255 8.31032 5.73403 7.86796 5.73403 7.54825H3.73403C3.73403 7.50167 3.74088 7.40484 3.79203 7.28731C3.84722 7.16053 3.94007 7.04276 4.0643 6.95672L5.20307 8.60086ZM5.73403 7.54825C5.73403 7.20535 5.60626 6.80317 5.23887 6.52388L4.0285 8.11605C3.9292 8.04056 3.84643 7.93775 3.79367 7.81786C3.74352 7.70391 3.73403 7.60588 3.73403 7.54825H5.73403ZM5.26475 6.54423C5.0761 6.39076 4.87369 6.31912 4.71637 6.28404L4.28107 8.2361C4.23524 8.22588 4.12321 8.19379 4.00263 8.0957L5.26475 6.54423ZM4.67869 6.2764C4.54732 6.25236 4.4165 6.24368 4.29157 6.24368V8.24368C4.30811 8.24368 4.31846 8.24428 4.32342 8.24467C4.32844 8.24507 4.3265 8.24516 4.31875 8.24374L4.67869 6.2764ZM4.29157 6.24368H3V8.24368H4.29157V6.24368ZM4 7.24368V6.62891H2V7.24368H4ZM3 7.62891H4.51632V5.62891H3V7.62891ZM4.51632 7.62891C4.63034 7.62891 4.69837 7.64023 4.73172 7.64873C4.76362 7.65687 4.74862 7.65845 4.71364 7.6322L5.91397 6.03245C5.48787 5.71274 4.97147 5.62891 4.51632 5.62891V7.62891ZM4.70386 7.62477C4.6805 7.60679 4.65702 7.58381 4.63611 7.55643C4.61529 7.52917 4.60109 7.50287 4.59199 7.48115C4.57431 7.43889 4.58139 7.42762 4.58139 7.47196H6.58139C6.58139 6.96868 6.41554 6.41841 5.92375 6.03988L4.70386 7.62477ZM4.58139 7.47196C4.58139 7.46742 4.58197 7.45093 4.58839 7.4262C4.59497 7.40087 4.60599 7.37346 4.62163 7.34717L6.34045 8.36974C6.50923 8.08605 6.58139 7.77684 6.58139 7.47196H4.58139ZM4.63153 7.33089C4.62869 7.33547 4.62254 7.34449 4.60417 7.35846L5.81453 8.95063C6.01915 8.79508 6.19374 8.60634 6.33056 8.38602L4.63153 7.33089ZM4.69844 9.01418C4.70385 9.01739 4.64939 8.98583 4.60115 8.8983L6.35272 7.9329C6.19299 7.64308 5.96014 7.43748 5.72026 7.29491L4.69844 9.01418ZM4.62258 8.93528C4.57745 8.86109 4.5855 8.81739 4.5855 8.8586H6.5855C6.5855 8.54609 6.52078 8.20743 6.3313 7.89592L4.62258 8.93528Z" fill="white" mask="url(#path-2-inside-1_2091_212355)"/>
<mask id="path-4-inside-2_2091_212355" fill="white">
<path d="M8.74997 8.75802C8.74997 9.0801 8.6285 9.3242 8.38615 9.49033C8.14379 9.65645 7.79464 9.73895 7.3381 9.73895C6.7994 9.73895 6.40096 9.61407 6.14276 9.36432C5.88632 9.11626 5.75781 8.72694 5.75781 8.19579C5.75781 7.65956 5.89513 7.26402 6.17034 7.00919C6.44145 6.75548 6.86395 6.62891 7.43844 6.62891H8.58449L8.58214 7.24368H7.42201C7.13389 7.24368 6.92498 7.29736 6.7953 7.40416C6.73427 7.45501 6.68791 7.51943 6.65622 7.59741C6.62043 7.6799 6.60282 7.77427 6.60282 7.88106H7.63796C8.01117 7.88106 8.28991 7.95282 8.47417 8.09578C8.65784 8.24043 8.74997 8.4608 8.74997 8.75802ZM7.92198 8.79079C7.92198 8.69191 7.89557 8.61732 7.84276 8.56647C7.78994 8.52013 7.70955 8.4964 7.60099 8.4964H6.60693C6.60693 8.70604 6.66796 8.86482 6.7906 8.97161C6.91031 9.08123 7.1022 9.13604 7.36568 9.13604C7.56696 9.13604 7.70896 9.10779 7.79347 9.05185C7.87973 8.99591 7.92198 8.90889 7.92198 8.79079Z"/>
</mask>
<path d="M8.74997 8.75802C8.74997 9.0801 8.6285 9.3242 8.38615 9.49033C8.14379 9.65645 7.79464 9.73895 7.3381 9.73895C6.7994 9.73895 6.40096 9.61407 6.14276 9.36432C5.88632 9.11626 5.75781 8.72694 5.75781 8.19579C5.75781 7.65956 5.89513 7.26402 6.17034 7.00919C6.44145 6.75548 6.86395 6.62891 7.43844 6.62891H8.58449L8.58214 7.24368H7.42201C7.13389 7.24368 6.92498 7.29736 6.7953 7.40416C6.73427 7.45501 6.68791 7.51943 6.65622 7.59741C6.62043 7.6799 6.60282 7.77427 6.60282 7.88106H7.63796C8.01117 7.88106 8.28991 7.95282 8.47417 8.09578C8.65784 8.24043 8.74997 8.4608 8.74997 8.75802ZM7.92198 8.79079C7.92198 8.69191 7.89557 8.61732 7.84276 8.56647C7.78994 8.52013 7.70955 8.4964 7.60099 8.4964H6.60693C6.60693 8.70604 6.66796 8.86482 6.7906 8.97161C6.91031 9.08123 7.1022 9.13604 7.36568 9.13604C7.56696 9.13604 7.70896 9.10779 7.79347 9.05185C7.87973 8.99591 7.92198 8.90889 7.92198 8.79079Z" fill="white"/>
<path d="M6.14276 9.36432L5.4475 10.0831L5.44751 10.0831L6.14276 9.36432ZM6.17034 7.00919L6.84977 7.74294L6.85363 7.73933L6.17034 7.00919ZM8.58449 6.62891L9.58448 6.63272L9.58831 5.62891H8.58449V6.62891ZM8.58214 7.24368V8.24368H9.57833L9.58213 7.2475L8.58214 7.24368ZM6.7953 7.40416L6.1596 6.6322L6.15513 6.63592L6.7953 7.40416ZM6.65622 7.59741L7.57359 7.99545L7.57824 7.98472L7.58265 7.97388L6.65622 7.59741ZM6.60282 7.88106H5.60282V8.88106H6.60282V7.88106ZM8.47417 8.09578L9.0929 7.31015L9.08716 7.30569L8.47417 8.09578ZM7.84276 8.56647L8.53638 7.84613L8.51968 7.83005L8.50225 7.81476L7.84276 8.56647ZM6.60693 8.4964V7.4964H5.60693V8.4964H6.60693ZM6.7906 8.97161L7.46595 8.23411L7.45673 8.22567L7.4473 8.21746L6.7906 8.97161ZM7.79347 9.05185L7.24934 8.21279L7.24146 8.21801L7.79347 9.05185ZM7.74997 8.75802C7.74997 8.79231 7.74403 8.77665 7.76345 8.73758C7.77261 8.71916 7.78434 8.70196 7.79702 8.68766C7.80943 8.67367 7.81887 8.6668 7.82076 8.6655L8.95154 10.3152C9.49468 9.94284 9.74997 9.37339 9.74997 8.75802H7.74997ZM7.82076 8.6655C7.8143 8.66993 7.69766 8.73895 7.3381 8.73895V10.739C7.89162 10.739 8.47329 10.643 8.95154 10.3152L7.82076 8.6655ZM7.3381 8.73895C7.14238 8.73895 7.01337 8.71584 6.93431 8.69106C6.85956 8.66763 6.83833 8.64587 6.83802 8.64556L5.44751 10.0831C5.96719 10.5858 6.66742 10.739 7.3381 10.739V8.73895ZM6.83803 8.64557C6.838 8.64554 6.83789 8.64543 6.83767 8.64519C6.83745 8.64495 6.83706 8.6445 6.8365 8.6438C6.83543 8.64245 6.83336 8.63966 6.83049 8.63491C6.82482 8.62552 6.8148 8.60638 6.80387 8.57319C6.78111 8.50414 6.75781 8.38456 6.75781 8.19579H4.75781C4.75781 8.86675 4.91877 9.57162 5.4475 10.0831L6.83803 8.64557ZM6.75781 8.19579C6.75781 8.00951 6.78209 7.89247 6.80545 7.82524C6.82677 7.7639 6.84598 7.74643 6.84976 7.74293L5.49092 6.27544C4.93604 6.78923 4.75781 7.50355 4.75781 8.19579H6.75781ZM6.85363 7.73933C6.86029 7.7331 6.98315 7.62891 7.43844 7.62891V5.62891C6.74475 5.62891 6.02261 5.77785 5.48705 6.27904L6.85363 7.73933ZM7.43844 7.62891H8.58449V5.62891H7.43844V7.62891ZM7.5845 6.62509L7.58215 7.23986L9.58213 7.2475L9.58448 6.63272L7.5845 6.62509ZM8.58214 6.24368H7.42201V8.24368H8.58214V6.24368ZM7.42201 6.24368C7.05158 6.24368 6.55717 6.30483 6.15961 6.63221L7.43099 8.1761C7.39315 8.20726 7.35921 8.22653 7.33554 8.23775C7.31228 8.24877 7.29816 8.2524 7.2975 8.25257C7.29683 8.25274 7.3062 8.25032 7.32801 8.24797C7.34968 8.24564 7.38058 8.24368 7.42201 8.24368V6.24368ZM6.15513 6.63592C5.96045 6.79815 5.8195 7.00018 5.7298 7.22093L7.58265 7.97388C7.55632 8.03867 7.50809 8.11187 7.43546 8.17239L6.15513 6.63592ZM5.73886 7.19936C5.63871 7.43016 5.60282 7.66442 5.60282 7.88106H7.60282C7.60282 7.88412 7.60214 7.92965 7.57359 7.99545L5.73886 7.19936ZM6.60282 8.88106H7.63796V6.88106H6.60282V8.88106ZM7.63796 8.88106C7.76383 8.88106 7.83976 8.89351 7.87806 8.90335C7.91505 8.91285 7.89895 8.91517 7.86117 8.88587L9.08716 7.30569C8.6503 6.96675 8.11009 6.88106 7.63796 6.88106V8.88106ZM7.85545 8.88139C7.83556 8.86573 7.81511 8.84546 7.7967 8.82108C7.77836 8.79678 7.76586 8.77347 7.75793 8.75446C7.74245 8.71733 7.74997 8.71067 7.74997 8.75802H9.74997C9.74997 8.24354 9.57963 7.69351 9.09289 7.31017L7.85545 8.88139ZM8.92198 8.79079C8.92198 8.51725 8.84533 8.14363 8.53638 7.84613L7.14913 9.28681C6.94581 9.09102 6.92198 8.86658 6.92198 8.79079H8.92198ZM8.50225 7.81476C8.19327 7.54369 7.83185 7.4964 7.60099 7.4964V9.4964C7.58725 9.4964 7.38661 9.49658 7.18326 9.31818L8.50225 7.81476ZM7.60099 7.4964H6.60693V9.4964H7.60099V7.4964ZM5.60693 8.4964C5.60693 8.90354 5.7324 9.37615 6.13391 9.72577L7.4473 8.21746C7.51475 8.27619 7.56059 8.34745 7.5857 8.41249C7.60858 8.47179 7.60693 8.50631 7.60693 8.4964H5.60693ZM6.11526 9.70911C6.50503 10.066 6.99968 10.136 7.36568 10.136V8.13604C7.29896 8.13604 7.28218 8.12862 7.29907 8.13345C7.31865 8.13904 7.38821 8.16293 7.46595 8.23411L6.11526 9.70911ZM7.36568 10.136C7.60568 10.136 8.00253 10.1127 8.34547 9.88569L7.24146 8.21801C7.29486 8.18265 7.34106 8.16232 7.37143 8.15105C7.4019 8.13975 7.42276 8.13522 7.42975 8.13384C7.44112 8.1316 7.42382 8.13604 7.36568 8.13604V10.136ZM8.33757 9.89087C8.75911 9.6175 8.92198 9.18214 8.92198 8.79079H6.92198C6.92198 8.73151 6.93273 8.62559 6.99229 8.50418C7.055 8.37635 7.1493 8.27772 7.24936 8.21283L8.33757 9.89087Z" fill="white" mask="url(#path-4-inside-2_2091_212355)"/>
<mask id="path-6-inside-3_2091_212355" fill="white">
<path d="M11.6554 8.76989C11.6554 9.06993 11.5574 9.30047 11.3625 9.46095C11.166 9.62029 10.8884 9.6994 10.5304 9.6994H8.85156V9.08462H10.3849C10.5357 9.08462 10.6425 9.05976 10.7035 9.0106C10.7622 8.96257 10.791 8.88233 10.791 8.76989C10.791 8.65462 10.7616 8.57155 10.7035 8.52126C10.6425 8.47324 10.5357 8.4495 10.3849 8.4495H8.85156V6.62891H11.4993L11.4969 7.24368H9.63613V7.83812H10.673C10.9741 7.83812 11.2147 7.91835 11.396 8.07883C11.4799 8.16246 11.545 8.26078 11.5908 8.37322C11.6336 8.48793 11.6554 8.62071 11.6554 8.76989Z"/>
</mask>
<path d="M11.6554 8.76989C11.6554 9.06993 11.5574 9.30047 11.3625 9.46095C11.166 9.62029 10.8884 9.6994 10.5304 9.6994H8.85156V9.08462H10.3849C10.5357 9.08462 10.6425 9.05976 10.7035 9.0106C10.7622 8.96257 10.791 8.88233 10.791 8.76989C10.791 8.65462 10.7616 8.57155 10.7035 8.52126C10.6425 8.47324 10.5357 8.4495 10.3849 8.4495H8.85156V6.62891H11.4993L11.4969 7.24368H9.63613V7.83812H10.673C10.9741 7.83812 11.2147 7.91835 11.396 8.07883C11.4799 8.16246 11.545 8.26078 11.5908 8.37322C11.6336 8.48793 11.6554 8.62071 11.6554 8.76989Z" fill="white"/>
<path d="M11.3625 9.46095L11.9922 10.2378L11.9983 10.2328L11.3625 9.46095ZM8.85156 9.6994H7.85156V10.6994H8.85156V9.6994ZM8.85156 9.08462V8.08462H7.85156V9.08462H8.85156ZM10.7035 9.0106L11.3309 9.78939L11.3369 9.78444L10.7035 9.0106ZM10.7035 8.52126L11.358 7.7652L11.3404 7.7499L11.322 7.73544L10.7035 8.52126ZM8.85156 8.4495H7.85156V9.4495H8.85156V8.4495ZM8.85156 6.62891V5.62891H7.85156V6.62891H8.85156ZM11.4993 6.62891L12.4993 6.63272L12.5031 5.62891H11.4993V6.62891ZM11.4969 7.24368V8.24368H12.4931L12.4969 7.2475L11.4969 7.24368ZM9.63613 7.24368V6.24368H8.63613V7.24368H9.63613ZM9.63613 7.83812H8.63613V8.83812H9.63613V7.83812ZM11.396 8.07883L12.1019 7.37051L12.0809 7.34961L12.0587 7.32998L11.396 8.07883ZM11.5908 8.37322L12.5276 8.02337L12.5225 8.00971L12.517 7.9962L11.5908 8.37322ZM10.6554 8.76989C10.6554 8.81155 10.6486 8.80735 10.6614 8.77734C10.6676 8.76253 10.6771 8.74537 10.69 8.72816C10.7028 8.71099 10.716 8.69797 10.7267 8.68908L11.9983 10.2328C12.4671 9.84665 12.6554 9.30756 12.6554 8.76989H10.6554ZM10.7328 8.6841C10.7764 8.64882 10.7542 8.6994 10.5304 8.6994V10.6994C11.0226 10.6994 11.5555 10.5918 11.9922 10.2378L10.7328 8.6841ZM10.5304 8.6994H8.85156V10.6994H10.5304V8.6994ZM9.85156 9.6994V9.08462H7.85156V9.6994H9.85156ZM8.85156 10.0846H10.3849V8.08462H8.85156V10.0846ZM10.3849 10.0846C10.5833 10.0846 10.9896 10.0643 11.3309 9.78937L10.0762 8.23183C10.1998 8.13229 10.3124 8.10109 10.3515 8.09201C10.3944 8.08204 10.4104 8.08462 10.3849 8.08462V10.0846ZM11.3369 9.78444C11.7252 9.46665 11.791 9.02802 11.791 8.76989H9.79098C9.79098 8.73665 9.79926 8.45849 10.0702 8.23675L11.3369 9.78444ZM11.791 8.76989C11.791 8.50937 11.7255 8.08327 11.358 7.7652L10.0491 9.27733C9.7978 9.05984 9.79098 8.79987 9.79098 8.76989H11.791ZM11.322 7.73544C10.9804 7.46658 10.5757 7.4495 10.3849 7.4495V9.4495C10.413 9.4495 10.3994 9.4522 10.3589 9.4431C10.3227 9.43498 10.2101 9.40545 10.0851 9.30709L11.322 7.73544ZM10.3849 7.4495H8.85156V9.4495H10.3849V7.4495ZM9.85156 8.4495V6.62891H7.85156V8.4495H9.85156ZM8.85156 7.62891H11.4993V5.62891H8.85156V7.62891ZM10.4993 6.62509L10.4969 7.23987L12.4969 7.2475L12.4993 6.63272L10.4993 6.62509ZM11.4969 6.24368H9.63613V8.24368H11.4969V6.24368ZM8.63613 7.24368V7.83812H10.6361V7.24368H8.63613ZM9.63613 8.83812H10.673V6.83812H9.63613V8.83812ZM10.673 8.83812C10.7355 8.83812 10.7617 8.84649 10.7634 8.84705C10.7641 8.84728 10.7602 8.84602 10.7534 8.84218C10.7466 8.83827 10.7395 8.83326 10.7332 8.82768L12.0587 7.32998C11.6534 6.9713 11.1571 6.83812 10.673 6.83812V8.83812ZM10.6901 8.78714C10.6846 8.78164 10.6789 8.77481 10.6738 8.7672C10.6688 8.75962 10.6659 8.75351 10.6646 8.75024L12.517 7.9962C12.4218 7.76235 12.2827 7.55072 12.1019 7.37051L10.6901 8.78714ZM10.654 8.72307C10.6473 8.70508 10.6554 8.71576 10.6554 8.76989H12.6554C12.6554 8.52567 12.62 8.27077 12.5276 8.02337L10.654 8.72307Z" fill="white" mask="url(#path-6-inside-3_2091_212355)"/>
<path d="M13.8421 10.6373C13.7232 10.6007 13.4015 10.5139 13.0814 10.4288L13.3355 10.2083L14.316 10.4823C14.3282 10.4882 14.3447 10.4966 14.3635 10.5073C14.4071 10.5322 14.4485 10.561 14.4788 10.5892C14.3989 10.6632 14.3759 10.6757 14.3415 10.6856C14.2948 10.6991 14.1626 10.7192 13.8421 10.6373ZM14.5044 10.5536C14.5045 10.5536 14.5043 10.5542 14.5037 10.5554L14.5044 10.5536Z" fill="white" stroke="white"/>
<path d="M7.68182 11.4888C7.81425 11.4798 7.94822 11.4656 8.08317 11.4472L7.68182 11.4888ZM7.68182 11.4888C8.05707 11.444 8.42076 11.3595 8.76666 11.257L8.76675 11.2569C9.87312 10.9288 10.9209 10.4377 11.8176 9.66235L11.819 9.66113C11.832 9.64985 11.84 9.64284 11.8478 9.63636L11.8479 9.63649L11.8576 9.62799C12.1501 9.37176 12.5083 9.03684 12.7819 8.64322C13.056 8.24881 13.2775 7.7486 13.2165 7.17608L13.2165 7.17583C13.2097 7.11245 13.1981 7.0519 13.1823 6.99411C13.2405 7.05916 13.2858 7.13018 13.3191 7.20728C13.3697 7.37189 13.3844 7.56382 13.3672 7.76521L13.3672 7.76564C13.3349 8.14766 13.18 8.52972 12.9385 8.87997L12.9384 8.88021C12.5301 9.47304 11.9187 9.95115 11.2358 10.3544L11.2356 10.3544C10.6672 10.6903 10.0834 10.9499 9.45281 11.1388L9.45272 11.1389C8.99653 11.2757 8.54122 11.3851 8.08321 11.4472L7.68182 11.4888ZM5.28913 10.0345C5.31201 10.0826 5.33725 10.1289 5.36483 10.1747L5.25333 9.95259C5.2587 9.96442 5.26374 9.97635 5.26879 9.9883C5.27531 10.0038 5.28185 10.0192 5.28913 10.0345Z" fill="white" stroke="white"/>
<mask id="path-10-inside-4_2091_212355" fill="white">
<path fill-rule="evenodd" clip-rule="evenodd" d="M5.60547 9.89802C5.60547 9.89802 7.23035 11.3135 10.0201 9.79688C9.70905 10.1506 6.23571 11.7683 5.60547 9.89802Z"/>
</mask>
<path fill-rule="evenodd" clip-rule="evenodd" d="M5.60547 9.89802C5.60547 9.89802 7.23035 11.3135 10.0201 9.79688C9.70905 10.1506 6.23571 11.7683 5.60547 9.89802Z" fill="white"/>
<path d="M5.60547 9.89802L6.26231 9.14399L3.47919 6.71959L4.65782 10.2173L5.60547 9.89802ZM10.0201 9.79688L10.7711 10.4572L9.54244 8.91831L10.0201 9.79688ZM5.60547 9.89802C4.94863 10.652 4.94914 10.6525 4.94966 10.6529C4.94985 10.6531 4.95038 10.6536 4.95074 10.6539C4.95148 10.6545 4.95224 10.6552 4.95302 10.6559C4.9546 10.6572 4.95629 10.6587 4.95808 10.6602C4.96168 10.6633 4.96571 10.6667 4.97019 10.6704C4.97913 10.6778 4.98985 10.6866 5.00232 10.6965C5.02725 10.7163 5.05926 10.7408 5.09827 10.7687C5.17619 10.8246 5.28263 10.8947 5.41677 10.9693C5.68489 11.1185 6.06683 11.2873 6.55398 11.3933C7.55034 11.6101 8.89836 11.5449 10.4977 10.6754L9.54244 8.91831C8.35205 9.56545 7.49278 9.55079 6.97927 9.43904C6.71149 9.38077 6.51285 9.29046 6.38912 9.22163C6.32734 9.18725 6.28504 9.15867 6.2632 9.14302C6.25233 9.13523 6.24671 9.13078 6.24648 9.13059C6.24637 9.1305 6.24762 9.13149 6.25024 9.13368C6.25156 9.13478 6.25322 9.13617 6.25523 9.13789C6.25623 9.13874 6.25733 9.13968 6.25851 9.1407C6.2591 9.1412 6.25971 9.14173 6.26034 9.14228C6.26066 9.14256 6.26115 9.14298 6.26131 9.14312C6.26181 9.14355 6.26231 9.14399 5.60547 9.89802ZM9.26907 9.13656C9.34655 9.04845 9.38613 9.04297 9.25821 9.11856C9.16889 9.17134 9.03801 9.24004 8.87427 9.31438C8.54459 9.46407 8.12933 9.6151 7.71956 9.70439C7.2926 9.79743 6.96514 9.80267 6.76221 9.75143C6.61746 9.71488 6.58512 9.67369 6.55311 9.57869L4.65782 10.2173C4.94093 11.0575 5.57911 11.5155 6.27258 11.6906C6.90787 11.851 7.58636 11.7804 8.14539 11.6585C8.72161 11.533 9.27239 11.3301 9.70113 11.1355C9.9166 11.0376 10.113 10.9365 10.2756 10.8404C10.3997 10.7671 10.6158 10.6337 10.7711 10.4572L9.26907 9.13656Z" fill="white" mask="url(#path-10-inside-4_2091_212355)"/>
</svg>
