<svg width="18" height="19" viewBox="0 0 18 19" fill="none" xmlns="http://www.w3.org/2000/svg">
<path d="M8.99977 16.4503C13.3853 16.4503 16.9409 13.1167 16.9409 9.00447C16.9409 4.89222 13.3853 1.55859 8.99977 1.55859C4.61426 1.55859 1.05859 4.89222 1.05859 9.00447C1.05859 10.8766 1.79613 12.5891 3.01411 13.8975C2.91782 14.9782 2.60017 16.1631 2.24878 17.0524C2.17036 17.2502 2.32223 17.4715 2.51977 17.4375C4.75918 17.0439 6.09032 16.4397 6.66903 16.1249C7.42931 16.3421 8.21292 16.4516 8.99977 16.4503Z" fill="white"/>
<mask id="path-2-inside-1_1984_103424" fill="white">
<path d="M5.5855 9.3586C5.5855 9.62191 5.49806 9.82816 5.3226 9.9779C5.14421 10.1259 4.89775 10.2 4.58263 10.2H3V9.58462H4.31094C4.46468 9.58462 4.57677 9.55976 4.6466 9.5106C4.71643 9.45974 4.75164 9.3812 4.75164 9.27384C4.75164 9.17496 4.71819 9.09755 4.65129 9.04161C4.58146 8.98793 4.46821 8.96137 4.31153 8.96137L3.24177 8.96532V8.35055H4.29157C4.45001 8.35055 4.56386 8.32682 4.63369 8.27879C4.70058 8.23245 4.73403 8.15561 4.73403 8.04825C4.73403 7.94654 4.70058 7.87082 4.63369 7.81996C4.59965 7.79228 4.55447 7.7725 4.49872 7.76007C4.44004 7.74933 4.37138 7.74368 4.29157 7.74368H3V7.12891H4.51632C4.86724 7.12891 5.13306 7.19671 5.3138 7.33232C5.49219 7.46963 5.58139 7.68266 5.58139 7.97196C5.58139 8.11718 5.54794 8.24601 5.48104 8.35846C5.41121 8.4709 5.32084 8.56979 5.20935 8.65455C5.33199 8.72744 5.42119 8.81446 5.47694 8.9156C5.54911 9.03426 5.5855 9.18174 5.5855 9.3586Z"/>
</mask>
<path d="M5.5855 9.3586C5.5855 9.62191 5.49806 9.82816 5.3226 9.9779C5.14421 10.1259 4.89775 10.2 4.58263 10.2H3V9.58462H4.31094C4.46468 9.58462 4.57677 9.55976 4.6466 9.5106C4.71643 9.45974 4.75164 9.3812 4.75164 9.27384C4.75164 9.17496 4.71819 9.09755 4.65129 9.04161C4.58146 8.98793 4.46821 8.96137 4.31153 8.96137L3.24177 8.96532V8.35055H4.29157C4.45001 8.35055 4.56386 8.32682 4.63369 8.27879C4.70058 8.23245 4.73403 8.15561 4.73403 8.04825C4.73403 7.94654 4.70058 7.87082 4.63369 7.81996C4.59965 7.79228 4.55447 7.7725 4.49872 7.76007C4.44004 7.74933 4.37138 7.74368 4.29157 7.74368H3V7.12891H4.51632C4.86724 7.12891 5.13306 7.19671 5.3138 7.33232C5.49219 7.46963 5.58139 7.68266 5.58139 7.97196C5.58139 8.11718 5.54794 8.24601 5.48104 8.35846C5.41121 8.4709 5.32084 8.56979 5.20935 8.65455C5.33199 8.72744 5.42119 8.81446 5.47694 8.9156C5.54911 9.03426 5.5855 9.18174 5.5855 9.3586Z" fill="#00CE2D"/>
<path d="M5.3226 9.9779L5.96128 10.7475L5.97176 10.7386L5.3226 9.9779ZM3 10.2H2V11.2H3V10.2ZM3 9.58462V8.58462H2V9.58462H3ZM4.6466 9.5106L5.22224 10.3283L5.2288 10.3237L5.23529 10.319L4.6466 9.5106ZM4.65129 9.04161L5.29278 8.27447L5.27703 8.2613L5.26074 8.24878L4.65129 9.04161ZM4.31153 8.96137V7.96136L4.30783 7.96138L4.31153 8.96137ZM3.24177 8.96532H2.24177V9.96903L3.24546 9.96532L3.24177 8.96532ZM3.24177 8.35055V7.35055H2.24177V8.35055H3.24177ZM4.63369 8.27879L5.20038 9.10272L5.20307 9.10086L4.63369 8.27879ZM4.63369 7.81996L4.00263 8.5957L4.0154 8.60609L4.0285 8.61605L4.63369 7.81996ZM4.49872 7.76007L4.71637 6.78404L4.6976 6.77986L4.67869 6.7764L4.49872 7.76007ZM3 7.74368H2V8.74368H3V7.74368ZM3 7.12891V6.12891H2V7.12891H3ZM5.3138 7.33232L5.92379 6.53982L5.91397 6.53245L5.3138 7.33232ZM5.48104 8.35846L6.33056 8.88602L6.33558 8.87793L6.34045 8.86974L5.48104 8.35846ZM5.20935 8.65455L4.60417 7.85846L3.42318 8.75625L4.69844 9.51418L5.20935 8.65455ZM5.47694 8.9156L4.60115 9.3983L4.61147 9.41702L4.62258 9.43528L5.47694 8.9156ZM4.5855 9.3586C4.5855 9.3793 4.58227 9.36033 4.5993 9.3202C4.61783 9.27654 4.64673 9.24004 4.67345 9.21724L5.97176 10.7386C6.40312 10.3704 6.5855 9.86782 6.5855 9.3586H4.5855ZM4.68399 9.20837C4.70882 9.18776 4.72538 9.18397 4.7164 9.18666C4.70446 9.19025 4.66372 9.19996 4.58263 9.19996V11.2C5.04754 11.2 5.54819 11.0902 5.96122 10.7474L4.68399 9.20837ZM4.58263 9.19996H3V11.2H4.58263V9.19996ZM4 10.2V9.58462H2V10.2H4ZM3 10.5846H4.31094V8.58462H3V10.5846ZM4.31094 10.5846C4.52838 10.5846 4.89627 10.5578 5.22224 10.3283L4.07095 8.6929C4.17436 8.6201 4.26269 8.59662 4.29458 8.58958C4.32847 8.58209 4.3378 8.58462 4.31094 8.58462V10.5846ZM5.23529 10.319C5.62336 10.0363 5.75164 9.61894 5.75164 9.27384H3.75164C3.75164 9.21995 3.76038 9.12217 3.81162 9.00699C3.86591 8.88493 3.95231 8.77914 4.0579 8.70224L5.23529 10.319ZM5.75164 9.27384C5.75164 8.92328 5.61896 8.54723 5.29278 8.27447L4.0098 9.80874C3.92764 9.74003 3.85596 9.64792 3.80858 9.53826C3.76267 9.43202 3.75164 9.33757 3.75164 9.27384H5.75164ZM5.26074 8.24878C4.92411 7.99001 4.53427 7.96137 4.31153 7.96137V9.96137C4.33775 9.96137 4.32416 9.96402 4.28453 9.95468C4.24583 9.94556 4.1496 9.91727 4.04184 9.83443L5.26074 8.24878ZM4.30783 7.96138L3.23807 7.96533L3.24546 9.96532L4.31522 9.96136L4.30783 7.96138ZM4.24177 8.96532V8.35055H2.24177V8.96532H4.24177ZM3.24177 9.35055H4.29157V7.35055H3.24177V9.35055ZM4.29157 9.35055C4.50005 9.35055 4.87156 9.32888 5.20038 9.10271L4.06699 7.45486C4.17401 7.38125 4.26391 7.35956 4.29087 7.35391C4.32072 7.34766 4.3251 7.35055 4.29157 7.35055V9.35055ZM5.20307 9.10086C5.62255 8.81032 5.73403 8.36796 5.73403 8.04825H3.73403C3.73403 8.00167 3.74088 7.90484 3.79203 7.78731C3.84722 7.66053 3.94007 7.54276 4.0643 7.45672L5.20307 9.10086ZM5.73403 8.04825C5.73403 7.70535 5.60626 7.30317 5.23887 7.02388L4.0285 8.61605C3.9292 8.54056 3.84643 8.43775 3.79367 8.31786C3.74352 8.20391 3.73403 8.10588 3.73403 8.04825H5.73403ZM5.26475 7.04423C5.0761 6.89076 4.87369 6.81912 4.71637 6.78404L4.28107 8.7361C4.23524 8.72588 4.12321 8.69379 4.00263 8.5957L5.26475 7.04423ZM4.67869 6.7764C4.54732 6.75236 4.4165 6.74368 4.29157 6.74368V8.74368C4.30811 8.74368 4.31846 8.74428 4.32342 8.74467C4.32844 8.74507 4.3265 8.74516 4.31875 8.74374L4.67869 6.7764ZM4.29157 6.74368H3V8.74368H4.29157V6.74368ZM4 7.74368V7.12891H2V7.74368H4ZM3 8.12891H4.51632V6.12891H3V8.12891ZM4.51632 8.12891C4.63034 8.12891 4.69837 8.14023 4.73172 8.14873C4.76362 8.15687 4.74862 8.15845 4.71364 8.1322L5.91397 6.53245C5.48787 6.21274 4.97147 6.12891 4.51632 6.12891V8.12891ZM4.70386 8.12477C4.6805 8.10679 4.65702 8.08381 4.63611 8.05643C4.61529 8.02917 4.60109 8.00287 4.59199 7.98115C4.57431 7.93889 4.58139 7.92762 4.58139 7.97196H6.58139C6.58139 7.46868 6.41554 6.91841 5.92375 6.53988L4.70386 8.12477ZM4.58139 7.97196C4.58139 7.96742 4.58197 7.95093 4.58839 7.9262C4.59497 7.90087 4.60599 7.87346 4.62163 7.84717L6.34045 8.86974C6.50923 8.58605 6.58139 8.27684 6.58139 7.97196H4.58139ZM4.63153 7.83089C4.62869 7.83547 4.62254 7.84449 4.60417 7.85846L5.81453 9.45063C6.01915 9.29508 6.19374 9.10634 6.33056 8.88602L4.63153 7.83089ZM4.69844 9.51418C4.70385 9.51739 4.64939 9.48583 4.60115 9.3983L6.35272 8.4329C6.19299 8.14308 5.96014 7.93748 5.72026 7.79491L4.69844 9.51418ZM4.62258 9.43528C4.57745 9.36109 4.5855 9.31739 4.5855 9.3586H6.5855C6.5855 9.04609 6.52078 8.70743 6.3313 8.39592L4.62258 9.43528Z" fill="#00CE2D" mask="url(#path-2-inside-1_1984_103424)"/>
<mask id="path-4-inside-2_1984_103424" fill="white">
<path d="M8.74997 9.25802C8.74997 9.5801 8.6285 9.8242 8.38615 9.99033C8.14379 10.1565 7.79464 10.239 7.3381 10.239C6.7994 10.239 6.40096 10.1141 6.14276 9.86432C5.88632 9.61626 5.75781 9.22694 5.75781 8.69579C5.75781 8.15956 5.89513 7.76402 6.17034 7.50919C6.44145 7.25548 6.86395 7.12891 7.43844 7.12891H8.58449L8.58214 7.74368H7.42201C7.13389 7.74368 6.92498 7.79736 6.7953 7.90416C6.73427 7.95501 6.68791 8.01943 6.65622 8.09741C6.62043 8.1799 6.60282 8.27427 6.60282 8.38106H7.63796C8.01117 8.38106 8.28991 8.45282 8.47417 8.59578C8.65784 8.74043 8.74997 8.9608 8.74997 9.25802ZM7.92198 9.29079C7.92198 9.19191 7.89557 9.11732 7.84276 9.06647C7.78994 9.02013 7.70955 8.9964 7.60099 8.9964H6.60693C6.60693 9.20604 6.66796 9.36482 6.7906 9.47161C6.91031 9.58123 7.1022 9.63604 7.36568 9.63604C7.56696 9.63604 7.70896 9.60779 7.79347 9.55185C7.87973 9.49591 7.92198 9.40889 7.92198 9.29079Z"/>
</mask>
<path d="M8.74997 9.25802C8.74997 9.5801 8.6285 9.8242 8.38615 9.99033C8.14379 10.1565 7.79464 10.239 7.3381 10.239C6.7994 10.239 6.40096 10.1141 6.14276 9.86432C5.88632 9.61626 5.75781 9.22694 5.75781 8.69579C5.75781 8.15956 5.89513 7.76402 6.17034 7.50919C6.44145 7.25548 6.86395 7.12891 7.43844 7.12891H8.58449L8.58214 7.74368H7.42201C7.13389 7.74368 6.92498 7.79736 6.7953 7.90416C6.73427 7.95501 6.68791 8.01943 6.65622 8.09741C6.62043 8.1799 6.60282 8.27427 6.60282 8.38106H7.63796C8.01117 8.38106 8.28991 8.45282 8.47417 8.59578C8.65784 8.74043 8.74997 8.9608 8.74997 9.25802ZM7.92198 9.29079C7.92198 9.19191 7.89557 9.11732 7.84276 9.06647C7.78994 9.02013 7.70955 8.9964 7.60099 8.9964H6.60693C6.60693 9.20604 6.66796 9.36482 6.7906 9.47161C6.91031 9.58123 7.1022 9.63604 7.36568 9.63604C7.56696 9.63604 7.70896 9.60779 7.79347 9.55185C7.87973 9.49591 7.92198 9.40889 7.92198 9.29079Z" fill="#00CE2D"/>
<path d="M6.14276 9.86432L5.4475 10.5831L5.44751 10.5831L6.14276 9.86432ZM6.17034 7.50919L6.84977 8.24294L6.85363 8.23933L6.17034 7.50919ZM8.58449 7.12891L9.58448 7.13272L9.58831 6.12891H8.58449V7.12891ZM8.58214 7.74368V8.74368H9.57833L9.58213 7.7475L8.58214 7.74368ZM6.7953 7.90416L6.1596 7.1322L6.15513 7.13592L6.7953 7.90416ZM6.65622 8.09741L7.57359 8.49545L7.57824 8.48472L7.58265 8.47388L6.65622 8.09741ZM6.60282 8.38106H5.60282V9.38106H6.60282V8.38106ZM8.47417 8.59578L9.0929 7.81015L9.08716 7.80569L8.47417 8.59578ZM7.84276 9.06647L8.53638 8.34613L8.51968 8.33005L8.50225 8.31476L7.84276 9.06647ZM6.60693 8.9964V7.9964H5.60693V8.9964H6.60693ZM6.7906 9.47161L7.46595 8.73411L7.45673 8.72567L7.4473 8.71746L6.7906 9.47161ZM7.79347 9.55185L7.24934 8.71279L7.24146 8.71801L7.79347 9.55185ZM7.74997 9.25802C7.74997 9.29231 7.74403 9.27665 7.76345 9.23758C7.77261 9.21916 7.78434 9.20196 7.79702 9.18766C7.80943 9.17367 7.81887 9.1668 7.82076 9.1655L8.95154 10.8152C9.49468 10.4428 9.74997 9.87339 9.74997 9.25802H7.74997ZM7.82076 9.1655C7.8143 9.16993 7.69766 9.23895 7.3381 9.23895V11.239C7.89162 11.239 8.47329 11.143 8.95154 10.8152L7.82076 9.1655ZM7.3381 9.23895C7.14238 9.23895 7.01337 9.21584 6.93431 9.19106C6.85956 9.16763 6.83833 9.14587 6.83802 9.14556L5.44751 10.5831C5.96719 11.0858 6.66742 11.239 7.3381 11.239V9.23895ZM6.83803 9.14557C6.838 9.14554 6.83789 9.14543 6.83767 9.14519C6.83745 9.14495 6.83706 9.1445 6.8365 9.1438C6.83543 9.14245 6.83336 9.13966 6.83049 9.13491C6.82482 9.12552 6.8148 9.10638 6.80387 9.07319C6.78111 9.00414 6.75781 8.88456 6.75781 8.69579H4.75781C4.75781 9.36675 4.91877 10.0716 5.4475 10.5831L6.83803 9.14557ZM6.75781 8.69579C6.75781 8.50951 6.78209 8.39247 6.80545 8.32524C6.82677 8.2639 6.84598 8.24643 6.84976 8.24293L5.49092 6.77544C4.93604 7.28923 4.75781 8.00355 4.75781 8.69579H6.75781ZM6.85363 8.23933C6.86029 8.2331 6.98315 8.12891 7.43844 8.12891V6.12891C6.74475 6.12891 6.02261 6.27785 5.48705 6.77904L6.85363 8.23933ZM7.43844 8.12891H8.58449V6.12891H7.43844V8.12891ZM7.5845 7.12509L7.58215 7.73986L9.58213 7.7475L9.58448 7.13272L7.5845 7.12509ZM8.58214 6.74368H7.42201V8.74368H8.58214V6.74368ZM7.42201 6.74368C7.05158 6.74368 6.55717 6.80483 6.15961 7.13221L7.43099 8.6761C7.39315 8.70726 7.35921 8.72653 7.33554 8.73775C7.31228 8.74877 7.29816 8.7524 7.2975 8.75257C7.29683 8.75274 7.3062 8.75032 7.32801 8.74797C7.34968 8.74564 7.38058 8.74368 7.42201 8.74368V6.74368ZM6.15513 7.13592C5.96045 7.29815 5.8195 7.50018 5.7298 7.72093L7.58265 8.47388C7.55632 8.53867 7.50809 8.61187 7.43546 8.67239L6.15513 7.13592ZM5.73886 7.69936C5.63871 7.93016 5.60282 8.16442 5.60282 8.38106H7.60282C7.60282 8.38412 7.60214 8.42965 7.57359 8.49545L5.73886 7.69936ZM6.60282 9.38106H7.63796V7.38106H6.60282V9.38106ZM7.63796 9.38106C7.76383 9.38106 7.83976 9.39351 7.87806 9.40335C7.91505 9.41285 7.89895 9.41517 7.86117 9.38587L9.08716 7.80569C8.6503 7.46675 8.11009 7.38106 7.63796 7.38106V9.38106ZM7.85545 9.38139C7.83556 9.36573 7.81511 9.34546 7.7967 9.32108C7.77836 9.29678 7.76586 9.27347 7.75793 9.25446C7.74245 9.21733 7.74997 9.21067 7.74997 9.25802H9.74997C9.74997 8.74354 9.57963 8.19351 9.09289 7.81017L7.85545 9.38139ZM8.92198 9.29079C8.92198 9.01725 8.84533 8.64363 8.53638 8.34613L7.14913 9.78681C6.94581 9.59102 6.92198 9.36658 6.92198 9.29079H8.92198ZM8.50225 8.31476C8.19327 8.04369 7.83185 7.9964 7.60099 7.9964V9.9964C7.58725 9.9964 7.38661 9.99658 7.18326 9.81818L8.50225 8.31476ZM7.60099 7.9964H6.60693V9.9964H7.60099V7.9964ZM5.60693 8.9964C5.60693 9.40354 5.7324 9.87615 6.13391 10.2258L7.4473 8.71746C7.51475 8.77619 7.56059 8.84745 7.5857 8.91249C7.60858 8.97179 7.60693 9.00631 7.60693 8.9964H5.60693ZM6.11526 10.2091C6.50503 10.566 6.99968 10.636 7.36568 10.636V8.63604C7.29896 8.63604 7.28218 8.62862 7.29907 8.63345C7.31865 8.63904 7.38821 8.66293 7.46595 8.73411L6.11526 10.2091ZM7.36568 10.636C7.60568 10.636 8.00253 10.6127 8.34547 10.3857L7.24146 8.71801C7.29486 8.68265 7.34106 8.66232 7.37143 8.65105C7.4019 8.63975 7.42276 8.63522 7.42975 8.63384C7.44112 8.6316 7.42382 8.63604 7.36568 8.63604V10.636ZM8.33757 10.3909C8.75911 10.1175 8.92198 9.68214 8.92198 9.29079H6.92198C6.92198 9.23151 6.93273 9.12559 6.99229 9.00418C7.055 8.87635 7.1493 8.77772 7.24936 8.71283L8.33757 10.3909Z" fill="#00CE2D" mask="url(#path-4-inside-2_1984_103424)"/>
<mask id="path-6-inside-3_1984_103424" fill="white">
<path d="M11.6554 9.26989C11.6554 9.56993 11.5574 9.80047 11.3625 9.96095C11.166 10.1203 10.8884 10.1994 10.5304 10.1994H8.85156V9.58462H10.3849C10.5357 9.58462 10.6425 9.55976 10.7035 9.5106C10.7622 9.46257 10.791 9.38233 10.791 9.26989C10.791 9.15462 10.7616 9.07155 10.7035 9.02126C10.6425 8.97324 10.5357 8.9495 10.3849 8.9495H8.85156V7.12891H11.4993L11.4969 7.74368H9.63613V8.33812H10.673C10.9741 8.33812 11.2147 8.41835 11.396 8.57883C11.4799 8.66246 11.545 8.76078 11.5908 8.87322C11.6336 8.98793 11.6554 9.12071 11.6554 9.26989Z"/>
</mask>
<path d="M11.6554 9.26989C11.6554 9.56993 11.5574 9.80047 11.3625 9.96095C11.166 10.1203 10.8884 10.1994 10.5304 10.1994H8.85156V9.58462H10.3849C10.5357 9.58462 10.6425 9.55976 10.7035 9.5106C10.7622 9.46257 10.791 9.38233 10.791 9.26989C10.791 9.15462 10.7616 9.07155 10.7035 9.02126C10.6425 8.97324 10.5357 8.9495 10.3849 8.9495H8.85156V7.12891H11.4993L11.4969 7.74368H9.63613V8.33812H10.673C10.9741 8.33812 11.2147 8.41835 11.396 8.57883C11.4799 8.66246 11.545 8.76078 11.5908 8.87322C11.6336 8.98793 11.6554 9.12071 11.6554 9.26989Z" fill="#00CE2D"/>
<path d="M11.3625 9.96095L11.9922 10.7378L11.9983 10.7328L11.3625 9.96095ZM8.85156 10.1994H7.85156V11.1994H8.85156V10.1994ZM8.85156 9.58462V8.58462H7.85156V9.58462H8.85156ZM10.7035 9.5106L11.3309 10.2894L11.3369 10.2844L10.7035 9.5106ZM10.7035 9.02126L11.358 8.2652L11.3404 8.2499L11.322 8.23544L10.7035 9.02126ZM8.85156 8.9495H7.85156V9.9495H8.85156V8.9495ZM8.85156 7.12891V6.12891H7.85156V7.12891H8.85156ZM11.4993 7.12891L12.4993 7.13272L12.5031 6.12891H11.4993V7.12891ZM11.4969 7.74368V8.74368H12.4931L12.4969 7.7475L11.4969 7.74368ZM9.63613 7.74368V6.74368H8.63613V7.74368H9.63613ZM9.63613 8.33812H8.63613V9.33812H9.63613V8.33812ZM11.396 8.57883L12.1019 7.87051L12.0809 7.84961L12.0587 7.82998L11.396 8.57883ZM11.5908 8.87322L12.5276 8.52337L12.5225 8.50971L12.517 8.4962L11.5908 8.87322ZM10.6554 9.26989C10.6554 9.31155 10.6486 9.30735 10.6614 9.27734C10.6676 9.26253 10.6771 9.24537 10.69 9.22816C10.7028 9.21099 10.716 9.19797 10.7267 9.18908L11.9983 10.7328C12.4671 10.3466 12.6554 9.80756 12.6554 9.26989H10.6554ZM10.7328 9.1841C10.7764 9.14882 10.7542 9.1994 10.5304 9.1994V11.1994C11.0226 11.1994 11.5555 11.0918 11.9922 10.7378L10.7328 9.1841ZM10.5304 9.1994H8.85156V11.1994H10.5304V9.1994ZM9.85156 10.1994V9.58462H7.85156V10.1994H9.85156ZM8.85156 10.5846H10.3849V8.58462H8.85156V10.5846ZM10.3849 10.5846C10.5833 10.5846 10.9896 10.5643 11.3309 10.2894L10.0762 8.73183C10.1998 8.63229 10.3124 8.60109 10.3515 8.59201C10.3944 8.58204 10.4104 8.58462 10.3849 8.58462V10.5846ZM11.3369 10.2844C11.7252 9.96665 11.791 9.52802 11.791 9.26989H9.79098C9.79098 9.23665 9.79926 8.95849 10.0702 8.73675L11.3369 10.2844ZM11.791 9.26989C11.791 9.00937 11.7255 8.58327 11.358 8.2652L10.0491 9.77733C9.7978 9.55984 9.79098 9.29987 9.79098 9.26989H11.791ZM11.322 8.23544C10.9804 7.96658 10.5757 7.9495 10.3849 7.9495V9.9495C10.413 9.9495 10.3994 9.9522 10.3589 9.9431C10.3227 9.93498 10.2101 9.90545 10.0851 9.80709L11.322 8.23544ZM10.3849 7.9495H8.85156V9.9495H10.3849V7.9495ZM9.85156 8.9495V7.12891H7.85156V8.9495H9.85156ZM8.85156 8.12891H11.4993V6.12891H8.85156V8.12891ZM10.4993 7.12509L10.4969 7.73987L12.4969 7.7475L12.4993 7.13272L10.4993 7.12509ZM11.4969 6.74368H9.63613V8.74368H11.4969V6.74368ZM8.63613 7.74368V8.33812H10.6361V7.74368H8.63613ZM9.63613 9.33812H10.673V7.33812H9.63613V9.33812ZM10.673 9.33812C10.7355 9.33812 10.7617 9.34649 10.7634 9.34705C10.7641 9.34728 10.7602 9.34602 10.7534 9.34218C10.7466 9.33827 10.7395 9.33326 10.7332 9.32768L12.0587 7.82998C11.6534 7.4713 11.1571 7.33812 10.673 7.33812V9.33812ZM10.6901 9.28714C10.6846 9.28164 10.6789 9.27481 10.6738 9.2672C10.6688 9.25962 10.6659 9.25351 10.6646 9.25024L12.517 8.4962C12.4218 8.26235 12.2827 8.05072 12.1019 7.87051L10.6901 9.28714ZM10.654 9.22307C10.6473 9.20508 10.6554 9.21576 10.6554 9.26989H12.6554C12.6554 9.02567 12.62 8.77077 12.5276 8.52337L10.654 9.22307Z" fill="#00CE2D" mask="url(#path-6-inside-3_1984_103424)"/>
<path d="M13.8421 11.1373C13.7232 11.1007 13.4015 11.0139 13.0814 10.9288L13.3355 10.7083L14.316 10.9823C14.3282 10.9882 14.3447 10.9966 14.3635 11.0073C14.4071 11.0322 14.4485 11.061 14.4788 11.0892C14.3989 11.1632 14.3759 11.1757 14.3415 11.1856C14.2948 11.1991 14.1626 11.2192 13.8421 11.1373ZM14.5044 11.0536C14.5045 11.0536 14.5043 11.0542 14.5037 11.0554L14.5044 11.0536Z" fill="#00CE2D" stroke="#00CE2D"/>
<path d="M7.68182 11.9888C7.81425 11.9798 7.94822 11.9656 8.08317 11.9472L7.68182 11.9888ZM7.68182 11.9888C8.05707 11.944 8.42076 11.8595 8.76666 11.757L8.76675 11.7569C9.87312 11.4288 10.9209 10.9377 11.8176 10.1623L11.819 10.1611C11.832 10.1498 11.84 10.1428 11.8478 10.1364L11.8479 10.1365L11.8576 10.128C12.1501 9.87176 12.5083 9.53684 12.7819 9.14322C13.056 8.74881 13.2775 8.2486 13.2165 7.67608L13.2165 7.67583C13.2097 7.61245 13.1981 7.5519 13.1823 7.49411C13.2405 7.55916 13.2858 7.63018 13.3191 7.70728C13.3697 7.87189 13.3844 8.06382 13.3672 8.26521L13.3672 8.26564C13.3349 8.64766 13.18 9.02972 12.9385 9.37997L12.9384 9.38021C12.5301 9.97304 11.9187 10.4512 11.2358 10.8544L11.2356 10.8544C10.6672 11.1903 10.0834 11.4499 9.45281 11.6388L9.45272 11.6389C8.99653 11.7757 8.54122 11.8851 8.08321 11.9472L7.68182 11.9888ZM5.28913 10.5345C5.31201 10.5826 5.33725 10.6289 5.36483 10.6747L5.25333 10.4526C5.2587 10.4644 5.26374 10.4763 5.26879 10.4883C5.27531 10.5038 5.28185 10.5192 5.28913 10.5345Z" fill="#00CE2D" stroke="#00CE2D"/>
<mask id="path-10-inside-4_1984_103424" fill="white">
<path fill-rule="evenodd" clip-rule="evenodd" d="M5.60547 10.398C5.60547 10.398 7.23035 11.8135 10.0201 10.2969C9.70905 10.6506 6.23571 12.2683 5.60547 10.398Z"/>
</mask>
<path fill-rule="evenodd" clip-rule="evenodd" d="M5.60547 10.398C5.60547 10.398 7.23035 11.8135 10.0201 10.2969C9.70905 10.6506 6.23571 12.2683 5.60547 10.398Z" fill="#00CE2D"/>
<path d="M5.60547 10.398L6.26231 9.64399L3.47919 7.21959L4.65782 10.7173L5.60547 10.398ZM10.0201 10.2969L10.7711 10.9572L9.54244 9.41831L10.0201 10.2969ZM5.60547 10.398C4.94863 11.152 4.94914 11.1525 4.94966 11.1529C4.94985 11.1531 4.95038 11.1536 4.95074 11.1539C4.95148 11.1545 4.95224 11.1552 4.95302 11.1559C4.9546 11.1572 4.95629 11.1587 4.95808 11.1602C4.96168 11.1633 4.96571 11.1667 4.97019 11.1704C4.97913 11.1778 4.98985 11.1866 5.00232 11.1965C5.02725 11.2163 5.05926 11.2408 5.09827 11.2687C5.17619 11.3246 5.28263 11.3947 5.41677 11.4693C5.68489 11.6185 6.06683 11.7873 6.55398 11.8933C7.55034 12.1101 8.89836 12.0449 10.4977 11.1754L9.54244 9.41831C8.35205 10.0655 7.49278 10.0508 6.97927 9.93904C6.71149 9.88077 6.51285 9.79046 6.38912 9.72163C6.32734 9.68725 6.28504 9.65867 6.2632 9.64302C6.25233 9.63523 6.24671 9.63078 6.24648 9.63059C6.24637 9.6305 6.24762 9.63149 6.25024 9.63368C6.25156 9.63478 6.25322 9.63617 6.25523 9.63789C6.25623 9.63874 6.25733 9.63968 6.25851 9.6407C6.2591 9.6412 6.25971 9.64173 6.26034 9.64228C6.26066 9.64256 6.26115 9.64298 6.26131 9.64312C6.26181 9.64355 6.26231 9.64399 5.60547 10.398ZM9.26907 9.63656C9.34655 9.54845 9.38613 9.54297 9.25821 9.61856C9.16889 9.67134 9.03801 9.74004 8.87427 9.81438C8.54459 9.96407 8.12933 10.1151 7.71956 10.2044C7.2926 10.2974 6.96514 10.3027 6.76221 10.2514C6.61746 10.2149 6.58512 10.1737 6.55311 10.0787L4.65782 10.7173C4.94093 11.5575 5.57911 12.0155 6.27258 12.1906C6.90787 12.351 7.58636 12.2804 8.14539 12.1585C8.72161 12.033 9.27239 11.8301 9.70113 11.6355C9.9166 11.5376 10.113 11.4365 10.2756 11.3404C10.3997 11.2671 10.6158 11.1337 10.7711 10.9572L9.26907 9.63656Z" fill="#00CE2D" mask="url(#path-10-inside-4_1984_103424)"/>
</svg>
