<svg width="26" height="26" viewBox="0 0 26 26" fill="none" xmlns="http://www.w3.org/2000/svg">
<path d="M9.98418 9.98497C10.0842 9.88499 10.2198 9.82882 10.3612 9.82882C10.5025 9.82882 10.6382 9.88499 10.7381 9.98497L13 12.2468L15.2619 9.98497C15.3618 9.88499 15.4975 9.82882 15.6388 9.82882C15.7802 9.82882 15.9158 9.88499 16.0158 9.98497C16.1158 10.0849 16.172 10.2206 16.172 10.3619C16.172 10.5033 16.1158 10.6389 16.0158 10.7389L13.754 13.0008L16.0158 15.2627C16.1158 15.3626 16.172 15.4982 16.172 15.6396C16.172 15.781 16.1158 15.9166 16.0158 16.0166C15.9158 16.1166 15.7802 16.1728 15.6388 16.1728C15.4975 16.1728 15.3618 16.1166 15.2619 16.0166L13 13.7547L10.7381 16.0166C10.6382 16.1166 10.5025 16.1728 10.3612 16.1728C10.2198 16.1728 10.0842 16.1166 9.98418 16.0166C9.8842 15.9166 9.82803 15.781 9.82803 15.6396C9.82803 15.4982 9.8842 15.3626 9.98418 15.2627L12.246 13.0008L9.98418 10.7389C9.8842 10.6389 9.82803 10.5033 9.82803 10.3619C9.82803 10.2206 9.8842 10.0849 9.98418 9.98497ZM6.96836 19.0324C8.56805 20.6321 10.7377 21.5308 13 21.5308C15.2623 21.5308 17.432 20.6321 19.0316 19.0324C20.6313 17.4327 21.53 15.2631 21.53 13.0008C21.53 10.7385 20.6313 8.56884 19.0316 6.96914C17.432 5.36945 15.2623 4.47076 13 4.47076C10.7377 4.47076 8.56805 5.36945 6.96836 6.96914C5.36866 8.56884 4.46997 10.7385 4.46997 13.0008C4.46997 15.2631 5.36866 17.4327 6.96836 19.0324ZM7.72231 18.2785C7.02923 17.5854 6.47946 16.7626 6.10437 15.8571C5.72928 14.9515 5.53622 13.9809 5.53622 13.0008C5.53622 12.0206 5.72928 11.0501 6.10437 10.1445C6.47946 9.23898 7.02923 8.41618 7.72231 7.7231C8.41539 7.03002 9.23819 6.48025 10.1437 6.10516C11.0493 5.73007 12.0198 5.53701 13 5.53701C13.9802 5.53701 14.9507 5.73007 15.8563 6.10516C16.7618 6.48025 17.5846 7.03002 18.2777 7.7231C19.6774 9.12283 20.4638 11.0213 20.4638 13.0008C20.4638 14.9803 19.6774 16.8787 18.2777 18.2785C16.878 19.6782 14.9795 20.4646 13 20.4646C11.0205 20.4646 9.12204 19.6782 7.72231 18.2785Z" fill="#FF0000"/>
</svg>
