<svg width="20" height="21" viewBox="0 0 20 21" fill="none" xmlns="http://www.w3.org/2000/svg">
<path d="M12.1073 8.88965L7.89063 13.1063C7.34896 12.5646 7.01562 11.823 7.01562 10.998C7.01562 9.34798 8.34896 8.01465 9.99896 8.01465C10.824 8.01465 11.5656 8.34798 12.1073 8.88965Z" stroke="#474747" stroke-width="1.5" stroke-linecap="round" stroke-linejoin="round"/>
<path d="M14.8479 5.80645C13.3896 4.70645 11.7229 4.10645 9.99792 4.10645C7.05625 4.10645 4.31458 5.83978 2.40625 8.83978C1.65625 10.0148 1.65625 11.9898 2.40625 13.1648C3.06458 14.1981 3.83125 15.0898 4.66458 15.8064" stroke="#474747" stroke-width="1.5" stroke-linecap="round" stroke-linejoin="round"/>
<path d="M7.01562 17.2731C7.96563 17.6731 8.97396 17.8898 9.99896 17.8898C12.9406 17.8898 15.6823 16.1564 17.5906 13.1564C18.3406 11.9814 18.3406 10.0064 17.5906 8.83145C17.3156 8.39811 17.0156 7.98978 16.7073 7.60645" stroke="#474747" stroke-width="1.5" stroke-linecap="round" stroke-linejoin="round"/>
<path d="M12.9281 11.5811C12.7115 12.7561 11.7531 13.7144 10.5781 13.9311" stroke="#474747" stroke-width="1.5" stroke-linecap="round" stroke-linejoin="round"/>
<path d="M7.88906 13.1064L1.66406 19.3314" stroke="#474747" stroke-width="1.5" stroke-linecap="round" stroke-linejoin="round"/>
<path d="M18.3344 2.66504L12.1094 8.89004" stroke="#474747" stroke-width="1.5" stroke-linecap="round" stroke-linejoin="round"/>
</svg>
