<svg width="20" height="20" viewBox="0 0 20 20" fill="none" xmlns="http://www.w3.org/2000/svg">
<path d="M12.9823 9.99993C12.9823 11.6499 11.649 12.9833 9.99896 12.9833C8.34896 12.9833 7.01562 11.6499 7.01562 9.99993C7.01562 8.34993 8.34896 7.0166 9.99896 7.0166C11.649 7.0166 12.9823 8.34993 12.9823 9.99993Z" stroke="#474747" stroke-width="1.5" stroke-linecap="round" stroke-linejoin="round"/>
<path d="M9.99792 16.8913C12.9396 16.8913 15.6813 15.1579 17.5896 12.1579C18.3396 10.9829 18.3396 9.00794 17.5896 7.83294C15.6813 4.83294 12.9396 3.09961 9.99792 3.09961C7.05625 3.09961 4.31458 4.83294 2.40625 7.83294C1.65625 9.00794 1.65625 10.9829 2.40625 12.1579C4.31458 15.1579 7.05625 16.8913 9.99792 16.8913Z" stroke="#474747" stroke-width="1.5" stroke-linecap="round" stroke-linejoin="round"/>
</svg>
