<svg width="20" height="20" viewBox="0 0 20 20" fill="none" xmlns="http://www.w3.org/2000/svg">
<path d="M3.70759 11.5908L9.50144 17.0335C9.64658 17.1699 9.71916 17.2381 9.79808 17.2726C9.92596 17.3286 10.0714 17.3286 10.1993 17.2726C10.2782 17.2381 10.3508 17.1699 10.496 17.0335L16.2898 11.5908C17.9199 10.0595 18.1179 7.53948 16.7469 5.77237L16.4891 5.4401C14.8489 3.32614 11.5567 3.68066 10.4043 6.09536C10.2415 6.43645 9.75593 6.43645 9.59314 6.09536C8.44067 3.68066 5.14846 3.32614 3.50832 5.4401L3.25052 5.77238C1.87949 7.53949 2.07744 10.0595 3.70759 11.5908Z" fill="white" fill-opacity="0.86" stroke="#F26222"/>
</svg>
