<svg width="31" height="31" viewBox="0 0 31 31" fill="none" xmlns="http://www.w3.org/2000/svg">
<g clip-path="url(#clip0_2091_222772)">
<rect x="1.03516" y="1" width="29" height="29" rx="14.5" fill="white" stroke="#F26222"/>
<g clip-path="url(#clip1_2091_222772)">
<path d="M15.2254 14.8619C17.8242 14.8619 19.9313 12.8864 19.9313 10.4495C19.9313 8.01259 17.8242 6.03711 15.2254 6.03711C12.6266 6.03711 10.5195 8.01259 10.5195 10.4495C10.5195 11.5589 10.9566 12.5737 11.6784 13.349C11.6213 13.9895 11.4331 14.6917 11.2248 15.2186C11.1784 15.3359 11.2684 15.467 11.3854 15.4468C12.7125 15.2136 13.5013 14.8555 13.8442 14.669C14.2948 14.7977 14.7591 14.8626 15.2254 14.8619Z" stroke="#F26222" stroke-width="0.8"/>
<mask id="path-3-inside-1_2091_222772" fill="white">
<path d="M13.2001 10.6592C13.2001 10.8152 13.1483 10.9374 13.0443 11.0262C12.9386 11.1139 12.7926 11.1578 12.6058 11.1578H11.668V10.7931H12.4448C12.5359 10.7931 12.6023 10.7784 12.6437 10.7493C12.6851 10.7191 12.706 10.6726 12.706 10.609C12.706 10.5504 12.6862 10.5045 12.6465 10.4713C12.6051 10.4395 12.538 10.4238 12.4452 10.4238L11.8112 10.4261V10.0618H12.4333C12.5272 10.0618 12.5947 10.0478 12.6361 10.0193C12.6757 9.99184 12.6955 9.9463 12.6955 9.88268C12.6955 9.82241 12.6757 9.77754 12.6361 9.74741C12.6159 9.731 12.5891 9.71928 12.5561 9.71191C12.5213 9.70555 12.4806 9.7022 12.4333 9.7022H11.668V9.33789H12.5665C12.7745 9.33789 12.932 9.37807 13.0391 9.45843C13.1448 9.5398 13.1977 9.66604 13.1977 9.83748C13.1977 9.92354 13.1779 9.99988 13.1382 10.0665C13.0968 10.1331 13.0433 10.1917 12.9772 10.242C13.0499 10.2852 13.1027 10.3367 13.1358 10.3967C13.1786 10.467 13.2001 10.5544 13.2001 10.6592Z"/>
</mask>
<path d="M13.2001 10.6592C13.2001 10.8152 13.1483 10.9374 13.0443 11.0262C12.9386 11.1139 12.7926 11.1578 12.6058 11.1578H11.668V10.7931H12.4448C12.5359 10.7931 12.6023 10.7784 12.6437 10.7493C12.6851 10.7191 12.706 10.6726 12.706 10.609C12.706 10.5504 12.6862 10.5045 12.6465 10.4713C12.6051 10.4395 12.538 10.4238 12.4452 10.4238L11.8112 10.4261V10.0618H12.4333C12.5272 10.0618 12.5947 10.0478 12.6361 10.0193C12.6757 9.99184 12.6955 9.9463 12.6955 9.88268C12.6955 9.82241 12.6757 9.77754 12.6361 9.74741C12.6159 9.731 12.5891 9.71928 12.5561 9.71191C12.5213 9.70555 12.4806 9.7022 12.4333 9.7022H11.668V9.33789H12.5665C12.7745 9.33789 12.932 9.37807 13.0391 9.45843C13.1448 9.5398 13.1977 9.66604 13.1977 9.83748C13.1977 9.92354 13.1779 9.99988 13.1382 10.0665C13.0968 10.1331 13.0433 10.1917 12.9772 10.242C13.0499 10.2852 13.1027 10.3367 13.1358 10.3967C13.1786 10.467 13.2001 10.5544 13.2001 10.6592Z" fill="#F26222"/>
<path d="M13.0443 11.0262L13.683 11.7958L13.6935 11.7868L13.0443 11.0262ZM11.668 11.1578H10.668V12.1578H11.668V11.1578ZM11.668 10.7931V9.79313H10.668V10.7931H11.668ZM12.6437 10.7493L13.2194 11.567L13.2259 11.5623L13.2324 11.5576L12.6437 10.7493ZM12.6465 10.4713L13.288 9.70421L13.2722 9.69104L13.256 9.67852L12.6465 10.4713ZM12.4452 10.4238V9.42379L12.4415 9.4238L12.4452 10.4238ZM11.8112 10.4261H10.8112V11.4298L11.8149 11.4261L11.8112 10.4261ZM11.8112 10.0618V9.06183H10.8112V10.0618H11.8112ZM12.6361 10.0193L13.2028 10.8432L13.2055 10.8414L12.6361 10.0193ZM12.6361 9.74741L12.005 10.5231L12.0178 10.5335L12.0309 10.5435L12.6361 9.74741ZM12.5561 9.71191L12.7737 8.73589L12.755 8.7317L12.7361 8.72824L12.5561 9.71191ZM11.668 9.7022H10.668V10.7022H11.668V9.7022ZM11.668 9.33789V8.33789H10.668V9.33789H11.668ZM13.0391 9.45843L13.6491 8.66593L13.6393 8.65856L13.0391 9.45843ZM13.1382 10.0665L13.9877 10.5941L13.9928 10.586L13.9976 10.5778L13.1382 10.0665ZM12.9772 10.242L12.372 9.44589L11.191 10.3437L12.4663 11.1016L12.9772 10.242ZM13.1358 10.3967L12.26 10.8794L12.2703 10.8981L12.2814 10.9164L13.1358 10.3967ZM12.2001 10.6592C12.2001 10.6263 12.2058 10.5595 12.2407 10.4773C12.277 10.3916 12.3327 10.3188 12.3952 10.2655L13.6935 11.7868C14.0534 11.4797 14.2001 11.0611 14.2001 10.6592H12.2001ZM12.4057 10.2567C12.5346 10.1497 12.6428 10.1578 12.6058 10.1578V12.1578C12.9424 12.1578 13.3426 12.0782 13.6829 11.7957L12.4057 10.2567ZM12.6058 10.1578H11.668V12.1578H12.6058V10.1578ZM12.668 11.1578V10.7931H10.668V11.1578H12.668ZM11.668 11.7931H12.4448V9.79313H11.668V11.7931ZM12.4448 11.7931C12.5996 11.7931 12.9219 11.7764 13.2194 11.567L12.0681 9.93156C12.1857 9.84875 12.2926 9.81773 12.3473 9.80565C12.404 9.79313 12.4404 9.79313 12.4448 9.79313V11.7931ZM13.2324 11.5576C13.592 11.2957 13.706 10.9103 13.706 10.609H11.706C11.706 10.5332 11.7183 10.4165 11.7767 10.2853C11.8381 10.1471 11.9352 10.0282 12.055 9.94091L13.2324 11.5576ZM13.706 10.609C13.706 10.2987 13.5869 9.95417 13.288 9.70421L12.005 11.2385C11.9092 11.1584 11.8273 11.0527 11.7731 10.9273C11.7204 10.8052 11.706 10.6928 11.706 10.609H13.706ZM13.256 9.67852C12.9478 9.44162 12.6041 9.42379 12.4452 9.42379V11.4238C12.4395 11.4238 12.3984 11.4237 12.3357 11.409C12.2739 11.3944 12.159 11.3579 12.0371 11.2642L13.256 9.67852ZM12.4415 9.4238L11.8075 9.42615L11.8149 11.4261L12.4489 11.4238L12.4415 9.4238ZM12.8112 10.4261V10.0618H10.8112V10.4261H12.8112ZM11.8112 11.0618H12.4333V9.06183H11.8112V11.0618ZM12.4333 11.0618C12.5773 11.0618 12.9024 11.0498 13.2028 10.8432L12.0694 9.19537C12.1906 9.11198 12.2992 9.08298 12.3494 9.07247C12.3775 9.06659 12.399 9.0641 12.4117 9.06298C12.4247 9.06185 12.4323 9.06183 12.4333 9.06183V11.0618ZM13.2055 10.8414C13.5977 10.5697 13.6955 10.1587 13.6955 9.88268H11.6955C11.6955 9.81424 11.7058 9.69865 11.7638 9.56546C11.8258 9.42303 11.9288 9.29271 12.0667 9.19723L13.2055 10.8414ZM13.6955 9.88268C13.6955 9.58123 13.5814 9.20989 13.2413 8.95132L12.0309 10.5435C11.918 10.4576 11.825 10.3419 11.7654 10.2066C11.7084 10.0771 11.6955 9.96104 11.6955 9.88268H13.6955ZM13.2671 8.97167C13.0924 8.82949 12.9084 8.7659 12.7737 8.73589L12.3385 10.6879C12.2699 10.6727 12.1395 10.6325 12.005 10.5231L13.2671 8.97167ZM12.7361 8.72824C12.6286 8.70858 12.5258 8.7022 12.4333 8.7022V10.7022C12.4355 10.7022 12.414 10.7025 12.3761 10.6956L12.7361 8.72824ZM12.4333 8.7022H11.668V10.7022H12.4333V8.7022ZM12.668 9.7022V9.33789H10.668V9.7022H12.668ZM11.668 10.3379H12.5665V8.33789H11.668V10.3379ZM12.5665 10.3379C12.6091 10.3379 12.6143 10.3423 12.5935 10.337C12.5712 10.3313 12.5107 10.3122 12.4389 10.2583L13.6393 8.65856C13.2868 8.3941 12.8787 8.33789 12.5665 8.33789V10.3379ZM12.4292 10.2509C12.3406 10.1827 12.2744 10.0931 12.2355 10.0002C12.1997 9.91451 12.1977 9.85207 12.1977 9.83748H14.1977C14.1977 9.45207 14.0682 8.98858 13.6491 8.66599L12.4292 10.2509ZM12.1977 9.83748C12.1977 9.76388 12.2166 9.65984 12.2788 9.55523L13.9976 10.5778C14.1391 10.3399 14.1977 10.0832 14.1977 9.83748H12.1977ZM12.2887 9.53895C12.3143 9.49771 12.345 9.46645 12.372 9.44589L13.5824 11.0381C13.7416 10.917 13.8794 10.7686 13.9877 10.5941L12.2887 9.53895ZM12.4663 11.1016C12.4217 11.0751 12.331 11.0081 12.26 10.8794L14.0116 9.91397C13.8745 9.66536 13.678 9.49521 13.4881 9.38234L12.4663 11.1016ZM12.2814 10.9164C12.2069 10.7938 12.2001 10.69 12.2001 10.6592H14.2001C14.2001 10.4187 14.1502 10.1402 13.9901 9.87699L12.2814 10.9164Z" fill="#F26222" mask="url(#path-3-inside-1_2091_222772)"/>
<mask id="path-5-inside-2_2091_222772" fill="white">
<path d="M15.0739 10.5996C15.0739 10.7905 15.0019 10.9351 14.8583 11.0335C14.7147 11.132 14.5078 11.1809 14.2372 11.1809C13.918 11.1809 13.6819 11.1069 13.5289 10.9589C13.3769 10.8119 13.3008 10.5812 13.3008 10.2664C13.3008 9.94865 13.3822 9.71426 13.5452 9.56324C13.7059 9.4129 13.9563 9.33789 14.2967 9.33789H14.9758L14.9745 9.7022H14.287C14.1162 9.7022 13.9924 9.73401 13.9156 9.7973C13.8794 9.82743 13.852 9.86561 13.8332 9.91182C13.812 9.9607 13.8015 10.0166 13.8015 10.0799H14.4149C14.6361 10.0799 14.8013 10.1224 14.9105 10.2071C15.0193 10.2929 15.0739 10.4235 15.0739 10.5996ZM14.5832 10.619C14.5832 10.5604 14.5676 10.5162 14.5363 10.4861C14.505 10.4586 14.4574 10.4446 14.393 10.4446H13.804C13.804 10.5688 13.8401 10.6629 13.9128 10.7262C13.9837 10.7911 14.0975 10.8236 14.2536 10.8236C14.3729 10.8236 14.457 10.8069 14.5071 10.7737C14.5582 10.7406 14.5832 10.689 14.5832 10.619Z"/>
</mask>
<path d="M15.0739 10.5996C15.0739 10.7905 15.0019 10.9351 14.8583 11.0335C14.7147 11.132 14.5078 11.1809 14.2372 11.1809C13.918 11.1809 13.6819 11.1069 13.5289 10.9589C13.3769 10.8119 13.3008 10.5812 13.3008 10.2664C13.3008 9.94865 13.3822 9.71426 13.5452 9.56324C13.7059 9.4129 13.9563 9.33789 14.2967 9.33789H14.9758L14.9745 9.7022H14.287C14.1162 9.7022 13.9924 9.73401 13.9156 9.7973C13.8794 9.82743 13.852 9.86561 13.8332 9.91182C13.812 9.9607 13.8015 10.0166 13.8015 10.0799H14.4149C14.6361 10.0799 14.8013 10.1224 14.9105 10.2071C15.0193 10.2929 15.0739 10.4235 15.0739 10.5996ZM14.5832 10.619C14.5832 10.5604 14.5676 10.5162 14.5363 10.4861C14.505 10.4586 14.4574 10.4446 14.393 10.4446H13.804C13.804 10.5688 13.8401 10.6629 13.9128 10.7262C13.9837 10.7911 14.0975 10.8236 14.2536 10.8236C14.3729 10.8236 14.457 10.8069 14.5071 10.7737C14.5582 10.7406 14.5832 10.689 14.5832 10.619Z" fill="#F26222"/>
<path d="M13.5289 10.9589L12.8336 11.6776L12.8336 11.6776L13.5289 10.9589ZM13.5452 9.56324L14.2247 10.297L14.2285 10.2934L13.5452 9.56324ZM14.9758 9.33789L15.9758 9.34171L15.9797 8.33789H14.9758V9.33789ZM14.9745 9.7022V10.7022H15.9706L15.9745 9.70602L14.9745 9.7022ZM13.9156 9.7973L13.2799 9.02534L13.2754 9.02906L13.9156 9.7973ZM13.8332 9.91182L14.7505 10.3099L14.7552 10.2991L14.7596 10.2883L13.8332 9.91182ZM13.8015 10.0799H12.8015V11.0799H13.8015V10.0799ZM14.9105 10.2071L15.5292 9.42152L15.5235 9.41706L14.9105 10.2071ZM14.5363 10.4861L15.2299 9.76574L15.2132 9.74966L15.1958 9.73437L14.5363 10.4861ZM13.804 10.4446V9.44456H12.804V10.4446H13.804ZM13.9128 10.7262L14.5881 9.98866L14.5789 9.98021L14.5695 9.97201L13.9128 10.7262ZM14.5071 10.7737L13.963 9.93465L13.9551 9.93987L14.5071 10.7737ZM14.0739 10.5996C14.0739 10.5683 14.0803 10.4949 14.1245 10.4061C14.1703 10.3139 14.2355 10.2481 14.2929 10.2087L15.4237 11.8584C15.8681 11.5537 16.0739 11.0837 16.0739 10.5996H14.0739ZM14.2929 10.2087C14.3425 10.1747 14.3745 10.1688 14.3648 10.1711C14.3604 10.1721 14.3481 10.1747 14.3262 10.1769C14.3044 10.1792 14.2751 10.1809 14.2372 10.1809V12.1809C14.6048 12.1809 15.0442 12.1185 15.4237 11.8584L14.2929 10.2087ZM14.2372 10.1809C14.1956 10.1809 14.1656 10.1784 14.1455 10.1758C14.1254 10.1731 14.1178 10.1705 14.1198 10.1711C14.1221 10.1719 14.1351 10.1762 14.1548 10.1874C14.1749 10.1989 14.1993 10.2161 14.2242 10.2401L12.8336 11.6776C13.2481 12.0786 13.786 12.1809 14.2372 12.1809V10.1809ZM14.2242 10.2401C14.2509 10.266 14.271 10.2925 14.2852 10.3161C14.2991 10.3391 14.3055 10.356 14.3076 10.3625C14.3096 10.3687 14.3078 10.365 14.3055 10.3485C14.3032 10.332 14.3008 10.3052 14.3008 10.2664H12.3008C12.3008 10.721 12.4094 11.2672 12.8336 11.6776L14.2242 10.2401ZM14.3008 10.2664C14.3008 10.1894 14.3111 10.1672 14.3064 10.1806C14.3037 10.1884 14.2968 10.2056 14.2827 10.2278C14.2682 10.2505 14.2489 10.2745 14.2247 10.297L12.8658 8.82949C12.4231 9.23946 12.3008 9.79263 12.3008 10.2664H14.3008ZM14.2285 10.2934C14.1768 10.3418 14.1357 10.3536 14.1407 10.3521C14.144 10.3511 14.1576 10.3474 14.1843 10.344C14.2109 10.3406 14.2479 10.3379 14.2967 10.3379V8.33789C13.8371 8.33789 13.2871 8.43527 12.862 8.83309L14.2285 10.2934ZM14.2967 10.3379H14.9758V8.33789H14.2967V10.3379ZM13.9759 9.33407L13.9745 9.69838L15.9745 9.70602L15.9758 9.34171L13.9759 9.33407ZM14.9745 8.7022H14.287V10.7022H14.9745V8.7022ZM14.287 8.7022C14.0339 8.7022 13.6246 8.74148 13.2799 9.02535L14.5513 10.5692C14.4494 10.6532 14.3558 10.6841 14.3143 10.6947C14.2734 10.7052 14.2594 10.7022 14.287 10.7022V8.7022ZM13.2754 9.02906C13.1056 9.17057 12.9835 9.34636 12.9067 9.53534L14.7596 10.2883C14.7204 10.3849 14.6532 10.4843 14.5558 10.5655L13.2754 9.02906ZM12.9158 9.51377C12.8302 9.71096 12.8015 9.90677 12.8015 10.0799H14.8015C14.8015 10.1265 14.7937 10.2104 14.7505 10.3099L12.9158 9.51377ZM13.8015 11.0799H14.4149V9.07991H13.8015V11.0799ZM14.4149 11.0799C14.4648 11.0799 14.4743 11.085 14.4558 11.0803C14.436 11.0752 14.3728 11.0557 14.2975 10.9972L15.5235 9.41706C15.1617 9.13636 14.735 9.07991 14.4149 9.07991V11.0799ZM14.2918 10.9928C14.2095 10.9279 14.147 10.8429 14.11 10.7542C14.0758 10.6722 14.0739 10.6128 14.0739 10.5996H16.0739C16.0739 10.2062 15.9411 9.74595 15.5292 9.42154L14.2918 10.9928ZM15.5832 10.619C15.5832 10.3857 15.5174 10.0425 15.2299 9.76574L13.8427 11.2064C13.6178 10.9899 13.5832 10.7351 13.5832 10.619H15.5832ZM15.1958 9.73437C14.9083 9.48217 14.5797 9.44456 14.393 9.44456V11.4446C14.3351 11.4446 14.1017 11.4351 13.8768 11.2378L15.1958 9.73437ZM14.393 9.44456H13.804V11.4446H14.393V9.44456ZM12.804 10.4446C12.804 10.7663 12.9046 11.1742 13.2561 11.4803L14.5695 9.97201C14.6619 10.0525 14.7265 10.1508 14.7641 10.2481C14.7994 10.3397 14.804 10.4118 14.804 10.4446H12.804ZM13.2375 11.4637C13.5785 11.7759 13.9949 11.8236 14.2536 11.8236V9.8236C14.2405 9.8236 14.2701 9.82176 14.3261 9.83775C14.3847 9.85451 14.486 9.89514 14.5881 9.98866L13.2375 11.4637ZM14.2536 11.8236C14.4116 11.8236 14.7506 11.8118 15.0591 11.6075L13.9551 9.93987C14.0745 9.86084 14.177 9.83705 14.2127 9.83001C14.2531 9.82204 14.2707 9.8236 14.2536 9.8236V11.8236ZM15.0512 11.6127C15.4376 11.3622 15.5832 10.9622 15.5832 10.619H13.5832C13.5832 10.5357 13.5983 10.4089 13.6666 10.2697C13.738 10.1242 13.8454 10.011 13.963 9.93469L15.0512 11.6127Z" fill="#F26222" mask="url(#path-5-inside-2_2091_222772)"/>
<mask id="path-7-inside-3_2091_222772" fill="white">
<path d="M16.7982 10.6066C16.7982 10.7844 16.7402 10.921 16.6247 11.0161C16.5082 11.1106 16.3437 11.1574 16.1316 11.1574H15.1367V10.7931H16.0454C16.1347 10.7931 16.198 10.7784 16.2342 10.7493C16.269 10.7208 16.286 10.6733 16.286 10.6066C16.286 10.5383 16.2686 10.4891 16.2342 10.4593C16.198 10.4308 16.1347 10.4168 16.0454 10.4168H15.1367V9.33789H16.7057L16.7043 9.7022H15.6016V10.0545H16.2161C16.3945 10.0545 16.5371 10.102 16.6445 10.1971C16.6943 10.2467 16.7328 10.3049 16.76 10.3716C16.7854 10.4395 16.7982 10.5182 16.7982 10.6066Z"/>
</mask>
<path d="M16.7982 10.6066C16.7982 10.7844 16.7402 10.921 16.6247 11.0161C16.5082 11.1106 16.3437 11.1574 16.1316 11.1574H15.1367V10.7931H16.0454C16.1347 10.7931 16.198 10.7784 16.2342 10.7493C16.269 10.7208 16.286 10.6733 16.286 10.6066C16.286 10.5383 16.2686 10.4891 16.2342 10.4593C16.198 10.4308 16.1347 10.4168 16.0454 10.4168H15.1367V9.33789H16.7057L16.7043 9.7022H15.6016V10.0545H16.2161C16.3945 10.0545 16.5371 10.102 16.6445 10.1971C16.6943 10.2467 16.7328 10.3049 16.76 10.3716C16.7854 10.4395 16.7982 10.5182 16.7982 10.6066Z" fill="#F26222"/>
<path d="M16.6247 11.0161L17.2544 11.793L17.2605 11.788L16.6247 11.0161ZM15.1367 11.1574H14.1367V12.1574H15.1367V11.1574ZM15.1367 10.7931V9.79313H14.1367V10.7931H15.1367ZM16.2342 10.7493L16.8615 11.5281L16.8676 11.5231L16.2342 10.7493ZM16.2342 10.4593L16.8887 9.70322L16.871 9.68792L16.8526 9.67346L16.2342 10.4593ZM15.1367 10.4168H14.1367V11.4168H15.1367V10.4168ZM15.1367 9.33789V8.33789H14.1367V9.33789H15.1367ZM16.7057 9.33789L17.7057 9.34171L17.7096 8.33789H16.7057V9.33789ZM16.7043 9.7022V10.7022H17.7005L17.7043 9.70602L16.7043 9.7022ZM15.6016 9.7022V8.7022H14.6016V9.7022H15.6016ZM15.6016 10.0545H14.6016V11.0545H15.6016V10.0545ZM16.6445 10.1971L17.3504 9.48879L17.3294 9.46788L17.3073 9.44825L16.6445 10.1971ZM16.76 10.3716L17.6968 10.0217L17.6917 10.008L17.6862 9.99454L16.76 10.3716ZM15.7982 10.6066C15.7982 10.5872 15.8015 10.5289 15.8341 10.452C15.8687 10.3705 15.9236 10.298 15.9889 10.2443L17.2605 11.788C17.6499 11.4672 17.7982 11.0221 17.7982 10.6066H15.7982ZM15.995 10.2393C16.0553 10.1904 16.1102 10.169 16.1389 10.1608C16.1649 10.1534 16.1663 10.1574 16.1316 10.1574V12.1574C16.4779 12.1574 16.8978 12.082 17.2544 11.793L15.995 10.2393ZM16.1316 10.1574H15.1367V12.1574H16.1316V10.1574ZM16.1367 11.1574V10.7931H14.1367V11.1574H16.1367ZM15.1367 11.7931H16.0454V9.79313H15.1367V11.7931ZM16.0454 11.7931C16.1823 11.7931 16.5451 11.7829 16.8615 11.528L15.6069 9.9705C15.7429 9.86094 15.8726 9.82221 15.9333 9.80809C15.9979 9.79308 16.0401 9.79313 16.0454 9.79313V11.7931ZM16.8676 11.5231C17.2319 11.2249 17.286 10.8189 17.286 10.6066H15.286C15.286 10.5276 15.306 10.2167 15.6008 9.97542L16.8676 11.5231ZM17.286 10.6066C17.286 10.3931 17.2325 10.0008 16.8887 9.70322L15.5797 11.2154C15.3048 10.9774 15.286 10.6836 15.286 10.6066H17.286ZM16.8526 9.67346C16.5359 9.42418 16.1748 9.41676 16.0454 9.41676V11.4168C16.0428 11.4168 16.0029 11.417 15.9407 11.4031C15.8829 11.3901 15.7532 11.3533 15.6157 11.2451L16.8526 9.67346ZM16.0454 9.41676H15.1367V11.4168H16.0454V9.41676ZM16.1367 10.4168V9.33789H14.1367V10.4168H16.1367ZM15.1367 10.3379H16.7057V8.33789H15.1367V10.3379ZM15.7057 9.33407L15.7043 9.69839L17.7043 9.70602L17.7057 9.34171L15.7057 9.33407ZM16.7043 8.7022H15.6016V10.7022H16.7043V8.7022ZM14.6016 9.7022V10.0545H16.6016V9.7022H14.6016ZM15.6016 11.0545H16.2161V9.05446H15.6016V11.0545ZM16.2161 11.0545C16.2172 11.0545 16.1883 11.0547 16.1409 11.0389C16.0905 11.0221 16.0337 10.9919 15.9818 10.946L17.3073 9.44825C16.9759 9.15495 16.5775 9.05446 16.2161 9.05446V11.0545ZM15.9386 10.9054C15.8914 10.8584 15.8561 10.8033 15.8338 10.7486L17.6862 9.99454C17.6096 9.8065 17.4971 9.63492 17.3504 9.48879L15.9386 10.9054ZM15.8232 10.7214C15.799 10.6567 15.7982 10.6133 15.7982 10.6066H17.7982C17.7982 10.4232 17.7717 10.2224 17.6968 10.0217L15.8232 10.7214Z" fill="#F26222" mask="url(#path-7-inside-3_2091_222772)"/>
<mask id="path-9-inside-4_2091_222772" fill="white">
<path fill-rule="evenodd" clip-rule="evenodd" d="M17.0234 11.7336L17.7179 11.1309L18.4739 11.3421C18.4739 11.3421 18.9725 11.5434 18.694 11.8802C18.5684 11.9994 18.4495 12.1123 18.0107 11.9984C17.8862 11.9586 17.0234 11.7336 17.0234 11.7336Z"/>
</mask>
<path fill-rule="evenodd" clip-rule="evenodd" d="M17.0234 11.7336L17.7179 11.1309L18.4739 11.3421C18.4739 11.3421 18.9725 11.5434 18.694 11.8802C18.5684 11.9994 18.4495 12.1123 18.0107 11.9984C17.8862 11.9586 17.0234 11.7336 17.0234 11.7336Z" fill="#F26222"/>
<path d="M17.0234 11.7336L16.368 10.9784L14.9348 12.2223L16.7711 12.7012L17.0234 11.7336ZM17.7179 11.1309L17.987 10.1678L17.4688 10.0229L17.0624 10.3756L17.7179 11.1309ZM18.4739 11.3421L18.8481 10.4148L18.7966 10.394L18.743 10.3791L18.4739 11.3421ZM18.694 11.8802L19.3826 12.6054L19.4263 12.5639L19.4646 12.5175L18.694 11.8802ZM18.0107 11.9984L17.7058 12.9508L17.7325 12.9594L17.7596 12.9664L18.0107 11.9984ZM17.6789 12.4888L18.3733 11.8861L17.0624 10.3756L16.368 10.9784L17.6789 12.4888ZM17.4487 12.094L18.2047 12.3052L18.743 10.3791L17.987 10.1678L17.4487 12.094ZM18.4739 11.3421C18.0996 12.2695 18.0993 12.2693 18.0989 12.2692C18.0988 12.2692 18.0985 12.269 18.0982 12.2689C18.0978 12.2687 18.0973 12.2686 18.0969 12.2684C18.096 12.268 18.0951 12.2677 18.0943 12.2673C18.0926 12.2666 18.091 12.2659 18.0894 12.2653C18.0864 12.264 18.0836 12.2628 18.0811 12.2618C18.0762 12.2596 18.0722 12.2578 18.0689 12.2563C18.0628 12.2534 18.0577 12.2508 18.0528 12.248C18.0508 12.2468 18.0166 12.2284 17.9714 12.1819C17.9292 12.1386 17.8102 12.0007 17.7836 11.7677C17.7699 11.6485 17.7848 11.5338 17.8192 11.4342C17.8521 11.3387 17.8964 11.2755 17.9233 11.243L19.4646 12.5175C19.6651 12.275 19.816 11.9365 19.7706 11.5404C19.7288 11.175 19.5374 10.9236 19.4054 10.7878C19.2704 10.6489 19.1289 10.5592 19.0421 10.5098C18.9947 10.4828 18.9529 10.4618 18.9205 10.4466C18.9042 10.4389 18.8897 10.4325 18.8776 10.4272C18.8716 10.4246 18.8661 10.4222 18.8611 10.4202C18.8587 10.4191 18.8563 10.4182 18.8542 10.4173C18.8531 10.4168 18.852 10.4164 18.851 10.416C18.8505 10.4158 18.85 10.4156 18.8495 10.4154C18.8493 10.4153 18.8489 10.4152 18.8488 10.4151C18.8485 10.415 18.8481 10.4148 18.4739 11.3421ZM18.0054 11.1551C17.9665 11.192 17.984 11.1733 18.0133 11.1523C18.0551 11.1223 18.1168 11.0878 18.1931 11.0658C18.3368 11.0244 18.3984 11.0659 18.2618 11.0305L17.7596 12.9664C18.0618 13.0448 18.4022 13.0868 18.7466 12.9877C19.1073 12.8838 19.3259 12.6592 19.3826 12.6054L18.0054 11.1551ZM18.3155 11.046C18.2219 11.0161 17.9396 10.9409 17.7264 10.8844C17.6097 10.8535 17.4971 10.8239 17.4138 10.8021C17.3721 10.7911 17.3377 10.7821 17.3137 10.7758C17.3017 10.7727 17.2922 10.7702 17.2858 10.7686C17.2826 10.7677 17.2801 10.7671 17.2784 10.7666C17.2776 10.7664 17.2769 10.7662 17.2765 10.7661C17.2763 10.7661 17.2761 10.766 17.276 10.766C17.2759 10.766 17.2759 10.766 17.2759 10.766C17.2758 10.766 17.2758 10.766 17.2758 10.766C17.2758 10.766 17.2758 10.766 17.0234 11.7336C16.7711 12.7012 16.7711 12.7012 16.7711 12.7012C16.7711 12.7012 16.7711 12.7012 16.7711 12.7012C16.7711 12.7012 16.7711 12.7012 16.7712 12.7012C16.7713 12.7013 16.7714 12.7013 16.7716 12.7014C16.772 12.7015 16.7726 12.7016 16.7734 12.7018C16.775 12.7022 16.7774 12.7029 16.7805 12.7037C16.7868 12.7053 16.796 12.7077 16.8078 12.7108C16.8315 12.717 16.8654 12.7259 16.9066 12.7367C16.9889 12.7583 17.0998 12.7874 17.2144 12.8178C17.3293 12.8482 17.4465 12.8794 17.542 12.9053C17.5899 12.9183 17.6307 12.9296 17.6623 12.9384C17.6987 12.9486 17.7096 12.9521 17.7058 12.9508L18.3155 11.046Z" fill="#F26222" mask="url(#path-9-inside-4_2091_222772)"/>
<path d="M14.3759 12.4292C14.3758 12.4292 14.3758 12.4292 14.3757 12.4292L14.3383 12.0189M14.3759 12.4292L14.3383 12.0189M14.3759 12.4292C14.4877 12.419 14.5976 12.4029 14.705 12.3826L14.3759 12.4292ZM14.3383 12.0189C14.3383 12.0189 14.3383 12.0189 14.3383 12.0189M14.3383 12.0189L14.3303 11.9313M14.3383 12.0189C14.1636 12.0251 13.9999 12.0131 13.8495 11.9769L13.8493 11.9768C13.8381 11.9741 13.827 11.9713 13.816 11.9683M14.3383 12.0189L14.3303 11.9313M14.3383 12.0189C14.4393 12.0153 14.544 12.0056 14.6518 11.991L14.3303 11.9313M14.3303 11.9313L13.4609 11.7997C13.4786 11.8087 13.4965 11.8173 13.5147 11.8254C13.598 11.8875 13.6991 11.9363 13.8159 11.9683M13.816 11.9683L13.8247 11.9172L13.8159 11.9683M13.816 11.9683C13.816 11.9683 13.816 11.9683 13.8159 11.9683M13.816 11.9683L13.741 12.4102L13.8159 11.9683" fill="#F26222" stroke="#F26222"/>
<mask id="path-12-inside-5_2091_222772" fill="white">
<path fill-rule="evenodd" clip-rule="evenodd" d="M13.2109 11.2748C13.2109 11.2748 14.1738 12.1136 15.827 11.2148C15.6427 11.4245 13.5844 12.3831 13.2109 11.2748Z"/>
</mask>
<path fill-rule="evenodd" clip-rule="evenodd" d="M13.2109 11.2748C13.2109 11.2748 14.1738 12.1136 15.827 11.2148C15.6427 11.4245 13.5844 12.3831 13.2109 11.2748Z" fill="#F26222"/>
<path d="M13.2109 11.2748L13.8678 10.5208L11.0847 8.09635L12.2633 11.5941L13.2109 11.2748ZM15.827 11.2148L16.578 11.8752L15.3494 10.3363L15.827 11.2148ZM13.2109 11.2748C12.5541 12.0288 12.5546 12.0293 12.5551 12.0297C12.5553 12.0299 12.5558 12.0303 12.5562 12.0306C12.5569 12.0312 12.5576 12.0319 12.5584 12.0325C12.5599 12.0338 12.5614 12.0351 12.5631 12.0365C12.5663 12.0393 12.5699 12.0423 12.5737 12.0455C12.5814 12.0519 12.5902 12.0591 12.6001 12.0669C12.6199 12.0827 12.6442 12.1013 12.6731 12.1219C12.7307 12.1632 12.8068 12.2132 12.901 12.2657C13.0893 12.3704 13.353 12.4864 13.6864 12.559C14.3752 12.7089 15.2736 12.6539 16.3046 12.0934L15.3494 10.3363C14.7273 10.6745 14.3176 10.6495 14.1117 10.6047C13.9977 10.5799 13.9173 10.5424 13.8734 10.5179C13.8515 10.5058 13.8395 10.4973 13.838 10.4962C13.8373 10.4957 13.8393 10.4971 13.8442 10.501C13.8467 10.503 13.8499 10.5055 13.8538 10.5088C13.8557 10.5104 13.8579 10.5122 13.8602 10.5142C13.8614 10.5152 13.8626 10.5163 13.8639 10.5174C13.8645 10.5179 13.8651 10.5185 13.8658 10.519C13.8661 10.5193 13.8666 10.5197 13.8668 10.5199C13.8673 10.5203 13.8678 10.5208 13.2109 11.2748ZM15.076 10.5545C15.112 10.5136 15.1425 10.4868 15.1561 10.4752C15.1716 10.462 15.1824 10.454 15.1859 10.4516C15.1922 10.447 15.1876 10.4507 15.1683 10.4621C15.1303 10.4846 15.0661 10.5187 14.9796 10.558C14.8044 10.6375 14.5859 10.7164 14.377 10.762C14.1509 10.8112 14.0283 10.801 13.9961 10.7929C13.9912 10.7917 14.0278 10.8002 14.075 10.8408C14.1269 10.8854 14.1514 10.9342 14.1586 10.9555L12.2633 11.5941C12.4822 12.2438 12.9838 12.6001 13.5065 12.732C13.9711 12.8493 14.4446 12.7942 14.8028 12.7161C15.1782 12.6343 15.5322 12.5036 15.8064 12.379C15.9447 12.3163 16.0744 12.2498 16.1857 12.184C16.2584 12.141 16.4386 12.0337 16.578 11.8752L15.076 10.5545Z" fill="#F26222" mask="url(#path-12-inside-5_2091_222772)"/>
</g>
<path d="M11.7632 21.6698H10.916C10.8834 21.4887 10.8228 21.3294 10.734 21.1918C10.6453 21.0542 10.5367 20.9375 10.4082 20.8415C10.2796 20.7456 10.1357 20.6731 9.9764 20.6243C9.8189 20.5754 9.65144 20.5509 9.47402 20.5509C9.15359 20.5509 8.86664 20.6315 8.61319 20.7926C8.36155 20.9538 8.16241 21.19 8.01577 21.5014C7.87094 21.8128 7.79852 22.193 7.79852 22.6419C7.79852 23.0945 7.87094 23.4765 8.01577 23.7879C8.16241 24.0993 8.36245 24.3346 8.61591 24.4939C8.86936 24.6533 9.15449 24.7329 9.47131 24.7329C9.64691 24.7329 9.81347 24.7094 9.97097 24.6623C10.1303 24.6134 10.2742 24.5419 10.4027 24.4478C10.5313 24.3536 10.6399 24.2387 10.7286 24.1029C10.8191 23.9653 10.8816 23.8078 10.916 23.6304L11.7632 23.6331C11.718 23.9065 11.6302 24.1581 11.4998 24.388C11.3713 24.6161 11.2056 24.8135 11.0029 24.98C10.8019 25.1448 10.572 25.2724 10.3131 25.3629C10.0542 25.4534 9.77183 25.4987 9.46588 25.4987C8.98432 25.4987 8.55526 25.3846 8.1787 25.1565C7.80214 24.9266 7.50524 24.598 7.288 24.1708C7.07256 23.7435 6.96484 23.2339 6.96484 22.6419C6.96484 22.0481 7.07347 21.5385 7.29071 21.1131C7.50796 20.6858 7.80486 20.3581 8.18142 20.13C8.55797 19.9001 8.98613 19.7852 9.46588 19.7852C9.76097 19.7852 10.0361 19.8277 10.2914 19.9128C10.5485 19.9961 10.7793 20.1192 10.9839 20.2821C11.1884 20.4432 11.3577 20.6406 11.4917 20.8741C11.6257 21.1058 11.7162 21.371 11.7632 21.6698Z" fill="#F26222"/>
<path d="M13.5141 22.9461V25.4227H12.7021V19.8612H13.5032V21.9305H13.5548C13.6526 21.706 13.8019 21.5276 14.0029 21.3955C14.2039 21.2633 14.4664 21.1972 14.7904 21.1972C15.0765 21.1972 15.3263 21.2561 15.5399 21.3738C15.7553 21.4914 15.9219 21.667 16.0396 21.9006C16.1591 22.1323 16.2188 22.422 16.2188 22.7696V25.4227H15.4068V22.8673C15.4068 22.5614 15.3281 22.3242 15.1706 22.1558C15.0131 21.9857 14.794 21.9006 14.5134 21.9006C14.3215 21.9006 14.1495 21.9413 13.9975 22.0228C13.8472 22.1042 13.7286 22.2237 13.6417 22.3812C13.5566 22.5369 13.5141 22.7252 13.5141 22.9461Z" fill="#F26222"/>
<path d="M18.5162 25.515C18.2519 25.515 18.0129 25.4661 17.7993 25.3684C17.5856 25.2688 17.4164 25.1249 17.2914 24.9366C17.1683 24.7483 17.1068 24.5175 17.1068 24.2441C17.1068 24.0088 17.152 23.8151 17.2426 23.663C17.3331 23.5109 17.4553 23.3905 17.6092 23.3018C17.7631 23.2131 17.935 23.1461 18.1251 23.1009C18.3152 23.0556 18.5089 23.0212 18.7063 22.9977C18.9561 22.9687 19.1588 22.9452 19.3145 22.9271C19.4702 22.9071 19.5834 22.8755 19.654 22.832C19.7246 22.7886 19.7599 22.718 19.7599 22.6202V22.6012C19.7599 22.364 19.6929 22.1803 19.5589 22.0499C19.4268 21.9196 19.2295 21.8544 18.9669 21.8544C18.6936 21.8544 18.4781 21.9151 18.3206 22.0364C18.165 22.1558 18.0572 22.2889 17.9975 22.4355L17.2344 22.2617C17.3249 22.0083 17.4571 21.8037 17.6309 21.648C17.8065 21.4905 18.0084 21.3765 18.2365 21.3059C18.4646 21.2335 18.7044 21.1972 18.9561 21.1972C19.1226 21.1972 19.2992 21.2172 19.4856 21.257C19.6739 21.295 19.8495 21.3656 20.0124 21.4688C20.1772 21.572 20.3121 21.7195 20.4171 21.9114C20.5221 22.1015 20.5746 22.3486 20.5746 22.6528V25.4227H19.7816V24.8524H19.749C19.6965 24.9574 19.6178 25.0606 19.5128 25.162C19.4078 25.2633 19.2729 25.3475 19.1082 25.4145C18.9434 25.4815 18.7461 25.515 18.5162 25.515ZM18.6927 24.8633C18.9172 24.8633 19.1091 24.8189 19.2684 24.7302C19.4295 24.6415 19.5517 24.5256 19.635 24.3826C19.7201 24.2378 19.7626 24.083 19.7626 23.9182V23.3806C19.7336 23.4095 19.6775 23.4367 19.5942 23.462C19.5128 23.4856 19.4195 23.5064 19.3145 23.5245C19.2095 23.5408 19.1073 23.5562 19.0077 23.5706C18.9081 23.5833 18.8248 23.5942 18.7579 23.6032C18.6003 23.6232 18.4564 23.6566 18.3261 23.7037C18.1975 23.7508 18.0943 23.8187 18.0165 23.9074C17.9405 23.9943 17.9024 24.1101 17.9024 24.255C17.9024 24.4559 17.9767 24.608 18.1251 24.7112C18.2736 24.8126 18.4628 24.8633 18.6927 24.8633Z" fill="#F26222"/>
<path d="M23.6031 21.2516V21.9033H21.3247V21.2516H23.6031ZM21.9357 20.2522H22.7477V24.1979C22.7477 24.3554 22.7712 24.474 22.8183 24.5537C22.8654 24.6315 22.926 24.6849 23.0002 24.7139C23.0763 24.7411 23.1586 24.7546 23.2474 24.7546C23.3125 24.7546 23.3696 24.7501 23.4184 24.7411C23.4673 24.732 23.5053 24.7248 23.5325 24.7193L23.6791 25.3901C23.6321 25.4082 23.5651 25.4263 23.4782 25.4444C23.3913 25.4643 23.2827 25.4752 23.1523 25.477C22.9387 25.4806 22.7395 25.4426 22.5549 25.3629C22.3702 25.2833 22.2209 25.1602 22.1068 24.9936C21.9928 24.827 21.9357 24.618 21.9357 24.3663V20.2522Z" fill="#F26222"/>
<circle cx="25.5352" cy="25.5" r="3.5" fill="#76B51B" stroke="white"/>
</g>
<defs>
<clipPath id="clip0_2091_222772">
<rect width="30" height="30" fill="white" transform="translate(0.535156 0.5)"/>
</clipPath>
<clipPath id="clip1_2091_222772">
<rect width="10.6667" height="10.6667" fill="white" transform="translate(9.89062 5.41016)"/>
</clipPath>
</defs>
</svg>
