<svg width="18" height="18" viewBox="0 0 18 18" fill="none" xmlns="http://www.w3.org/2000/svg">
<path opacity="0.4" d="M2.25 9.77763C2.25 8.95038 2.25 8.53675 2.54448 8.29551C2.64903 8.20986 2.7761 8.1413 2.91772 8.09414C3.31659 7.96131 3.84082 8.09211 4.88926 8.35371C5.6897 8.55343 6.08992 8.65329 6.49433 8.64295C6.64285 8.63916 6.79051 8.62435 6.93514 8.59876C7.32893 8.52909 7.67995 8.35392 8.38198 8.00359L9.41876 7.48621C10.318 7.03745 10.7677 6.81307 11.2838 6.76133C11.7999 6.7096 12.3126 6.83751 13.3379 7.09334L14.2115 7.31131C14.954 7.49658 15.3253 7.58921 15.5376 7.80975C15.75 8.03029 15.75 8.32322 15.75 8.90909V13.4724C15.75 14.2996 15.75 14.7132 15.4555 14.9545C15.351 15.0401 15.2239 15.1087 15.0823 15.1559C14.6834 15.2887 14.1592 15.1579 13.1107 14.8963C12.3103 14.6966 11.9101 14.5967 11.5057 14.607C11.3571 14.6108 11.2095 14.6256 11.0649 14.6512C10.6711 14.7209 10.3201 14.8961 9.61802 15.2464L8.58124 15.7638C7.68197 16.2125 7.23233 16.4369 6.71619 16.4887C6.20006 16.5404 5.68739 16.4125 4.66206 16.1567L3.78849 15.9387C3.04597 15.7534 2.67471 15.6608 2.46235 15.4402C2.25 15.2197 2.25 14.9268 2.25 14.3409V9.77763Z" fill="#999999"/>
<path fill-rule="evenodd" clip-rule="evenodd" d="M9 1.5C6.51472 1.5 4.5 3.41409 4.5 5.77523C4.5 8.11787 5.93624 10.8515 8.1771 11.8291C8.69948 12.057 9.30052 12.057 9.8229 11.8291C12.0638 10.8515 13.5 8.11787 13.5 5.77523C13.5 3.41409 11.4853 1.5 9 1.5ZM9 7.5C9.82843 7.5 10.5 6.82843 10.5 6C10.5 5.17157 9.82843 4.5 9 4.5C8.17157 4.5 7.5 5.17157 7.5 6C7.5 6.82843 8.17157 7.5 9 7.5Z" fill="#999999"/>
</svg>
