<svg width="42" height="44" viewBox="0 0 42 44" fill="none" xmlns="http://www.w3.org/2000/svg">
<g filter="url(#filter0_d_1911_113426)">
<path opacity="0.4" d="M25.8902 14.3361C25.4352 14.3361 25.0735 13.9745 25.0735 13.5195V12.0261C25.0735 10.8828 24.5835 9.78614 23.7435 9.01614C22.8802 8.23448 21.7719 7.87281 20.6052 7.97781C18.6452 8.16448 16.9302 10.1595 16.9302 12.2361V13.2861C16.9302 13.7411 16.5685 14.1028 16.1135 14.1028C15.6585 14.1028 15.2969 13.7411 15.2969 13.2861V12.2361C15.2969 9.31948 17.6535 6.62448 20.4419 6.35614C22.0635 6.20448 23.6269 6.71781 24.8285 7.81448C26.0185 8.88781 26.6952 10.4278 26.6952 12.0261V13.5195C26.6952 13.9745 26.3335 14.3361 25.8902 14.3361Z" fill="#F26222"/>
<path d="M30.2877 14.4538C29.3077 13.3688 27.6977 12.8438 25.341 12.8438H16.661C14.3043 12.8438 12.6943 13.3688 11.7143 14.4538C10.5827 15.7138 10.6177 17.3937 10.746 18.5604L11.5627 25.0588C11.8077 27.3337 12.7293 29.6671 17.746 29.6671H24.256C29.2727 29.6671 30.1943 27.3338 30.4393 25.0704L31.256 18.5488C31.3843 17.3938 31.4077 15.7138 30.2877 14.4538ZM16.8243 19.3421H16.8127C16.171 19.3421 15.646 18.8171 15.646 18.1754C15.646 17.5338 16.171 17.0087 16.8127 17.0087C17.466 17.0087 17.991 17.5338 17.991 18.1754C17.991 18.8171 17.466 19.3421 16.8243 19.3421ZM24.991 19.3421H24.9793C24.3377 19.3421 23.8127 18.8171 23.8127 18.1754C23.8127 17.5338 24.3377 17.0087 24.9793 17.0087C25.6327 17.0087 26.1577 17.5338 26.1577 18.1754C26.1577 18.8171 25.6327 19.3421 24.991 19.3421Z" fill="#F26222"/>
</g>
<defs>
<filter id="filter0_d_1911_113426" x="-3" y="-2" width="48" height="48" filterUnits="userSpaceOnUse" color-interpolation-filters="sRGB">
<feFlood flood-opacity="0" result="BackgroundImageFix"/>
<feColorMatrix in="SourceAlpha" type="matrix" values="0 0 0 0 0 0 0 0 0 0 0 0 0 0 0 0 0 0 127 0" result="hardAlpha"/>
<feOffset dy="4"/>
<feGaussianBlur stdDeviation="5"/>
<feComposite in2="hardAlpha" operator="out"/>
<feColorMatrix type="matrix" values="0 0 0 0 0.94902 0 0 0 0 0.384314 0 0 0 0 0.133333 0 0 0 0.1 0"/>
<feBlend mode="normal" in2="BackgroundImageFix" result="effect1_dropShadow_1911_113426"/>
<feBlend mode="normal" in="SourceGraphic" in2="effect1_dropShadow_1911_113426" result="shape"/>
</filter>
</defs>
</svg>
