<svg width="28" height="28" viewBox="0 0 28 28" fill="none" xmlns="http://www.w3.org/2000/svg">
<path opacity="0.4" d="M18.887 2.33398H9.11036C4.8637 2.33398 2.33203 4.86565 2.33203 9.11232V18.8773C2.33203 23.1357 4.8637 25.6673 9.11036 25.6673H18.8754C23.122 25.6673 25.6537 23.1357 25.6537 18.889V9.11232C25.6654 4.86565 23.1337 2.33398 18.887 2.33398Z" fill="#F26222"/>
<path d="M7.9981 11.6892C8.10435 11.5569 8.16315 11.3796 8.16182 11.1956C8.16049 11.0116 8.09914 10.8356 7.99099 10.7055C7.88284 10.5754 7.73655 10.5016 7.58361 10.5C7.43067 10.4984 7.28332 10.5692 7.17331 10.697L4.84011 13.5039C4.78588 13.5683 4.74275 13.6449 4.71321 13.7294C4.68367 13.8139 4.6683 13.9046 4.66797 13.9963C4.66765 14.088 4.68238 14.1788 4.71132 14.2636C4.74026 14.3485 4.78284 14.4255 4.83661 14.4905L4.83894 14.4961L7.17215 17.303C7.28216 17.4308 7.4295 17.5016 7.58244 17.5C7.73538 17.4984 7.88168 17.4246 7.98983 17.2945C8.09798 17.1644 8.15932 16.9884 8.16065 16.8044C8.16198 16.6204 8.10319 16.4431 7.99693 16.3108L6.66001 14.701H21.3428L20.0059 16.3094C19.8997 16.4417 19.8409 16.619 19.8422 16.803C19.8435 16.987 19.9049 17.163 20.013 17.2931C20.1212 17.4232 20.2675 17.497 20.4204 17.4986C20.5734 17.5002 20.7207 17.4294 20.8307 17.3016L23.1639 14.4947C23.1651 14.4933 23.1651 14.4905 23.1674 14.4891C23.2477 14.3914 23.3022 14.2673 23.324 14.1325C23.3458 13.9976 23.3339 13.858 23.2899 13.7312C23.2608 13.6462 23.218 13.5689 23.1639 13.5039L20.8307 10.697C20.7207 10.5692 20.5734 10.4984 20.4204 10.5C20.2675 10.5016 20.1212 10.5754 20.013 10.7055C19.9049 10.8356 19.8435 11.0116 19.8422 11.1956C19.8409 11.3796 19.8997 11.5569 20.0059 11.6892L21.3428 13.2976H6.66001L7.9981 11.6892Z" fill="#F26222"/>
</svg>
