<svg width="28" height="28" viewBox="0 0 28 28" fill="none" xmlns="http://www.w3.org/2000/svg">
<path opacity="0.4" d="M18.887 2.33398H9.11036C4.8637 2.33398 2.33203 4.86565 2.33203 9.11232V18.8773C2.33203 23.1357 4.8637 25.6673 9.11036 25.6673H18.8754C23.122 25.6673 25.6537 23.1357 25.6537 18.889V9.11232C25.6654 4.86565 23.1337 2.33398 18.887 2.33398Z" fill="#F26222"/>
<path d="M16.3108 7.99615C16.4431 8.1024 16.6204 8.16119 16.8044 8.15986C16.9884 8.15853 17.1644 8.09719 17.2945 7.98904C17.4246 7.88089 17.4984 7.73459 17.5 7.58165C17.5016 7.42871 17.4308 7.28137 17.303 7.17136L14.4961 4.83816C14.4317 4.78392 14.3551 4.7408 14.2706 4.71126C14.1861 4.68172 14.0954 4.66635 14.0037 4.66602C13.912 4.6657 13.8212 4.68043 13.7364 4.70937C13.6515 4.7383 13.5745 4.78088 13.5095 4.83466L13.5039 4.83699L10.697 7.17019C10.5692 7.2802 10.4984 7.42755 10.5 7.58049C10.5016 7.73343 10.5754 7.87973 10.7055 7.98787C10.8356 8.09602 11.0116 8.15737 11.1956 8.1587C11.3796 8.16003 11.5569 8.10123 11.6892 7.99498L13.299 6.65805V21.3409L11.6906 20.004C11.5583 19.8977 11.381 19.8389 11.197 19.8403C11.013 19.8416 10.837 19.9029 10.7069 20.0111C10.5768 20.1192 10.503 20.2655 10.5014 20.4185C10.4998 20.5714 10.5706 20.7187 10.6984 20.8288L13.5053 23.162C13.5067 23.1631 13.5095 23.1631 13.5109 23.1655C13.6086 23.2458 13.7327 23.3002 13.8675 23.322C14.0024 23.3438 14.142 23.332 14.2688 23.288C14.3538 23.2589 14.4311 23.2161 14.4961 23.162L17.303 20.8288C17.4308 20.7187 17.5016 20.5714 17.5 20.4185C17.4984 20.2655 17.4246 20.1192 17.2945 20.0111C17.1644 19.9029 16.9884 19.8416 16.8044 19.8403C16.6204 19.8389 16.4431 19.8977 16.3108 20.004L14.7024 21.3409V6.65805L16.3108 7.99615Z" fill="#F26222"/>
</svg>
