<svg width="28" height="28" viewBox="0 0 28 28" fill="none" xmlns="http://www.w3.org/2000/svg">
<path d="M12.4186 16.8569C12.5132 16.7875 12.6152 16.7286 12.7226 16.6814V15.5684H10.0942L10 21.8825H12.7226V20.6838L12.0762 19.9732C11.8758 19.7543 11.7245 19.4952 11.6323 19.2131C11.5401 18.931 11.5092 18.6325 11.5416 18.3375C11.574 18.0425 11.669 17.7578 11.8202 17.5025C11.9715 17.2472 12.1755 17.027 12.4186 16.8569Z" fill="#F26222"/>
<path d="M13.582 16.4459L16.2575 15.8937L16.3945 15.654L16.3988 15.5684H13.582V16.4459Z" fill="#F26222"/>
<path d="M16.3145 10.7529C16.3145 9.91507 15.9816 9.11152 15.3892 8.51906C14.7967 7.92659 13.9932 7.59375 13.1553 7.59375C12.3174 7.59375 11.5139 7.92659 10.9214 8.51906C10.3289 9.11152 9.99609 9.91507 9.99609 10.7529V11.5235H16.3145V10.7529Z" fill="#F26222"/>
<path opacity="0.4" d="M3.55874 21.8813H9.14511L9.24784 15.1306C9.24995 15.0185 9.296 14.9117 9.37607 14.8332C9.45613 14.7548 9.56381 14.7109 9.67592 14.711H16.8504C16.875 14.7097 16.8996 14.7125 16.9232 14.7196L17.7965 13.1828C17.978 12.8619 18.2415 12.5949 18.56 12.4091C18.8785 12.2233 19.2407 12.1255 19.6094 12.1255C19.9781 12.1255 20.3402 12.2233 20.6587 12.4091C20.9772 12.5949 21.2407 12.8619 21.4223 13.1828L22.745 15.5073V11.5775H24.7099C24.7717 11.5777 24.8329 11.5643 24.8891 11.5385C24.9452 11.5126 24.9951 11.4748 25.0352 11.4277C25.0769 11.3812 25.1075 11.3258 25.1245 11.2657C25.1416 11.2056 25.1447 11.1424 25.1337 11.081C24.7447 9.32577 23.9236 7.69546 22.745 6.3379V1.58628C22.7452 1.53001 22.7343 1.47426 22.7128 1.42224C22.6914 1.37021 22.6599 1.32295 22.6201 1.28316C22.5803 1.24337 22.533 1.21184 22.481 1.1904C22.429 1.16895 22.3732 1.15801 22.3169 1.15821H18.3316C18.2181 1.15853 18.1095 1.20374 18.0292 1.28395C17.949 1.36416 17.9038 1.47285 17.9035 1.58628V2.65647C16.4156 1.9655 14.8464 1.46498 13.2332 1.16677C13.1795 1.15606 13.1242 1.15606 13.0705 1.16677C2.53564 3.19584 1.18293 11.0039 1.17436 11.081C1.1636 11.1421 1.16645 11.2049 1.18273 11.2649C1.19901 11.3248 1.22831 11.3804 1.26854 11.4277C1.30893 11.4745 1.35886 11.512 1.41498 11.5379C1.47109 11.5637 1.5321 11.5772 1.59388 11.5775H3.55874V21.8813ZM9.13654 10.7514C9.13654 9.68642 9.55959 8.6651 10.3126 7.91208C11.0656 7.15906 12.0869 6.73601 13.1519 6.73601C14.2168 6.73601 15.2381 7.15906 15.9912 7.91208C16.7442 8.6651 17.1672 9.68642 17.1672 10.7514V11.95C17.1674 12.0062 17.1565 12.062 17.135 12.114C17.1136 12.166 17.0821 12.2133 17.0423 12.2531C17.0025 12.2929 16.9552 12.3244 16.9032 12.3459C16.8512 12.3673 16.7954 12.3782 16.7391 12.378H9.56462C9.45119 12.3777 9.34249 12.3325 9.26229 12.2523C9.18208 12.1721 9.13687 12.0634 9.13654 11.95V10.7514ZM2.36017 24.7023C2.3605 24.8157 2.40571 24.9244 2.48591 25.0046C2.56612 25.0848 2.67482 25.13 2.78825 25.1304H13.8582L14.1279 22.7374H2.36017V24.7023Z" fill="#F26222"/>
<path d="M26.51 19.3948C26.6567 19.2342 26.7583 19.0376 26.8043 18.825C26.8503 18.6123 26.839 18.3913 26.7718 18.1845C26.7045 17.9776 26.5836 17.7922 26.4214 17.6473C26.2591 17.5024 26.0614 17.4031 25.8482 17.3595L22.586 16.6882C22.5475 16.6796 22.5093 16.6651 22.5029 16.6639C22.43 16.63 22.3692 16.5748 22.3286 16.5055L20.6805 13.6039C20.5735 13.4142 20.4181 13.2563 20.2301 13.1464C20.0421 13.0365 19.8282 12.9786 19.6104 12.9785C19.3926 12.9785 19.1787 13.0363 18.9907 13.1461C18.8026 13.256 18.6471 13.4138 18.5401 13.6035L16.8915 16.5063C16.8649 16.5517 16.8291 16.5911 16.7865 16.6219C16.7438 16.6528 16.6953 16.6745 16.6439 16.6857V16.6861L16.6313 16.689L13.381 17.3579C13.2108 17.3882 13.0499 17.4573 12.9108 17.5598C12.7675 17.6598 12.6473 17.7892 12.5582 17.9395C12.469 18.0897 12.4131 18.2573 12.394 18.4309C12.375 18.6046 12.3933 18.7803 12.4477 18.9463C12.5021 19.1123 12.5914 19.2647 12.7096 19.3933L14.9605 21.8583C14.9963 21.8975 15.0235 21.9436 15.0404 21.9939C15.0573 22.0441 15.0636 22.0973 15.0588 22.1501L14.6815 25.4715C14.6565 25.688 14.6895 25.9073 14.7771 26.1068C14.8647 26.3063 15.0038 26.479 15.1801 26.6071C15.3564 26.7351 15.5636 26.814 15.7804 26.8356C15.9973 26.8573 16.216 26.8208 16.4141 26.7301L19.4558 25.3506C19.5046 25.3279 19.5578 25.3162 19.6116 25.3163C19.6654 25.3165 19.7185 25.3284 19.7672 25.3514L22.8034 26.7305C23.002 26.8203 23.2207 26.8559 23.4375 26.8337C23.6543 26.8116 23.8613 26.7325 24.0376 26.6044C24.2139 26.4763 24.3532 26.3039 24.4412 26.1046C24.5293 25.9053 24.5631 25.6863 24.5391 25.4697L24.1624 22.1525C24.1574 22.0995 24.1634 22.0459 24.1803 21.9953C24.1971 21.9447 24.2242 21.8982 24.26 21.8587L26.51 19.3948Z" fill="#F26222"/>
</svg>
