<svg width="28" height="28" viewBox="0 0 28 28" fill="none" xmlns="http://www.w3.org/2000/svg">
<path opacity="0.4" d="M18.887 2.33398H9.11036C4.8637 2.33398 2.33203 4.86565 2.33203 9.11232V18.8773C2.33203 23.1357 4.8637 25.6673 9.11036 25.6673H18.8754C23.122 25.6673 25.6537 23.1357 25.6537 18.889V9.11232C25.6654 4.86565 23.1337 2.33398 18.887 2.33398Z" fill="#F26222"/>
<path d="M21 10.7917C20.5217 10.7917 20.125 11.1883 20.125 11.6667V13.125H14.875V7.875H16.3333C16.8117 7.875 17.2083 7.47833 17.2083 7C17.2083 6.52167 16.8117 6.125 16.3333 6.125H11.6667C11.1883 6.125 10.7917 6.52167 10.7917 7C10.7917 7.47833 11.1883 7.875 11.6667 7.875H13.125V13.125H7.875V11.6667C7.875 11.1883 7.47833 10.7917 7 10.7917C6.52167 10.7917 6.125 11.1883 6.125 11.6667V16.3333C6.125 16.8117 6.52167 17.2083 7 17.2083C7.47833 17.2083 7.875 16.8117 7.875 16.3333V14.875H13.125V20.125H11.6667C11.1883 20.125 10.7917 20.5217 10.7917 21C10.7917 21.4783 11.1883 21.875 11.6667 21.875H16.3333C16.8117 21.875 17.2083 21.4783 17.2083 21C17.2083 20.5217 16.8117 20.125 16.3333 20.125H14.875V14.875H20.125V16.3333C20.125 16.8117 20.5217 17.2083 21 17.2083C21.4783 17.2083 21.875 16.8117 21.875 16.3333V11.6667C21.875 11.1883 21.4783 10.7917 21 10.7917Z" fill="#F26222"/>
</svg>
