<svg width="28" height="28" viewBox="0 0 28 28" fill="none" xmlns="http://www.w3.org/2000/svg">
<path opacity="0.4" d="M3.5 11.6673C3.5 7.26754 3.5 5.06765 4.86683 3.70082C6.23367 2.33398 8.43356 2.33398 12.8333 2.33398H15.1667C19.5664 2.33398 21.7663 2.33398 23.1332 3.70082C24.5 5.06765 24.5 7.26754 24.5 11.6673V16.334C24.5 20.7338 24.5 22.9336 23.1332 24.3005C21.7663 25.6673 19.5664 25.6673 15.1667 25.6673H12.8333C8.43356 25.6673 6.23367 25.6673 4.86683 24.3005C3.5 22.9336 3.5 20.7338 3.5 16.334V11.6673Z" fill="#F26222"/>
<path d="M19.272 19.2509C19.4762 19.0916 19.6614 18.9064 20.0317 18.5361L24.6487 13.9191C24.7603 13.8075 24.7092 13.6153 24.5601 13.5635C24.0151 13.3744 23.3062 13.0195 22.643 12.3563C21.9799 11.6932 21.6249 10.9842 21.4358 10.4393C21.3841 10.2901 21.1918 10.239 21.0802 10.3507L16.4632 14.9676C16.0929 15.338 15.9077 15.5231 15.7485 15.7273C15.5606 15.9682 15.3996 16.2288 15.2682 16.5045C15.1568 16.7382 15.0739 16.9867 14.9083 17.4835L14.6943 18.1256L14.354 19.1465L14.0349 20.1037C13.9534 20.3482 14.0171 20.6178 14.1993 20.8C14.3816 20.9823 14.6512 21.0459 14.8957 20.9644L15.8529 20.6453L16.8738 20.305L17.5158 20.091L17.5158 20.091C18.0127 19.9254 18.2611 19.8426 18.4949 19.7312C18.7706 19.5998 19.0312 19.4387 19.272 19.2509Z" fill="#F26222"/>
<path d="M26.0943 12.4736C27.0797 11.4881 27.0797 9.89048 26.0943 8.90507C25.1089 7.91966 23.5112 7.91966 22.5258 8.90507L22.3774 9.0535C22.2341 9.19674 22.1692 9.39681 22.205 9.59618C22.2275 9.7216 22.2692 9.90497 22.3452 10.1238C22.497 10.5613 22.7837 11.1357 23.3236 11.6757C23.8636 12.2157 24.438 12.5024 24.8756 12.6542C25.0944 12.7301 25.2777 12.7718 25.4032 12.7943C25.6025 12.8301 25.8026 12.7652 25.9458 12.622L26.0943 12.4736Z" fill="#F26222"/>
<path fill-rule="evenodd" clip-rule="evenodd" d="M8.45703 10.5C8.45703 10.0168 8.84878 9.625 9.33203 9.625H16.9154C17.3986 9.625 17.7904 10.0168 17.7904 10.5C17.7904 10.9832 17.3986 11.375 16.9154 11.375H9.33203C8.84878 11.375 8.45703 10.9832 8.45703 10.5ZM8.45703 15.1667C8.45703 14.6834 8.84878 14.2917 9.33203 14.2917H12.832C13.3153 14.2917 13.707 14.6834 13.707 15.1667C13.707 15.6499 13.3153 16.0417 12.832 16.0417H9.33203C8.84878 16.0417 8.45703 15.6499 8.45703 15.1667ZM8.45703 19.8333C8.45703 19.3501 8.84878 18.9583 9.33203 18.9583H11.082C11.5653 18.9583 11.957 19.3501 11.957 19.8333C11.957 20.3166 11.5653 20.7083 11.082 20.7083H9.33203C8.84878 20.7083 8.45703 20.3166 8.45703 19.8333Z" fill="#F26222"/>
</svg>
