<svg width="28" height="28" viewBox="0 0 28 28" fill="none" xmlns="http://www.w3.org/2000/svg">
<path opacity="0.4" d="M13.2966 3.51784L22.0467 5.26784C22.4556 5.34966 22.75 5.70876 22.75 6.12585V21.8704C22.75 22.2874 22.4556 22.6465 22.0467 22.7284L13.2966 24.4784C13.0395 24.5299 12.773 24.4632 12.5703 24.2971C12.3675 24.1309 12.25 23.8826 12.25 23.6204V4.37585C12.2835 4.07989 12.3902 3.85433 12.5703 3.69918C12.8403 3.46645 13.0395 3.46645 13.2966 3.51784ZM16.625 13.1231C16.1418 13.1231 15.75 13.5148 15.75 13.9981C15.75 14.4813 16.1418 14.8731 16.625 14.8731C17.1082 14.8731 17.5 14.4813 17.5 13.9981C17.5 13.5148 17.1082 13.1231 16.625 13.1231Z" fill="#F26222"/>
<path d="M10.5013 4.66602V23.3327L7.0013 23.3327C5.83464 23.3327 5.76069 23.2417 5.2513 22.6147C4.74191 21.9878 4.66797 21.8968 4.66797 20.4609V7.53767C4.66797 6.10192 4.74195 6.01087 5.2513 5.38397L5.2513 5.38396L5.25148 5.38375C5.76071 4.757 5.83477 4.66584 7.0013 4.66602C8.16797 4.66619 10.5013 4.66602 10.5013 4.66602Z" fill="#F26222"/>
</svg>
