<svg width="28" height="28" viewBox="0 0 28 28" fill="none" xmlns="http://www.w3.org/2000/svg">
<path opacity="0.4" fill-rule="evenodd" clip-rule="evenodd" d="M14.8763 12.2507H13.1263V14.584H14.8763V12.2507ZM13.1263 4.08398H14.8763V2.33398C14.8763 1.85074 14.4846 1.45898 14.0013 1.45898C13.5181 1.45898 13.1263 1.85074 13.1263 2.33398V4.08398ZM13.1263 24.7923V22.7507H14.8763V24.7923H16.3346C16.8179 24.7923 17.2096 25.1841 17.2096 25.6673C17.2096 26.1506 16.8179 26.5423 16.3346 26.5423H11.668C11.1847 26.5423 10.793 26.1506 10.793 25.6673C10.793 25.1841 11.1847 24.7923 11.668 24.7923H13.1263Z" fill="#F26222"/>
<path fill-rule="evenodd" clip-rule="evenodd" d="M18.0828 12.2507C19.7213 12.2507 20.5406 12.2507 21.1291 11.8574C21.3839 11.6872 21.6026 11.4684 21.7729 11.2136C22.1661 10.6251 22.1661 9.80586 22.1661 8.16732C22.1661 6.52878 22.1661 5.70951 21.7729 5.12099C21.6026 4.86621 21.3839 4.64746 21.1291 4.47722C20.5406 4.08398 19.7213 4.08398 18.0828 4.08398H14.8744H13.1244H10.1541C9.38692 4.08398 9.00334 4.08398 8.65135 4.19855C8.49606 4.2491 8.3465 4.3158 8.20514 4.39758C7.88472 4.58293 7.62844 4.86834 7.11588 5.43914C6.1234 6.54441 5.62715 7.09704 5.50768 7.74288C5.45577 8.02346 5.45577 8.31118 5.50768 8.59176C5.62715 9.23759 6.1234 9.79023 7.11588 10.8955C7.62844 11.4663 7.88472 11.7517 8.20514 11.9371C8.3465 12.0188 8.49606 12.0855 8.65135 12.1361C9.00334 12.2507 9.38692 12.2507 10.1541 12.2507H13.1244H14.8744H18.0828ZM9.62443 8.16732C9.62443 7.68407 10.0162 7.29232 10.4994 7.29232H17.4994C17.9827 7.29232 18.3744 7.68407 18.3744 8.16732C18.3744 8.65057 17.9827 9.04232 17.4994 9.04232H10.4994C10.0162 9.04232 9.62443 8.65057 9.62443 8.16732Z" fill="#F26222"/>
<path fill-rule="evenodd" clip-rule="evenodd" d="M6.86976 22.3574C7.45828 22.7507 8.27755 22.7507 9.91609 22.7507H13.1244H14.8744H17.8448C18.6119 22.7507 18.9955 22.7507 19.3475 22.6361C19.5028 22.5855 19.6523 22.5188 19.7937 22.4371C20.1141 22.2517 20.3704 21.9663 20.883 21.3955C21.8754 20.2902 22.3717 19.7376 22.4912 19.0918C22.5431 18.8112 22.5431 18.5235 22.4912 18.2429C22.3717 17.597 21.8754 17.0444 20.883 15.9391C20.3704 15.3683 20.1141 15.0829 19.7937 14.8976C19.6523 14.8158 19.5028 14.7491 19.3475 14.6986C18.9955 14.584 18.6119 14.584 17.8448 14.584H14.8744H13.1244H9.91609C8.27755 14.584 7.45828 14.584 6.86976 14.9772C6.61498 15.1475 6.39623 15.3662 6.22599 15.621C5.83275 16.2095 5.83275 17.0288 5.83275 18.6673C5.83275 20.3059 5.83275 21.1251 6.22599 21.7136C6.39623 21.9684 6.61498 22.1872 6.86976 22.3574ZM9.62443 18.6673C9.62443 18.1841 10.0162 17.7923 10.4994 17.7923H17.4994C17.9827 17.7923 18.3744 18.1841 18.3744 18.6673C18.3744 19.1506 17.9827 19.5423 17.4994 19.5423H10.4994C10.0162 19.5423 9.62443 19.1506 9.62443 18.6673Z" fill="#F26222"/>
</svg>
