<svg width="28" height="28" viewBox="0 0 28 28" fill="none" xmlns="http://www.w3.org/2000/svg">
<path d="M19.2874 20.9993H8.03275C7.96047 20.9993 7.92433 20.9993 7.89156 20.9989C7.8856 20.9988 7.87965 20.9987 7.8737 20.9986V22.1655V23.3327C7.8737 23.816 7.48195 24.2077 6.9987 24.2077C6.51545 24.2077 6.1237 23.816 6.1237 23.3327V20.6209C5.15677 20.1988 4.38622 19.449 4.01434 18.502C4.00349 18.4744 3.99206 18.4438 3.96921 18.3825L2.44903 14.3077C1.96417 13.0081 3.04683 11.666 4.58007 11.666C5.52543 11.666 6.36962 12.1949 6.69186 12.9889L7.97299 16.146C8.08959 16.4333 8.14789 16.577 8.23238 16.6945C8.42968 16.9687 8.73956 17.1628 9.09539 17.2351C9.24776 17.266 9.41879 17.266 9.76086 17.266H17.9032C18.5671 17.266 18.8991 17.266 19.1768 17.1516C19.3283 17.0891 19.4661 17.0028 19.5835 16.8968C19.7986 16.7026 19.9117 16.4237 20.138 15.866L21.3055 12.9889C21.6278 12.1949 22.472 11.666 23.4173 11.666C24.9506 11.666 26.0332 13.0081 25.5484 14.3077L24.2424 17.8084C24.0147 18.4186 23.9009 18.7237 23.7506 18.983C23.333 19.7034 22.6703 20.2732 21.8737 20.6208V23.3327C21.8737 23.816 21.4819 24.2077 20.9987 24.2077C20.5154 24.2077 20.1237 23.816 20.1237 23.3327V20.994C19.9059 20.9993 19.6398 20.9993 19.2874 20.9993Z" fill="#F26222"/>
<path opacity="0.4" d="M15.443 4.08398H12.5597C11.2751 4.08397 10.2544 4.08397 9.45486 4.18634C8.63271 4.29161 7.95651 4.51414 7.41911 5.02595C6.8777 5.54158 6.63861 6.19684 6.52621 6.99305C6.41794 7.76 6.41795 8.73675 6.41797 9.95547V12.5169C6.53153 12.6606 6.62509 12.8193 6.69446 12.9902L7.9756 16.1473C8.09219 16.4346 8.15049 16.5783 8.23498 16.6958C8.43228 16.97 8.74217 17.1641 9.09799 17.2364C9.25037 17.2673 9.4214 17.2673 9.76346 17.2673H17.9058C18.5697 17.2673 18.9017 17.2673 19.1794 17.1529C19.3309 17.0904 19.4687 17.0041 19.5861 16.8981C19.8012 16.7039 19.9143 16.425 20.1406 15.8673L21.3081 12.9902C21.3775 12.8193 21.4711 12.6606 21.5846 12.5169V9.95552C21.5847 8.73678 21.5847 7.76001 21.4764 6.99305C21.364 6.19684 21.1249 5.54158 20.5835 5.02595C20.0461 4.51414 19.3699 4.29161 18.5478 4.18634C17.7482 4.08397 16.7275 4.08397 15.443 4.08398Z" fill="#F26222"/>
</svg>
