<svg width="28" height="28" viewBox="0 0 28 28" fill="none" xmlns="http://www.w3.org/2000/svg">
<path opacity="0.4" d="M4.66797 8.16602V25.666H5.92223V9.46442C5.92223 9.24074 6.09623 9.05853 6.30826 9.05853H21.6979C21.9106 9.05853 22.0839 9.24074 22.0839 9.46442V25.666H23.3346V8.16602H4.66797Z" fill="#F26222"/>
<path d="M6.90685 25.6673H13.7173V10.1171H6.90685V25.6673ZM8.51717 20.6372H12.1066C12.3156 20.6372 12.4865 20.8122 12.4865 21.0367C12.4865 21.2562 12.3156 21.4363 12.1066 21.4363H8.51717C8.30817 21.4363 8.13729 21.2562 8.13729 21.0367C8.13764 20.8125 8.30851 20.6372 8.51717 20.6372ZM8.51717 22.3113H12.1066C12.3156 22.3113 12.4865 22.4907 12.4865 22.7109C12.4865 22.9344 12.3156 23.1105 12.1066 23.1105H8.51717C8.30817 23.1105 8.13729 22.9348 8.13729 22.7109C8.13764 22.4907 8.30851 22.3113 8.51717 22.3113ZM8.51717 23.9888H12.1066C12.3156 23.9888 12.4865 24.1689 12.4865 24.3884C12.4865 24.6086 12.3156 24.7879 12.1066 24.7879H8.51717C8.30817 24.7879 8.13729 24.6086 8.13729 24.3884C8.13764 24.1692 8.30851 23.9888 8.51717 23.9888ZM14.477 25.6673H21.2912V10.1171H14.477V25.6673ZM16.0915 20.6372H19.6774C19.8861 20.6372 20.0573 20.8122 20.0573 21.0367C20.0573 21.2562 19.8861 21.4363 19.6774 21.4363H16.0915C15.8821 21.4363 15.7116 21.2562 15.7116 21.0367C15.7116 20.8125 15.8821 20.6372 16.0915 20.6372ZM16.0915 22.3113H19.6774C19.8861 22.3113 20.0573 22.4907 20.0573 22.7109C20.0573 22.9344 19.8861 23.1105 19.6774 23.1105H16.0915C15.8821 23.1105 15.7116 22.9348 15.7116 22.7109C15.7116 22.4907 15.8821 22.3113 16.0915 22.3113ZM16.0915 23.9888H19.6774C19.8861 23.9888 20.0573 24.1689 20.0573 24.3884C20.0573 24.6086 19.8861 24.7879 19.6774 24.7879H16.0915C15.8821 24.7879 15.7116 24.6086 15.7116 24.3884C15.7116 24.1692 15.8821 23.9888 16.0915 23.9888ZM6.17274 4.77779H8.35322V6.50518H19.8244V4.77779H21.8243C22.0118 4.77779 22.1654 4.61701 22.1654 4.41977C22.1654 4.21888 22.0118 4.06174 21.8243 4.06174H19.8244V2.33398H8.35322V4.06138H6.17274C5.98523 4.06138 5.83203 4.21888 5.83203 4.4194C5.83169 4.61701 5.98523 4.77779 6.17274 4.77779ZM14.7751 4.31914C14.9283 4.20102 15.1397 4.2331 15.252 4.39096L15.3543 4.53424V3.22612C15.3543 3.02888 15.5078 2.8681 15.6953 2.8681C15.8856 2.8681 16.0357 3.02888 16.0357 3.22612V4.53424L16.1379 4.39096C16.2502 4.23273 16.4648 4.20102 16.6145 4.31914C16.7649 4.43727 16.7951 4.66294 16.6828 4.82117L15.9775 5.80664C15.9674 5.82451 15.957 5.83872 15.9435 5.8493C15.94 5.85659 15.9366 5.85987 15.93 5.86352C15.9168 5.88138 15.9033 5.89232 15.8856 5.90289C15.8686 5.92148 15.8485 5.93206 15.8281 5.9357C15.8076 5.94992 15.7868 5.95721 15.7629 5.95721C15.7425 5.96086 15.7189 5.96451 15.6953 5.96451C15.6711 5.96451 15.6471 5.96086 15.627 5.95721C15.6066 5.95721 15.5858 5.94992 15.5653 5.9357C15.5418 5.92841 15.5213 5.91419 15.5009 5.89997C15.4874 5.89232 15.4731 5.87773 15.4596 5.86352C15.4562 5.85987 15.4496 5.85622 15.4461 5.8493C15.4326 5.83872 15.4225 5.82451 15.4121 5.80664L14.7106 4.82117C14.5949 4.66331 14.625 4.43763 14.7751 4.31914ZM11.4907 4.01435L12.196 3.02888C12.2061 3.01466 12.213 3.00409 12.2231 2.99315C12.2331 2.97893 12.2435 2.96836 12.2536 2.96107C12.257 2.95742 12.2639 2.95049 12.2674 2.95049C12.2882 2.9319 12.3083 2.91768 12.3288 2.91076C12.3523 2.89654 12.3766 2.88924 12.404 2.88232C12.4515 2.87174 12.5062 2.87174 12.5537 2.88232C12.5811 2.88961 12.605 2.89654 12.6289 2.91076C12.6494 2.91805 12.6695 2.93227 12.6903 2.95049C12.6937 2.95049 12.7003 2.95779 12.7041 2.96107C12.7142 2.96836 12.7246 2.97893 12.7346 2.99315C12.7447 3.00372 12.7516 3.01466 12.7617 3.02888L13.467 4.01435C13.5793 4.17258 13.5488 4.39826 13.3987 4.51638C13.249 4.63451 13.0344 4.60242 12.9221 4.44456L12.8199 4.30128V5.6094C12.8199 5.80664 12.6664 5.96742 12.4792 5.96742C12.292 5.96742 12.1385 5.80664 12.1385 5.6094V4.30128L12.0362 4.44456C11.9718 4.53789 11.8699 4.58857 11.7641 4.58857C11.6924 4.58857 11.6207 4.56633 11.5597 4.51674C11.4089 4.39826 11.3784 4.17258 11.4907 4.01435Z" fill="#F26222"/>
</svg>
