<svg width="28" height="28" viewBox="0 0 28 28" fill="none" xmlns="http://www.w3.org/2000/svg">
<path d="M3.50155 14.311C3.05781 14.5663 2.7077 14.9623 2.50965 15.4404C2.33203 15.8692 2.33203 16.4128 2.33203 17.5C2.33203 18.5872 2.33203 19.1308 2.50965 19.5596C2.74646 20.1313 3.2007 20.5856 3.77244 20.8224C4.06689 20.9444 4.41547 20.9826 4.95703 20.9945V23.3333C4.95703 23.8166 5.34878 24.2083 5.83203 24.2083C6.31528 24.2083 6.70703 23.8166 6.70703 23.3333V21H21.2904V23.3333C21.2904 23.8166 21.6821 24.2083 22.1654 24.2083C22.6486 24.2083 23.0404 23.8166 23.0404 23.3333V20.9945C23.5819 20.9826 23.9305 20.9444 24.225 20.8224C24.7967 20.5856 25.2509 20.1313 25.4878 19.5596C25.6654 19.1308 25.6654 18.5872 25.6654 17.5C25.6654 16.4128 25.6654 15.8692 25.4878 15.4404C25.2897 14.9623 24.9396 14.5663 24.4959 14.311L22.4571 14.0001L22.1654 14H5.83203L5.5404 14.0001L3.50155 14.311Z" fill="#F26222"/>
<path opacity="0.4" d="M12.8305 4.66602H15.1638C19.5636 4.66602 21.7635 4.66602 23.1303 6.03285C24.3232 7.22573 24.475 9.05313 24.4944 12.4236V14.3099L22.4584 13.9995H5.5417L3.50285 14.3103L3.5 14.3119V12.4236C3.51932 9.05313 3.67113 7.22573 4.86402 6.03285C6.23085 4.66602 8.43074 4.66602 12.8305 4.66602Z" fill="#F26222"/>
<path d="M22.1654 12.2507C22.1654 10.8664 22.1631 9.9366 22.0709 9.24301C21.9827 8.5804 21.8305 8.29681 21.6454 8.10969C21.4603 7.92257 21.1798 7.76861 20.5244 7.67952C19.8383 7.58627 18.9186 7.58398 17.5494 7.58398H15.0639V12.2507L22.1654 12.2507Z" fill="#F26222"/>
<path d="M12.9335 12.2507V7.58398H10.448C9.0788 7.58398 8.15907 7.58627 7.47302 7.67952C6.81761 7.76861 6.53711 7.92257 6.35202 8.10969C6.16694 8.29681 6.01465 8.5804 5.92653 9.24301C5.83429 9.9366 5.83203 10.8664 5.83203 12.2507L12.9335 12.2507Z" fill="#F26222"/>
</svg>
