<svg width="28" height="28" viewBox="0 0 28 28" fill="none" xmlns="http://www.w3.org/2000/svg">
<path d="M5.27734 12.9065H20.1523C20.2684 12.9065 20.3797 12.8604 20.4617 12.7784C20.5438 12.6963 20.5898 12.585 20.5898 12.469C20.5898 12.353 20.5438 12.2417 20.4617 12.1596C20.3797 12.0776 20.2684 12.0315 20.1523 12.0315H5.27734C5.16131 12.0315 5.05003 12.0776 4.96798 12.1596C4.88594 12.2417 4.83984 12.353 4.83984 12.469C4.83984 12.585 4.88594 12.6963 4.96798 12.7784C5.05003 12.8604 5.16131 12.9065 5.27734 12.9065ZM19.6328 4.45727V5.74243H22.2031V4.45727C22.2056 4.36684 22.1895 4.27686 22.156 4.19282C22.1226 4.10878 22.0723 4.03245 22.0083 3.96848C21.9444 3.90451 21.868 3.85425 21.784 3.82076C21.6999 3.78727 21.61 3.77125 21.5195 3.77368H20.3711C19.9791 3.77368 19.6328 4.06527 19.6328 4.45727Z" fill="#F26222"/>
<path opacity="0.4" d="M20.6463 23.0234C20.5392 23.0183 20.4378 22.9735 20.3619 22.8976C20.2861 22.8218 20.2412 22.7204 20.2361 22.6133V16.9258C20.2361 16.8243 20.2765 16.7269 20.3483 16.6551C20.42 16.5833 20.5174 16.543 20.6189 16.543C21.0394 16.5425 21.4425 16.3752 21.7398 16.0779C22.0372 15.7806 22.2044 15.3775 22.2049 14.957V6.50781H19.6346V11.2656H20.1541C20.4732 11.2656 20.7792 11.3924 21.0048 11.618C21.2305 11.8436 21.3572 12.1497 21.3572 12.4688C21.3572 12.7878 21.2305 13.0939 21.0048 13.3195C20.7792 13.5451 20.4732 13.6719 20.1541 13.6719H19.6346V14.3828C19.6349 15.5524 19.3397 16.7031 18.7765 17.7281C18.2133 18.7532 17.4003 19.6193 16.413 20.2463C15.4257 20.8732 14.296 21.2406 13.1287 21.3143C11.9615 21.388 10.7945 21.1658 9.73613 20.668V21.0273C9.73613 22.1129 8.8666 23.0098 7.78105 23.0098C7.41073 23.0049 7.05027 23.1292 6.76161 23.3612C6.47295 23.5932 6.2741 23.9185 6.19922 24.2812H23.1168C22.944 23.5156 22.2942 23.0234 21.5213 23.0234H20.6463Z" fill="#F26222"/>
<path d="M12.6875 20.5625C14.3259 20.5607 15.8967 19.909 17.0552 18.7505C18.2137 17.592 18.8653 16.0212 18.8672 14.3828V13.6719H6.50781V14.3828C6.50965 16.0212 7.16131 17.592 8.31983 18.7505C9.47835 19.909 11.0491 20.5607 12.6875 20.5625ZM7.84498 14.5785C7.89468 14.571 7.94538 14.5733 7.99419 14.5854C8.04299 14.5975 8.08894 14.619 8.12941 14.6488C8.16989 14.6787 8.20409 14.7161 8.23007 14.7592C8.25605 14.8022 8.2733 14.85 8.28084 14.8997C8.63729 17.2523 9.81821 17.7461 10.7461 17.7461C10.8476 17.7461 10.945 17.7864 11.0168 17.8582C11.0886 17.93 11.1289 18.0274 11.1289 18.1289C11.1289 18.2304 11.0886 18.3278 11.0168 18.3996C10.945 18.4714 10.8476 18.5117 10.7461 18.5117C9.83577 18.5117 9.05734 18.1488 8.49488 17.4624C8.00631 16.866 7.6796 16.0424 7.52385 15.0144C7.51632 14.9647 7.51865 14.914 7.53071 14.8652C7.54277 14.8164 7.56432 14.7704 7.59414 14.73C7.62396 14.6895 7.66146 14.6553 7.7045 14.6293C7.74754 14.6033 7.79527 14.5861 7.84498 14.5785Z" fill="#F26222"/>
<path d="M18.5664 8.20312H19.0312V7.4375H18.5664C18.4649 7.4375 18.3675 7.47783 18.2957 7.54962C18.2239 7.62141 18.1836 7.71878 18.1836 7.82031C18.1836 7.92184 18.2239 8.01921 18.2957 8.091C18.3675 8.16279 18.4649 8.20312 18.5664 8.20312Z" fill="#F26222"/>
</svg>
