<svg width="50" height="50" viewBox="0 0 50 50" fill="none" xmlns="http://www.w3.org/2000/svg">
<path opacity="0.15" d="M0 13C0 5.8203 5.8203 0 13 0H50V50H13C5.8203 50 0 44.1797 0 37V13Z" fill="black"/>
<path d="M20.6003 14.6594C20.2956 14.9641 20.1245 15.3774 20.1245 15.8082C20.1245 16.2391 20.2956 16.6524 20.6003 16.9571L28.644 25.0009L20.6003 33.0446C20.3042 33.3511 20.1405 33.7616 20.1442 34.1876C20.1479 34.6137 20.3188 35.0213 20.62 35.3225C20.9213 35.6238 21.3289 35.7947 21.755 35.7984C22.181 35.8021 22.5915 35.6383 22.898 35.3423L32.0906 26.1497C32.3953 25.845 32.5664 25.4317 32.5664 25.0009C32.5664 24.57 32.3953 24.1567 32.0906 23.852L22.898 14.6594C22.5933 14.3547 22.18 14.1836 21.7491 14.1836C21.3182 14.1836 20.905 14.3547 20.6003 14.6594Z" fill="white"/>
</svg>
