<svg width="24" height="24" viewBox="0 0 24 24" fill="none" xmlns="http://www.w3.org/2000/svg">
<path d="M7.19844 12.0004C7.19844 11.8413 7.26165 11.6886 7.37417 11.5761C7.48669 11.4636 7.63931 11.4004 7.79844 11.4004H11.3984V7.80039C11.3984 7.64126 11.4616 7.48865 11.5742 7.37613C11.6867 7.2636 11.8393 7.20039 11.9984 7.20039C12.1576 7.20039 12.3102 7.2636 12.4227 7.37613C12.5352 7.48865 12.5984 7.64126 12.5984 7.80039V11.4004H16.1984C16.3576 11.4004 16.5102 11.4636 16.6227 11.5761C16.7352 11.6886 16.7984 11.8413 16.7984 12.0004C16.7984 12.1595 16.7352 12.3121 16.6227 12.4247C16.5102 12.5372 16.3576 12.6004 16.1984 12.6004H12.5984V16.2004C12.5984 16.3595 12.5352 16.5121 12.4227 16.6247C12.3102 16.7372 12.1576 16.8004 11.9984 16.8004C11.8393 16.8004 11.6867 16.7372 11.5742 16.6247C11.4616 16.5121 11.3984 16.3595 11.3984 16.2004V12.6004H7.79844C7.63931 12.6004 7.48669 12.5372 7.37417 12.4247C7.26165 12.3121 7.19844 12.1595 7.19844 12.0004ZM11.9984 21.6004C14.5445 21.6004 16.9863 20.589 18.7867 18.7886C20.587 16.9883 21.5984 14.5465 21.5984 12.0004C21.5984 9.45431 20.587 7.01251 18.7867 5.21217C16.9863 3.41182 14.5445 2.40039 11.9984 2.40039C9.45236 2.40039 7.01056 3.41182 5.21021 5.21217C3.40986 7.01251 2.39844 9.45431 2.39844 12.0004C2.39844 14.5465 3.40986 16.9883 5.21021 18.7886C7.01056 20.589 9.45236 21.6004 11.9984 21.6004ZM11.9984 20.4004C10.8953 20.4004 9.80303 20.1831 8.7839 19.761C7.76476 19.3388 6.83875 18.7201 6.05874 17.9401C5.27873 17.1601 4.65999 16.2341 4.23785 15.2149C3.81571 14.1958 3.59844 13.1035 3.59844 12.0004C3.59844 10.8973 3.81571 9.80498 4.23785 8.78585C4.65999 7.76671 5.27873 6.8407 6.05874 6.06069C6.83875 5.28068 7.76476 4.66194 8.7839 4.2398C9.80303 3.81766 10.8953 3.60039 11.9984 3.60039C14.2263 3.60039 16.3628 4.48539 17.9381 6.06069C19.5134 7.636 20.3984 9.77257 20.3984 12.0004C20.3984 14.2282 19.5134 16.3648 17.9381 17.9401C16.3628 19.5154 14.2263 20.4004 11.9984 20.4004Z" fill="#1287DB"/>
</svg>
