<svg width="18" height="18" viewBox="0 0 18 18" fill="none" xmlns="http://www.w3.org/2000/svg">
<path d="M8.99859 3.48828C5.41359 3.48828 2.49609 6.40578 2.49609 9.99078C2.49609 13.5758 5.41359 16.5008 8.99859 16.5008C12.5836 16.5008 15.5011 13.5833 15.5011 9.99828C15.5011 6.41328 12.5836 3.48828 8.99859 3.48828ZM9.56109 9.75078C9.56109 10.0583 9.30609 10.3133 8.99859 10.3133C8.69109 10.3133 8.43609 10.0583 8.43609 9.75078V6.00078C8.43609 5.69328 8.69109 5.43828 8.99859 5.43828C9.30609 5.43828 9.56109 5.69328 9.56109 6.00078V9.75078Z" fill="#999999"/>
<path d="M11.168 2.5875H6.83297C6.53297 2.5875 6.29297 2.3475 6.29297 2.0475C6.29297 1.7475 6.53297 1.5 6.83297 1.5H11.168C11.468 1.5 11.708 1.74 11.708 2.04C11.708 2.34 11.468 2.5875 11.168 2.5875Z" fill="#999999"/>
</svg>
