<svg width="18" height="18" viewBox="0 0 18 18" fill="none" xmlns="http://www.w3.org/2000/svg">
<path opacity="0.4" d="M9.00055 16.4991C12.5918 16.4991 15.503 13.5879 15.503 9.99664C15.503 6.40541 12.5918 3.49414 9.00055 3.49414C5.40932 3.49414 2.49805 6.40541 2.49805 9.99664C2.49805 13.5879 5.40932 16.4991 9.00055 16.4991Z" fill="#999999"/>
<path d="M9 10.3125C8.6925 10.3125 8.4375 10.0575 8.4375 9.75V6C8.4375 5.6925 8.6925 5.4375 9 5.4375C9.3075 5.4375 9.5625 5.6925 9.5625 6V9.75C9.5625 10.0575 9.3075 10.3125 9 10.3125Z" fill="#999999"/>
<path d="M11.168 2.5875H6.83297C6.53297 2.5875 6.29297 2.3475 6.29297 2.0475C6.29297 1.7475 6.53297 1.5 6.83297 1.5H11.168C11.468 1.5 11.708 1.74 11.708 2.04C11.708 2.34 11.468 2.5875 11.168 2.5875Z" fill="#999999"/>
</svg>
