<svg width="18" height="18" viewBox="0 0 18 18" fill="none" xmlns="http://www.w3.org/2000/svg">
<path d="M9 1.5C7.035 1.5 5.4375 3.0975 5.4375 5.0625C5.4375 6.99 6.945 8.55 8.91 8.6175C8.97 8.61 9.03 8.61 9.075 8.6175C9.09 8.6175 9.0975 8.6175 9.1125 8.6175C9.12 8.6175 9.12 8.6175 9.1275 8.6175C11.0475 8.55 12.555 6.99 12.5625 5.0625C12.5625 3.0975 10.965 1.5 9 1.5Z" fill="#999999"/>
<path d="M12.8088 10.6127C10.7162 9.21766 7.30375 9.21766 5.19625 10.6127C4.24375 11.2502 3.71875 12.1127 3.71875 13.0352C3.71875 13.9577 4.24375 14.8127 5.18875 15.4427C6.23875 16.1477 7.61875 16.5002 8.99875 16.5002C10.3787 16.5002 11.7587 16.1477 12.8088 15.4427C13.7537 14.8052 14.2788 13.9502 14.2788 13.0202C14.2713 12.0977 13.7537 11.2427 12.8088 10.6127Z" fill="#999999"/>
</svg>
