<svg width="74" height="24" viewBox="0 0 74 24" fill="none" xmlns="http://www.w3.org/2000/svg">
<path d="M0 0H64C69.5228 0 74 4.47715 74 10V24H10C4.47715 24 0 19.5228 0 14V0Z" fill="#76B51B"/>
<path d="M10.0013 18.6673C10.0013 18.6673 15.3346 16.0007 15.3346 12.0007V7.33398L10.0013 5.33398L4.66797 7.33398V12.0007C4.66797 16.0007 10.0013 18.6673 10.0013 18.6673Z" fill="white" stroke="white" stroke-width="2" stroke-linecap="round" stroke-linejoin="round"/>
<g clip-path="url(#clip0_2091_212454)">
<path d="M11.5654 10.6667C11.499 10.4784 11.3778 10.3143 11.2175 10.1955C11.0571 10.0767 10.8648 10.0086 10.6654 10H9.33203C9.06681 10 8.81246 10.1054 8.62492 10.2929C8.43739 10.4804 8.33203 10.7348 8.33203 11C8.33203 11.2652 8.43739 11.5196 8.62492 11.7071C8.81246 11.8946 9.06681 12 9.33203 12H10.6654C10.9306 12 11.1849 12.1054 11.3725 12.2929C11.56 12.4804 11.6654 12.7348 11.6654 13C11.6654 13.2652 11.56 13.5196 11.3725 13.7071C11.1849 13.8946 10.9306 14 10.6654 14H9.33203C9.13261 13.9914 8.94033 13.9233 8.77994 13.8045C8.61955 13.6857 8.49838 13.5216 8.43203 13.3333" stroke="#76B51B" stroke-linecap="round" stroke-linejoin="round"/>
<path d="M10 14V15M10 9V10V9Z" stroke="#76B51B" stroke-linecap="round" stroke-linejoin="round"/>
</g>
<path d="M20.358 4.44851V3.45455H25.5803V4.44851H23.5572V10H22.381V4.44851H20.358ZM27.6928 7.12358V10H26.5359V3.45455H27.6673V5.92507H27.7248C27.8398 5.64808 28.0178 5.42969 28.2585 5.26989C28.5014 5.10795 28.8104 5.02699 29.1854 5.02699C29.5263 5.02699 29.8235 5.09837 30.0771 5.24112C30.3306 5.38388 30.5266 5.59268 30.6651 5.86754C30.8058 6.1424 30.8761 6.47798 30.8761 6.87429V10H29.7191V7.05327C29.7191 6.72301 29.6339 6.46626 29.4634 6.28303C29.2951 6.09766 29.0586 6.00497 28.7539 6.00497C28.5494 6.00497 28.3661 6.04972 28.2042 6.1392C28.0444 6.22656 27.9187 6.35334 27.8271 6.51953C27.7376 6.68572 27.6928 6.88707 27.6928 7.12358ZM33.468 10.0991C33.157 10.0991 32.8768 10.0437 32.6275 9.93288C32.3803 9.81996 32.1843 9.65376 32.0394 9.4343C31.8967 9.21484 31.8253 8.94425 31.8253 8.62251C31.8253 8.34553 31.8764 8.11648 31.9787 7.93537C32.081 7.75426 32.2205 7.60938 32.3974 7.50071C32.5742 7.39205 32.7734 7.31001 32.995 7.25462C33.2188 7.19709 33.4499 7.15554 33.6886 7.12997C33.9762 7.10014 34.2095 7.07351 34.3885 7.05007C34.5675 7.0245 34.6974 6.98615 34.7784 6.93501C34.8615 6.88175 34.9031 6.79972 34.9031 6.68892V6.66974C34.9031 6.42898 34.8317 6.24254 34.6889 6.11044C34.5462 5.97834 34.3406 5.91229 34.0721 5.91229C33.7887 5.91229 33.5639 5.97408 33.3977 6.09766C33.2337 6.22124 33.1229 6.36719 33.0653 6.53551L31.9851 6.3821C32.0703 6.08381 32.2109 5.83452 32.407 5.63423C32.603 5.43182 32.8427 5.28054 33.1261 5.1804C33.4094 5.07812 33.7227 5.02699 34.0657 5.02699C34.3022 5.02699 34.5376 5.05469 34.772 5.11009C35.0064 5.16548 35.2205 5.2571 35.4144 5.38494C35.6083 5.51065 35.7638 5.68217 35.881 5.8995C36.0004 6.11683 36.06 6.38849 36.06 6.71449V10H34.9478V9.32564H34.9094C34.8391 9.462 34.7401 9.58984 34.6122 9.70916C34.4865 9.82635 34.3278 9.92116 34.136 9.99361C33.9464 10.0639 33.7237 10.0991 33.468 10.0991ZM33.7685 9.24893C34.0007 9.24893 34.2021 9.20312 34.3725 9.11151C34.543 9.01776 34.674 8.89418 34.7656 8.74077C34.8594 8.58736 34.9062 8.4201 34.9062 8.23899V7.66051C34.87 7.69034 34.8082 7.71804 34.7209 7.74361C34.6357 7.76918 34.5398 7.79155 34.4332 7.81072C34.3267 7.8299 34.2212 7.84695 34.1168 7.86186C34.0124 7.87678 33.9219 7.88956 33.8452 7.90021C33.6726 7.92365 33.5181 7.962 33.3817 8.01527C33.2454 8.06854 33.1378 8.14311 33.0589 8.23899C32.9801 8.33274 32.9407 8.45419 32.9407 8.60334C32.9407 8.81641 33.0185 8.97727 33.174 9.08594C33.3295 9.1946 33.5277 9.24893 33.7685 9.24893ZM38.3803 7.12358V10H37.2234V5.09091H38.3292V5.92507H38.3867C38.4996 5.65021 38.6797 5.43182 38.9268 5.26989C39.1761 5.10795 39.484 5.02699 39.8505 5.02699C40.1893 5.02699 40.4844 5.09943 40.7358 5.24432C40.9893 5.3892 41.1854 5.59908 41.3239 5.87393C41.4645 6.14879 41.5337 6.48224 41.5316 6.87429V10H40.3746V7.05327C40.3746 6.72514 40.2894 6.46839 40.119 6.28303C39.9506 6.09766 39.7173 6.00497 39.419 6.00497C39.2166 6.00497 39.0366 6.04972 38.8789 6.1392C38.7234 6.22656 38.6009 6.35334 38.5114 6.51953C38.424 6.68572 38.3803 6.88707 38.3803 7.12358ZM43.8647 7.12358V10H42.7077V3.45455H43.8391V5.92507H43.8967C44.0117 5.64808 44.1896 5.42969 44.4304 5.26989C44.6733 5.10795 44.9822 5.02699 45.3572 5.02699C45.6982 5.02699 45.9954 5.09837 46.2489 5.24112C46.5025 5.38388 46.6985 5.59268 46.837 5.86754C46.9776 6.1424 47.0479 6.47798 47.0479 6.87429V10H45.891V7.05327C45.891 6.72301 45.8058 6.46626 45.6353 6.28303C45.467 6.09766 45.2305 6.00497 44.9258 6.00497C44.7212 6.00497 44.538 6.04972 44.3761 6.1392C44.2163 6.22656 44.0906 6.35334 43.9989 6.51953C43.9094 6.68572 43.8647 6.88707 43.8647 7.12358ZM52.911 5.09091V5.9858H50.089V5.09091H52.911ZM50.7857 3.91477H51.9426V8.52344C51.9426 8.67898 51.9661 8.7983 52.013 8.88139C52.062 8.96236 52.1259 9.01776 52.2047 9.04759C52.2836 9.07741 52.3709 9.09233 52.4668 9.09233C52.5392 9.09233 52.6053 9.087 52.665 9.07635C52.7267 9.0657 52.7736 9.05611 52.8056 9.04759L53.0005 9.95206C52.9387 9.97337 52.8503 9.9968 52.7353 10.0224C52.6223 10.0479 52.4838 10.0629 52.3198 10.0671C52.03 10.0756 51.769 10.032 51.5368 9.93608C51.3045 9.83807 51.1202 9.68679 50.9838 9.48224C50.8496 9.2777 50.7836 9.02202 50.7857 8.7152V3.91477ZM55.9672 10.0959C55.4878 10.0959 55.0724 9.99041 54.7208 9.77947C54.3692 9.56854 54.0965 9.27344 53.9026 8.89418C53.7108 8.51491 53.615 8.07173 53.615 7.56463C53.615 7.05753 53.7108 6.61328 53.9026 6.23189C54.0965 5.8505 54.3692 5.55433 54.7208 5.34339C55.0724 5.13246 55.4878 5.02699 55.9672 5.02699C56.4466 5.02699 56.8621 5.13246 57.2137 5.34339C57.5653 5.55433 57.8369 5.8505 58.0287 6.23189C58.2226 6.61328 58.3195 7.05753 58.3195 7.56463C58.3195 8.07173 58.2226 8.51491 58.0287 8.89418C57.8369 9.27344 57.5653 9.56854 57.2137 9.77947C56.8621 9.99041 56.4466 10.0959 55.9672 10.0959ZM55.9736 9.16903C56.2336 9.16903 56.4509 9.09766 56.6256 8.9549C56.8003 8.81001 56.9303 8.61612 57.0155 8.37322C57.1029 8.13033 57.1466 7.85973 57.1466 7.56143C57.1466 7.26101 57.1029 6.98935 57.0155 6.74645C56.9303 6.50142 56.8003 6.30646 56.6256 6.16158C56.4509 6.01669 56.2336 5.94425 55.9736 5.94425C55.7073 5.94425 55.4857 6.01669 55.3089 6.16158C55.1341 6.30646 55.0031 6.50142 54.9157 6.74645C54.8305 6.98935 54.7879 7.26101 54.7879 7.56143C54.7879 7.85973 54.8305 8.13033 54.9157 8.37322C55.0031 8.61612 55.1341 8.81001 55.3089 8.9549C55.4857 9.09766 55.7073 9.16903 55.9736 9.16903ZM60.7141 10.0991C60.4031 10.0991 60.1229 10.0437 59.8736 9.93288C59.6264 9.81996 59.4304 9.65376 59.2855 9.4343C59.1428 9.21484 59.0714 8.94425 59.0714 8.62251C59.0714 8.34553 59.1225 8.11648 59.2248 7.93537C59.3271 7.75426 59.4666 7.60938 59.6435 7.50071C59.8203 7.39205 60.0195 7.31001 60.2411 7.25462C60.4648 7.19709 60.696 7.15554 60.9347 7.12997C61.2223 7.10014 61.4556 7.07351 61.6346 7.05007C61.8136 7.0245 61.9435 6.98615 62.0245 6.93501C62.1076 6.88175 62.1491 6.79972 62.1491 6.68892V6.66974C62.1491 6.42898 62.0778 6.24254 61.935 6.11044C61.7923 5.97834 61.5866 5.91229 61.3182 5.91229C61.0348 5.91229 60.81 5.97408 60.6438 6.09766C60.4798 6.22124 60.369 6.36719 60.3114 6.53551L59.2312 6.3821C59.3164 6.08381 59.457 5.83452 59.6531 5.63423C59.8491 5.43182 60.0888 5.28054 60.3722 5.1804C60.6555 5.07812 60.9688 5.02699 61.3118 5.02699C61.5483 5.02699 61.7837 5.05469 62.0181 5.11009C62.2525 5.16548 62.4666 5.2571 62.6605 5.38494C62.8544 5.51065 63.0099 5.68217 63.1271 5.8995C63.2464 6.11683 63.3061 6.38849 63.3061 6.71449V10H62.1939V9.32564H62.1555C62.0852 9.462 61.9862 9.58984 61.8583 9.70916C61.7326 9.82635 61.5739 9.92116 61.3821 9.99361C61.1925 10.0639 60.9698 10.0991 60.7141 10.0991ZM61.0146 9.24893C61.2468 9.24893 61.4482 9.20312 61.6186 9.11151C61.7891 9.01776 61.9201 8.89418 62.0117 8.74077C62.1055 8.58736 62.1523 8.4201 62.1523 8.23899V7.66051C62.1161 7.69034 62.0543 7.71804 61.967 7.74361C61.8817 7.76918 61.7859 7.79155 61.6793 7.81072C61.5728 7.8299 61.4673 7.84695 61.3629 7.86186C61.2585 7.87678 61.168 7.88956 61.0913 7.90021C60.9187 7.92365 60.7642 7.962 60.6278 8.01527C60.4915 8.06854 60.3839 8.14311 60.305 8.23899C60.2262 8.33274 60.1868 8.45419 60.1868 8.60334C60.1868 8.81641 60.2646 8.97727 60.4201 9.08594C60.5756 9.1946 60.7738 9.24893 61.0146 9.24893ZM60.9187 4.44531L61.6346 2.98473H62.766L61.7848 4.44531H60.9187ZM65.6264 7.12358V10H64.4695V5.09091H65.5753V5.92507H65.6328C65.7457 5.65021 65.9258 5.43182 66.1729 5.26989C66.4222 5.10795 66.7301 5.02699 67.0966 5.02699C67.4354 5.02699 67.7305 5.09943 67.9819 5.24432C68.2354 5.3892 68.4315 5.59908 68.57 5.87393C68.7106 6.14879 68.7798 6.48224 68.7777 6.87429V10H67.6207V7.05327C67.6207 6.72514 67.5355 6.46839 67.3651 6.28303C67.1967 6.09766 66.9634 6.00497 66.6651 6.00497C66.4627 6.00497 66.2827 6.04972 66.125 6.1392C65.9695 6.22656 65.8469 6.35334 65.7575 6.51953C65.6701 6.68572 65.6264 6.88707 65.6264 7.12358ZM22.4162 20.0863C22.0305 20.0863 21.6854 19.9872 21.3807 19.7891C21.076 19.5909 20.8352 19.3033 20.6584 18.9261C20.4815 18.549 20.3931 18.0909 20.3931 17.5518C20.3931 17.0064 20.4826 16.5462 20.6616 16.1712C20.8427 15.794 21.0866 15.5096 21.3935 15.3178C21.7003 15.1239 22.0423 15.027 22.4194 15.027C22.707 15.027 22.9435 15.076 23.1289 15.174C23.3143 15.2699 23.4613 15.386 23.57 15.5224C23.6786 15.6566 23.7628 15.7834 23.8224 15.9027H23.8704V13.4545H25.0305V20H23.8928V19.2266H23.8224C23.7628 19.3459 23.6765 19.4727 23.5636 19.6069C23.4506 19.739 23.3015 19.8519 23.1161 19.9457C22.9308 20.0394 22.6974 20.0863 22.4162 20.0863ZM22.739 19.1371C22.984 19.1371 23.1928 19.071 23.3654 18.9389C23.538 18.8047 23.669 18.6183 23.7585 18.3796C23.848 18.141 23.8928 17.8629 23.8928 17.5455C23.8928 17.228 23.848 16.9521 23.7585 16.7177C23.6712 16.4833 23.5412 16.3011 23.3686 16.1712C23.1982 16.0412 22.9883 15.9762 22.739 15.9762C22.4812 15.9762 22.266 16.0433 22.0934 16.1776C21.9208 16.3118 21.7908 16.4972 21.7035 16.7337C21.6161 16.9702 21.5724 17.2408 21.5724 17.5455C21.5724 17.8523 21.6161 18.1261 21.7035 18.3668C21.793 18.6055 21.924 18.794 22.0966 18.9325C22.2713 19.0689 22.4854 19.1371 22.739 19.1371ZM22.5728 14.7234V13.9915H25.6346V14.7234H22.5728ZM27.676 20.0991C27.365 20.0991 27.0848 20.0437 26.8355 19.9329C26.5883 19.82 26.3923 19.6538 26.2474 19.4343C26.1047 19.2148 26.0333 18.9442 26.0333 18.6225C26.0333 18.3455 26.0844 18.1165 26.1867 17.9354C26.289 17.7543 26.4285 17.6094 26.6054 17.5007C26.7822 17.392 26.9814 17.31 27.203 17.2546C27.4268 17.1971 27.6579 17.1555 27.8966 17.13C28.1842 17.1001 28.4175 17.0735 28.5965 17.0501C28.7755 17.0245 28.9055 16.9862 28.9864 16.935C29.0695 16.8817 29.1111 16.7997 29.1111 16.6889V16.6697C29.1111 16.429 29.0397 16.2425 28.8969 16.1104C28.7542 15.9783 28.5486 15.9123 28.2801 15.9123C27.9967 15.9123 27.7719 15.9741 27.6057 16.0977C27.4417 16.2212 27.3309 16.3672 27.2733 16.5355L26.1931 16.3821C26.2783 16.0838 26.4189 15.8345 26.615 15.6342C26.811 15.4318 27.0507 15.2805 27.3341 15.1804C27.6175 15.0781 27.9307 15.027 28.2737 15.027C28.5102 15.027 28.7457 15.0547 28.98 15.1101C29.2144 15.1655 29.4285 15.2571 29.6224 15.3849C29.8163 15.5107 29.9719 15.6822 30.089 15.8995C30.2084 16.1168 30.268 16.3885 30.268 16.7145V20H29.1558V19.3256H29.1175C29.0471 19.462 28.9481 19.5898 28.8202 19.7092C28.6945 19.8263 28.5358 19.9212 28.344 19.9936C28.1544 20.0639 27.9317 20.0991 27.676 20.0991ZM27.9765 19.2489C28.2087 19.2489 28.4101 19.2031 28.5805 19.1115C28.751 19.0178 28.882 18.8942 28.9736 18.7408C29.0674 18.5874 29.1143 18.4201 29.1143 18.239V17.6605C29.078 17.6903 29.0162 17.718 28.9289 17.7436C28.8437 17.7692 28.7478 17.7915 28.6412 17.8107C28.5347 17.8299 28.4292 17.8469 28.3248 17.8619C28.2204 17.8768 28.1299 17.8896 28.0532 17.9002C27.8806 17.9237 27.7261 17.962 27.5898 18.0153C27.4534 18.0685 27.3458 18.1431 27.267 18.239C27.1881 18.3327 27.1487 18.4542 27.1487 18.6033C27.1487 18.8164 27.2265 18.9773 27.382 19.0859C27.5376 19.1946 27.7357 19.2489 27.9765 19.2489ZM28.7691 14.4006H27.887L27.8422 13.7869C28.0681 13.7784 28.2279 13.7496 28.3216 13.7006C28.4154 13.6495 28.4612 13.5792 28.4591 13.4897C28.4612 13.3746 28.3994 13.2947 28.2737 13.25C28.148 13.2053 27.9925 13.1829 27.8071 13.1829L27.8358 12.6108C28.3643 12.6108 28.7648 12.6875 29.0376 12.8409C29.3103 12.9943 29.4456 13.2031 29.4434 13.4673C29.4456 13.6697 29.3763 13.821 29.2357 13.9212C29.0951 14.0192 28.9395 14.081 28.7691 14.1065V14.4006ZM31.4314 20V15.0909H32.5372V15.9251H32.5947C32.697 15.6438 32.8664 15.4244 33.1029 15.2667C33.3394 15.1069 33.6217 15.027 33.9498 15.027C34.2822 15.027 34.5624 15.108 34.7904 15.2699C35.0205 15.4297 35.1824 15.6481 35.2762 15.9251H35.3273C35.436 15.6523 35.6192 15.435 35.877 15.2731C36.137 15.109 36.4449 15.027 36.8007 15.027C37.2524 15.027 37.621 15.1697 37.9065 15.4553C38.192 15.7408 38.3348 16.1573 38.3348 16.7049V20H37.1746V16.8839C37.1746 16.5792 37.0937 16.3565 36.9317 16.2159C36.7698 16.0732 36.5716 16.0018 36.3373 16.0018C36.0581 16.0018 35.8398 16.0891 35.6821 16.2638C35.5265 16.4364 35.4488 16.6612 35.4488 16.9382V20H34.3142V16.8359C34.3142 16.5824 34.2375 16.38 34.0841 16.2287C33.9328 16.0774 33.7346 16.0018 33.4896 16.0018C33.3234 16.0018 33.1721 16.0444 33.0358 16.1296C32.8994 16.2127 32.7907 16.331 32.7098 16.4844C32.6288 16.6357 32.5883 16.8125 32.5883 17.0149V20H31.4314ZM41.7921 20V13.4545H42.949V15.9027H42.997C43.0566 15.7834 43.1408 15.6566 43.2495 15.5224C43.3581 15.386 43.5051 15.2699 43.6905 15.174C43.8759 15.076 44.1124 15.027 44.4 15.027C44.7793 15.027 45.1213 15.1239 45.426 15.3178C45.7328 15.5096 45.9757 15.794 46.1547 16.1712C46.3358 16.5462 46.4263 17.0064 46.4263 17.5518C46.4263 18.0909 46.3379 18.549 46.161 18.9261C45.9842 19.3033 45.7434 19.5909 45.4387 19.7891C45.1341 19.9872 44.7889 20.0863 44.4032 20.0863C44.122 20.0863 43.8887 20.0394 43.7033 19.9457C43.5179 19.8519 43.3688 19.739 43.2559 19.6069C43.1451 19.4727 43.0588 19.3459 42.997 19.2266H42.9299V20H41.7921ZM42.9267 17.5455C42.9267 17.8629 42.9714 18.141 43.0609 18.3796C43.1525 18.6183 43.2836 18.8047 43.454 18.9389C43.6266 19.071 43.8354 19.1371 44.0804 19.1371C44.3361 19.1371 44.5502 19.0689 44.7228 18.9325C44.8954 18.794 45.0254 18.6055 45.1127 18.3668C45.2022 18.1261 45.247 17.8523 45.247 17.5455C45.247 17.2408 45.2033 16.9702 45.1159 16.7337C45.0286 16.4972 44.8986 16.3118 44.726 16.1776C44.5534 16.0433 44.3382 15.9762 44.0804 15.9762C43.8333 15.9762 43.6234 16.0412 43.4508 16.1712C43.2782 16.3011 43.1472 16.4833 43.0577 16.7177C42.9703 16.9521 42.9267 17.228 42.9267 17.5455ZM48.8225 20.0991C48.5115 20.0991 48.2313 20.0437 47.982 19.9329C47.7348 19.82 47.5388 19.6538 47.3939 19.4343C47.2512 19.2148 47.1798 18.9442 47.1798 18.6225C47.1798 18.3455 47.2309 18.1165 47.3332 17.9354C47.4355 17.7543 47.575 17.6094 47.7519 17.5007C47.9287 17.392 48.1279 17.31 48.3495 17.2546C48.5732 17.1971 48.8044 17.1555 49.0431 17.13C49.3307 17.1001 49.564 17.0735 49.743 17.0501C49.922 17.0245 50.0519 16.9862 50.1329 16.935C50.216 16.8817 50.2575 16.7997 50.2575 16.6889V16.6697C50.2575 16.429 50.1862 16.2425 50.0434 16.1104C49.9007 15.9783 49.695 15.9123 49.4266 15.9123C49.1432 15.9123 48.9184 15.9741 48.7522 16.0977C48.5882 16.2212 48.4774 16.3672 48.4198 16.5355L47.3396 16.3821C47.4248 16.0838 47.5654 15.8345 47.7615 15.6342C47.9575 15.4318 48.1972 15.2805 48.4806 15.1804C48.7639 15.0781 49.0771 15.027 49.4202 15.027C49.6567 15.027 49.8921 15.0547 50.1265 15.1101C50.3609 15.1655 50.575 15.2571 50.7689 15.3849C50.9628 15.5107 51.1183 15.6822 51.2355 15.8995C51.3548 16.1168 51.4145 16.3885 51.4145 16.7145V20H50.3023V19.3256H50.2639C50.1936 19.462 50.0945 19.5898 49.9667 19.7092C49.841 19.8263 49.6823 19.9212 49.4905 19.9936C49.3009 20.0639 49.0782 20.0991 48.8225 20.0991ZM49.123 19.2489C49.3552 19.2489 49.5566 19.2031 49.727 19.1115C49.8975 19.0178 50.0285 18.8942 50.1201 18.7408C50.2139 18.5874 50.2607 18.4201 50.2607 18.239V17.6605C50.2245 17.6903 50.1627 17.718 50.0754 17.7436C49.9901 17.7692 49.8943 17.7915 49.7877 17.8107C49.6812 17.8299 49.5757 17.8469 49.4713 17.8619C49.3669 17.8768 49.2764 17.8896 49.1997 17.9002C49.0271 17.9237 48.8726 17.962 48.7362 18.0153C48.5999 18.0685 48.4923 18.1431 48.4134 18.239C48.3346 18.3327 48.2952 18.4542 48.2952 18.6033C48.2952 18.8164 48.373 18.9773 48.5285 19.0859C48.684 19.1946 48.8822 19.2489 49.123 19.2489ZM49.9156 14.4006H49.0335L48.9887 13.7869C49.2146 13.7784 49.3744 13.7496 49.4681 13.7006C49.5619 13.6495 49.6077 13.5792 49.6056 13.4897C49.6077 13.3746 49.5459 13.2947 49.4202 13.25C49.2945 13.2053 49.1389 13.1829 48.9536 13.1829L48.9823 12.6108C49.5107 12.6108 49.9113 12.6875 50.184 12.8409C50.4568 12.9943 50.5921 13.2031 50.5899 13.4673C50.5921 13.6697 50.5228 13.821 50.3822 13.9212C50.2416 14.0192 50.086 14.081 49.9156 14.1065V14.4006ZM54.7192 20.0959C54.2398 20.0959 53.8243 19.9904 53.4727 19.7795C53.1212 19.5685 52.8485 19.2734 52.6546 18.8942C52.4628 18.5149 52.3669 18.0717 52.3669 17.5646C52.3669 17.0575 52.4628 16.6133 52.6546 16.2319C52.8485 15.8505 53.1212 15.5543 53.4727 15.3434C53.8243 15.1325 54.2398 15.027 54.7192 15.027C55.1986 15.027 55.6141 15.1325 55.9656 15.3434C56.3172 15.5543 56.5889 15.8505 56.7806 16.2319C56.9745 16.6133 57.0715 17.0575 57.0715 17.5646C57.0715 18.0717 56.9745 18.5149 56.7806 18.8942C56.5889 19.2734 56.3172 19.5685 55.9656 19.7795C55.6141 19.9904 55.1986 20.0959 54.7192 20.0959ZM54.7256 19.169C54.9855 19.169 55.2029 19.0977 55.3776 18.9549C55.5523 18.81 55.6823 18.6161 55.7675 18.3732C55.8548 18.1303 55.8985 17.8597 55.8985 17.5614C55.8985 17.261 55.8548 16.9893 55.7675 16.7464C55.6823 16.5014 55.5523 16.3065 55.3776 16.1616C55.2029 16.0167 54.9855 15.9442 54.7256 15.9442C54.4593 15.9442 54.2377 16.0167 54.0608 16.1616C53.8861 16.3065 53.7551 16.5014 53.6677 16.7464C53.5825 16.9893 53.5399 17.261 53.5399 17.5614C53.5399 17.8597 53.5825 18.1303 53.6677 18.3732C53.7551 18.6161 53.8861 18.81 54.0608 18.9549C54.2377 19.0977 54.4593 19.169 54.7256 19.169Z" fill="white"/>
<defs>
<clipPath id="clip0_2091_212454">
<rect width="8" height="8" fill="white" transform="translate(6 8)"/>
</clipPath>
</defs>
</svg>
