<svg width="16" height="16" viewBox="0 0 16 16" fill="none" xmlns="http://www.w3.org/2000/svg">
<rect width="16" height="16" rx="8" fill="#206EAC"/>
<path d="M6.19531 11.2454V6.16535C6.19531 5.96535 6.25531 5.77035 6.36531 5.60535L7.73031 3.57535C7.94531 3.25035 8.48031 3.02035 8.93531 3.19035C9.42531 3.35535 9.75031 3.90535 9.64531 4.39535L9.38531 6.03035C9.36531 6.18035 9.40531 6.31535 9.49031 6.42035C9.57531 6.51535 9.70031 6.57535 9.83531 6.57535H11.8903C12.2853 6.57535 12.6253 6.73535 12.8253 7.01535C13.0153 7.28535 13.0503 7.63535 12.9253 7.99035L11.6953 11.7354C11.5403 12.3554 10.8653 12.8604 10.1953 12.8604H8.24531C7.91031 12.8604 7.44031 12.7454 7.22531 12.5304L6.58531 12.0354C6.34031 11.8504 6.19531 11.5554 6.19531 11.2454Z" fill="white"/>
<path d="M4.605 5.19141H4.09C3.315 5.19141 3 5.49141 3 6.23141V11.2614C3 12.0014 3.315 12.3014 4.09 12.3014H4.605C5.38 12.3014 5.695 12.0014 5.695 11.2614V6.23141C5.695 5.49141 5.38 5.19141 4.605 5.19141Z" fill="white"/>
</svg>
