<svg width="22" height="99" viewBox="0 0 22 99" fill="none" xmlns="http://www.w3.org/2000/svg">
<path d="M1.57121 1C1.57121 0.723858 1.34736 0.5 1.07121 0.5C0.795071 0.5 0.571213 0.723858 0.571213 1H1.57121ZM1.07121 66.9872L1.57121 66.9872V66.9872H1.07121ZM21.3536 95.1249C21.5488 94.9296 21.5488 94.613 21.3536 94.4178L18.1716 91.2358C17.9763 91.0405 17.6597 91.0405 17.4645 91.2358C17.2692 91.431 17.2692 91.7476 17.4645 91.9429L20.2929 94.7713L17.4645 97.5997C17.2692 97.795 17.2692 98.1116 17.4645 98.3069C17.6597 98.5021 17.9763 98.5021 18.1716 98.3069L21.3536 95.1249ZM0.571213 1V66.9872H1.57121V1H0.571213ZM0.571213 66.9872C0.571012 75.0703 0.424298 80.8855 0.552732 85.019C0.617065 87.0895 0.750796 88.7672 1.01261 90.1182C1.27431 91.4687 1.67046 92.5288 2.28444 93.3372C3.5373 94.9868 5.55845 95.4157 8.47683 95.4882C9.95004 95.5248 11.7014 95.4699 13.7639 95.4068C15.8314 95.3434 18.2242 95.2713 21 95.2713V94.2713C18.2074 94.2713 15.801 94.3439 13.7333 94.4072C11.6607 94.4707 9.94094 94.5243 8.50167 94.4885C5.5951 94.4163 4.02602 93.977 3.08081 92.7324C2.59576 92.0938 2.24091 91.2003 1.99434 89.9279C1.74788 88.6561 1.61606 87.0417 1.55225 84.9879C1.4244 80.8731 1.57101 75.1115 1.57121 66.9872L0.571213 66.9872Z" fill="#AEB4C1"/>
</svg>
