<svg width="17" height="16" viewBox="0 0 17 16" fill="none" xmlns="http://www.w3.org/2000/svg">
<path d="M1.55341 0.5C1.55341 0.223858 1.32955 0 1.05341 0C0.777268 0 0.55341 0.223858 0.55341 0.5H1.55341ZM1.05341 8.22191L1.55341 8.22199V8.22191H1.05341ZM16.3536 11.8268C16.5488 11.6315 16.5488 11.3149 16.3536 11.1197L13.1716 7.93771C12.9763 7.74244 12.6597 7.74244 12.4645 7.93771C12.2692 8.13297 12.2692 8.44955 12.4645 8.64481L15.2929 11.4732L12.4645 14.3017C12.2692 14.4969 12.2692 14.8135 12.4645 15.0088C12.6597 15.204 12.9763 15.204 13.1716 15.0088L16.3536 11.8268ZM0.55341 0.5V8.22191H1.55341V0.5H0.55341ZM0.55341 8.22183C0.553337 8.68123 0.526872 9.0672 0.510787 9.42844C0.49547 9.77241 0.487575 10.1194 0.548997 10.4278C0.61513 10.7599 0.764574 11.0659 1.06403 11.307C1.34449 11.5329 1.71611 11.6683 2.16135 11.7598C3.04401 11.9411 4.44374 11.9902 6.615 11.9986C8.79672 12.0071 11.8352 11.9732 16 11.9732V10.9732C11.8121 10.9732 8.80586 11.0071 6.61888 10.9986C4.42143 10.9901 3.12848 10.9376 2.36259 10.7803C1.98355 10.7024 1.79193 10.6093 1.69118 10.5281C1.60943 10.4623 1.55971 10.3831 1.52974 10.2325C1.49505 10.0584 1.4941 9.82537 1.5098 9.47293C1.52472 9.13776 1.55333 8.7109 1.55341 8.22199L0.55341 8.22183Z" fill="#AEB4C1"/>
</svg>
