<svg width="20" height="20" viewBox="0 0 20 20" fill="none" xmlns="http://www.w3.org/2000/svg">
<path d="M2.91808 9.65951C2.86365 9.60652 2.82039 9.54316 2.79085 9.47317C2.76131 9.40318 2.74609 9.32798 2.74609 9.25201C2.74609 9.17605 2.76131 9.10085 2.79085 9.03086C2.82039 8.96087 2.86365 8.89751 2.91808 8.84451C3.02965 8.73586 3.17922 8.67506 3.33496 8.67506C3.49069 8.67506 3.64027 8.73586 3.75183 8.84451L9.99933 14.9358L16.2481 8.84451C16.3042 8.78968 16.3706 8.74644 16.4435 8.71727C16.5163 8.6881 16.5942 8.67356 16.6727 8.67449C16.7511 8.67542 16.8286 8.69179 16.9008 8.72268C16.9729 8.75357 17.0383 8.79837 17.0931 8.85451C17.1453 8.90799 17.1865 8.97125 17.2143 9.04068C17.2421 9.1101 17.2559 9.18432 17.255 9.25909C17.2541 9.33386 17.2384 9.40771 17.2089 9.47642C17.1794 9.54513 17.1367 9.60735 17.0831 9.65951L10.4356 16.137C10.3189 16.2508 10.1623 16.3145 9.99933 16.3145C9.83634 16.3145 9.6798 16.2508 9.56308 16.137L2.91808 9.65951ZM2.91808 4.65951C2.86365 4.60652 2.82039 4.54316 2.79085 4.47317C2.76131 4.40318 2.74609 4.32798 2.74609 4.25201C2.74609 4.17605 2.76131 4.10085 2.79085 4.03086C2.82039 3.96087 2.86365 3.89751 2.91808 3.84451C3.02965 3.73586 3.17922 3.67506 3.33496 3.67506C3.49069 3.67506 3.64027 3.73586 3.75183 3.84451L9.99933 9.93576L16.2481 3.84451C16.3042 3.78968 16.3706 3.74644 16.4435 3.71727C16.5163 3.6881 16.5942 3.67356 16.6727 3.67449C16.7511 3.67542 16.8286 3.69179 16.9008 3.72268C16.9729 3.75357 17.0383 3.79837 17.0931 3.85451C17.1453 3.90799 17.1865 3.97125 17.2143 4.04067C17.2421 4.1101 17.2559 4.18432 17.255 4.25909C17.2541 4.33386 17.2384 4.40771 17.2089 4.47642C17.1794 4.54513 17.1367 4.60735 17.0831 4.65951L10.4356 11.137C10.3189 11.2508 10.1623 11.3145 9.99933 11.3145C9.83634 11.3145 9.6798 11.2508 9.56308 11.137L2.91808 4.65951Z" fill="#F26222"/>
</svg>
