<svg width="50" height="50" viewBox="0 0 50 50" fill="none" xmlns="http://www.w3.org/2000/svg">
<path opacity="0.15" d="M0 0H37C44.1797 0 50 5.8203 50 13V37C50 44.1797 44.1797 50 37 50H0V0Z" fill="black"/>
<path d="M29.3997 14.6594C29.7044 14.9641 29.8755 15.3774 29.8755 15.8082C29.8755 16.2391 29.7044 16.6524 29.3997 16.9571L21.356 25.0009L29.3997 33.0446C29.6958 33.3511 29.8595 33.7616 29.8558 34.1876C29.8521 34.6137 29.6812 35.0213 29.38 35.3225C29.0787 35.6238 28.6711 35.7947 28.245 35.7984C27.819 35.8021 27.4085 35.6383 27.102 35.3423L17.9094 26.1497C17.6047 25.845 17.4336 25.4317 17.4336 25.0009C17.4336 24.57 17.6047 24.1567 17.9094 23.852L27.102 14.6594C27.4067 14.3547 27.82 14.1836 28.2509 14.1836C28.6818 14.1836 29.095 14.3547 29.3997 14.6594Z" fill="url(#paint0_linear_32_406)"/>
<defs>
<linearGradient id="paint0_linear_32_406" x1="23.337" y1="14.1836" x2="23.5075" y2="35.7997" gradientUnits="userSpaceOnUse">
<stop offset="1" stop-color="white"/>
</linearGradient>
</defs>
</svg>
