<svg width="28" height="28" viewBox="0 0 28 28" fill="none" xmlns="http://www.w3.org/2000/svg">
<path opacity="0.4" d="M18.8902 10.3361C18.4352 10.3361 18.0735 9.97448 18.0735 9.51948V8.02614C18.0735 6.88281 17.5835 5.78614 16.7435 5.01614C15.8802 4.23448 14.7719 3.87281 13.6052 3.97781C11.6452 4.16448 9.93021 6.15948 9.93021 8.23614V9.28614C9.93021 9.74114 9.56854 10.1028 9.11354 10.1028C8.65854 10.1028 8.29688 9.74114 8.29688 9.28614V8.23614C8.29688 5.31948 10.6535 2.62448 13.4419 2.35614C15.0635 2.20448 16.6269 2.71781 17.8285 3.81448C19.0185 4.88781 19.6952 6.42781 19.6952 8.02614V9.51948C19.6952 9.97448 19.3335 10.3361 18.8902 10.3361Z" fill="#F26222"/>
<path d="M23.2877 10.4538C22.3077 9.36875 20.6977 8.84375 18.341 8.84375H9.66101C7.30434 8.84375 5.69434 9.36875 4.71434 10.4538C3.58267 11.7138 3.61767 13.3937 3.74601 14.5604L4.56267 21.0588C4.80767 23.3337 5.72934 25.6671 10.746 25.6671H17.256C22.2727 25.6671 23.1943 23.3338 23.4393 21.0704L24.256 14.5488C24.3843 13.3938 24.4077 11.7138 23.2877 10.4538ZM9.82434 15.3421H9.81267C9.17101 15.3421 8.64601 14.8171 8.64601 14.1754C8.64601 13.5338 9.17101 13.0087 9.81267 13.0087C10.466 13.0087 10.991 13.5338 10.991 14.1754C10.991 14.8171 10.466 15.3421 9.82434 15.3421ZM17.991 15.3421H17.9793C17.3377 15.3421 16.8127 14.8171 16.8127 14.1754C16.8127 13.5338 17.3377 13.0087 17.9793 13.0087C18.6327 13.0087 19.1577 13.5338 19.1577 14.1754C19.1577 14.8171 18.6327 15.3421 17.991 15.3421Z" fill="#F26222"/>
</svg>
