<svg width="28" height="28" viewBox="0 0 28 28" fill="none" xmlns="http://www.w3.org/2000/svg">
<path opacity="0.6" d="M11.7937 4.66602C11.7003 5.01602 11.6654 5.40102 11.6654 5.83268V9.33268H5.83203V6.99935C5.83203 5.71602 6.88203 4.66602 8.16536 4.66602H11.7937Z" fill="#F26222"/>
<path d="M11.6654 22.1673V9.33398H5.83203C3.4987 9.33398 2.33203 10.5007 2.33203 12.834V22.1673C2.33203 24.5007 3.4987 25.6673 5.83203 25.6673H15.1654C12.832 25.6673 11.6654 24.5007 11.6654 22.1673ZM7.8737 19.834C7.8737 20.3123 7.47703 20.709 6.9987 20.709C6.52036 20.709 6.1237 20.3123 6.1237 19.834V15.1673C6.1237 14.689 6.52036 14.2923 6.9987 14.2923C7.47703 14.2923 7.8737 14.689 7.8737 15.1673V19.834Z" fill="#F26222"/>
<path opacity="0.4" d="M16.3346 25.6673H15.168C12.8346 25.6673 11.668 24.5007 11.668 22.1673V5.83398C11.668 3.50065 12.8346 2.33398 15.168 2.33398H22.168C24.5013 2.33398 25.668 3.50065 25.668 5.83398V22.1673C25.668 24.5007 24.5013 25.6673 22.168 25.6673H21.0013" fill="#F26222"/>
<path d="M20.9987 21.0007V25.6673H16.332V21.0007C16.332 20.359 16.857 19.834 17.4987 19.834H19.832C20.4737 19.834 20.9987 20.359 20.9987 21.0007Z" fill="#F26222"/>
<path d="M16.332 16.0423C15.8537 16.0423 15.457 15.6457 15.457 15.1673V9.33398C15.457 8.85565 15.8537 8.45898 16.332 8.45898C16.8104 8.45898 17.207 8.85565 17.207 9.33398V15.1673C17.207 15.6457 16.8104 16.0423 16.332 16.0423Z" fill="#F26222"/>
<path d="M21 16.0423C20.5217 16.0423 20.125 15.6457 20.125 15.1673V9.33398C20.125 8.85565 20.5217 8.45898 21 8.45898C21.4783 8.45898 21.875 8.85565 21.875 9.33398V15.1673C21.875 15.6457 21.4783 16.0423 21 16.0423Z" fill="#F26222"/>
</svg>
