<svg width="22" height="22" viewBox="0 0 22 22" fill="none" xmlns="http://www.w3.org/2000/svg">
<path d="M15.9945 20.8548C14.9587 20.8548 13.8679 20.6073 12.7404 20.1306C11.6404 19.6631 10.5312 19.0215 9.44953 18.2423C8.37703 17.454 7.3412 16.574 6.36036 15.6115C5.3887 14.6307 4.5087 13.5948 3.72953 12.5315C2.9412 11.4315 2.3087 10.3315 1.85953 9.26815C1.38286 8.13148 1.14453 7.03148 1.14453 5.99565C1.14453 5.28065 1.27286 4.60232 1.52036 3.96982C1.77703 3.31898 2.18953 2.71398 2.7487 2.19148C3.45453 1.49482 4.2612 1.14648 5.12286 1.14648C5.48036 1.14648 5.84703 1.22898 6.1587 1.37565C6.5162 1.54065 6.8187 1.78815 7.0387 2.11815L9.16536 5.11565C9.35786 5.38148 9.50453 5.63815 9.60536 5.89482C9.72453 6.16982 9.7887 6.44482 9.7887 6.71065C9.7887 7.05898 9.68786 7.39815 9.49536 7.71898C9.35786 7.96648 9.14703 8.23232 8.8812 8.49815L8.25786 9.14898C8.26703 9.17648 8.2762 9.19482 8.28536 9.21315C8.39536 9.40565 8.61536 9.73565 9.03703 10.2307C9.4862 10.744 9.90786 11.2115 10.3295 11.6423C10.8704 12.174 11.3195 12.5957 11.7412 12.944C12.2637 13.384 12.6029 13.604 12.8045 13.7048L12.7862 13.7507L13.4554 13.0907C13.7395 12.8065 14.0145 12.5957 14.2804 12.4582C14.7845 12.1465 15.4262 12.0915 16.0679 12.3573C16.3062 12.4581 16.5629 12.5957 16.8379 12.7882L19.8812 14.9515C20.2204 15.1806 20.4679 15.474 20.6145 15.8223C20.752 16.1707 20.8162 16.4915 20.8162 16.8123C20.8162 17.2523 20.7154 17.6923 20.5229 18.1048C20.3304 18.5173 20.092 18.8748 19.7895 19.2048C19.267 19.7823 18.6987 20.1948 18.0387 20.4606C17.4062 20.7173 16.7187 20.8548 15.9945 20.8548ZM12.7862 13.7598L12.6395 14.3832L12.887 13.7415C12.8412 13.7323 12.8045 13.7415 12.7862 13.7598Z" fill="#76B51B"/>
<path d="M16.9583 8.93685C16.5825 8.93685 16.2708 8.62518 16.2708 8.24935C16.2708 7.91935 15.9408 7.23185 15.3908 6.64518C14.85 6.06768 14.2542 5.72852 13.75 5.72852C13.3742 5.72852 13.0625 5.41685 13.0625 5.04102C13.0625 4.66518 13.3742 4.35352 13.75 4.35352C14.6392 4.35352 15.5742 4.83018 16.39 5.70102C17.1508 6.51685 17.6458 7.51602 17.6458 8.24935C17.6458 8.62518 17.3342 8.93685 16.9583 8.93685Z" fill="#76B51B"/>
<path d="M20.1667 8.93815C19.7908 8.93815 19.4792 8.62648 19.4792 8.25065C19.4792 5.08815 16.9125 2.52148 13.75 2.52148C13.3742 2.52148 13.0625 2.20982 13.0625 1.83398C13.0625 1.45815 13.3742 1.14648 13.75 1.14648C17.6642 1.14648 20.8542 4.33648 20.8542 8.25065C20.8542 8.62648 20.5425 8.93815 20.1667 8.93815Z" fill="#76B51B"/>
</svg>
