<svg width="24" height="24" viewBox="0 0 24 24" fill="none" xmlns="http://www.w3.org/2000/svg">
<path d="M12.3197 21.8695C18.3443 21.8695 23.2288 17.2899 23.2288 11.6408C23.2288 5.99163 18.3443 1.41211 12.3197 1.41211C6.29519 1.41211 1.41064 5.99163 1.41064 11.6408C1.41064 14.2126 2.42383 16.5652 4.09701 18.3625C3.96474 19.8471 3.52837 21.4749 3.04564 22.6965C2.93792 22.9683 3.14655 23.2723 3.41792 23.2255C6.49428 22.6848 8.32292 21.8549 9.11792 21.4223C10.1623 21.7208 11.2388 21.8712 12.3197 21.8695Z" fill="white"/>
<path d="M6.94682 12.5956C6.8729 12.6563 6.77132 12.7094 6.63022 12.7435L6.63446 12.7405C6.88951 12.5547 6.98441 12.2774 6.98441 12.011C6.98441 11.876 6.95895 11.7425 6.90385 11.6195C6.98241 11.6733 7.02204 11.7224 7.04289 11.7603L7.04805 11.7696L7.05361 11.7787C7.09411 11.8453 7.12992 11.9523 7.12992 12.1275C7.12992 12.3644 7.0584 12.4993 6.94682 12.5956ZM7.05891 10.4942C7.01447 10.5649 6.96024 10.6308 6.89448 10.6918C6.94166 10.5721 6.96023 10.446 6.96023 10.3274C6.96023 10.0693 6.86874 9.80448 6.63128 9.62058C6.62429 9.61502 6.61725 9.6096 6.61017 9.60434C6.77157 9.63765 6.88151 9.68823 6.95407 9.74195C7.04156 9.81035 7.12428 9.93473 7.12428 10.2226C7.12428 10.3401 7.09862 10.4259 7.05891 10.4942Z" fill="#76B51B" stroke="#76B51B"/>
<path d="M8.78134 9.94014C8.72219 10.0198 8.67364 10.1067 8.63549 10.1993C8.55582 10.3852 8.52313 10.5829 8.52313 10.7826V11.2826H8.52877V11.6279C8.52877 11.9635 8.61616 12.2903 8.84048 12.5461C8.80318 12.519 8.76936 12.4905 8.73876 12.4609C8.52263 12.2518 8.3623 11.8747 8.3623 11.215C8.3623 10.5564 8.53048 10.1724 8.76872 9.95178L8.76873 9.95178L8.77066 9.94998C8.77418 9.94668 8.77774 9.9434 8.78134 9.94014ZM11.3353 12.0324C11.3353 11.8095 11.2741 11.5578 11.074 11.3647C11.1672 11.3959 11.2361 11.4332 11.2859 11.4715C11.3861 11.5511 11.4727 11.6891 11.4727 11.9873C11.4727 12.2832 11.3728 12.4558 11.1902 12.5809C11.1786 12.5889 11.1666 12.5967 11.1541 12.6044C11.2802 12.438 11.3353 12.2364 11.3353 12.0324Z" fill="#76B51B" stroke="#76B51B"/>
<path d="M15.2483 12.5677C15.1861 12.6178 15.1062 12.6633 15.0039 12.6993C15.2259 12.4999 15.2795 12.2241 15.2795 12.0056C15.2795 11.7746 15.2211 11.489 14.9866 11.286L14.9778 11.2784L14.9686 11.2711C14.9664 11.2694 14.9641 11.2676 14.9619 11.2659C15.0908 11.3003 15.1898 11.3547 15.2681 11.421C15.3284 11.4836 15.3764 11.5565 15.4123 11.6423C15.445 11.7328 15.4669 11.852 15.4669 12.0056C15.4669 12.2978 15.3781 12.4601 15.2483 12.5677ZM12.693 10.7256V11.0655H12.6152V9.56445H12.693V9.90899V10.7256Z" fill="#76B51B" stroke="#76B51B"/>
<path d="M17.6597 14.4069C17.619 14.3962 17.5785 14.3855 17.5384 14.3749L18.23 13.7747L19.6893 14.1825C19.6906 14.1831 19.692 14.1838 19.6935 14.1845C19.7142 14.1942 19.7451 14.2096 19.7812 14.2302C19.8572 14.2734 19.9376 14.3291 19.9967 14.3899C20.0573 14.4522 20.0637 14.4864 20.0642 14.4904L20.0642 14.4905C20.0643 14.4915 20.0653 14.4989 20.059 14.517C20.0527 14.5354 20.0372 14.5694 19.9996 14.6184C19.8682 14.7421 19.8067 14.7893 19.7102 14.817C19.6007 14.8486 19.3808 14.8688 18.9218 14.751C18.7428 14.6954 18.1716 14.5425 17.6597 14.4069Z" fill="#76B51B" stroke="#76B51B"/>
<path d="M7.4821 14.8692C7.64451 15.0043 7.822 15.1204 8.00916 15.2159C8.32525 15.3778 8.66232 15.4795 8.99668 15.5363C9.43583 15.6113 9.87658 15.6124 10.2979 15.5739L7.4821 14.8692ZM7.4821 14.8692C7.82768 15.3467 8.35775 15.6721 8.98353 15.8224L8.98377 15.8225C9.64457 15.9816 10.3626 15.9657 11.0865 15.8675L7.4821 14.8692ZM17.5369 8.99285C17.7358 9.21322 17.8907 9.49136 17.9274 9.83438L17.9274 9.83464C18.0046 10.5595 17.7254 11.2018 17.3627 11.7237C17.0005 12.2447 16.5229 12.6925 16.1233 13.0426L16.1136 13.0511L16.1135 13.0509C16.1009 13.0614 16.0882 13.0725 16.0706 13.0878L16.0692 13.089C14.8629 14.1321 13.4495 14.7961 11.9473 15.2417L11.9472 15.2417C11.4203 15.3979 10.867 15.5219 10.298 15.5739L17.5369 8.99285ZM17.5369 8.99285C17.9788 9.1754 18.2795 9.43698 18.4297 9.79311C18.5105 10.0499 18.5318 10.3422 18.5064 10.64L18.5064 10.6404C18.4588 11.2045 18.231 11.7599 17.8852 12.2616L17.885 12.2619C17.3024 13.1079 16.4365 13.7813 15.4872 14.3419L15.487 14.342C14.6938 14.8107 13.878 15.1735 12.9965 15.4376L12.9964 15.4377C12.3635 15.6275 11.7281 15.7804 11.0865 15.8675L17.5369 8.99285Z" fill="#76B51B" stroke="#76B51B"/>
<mask id="path-7-inside-1_2352_88442" fill="white">
<path fill-rule="evenodd" clip-rule="evenodd" d="M7.65771 13.555C7.65771 13.555 9.88988 15.4994 13.7222 13.416C13.295 13.9019 8.52349 16.1243 7.65771 13.555Z"/>
</mask>
<path fill-rule="evenodd" clip-rule="evenodd" d="M7.65771 13.555C7.65771 13.555 9.88988 15.4994 13.7222 13.416C13.295 13.9019 8.52349 16.1243 7.65771 13.555Z" fill="#76B51B"/>
<path d="M7.65771 13.555L8.31456 12.8009L5.53144 10.3765L6.71007 13.8743L7.65771 13.555ZM13.7222 13.416L14.4732 14.0763L13.2446 12.5375L13.7222 13.416ZM7.65771 13.555C7.00087 14.309 7.00139 14.3094 7.00192 14.3099C7.0021 14.3101 7.00264 14.3105 7.00302 14.3109C7.00377 14.3115 7.00456 14.3122 7.00538 14.3129C7.00703 14.3143 7.00883 14.3159 7.01077 14.3175C7.01466 14.3208 7.01914 14.3246 7.02421 14.3288C7.03433 14.3373 7.04682 14.3475 7.06164 14.3592C7.09127 14.3828 7.13032 14.4127 7.17865 14.4473C7.27521 14.5165 7.40945 14.6051 7.58019 14.7001C7.92154 14.89 8.41197 15.1072 9.04019 15.2439C10.3187 15.5221 12.0792 15.4474 14.1998 14.2946L13.2446 12.5375C11.5329 13.468 10.2611 13.4628 9.46548 13.2896C9.05662 13.2007 8.7495 13.0619 8.55255 12.9524C8.45415 12.8976 8.38406 12.8506 8.34358 12.8216C8.32339 12.8071 8.31074 12.7973 8.3058 12.7933C8.30334 12.7914 8.30282 12.7909 8.30426 12.7921C8.30499 12.7927 8.30621 12.7937 8.30792 12.7952C8.30878 12.7959 8.30976 12.7968 8.31086 12.7977C8.31142 12.7982 8.312 12.7987 8.31262 12.7992C8.31292 12.7995 8.31341 12.7999 8.31356 12.8001C8.31406 12.8005 8.31456 12.8009 7.65771 13.555ZM12.9712 12.7557C13.0342 12.6841 13.0408 12.7025 12.8657 12.8059C12.7293 12.8865 12.5373 12.987 12.3027 13.0935C11.8313 13.3075 11.2355 13.5247 10.6415 13.6541C10.0303 13.7873 9.51485 13.8067 9.15527 13.7159C8.85388 13.6399 8.69625 13.5054 8.60536 13.2356L6.71007 13.8743C7.05206 14.8892 7.81553 15.4404 8.66565 15.6551C9.45757 15.855 10.324 15.7702 11.0673 15.6083C11.8278 15.4426 12.5591 15.1736 13.1296 14.9146C13.4159 14.7846 13.6735 14.6517 13.8832 14.5278C14.0543 14.4267 14.3034 14.2694 14.4732 14.0763L12.9712 12.7557Z" fill="#76B51B" mask="url(#path-7-inside-1_2352_88442)"/>
</svg>
