<svg width="22" height="22" viewBox="0 0 22 22" fill="none" xmlns="http://www.w3.org/2000/svg">
<path d="M10.9989 19.496C16.3589 19.496 20.7047 15.4215 20.7047 10.3954C20.7047 5.36935 16.3589 1.29492 10.9989 1.29492C5.63878 1.29492 1.29297 5.36935 1.29297 10.3954C1.29297 12.6836 2.1944 14.7767 3.68304 16.3758C3.56536 17.6966 3.17712 19.1449 2.74764 20.2318C2.65179 20.4736 2.83742 20.744 3.07885 20.7024C5.81591 20.2214 7.44286 19.483 8.15017 19.0981C9.0794 19.3637 10.0371 19.4975 10.9989 19.496Z" fill="#474747"/>
<path d="M6.18084 11.203C6.17642 11.2067 6.17185 11.2103 6.16713 11.2138C6.2654 11.0642 6.30495 10.8913 6.30495 10.7251C6.30495 10.6944 6.30355 10.6637 6.30069 10.6332C6.31444 10.6814 6.32411 10.7449 6.32411 10.8287C6.32411 11.0256 6.26592 11.1294 6.18084 11.203ZM6.31909 9.13392C6.31909 9.21872 6.30286 9.2806 6.27841 9.32935C6.28185 9.29476 6.28343 9.26057 6.28343 9.22715C6.28343 9.04844 6.23655 8.86394 6.12106 8.70873C6.14785 8.72222 6.17046 8.73621 6.18941 8.75018C6.25019 8.79792 6.31909 8.89044 6.31909 9.13392Z" fill="white" stroke="white"/>
<path d="M7.53125 10.0166C7.53125 9.85239 7.54318 9.70864 7.56477 9.58283C7.56428 9.59921 7.56404 9.61559 7.56404 9.63197V10.132H7.56906V10.3841C7.56906 10.4261 7.57056 10.468 7.57367 10.5097C7.54665 10.3712 7.53125 10.2082 7.53125 10.0166ZM10.1763 10.7439C10.1763 10.6116 10.1532 10.4662 10.0869 10.3302C10.1423 10.3947 10.1883 10.5022 10.1883 10.7038C10.1883 10.7866 10.1792 10.8569 10.1615 10.9176C10.1715 10.8603 10.1763 10.8021 10.1763 10.7439Z" fill="white" stroke="white"/>
<path d="M13.7433 10.7203C13.7433 10.9479 13.6803 11.0741 13.5917 11.1576C13.6657 11.0103 13.6868 10.8521 13.6868 10.7203C13.6868 10.5683 13.6595 10.3862 13.5623 10.2234C13.5697 10.2289 13.5768 10.2346 13.5837 10.2404C13.6313 10.2904 13.6695 10.3484 13.6984 10.4171C13.7247 10.4903 13.7433 10.5895 13.7433 10.7203Z" fill="white" stroke="white"/>
<path d="M15.7607 12.8029C15.7584 12.8022 15.756 12.8016 15.7536 12.801L16.2678 12.3547L17.5331 12.7084C17.5505 12.7166 17.5765 12.7295 17.6068 12.7468C17.6721 12.7839 17.7388 12.8305 17.7864 12.8795C17.8142 12.9081 17.8253 12.9268 17.8295 12.9353C17.8256 12.9473 17.815 12.9708 17.7875 13.0071C17.6734 13.1143 17.6274 13.1474 17.5557 13.1681C17.4717 13.1922 17.2874 13.2125 16.8845 13.1092C16.7217 13.0588 16.2137 12.9228 15.7607 12.8029ZM17.8314 12.9257C17.8316 12.9256 17.8316 12.9274 17.8307 12.9309C17.8307 12.9275 17.8312 12.9257 17.8314 12.9257Z" fill="white" stroke="white"/>
<path d="M10.6799 13.6526L10.6798 13.6526C10.2087 13.7922 9.71268 13.9035 9.20188 13.9502L10.6799 13.6526ZM10.6799 13.6526C12.0216 13.2546 13.2868 12.6607 14.3676 11.7261L14.369 11.7249M10.6799 13.6526L14.369 11.7249M14.369 11.7249C14.3847 11.7112 14.3955 11.7019 14.4062 11.693L14.4063 11.6931M14.369 11.7249L14.4063 11.6931M14.4063 11.6931L14.416 11.6846M14.4063 11.6931L14.416 11.6846M14.416 11.6846C14.7721 11.3726 15.2013 10.9706 15.5276 10.5012C15.8544 10.031 16.1102 9.44631 16.0396 8.78319L16.0396 8.78293M14.416 11.6846L16.0396 8.78293M16.0396 8.78293C16.0151 8.55457 15.9345 8.35777 15.8236 8.18999C16.0925 8.33827 16.2775 8.53022 16.3798 8.77113C16.4484 8.99052 16.467 9.24211 16.4449 9.50089L16.4449 9.50132M16.0396 8.78293L16.4449 9.50132M16.4449 9.50132C16.4035 9.99159 16.2053 10.4767 15.9018 10.917L15.9016 10.9173M16.4449 9.50132L15.9016 10.9173M15.9016 10.9173C15.3897 11.6606 14.627 12.2549 13.7856 12.7517L13.7855 12.7517M15.9016 10.9173L13.7855 12.7517M13.7855 12.7517C13.0834 13.1666 12.3617 13.4876 11.5819 13.7212L11.5818 13.7213M13.7855 12.7517L11.5818 13.7213M11.5818 13.7213C11.0205 13.8896 10.4581 14.0248 9.89095 14.1018L11.5818 13.7213ZM8.0402 14.0628L8.04044 14.0628C8.61909 14.2021 9.25032 14.1887 9.8909 14.1018L8.0402 14.0628ZM8.0402 14.0628C7.66834 13.9734 7.33675 13.8137 7.06876 13.5907M8.0402 14.0628L7.06876 13.5907M7.06876 13.5907C7.09095 13.6028 7.1133 13.6146 7.13581 13.6261C7.42266 13.773 7.72789 13.8649 8.02979 13.9162C8.42635 13.9839 8.82344 13.9848 9.20177 13.9502L7.06876 13.5907Z" fill="white" stroke="white"/>
<mask id="path-7-inside-1_2294_11457" fill="white">
<path fill-rule="evenodd" clip-rule="evenodd" d="M6.84766 12.0982C6.84766 12.0982 8.83363 13.8282 12.2433 11.9746C11.8631 12.4069 7.61795 14.3842 6.84766 12.0982Z"/>
</mask>
<path fill-rule="evenodd" clip-rule="evenodd" d="M6.84766 12.0982C6.84766 12.0982 8.83363 13.8282 12.2433 11.9746C11.8631 12.4069 7.61795 14.3842 6.84766 12.0982Z" fill="white"/>
<path d="M6.84766 12.0982L7.5045 11.3442L4.72138 8.9198L5.90001 12.4176L6.84766 12.0982ZM12.2433 11.9746L12.9943 12.6349L11.7656 11.096L12.2433 11.9746ZM6.84766 12.0982C6.19081 12.8523 6.19133 12.8527 6.19186 12.8532C6.19204 12.8533 6.19258 12.8538 6.19295 12.8541C6.19369 12.8548 6.19447 12.8554 6.19528 12.8561C6.1969 12.8575 6.19865 12.859 6.20054 12.8606C6.2043 12.8638 6.2086 12.8675 6.21343 12.8715C6.22308 12.8795 6.23484 12.8891 6.24871 12.9002C6.27644 12.9222 6.31264 12.9499 6.35718 12.9818C6.44619 13.0456 6.56916 13.1267 6.72506 13.2134C7.03672 13.3868 7.48317 13.5844 8.0542 13.7087C9.21832 13.962 10.8116 13.8911 12.7209 12.8532L11.7656 11.096C10.2653 11.9117 9.16077 11.9027 8.47949 11.7544C8.12783 11.6779 7.86468 11.5588 7.69742 11.4657C7.61386 11.4192 7.55504 11.3797 7.52212 11.3561C7.5057 11.3443 7.4959 11.3367 7.49287 11.3343C7.49136 11.3331 7.49156 11.3332 7.49349 11.3348C7.49445 11.3356 7.49585 11.3368 7.49768 11.3383C7.4986 11.3391 7.49962 11.34 7.50076 11.341C7.50133 11.3415 7.50192 11.342 7.50255 11.3425C7.50286 11.3428 7.50335 11.3432 7.5035 11.3433C7.504 11.3438 7.5045 11.3442 6.84766 12.0982ZM11.4923 11.3143C11.5611 11.236 11.5811 11.2447 11.4252 11.3369C11.3078 11.4062 11.1406 11.4938 10.9347 11.5872C10.5208 11.7752 9.99819 11.9655 9.47886 12.0787C8.94234 12.1956 8.50312 12.2093 8.20704 12.1345C7.96916 12.0745 7.86232 11.9778 7.7953 11.7789L5.90001 12.4176C6.21813 13.3616 6.93081 13.8751 7.71742 14.0737C8.44584 14.2576 9.2361 14.1785 9.90469 14.0328C10.5905 13.8834 11.2486 13.6412 11.7616 13.4083C12.0192 13.2913 12.252 13.1714 12.4426 13.0587C12.5946 12.9689 12.8304 12.8213 12.9943 12.6349L11.4923 11.3143Z" fill="white" mask="url(#path-7-inside-1_2294_11457)"/>
</svg>
