<svg width="18" height="19" viewBox="0 0 18 19" fill="none" xmlns="http://www.w3.org/2000/svg">
<path fill-rule="evenodd" clip-rule="evenodd" d="M1.5 16.4375C1.18934 16.4375 0.9375 16.6893 0.9375 17C0.9375 17.3107 1.18934 17.5625 1.5 17.5625H16.5C16.8107 17.5625 17.0625 17.3107 17.0625 17C17.0625 16.6893 16.8107 16.4375 16.5 16.4375H15.75H13.875H12.75V12.5C12.75 11.0858 12.75 10.3787 12.3107 9.93934C11.8713 9.5 11.1642 9.5 9.75 9.5H8.25C6.83579 9.5 6.12868 9.5 5.68934 9.93934C5.25 10.3787 5.25 11.0858 5.25 12.5V16.4375H4.125H2.25H1.5ZM6.9375 11.75C6.9375 11.4393 7.18934 11.1875 7.5 11.1875H10.5C10.8107 11.1875 11.0625 11.4393 11.0625 11.75C11.0625 12.0607 10.8107 12.3125 10.5 12.3125H7.5C7.18934 12.3125 6.9375 12.0607 6.9375 11.75ZM6.9375 14C6.9375 13.6893 7.18934 13.4375 7.5 13.4375H10.5C10.8107 13.4375 11.0625 13.6893 11.0625 14C11.0625 14.3107 10.8107 14.5625 10.5 14.5625H7.5C7.18934 14.5625 6.9375 14.3107 6.9375 14Z" fill="#999999"/>
<g opacity="0.4">
<path d="M6 3.875C6.70711 3.875 7.06066 3.875 7.28033 4.09467C7.5 4.31434 7.5 4.66789 7.5 5.375L7.49999 6.71932C7.61758 6.77647 7.71984 6.84852 7.81066 6.93934C8.11372 7.2424 8.20773 7.67288 8.23689 8.375V9.5C6.83141 9.5 6.12732 9.50136 5.68934 9.93934C5.25 10.3787 5.25 11.0858 5.25 12.5V16.4375H2.25V9.5C2.25 8.08579 2.25 7.37868 2.68934 6.93934C2.78016 6.84852 2.88242 6.77648 3 6.71932V5.375C3 4.66789 3 4.31434 3.21967 4.09467C3.43934 3.875 3.79289 3.875 4.5 3.875H4.6875V2.75C4.6875 2.43934 4.93934 2.1875 5.25 2.1875C5.56066 2.1875 5.8125 2.43934 5.8125 2.75V3.875H6Z" fill="#999999"/>
<path d="M15.4829 4.43507C15.2158 4.04963 14.745 3.87308 13.8034 3.51998C11.9619 2.82944 11.0412 2.48416 10.3956 2.93157C9.75 3.37898 9.75 4.36231 9.75 6.32896V9.5C11.1642 9.5 11.8713 9.5 12.3107 9.93934C12.75 10.3787 12.75 11.0858 12.75 12.5V16.4375H15.75V6.32896C15.75 5.32333 15.75 4.82051 15.4829 4.43507Z" fill="#999999"/>
</g>
</svg>
