<svg width="25" height="24" viewBox="0 0 25 24" fill="none" xmlns="http://www.w3.org/2000/svg">
<path fill-rule="evenodd" clip-rule="evenodd" d="M2.5 11.3321C2.5 6.1332 6.99145 2 12.4314 2C17.8682 2 22.3627 6.13306 22.3627 11.3321C22.3627 16.5311 17.8713 20.6643 12.4314 20.6643C11.5518 20.6643 10.6952 20.5573 9.87958 20.3536L7.09363 21.8999C6.56865 22.1913 5.92375 21.8117 5.92375 21.2112V18.3821C3.83534 16.6788 2.5 14.1588 2.5 11.3321ZM12.4314 3.43206C7.6902 3.43206 3.93206 7.01322 3.93206 11.3321C3.93206 13.7956 5.1452 16.0062 7.07169 17.4631L7.35582 17.678V20.1165L9.69446 18.8185L9.97815 18.8983C10.7523 19.116 11.5771 19.2322 12.4314 19.2322C17.1725 19.2322 20.9307 15.6511 20.9307 11.3321C20.9307 7.01336 17.1698 3.43206 12.4314 3.43206Z" fill="#474747"/>
</svg>
