<svg width="28" height="28" viewBox="0 0 28 28" fill="none" xmlns="http://www.w3.org/2000/svg">
<path opacity="0.4" d="M13.9987 25.6673C20.442 25.6673 25.6654 20.444 25.6654 14.0007C25.6654 7.55733 20.442 2.33398 13.9987 2.33398C7.55538 2.33398 2.33203 7.55733 2.33203 14.0007C2.33203 20.444 7.55538 25.6673 13.9987 25.6673Z" fill="#F26222"/>
<path d="M15.1961 16.9863C15.7709 16.7564 16.0583 16.6414 16.2837 16.4437C16.3412 16.3933 16.3953 16.3392 16.4457 16.2818C16.6434 16.0563 16.7583 15.7689 16.9882 15.1941C18.0661 12.4994 18.6051 11.152 18.0821 10.3824C17.9581 10.2 17.8007 10.0426 17.6183 9.91858C16.8487 9.39561 15.5013 9.93456 12.8066 11.0125C12.2318 11.2424 11.9444 11.3573 11.7189 11.555C11.6615 11.6054 11.6074 11.6595 11.557 11.717C11.3593 11.9424 11.2443 12.2298 11.0144 12.8046C9.93651 15.4993 9.39756 16.8467 9.92053 17.6163C10.0445 17.7988 10.2019 17.9562 10.3844 18.0802C11.154 18.6031 12.5013 18.0642 15.1961 16.9863Z" fill="#F26222"/>
</svg>
