<svg width="20" height="20" viewBox="0 0 20 20" fill="none" xmlns="http://www.w3.org/2000/svg">
<g clip-path="url(#clip0_2106_130279)">
<path d="M10 0C7.34784 0 4.8043 1.05357 2.92894 2.92894C1.05357 4.8043 0 7.34784 0 10C0 12.6521 1.05357 15.1958 2.92894 17.0711C4.8043 18.9464 7.34784 20 10 20C12.6521 20 15.1958 18.9464 17.0711 17.0711C18.9464 15.1958 20 12.6521 20 10C20 7.34784 18.9464 4.8043 17.0711 2.92894C15.1958 1.05357 12.6521 0 10 0Z" fill="url(#paint0_linear_2106_130279)"/>
<path d="M13.0903 5C10.3428 5 9.99907 7.28 9.99907 7.28C9.99907 7.28 9.65657 5 6.90907 5C4.26657 5 3.49657 7.7775 3.81907 9.2625C4.66907 13.1875 9.99907 15.9375 9.99907 15.9375C9.99907 15.9375 15.3303 13.1875 16.1803 9.2625C16.5015 7.7775 15.7303 5 13.0903 5Z" fill="white"/>
</g>
<defs>
<linearGradient id="paint0_linear_2106_130279" x1="10" y1="0" x2="10" y2="20" gradientUnits="userSpaceOnUse">
<stop stop-color="#FF6680"/>
<stop offset="1" stop-color="#E61739"/>
</linearGradient>
<clipPath id="clip0_2106_130279">
<rect width="20" height="20" fill="white"/>
</clipPath>
</defs>
</svg>
