<svg width="17" height="18" viewBox="0 0 17 18" fill="none" xmlns="http://www.w3.org/2000/svg">
<path d="M5.51794 6.16697L11.4821 6.16697C11.7176 6.16663 11.9483 6.23298 12.1476 6.35834C12.3469 6.48369 12.5067 6.66293 12.6084 6.87531C12.7274 7.12729 12.7732 7.40764 12.7407 7.68441C12.7081 7.96118 12.5984 8.22324 12.4242 8.44072L9.44211 12.0532C9.32508 12.1883 9.18039 12.2965 9.01785 12.3708C8.85531 12.445 8.67871 12.4834 8.50003 12.4834C8.32134 12.4834 8.14474 12.445 7.9822 12.3708C7.81966 12.2965 7.67497 12.1883 7.55794 12.0532L4.57586 8.44072C4.40161 8.22324 4.29195 7.96118 4.25939 7.68441C4.22683 7.40764 4.27267 7.12729 4.39169 6.87531C4.49337 6.66293 4.65311 6.48369 4.85243 6.35834C5.05174 6.23298 5.28249 6.16663 5.51794 6.16697Z" fill="#474747"/>
</svg>
