<svg width="28" height="28" viewBox="0 0 28 28" fill="none" xmlns="http://www.w3.org/2000/svg">
<path opacity="0.4" d="M19.0296 23.5077C18.983 23.251 18.9596 23.006 18.9596 22.7493C18.9596 22.6443 18.9596 22.551 18.9713 22.4577H9.0313C9.04297 22.551 9.04297 22.6443 9.04297 22.7493C9.04297 23.006 9.01964 23.251 8.97297 23.496C8.9263 23.741 8.84464 23.986 8.7513 24.2077H19.2513C19.1463 23.986 19.0763 23.7527 19.0296 23.5077ZM4.50464 8.97102C4.25964 8.92435 4.01464 8.84268 3.79297 8.74935V19.2493C4.01464 19.1443 4.24797 19.0743 4.49297 19.0277C4.74964 18.981 4.99464 18.9577 5.2513 18.9577C5.3563 18.9577 5.44964 18.9577 5.54297 18.9693V9.02935C5.44964 9.04102 5.3563 9.04102 5.2513 9.04102C4.99464 9.04102 4.74964 9.01768 4.50464 8.97102ZM23.5096 8.97102C23.253 9.01768 23.008 9.04102 22.7513 9.04102C22.6463 9.04102 22.553 9.04102 22.4596 9.02935V18.9693C22.553 18.9577 22.6463 18.9577 22.7513 18.9577C23.008 18.9577 23.253 18.981 23.498 19.0277C23.743 19.0743 23.988 19.156 24.2096 19.2493V8.74935C23.988 8.85435 23.7546 8.92435 23.5096 8.97102ZM19.2513 3.79102H8.7513C8.8563 4.01268 8.9263 4.24602 8.97297 4.49102C9.01964 4.74768 9.04297 4.99268 9.04297 5.24935C9.04297 5.35435 9.04297 5.44768 9.0313 5.54102H18.9713C18.9596 5.44768 18.9596 5.35435 18.9596 5.24935C18.9596 4.99268 18.983 4.74768 19.0296 4.50268C19.0763 4.25768 19.158 4.01268 19.2513 3.79102Z" fill="#F26222"/>
<path d="M9.04037 5.25065C9.04037 5.35565 9.04036 5.44898 9.0287 5.54232C9.00536 5.84565 8.94703 6.12565 8.8537 6.40565C8.83037 6.51065 8.7837 6.62732 8.73703 6.73232C8.7137 6.79065 8.6787 6.86065 8.6437 6.93065C8.6087 7.00065 8.5737 7.07065 8.52703 7.14065C8.20037 7.72398 7.72203 8.20232 7.1387 8.52899C7.0687 8.57565 6.9987 8.61065 6.9287 8.64565C6.8587 8.68065 6.7887 8.71565 6.73036 8.73898C6.62536 8.78565 6.5087 8.83232 6.4037 8.85565C6.1237 8.94899 5.8437 9.00732 5.54036 9.03065C5.44703 9.04232 5.3537 9.04232 5.2487 9.04232C4.99203 9.04232 4.74703 9.01898 4.50203 8.97232C4.25703 8.92565 4.01203 8.84399 3.79036 8.75065C2.40203 8.16732 1.45703 6.79065 1.45703 5.25065C1.45703 3.16232 3.16036 1.45898 5.2487 1.45898C6.80036 1.45898 8.16537 2.40398 8.7487 3.79232C8.8537 4.01398 8.9237 4.24732 8.97037 4.49232C9.01703 4.74898 9.04037 4.99398 9.04037 5.25065Z" fill="#F26222"/>
<path d="M26.5404 5.25065C26.5404 6.80232 25.5954 8.16732 24.207 8.75065C23.9854 8.85565 23.752 8.92565 23.507 8.97232C23.2504 9.01898 23.0054 9.04232 22.7487 9.04232C22.6437 9.04232 22.5504 9.04232 22.457 9.03065C22.142 9.00732 21.8504 8.94898 21.5587 8.84398C21.4654 8.82065 21.3604 8.78565 21.267 8.73898C21.197 8.71565 21.1387 8.68065 21.0687 8.64565C20.9987 8.61065 20.9287 8.57565 20.8587 8.52899C20.2754 8.20232 19.797 7.72398 19.4704 7.14065C19.4237 7.07065 19.3887 7.00065 19.3537 6.93065C19.3187 6.86065 19.2837 6.80232 19.2604 6.73232C19.2137 6.63898 19.1787 6.53398 19.1554 6.44065C19.0504 6.14898 18.992 5.85732 18.9687 5.54232C18.957 5.44898 18.957 5.35565 18.957 5.25065C18.957 4.99398 18.9804 4.74898 19.027 4.50398C19.0737 4.25898 19.1554 4.01398 19.2487 3.79232C19.832 2.40398 21.2087 1.45898 22.7487 1.45898C24.837 1.45898 26.5404 3.16232 26.5404 5.25065Z" fill="#F26222"/>
<path d="M9.04037 22.7507C9.04037 23.0073 9.01703 23.2523 8.97037 23.4973C8.9237 23.7423 8.84203 23.9873 8.7487 24.209C8.16537 25.5973 6.7887 26.5423 5.2487 26.5423C3.16036 26.5423 1.45703 24.839 1.45703 22.7507C1.45703 21.199 2.40203 19.834 3.79036 19.2507C4.01203 19.1457 4.24536 19.0757 4.49036 19.029C4.74703 18.9823 4.99203 18.959 5.2487 18.959C5.3537 18.959 5.44703 18.959 5.54036 18.9707C5.83203 18.994 6.11203 19.0523 6.38036 19.134C6.4737 19.1573 6.5787 19.1923 6.67203 19.239C6.7537 19.274 6.83536 19.309 6.9287 19.3557C6.9987 19.3907 7.0687 19.4257 7.1387 19.4723C7.72203 19.799 8.20037 20.2773 8.52703 20.8607C8.5737 20.9307 8.6087 21.0007 8.6437 21.0707C8.69036 21.164 8.72537 21.2457 8.76037 21.3273C8.80703 21.4207 8.84203 21.5257 8.86537 21.619C8.94703 21.8873 9.00536 22.1673 9.0287 22.459C9.04036 22.5523 9.04037 22.6457 9.04037 22.7507Z" fill="#F26222"/>
<path d="M26.5404 22.7507C26.5404 24.839 24.837 26.5423 22.7487 26.5423C21.197 26.5423 19.832 25.5973 19.2487 24.209C19.1437 23.9873 19.0737 23.754 19.027 23.509C18.9804 23.2523 18.957 23.0073 18.957 22.7507C18.957 22.6457 18.957 22.5523 18.9687 22.459C18.9687 22.424 18.9687 22.389 18.9804 22.354C18.992 22.2257 19.0154 22.109 19.0387 21.9807C19.097 21.6657 19.202 21.3623 19.3537 21.0707C19.3887 21.0007 19.4237 20.9307 19.4704 20.8607C19.797 20.2773 20.2754 19.799 20.8587 19.4723C20.9287 19.4257 20.9987 19.3907 21.0687 19.3557C21.3604 19.204 21.6637 19.099 21.9787 19.0407C22.107 19.0173 22.2237 18.994 22.352 18.9823C22.387 18.9707 22.422 18.9707 22.457 18.9707C22.5504 18.959 22.6437 18.959 22.7487 18.959C23.0054 18.959 23.2504 18.9823 23.4954 19.029C23.7404 19.0757 23.9854 19.1573 24.207 19.2507C25.5954 19.834 26.5404 21.2107 26.5404 22.7507Z" fill="#F26222"/>
</svg>
