<svg width="20" height="20" viewBox="0 0 20 20" fill="none" xmlns="http://www.w3.org/2000/svg">
<g clip-path="url(#clip0_2106_130272)">
<path d="M7.23475 14.5672H5.03342C4.86008 14.5672 4.71875 14.4259 4.71875 14.2525V9.19786C4.71875 9.02453 4.86008 8.8832 5.03342 8.8832H7.23475C7.40808 8.8832 7.54942 9.02453 7.54942 9.19786V14.2525C7.54942 14.4259 7.40808 14.5672 7.23475 14.5672ZM8.31875 13.3792V9.75786C8.31875 8.87386 8.57075 7.98586 9.04008 7.2352C9.32675 6.77653 9.96942 6.04186 10.3294 5.66186C10.4094 5.57653 10.7001 5.32586 10.7001 5.18853C10.7001 5.01253 10.7201 4.72853 10.7267 4.1992C10.7307 3.8632 11.0041 3.5872 11.3401 3.58986H11.3547C11.9427 3.6032 12.1321 4.14586 12.1321 4.14586C12.1321 4.14586 12.6347 5.13786 12.1654 6.3512C11.7694 7.37653 11.6894 7.4592 11.6894 7.4592C11.6894 7.4592 11.5614 7.64453 11.9667 7.63653C11.9667 7.63653 14.4414 7.62586 14.5267 7.62586C14.7094 7.62586 15.2921 7.79253 15.2587 8.5352C15.2347 9.08453 14.8934 9.27653 14.7187 9.3392C14.6841 9.3512 14.6801 9.3992 14.7121 9.41786C14.8907 9.52186 15.2561 9.78453 15.2481 10.1872C15.2374 10.6752 15.0414 10.8552 14.6334 10.9672C14.5961 10.9779 14.5894 11.0272 14.6227 11.0459C14.7774 11.1339 15.0427 11.3485 15.0267 11.7832C15.0107 12.2259 14.6907 12.3819 14.5161 12.4352C14.4814 12.4459 14.4747 12.4912 14.5054 12.5125C14.6161 12.5885 14.7801 12.7605 14.7721 13.1139C14.7681 13.3005 14.7054 13.4365 14.6267 13.5339C14.5027 13.6872 14.3081 13.7672 14.1107 13.7685L8.62008 13.7792C8.61742 13.7792 8.31875 13.7792 8.31875 13.3792Z" fill="white"/>
<path d="M10.0017 7.22443C9.55505 4.5151 4.26172 4.30843 4.26172 8.37243C4.26172 11.9738 10.0017 15.2938 10.0017 15.2938C10.0017 15.2938 15.7417 11.9298 15.7417 8.37243C15.7417 4.30843 10.4484 4.5151 10.0017 7.22443Z" fill="white"/>
<path d="M10.0038 19.9993C15.5267 19.9993 20.0038 15.5293 20.0038 10.0153C20.0038 4.50124 15.5267 0.03125 10.0038 0.03125C4.48103 0.03125 0.00390625 4.50124 0.00390625 10.0153C0.00390625 15.5293 4.48103 19.9993 10.0038 19.9993Z" fill="#FFDA6B"/>
<path d="M10.0716 10.4551H3.40625C3.40625 10.4551 3.58225 16.2111 9.92622 16.5325C10.0156 16.5365 10.0756 16.5338 10.0756 16.5338C16.4209 16.2125 16.5955 10.4551 16.5955 10.4551H10.0716Z" fill="#262C38"/>
<path d="M4.16016 13.2225C4.16016 13.2225 6.49081 12.1105 9.96013 12.1212C11.6801 12.1265 13.7294 12.2812 15.8161 13.2332C15.8161 13.2332 14.3908 16.7091 9.99346 16.7091C5.60682 16.7091 4.16016 13.2225 4.16016 13.2225Z" fill="#F05266"/>
<path d="M16.0007 5.48047L13.2381 6.81912L15.9701 8.0751M3.96875 5.48047L6.73141 6.81912L3.99942 8.0751" stroke="#262C38" stroke-miterlimit="10" stroke-linecap="round" stroke-linejoin="round"/>
</g>
<defs>
<clipPath id="clip0_2106_130272">
<rect width="20" height="20" fill="white"/>
</clipPath>
</defs>
</svg>
