<svg width="26" height="26" viewBox="0 0 26 26" fill="none" xmlns="http://www.w3.org/2000/svg">
<path d="M11.4186 15.8569C11.5132 15.7875 11.6152 15.7286 11.7226 15.6814V14.5684H9.09418L9 20.8825H11.7226V19.6838L11.0762 18.9732C10.8758 18.7543 10.7245 18.4952 10.6323 18.2131C10.5401 17.931 10.5092 17.6325 10.5416 17.3375C10.574 17.0425 10.669 16.7578 10.8202 16.5025C10.9715 16.2472 11.1755 16.027 11.4186 15.8569Z" fill="#F26222"/>
<path d="M12.582 15.4459L15.2575 14.8937L15.3945 14.654L15.3988 14.5684H12.582V15.4459Z" fill="#F26222"/>
<path d="M15.3145 9.75294C15.3145 8.91507 14.9816 8.11152 14.3892 7.51906C13.7967 6.92659 12.9932 6.59375 12.1553 6.59375C11.3174 6.59375 10.5139 6.92659 9.9214 7.51906C9.32894 8.11152 8.99609 8.91507 8.99609 9.75294V10.5235H15.3145V9.75294Z" fill="#F26222"/>
<path opacity="0.4" d="M2.55874 20.8813H8.14511L8.24784 14.1306C8.24995 14.0185 8.296 13.9117 8.37607 13.8332C8.45613 13.7548 8.56381 13.7109 8.67592 13.711H15.8504C15.875 13.7097 15.8996 13.7125 15.9232 13.7196L16.7965 12.1828C16.978 11.8619 17.2415 11.5949 17.56 11.4091C17.8785 11.2233 18.2407 11.1255 18.6094 11.1255C18.9781 11.1255 19.3402 11.2233 19.6587 11.4091C19.9772 11.5949 20.2407 11.8619 20.4223 12.1828L21.745 14.5073V10.5775H23.7099C23.7717 10.5777 23.8329 10.5643 23.8891 10.5385C23.9452 10.5126 23.9951 10.4748 24.0352 10.4277C24.0769 10.3812 24.1075 10.3258 24.1245 10.2657C24.1416 10.2056 24.1447 10.1424 24.1337 10.081C23.7447 8.32577 22.9236 6.69546 21.745 5.3379V0.58628C21.7452 0.530011 21.7343 0.474259 21.7128 0.422236C21.6914 0.370213 21.6599 0.322946 21.6201 0.283157C21.5803 0.243368 21.533 0.211844 21.481 0.190399C21.429 0.168954 21.3732 0.158013 21.3169 0.158206H17.3316C17.2181 0.158533 17.1095 0.203739 17.0292 0.283948C16.949 0.364156 16.9038 0.472848 16.9035 0.58628V1.65647C15.4156 0.965497 13.8464 0.46498 12.2332 0.166767C12.1795 0.156061 12.1242 0.156061 12.0705 0.166767C1.53564 2.19584 0.182925 10.0039 0.174364 10.081C0.163596 10.1421 0.166453 10.2049 0.182731 10.2649C0.19901 10.3248 0.228309 10.3804 0.26854 10.4277C0.308929 10.4745 0.358861 10.512 0.414978 10.5379C0.471095 10.5637 0.532095 10.5772 0.593877 10.5775H2.55874V20.8813ZM8.13654 9.75135C8.13654 8.68642 8.55959 7.6651 9.31261 6.91208C10.0656 6.15906 11.0869 5.73601 12.1519 5.73601C13.2168 5.73601 14.2381 6.15906 14.9912 6.91208C15.7442 7.6651 16.1672 8.68642 16.1672 9.75135V10.95C16.1674 11.0062 16.1565 11.062 16.135 11.114C16.1136 11.166 16.0821 11.2133 16.0423 11.2531C16.0025 11.2929 15.9552 11.3244 15.9032 11.3459C15.8512 11.3673 15.7954 11.3782 15.7391 11.378H8.56462C8.45119 11.3777 8.34249 11.3325 8.26229 11.2523C8.18208 11.1721 8.13687 11.0634 8.13654 10.95V9.75135ZM1.36017 23.7023C1.3605 23.8157 1.40571 23.9244 1.48591 24.0046C1.56612 24.0848 1.67482 24.13 1.78825 24.1304H12.8582L13.1279 21.7374H1.36017V23.7023Z" fill="#F26222"/>
<path d="M25.51 18.3948C25.6567 18.2342 25.7583 18.0376 25.8043 17.825C25.8503 17.6123 25.839 17.3913 25.7718 17.1845C25.7045 16.9776 25.5836 16.7922 25.4214 16.6473C25.2591 16.5024 25.0614 16.4031 24.8482 16.3595L21.586 15.6882C21.5475 15.6796 21.5093 15.6651 21.5029 15.6639C21.43 15.63 21.3692 15.5748 21.3286 15.5055L19.6805 12.6039C19.5735 12.4142 19.4181 12.2563 19.2301 12.1464C19.0421 12.0365 18.8282 11.9786 18.6104 11.9785C18.3926 11.9785 18.1787 12.0363 17.9907 12.1461C17.8026 12.256 17.6471 12.4138 17.5401 12.6035L15.8915 15.5063C15.8649 15.5517 15.8291 15.5911 15.7865 15.6219C15.7438 15.6528 15.6953 15.6745 15.6439 15.6857V15.6861L15.6313 15.689L12.381 16.3579C12.2108 16.3882 12.0499 16.4573 11.9108 16.5598C11.7675 16.6598 11.6473 16.7892 11.5582 16.9395C11.469 17.0897 11.4131 17.2573 11.394 17.4309C11.375 17.6046 11.3933 17.7803 11.4477 17.9463C11.5021 18.1123 11.5914 18.2647 11.7096 18.3933L13.9605 20.8583C13.9963 20.8975 14.0235 20.9436 14.0404 20.9939C14.0573 21.0441 14.0636 21.0973 14.0588 21.1501L13.6815 24.4715C13.6565 24.688 13.6895 24.9073 13.7771 25.1068C13.8647 25.3063 14.0038 25.479 14.1801 25.6071C14.3564 25.7351 14.5636 25.814 14.7804 25.8356C14.9973 25.8573 15.216 25.8208 15.4141 25.7301L18.4558 24.3506C18.5046 24.3279 18.5578 24.3162 18.6116 24.3163C18.6654 24.3165 18.7185 24.3284 18.7672 24.3514L21.8034 25.7305C22.002 25.8203 22.2207 25.8559 22.4375 25.8337C22.6543 25.8116 22.8613 25.7325 23.0376 25.6044C23.2139 25.4763 23.3532 25.3039 23.4412 25.1046C23.5293 24.9053 23.5631 24.6863 23.5391 24.4697L23.1624 21.1525C23.1574 21.0995 23.1634 21.0459 23.1803 20.9953C23.1971 20.9447 23.2242 20.8982 23.26 20.8587L25.51 18.3948Z" fill="#F26222"/>
</svg>
