<svg width="35" height="35" viewBox="0 0 35 35" fill="none" xmlns="http://www.w3.org/2000/svg">
<rect width="35" height="35" rx="17.5" fill="#2758DD"/>
<path d="M28.4676 16.3302L28.4703 16.316C28.5274 15.9839 28.5018 15.645 28.3962 15.3243C28.2908 15.004 28.1093 14.7128 27.8691 14.4692C27.6291 14.2258 27.336 14.0353 27.0122 13.9071C26.6893 13.7793 26.341 13.7155 25.9908 13.7187H23.5315C23.2553 13.7187 23.0315 13.4949 23.0315 13.2187V9.62498C23.0315 8.77446 22.6478 7.97363 21.9904 7.39384C21.527 6.98521 20.9534 6.70815 20.3401 6.58057C19.6342 6.43372 19.054 6.91017 18.8421 7.46388L19.2848 7.6333L18.8421 7.46388L16.3575 13.9565C16.2834 14.15 16.0977 14.2778 15.8905 14.2778H15C14.1716 14.2778 13.5 14.9494 13.5 15.7778V23.4999C13.5 24.3283 14.1716 24.9999 15 24.9999H24.6217C25.2033 25.0051 25.775 24.8256 26.2315 24.4835C26.6877 24.1415 27.0031 23.655 27.0998 23.1048L28.4676 16.3302Z" fill="white" stroke="#2758DD" stroke-linecap="round" stroke-linejoin="round"/>
<rect x="8.25" y="13.5" width="4.5" height="11.5" rx="1.5" fill="white" stroke="#2758DD"/>
</svg>
