<svg width="22" height="23" viewBox="0 0 22 23" fill="none" xmlns="http://www.w3.org/2000/svg">
<path d="M7.69083 17.4492V8.13583C7.69083 7.76916 7.80083 7.41166 8.00249 7.10916L10.505 3.3875C10.8992 2.79166 11.88 2.37 12.7142 2.68166C13.6125 2.98416 14.2083 3.9925 14.0158 4.89083L13.5392 7.88833C13.5025 8.16333 13.5758 8.41083 13.7317 8.60333C13.8875 8.7775 14.1167 8.8875 14.3642 8.8875H18.1317C18.8558 8.8875 19.4792 9.18083 19.8458 9.69416C20.1942 10.1892 20.2583 10.8308 20.0292 11.4817L17.7742 18.3475C17.49 19.4842 16.2525 20.41 15.0242 20.41H11.4492C10.835 20.41 9.97333 20.1992 9.57916 19.805L8.40583 18.8975C7.95666 18.5583 7.69083 18.0175 7.69083 17.4492Z" fill="#2758DD"/>
<path d="M4.77583 6.34833H3.83166C2.41083 6.34833 1.83333 6.89833 1.83333 8.25499V17.4767C1.83333 18.8333 2.41083 19.3833 3.83166 19.3833H4.77583C6.19666 19.3833 6.77416 18.8333 6.77416 17.4767V8.25499C6.77416 6.89833 6.19666 6.34833 4.77583 6.34833Z" fill="#2758DD"/>
</svg>
