<svg width="24" height="24" viewBox="0 0 24 24" fill="none" xmlns="http://www.w3.org/2000/svg">
<path d="M22.7169 12.6294L22.7202 12.6101C22.7774 12.2421 22.7519 11.8664 22.6458 11.5093C22.5397 11.1523 22.3558 10.8234 22.108 10.5451C21.8603 10.2667 21.5546 10.0456 21.213 9.89577C20.8728 9.74661 20.5043 9.67148 20.1327 9.67496H17.922C17.784 9.67496 17.672 9.56303 17.672 9.42496V5.69998C17.672 4.77926 17.2975 3.89989 16.6366 3.25431C16.1924 2.82039 15.6435 2.51591 15.0504 2.36305C14.1469 2.13016 13.4418 2.77668 13.2166 3.42855L10.9181 10.0816C10.8833 10.1824 10.7884 10.25 10.6818 10.25H10C9.0335 10.25 8.25 11.0335 8.25 12V19.9999C8.25 20.9664 9.0335 21.7499 10 21.7499H18.8614C19.4801 21.7557 20.0827 21.5435 20.5584 21.1485C21.033 20.7545 21.3501 20.2039 21.4472 19.5955L22.7169 12.6294Z" stroke="#474747" stroke-width="1.5" stroke-linecap="round" stroke-linejoin="round"/>
<rect x="2.25" y="10.25" width="5.5" height="11.5" rx="1.75" stroke="#474747" stroke-width="1.5"/>
</svg>
