<svg width="28" height="28" viewBox="0 0 28 28" fill="none" xmlns="http://www.w3.org/2000/svg">
<path opacity="0.4" d="M25.6656 18.666C25.6656 15.3662 25.6656 13.7163 24.6405 12.6911C24.0689 12.1196 23.3032 11.8667 22.1656 11.7548C21.1934 11.7252 18.899 11.666 17.4989 11.666H9.33227C6.94658 11.666 5.42329 11.666 4.375 12.0534L25.3002 23.5622C25.6656 22.5161 25.6656 21.0058 25.6656 18.666Z" fill="#F26222"/>
<path d="M12.5492 18.5473L2.92834 13.2559C2.33203 14.3073 2.33203 15.9122 2.33203 18.6668C2.33203 21.7767 2.33203 23.4212 3.19019 24.4583L12.5492 18.5473Z" fill="#F26222"/>
<path d="M9.33289 25.6677H18.6662C21.5621 25.6677 23.1873 25.6677 24.2347 24.9748L14.3018 19.5117L4.91797 25.4383C5.93445 25.6677 7.32964 25.6677 9.33289 25.6677Z" fill="#F26222"/>
<path d="M19.832 2.33398C17.899 2.33398 16.332 3.90099 16.332 5.83398C16.332 7.46484 17.4475 8.83518 18.957 9.22372L18.957 15.1673C18.957 15.6506 19.3488 16.0423 19.832 16.0423C20.3153 16.0423 20.707 15.6506 20.707 15.1673V9.22372C22.2166 8.83518 23.332 7.46484 23.332 5.83398C23.332 3.90099 21.765 2.33398 19.832 2.33398Z" fill="#F26222"/>
</svg>
