<svg width="24" height="24" viewBox="0 0 24 24" fill="none" xmlns="http://www.w3.org/2000/svg">
<path d="M11.9999 1C11.7579 1 11.5187 1.00825 11.2808 1.02338L11.3688 2.39563C11.7891 2.36847 12.2107 2.36847 12.631 2.39563L12.719 1.02338C12.4796 1.00785 12.2398 1.00006 11.9999 1V1ZM9.8549 1.209C9.37914 1.30388 8.91439 1.429 8.46339 1.58025L8.90477 2.88376C9.29939 2.74901 9.70502 2.64039 10.1203 2.55788L9.8549 1.21038V1.209ZM15.5364 1.58163C15.0817 1.42747 14.6173 1.30345 14.1463 1.21038L13.8796 2.55788C14.2948 2.64039 14.7004 2.75039 15.0951 2.88376L15.5364 1.58163ZM18.1118 2.85351C17.7128 2.58641 17.2966 2.34573 16.8661 2.13301L16.2569 3.36501C16.6351 3.55202 16.9995 3.76377 17.3473 3.99614L18.1118 2.85351ZM7.13238 2.13301C6.70062 2.34613 6.28537 2.58676 5.88799 2.85351L6.6525 3.99477C7.00197 3.76151 7.36619 3.55115 7.74288 3.36501L7.13238 2.13301ZM4.74673 3.72939C4.38648 4.04564 4.04548 4.38665 3.72922 4.7469L4.76323 5.6544C5.04098 5.33815 5.33799 5.04115 5.65424 4.7634L4.74673 3.72939ZM20.2706 4.7469C19.9538 4.38604 19.614 4.04615 19.2531 3.72939L18.3456 4.7634C18.6618 5.04115 18.9602 5.33815 19.2366 5.6544L20.2706 4.7469ZM21.867 7.13254C21.6543 6.70244 21.4136 6.28675 21.1465 5.88815L20.0052 6.65266C20.2376 7.00054 20.448 7.36491 20.635 7.74304L21.867 7.13391V7.13254ZM2.85334 5.88815C2.58659 6.28553 2.34459 6.70079 2.13284 7.13391L3.36485 7.74304C3.55185 7.36491 3.7636 7.00054 3.99598 6.65266L2.85334 5.88815ZM1.58146 8.46355C1.42729 8.91826 1.30327 9.38265 1.2102 9.85368L2.55772 10.1204C2.64022 9.70518 2.75022 9.29955 2.88359 8.90492L1.58146 8.46355ZM22.791 9.85505C22.698 9.38356 22.574 8.91871 22.4197 8.46355L21.1162 8.90492C21.251 9.29955 21.3596 9.70518 21.4421 10.1204L22.7896 9.85368L22.791 9.85505ZM1.0232 11.2809C0.992266 11.7599 0.992266 12.2403 1.0232 12.7192L2.39546 12.6312C2.3683 12.2109 2.3683 11.7893 2.39546 11.3689L1.0232 11.2809ZM23 12.0001C23 11.7602 22.9922 11.5203 22.9766 11.2809L21.6044 11.3689C21.6316 11.7893 21.6316 12.2109 21.6044 12.6312L22.9766 12.7192C22.9922 12.4798 23 12.24 23 12.0001ZM1.20883 14.1451C1.30371 14.6208 1.42883 15.0856 1.58008 15.5366L2.88359 15.0952C2.74836 14.6976 2.63949 14.2916 2.55772 13.8797L1.2102 14.1465L1.20883 14.1451ZM22.4184 15.5366C22.5724 15.0856 22.6961 14.6208 22.7896 14.1465L21.4421 13.8797C21.3596 14.295 21.2496 14.7006 21.1162 15.0952L22.4184 15.5366ZM2.13284 16.8676C2.34561 17.2977 2.58629 17.7133 2.85334 18.112L3.9946 17.3475C3.76111 16.9982 3.55074 16.6339 3.36485 16.2571L2.13284 16.8662V16.8676ZM21.1465 18.112C21.4132 17.7146 21.6552 17.2993 21.867 16.8662L20.635 16.2571C20.448 16.6352 20.2362 16.9996 20.0039 17.3475L21.1465 18.112ZM3.72922 19.2532C4.04548 19.6135 4.38648 19.9545 4.74673 20.2707L5.65424 19.2367C5.33822 18.9594 5.04059 18.6618 4.76323 18.3457L3.72922 19.2532ZM19.2531 20.2707C19.6133 19.9545 19.9544 19.6135 20.2706 19.2532L19.2366 18.3457C18.9602 18.662 18.6618 18.9604 18.3456 19.2367L19.2531 20.2707ZM16.8675 21.8671C17.2992 21.654 17.7145 21.4134 18.1118 21.1466L17.3473 20.0054C16.9979 20.2386 16.6336 20.449 16.2569 20.6351L16.8661 21.8671H16.8675ZM5.88799 21.1466C6.28537 21.4134 6.70062 21.6554 7.13375 21.8671L7.74288 20.6351C7.36602 20.4488 7.00178 20.238 6.6525 20.004L5.88799 21.1466ZM8.46339 22.4185C8.91439 22.5725 9.37914 22.6963 9.85352 22.7898L10.1203 21.4423C9.70839 21.3604 9.30234 21.2516 8.90477 21.1164L8.46339 22.4185ZM14.1449 22.7911C14.6164 22.6981 15.0813 22.5741 15.5364 22.4199L15.0951 21.1164C14.6975 21.2516 14.2914 21.3604 13.8796 21.4423L14.1463 22.7898L14.1449 22.7911ZM11.2808 22.9768C11.7597 23.0077 12.2401 23.0077 12.719 22.9768L12.631 21.6045C12.2107 21.6317 11.7891 21.6317 11.3688 21.6045L11.2808 22.9768ZM12.6874 7.18754C12.6874 7.0052 12.615 6.83033 12.4861 6.7014C12.3571 6.57247 12.1823 6.50003 11.9999 6.50003C11.8176 6.50003 11.6427 6.57247 11.5138 6.7014C11.3848 6.83033 11.3124 7.0052 11.3124 7.18754V11.3126H7.18738C7.00504 11.3126 6.83017 11.385 6.70124 11.5139C6.5723 11.6429 6.49987 11.8177 6.49987 12.0001C6.49987 12.1824 6.5723 12.3573 6.70124 12.4862C6.83017 12.6151 7.00504 12.6876 7.18738 12.6876H11.3124V16.8126C11.3124 16.9949 11.3848 17.1698 11.5138 17.2987C11.6427 17.4277 11.8176 17.5001 11.9999 17.5001C12.1823 17.5001 12.3571 17.4277 12.4861 17.2987C12.615 17.1698 12.6874 16.9949 12.6874 16.8126V12.6876H16.8125C16.9948 12.6876 17.1697 12.6151 17.2986 12.4862C17.4275 12.3573 17.5 12.1824 17.5 12.0001C17.5 11.8177 17.4275 11.6429 17.2986 11.5139C17.1697 11.385 16.9948 11.3126 16.8125 11.3126H12.6874V7.18754Z" fill="#5B5B5B"/>
</svg>
