<svg width="24" height="24" viewBox="0 0 24 24" fill="none" xmlns="http://www.w3.org/2000/svg">
<g clip-path="url(#clip0_1419_72305)">
<path d="M12.0003 21.2675C17.8477 21.2675 22.5886 16.8227 22.5886 11.3397C22.5886 5.8567 17.8477 1.41187 12.0003 1.41187C6.15299 1.41187 1.41211 5.8567 1.41211 11.3397C1.41211 13.8358 2.39549 16.1192 4.01946 17.8637C3.89108 19.3047 3.46755 20.8846 2.99902 22.0703C2.89446 22.3341 3.09696 22.6291 3.36034 22.5837C6.34623 22.0589 8.12108 21.2533 8.8927 20.8335C9.9064 21.1233 10.9512 21.2692 12.0003 21.2675Z" stroke="#505050" stroke-width="1.5"/>
<path d="M6.77458 12.2547C6.71761 12.3014 6.6428 12.3438 6.54373 12.3755C6.75531 12.1936 6.83527 11.9409 6.83527 11.6985C6.83527 11.5834 6.81647 11.4694 6.77617 11.3621C6.82336 11.4006 6.84947 11.4351 6.86444 11.4622L6.8696 11.4716L6.87516 11.4807C6.91274 11.5425 6.94708 11.6436 6.94708 11.8115C6.94708 12.0378 6.8791 12.1644 6.77458 12.2547ZM6.8803 10.2187C6.84847 10.2693 6.81138 10.3173 6.76829 10.3628C6.79921 10.2633 6.8118 10.1611 6.8118 10.0644C6.8118 9.82179 6.72951 9.57201 6.51745 9.39163C6.63827 9.4228 6.72356 9.46452 6.78221 9.5079C6.86256 9.57078 6.94161 9.68664 6.94161 9.9627C6.94161 10.0743 6.91732 10.1549 6.8803 10.2187Z" fill="white" stroke="#505050"/>
<path d="M8.46971 9.81384C8.44821 9.85306 8.42887 9.8936 8.41169 9.93532C8.33347 10.1179 8.30148 10.3118 8.30148 10.5072V11.0072H8.30696V11.3276C8.30696 11.6091 8.36985 11.8852 8.52686 12.1168C8.3255 11.916 8.1748 11.5559 8.1748 10.9268C8.1748 10.3826 8.2935 10.0348 8.46971 9.81384ZM11.0604 11.7202C11.0604 11.5187 11.0094 11.292 10.8469 11.1083C10.9064 11.1328 10.9529 11.1599 10.9887 11.1874C11.0815 11.2611 11.1643 11.3903 11.1643 11.6765C11.1643 11.9427 11.0801 12.1025 10.9262 12.2191C11.0191 12.0686 11.0604 11.8951 11.0604 11.7202Z" fill="white" stroke="#505050"/>
<path d="M14.8352 12.2275C14.7903 12.2636 14.7355 12.2974 14.6687 12.3266C14.8454 12.135 14.8895 11.8895 14.8895 11.6933C14.8895 11.4766 14.8371 11.2087 14.629 11.01C14.7203 11.0421 14.7935 11.0858 14.8536 11.1366C14.9105 11.1959 14.956 11.2647 14.99 11.346C15.021 11.4319 15.042 11.5458 15.042 11.6933C15.042 11.9733 14.9571 12.1264 14.8352 12.2275ZM12.3497 10.4509V10.7661H12.3036V9.33862H12.3497V9.65832V10.4509Z" fill="white" stroke="#505050"/>
<path d="M17.1844 14.0099C17.154 14.0019 17.1237 13.9939 17.0936 13.9859L17.7378 13.4268L19.1454 13.8202C19.1463 13.8206 19.1473 13.8211 19.1483 13.8215C19.1682 13.8309 19.1978 13.8456 19.2324 13.8653C19.3056 13.907 19.3824 13.9602 19.4384 14.0179C19.4653 14.0455 19.4816 14.0683 19.4907 14.0847C19.495 14.0926 19.4973 14.0982 19.4984 14.1016C19.4995 14.1049 19.4997 14.1065 19.4998 14.1068C19.4998 14.1071 19.4999 14.1078 19.4997 14.1098C19.4994 14.1118 19.4986 14.1171 19.4955 14.1262C19.49 14.1422 19.4759 14.1735 19.4408 14.2195C19.3139 14.3388 19.2566 14.3822 19.1668 14.4081C19.0641 14.4376 18.8537 14.4579 18.4096 14.344C18.2349 14.2898 17.6806 14.1413 17.1844 14.0099Z" fill="white" stroke="#505050"/>
<path d="M7.38575 14.5598C7.71827 14.9686 8.19973 15.2497 8.7619 15.3847L8.76214 15.3848C9.40103 15.5386 10.0959 15.5233 10.7976 15.4281L7.38575 14.5598ZM7.38575 14.5598C7.5179 14.6602 7.65891 14.7483 7.80605 14.8234C8.11421 14.9813 8.44265 15.0804 8.76824 15.1357C9.19621 15.2088 9.6255 15.2099 10.0355 15.1724L7.38575 14.5598ZM17.1135 8.80906C17.2876 9.01667 17.4205 9.27362 17.4539 9.58551L17.4539 9.58576C17.5294 10.2942 17.2563 10.9211 16.9032 11.4292C16.5507 11.9365 16.0859 12.372 15.6979 12.712L15.6882 12.7205L15.6881 12.7203C15.676 12.7304 15.6639 12.741 15.6468 12.7558L15.6454 12.7571C14.4725 13.7713 13.0986 14.4166 11.6392 14.8494L11.6391 14.8495C11.1271 15.0012 10.5891 15.1219 10.0357 15.1724L17.1135 8.80906ZM17.1135 8.80906C17.5075 8.98364 17.7757 9.22725 17.913 9.55209C17.9905 9.79891 18.0111 10.0803 17.9866 10.3678L17.9866 10.3682C17.9406 10.9126 17.7208 11.4493 17.3862 11.9346L17.386 11.9348C16.8223 12.7535 15.9839 13.4058 15.0634 13.9493L15.0632 13.9494C14.2943 14.4038 13.5036 14.7554 12.6492 15.0114L12.6491 15.0115C12.0352 15.1955 11.4193 15.3437 10.7976 15.4281L17.1135 8.80906ZM6.54422 13.472L6.54446 13.4717L6.54448 13.4718L6.54422 13.472Z" fill="white" stroke="#505050"/>
<mask id="path-7-inside-1_1419_72305" fill="white">
<path fill-rule="evenodd" clip-rule="evenodd" d="M7.47278 13.1981C7.47278 13.1981 9.63929 15.0854 13.3589 13.0632C12.9442 13.5349 8.31309 15.6919 7.47278 13.1981Z"/>
</mask>
<path fill-rule="evenodd" clip-rule="evenodd" d="M7.47278 13.1981C7.47278 13.1981 9.63929 15.0854 13.3589 13.0632C12.9442 13.5349 8.31309 15.6919 7.47278 13.1981Z" fill="white"/>
<path d="M7.47278 13.1981L8.12962 12.4441L5.3465 10.0197L6.52513 13.5174L7.47278 13.1981ZM13.3589 13.0632L14.1099 13.7235L12.8813 12.1847L13.3589 13.0632ZM7.47278 13.1981C6.81594 13.9521 6.81645 13.9526 6.81698 13.953C6.81717 13.9532 6.8177 13.9537 6.81808 13.954C6.81883 13.9546 6.81961 13.9553 6.82043 13.956C6.82208 13.9574 6.82386 13.959 6.82579 13.9606C6.82965 13.9639 6.83408 13.9676 6.83908 13.9718C6.84908 13.9801 6.86137 13.9902 6.87594 14.0017C6.90506 14.0249 6.94335 14.0542 6.99067 14.0881C7.08522 14.1558 7.21645 14.2424 7.38324 14.3352C7.71666 14.5207 8.19537 14.7327 8.80834 14.8661C10.0563 15.1377 11.7722 15.064 13.8365 13.9418L12.8813 12.1847C11.2259 13.0846 9.99879 13.0783 9.23363 12.9118C8.84002 12.8262 8.54462 12.6927 8.35559 12.5875C8.26115 12.535 8.19406 12.4899 8.1556 12.4624C8.13642 12.4486 8.12453 12.4394 8.1201 12.4358C8.11789 12.4341 8.11756 12.4338 8.11914 12.4351C8.11992 12.4357 8.12119 12.4368 8.12294 12.4383C8.12381 12.439 8.1248 12.4399 8.12592 12.4409C8.12647 12.4413 8.12706 12.4418 8.12768 12.4424C8.12799 12.4426 8.12847 12.4431 8.12863 12.4432C8.12912 12.4436 8.12962 12.4441 7.47278 13.1981ZM12.6079 12.4029C12.6724 12.3295 12.6826 12.3454 12.5127 12.4458C12.3814 12.5234 12.1959 12.6204 11.969 12.7234C11.5129 12.9305 10.9366 13.1405 10.3625 13.2656C9.77124 13.3945 9.27613 13.4123 8.93349 13.3258C8.64904 13.254 8.50495 13.1296 8.42042 12.8788L6.52513 13.5174C6.86076 14.5134 7.61069 15.0546 8.44387 15.265C9.21886 15.4606 10.065 15.3774 10.7884 15.2198C11.5289 15.0584 12.2407 14.7966 12.7959 14.5445C13.0745 14.418 13.3255 14.2886 13.5301 14.1677C13.6961 14.0696 13.9417 13.9148 14.1099 13.7235L12.6079 12.4029Z" fill="#505050" mask="url(#path-7-inside-1_1419_72305)"/>
</g>
<defs>
<clipPath id="clip0_1419_72305">
<rect width="24" height="24" fill="white"/>
</clipPath>
</defs>
</svg>
