<svg width="24" height="24" viewBox="0 0 24 24" fill="none" xmlns="http://www.w3.org/2000/svg">
<path d="M15.9956 15.4057L21.392 10.0981L21.4604 10.0201C21.5617 9.88411 21.6105 9.71618 21.5979 9.54711C21.5854 9.37804 21.5123 9.21918 21.392 9.09967L15.9956 3.79447L15.9212 3.73087C15.4892 3.40687 14.8532 3.71887 14.8532 4.29367V6.84967L14.5832 6.86767C10.3076 7.20607 7.80321 9.91207 7.20561 14.8201C7.12881 15.4501 7.85121 15.8449 8.31921 15.4273C10.0364 13.8937 11.8112 12.9409 13.6532 12.5593C13.9484 12.4981 14.2448 12.4513 14.5436 12.4189L14.8532 12.3913V14.9065L14.8592 15.0049C14.9312 15.5485 15.59 15.8041 15.9956 15.4057ZM14.6708 8.06407L16.0532 7.97167V5.53207L20.1884 9.59767L16.0532 13.6657V11.0773L14.426 11.2237H14.4164C12.3728 11.4433 10.4444 12.2617 8.62401 13.6261C8.98161 12.0193 9.59241 10.8109 10.3952 9.94567C11.3912 8.87167 12.7832 8.21407 14.6708 8.06287V8.06407ZM6.59961 4.80007C5.80396 4.80007 5.0409 5.11615 4.47829 5.67875C3.91568 6.24136 3.59961 7.00443 3.59961 7.80007V17.4001C3.59961 18.1957 3.91568 18.9588 4.47829 19.5214C5.0409 20.084 5.80396 20.4001 6.59961 20.4001H16.1996C16.9953 20.4001 17.7583 20.084 18.3209 19.5214C18.8835 18.9588 19.1996 18.1957 19.1996 17.4001V16.2001C19.1996 16.0409 19.1364 15.8883 19.0239 15.7758C18.9114 15.6633 18.7587 15.6001 18.5996 15.6001C18.4405 15.6001 18.2879 15.6633 18.1753 15.7758C18.0628 15.8883 17.9996 16.0409 17.9996 16.2001V17.4001C17.9996 17.8775 17.81 18.3353 17.4724 18.6729C17.1348 19.0104 16.677 19.2001 16.1996 19.2001H6.59961C6.12222 19.2001 5.66438 19.0104 5.32682 18.6729C4.98925 18.3353 4.79961 17.8775 4.79961 17.4001V7.80007C4.79961 7.32268 4.98925 6.86485 5.32682 6.52728C5.66438 6.18972 6.12222 6.00007 6.59961 6.00007H10.1996C10.3587 6.00007 10.5114 5.93686 10.6239 5.82434C10.7364 5.71182 10.7996 5.5592 10.7996 5.40007C10.7996 5.24094 10.7364 5.08833 10.6239 4.97581C10.5114 4.86329 10.3587 4.80007 10.1996 4.80007H6.59961Z" fill="#505050"/>
</svg>
