<svg width="24" height="24" viewBox="0 0 24 24" fill="none" xmlns="http://www.w3.org/2000/svg">
<path d="M15.996 15.4056L21.3924 10.098L21.4608 10.02C21.562 9.88405 21.6109 9.71612 21.5983 9.54705C21.5857 9.37798 21.5126 9.21912 21.3924 9.09961L15.996 3.79441L15.9216 3.73081C15.4896 3.40681 14.8536 3.71881 14.8536 4.29361V6.84961L14.5836 6.86761C10.308 7.20601 7.80358 9.91201 7.20598 14.82C7.12918 15.45 7.85158 15.8448 8.31958 15.4272C10.0368 13.8936 11.8116 12.9408 13.6536 12.5592C13.9488 12.498 14.2452 12.4512 14.544 12.4188L14.8536 12.3912V14.9064L14.8596 15.0048C14.9316 15.5484 15.5904 15.804 15.996 15.4056ZM14.6712 8.06401L16.0536 7.97161V5.53201L20.1888 9.59761L16.0536 13.6656V11.0772L14.4264 11.2236H14.4168C12.3732 11.4432 10.4448 12.2616 8.62438 13.626C8.98198 12.0192 9.59278 10.8108 10.3956 9.94561C11.3916 8.87161 12.7836 8.21401 14.6712 8.06281V8.06401ZM6.59998 4.80001C5.80433 4.80001 5.04126 5.11608 4.47866 5.67869C3.91605 6.2413 3.59998 7.00436 3.59998 7.80001V17.4C3.59998 18.1957 3.91605 18.9587 4.47866 19.5213C5.04126 20.0839 5.80433 20.4 6.59998 20.4H16.2C16.9956 20.4 17.7587 20.0839 18.3213 19.5213C18.8839 18.9587 19.2 18.1957 19.2 17.4V16.2C19.2 16.0409 19.1368 15.8883 19.0242 15.7757C18.9117 15.6632 18.7591 15.6 18.6 15.6C18.4408 15.6 18.2882 15.6632 18.1757 15.7757C18.0632 15.8883 18 16.0409 18 16.2V17.4C18 17.8774 17.8103 18.3352 17.4728 18.6728C17.1352 19.0104 16.6774 19.2 16.2 19.2H6.59998C6.12259 19.2 5.66475 19.0104 5.32718 18.6728C4.98962 18.3352 4.79998 17.8774 4.79998 17.4V7.80001C4.79998 7.32262 4.98962 6.86479 5.32718 6.52722C5.66475 6.18966 6.12259 6.00001 6.59998 6.00001H10.2C10.3591 6.00001 10.5117 5.9368 10.6242 5.82428C10.7368 5.71176 10.8 5.55914 10.8 5.40001C10.8 5.24088 10.7368 5.08827 10.6242 4.97575C10.5117 4.86323 10.3591 4.80001 10.2 4.80001H6.59998Z" fill="black"/>
</svg>
