<svg width="16" height="16" viewBox="0 0 16 16" fill="none" xmlns="http://www.w3.org/2000/svg">
<path fill-rule="evenodd" clip-rule="evenodd" d="M3.77913 4.09473C3.59936 4.09473 3.45312 4.24097 3.45312 4.42074V5.72176C3.45312 5.90152 3.59936 6.04777 3.77913 6.04777C3.95889 6.04777 4.10515 5.90152 4.10515 5.72176V4.42074C4.10515 4.24097 3.95889 4.09473 3.77913 4.09473Z" fill="#474747"/>
<path fill-rule="evenodd" clip-rule="evenodd" d="M7.02914 4.09473C6.84938 4.09473 6.70312 4.24097 6.70312 4.42074V5.72176C6.70312 5.90152 6.84938 6.04777 7.02914 6.04777C7.20891 6.04777 7.35516 5.90152 7.35516 5.72176V4.42074C7.35516 4.24097 7.20891 4.09473 7.02914 4.09473Z" fill="#474747"/>
<path fill-rule="evenodd" clip-rule="evenodd" d="M3.77913 7.99316C3.59936 7.99316 3.45312 8.13942 3.45312 8.31918V9.6202C3.45312 9.79997 3.59936 9.94621 3.77913 9.94621C3.95889 9.94621 4.10515 9.79997 4.10515 9.6202V8.31918C4.10515 8.13942 3.95889 7.99316 3.77913 7.99316Z" fill="#474747"/>
<path fill-rule="evenodd" clip-rule="evenodd" d="M7.02914 7.99316C6.84938 7.99316 6.70312 8.13942 6.70312 8.31918V9.6202C6.70312 9.79997 6.84938 9.94621 7.02914 9.94621C7.20891 9.94621 7.35516 9.79997 7.35516 9.6202V8.31918C7.35516 8.13942 7.20891 7.99316 7.02914 7.99316Z" fill="#474747"/>
<path fill-rule="evenodd" clip-rule="evenodd" d="M3.77913 11.8945C3.59936 11.8945 3.45312 12.0408 3.45312 12.2206V13.5216C3.45312 13.7013 3.59936 13.8476 3.77913 13.8476C3.95889 13.8476 4.10515 13.7013 4.10515 13.5216V12.2206C4.10515 12.0408 3.95889 11.8945 3.77913 11.8945Z" fill="#474747"/>
<path fill-rule="evenodd" clip-rule="evenodd" d="M7.02914 11.8945C6.84938 11.8945 6.70312 12.0408 6.70312 12.2206V13.5216C6.70312 13.7013 6.84938 13.8476 7.02914 13.8476C7.20891 13.8476 7.35516 13.7013 7.35516 13.5216V12.2206C7.35516 12.0408 7.20891 11.8945 7.02914 11.8945Z" fill="#474747"/>
<path fill-rule="evenodd" clip-rule="evenodd" d="M10.9276 9.94621C11.1073 9.94621 11.2536 9.79996 11.2536 9.62019V8.31918C11.2536 8.13941 11.1073 7.99316 10.9276 7.99316C10.7478 7.99316 10.6016 8.13941 10.6016 8.31918V9.62019C10.6016 9.79996 10.7478 9.94621 10.9276 9.94621Z" fill="#474747"/>
<path fill-rule="evenodd" clip-rule="evenodd" d="M12.8807 9.94621C13.0605 9.94621 13.2067 9.79996 13.2067 9.62019V8.31918C13.2067 8.13941 13.0605 7.99316 12.8807 7.99316C12.7009 7.99316 12.5547 8.13941 12.5547 8.31918V9.62019C12.5547 9.79996 12.7009 9.94621 12.8807 9.94621Z" fill="#474747"/>
<path fill-rule="evenodd" clip-rule="evenodd" d="M10.6016 13.5186C10.6016 13.6984 10.7478 13.8447 10.9276 13.8447C11.1073 13.8447 11.2536 13.6984 11.2536 13.5186V12.2176C11.2536 12.0378 11.1073 11.8916 10.9276 11.8916C10.7478 11.8916 10.6016 12.0378 10.6016 12.2176V13.5186Z" fill="#474747"/>
<path fill-rule="evenodd" clip-rule="evenodd" d="M12.5547 13.5186C12.5547 13.6984 12.7009 13.8447 12.8807 13.8447C13.0605 13.8447 13.2067 13.6984 13.2067 13.5186V12.2176C13.2067 12.0378 13.0605 11.8916 12.8807 11.8916C12.7009 11.8916 12.5547 12.0378 12.5547 12.2176V13.5186Z" fill="#474747"/>
<path fill-rule="evenodd" clip-rule="evenodd" d="M15.1511 15.1456H15.4771C15.6569 15.1456 15.8031 15.2919 15.8062 15.4716C15.8062 15.6514 15.6599 15.7976 15.4802 15.7976H0.529144C0.34938 15.7976 0.203125 15.6514 0.203125 15.4716C0.203125 15.2919 0.34938 15.1456 0.529144 15.1456H1.50414V3.11959C1.50414 2.98248 1.58945 2.86061 1.71742 2.8149L8.86844 0.21592C8.96898 0.17936 9.07867 0.194596 9.16704 0.255532C9.25235 0.316468 9.30414 0.413972 9.30414 0.520608V15.1456H14.5021V6.58389L10.1481 4.7192C9.9836 4.64912 9.90742 4.45717 9.97749 4.29264C10.0476 4.12811 10.2395 4.05194 10.4041 4.12202L14.953 6.07201C15.0749 6.12381 15.1511 6.23959 15.1511 6.37061V15.1456V15.1456ZM8.6521 0.983735L2.15312 3.34811V15.1456H8.6521V0.983735V0.983735Z" fill="#474747"/>
</svg>
