<svg width="34" height="34" viewBox="0 0 34 34" fill="none" xmlns="http://www.w3.org/2000/svg">
<rect width="34" height="34" rx="17" fill="#F26222" fill-opacity="0.15"/>
<path opacity="0.4" d="M23.4495 12.3516L23.2978 12.2649L21.792 11.3983L18.6828 9.59992C17.7295 9.04742 16.2778 9.04742 15.3245 9.59992L12.2153 11.3983L10.7095 12.2758L10.5145 12.3841C8.57531 13.6841 8.44531 13.9224 8.44531 16.0133V21.0074C8.44531 23.0983 8.57531 23.3366 10.5578 24.6691L15.3245 27.4208C15.8011 27.7024 16.397 27.8324 17.0036 27.8324C17.5995 27.8324 18.2061 27.7024 18.6828 27.4208L23.4928 24.6366C25.432 23.3366 25.562 23.0983 25.562 21.0074V16.0133C25.562 13.9224 25.432 13.6841 23.4495 12.3516Z" fill="#F26222"/>
<path d="M10.7031 12.277L12.209 11.3995L15.1773 9.68783L15.3181 9.60116C16.2715 9.04866 17.7231 9.04866 18.6765 9.60116L18.8173 9.68783L21.7856 11.3995L23.2915 12.2662V9.94782C23.2915 7.51033 21.9481 6.16699 19.5106 6.16699H14.4731C12.0356 6.16699 10.7031 7.51033 10.7031 9.94782V12.277Z" fill="#F26222"/>
<path d="M20.0845 18.4517L19.4129 19.2751C19.3045 19.3942 19.2287 19.6326 19.2395 19.7951L19.3045 20.8567C19.3479 21.5067 18.882 21.8426 18.2754 21.6042L17.2895 21.2142C17.1379 21.1601 16.8779 21.1601 16.7262 21.2142L15.7404 21.6042C15.1337 21.8426 14.6679 21.5067 14.7112 20.8567L14.7762 19.7951C14.787 19.6326 14.7112 19.3942 14.6029 19.2751L13.9312 18.4517C13.5087 17.9534 13.6929 17.4009 14.3212 17.2384L15.3504 16.9784C15.5129 16.9351 15.7079 16.7834 15.7945 16.6426L16.3687 15.7542C16.7262 15.2017 17.2895 15.2017 17.647 15.7542L18.2212 16.6426C18.3079 16.7834 18.5029 16.9351 18.6654 16.9784L19.6945 17.2384C20.3229 17.4009 20.507 17.9534 20.0845 18.4517Z" fill="#F26222"/>
</svg>
