<svg width="34" height="34" viewBox="0 0 34 34" fill="none" xmlns="http://www.w3.org/2000/svg">
<rect width="34" height="34" rx="17" fill="#FEF2EC"/>
<path fill-rule="evenodd" clip-rule="evenodd" d="M7.87159 7.12999C7.64683 7.20035 7.37776 7.39488 7.23274 7.59183C6.97783 7.9381 6.99402 7.26175 7.00513 17.0878L7.01526 26.0229L7.11209 26.2184C7.23556 26.4678 7.4699 26.7021 7.71922 26.8256L7.91477 26.9224H17.0076H26.1005L26.296 26.8256C26.4036 26.7723 26.5624 26.6579 26.649 26.5714C26.7355 26.4848 26.8499 26.326 26.9032 26.2184L27 26.0229V21.4471V16.8714L26.9068 16.6653C26.7878 16.4018 26.4606 16.0975 26.2085 16.0159C26.1061 15.9827 24.412 15.637 22.4438 15.2476C20.4756 14.8582 18.8263 14.5301 18.7786 14.5185L18.692 14.4974L18.6809 11.9682L18.6698 9.43887L18.5418 9.17911C18.2866 8.66068 18.0418 8.53784 16.9294 8.36979C16.4885 8.30318 14.3891 7.98449 12.2641 7.6616C10.1392 7.33872 8.31771 7.07571 8.21634 7.07715C8.115 7.0786 7.95986 7.10238 7.87159 7.12999ZM12.8971 8.60163C15.4657 8.98982 17.5988 9.32436 17.6374 9.34501C17.676 9.36566 17.7349 9.42155 17.7683 9.46918C17.8226 9.54681 17.8289 10.4177 17.8289 17.8383V26.1207H16.5774H15.3259V24.1306C15.3259 21.788 15.3366 21.8641 14.9561 21.4859C14.5793 21.1112 14.5971 21.1143 12.8332 21.1145C11.452 21.1147 11.3225 21.1204 11.1395 21.19C10.8365 21.3051 10.617 21.5077 10.4686 21.809L10.3395 22.0711L10.3281 24.0959L10.3167 26.1207H9.25852C8.075 26.1207 7.99165 26.1054 7.87867 25.8673C7.82309 25.7501 7.81699 24.8773 7.81699 17.0179C7.81699 10.6342 7.82884 8.26462 7.86123 8.17174C7.90131 8.05672 8.09146 7.89633 8.18822 7.89598C8.20953 7.8959 10.3285 8.21343 12.8971 8.60163ZM9.68985 11.1614C9.47319 11.2792 9.44597 11.6286 9.63932 11.8103L9.73964 11.9045H10.7502H11.7607L11.861 11.8103C12.0579 11.6253 12.0264 11.2754 11.8026 11.1596C11.6446 11.0779 9.84065 11.0795 9.68985 11.1614ZM13.7977 11.2171C13.6116 11.4031 13.6522 11.7253 13.8785 11.8589C13.973 11.9148 14.1209 11.9241 14.9135 11.9241C15.9538 11.9241 16.0308 11.9076 16.1327 11.6639C16.2041 11.493 16.1517 11.2991 16.0023 11.1816C15.9077 11.1073 15.8454 11.1028 14.907 11.1028H13.912L13.7977 11.2171ZM9.68985 13.6644C9.47319 13.7822 9.44597 14.1316 9.63932 14.3132L9.73964 14.4075H10.7502H11.7607L11.861 14.3132C12.0579 14.1283 12.0264 13.7783 11.8026 13.6626C11.6446 13.5809 9.84065 13.5824 9.68985 13.6644ZM13.7977 13.7201C13.6116 13.9061 13.6522 14.2283 13.8785 14.3619C13.973 14.4177 14.1209 14.427 14.9135 14.427C15.9538 14.427 16.0308 14.4106 16.1327 14.1669C16.2041 13.9959 16.1517 13.8021 16.0023 13.6846C15.9077 13.6102 15.8454 13.6058 14.907 13.6058H13.912L13.7977 13.7201ZM22.3217 16.0722C24.2925 16.4609 25.946 16.8054 25.9962 16.8379C26.2048 16.973 26.1983 16.824 26.1983 21.4497C26.1983 26.2025 26.2132 25.9317 25.9449 26.059C25.8295 26.1137 25.4156 26.1207 22.2521 26.1207H18.6893V20.7432C18.6893 17.7855 18.7003 15.3657 18.7139 15.3657C18.7274 15.3657 20.3509 15.6836 22.3217 16.0722ZM9.68985 16.1674C9.47319 16.2852 9.44597 16.6346 9.63932 16.8162L9.73964 16.9105H10.7502H11.7607L11.861 16.8162C12.0579 16.6313 12.0264 16.2813 11.8026 16.1656C11.6446 16.0839 9.84065 16.0854 9.68985 16.1674ZM13.7977 16.223C13.6116 16.4091 13.6522 16.7312 13.8785 16.8649C13.973 16.9207 14.1209 16.93 14.9135 16.93C15.9538 16.93 16.0308 16.9136 16.1327 16.6699C16.2041 16.4989 16.1517 16.3051 16.0023 16.1876C15.9077 16.1132 15.8454 16.1087 14.907 16.1087H13.912L13.7977 16.223ZM9.68985 18.6704C9.47319 18.7881 9.44597 19.1375 9.63932 19.3192L9.73964 19.4135H10.7502H11.7607L11.861 19.3192C12.0579 19.1343 12.0264 18.7843 11.8026 18.6685C11.6446 18.5868 9.84065 18.5884 9.68985 18.6704ZM13.7977 18.726C13.6116 18.9121 13.6522 19.2342 13.8785 19.3679C13.973 19.4237 14.1209 19.433 14.9135 19.433C15.9538 19.433 16.0308 19.4166 16.1327 19.1729C16.2041 19.0019 16.1517 18.8081 16.0023 18.6906C15.9077 18.6162 15.8454 18.6117 14.907 18.6117H13.912L13.7977 18.726ZM21.3066 18.726C21.1206 18.9121 21.1612 19.2342 21.3875 19.3679C21.4819 19.4237 21.6299 19.433 22.4224 19.433C23.4627 19.433 23.5398 19.4166 23.6416 19.1729C23.713 19.0019 23.6606 18.8081 23.5112 18.6906C23.4167 18.6162 23.3543 18.6117 22.4159 18.6117H21.4209L21.3066 18.726ZM21.3066 21.229C21.1206 21.4151 21.1612 21.7372 21.3875 21.8709C21.4819 21.9267 21.6299 21.936 22.4224 21.936C23.4627 21.936 23.5398 21.9196 23.6416 21.6758C23.713 21.5049 23.6606 21.3111 23.5112 21.1935C23.4167 21.1192 23.3543 21.1147 22.4159 21.1147H21.4209L21.3066 21.229ZM14.3767 22.064L14.4851 22.1724L14.4959 24.1465L14.5067 26.1207H12.8436H11.1804V24.1866C11.1804 22.8895 11.1942 22.2221 11.2225 22.1602C11.2456 22.1094 11.3116 22.0383 11.3691 22.0022C11.4627 21.9433 11.6198 21.9375 12.871 21.946L14.2683 21.9555L14.3767 22.064ZM21.3066 23.732C21.1206 23.918 21.1612 24.2402 21.3875 24.3739C21.4819 24.4297 21.6299 24.439 22.4224 24.439C23.4627 24.439 23.5398 24.4225 23.6416 24.1788C23.713 24.0079 23.6606 23.814 23.5112 23.6965C23.4167 23.6222 23.3543 23.6177 22.4159 23.6177H21.4209L21.3066 23.732Z" fill="#F26222" stroke="#F26222" stroke-width="0.5"/>
</svg>
