<svg width="31" height="31" viewBox="0 0 31 31" fill="none" xmlns="http://www.w3.org/2000/svg">
<g clip-path="url(#clip0_1515_97365)">
<rect x="1" y="1" width="29" height="29" rx="14.5" fill="white" stroke="#F26222"/>
<g clip-path="url(#clip1_1515_97365)">
<path d="M15.1824 14.8638C17.7813 14.8638 19.8883 12.8883 19.8883 10.4514C19.8883 8.01454 17.7813 6.03906 15.1824 6.03906C12.5836 6.03906 10.4766 8.01454 10.4766 10.4514C10.4766 11.5608 10.9136 12.5757 11.6354 13.351C11.5783 13.9914 11.3901 14.6936 11.1819 15.2206C11.1354 15.3378 11.2254 15.4689 11.3424 15.4488C12.6695 15.2155 13.4583 14.8575 13.8013 14.6709C14.2518 14.7997 14.7162 14.8645 15.1824 14.8638Z" stroke="#F26222" stroke-width="0.8"/>
<mask id="path-3-inside-1_1515_97365" fill="white">
<path d="M13.1571 10.6611C13.1571 10.8172 13.1053 10.9394 13.0014 11.0281C12.8956 11.1159 12.7496 11.1597 12.5629 11.1597H11.625V10.7951H12.4019C12.493 10.7951 12.5594 10.7803 12.6008 10.7512C12.6421 10.7211 12.663 10.6745 12.663 10.6109C12.663 10.5523 12.6432 10.5064 12.6035 10.4733C12.5622 10.4415 12.495 10.4257 12.4022 10.4257L11.7683 10.4281V10.0638H12.3904C12.4843 10.0638 12.5517 10.0497 12.5931 10.0213C12.6328 9.9938 12.6526 9.94826 12.6526 9.88464C12.6526 9.82437 12.6328 9.7795 12.5931 9.74936C12.5729 9.73295 12.5462 9.72123 12.5131 9.71387C12.4784 9.7075 12.4377 9.70416 12.3904 9.70416H11.625V9.33984H12.5236C12.7315 9.33984 12.889 9.38003 12.9961 9.46039C13.1019 9.54176 13.1547 9.66799 13.1547 9.83943C13.1547 9.92549 13.1349 10.0018 13.0952 10.0685C13.0539 10.1351 13.0003 10.1937 12.9342 10.2439C13.0069 10.2871 13.0598 10.3387 13.0928 10.3986C13.1356 10.4689 13.1571 10.5563 13.1571 10.6611Z"/>
</mask>
<path d="M13.1571 10.6611C13.1571 10.8172 13.1053 10.9394 13.0014 11.0281C12.8956 11.1159 12.7496 11.1597 12.5629 11.1597H11.625V10.7951H12.4019C12.493 10.7951 12.5594 10.7803 12.6008 10.7512C12.6421 10.7211 12.663 10.6745 12.663 10.6109C12.663 10.5523 12.6432 10.5064 12.6035 10.4733C12.5622 10.4415 12.495 10.4257 12.4022 10.4257L11.7683 10.4281V10.0638H12.3904C12.4843 10.0638 12.5517 10.0497 12.5931 10.0213C12.6328 9.9938 12.6526 9.94826 12.6526 9.88464C12.6526 9.82437 12.6328 9.7795 12.5931 9.74936C12.5729 9.73295 12.5462 9.72123 12.5131 9.71387C12.4784 9.7075 12.4377 9.70416 12.3904 9.70416H11.625V9.33984H12.5236C12.7315 9.33984 12.889 9.38003 12.9961 9.46039C13.1019 9.54176 13.1547 9.66799 13.1547 9.83943C13.1547 9.92549 13.1349 10.0018 13.0952 10.0685C13.0539 10.1351 13.0003 10.1937 12.9342 10.2439C13.0069 10.2871 13.0598 10.3387 13.0928 10.3986C13.1356 10.4689 13.1571 10.5563 13.1571 10.6611Z" fill="#F26222"/>
<path d="M13.0014 11.0281L13.64 11.7977L13.6505 11.7888L13.0014 11.0281ZM11.625 11.1597H10.625V12.1597H11.625V11.1597ZM11.625 10.7951V9.79508H10.625V10.7951H11.625ZM12.6008 10.7512L13.1764 11.5689L13.183 11.5643L13.1895 11.5596L12.6008 10.7512ZM12.6035 10.4733L13.245 9.70616L13.2293 9.69299L13.213 9.68047L12.6035 10.4733ZM12.4022 10.4257V9.42574L12.3985 9.42575L12.4022 10.4257ZM11.7683 10.4281H10.7683V11.4318L11.772 11.4281L11.7683 10.4281ZM11.7683 10.0638V9.06378H10.7683V10.0638H11.7683ZM12.5931 10.0213L13.1598 10.8452L13.1625 10.8433L12.5931 10.0213ZM12.5931 9.74936L11.9621 10.5251L11.9748 10.5355L11.9879 10.5454L12.5931 9.74936ZM12.5131 9.71387L12.7308 8.73784L12.712 8.73365L12.6931 8.73019L12.5131 9.71387ZM11.625 9.70416H10.625V10.7042H11.625V9.70416ZM11.625 9.33984V8.33984H10.625V9.33984H11.625ZM12.9961 9.46039L13.6061 8.66788L13.5963 8.66051L12.9961 9.46039ZM13.0952 10.0685L13.9448 10.596L13.9498 10.5879L13.9547 10.5798L13.0952 10.0685ZM12.9342 10.2439L12.3291 9.44784L11.1481 10.3456L12.4233 11.1036L12.9342 10.2439ZM13.0928 10.3986L12.217 10.8813L12.2273 10.9L12.2385 10.9183L13.0928 10.3986ZM12.1571 10.6611C12.1571 10.6282 12.1628 10.5614 12.1977 10.4792C12.2341 10.3935 12.2897 10.3208 12.3522 10.2675L13.6505 11.7888C14.0104 11.4817 14.1571 11.0631 14.1571 10.6611H12.1571ZM12.3627 10.2586C12.4917 10.1516 12.5998 10.1597 12.5629 10.1597V12.1597C12.8994 12.1597 13.2996 12.0801 13.64 11.7977L12.3627 10.2586ZM12.5629 10.1597H11.625V12.1597H12.5629V10.1597ZM12.625 11.1597V10.7951H10.625V11.1597H12.625ZM11.625 11.7951H12.4019V9.79508H11.625V11.7951ZM12.4019 11.7951C12.5567 11.7951 12.8789 11.7784 13.1764 11.5689L12.0251 9.93352C12.1428 9.8507 12.2496 9.81968 12.3043 9.8076C12.361 9.79508 12.3974 9.79508 12.4019 9.79508V11.7951ZM13.1895 11.5596C13.5491 11.2977 13.663 10.9123 13.663 10.6109H11.663C11.663 10.5352 11.6753 10.4184 11.7337 10.2872C11.7951 10.1491 11.8923 10.0301 12.0121 9.94286L13.1895 11.5596ZM13.663 10.6109C13.663 10.3006 13.544 9.95613 13.245 9.70616L11.9621 11.2404C11.8663 11.1603 11.7844 11.0546 11.7302 10.9292C11.6774 10.8072 11.663 10.6948 11.663 10.6109H13.663ZM13.213 9.68047C12.9048 9.44357 12.5611 9.42575 12.4022 9.42575V11.4257C12.3965 11.4257 12.3554 11.4257 12.2927 11.4109C12.231 11.3964 12.1161 11.3599 11.9941 11.2661L13.213 9.68047ZM12.3985 9.42575L11.7646 9.4281L11.772 11.4281L12.4059 11.4257L12.3985 9.42575ZM12.7683 10.4281V10.0638H10.7683V10.4281H12.7683ZM11.7683 11.0638H12.3904V9.06378H11.7683V11.0638ZM12.3904 11.0638C12.5343 11.0638 12.8594 11.0518 13.1598 10.8452L12.0264 9.19733C12.1477 9.11394 12.2563 9.08493 12.3064 9.07443C12.3345 9.06854 12.356 9.06605 12.3688 9.06493C12.3817 9.0638 12.3893 9.06378 12.3904 9.06378V11.0638ZM13.1625 10.8433C13.5547 10.5717 13.6526 10.1606 13.6526 9.88464H11.6526C11.6526 9.81619 11.6628 9.7006 11.7208 9.56741C11.7828 9.42498 11.8859 9.29466 12.0237 9.19918L13.1625 10.8433ZM13.6526 9.88464C13.6526 9.58318 13.5384 9.21185 13.1983 8.95327L11.9879 10.5454C11.875 10.4596 11.782 10.3439 11.7224 10.2085C11.6655 10.0791 11.6526 9.96299 11.6526 9.88464H13.6526ZM13.2242 8.97363C13.0494 8.83144 12.8654 8.76786 12.7308 8.73784L12.2955 10.6899C12.2269 10.6746 12.0965 10.6345 11.9621 10.5251L13.2242 8.97363ZM12.6931 8.73019C12.5856 8.71053 12.4828 8.70416 12.3904 8.70416V10.7042C12.3925 10.7042 12.3711 10.7045 12.3332 10.6975L12.6931 8.73019ZM12.3904 8.70416H11.625V10.7042H12.3904V8.70416ZM12.625 9.70416V9.33984H10.625V9.70416H12.625ZM11.625 10.3398H12.5236V8.33984H11.625V10.3398ZM12.5236 10.3398C12.5661 10.3398 12.5713 10.3443 12.5505 10.339C12.5283 10.3333 12.4678 10.3141 12.396 10.2603L13.5963 8.66051C13.2438 8.39605 12.8357 8.33984 12.5236 8.33984V10.3398ZM12.3862 10.2528C12.2977 10.1847 12.2314 10.095 12.1926 10.0021C12.1567 9.91646 12.1547 9.85403 12.1547 9.83943H14.1547C14.1547 9.45402 14.0252 8.99054 13.6061 8.66794L12.3862 10.2528ZM12.1547 9.83943C12.1547 9.76583 12.1736 9.66179 12.2358 9.55718L13.9547 10.5798C14.0962 10.3419 14.1547 10.0851 14.1547 9.83943H12.1547ZM12.2457 9.5409C12.2713 9.49966 12.302 9.46841 12.3291 9.44784L13.5394 11.04C13.6986 10.919 13.8364 10.7705 13.9448 10.596L12.2457 9.5409ZM12.4233 11.1036C12.3788 11.0771 12.288 11.0101 12.217 10.8813L13.9686 9.91592C13.8316 9.66732 13.6351 9.49717 13.4452 9.38429L12.4233 11.1036ZM12.2385 10.9183C12.1639 10.7958 12.1571 10.692 12.1571 10.6611H14.1571C14.1571 10.4207 14.1073 10.1421 13.9472 9.87894L12.2385 10.9183Z" fill="#F26222" mask="url(#path-3-inside-1_1515_97365)"/>
<mask id="path-5-inside-2_1515_97365" fill="white">
<path d="M15.0309 10.6006C15.0309 10.7914 14.959 10.9361 14.8153 11.0345C14.6717 11.133 14.4648 11.1819 14.1943 11.1819C13.8751 11.1819 13.6389 11.1079 13.4859 10.9599C13.334 10.8129 13.2578 10.5821 13.2578 10.2674C13.2578 9.94963 13.3392 9.71523 13.5023 9.56422C13.6629 9.41387 13.9133 9.33887 14.2537 9.33887H14.9329L14.9315 9.70318H14.244C14.0733 9.70318 13.9495 9.73499 13.8726 9.79828C13.8365 9.82841 13.809 9.86658 13.7902 9.91279C13.769 9.96168 13.7586 10.0176 13.7586 10.0809H14.372C14.5931 10.0809 14.7583 10.1234 14.8675 10.2081C14.9763 10.2938 15.0309 10.4244 15.0309 10.6006ZM14.5403 10.62C14.5403 10.5614 14.5246 10.5172 14.4933 10.4871C14.462 10.4596 14.4144 10.4455 14.3501 10.4455H13.761C13.761 10.5698 13.7972 10.6639 13.8698 10.7271C13.9408 10.7921 14.0545 10.8246 14.2106 10.8246C14.3299 10.8246 14.4141 10.8078 14.4641 10.7747C14.5152 10.7415 14.5403 10.69 14.5403 10.62Z"/>
</mask>
<path d="M15.0309 10.6006C15.0309 10.7914 14.959 10.9361 14.8153 11.0345C14.6717 11.133 14.4648 11.1819 14.1943 11.1819C13.8751 11.1819 13.6389 11.1079 13.4859 10.9599C13.334 10.8129 13.2578 10.5821 13.2578 10.2674C13.2578 9.94963 13.3392 9.71523 13.5023 9.56422C13.6629 9.41387 13.9133 9.33887 14.2537 9.33887H14.9329L14.9315 9.70318H14.244C14.0733 9.70318 13.9495 9.73499 13.8726 9.79828C13.8365 9.82841 13.809 9.86658 13.7902 9.91279C13.769 9.96168 13.7586 10.0176 13.7586 10.0809H14.372C14.5931 10.0809 14.7583 10.1234 14.8675 10.2081C14.9763 10.2938 15.0309 10.4244 15.0309 10.6006ZM14.5403 10.62C14.5403 10.5614 14.5246 10.5172 14.4933 10.4871C14.462 10.4596 14.4144 10.4455 14.3501 10.4455H13.761C13.761 10.5698 13.7972 10.6639 13.8698 10.7271C13.9408 10.7921 14.0545 10.8246 14.2106 10.8246C14.3299 10.8246 14.4141 10.8078 14.4641 10.7747C14.5152 10.7415 14.5403 10.69 14.5403 10.62Z" fill="#F26222"/>
<path d="M13.4859 10.9599L12.7907 11.6786L12.7907 11.6786L13.4859 10.9599ZM13.5023 9.56422L14.1817 10.298L14.1856 10.2944L13.5023 9.56422ZM14.9329 9.33887L15.9329 9.34269L15.9367 8.33887H14.9329V9.33887ZM14.9315 9.70318V10.7032H15.9277L15.9315 9.707L14.9315 9.70318ZM13.8726 9.79828L13.2369 9.02632L13.2325 9.03004L13.8726 9.79828ZM13.7902 9.91279L14.7076 10.3108L14.7122 10.3001L14.7166 10.2893L13.7902 9.91279ZM13.7586 10.0809H12.7586V11.0809H13.7586V10.0809ZM14.8675 10.2081L15.4862 9.42249L15.4805 9.41804L14.8675 10.2081ZM14.4933 10.4871L15.187 9.76672L15.1703 9.75063L15.1528 9.73534L14.4933 10.4871ZM13.761 10.4455V9.44553H12.761V10.4455H13.761ZM13.8698 10.7271L14.5452 9.98963L14.536 9.98119L14.5265 9.97298L13.8698 10.7271ZM14.4641 10.7747L13.92 9.93563L13.9121 9.94085L14.4641 10.7747ZM14.0309 10.6006C14.0309 10.5692 14.0374 10.4959 14.0815 10.4071C14.1274 10.3149 14.1926 10.249 14.25 10.2097L15.3807 11.8593C15.8251 11.5547 16.0309 11.0847 16.0309 10.6006H14.0309ZM14.25 10.2097C14.2996 10.1757 14.3315 10.1698 14.3218 10.1721C14.3174 10.1731 14.3051 10.1757 14.2832 10.1779C14.2614 10.1801 14.2321 10.1819 14.1943 10.1819V12.1819C14.5618 12.1819 15.0012 12.1195 15.3807 11.8593L14.25 10.2097ZM14.1943 10.1819C14.1527 10.1819 14.1226 10.1794 14.1025 10.1767C14.0825 10.1741 14.0748 10.1715 14.0768 10.1721C14.0792 10.1728 14.0921 10.1772 14.1118 10.1884C14.132 10.1999 14.1563 10.2171 14.1812 10.2411L12.7907 11.6786C13.2052 12.0796 13.7431 12.1819 14.1943 12.1819V10.1819ZM14.1812 10.2411C14.2079 10.267 14.228 10.2935 14.2422 10.317C14.2562 10.3401 14.2625 10.357 14.2646 10.3635C14.2667 10.3697 14.2648 10.366 14.2625 10.3495C14.2602 10.333 14.2578 10.3062 14.2578 10.2674H12.2578C12.2578 10.722 12.3664 11.2682 12.7907 11.6786L14.1812 10.2411ZM14.2578 10.2674C14.2578 10.1903 14.2681 10.1682 14.2635 10.1815C14.2607 10.1894 14.2538 10.2065 14.2397 10.2288C14.2253 10.2515 14.2059 10.2755 14.1817 10.298L12.8229 8.83047C12.3801 9.24044 12.2578 9.79361 12.2578 10.2674H14.2578ZM14.1856 10.2944C14.1338 10.3428 14.0927 10.3546 14.0978 10.353C14.101 10.3521 14.1146 10.3484 14.1413 10.345C14.1679 10.3416 14.2049 10.3389 14.2537 10.3389V8.33887C13.7941 8.33887 13.2441 8.43625 12.819 8.83407L14.1856 10.2944ZM14.2537 10.3389H14.9329V8.33887H14.2537V10.3389ZM13.9329 9.33505L13.9315 9.69936L15.9315 9.707L15.9329 9.34269L13.9329 9.33505ZM14.9315 8.70318H14.244V10.7032H14.9315V8.70318ZM14.244 8.70318C13.991 8.70318 13.5817 8.74245 13.2369 9.02633L14.5083 10.5702C14.4064 10.6541 14.3129 10.685 14.2714 10.6957C14.2304 10.7062 14.2165 10.7032 14.244 10.7032V8.70318ZM13.2325 9.03004C13.0626 9.17155 12.9406 9.34734 12.8638 9.53632L14.7166 10.2893C14.6774 10.3858 14.6103 10.4853 14.5128 10.5665L13.2325 9.03004ZM12.8728 9.51475C12.7873 9.71193 12.7586 9.90775 12.7586 10.0809H14.7586C14.7586 10.1274 14.7507 10.2114 14.7076 10.3108L12.8728 9.51475ZM13.7586 11.0809H14.372V9.08088H13.7586V11.0809ZM14.372 11.0809C14.4218 11.0809 14.4314 11.086 14.4129 11.0813C14.3931 11.0762 14.3298 11.0566 14.2545 10.9982L15.4805 9.41804C15.1187 9.13734 14.6921 9.08088 14.372 9.08088V11.0809ZM14.2488 10.9937C14.1665 10.9289 14.104 10.8439 14.067 10.7552C14.0328 10.6731 14.0309 10.6138 14.0309 10.6006H16.0309C16.0309 10.2072 15.8981 9.74692 15.4862 9.42251L14.2488 10.9937ZM15.5403 10.62C15.5403 10.3867 15.4744 10.0435 15.187 9.76672L13.7997 11.2074C13.5749 10.9909 13.5403 10.7361 13.5403 10.62H15.5403ZM15.1528 9.73534C14.8654 9.48315 14.5367 9.44553 14.3501 9.44553V11.4455C14.2921 11.4455 14.0587 11.436 13.8338 11.2388L15.1528 9.73534ZM14.3501 9.44553H13.761V11.4455H14.3501V9.44553ZM12.761 10.4455C12.761 10.7673 12.8616 11.1752 13.2131 11.4813L14.5265 9.97298C14.619 10.0535 14.6835 10.1518 14.7211 10.2491C14.7564 10.3407 14.761 10.4127 14.761 10.4455H12.761ZM13.1945 11.4646C13.5355 11.7769 13.952 11.8246 14.2106 11.8246V9.82458C14.1976 9.82458 14.2272 9.82274 14.2831 9.83873C14.3418 9.85549 14.4431 9.89612 14.5452 9.98963L13.1945 11.4646ZM14.2106 11.8246C14.3686 11.8246 14.7076 11.8128 15.0161 11.6085L13.9121 9.94085C14.0315 9.86181 14.134 9.83802 14.1697 9.83098C14.2101 9.82301 14.2278 9.82458 14.2106 9.82458V11.8246ZM15.0082 11.6137C15.3946 11.3631 15.5403 10.9632 15.5403 10.62H13.5403C13.5403 10.5366 13.5553 10.4098 13.6236 10.2707C13.695 10.1251 13.8024 10.0119 13.92 9.93566L15.0082 11.6137Z" fill="#F26222" mask="url(#path-5-inside-2_1515_97365)"/>
<mask id="path-7-inside-3_1515_97365" fill="white">
<path d="M16.7553 10.6086C16.7553 10.7864 16.6972 10.923 16.5817 11.0181C16.4652 11.1125 16.3008 11.1594 16.0886 11.1594H15.0938V10.7951H16.0024C16.0918 10.7951 16.1551 10.7803 16.1912 10.7512C16.226 10.7228 16.243 10.6752 16.243 10.6086C16.243 10.5403 16.2256 10.491 16.1912 10.4612C16.1551 10.4328 16.0918 10.4187 16.0024 10.4187H15.0938V9.33984H16.6628L16.6614 9.70416H15.5587V10.0564H16.1731C16.3515 10.0564 16.4941 10.104 16.6016 10.1991C16.6513 10.2486 16.6899 10.3069 16.717 10.3735C16.7424 10.4415 16.7553 10.5202 16.7553 10.6086Z"/>
</mask>
<path d="M16.7553 10.6086C16.7553 10.7864 16.6972 10.923 16.5817 11.0181C16.4652 11.1125 16.3008 11.1594 16.0886 11.1594H15.0938V10.7951H16.0024C16.0918 10.7951 16.1551 10.7803 16.1912 10.7512C16.226 10.7228 16.243 10.6752 16.243 10.6086C16.243 10.5403 16.2256 10.491 16.1912 10.4612C16.1551 10.4328 16.0918 10.4187 16.0024 10.4187H15.0938V9.33984H16.6628L16.6614 9.70416H15.5587V10.0564H16.1731C16.3515 10.0564 16.4941 10.104 16.6016 10.1991C16.6513 10.2486 16.6899 10.3069 16.717 10.3735C16.7424 10.4415 16.7553 10.5202 16.7553 10.6086Z" fill="#F26222"/>
<path d="M16.5817 11.0181L17.2114 11.795L17.2175 11.79L16.5817 11.0181ZM15.0938 11.1594H14.0938V12.1594H15.0938V11.1594ZM15.0938 10.7951V9.79508H14.0938V10.7951H15.0938ZM16.1912 10.7512L16.8186 11.53L16.8246 11.5251L16.1912 10.7512ZM16.1912 10.4612L16.8457 9.70517L16.828 9.68987L16.8097 9.67541L16.1912 10.4612ZM15.0938 10.4187H14.0938V11.4187H15.0938V10.4187ZM15.0938 9.33984V8.33984H14.0938V9.33984H15.0938ZM16.6628 9.33984L17.6627 9.34366L17.6666 8.33984H16.6628V9.33984ZM16.6614 9.70416V10.7042H17.6576L17.6614 9.70797L16.6614 9.70416ZM15.5587 9.70416V8.70416H14.5587V9.70416H15.5587ZM15.5587 10.0564H14.5587V11.0564H15.5587V10.0564ZM16.6016 10.1991L17.3075 9.49074L17.2865 9.46984L17.2643 9.45021L16.6016 10.1991ZM16.717 10.3735L17.6538 10.0237L17.6487 10.01L17.6432 9.9965L16.717 10.3735ZM15.7553 10.6086C15.7553 10.5891 15.7585 10.5309 15.7911 10.4539C15.8257 10.3725 15.8807 10.3 15.9459 10.2462L17.2175 11.79C17.607 11.4692 17.7553 11.024 17.7553 10.6086H15.7553ZM15.952 10.2412C16.0123 10.1924 16.0672 10.171 16.0959 10.1627C16.1219 10.1553 16.1233 10.1594 16.0886 10.1594V12.1594C16.435 12.1594 16.8548 12.084 17.2114 11.7949L15.952 10.2412ZM16.0886 10.1594H15.0938V12.1594H16.0886V10.1594ZM16.0938 11.1594V10.7951H14.0938V11.1594H16.0938ZM15.0938 11.7951H16.0024V9.79508H15.0938V11.7951ZM16.0024 11.7951C16.1393 11.7951 16.5021 11.7849 16.8185 11.53L15.5639 9.97245C15.6999 9.8629 15.8296 9.82416 15.8904 9.81004C15.9549 9.79503 15.9972 9.79508 16.0024 9.79508V11.7951ZM16.8246 11.5251C17.189 11.2268 17.243 10.8209 17.243 10.6086H15.243C15.243 10.5295 15.263 10.2187 15.5578 9.97737L16.8246 11.5251ZM17.243 10.6086C17.243 10.395 17.1895 10.0028 16.8457 9.70517L15.5367 11.2173C15.2618 10.9793 15.243 10.6855 15.243 10.6086H17.243ZM16.8097 9.67541C16.4929 9.42613 16.1318 9.41872 16.0024 9.41872V11.4187C15.9998 11.4187 15.96 11.419 15.8978 11.405C15.8399 11.392 15.7102 11.3552 15.5728 11.2471L16.8097 9.67541ZM16.0024 9.41872H15.0938V11.4187H16.0024V9.41872ZM16.0938 10.4187V9.33984H14.0938V10.4187H16.0938ZM15.0938 10.3398H16.6628V8.33984H15.0938V10.3398ZM15.6628 9.33603L15.6614 9.70034L17.6614 9.70797L17.6627 9.34366L15.6628 9.33603ZM16.6614 8.70416H15.5587V10.7042H16.6614V8.70416ZM14.5587 9.70416V10.0564H16.5587V9.70416H14.5587ZM15.5587 11.0564H16.1731V9.05641H15.5587V11.0564ZM16.1731 11.0564C16.1743 11.0564 16.1453 11.0566 16.0979 11.0408C16.0476 11.0241 15.9907 10.9939 15.9388 10.9479L17.2643 9.45021C16.9329 9.15691 16.5346 9.05641 16.1731 9.05641V11.0564ZM15.8957 10.9074C15.8485 10.8604 15.8131 10.8053 15.7908 10.7505L17.6432 9.9965C17.5667 9.80846 17.4541 9.63687 17.3075 9.49074L15.8957 10.9074ZM15.7802 10.7234C15.756 10.6586 15.7553 10.6152 15.7553 10.6086H17.7553C17.7553 10.4251 17.7288 10.2243 17.6538 10.0237L15.7802 10.7234Z" fill="#F26222" mask="url(#path-7-inside-3_1515_97365)"/>
<mask id="path-9-inside-4_1515_97365" fill="white">
<path fill-rule="evenodd" clip-rule="evenodd" d="M16.9766 11.7355L17.671 11.1328L18.427 11.3441C18.427 11.3441 18.9256 11.5453 18.6471 11.8822C18.5216 12.0014 18.4026 12.1142 17.9638 12.0004C17.8393 11.9606 16.9766 11.7355 16.9766 11.7355Z"/>
</mask>
<path fill-rule="evenodd" clip-rule="evenodd" d="M16.9766 11.7355L17.671 11.1328L18.427 11.3441C18.427 11.3441 18.9256 11.5453 18.6471 11.8822C18.5216 12.0014 18.4026 12.1142 17.9638 12.0004C17.8393 11.9606 16.9766 11.7355 16.9766 11.7355Z" fill="#F26222"/>
<path d="M16.9766 11.7355L16.3211 10.9803L14.8879 12.2242L16.7242 12.7032L16.9766 11.7355ZM17.671 11.1328L17.9402 10.1697L17.4219 10.0249L17.0155 10.3776L17.671 11.1328ZM18.427 11.3441L18.8012 10.4168L18.7497 10.396L18.6962 10.381L18.427 11.3441ZM18.6471 11.8822L19.3357 12.6073L19.3794 12.5659L19.4178 12.5194L18.6471 11.8822ZM17.9638 12.0004L17.659 12.9528L17.6856 12.9613L17.7127 12.9684L17.9638 12.0004ZM17.632 12.4908L18.3265 11.888L17.0155 10.3776L16.3211 10.9803L17.632 12.4908ZM17.4018 12.0959L18.1578 12.3072L18.6962 10.381L17.9402 10.1697L17.4018 12.0959ZM18.427 11.3441C18.0528 12.2714 18.0524 12.2713 18.0521 12.2712C18.0519 12.2711 18.0516 12.271 18.0514 12.2709C18.0509 12.2707 18.0505 12.2705 18.05 12.2703C18.0491 12.27 18.0483 12.2696 18.0474 12.2693C18.0457 12.2686 18.0441 12.2679 18.0426 12.2673C18.0395 12.266 18.0368 12.2648 18.0343 12.2637C18.0293 12.2616 18.0253 12.2598 18.0221 12.2582C18.0159 12.2553 18.0109 12.2527 18.0059 12.2499C18.0039 12.2488 17.9697 12.2304 17.9245 12.1839C17.8823 12.1405 17.7634 12.0026 17.7367 11.7697C17.7231 11.6504 17.738 11.5358 17.7723 11.4362C17.8053 11.3407 17.8496 11.2775 17.8765 11.2449L19.4178 12.5194C19.6182 12.277 19.7691 11.9385 19.7237 11.5423C19.6819 11.1769 19.4905 10.9256 19.3585 10.7898C19.2235 10.6509 19.082 10.5611 18.9952 10.5117C18.9478 10.4848 18.906 10.4638 18.8737 10.4486C18.8573 10.4409 18.8429 10.4344 18.8308 10.4292C18.8247 10.4265 18.8192 10.4242 18.8143 10.4221C18.8118 10.4211 18.8095 10.4201 18.8073 10.4192C18.8062 10.4188 18.8052 10.4184 18.8041 10.418C18.8036 10.4177 18.8031 10.4175 18.8027 10.4173C18.8024 10.4172 18.8021 10.4171 18.8019 10.4171C18.8016 10.4169 18.8012 10.4168 18.427 11.3441ZM17.9585 11.157C17.9196 11.194 17.9371 11.1753 17.9665 11.1542C18.0082 11.1243 18.0699 11.0897 18.1462 11.0677C18.29 11.0263 18.3515 11.0679 18.2149 11.0324L17.7127 12.9684C18.0149 13.0468 18.3554 13.0888 18.6997 12.9896C19.0604 12.8858 19.2791 12.6611 19.3357 12.6073L17.9585 11.157ZM18.2686 11.048C18.175 11.018 17.8927 10.9428 17.6795 10.8863C17.5628 10.8554 17.4503 10.8259 17.3669 10.804C17.3253 10.7931 17.2908 10.7841 17.2668 10.7778C17.2548 10.7747 17.2454 10.7722 17.2389 10.7705C17.2357 10.7697 17.2332 10.769 17.2315 10.7686C17.2307 10.7684 17.2301 10.7682 17.2296 10.7681C17.2294 10.768 17.2292 10.768 17.2291 10.768C17.2291 10.7679 17.229 10.7679 17.229 10.7679C17.229 10.7679 17.229 10.7679 17.229 10.7679C17.2289 10.7679 17.2289 10.7679 16.9766 11.7355C16.7242 12.7032 16.7242 12.7032 16.7242 12.7032C16.7242 12.7032 16.7242 12.7032 16.7242 12.7032C16.7242 12.7032 16.7243 12.7032 16.7243 12.7032C16.7244 12.7032 16.7246 12.7033 16.7248 12.7033C16.7251 12.7034 16.7257 12.7036 16.7265 12.7038C16.7281 12.7042 16.7305 12.7048 16.7337 12.7056C16.7399 12.7073 16.7491 12.7097 16.761 12.7128C16.7846 12.7189 16.8185 12.7278 16.8597 12.7386C16.942 12.7602 17.0529 12.7894 17.1675 12.8197C17.2824 12.8501 17.3996 12.8814 17.4951 12.9073C17.543 12.9203 17.5838 12.9315 17.6154 12.9404C17.6518 12.9506 17.6627 12.954 17.659 12.9528L18.2686 11.048Z" fill="#F26222" mask="url(#path-9-inside-4_1515_97365)"/>
<path d="M14.329 12.4311C14.3289 12.4311 14.3289 12.4312 14.3289 12.4312L14.2914 12.0208M14.329 12.4311L14.2914 12.0208M14.329 12.4311C14.4408 12.4209 14.5507 12.4049 14.6581 12.3846L14.329 12.4311ZM14.2914 12.0208C14.2914 12.0208 14.2914 12.0208 14.2914 12.0208M14.2914 12.0208L14.2834 11.9332M14.2914 12.0208C14.1167 12.0271 13.953 12.015 13.8027 11.9788L13.8024 11.9788C13.7912 11.9761 13.7801 11.9732 13.7691 11.9702M14.2914 12.0208L14.2834 11.9332M14.2914 12.0208C14.3924 12.0173 14.4971 12.0076 14.6049 11.9929L14.2834 11.9332M14.2834 11.9332L13.4141 11.8016C13.4317 11.8107 13.4496 11.8192 13.4678 11.8273C13.5511 11.8894 13.6522 11.9383 13.7691 11.9702M13.7691 11.9702L13.7778 11.9192L13.7691 11.9702M13.7691 11.9702C13.7691 11.9702 13.7691 11.9702 13.7691 11.9702M13.7691 11.9702L13.6941 12.4121L13.7691 11.9702" fill="#F26222" stroke="#F26222"/>
<mask id="path-12-inside-5_1515_97365" fill="white">
<path fill-rule="evenodd" clip-rule="evenodd" d="M13.1641 11.2767C13.1641 11.2767 14.127 12.1155 15.7801 11.2168C15.5958 11.4264 13.5375 12.3851 13.1641 11.2767Z"/>
</mask>
<path fill-rule="evenodd" clip-rule="evenodd" d="M13.1641 11.2767C13.1641 11.2767 14.127 12.1155 15.7801 11.2168C15.5958 11.4264 13.5375 12.3851 13.1641 11.2767Z" fill="#F26222"/>
<path d="M13.1641 11.2767L13.8209 10.5227L11.0378 8.0983L12.2164 11.5961L13.1641 11.2767ZM15.7801 11.2168L16.5311 11.8771L15.3025 10.3382L15.7801 11.2168ZM13.1641 11.2767C12.5072 12.0308 12.5077 12.0312 12.5083 12.0317C12.5084 12.0318 12.509 12.0323 12.5093 12.0326C12.51 12.0332 12.5107 12.0338 12.5115 12.0345C12.513 12.0358 12.5146 12.0371 12.5162 12.0385C12.5195 12.0413 12.523 12.0443 12.5268 12.0475C12.5345 12.0538 12.5433 12.061 12.5532 12.0689C12.573 12.0846 12.5974 12.1032 12.6262 12.1239C12.6838 12.1652 12.7599 12.2152 12.8542 12.2676C13.0425 12.3724 13.3061 12.4884 13.6395 12.5609C14.3283 12.7108 15.2267 12.6559 16.2577 12.0954L15.3025 10.3382C14.6804 10.6764 14.2707 10.6515 14.0648 10.6067C13.9508 10.5818 13.8704 10.5443 13.8265 10.5199C13.8046 10.5077 13.7926 10.4993 13.7911 10.4982C13.7904 10.4977 13.7925 10.4991 13.7974 10.503C13.7998 10.5049 13.803 10.5075 13.8069 10.5108C13.8089 10.5124 13.811 10.5142 13.8133 10.5162C13.8145 10.5172 13.8157 10.5182 13.817 10.5193C13.8176 10.5198 13.8183 10.5204 13.8189 10.521C13.8192 10.5213 13.8197 10.5217 13.8199 10.5218C13.8204 10.5223 13.8209 10.5227 13.1641 11.2767ZM15.0291 10.5565C15.0651 10.5155 15.0956 10.4887 15.1092 10.4771C15.1247 10.4639 15.1356 10.456 15.139 10.4535C15.1453 10.449 15.1407 10.4527 15.1214 10.4641C15.0834 10.4865 15.0192 10.5206 14.9327 10.5599C14.7575 10.6395 14.539 10.7184 14.3301 10.7639C14.104 10.8132 13.9815 10.803 13.9493 10.7949C13.9443 10.7936 13.9809 10.8022 14.0282 10.8428C14.08 10.8874 14.1046 10.9362 14.1117 10.9574L12.2164 11.5961C12.4353 12.2457 12.9369 12.602 13.4597 12.734C13.9242 12.8513 14.3978 12.7961 14.7559 12.7181C15.1313 12.6363 15.4853 12.5055 15.7596 12.381C15.8978 12.3182 16.0275 12.2517 16.1388 12.1859C16.2115 12.143 16.3917 12.0356 16.5311 11.8771L15.0291 10.5565Z" fill="#F26222" mask="url(#path-12-inside-5_1515_97365)"/>
</g>
<path d="M11.7281 21.6707H10.8808C10.8482 21.4897 10.7876 21.3304 10.6989 21.1928C10.6102 21.0552 10.5016 20.9384 10.373 20.8425C10.2445 20.7465 10.1006 20.6741 9.94125 20.6252C9.78374 20.5764 9.61628 20.5519 9.43887 20.5519C9.11843 20.5519 8.83149 20.6325 8.57803 20.7936C8.32639 20.9547 8.12725 21.191 7.98061 21.5024C7.83578 21.8138 7.76337 22.1939 7.76337 22.6429C7.76337 23.0955 7.83578 23.4775 7.98061 23.7889C8.12725 24.1003 8.3273 24.3356 8.58075 24.4949C8.8342 24.6542 9.11934 24.7339 9.43615 24.7339C9.61176 24.7339 9.77831 24.7104 9.93581 24.6633C10.0951 24.6144 10.2391 24.5429 10.3676 24.4488C10.4961 24.3546 10.6047 24.2397 10.6935 24.1039C10.784 23.9663 10.8464 23.8088 10.8808 23.6314L11.7281 23.6341C11.6828 23.9075 11.595 24.1591 11.4647 24.389C11.3361 24.6171 11.1705 24.8144 10.9677 24.981C10.7668 25.1457 10.5369 25.2734 10.278 25.3639C10.0191 25.4544 9.73667 25.4997 9.43072 25.4997C8.94916 25.4997 8.5201 25.3856 8.14354 25.1575C7.76699 24.9276 7.47008 24.599 7.25284 24.1718C7.0374 23.7445 6.92969 23.2349 6.92969 22.6429C6.92969 22.0491 7.03831 21.5395 7.25555 21.114C7.4728 20.6868 7.7697 20.3591 8.14626 20.131C8.52282 19.9011 8.95097 19.7861 9.43072 19.7861C9.72581 19.7861 10.001 19.8287 10.2563 19.9138C10.5133 19.997 10.7441 20.1201 10.9487 20.2831C11.1533 20.4442 11.3226 20.6415 11.4565 20.8751C11.5905 21.1068 11.681 21.372 11.7281 21.6707Z" fill="#F26222"/>
<path d="M13.4789 22.947V25.4236H12.667V19.8622H13.4681V21.9314H13.5197C13.6174 21.7069 13.7668 21.5286 13.9677 21.3965C14.1687 21.2643 14.4312 21.1982 14.7553 21.1982C15.0413 21.1982 15.2911 21.2571 15.5048 21.3747C15.7202 21.4924 15.8867 21.668 16.0044 21.9016C16.1239 22.1333 16.1836 22.4229 16.1836 22.7705V25.4236H15.3717V22.8683C15.3717 22.5623 15.2929 22.3252 15.1354 22.1568C14.9779 21.9866 14.7589 21.9016 14.4783 21.9016C14.2864 21.9016 14.1144 21.9423 13.9623 22.0238C13.8121 22.1052 13.6935 22.2247 13.6066 22.3822C13.5215 22.5379 13.4789 22.7262 13.4789 22.947Z" fill="#F26222"/>
<path d="M18.481 25.516C18.2167 25.516 17.9777 25.4671 17.7641 25.3693C17.5505 25.2698 17.3812 25.1258 17.2563 24.9376C17.1332 24.7493 17.0716 24.5185 17.0716 24.2451C17.0716 24.0097 17.1169 23.816 17.2074 23.664C17.2979 23.5119 17.4201 23.3915 17.574 23.3028C17.7279 23.2141 17.8999 23.1471 18.09 23.1018C18.2801 23.0566 18.4738 23.0222 18.6711 22.9986C18.9209 22.9697 19.1237 22.9461 19.2794 22.928C19.4351 22.9081 19.5482 22.8764 19.6188 22.833C19.6894 22.7895 19.7247 22.7189 19.7247 22.6212V22.6022C19.7247 22.365 19.6578 22.1813 19.5238 22.0509C19.3916 21.9206 19.1943 21.8554 18.9318 21.8554C18.6584 21.8554 18.443 21.916 18.2855 22.0373C18.1298 22.1568 18.0221 22.2899 17.9623 22.4365L17.1993 22.2627C17.2898 22.0093 17.4219 21.8047 17.5957 21.649C17.7713 21.4915 17.9732 21.3775 18.2013 21.3068C18.4294 21.2344 18.6693 21.1982 18.9209 21.1982C19.0875 21.1982 19.264 21.2181 19.4505 21.258C19.6387 21.296 19.8144 21.3666 19.9773 21.4698C20.142 21.573 20.2769 21.7205 20.3819 21.9124C20.4869 22.1025 20.5394 22.3496 20.5394 22.6538V25.4236H19.7465V24.8534H19.7139C19.6614 24.9584 19.5826 25.0616 19.4776 25.1629C19.3726 25.2643 19.2377 25.3485 19.073 25.4155C18.9083 25.4825 18.7109 25.516 18.481 25.516ZM18.6575 24.8642C18.882 24.8642 19.0739 24.8199 19.2332 24.7312C19.3943 24.6425 19.5165 24.5266 19.5998 24.3836C19.6849 24.2387 19.7275 24.084 19.7275 23.9192V23.3815C19.6985 23.4105 19.6424 23.4377 19.5591 23.463C19.4776 23.4865 19.3844 23.5074 19.2794 23.5255C19.1744 23.5418 19.0721 23.5571 18.9725 23.5716C18.873 23.5843 18.7897 23.5952 18.7227 23.6042C18.5652 23.6241 18.4213 23.6576 18.2909 23.7047C18.1624 23.7518 18.0592 23.8196 17.9813 23.9084C17.9053 23.9953 17.8673 24.1111 17.8673 24.2559C17.8673 24.4569 17.9415 24.609 18.09 24.7122C18.2384 24.8135 18.4276 24.8642 18.6575 24.8642Z" fill="#F26222"/>
<path d="M23.5679 21.2525V21.9043H21.2896V21.2525H23.5679ZM21.9006 20.2532H22.7125V24.1989C22.7125 24.3564 22.7361 24.475 22.7831 24.5547C22.8302 24.6325 22.8909 24.6859 22.9651 24.7149C23.0411 24.742 23.1235 24.7556 23.2122 24.7556C23.2774 24.7556 23.3344 24.7511 23.3833 24.742C23.4322 24.733 23.4702 24.7257 23.4973 24.7203L23.644 25.3911C23.5969 25.4092 23.5299 25.4273 23.443 25.4454C23.3561 25.4653 23.2475 25.4761 23.1172 25.478C22.9035 25.4816 22.7044 25.4436 22.5197 25.3639C22.3351 25.2842 22.1857 25.1611 22.0717 24.9946C21.9576 24.828 21.9006 24.6189 21.9006 24.3673V20.2532Z" fill="#F26222"/>
<circle cx="25.5" cy="25.5" r="3.5" fill="#76B51B" stroke="white"/>
</g>
<defs>
<clipPath id="clip0_1515_97365">
<rect width="30" height="30" fill="white" transform="translate(0.5 0.5)"/>
</clipPath>
<clipPath id="clip1_1515_97365">
<rect width="10.6667" height="10.6667" fill="white" transform="translate(9.85156 5.41113)"/>
</clipPath>
</defs>
</svg>
