<svg width="28" height="28" viewBox="0 0 28 28" fill="none" xmlns="http://www.w3.org/2000/svg">
<path d="M14.0014 24.8124C20.8233 24.8124 26.3543 19.6268 26.3543 13.2299C26.3543 6.8331 20.8233 1.64746 14.0014 1.64746C7.17947 1.64746 1.64844 6.8331 1.64844 13.2299C1.64844 16.1421 2.79572 18.8061 4.69035 20.8413C4.54057 22.5224 4.04645 24.3657 3.49983 25.7489C3.37785 26.0567 3.6141 26.4009 3.92138 26.3479C7.40491 25.7357 9.47557 24.7959 10.3758 24.3061C11.5584 24.6441 12.7774 24.8143 14.0014 24.8124Z" fill="white"/>
<path d="M7.95504 14.3617C7.79531 14.493 7.54091 14.589 7.13069 14.5897C7.26633 14.5587 7.39762 14.5076 7.51326 14.4262L7.51329 14.4263L7.51978 14.4215C7.78753 14.2265 7.88883 13.9349 7.88883 13.6491C7.88883 13.4135 7.81671 13.185 7.65429 13.002L7.84537 13.1155C7.97753 13.1941 8.04446 13.2702 8.07918 13.3332L8.08434 13.3425L8.08989 13.3516C8.14352 13.4398 8.18595 13.5736 8.18595 13.7809C8.18595 14.0658 8.09847 14.2381 7.95504 14.3617ZM7.79824 12.2877L7.21664 12.7298C7.15481 12.7108 7.09164 12.6968 7.02829 12.6866C7.19124 12.6596 7.35126 12.6077 7.4887 12.5132L7.4887 12.5132L7.49005 12.5122C7.7704 12.3181 7.86144 12.0158 7.86144 11.7426C7.86144 11.4661 7.7639 11.1874 7.51427 10.9943C7.39632 10.9003 7.26363 10.846 7.1382 10.8144C7.55972 10.8283 7.8146 10.9185 7.96071 11.027C8.08045 11.1203 8.17956 11.2831 8.17956 11.6239C8.17956 11.7679 8.1478 11.8771 8.09601 11.9657C8.02123 12.0849 7.9236 12.1924 7.79824 12.2877Z" fill="#F26222" stroke="#F26222"/>
<path d="M9.89957 14.2072C9.63681 13.9531 9.45312 13.5052 9.45312 12.7489C9.45312 11.9928 9.64627 11.5369 9.93455 11.2699L9.93455 11.2699L9.93648 11.2681C10.0919 11.1227 10.3102 11.0018 10.6081 10.921C10.4773 10.974 10.3565 11.0431 10.2491 11.1315L10.2491 11.1315L10.2469 11.1334C10.0867 11.2669 9.96798 11.434 9.88965 11.6244C9.80347 11.8254 9.76758 12.0402 9.76758 12.2593V12.7593H9.77397V13.2165C9.77397 13.6394 9.89993 14.0415 10.2267 14.3287C10.3378 14.4294 10.4641 14.5062 10.6007 14.5637C10.285 14.4862 10.0583 14.3608 9.89957 14.2072ZM9.89957 14.2072L9.55553 14.5629L9.89957 14.2072ZM12.5261 12.9497C12.4322 12.8672 12.3272 12.8119 12.2192 12.7759C12.5436 12.8101 12.7483 12.8929 12.8706 12.9873C13.0041 13.0931 13.1076 13.271 13.1076 13.6235C13.1076 13.9778 12.9855 14.1949 12.7589 14.3502C12.6446 14.4286 12.4974 14.4961 12.3118 14.547C12.34 14.5322 12.3673 14.5162 12.3937 14.4988C12.6941 14.303 12.8196 13.9941 12.8196 13.6745C12.8196 13.4333 12.7534 13.1678 12.5432 12.9653L12.5348 12.9573L12.5261 12.9497Z" fill="#F26222" stroke="#F26222"/>
<path d="M17.3552 14.3307C17.2003 14.4557 16.9634 14.5516 16.6061 14.5801C16.7321 14.5462 16.8543 14.492 16.9601 14.4067L16.9601 14.4068L16.9632 14.4043C17.2192 14.1947 17.2825 13.8907 17.2825 13.6429C17.2825 13.391 17.2188 13.0903 16.9737 12.8781L16.9649 12.8705L16.9557 12.8633C16.8486 12.779 16.7249 12.7261 16.598 12.6935H16.599C16.9676 12.6935 17.2114 12.7876 17.3811 12.9327C17.4566 13.0105 17.5165 13.1012 17.5608 13.2076C17.6012 13.3187 17.6271 13.4621 17.6271 13.6429C17.6271 13.9898 17.5204 14.1939 17.3552 14.3307ZM14.4861 12.1935V12.6445H14.2656V10.8125H14.4861V11.2688V12.1935Z" fill="#F26222" stroke="#F26222"/>
<path d="M20.0278 16.4267C19.9403 16.4036 19.8537 16.3807 19.7696 16.3585L20.674 15.5735L22.3658 16.0463C22.3689 16.0477 22.3722 16.0493 22.3758 16.051C22.4006 16.0626 22.4371 16.0808 22.4797 16.1051C22.5688 16.1558 22.6657 16.2224 22.7385 16.2974C22.8129 16.3739 22.8304 16.4255 22.8332 16.4498L22.8332 16.4501C22.8343 16.4599 22.8415 16.521 22.7435 16.6467C22.5916 16.7901 22.5115 16.8543 22.3849 16.8907C22.2448 16.9311 21.9822 16.9513 21.4558 16.8161C21.2574 16.7543 20.6105 16.5811 20.0278 16.4267Z" fill="#F26222" stroke="#F26222"/>
<path d="M8.19572 16.4825C8.25933 16.6137 8.33117 16.7396 8.412 16.859L8.41216 16.8593C8.81243 17.4513 9.44726 17.8504 10.1969 18.0305L10.1971 18.0305C10.9565 18.2134 11.7786 18.1945 12.6025 18.0827L8.19572 16.4825ZM8.19572 16.4825C8.25246 16.5487 8.31211 16.6124 8.37449 16.6736L8.37515 16.6743C8.60057 16.8945 8.86007 17.0781 9.13918 17.2204C9.48998 17.4002 9.86485 17.5134 10.2378 17.5768C10.7282 17.6606 11.2215 17.6621 11.6947 17.6188L8.19572 16.4825ZM19.6294 10.066C19.9474 10.3336 20.2218 10.7036 20.2741 11.1926L20.2742 11.1929C20.3593 11.9919 20.0519 12.7033 19.6461 13.2871C19.2409 13.8702 18.7051 14.3728 18.2535 14.7686L18.2437 14.7771L18.2436 14.777C18.2287 14.7894 18.2138 14.8024 18.194 14.8196L18.1926 14.8209C16.8356 15.9943 15.2443 16.7424 13.5495 17.2451L13.5494 17.2451C12.9557 17.4211 12.3335 17.5605 11.6948 17.6188L19.6294 10.066ZM19.6294 10.066C19.7235 10.0952 19.8146 10.1275 19.9022 10.163C20.4258 10.3749 20.7901 10.6849 20.9709 11.116C21.0664 11.4177 21.0909 11.7588 21.0615 12.1034L21.0615 12.1039C21.0064 12.7565 20.7433 13.3963 20.3466 13.9716L20.3464 13.9718C19.679 14.9411 18.6894 15.7096 17.6104 16.3466L17.6102 16.3467C16.7077 16.88 15.779 17.2931 14.7754 17.5938L14.7753 17.5939C14.0564 17.8094 13.3334 17.9835 12.6025 18.0827L19.6294 10.066ZM21.4438 10.9531L21.0695 11.0827L17.8646 16.7772C18.9737 16.1223 20.0326 15.3093 20.7583 14.2554C21.1928 13.6252 21.4958 12.9036 21.5597 12.1459C21.5935 11.7495 21.567 11.3355 21.4438 10.9531ZM21.4438 10.9531L21.1671 11.0423L21.4356 10.9312C21.4383 10.9382 21.441 10.9452 21.4438 10.9531ZM21.0685 11.0741L20.9679 11.1065C20.9685 11.1085 20.9692 11.1105 20.9698 11.1125L20.9696 11.1126L21.0685 11.0741Z" fill="#F26222" stroke="#F26222"/>
<mask id="path-7-inside-1_1387_86080" fill="white">
<path fill-rule="evenodd" clip-rule="evenodd" d="M8.71875 15.3985C8.71875 15.3985 11.2463 17.6004 15.5859 15.2412C15.1021 15.7914 9.69912 18.3079 8.71875 15.3985Z"/>
</mask>
<path fill-rule="evenodd" clip-rule="evenodd" d="M8.71875 15.3985C8.71875 15.3985 11.2463 17.6004 15.5859 15.2412C15.1021 15.7914 9.69912 18.3079 8.71875 15.3985Z" fill="#F26222"/>
<path d="M8.71875 15.3985L9.37559 14.6445L6.59248 12.2201L7.7711 15.7179L8.71875 15.3985ZM15.5859 15.2412L16.3369 15.9015L15.1083 14.3626L15.5859 15.2412ZM8.71875 15.3985C8.06191 16.1526 8.06243 16.153 8.06296 16.1535C8.06315 16.1537 8.06369 16.1541 8.06407 16.1544C8.06483 16.1551 8.06563 16.1558 8.06647 16.1565C8.06816 16.158 8.07001 16.1596 8.07203 16.1613C8.07606 16.1647 8.08075 16.1687 8.0861 16.1731C8.09681 16.1821 8.11015 16.193 8.12612 16.2057C8.15803 16.231 8.20051 16.2635 8.25337 16.3014C8.359 16.3771 8.50676 16.4747 8.69532 16.5796C9.07228 16.7893 9.61549 17.03 10.3123 17.1817C11.7281 17.4898 13.6893 17.4105 16.0635 16.1198L15.1083 14.3626C13.143 15.4311 11.6706 15.4305 10.7376 15.2274C10.2601 15.1235 9.90024 14.9613 9.66767 14.8319C9.55146 14.7672 9.46785 14.7112 9.4183 14.6757C9.39357 14.658 9.3775 14.6455 9.37028 14.6397C9.36667 14.6369 9.36529 14.6357 9.36616 14.6364C9.3666 14.6368 9.3676 14.6376 9.36917 14.639C9.36996 14.6396 9.37088 14.6404 9.37195 14.6414C9.37249 14.6418 9.37306 14.6423 9.37367 14.6428C9.37397 14.6431 9.37445 14.6435 9.3746 14.6437C9.37509 14.6441 9.37559 14.6445 8.71875 15.3985ZM14.8349 14.5809C14.8908 14.5173 14.8813 14.5474 14.6834 14.6643C14.5241 14.7585 14.3023 14.8743 14.0332 14.9965C13.4929 15.2419 12.8093 15.4912 12.1256 15.6402C11.4248 15.7929 10.8179 15.8192 10.3821 15.7092C10.0045 15.6138 9.78594 15.434 9.6664 15.0792L7.7711 15.7179C8.14175 16.8178 8.96617 17.4144 9.89249 17.6483C10.7606 17.8675 11.7185 17.7758 12.5515 17.5943C13.4016 17.4091 14.2207 17.1079 14.8601 16.8176C15.1809 16.6719 15.4682 16.5237 15.7008 16.3862C15.8948 16.2716 16.1601 16.1026 16.3369 15.9015L14.8349 14.5809Z" fill="#F26222" mask="url(#path-7-inside-1_1387_86080)"/>
<circle r="4.5" transform="matrix(1 0 0 -1 23 5)" fill="white" stroke="#F26222"/>
</svg>
