<svg width="65" height="13" viewBox="0 0 65 13" fill="none" xmlns="http://www.w3.org/2000/svg">
<path d="M7.60938 8.72656H9.94531C9.89844 9.49219 9.6875 10.1719 9.3125 10.7656C8.94271 11.3594 8.42448 11.8229 7.75781 12.1562C7.09635 12.4896 6.29948 12.6562 5.36719 12.6562C4.63802 12.6562 3.98438 12.5312 3.40625 12.2812C2.82812 12.026 2.33333 11.6615 1.92188 11.1875C1.51562 10.7135 1.20573 10.1406 0.992188 9.46875C0.778646 8.79688 0.671875 8.04427 0.671875 7.21094V6.42188C0.671875 5.58854 0.78125 4.83594 1 4.16406C1.22396 3.48698 1.54167 2.91146 1.95312 2.4375C2.36979 1.96354 2.86719 1.59896 3.44531 1.34375C4.02344 1.08854 4.66927 0.960938 5.38281 0.960938C6.33073 0.960938 7.13021 1.13281 7.78125 1.47656C8.4375 1.82031 8.94531 2.29427 9.30469 2.89844C9.66927 3.5026 9.88802 4.1901 9.96094 4.96094H7.61719C7.59115 4.5026 7.5 4.11458 7.34375 3.79688C7.1875 3.47396 6.95052 3.23177 6.63281 3.07031C6.32031 2.90365 5.90365 2.82031 5.38281 2.82031C4.99219 2.82031 4.65104 2.89323 4.35938 3.03906C4.06771 3.1849 3.82292 3.40625 3.625 3.70312C3.42708 4 3.27865 4.375 3.17969 4.82812C3.08594 5.27604 3.03906 5.80208 3.03906 6.40625V7.21094C3.03906 7.79948 3.08333 8.31771 3.17188 8.76562C3.26042 9.20833 3.39583 9.58333 3.57812 9.89062C3.76562 10.1927 4.00521 10.4219 4.29688 10.5781C4.59375 10.7292 4.95052 10.8047 5.36719 10.8047C5.85677 10.8047 6.26042 10.7266 6.57812 10.5703C6.89583 10.4141 7.13802 10.1823 7.30469 9.875C7.47656 9.56771 7.57812 9.1849 7.60938 8.72656ZM13.5391 0.5V12.5H11.2891V0.5H13.5391ZM13.2188 7.97656H12.6016C12.6068 7.38802 12.6849 6.84635 12.8359 6.35156C12.987 5.85156 13.2031 5.41927 13.4844 5.05469C13.7656 4.6849 14.1016 4.39844 14.4922 4.19531C14.888 3.99219 15.3255 3.89062 15.8047 3.89062C16.2214 3.89062 16.599 3.95052 16.9375 4.07031C17.2812 4.1849 17.5755 4.3724 17.8203 4.63281C18.0703 4.88802 18.263 5.22396 18.3984 5.64062C18.5339 6.05729 18.6016 6.5625 18.6016 7.15625V12.5H16.3359V7.14062C16.3359 6.76562 16.2812 6.47135 16.1719 6.25781C16.0677 6.03906 15.9141 5.88542 15.7109 5.79688C15.513 5.70312 15.2682 5.65625 14.9766 5.65625C14.6536 5.65625 14.3776 5.71615 14.1484 5.83594C13.9245 5.95573 13.7448 6.1224 13.6094 6.33594C13.474 6.54427 13.375 6.78906 13.3125 7.07031C13.25 7.35156 13.2188 7.65365 13.2188 7.97656ZM24.875 10.5938V6.82812C24.875 6.55729 24.8307 6.32552 24.7422 6.13281C24.6536 5.9349 24.5156 5.78125 24.3281 5.67188C24.1458 5.5625 23.9089 5.50781 23.6172 5.50781C23.3672 5.50781 23.151 5.55208 22.9688 5.64062C22.7865 5.72396 22.6458 5.84635 22.5469 6.00781C22.4479 6.16406 22.3984 6.34896 22.3984 6.5625H20.1484C20.1484 6.20312 20.2318 5.86198 20.3984 5.53906C20.5651 5.21615 20.8073 4.93229 21.125 4.6875C21.4427 4.4375 21.8203 4.24219 22.2578 4.10156C22.7005 3.96094 23.1953 3.89062 23.7422 3.89062C24.3984 3.89062 24.9818 4 25.4922 4.21875C26.0026 4.4375 26.4036 4.76562 26.6953 5.20312C26.9922 5.64062 27.1406 6.1875 27.1406 6.84375V10.4609C27.1406 10.9245 27.1693 11.3047 27.2266 11.6016C27.2839 11.8932 27.3672 12.1484 27.4766 12.3672V12.5H25.2031C25.0938 12.2708 25.0104 11.9844 24.9531 11.6406C24.901 11.2917 24.875 10.9427 24.875 10.5938ZM25.1719 7.35156L25.1875 8.625H23.9297C23.6328 8.625 23.375 8.65885 23.1562 8.72656C22.9375 8.79427 22.7578 8.89062 22.6172 9.01562C22.4766 9.13542 22.3724 9.27604 22.3047 9.4375C22.2422 9.59896 22.2109 9.77604 22.2109 9.96875C22.2109 10.1615 22.2552 10.3359 22.3438 10.4922C22.4323 10.6432 22.5599 10.763 22.7266 10.8516C22.8932 10.9349 23.0885 10.9766 23.3125 10.9766C23.651 10.9766 23.9453 10.9089 24.1953 10.7734C24.4453 10.638 24.638 10.4714 24.7734 10.2734C24.9141 10.0755 24.987 9.88802 24.9922 9.71094L25.5859 10.6641C25.5026 10.8776 25.388 11.099 25.2422 11.3281C25.1016 11.5573 24.9219 11.7734 24.7031 11.9766C24.4844 12.1745 24.2214 12.3385 23.9141 12.4688C23.6068 12.5938 23.2422 12.6562 22.8203 12.6562C22.2839 12.6562 21.7969 12.5495 21.3594 12.3359C20.9271 12.1172 20.5833 11.8177 20.3281 11.4375C20.0781 11.0521 19.9531 10.6146 19.9531 10.125C19.9531 9.68229 20.0365 9.28906 20.2031 8.94531C20.3698 8.60156 20.6146 8.3125 20.9375 8.07812C21.2656 7.83854 21.6745 7.65885 22.1641 7.53906C22.6536 7.41406 23.2214 7.35156 23.8672 7.35156H25.1719ZM33.0156 4.04688V5.64062H28.0938V4.04688H33.0156ZM29.3125 1.96094H31.5625V9.95312C31.5625 10.1979 31.5938 10.3854 31.6562 10.5156C31.724 10.6458 31.8229 10.737 31.9531 10.7891C32.0833 10.8359 32.2474 10.8594 32.4453 10.8594C32.5859 10.8594 32.7109 10.8542 32.8203 10.8438C32.9349 10.8281 33.0312 10.8125 33.1094 10.7969L33.1172 12.4531C32.9245 12.5156 32.7161 12.5651 32.4922 12.6016C32.2682 12.638 32.0208 12.6562 31.75 12.6562C31.2552 12.6562 30.8229 12.5755 30.4531 12.4141C30.0885 12.2474 29.8073 11.9818 29.6094 11.6172C29.4115 11.2526 29.3125 10.7734 29.3125 10.1797V1.96094ZM40.4922 5.83594H41.6953C42.0807 5.83594 42.3984 5.77083 42.6484 5.64062C42.8984 5.50521 43.0833 5.31771 43.2031 5.07812C43.3281 4.83333 43.3906 4.54948 43.3906 4.22656C43.3906 3.9349 43.3333 3.67708 43.2188 3.45312C43.1094 3.22396 42.9401 3.04688 42.7109 2.92188C42.4818 2.79167 42.1927 2.72656 41.8438 2.72656C41.5677 2.72656 41.3125 2.78125 41.0781 2.89062C40.8438 3 40.6562 3.15365 40.5156 3.35156C40.375 3.54948 40.3047 3.78906 40.3047 4.07031H38.0469C38.0469 3.44531 38.2135 2.90104 38.5469 2.4375C38.8854 1.97396 39.3385 1.61198 39.9062 1.35156C40.474 1.09115 41.099 0.960938 41.7812 0.960938C42.5521 0.960938 43.2266 1.08594 43.8047 1.33594C44.3828 1.58073 44.8333 1.94271 45.1562 2.42188C45.4792 2.90104 45.6406 3.49479 45.6406 4.20312C45.6406 4.5625 45.5573 4.91146 45.3906 5.25C45.224 5.58333 44.9844 5.88542 44.6719 6.15625C44.3646 6.42188 43.9896 6.63542 43.5469 6.79688C43.1042 6.95312 42.6068 7.03125 42.0547 7.03125H40.4922V5.83594ZM40.4922 7.54688V6.38281H42.0547C42.6745 6.38281 43.2188 6.45312 43.6875 6.59375C44.1562 6.73438 44.5495 6.9375 44.8672 7.20312C45.1849 7.46354 45.4245 7.77344 45.5859 8.13281C45.7474 8.48698 45.8281 8.88021 45.8281 9.3125C45.8281 9.84375 45.7266 10.3177 45.5234 10.7344C45.3203 11.1458 45.0339 11.4948 44.6641 11.7812C44.2995 12.0677 43.8724 12.2865 43.3828 12.4375C42.8932 12.5833 42.3594 12.6562 41.7812 12.6562C41.3021 12.6562 40.8307 12.5911 40.3672 12.4609C39.9089 12.3255 39.4922 12.125 39.1172 11.8594C38.7474 11.5885 38.4505 11.25 38.2266 10.8438C38.0078 10.4323 37.8984 9.94531 37.8984 9.38281H40.1562C40.1562 9.67448 40.2292 9.9349 40.375 10.1641C40.5208 10.3932 40.7214 10.5729 40.9766 10.7031C41.237 10.8333 41.526 10.8984 41.8438 10.8984C42.2031 10.8984 42.5104 10.8333 42.7656 10.7031C43.026 10.5677 43.224 10.3802 43.3594 10.1406C43.5 9.89583 43.5703 9.61198 43.5703 9.28906C43.5703 8.8724 43.4948 8.53906 43.3438 8.28906C43.1927 8.03385 42.9766 7.84635 42.6953 7.72656C42.4141 7.60677 42.0807 7.54688 41.6953 7.54688H40.4922ZM53.1797 1.00781H53.5078V2.80469H53.375C52.7812 2.80469 52.2526 2.89323 51.7891 3.07031C51.3255 3.2474 50.9323 3.5 50.6094 3.82812C50.2917 4.15104 50.0469 4.54167 49.875 5C49.7083 5.45833 49.625 5.97135 49.625 6.53906V8.42969C49.625 8.83594 49.6641 9.19531 49.7422 9.50781C49.8255 9.8151 49.9427 10.0729 50.0938 10.2812C50.25 10.4844 50.4323 10.638 50.6406 10.7422C50.849 10.8411 51.0833 10.8906 51.3438 10.8906C51.5885 10.8906 51.8099 10.8385 52.0078 10.7344C52.2109 10.6302 52.3828 10.4844 52.5234 10.2969C52.6693 10.1042 52.7786 9.88021 52.8516 9.625C52.9297 9.36458 52.9688 9.08073 52.9688 8.77344C52.9688 8.46615 52.9297 8.18229 52.8516 7.92188C52.7786 7.66146 52.6693 7.4375 52.5234 7.25C52.3776 7.05729 52.2005 6.90885 51.9922 6.80469C51.7839 6.70052 51.5495 6.64844 51.2891 6.64844C50.9349 6.64844 50.6224 6.73177 50.3516 6.89844C50.0859 7.0599 49.8776 7.26823 49.7266 7.52344C49.5755 7.77865 49.4948 8.04688 49.4844 8.32812L48.8047 7.89062C48.8203 7.48958 48.9036 7.10938 49.0547 6.75C49.2109 6.39062 49.4245 6.07292 49.6953 5.79688C49.9714 5.51562 50.3021 5.29688 50.6875 5.14062C51.0729 4.97917 51.5078 4.89844 51.9922 4.89844C52.5234 4.89844 52.9896 5 53.3906 5.20312C53.7969 5.40625 54.1354 5.6849 54.4062 6.03906C54.6771 6.39323 54.8802 6.80208 55.0156 7.26562C55.151 7.72917 55.2188 8.22396 55.2188 8.75C55.2188 9.30208 55.1276 9.8151 54.9453 10.2891C54.7682 10.763 54.5104 11.1771 54.1719 11.5312C53.8385 11.8854 53.4375 12.1615 52.9688 12.3594C52.5 12.5573 51.974 12.6562 51.3906 12.6562C50.7865 12.6562 50.237 12.5469 49.7422 12.3281C49.2526 12.1042 48.8307 11.7917 48.4766 11.3906C48.1224 10.9896 47.849 10.513 47.6562 9.96094C47.4688 9.40885 47.375 8.80469 47.375 8.14844V7.27344C47.375 6.35677 47.5078 5.51823 47.7734 4.75781C48.0443 3.99219 48.4323 3.33073 48.9375 2.77344C49.4427 2.21094 50.0521 1.77604 50.7656 1.46875C51.4792 1.16146 52.2839 1.00781 53.1797 1.00781ZM58.6797 7.32031L56.8828 6.89062L57.5312 1.125H63.9219V2.94531H59.3828L59.1016 5.46875C59.2526 5.38021 59.4818 5.28646 59.7891 5.1875C60.0964 5.08333 60.4401 5.03125 60.8203 5.03125C61.3724 5.03125 61.862 5.11719 62.2891 5.28906C62.7161 5.46094 63.0781 5.71094 63.375 6.03906C63.6771 6.36719 63.9062 6.76823 64.0625 7.24219C64.2188 7.71615 64.2969 8.2526 64.2969 8.85156C64.2969 9.35677 64.2188 9.83854 64.0625 10.2969C63.9062 10.75 63.6693 11.1562 63.3516 11.5156C63.0339 11.8698 62.6354 12.1484 62.1562 12.3516C61.6771 12.5547 61.1094 12.6562 60.4531 12.6562C59.9635 12.6562 59.4896 12.5833 59.0312 12.4375C58.5781 12.2917 58.1693 12.0755 57.8047 11.7891C57.4453 11.5026 57.1562 11.1562 56.9375 10.75C56.724 10.3385 56.612 9.86979 56.6016 9.34375H58.8359C58.8672 9.66667 58.9505 9.94531 59.0859 10.1797C59.2266 10.4089 59.4115 10.5859 59.6406 10.7109C59.8698 10.8359 60.138 10.8984 60.4453 10.8984C60.7318 10.8984 60.9766 10.8438 61.1797 10.7344C61.3828 10.625 61.5469 10.474 61.6719 10.2812C61.7969 10.0833 61.888 9.85417 61.9453 9.59375C62.0078 9.32812 62.0391 9.04167 62.0391 8.73438C62.0391 8.42708 62.0026 8.14844 61.9297 7.89844C61.8568 7.64844 61.7448 7.43229 61.5938 7.25C61.4427 7.06771 61.25 6.92708 61.0156 6.82812C60.7865 6.72917 60.5182 6.67969 60.2109 6.67969C59.7943 6.67969 59.4714 6.74479 59.2422 6.875C59.0182 7.00521 58.8307 7.15365 58.6797 7.32031Z" fill="url(#paint0_linear_1445_79696)"/>
<defs>
<linearGradient id="paint0_linear_1445_79696" x1="32.5" y1="-2.5" x2="32.5" y2="16.5" gradientUnits="userSpaceOnUse">
<stop stop-color="#4250C2"/>
<stop offset="1" stop-color="#069AFA"/>
</linearGradient>
</defs>
</svg>
