<svg width="16" height="16" viewBox="0 0 16 16" fill="none" xmlns="http://www.w3.org/2000/svg">
<path d="M8.00368 14.9503C12.3892 14.9503 15.9449 11.6167 15.9449 7.50447C15.9449 3.39222 12.3892 0.0585938 8.00368 0.0585938C3.61816 0.0585938 0.0625 3.39222 0.0625 7.50447C0.0625 9.37657 0.800037 11.0891 2.01801 12.3975C1.92173 13.4782 1.60408 14.6631 1.25268 15.5524C1.17426 15.7502 1.32614 15.9715 1.52368 15.9375C3.76309 15.5439 5.09423 14.9397 5.67294 14.6249C6.43322 14.8421 7.21682 14.9516 8.00368 14.9503Z" fill="#666666"/>
<mask id="path-2-inside-1_1502_84322" fill="white">
<path d="M4.5855 7.8586C4.5855 8.12191 4.49806 8.32816 4.3226 8.4779C4.14421 8.62594 3.89775 8.69996 3.58263 8.69996H2V8.08462H3.31094C3.46468 8.08462 3.57677 8.05976 3.6466 8.0106C3.71643 7.95974 3.75164 7.8812 3.75164 7.77384C3.75164 7.67496 3.71819 7.59755 3.65129 7.54161C3.58146 7.48793 3.46821 7.46137 3.31153 7.46137L2.24177 7.46532V6.85055H3.29157C3.45001 6.85055 3.56386 6.82682 3.63369 6.77879C3.70058 6.73245 3.73403 6.65561 3.73403 6.54825C3.73403 6.44654 3.70058 6.37082 3.63369 6.31996C3.59965 6.29228 3.55447 6.2725 3.49872 6.26007C3.44004 6.24933 3.37138 6.24368 3.29157 6.24368H2V5.62891H3.51632C3.86724 5.62891 4.13306 5.69671 4.3138 5.83232C4.49219 5.96963 4.58139 6.18266 4.58139 6.47196C4.58139 6.61718 4.54794 6.74601 4.48104 6.85846C4.41121 6.9709 4.32084 7.06979 4.20935 7.15455C4.33199 7.22744 4.42119 7.31446 4.47694 7.4156C4.54911 7.53426 4.5855 7.68174 4.5855 7.8586Z"/>
</mask>
<path d="M4.5855 7.8586C4.5855 8.12191 4.49806 8.32816 4.3226 8.4779C4.14421 8.62594 3.89775 8.69996 3.58263 8.69996H2V8.08462H3.31094C3.46468 8.08462 3.57677 8.05976 3.6466 8.0106C3.71643 7.95974 3.75164 7.8812 3.75164 7.77384C3.75164 7.67496 3.71819 7.59755 3.65129 7.54161C3.58146 7.48793 3.46821 7.46137 3.31153 7.46137L2.24177 7.46532V6.85055H3.29157C3.45001 6.85055 3.56386 6.82682 3.63369 6.77879C3.70058 6.73245 3.73403 6.65561 3.73403 6.54825C3.73403 6.44654 3.70058 6.37082 3.63369 6.31996C3.59965 6.29228 3.55447 6.2725 3.49872 6.26007C3.44004 6.24933 3.37138 6.24368 3.29157 6.24368H2V5.62891H3.51632C3.86724 5.62891 4.13306 5.69671 4.3138 5.83232C4.49219 5.96963 4.58139 6.18266 4.58139 6.47196C4.58139 6.61718 4.54794 6.74601 4.48104 6.85846C4.41121 6.9709 4.32084 7.06979 4.20935 7.15455C4.33199 7.22744 4.42119 7.31446 4.47694 7.4156C4.54911 7.53426 4.5855 7.68174 4.5855 7.8586Z" fill="white"/>
<path d="M4.3226 8.4779L4.96128 9.2475L4.97176 9.23855L4.3226 8.4779ZM2 8.69996H1V9.69996H2V8.69996ZM2 8.08462V7.08462H1V8.08462H2ZM3.6466 8.0106L4.22224 8.8283L4.2288 8.82368L4.23529 8.81896L3.6466 8.0106ZM3.65129 7.54161L4.29278 6.77447L4.27703 6.7613L4.26074 6.74878L3.65129 7.54161ZM3.31153 7.46137V6.46136L3.30783 6.46138L3.31153 7.46137ZM2.24177 7.46532H1.24177V8.46903L2.24546 8.46532L2.24177 7.46532ZM2.24177 6.85055V5.85055H1.24177V6.85055H2.24177ZM3.63369 6.77879L4.20038 7.60272L4.20307 7.60086L3.63369 6.77879ZM3.63369 6.31996L3.00263 7.0957L3.0154 7.10609L3.0285 7.11605L3.63369 6.31996ZM3.49872 6.26007L3.71637 5.28404L3.6976 5.27986L3.67869 5.2764L3.49872 6.26007ZM2 6.24368H1V7.24368H2V6.24368ZM2 5.62891V4.62891H1V5.62891H2ZM4.3138 5.83232L4.92379 5.03982L4.91397 5.03245L4.3138 5.83232ZM4.48104 6.85846L5.33056 7.38602L5.33558 7.37793L5.34045 7.36974L4.48104 6.85846ZM4.20935 7.15455L3.60417 6.35846L2.42318 7.25625L3.69844 8.01418L4.20935 7.15455ZM4.47694 7.4156L3.60115 7.8983L3.61147 7.91702L3.62258 7.93528L4.47694 7.4156ZM3.5855 7.8586C3.5855 7.8793 3.58227 7.86033 3.5993 7.8202C3.61783 7.77654 3.64673 7.74004 3.67345 7.71724L4.97176 9.23855C5.40312 8.87042 5.5855 8.36782 5.5855 7.8586H3.5855ZM3.68399 7.70837C3.70882 7.68776 3.72538 7.68397 3.7164 7.68666C3.70446 7.69025 3.66372 7.69996 3.58263 7.69996V9.69996C4.04754 9.69996 4.54819 9.59019 4.96122 9.24742L3.68399 7.70837ZM3.58263 7.69996H2V9.69996H3.58263V7.69996ZM3 8.69996V8.08462H1V8.69996H3ZM2 9.08462H3.31094V7.08462H2V9.08462ZM3.31094 9.08462C3.52838 9.08462 3.89627 9.05778 4.22224 8.8283L3.07095 7.1929C3.17436 7.1201 3.26269 7.09662 3.29458 7.08958C3.32847 7.08209 3.3378 7.08462 3.31094 7.08462V9.08462ZM4.23529 8.81896C4.62336 8.53634 4.75164 8.11894 4.75164 7.77384H2.75164C2.75164 7.71995 2.76038 7.62217 2.81162 7.50699C2.86591 7.38493 2.95231 7.27914 3.0579 7.20224L4.23529 8.81896ZM4.75164 7.77384C4.75164 7.42328 4.61896 7.04723 4.29278 6.77447L3.0098 8.30874C2.92764 8.24003 2.85596 8.14792 2.80858 8.03826C2.76267 7.93202 2.75164 7.83757 2.75164 7.77384H4.75164ZM4.26074 6.74878C3.92411 6.49001 3.53427 6.46137 3.31153 6.46137V8.46137C3.33775 8.46137 3.32416 8.46402 3.28453 8.45468C3.24583 8.44556 3.1496 8.41727 3.04184 8.33443L4.26074 6.74878ZM3.30783 6.46138L2.23807 6.46533L2.24546 8.46532L3.31522 8.46136L3.30783 6.46138ZM3.24177 7.46532V6.85055H1.24177V7.46532H3.24177ZM2.24177 7.85055H3.29157V5.85055H2.24177V7.85055ZM3.29157 7.85055C3.50005 7.85055 3.87156 7.82888 4.20038 7.60271L3.06699 5.95486C3.17401 5.88125 3.26391 5.85956 3.29087 5.85391C3.32072 5.84766 3.3251 5.85055 3.29157 5.85055V7.85055ZM4.20307 7.60086C4.62255 7.31032 4.73403 6.86796 4.73403 6.54825H2.73403C2.73403 6.50167 2.74088 6.40484 2.79203 6.28731C2.84722 6.16053 2.94007 6.04276 3.0643 5.95672L4.20307 7.60086ZM4.73403 6.54825C4.73403 6.20535 4.60626 5.80317 4.23887 5.52388L3.0285 7.11605C2.9292 7.04056 2.84643 6.93775 2.79367 6.81786C2.74352 6.70391 2.73403 6.60588 2.73403 6.54825H4.73403ZM4.26475 5.54423C4.0761 5.39076 3.87369 5.31912 3.71637 5.28404L3.28107 7.2361C3.23524 7.22588 3.12321 7.19379 3.00263 7.0957L4.26475 5.54423ZM3.67869 5.2764C3.54732 5.25236 3.4165 5.24368 3.29157 5.24368V7.24368C3.30811 7.24368 3.31846 7.24428 3.32342 7.24467C3.32844 7.24507 3.3265 7.24516 3.31875 7.24374L3.67869 5.2764ZM3.29157 5.24368H2V7.24368H3.29157V5.24368ZM3 6.24368V5.62891H1V6.24368H3ZM2 6.62891H3.51632V4.62891H2V6.62891ZM3.51632 6.62891C3.63034 6.62891 3.69837 6.64023 3.73172 6.64873C3.76362 6.65687 3.74862 6.65845 3.71364 6.6322L4.91397 5.03245C4.48787 4.71274 3.97147 4.62891 3.51632 4.62891V6.62891ZM3.70386 6.62477C3.6805 6.60679 3.65702 6.58381 3.63611 6.55643C3.61529 6.52917 3.60109 6.50287 3.59199 6.48115C3.57431 6.43889 3.58139 6.42762 3.58139 6.47196H5.58139C5.58139 5.96868 5.41554 5.41841 4.92375 5.03988L3.70386 6.62477ZM3.58139 6.47196C3.58139 6.46742 3.58197 6.45093 3.58839 6.4262C3.59497 6.40087 3.60599 6.37346 3.62163 6.34717L5.34045 7.36974C5.50923 7.08605 5.58139 6.77684 5.58139 6.47196H3.58139ZM3.63153 6.33089C3.62869 6.33547 3.62254 6.34449 3.60417 6.35846L4.81453 7.95063C5.01915 7.79508 5.19374 7.60634 5.33056 7.38602L3.63153 6.33089ZM3.69844 8.01418C3.70385 8.01739 3.64939 7.98583 3.60115 7.8983L5.35272 6.9329C5.19299 6.64308 4.96014 6.43748 4.72026 6.29491L3.69844 8.01418ZM3.62258 7.93528C3.57745 7.86109 3.5855 7.81739 3.5855 7.8586H5.5855C5.5855 7.54609 5.52078 7.20743 5.3313 6.89592L3.62258 7.93528Z" fill="white" mask="url(#path-2-inside-1_1502_84322)"/>
<mask id="path-4-inside-2_1502_84322" fill="white">
<path d="M7.74997 7.75705C7.74997 8.07912 7.6285 8.32323 7.38615 8.48935C7.14379 8.65548 6.79464 8.73798 6.3381 8.73798C5.7994 8.73798 5.40096 8.6131 5.14276 8.36335C4.88632 8.11529 4.75781 7.72597 4.75781 7.19482C4.75781 6.65858 4.89513 6.26305 5.17034 6.00821C5.44145 5.7545 5.86395 5.62793 6.43844 5.62793H7.58449L7.58214 6.24271H6.42201C6.13389 6.24271 5.92498 6.29639 5.7953 6.40318C5.73427 6.45404 5.68791 6.51845 5.65622 6.59643C5.62043 6.67893 5.60282 6.77329 5.60282 6.88008H6.63796C7.01117 6.88008 7.28991 6.95185 7.47417 7.0948C7.65784 7.23946 7.74997 7.45983 7.74997 7.75705ZM6.92198 7.78982C6.92198 7.69093 6.89557 7.61635 6.84276 7.56549C6.78994 7.51916 6.70955 7.49543 6.60099 7.49543H5.60693C5.60693 7.70506 5.66796 7.86384 5.7906 7.97063C5.91031 8.08025 6.1022 8.13506 6.36568 8.13506C6.56696 8.13506 6.70896 8.10681 6.79347 8.05087C6.87973 7.99493 6.92198 7.90791 6.92198 7.78982Z"/>
</mask>
<path d="M7.74997 7.75705C7.74997 8.07912 7.6285 8.32323 7.38615 8.48935C7.14379 8.65548 6.79464 8.73798 6.3381 8.73798C5.7994 8.73798 5.40096 8.6131 5.14276 8.36335C4.88632 8.11529 4.75781 7.72597 4.75781 7.19482C4.75781 6.65858 4.89513 6.26305 5.17034 6.00821C5.44145 5.7545 5.86395 5.62793 6.43844 5.62793H7.58449L7.58214 6.24271H6.42201C6.13389 6.24271 5.92498 6.29639 5.7953 6.40318C5.73427 6.45404 5.68791 6.51845 5.65622 6.59643C5.62043 6.67893 5.60282 6.77329 5.60282 6.88008H6.63796C7.01117 6.88008 7.28991 6.95185 7.47417 7.0948C7.65784 7.23946 7.74997 7.45983 7.74997 7.75705ZM6.92198 7.78982C6.92198 7.69093 6.89557 7.61635 6.84276 7.56549C6.78994 7.51916 6.70955 7.49543 6.60099 7.49543H5.60693C5.60693 7.70506 5.66796 7.86384 5.7906 7.97063C5.91031 8.08025 6.1022 8.13506 6.36568 8.13506C6.56696 8.13506 6.70896 8.10681 6.79347 8.05087C6.87973 7.99493 6.92198 7.90791 6.92198 7.78982Z" fill="white"/>
<path d="M5.14276 8.36335L4.4475 9.0821L4.44751 9.08211L5.14276 8.36335ZM5.17034 6.00821L5.84977 6.74197L5.85363 6.73836L5.17034 6.00821ZM7.58449 5.62793L8.58448 5.63175L8.58831 4.62793H7.58449V5.62793ZM7.58214 6.24271V7.24271H8.57833L8.58213 6.24652L7.58214 6.24271ZM5.7953 6.40318L5.1596 5.63122L5.15513 5.63494L5.7953 6.40318ZM5.65622 6.59643L6.57359 6.99447L6.57824 6.98374L6.58265 6.9729L5.65622 6.59643ZM5.60282 6.88008H4.60282V7.88008H5.60282V6.88008ZM7.47417 7.0948L8.0929 6.30917L8.08716 6.30472L7.47417 7.0948ZM6.84276 7.56549L7.53638 6.84516L7.51968 6.82907L7.50225 6.81378L6.84276 7.56549ZM5.60693 7.49543V6.49543H4.60693V7.49543H5.60693ZM5.7906 7.97063L6.46595 7.23313L6.45673 7.22469L6.4473 7.21648L5.7906 7.97063ZM6.79347 8.05087L6.24934 7.21181L6.24146 7.21703L6.79347 8.05087ZM6.74997 7.75705C6.74997 7.79133 6.74403 7.77568 6.76345 7.7366C6.77261 7.71818 6.78434 7.70098 6.79702 7.68669C6.80943 7.67269 6.81887 7.66582 6.82076 7.66453L7.95154 9.31418C8.49468 8.94187 8.74997 8.37241 8.74997 7.75705H6.74997ZM6.82076 7.66453C6.8143 7.66896 6.69766 7.73798 6.3381 7.73798V9.73798C6.89162 9.73798 7.47329 9.642 7.95154 9.31418L6.82076 7.66453ZM6.3381 7.73798C6.14238 7.73798 6.01337 7.71486 5.93431 7.69008C5.85956 7.66666 5.83833 7.64489 5.83802 7.64458L4.44751 9.08211C4.96719 9.5848 5.66742 9.73798 6.3381 9.73798V7.73798ZM5.83803 7.64459C5.838 7.64457 5.83789 7.64446 5.83767 7.64422C5.83745 7.64397 5.83706 7.64353 5.8365 7.64282C5.83543 7.64147 5.83336 7.63869 5.83049 7.63394C5.82482 7.62455 5.8148 7.6054 5.80387 7.57221C5.78111 7.50317 5.75781 7.38358 5.75781 7.19482H3.75781C3.75781 7.86578 3.91877 8.57065 4.4475 9.0821L5.83803 7.64459ZM5.75781 7.19482C5.75781 7.00853 5.78209 6.89149 5.80545 6.82426C5.82677 6.76292 5.84598 6.74546 5.84976 6.74196L4.49092 5.27446C3.93604 5.78825 3.75781 6.50257 3.75781 7.19482H5.75781ZM5.85363 6.73836C5.86029 6.73213 5.98315 6.62793 6.43844 6.62793V4.62793C5.74475 4.62793 5.02261 4.77688 4.48705 5.27806L5.85363 6.73836ZM6.43844 6.62793H7.58449V4.62793H6.43844V6.62793ZM6.5845 5.62411L6.58215 6.23889L8.58213 6.24652L8.58448 5.63175L6.5845 5.62411ZM7.58214 5.24271H6.42201V7.24271H7.58214V5.24271ZM6.42201 5.24271C6.05158 5.24271 5.55717 5.30385 5.15961 5.63124L6.43099 7.17513C6.39315 7.20629 6.35921 7.22556 6.33554 7.23677C6.31228 7.24779 6.29816 7.25142 6.2975 7.25159C6.29683 7.25176 6.3062 7.24935 6.32801 7.247C6.34968 7.24466 6.38058 7.24271 6.42201 7.24271V5.24271ZM5.15513 5.63494C4.96045 5.79717 4.8195 5.99921 4.7298 6.21995L6.58265 6.9729C6.55632 7.0377 6.50809 7.1109 6.43546 7.17142L5.15513 5.63494ZM4.73886 6.19838C4.63871 6.42918 4.60282 6.66344 4.60282 6.88008H6.60282C6.60282 6.88314 6.60214 6.92867 6.57359 6.99447L4.73886 6.19838ZM5.60282 7.88008H6.63796V5.88008H5.60282V7.88008ZM6.63796 7.88008C6.76383 7.88008 6.83976 7.89253 6.87806 7.90237C6.91505 7.91188 6.89895 7.9142 6.86117 7.88489L8.08716 6.30472C7.6503 5.96577 7.11009 5.88008 6.63796 5.88008V7.88008ZM6.85545 7.88042C6.83556 7.86476 6.81511 7.84448 6.7967 7.8201C6.77836 7.79581 6.76586 7.7725 6.75793 7.75349C6.74245 7.71635 6.74997 7.7097 6.74997 7.75705H8.74997C8.74997 7.24256 8.57963 6.69253 8.09289 6.30919L6.85545 7.88042ZM7.92198 7.78982C7.92198 7.51627 7.84533 7.14265 7.53638 6.84516L6.14913 8.28583C5.94581 8.09004 5.92198 7.8656 5.92198 7.78982H7.92198ZM7.50225 6.81378C7.19327 6.54271 6.83185 6.49543 6.60099 6.49543V8.49543C6.58725 8.49543 6.38661 8.49561 6.18326 8.3172L7.50225 6.81378ZM6.60099 6.49543H5.60693V8.49543H6.60099V6.49543ZM4.60693 7.49543C4.60693 7.90256 4.7324 8.37517 5.13391 8.72479L6.4473 7.21648C6.51475 7.27522 6.56059 7.34647 6.5857 7.41151C6.60858 7.47081 6.60693 7.50533 6.60693 7.49543H4.60693ZM5.11526 8.70814C5.50503 9.06506 5.99968 9.13506 6.36568 9.13506V7.13506C6.29896 7.13506 6.28218 7.12764 6.29907 7.13247C6.31865 7.13806 6.38821 7.16195 6.46595 7.23313L5.11526 8.70814ZM6.36568 9.13506C6.60568 9.13506 7.00253 9.11174 7.34547 8.88471L6.24146 7.21703C6.29486 7.18168 6.34106 7.16135 6.37143 7.15008C6.4019 7.13877 6.42276 7.13425 6.42975 7.13287C6.44112 7.13062 6.42382 7.13506 6.36568 7.13506V9.13506ZM7.33757 8.88989C7.75911 8.61653 7.92198 8.18117 7.92198 7.78982H5.92198C5.92198 7.73053 5.93273 7.62461 5.99229 7.50321C6.055 7.37537 6.1493 7.27674 6.24936 7.21185L7.33757 8.88989Z" fill="white" mask="url(#path-4-inside-2_1502_84322)"/>
<mask id="path-6-inside-3_1502_84322" fill="white">
<path d="M10.6554 7.76989C10.6554 8.06993 10.5574 8.30047 10.3625 8.46095C10.166 8.62029 9.88839 8.6994 9.53043 8.6994H7.85156V8.08462H9.3849C9.53571 8.08462 9.64251 8.05976 9.70354 8.0106C9.76222 7.96257 9.79098 7.88233 9.79098 7.76989C9.79098 7.65462 9.76164 7.57155 9.70354 7.52126C9.64251 7.47324 9.53571 7.4495 9.3849 7.4495H7.85156V5.62891H10.4993L10.4969 6.24368H8.63613V6.83812H9.67303C9.97406 6.83812 10.2147 6.91835 10.396 7.07883C10.4799 7.16246 10.545 7.26078 10.5908 7.37322C10.6336 7.48793 10.6554 7.62071 10.6554 7.76989Z"/>
</mask>
<path d="M10.6554 7.76989C10.6554 8.06993 10.5574 8.30047 10.3625 8.46095C10.166 8.62029 9.88839 8.6994 9.53043 8.6994H7.85156V8.08462H9.3849C9.53571 8.08462 9.64251 8.05976 9.70354 8.0106C9.76222 7.96257 9.79098 7.88233 9.79098 7.76989C9.79098 7.65462 9.76164 7.57155 9.70354 7.52126C9.64251 7.47324 9.53571 7.4495 9.3849 7.4495H7.85156V5.62891H10.4993L10.4969 6.24368H8.63613V6.83812H9.67303C9.97406 6.83812 10.2147 6.91835 10.396 7.07883C10.4799 7.16246 10.545 7.26078 10.5908 7.37322C10.6336 7.48793 10.6554 7.62071 10.6554 7.76989Z" fill="white"/>
<path d="M10.3625 8.46095L10.9922 9.23782L10.9983 9.23281L10.3625 8.46095ZM7.85156 8.6994H6.85156V9.6994H7.85156V8.6994ZM7.85156 8.08462V7.08462H6.85156V8.08462H7.85156ZM9.70354 8.0106L10.3309 8.78939L10.3369 8.78444L9.70354 8.0106ZM9.70354 7.52126L10.358 6.7652L10.3404 6.7499L10.322 6.73544L9.70354 7.52126ZM7.85156 7.4495H6.85156V8.4495H7.85156V7.4495ZM7.85156 5.62891V4.62891H6.85156V5.62891H7.85156ZM10.4993 5.62891L11.4993 5.63272L11.5031 4.62891H10.4993V5.62891ZM10.4969 6.24368V7.24368H11.4931L11.4969 6.2475L10.4969 6.24368ZM8.63613 6.24368V5.24368H7.63613V6.24368H8.63613ZM8.63613 6.83812H7.63613V7.83812H8.63613V6.83812ZM10.396 7.07883L11.1019 6.37051L11.0809 6.34961L11.0587 6.32998L10.396 7.07883ZM10.5908 7.37322L11.5276 7.02337L11.5225 7.00971L11.517 6.9962L10.5908 7.37322ZM9.65535 7.76989C9.65535 7.81155 9.64864 7.80735 9.66136 7.77734C9.66764 7.76253 9.67707 7.74537 9.68995 7.72816C9.70281 7.71099 9.71596 7.69797 9.72675 7.68908L10.9983 9.23281C11.4671 8.84665 11.6554 8.30756 11.6554 7.76989H9.65535ZM9.73284 7.6841C9.77637 7.64882 9.75419 7.6994 9.53043 7.6994V9.6994C10.0226 9.6994 10.5555 9.59176 10.9922 9.23779L9.73284 7.6841ZM9.53043 7.6994H7.85156V9.6994H9.53043V7.6994ZM8.85156 8.6994V8.08462H6.85156V8.6994H8.85156ZM7.85156 9.08462H9.3849V7.08462H7.85156V9.08462ZM9.3849 9.08462C9.58326 9.08462 9.98959 9.06427 10.3309 8.78937L9.07623 7.23183C9.1998 7.13229 9.31241 7.10109 9.3515 7.09201C9.39441 7.08204 9.41041 7.08462 9.3849 7.08462V9.08462ZM10.3369 8.78444C10.7252 8.46665 10.791 8.02802 10.791 7.76989H8.79098C8.79098 7.73665 8.79926 7.45849 9.07017 7.23675L10.3369 8.78444ZM10.791 7.76989C10.791 7.50937 10.7255 7.08327 10.358 6.7652L9.04905 8.27733C8.7978 8.05984 8.79098 7.79987 8.79098 7.76989H10.791ZM10.322 6.73544C9.98037 6.46658 9.57574 6.4495 9.3849 6.4495V8.4495C9.41303 8.4495 9.39944 8.4522 9.35888 8.4431C9.32273 8.43498 9.21008 8.40545 9.0851 8.30709L10.322 6.73544ZM9.3849 6.4495H7.85156V8.4495H9.3849V6.4495ZM8.85156 7.4495V5.62891H6.85156V7.4495H8.85156ZM7.85156 6.62891H10.4993V4.62891H7.85156V6.62891ZM9.49927 5.62509L9.49692 6.23987L11.4969 6.2475L11.4993 5.63272L9.49927 5.62509ZM10.4969 5.24368H8.63613V7.24368H10.4969V5.24368ZM7.63613 6.24368V6.83812H9.63613V6.24368H7.63613ZM8.63613 7.83812H9.67303V5.83812H8.63613V7.83812ZM9.67303 7.83812C9.73547 7.83812 9.76169 7.84649 9.76338 7.84705C9.76407 7.84728 9.76018 7.84602 9.75344 7.84218C9.7466 7.83827 9.73955 7.83326 9.73324 7.82768L11.0587 6.32998C10.6534 5.9713 10.1571 5.83812 9.67303 5.83812V7.83812ZM9.69009 7.78714C9.68457 7.78164 9.67888 7.77481 9.67384 7.7672C9.66882 7.75962 9.66593 7.75351 9.6646 7.75024L11.517 6.9962C11.4218 6.76235 11.2827 6.55072 11.1019 6.37051L9.69009 7.78714ZM9.654 7.72307C9.64728 7.70508 9.65535 7.71576 9.65535 7.76989H11.6554C11.6554 7.52567 11.62 7.27077 11.5276 7.02337L9.654 7.72307Z" fill="white" mask="url(#path-6-inside-3_1502_84322)"/>
<path d="M12.8421 9.63733C12.7232 9.6007 12.4015 9.51392 12.0814 9.4288L12.3355 9.20827L13.316 9.48232C13.3282 9.48823 13.3447 9.49665 13.3635 9.50734C13.4071 9.53216 13.4485 9.56097 13.4788 9.58917C13.3989 9.66317 13.3759 9.6757 13.3415 9.68562C13.2948 9.69906 13.1626 9.7192 12.8421 9.63733ZM13.5044 9.55357C13.5045 9.55356 13.5043 9.55417 13.5037 9.5554L13.5044 9.55357Z" fill="white" stroke="white"/>
<path d="M6.67791 10.4888C6.81035 10.4798 6.94431 10.4656 7.07926 10.4472L6.67791 10.4888ZM6.67791 10.4888C7.05316 10.444 7.41686 10.3595 7.76275 10.257L7.76285 10.2569C8.86922 9.92876 9.91701 9.43772 10.8137 8.66235L10.8151 8.66113C10.828 8.64985 10.8361 8.64284 10.8439 8.63636L10.844 8.63649L10.8537 8.62799C11.1462 8.37176 11.5044 8.03684 11.778 7.64322C12.0521 7.24881 12.2736 6.7486 12.2126 6.17608L12.2126 6.17583C12.2058 6.11245 12.1942 6.0519 12.1784 5.99411C12.2366 6.05916 12.2819 6.13018 12.3152 6.20728C12.3658 6.37189 12.3804 6.56382 12.3633 6.76521L12.3633 6.76564C12.331 7.14766 12.1761 7.52972 11.9346 7.87997L11.9345 7.88021C11.5262 8.47304 10.9148 8.95115 10.2319 9.35436L10.2317 9.35445C9.6633 9.69032 9.07952 9.94988 8.4489 10.1388L8.44881 10.1389C7.99262 10.2757 7.53731 10.3851 7.07931 10.4472L6.67791 10.4888ZM4.28522 9.03452C4.30811 9.08255 4.33334 9.12889 4.36092 9.17466L4.24943 8.95259C4.2548 8.96442 4.25984 8.97635 4.26488 8.9883C4.27141 9.00375 4.27794 9.01923 4.28522 9.03452Z" fill="white" stroke="white"/>
<mask id="path-10-inside-4_1502_84322" fill="white">
<path fill-rule="evenodd" clip-rule="evenodd" d="M4.60156 8.899C4.60156 8.899 6.22645 10.3145 9.01615 8.79785C8.70514 9.15157 5.2318 10.7693 4.60156 8.899Z"/>
</mask>
<path fill-rule="evenodd" clip-rule="evenodd" d="M4.60156 8.899C4.60156 8.899 6.22645 10.3145 9.01615 8.79785C8.70514 9.15157 5.2318 10.7693 4.60156 8.899Z" fill="white"/>
<path d="M4.60156 8.899L5.2584 8.14497L2.47529 5.72056L3.65392 9.21832L4.60156 8.899ZM9.01615 8.79785L9.76715 9.45816L8.53853 7.91929L9.01615 8.79785ZM4.60156 8.899C3.94472 9.65302 3.94524 9.65347 3.94576 9.65393C3.94594 9.65409 3.94647 9.65455 3.94684 9.65486C3.94757 9.6555 3.94833 9.65615 3.94912 9.65683C3.95069 9.65819 3.95238 9.65964 3.95418 9.66117C3.95777 9.66423 3.96181 9.66763 3.96628 9.67136C3.97523 9.67881 3.98594 9.68757 3.99841 9.69748C4.02334 9.71728 4.05536 9.74176 4.09436 9.76971C4.17229 9.82555 4.27873 9.8957 4.41286 9.97032C4.68098 10.1195 5.06292 10.2883 5.55007 10.3943C6.54643 10.6111 7.89445 10.5459 9.49378 9.67642L8.53853 7.91929C7.34815 8.56643 6.48888 8.55177 5.97536 8.44002C5.70758 8.38174 5.50894 8.29144 5.38522 8.2226C5.32343 8.18823 5.28113 8.15965 5.2593 8.144C5.24842 8.13621 5.24281 8.13176 5.24257 8.13157C5.24246 8.13148 5.24371 8.13247 5.24634 8.13466C5.24765 8.13575 5.24931 8.13715 5.25132 8.13886C5.25233 8.13972 5.25342 8.14066 5.2546 8.14167C5.25519 8.14218 5.2558 8.14271 5.25644 8.14326C5.25675 8.14353 5.25725 8.14396 5.2574 8.1441C5.2579 8.14453 5.2584 8.14497 4.60156 8.899ZM8.26516 8.13754C8.34264 8.04942 8.38223 8.04394 8.2543 8.11953C8.16498 8.17231 8.03411 8.24101 7.87036 8.31536C7.54069 8.46505 7.12543 8.61607 6.71565 8.70537C6.28869 8.79841 5.96124 8.80365 5.7583 8.75241C5.61355 8.71586 5.58122 8.67466 5.54921 8.57967L3.65392 9.21832C3.93703 10.0585 4.5752 10.5164 5.26868 10.6915C5.90396 10.852 6.58245 10.7813 7.14148 10.6595C7.7177 10.5339 8.26848 10.3311 8.69723 10.1364C8.91269 10.0386 9.10912 9.93749 9.27174 9.8414C9.39575 9.76812 9.61192 9.63471 9.76715 9.45816L8.26516 8.13754Z" fill="white" mask="url(#path-10-inside-4_1502_84322)"/>
</svg>
