<svg width="26" height="26" viewBox="0 0 26 26" fill="none" xmlns="http://www.w3.org/2000/svg">
<path d="M13.0014 23.8124C19.8233 23.8124 25.3543 18.6268 25.3543 12.2299C25.3543 5.8331 19.8233 0.647461 13.0014 0.647461C6.17947 0.647461 0.648438 5.8331 0.648438 12.2299C0.648438 15.1421 1.79572 17.8061 3.69035 19.8413C3.54057 21.5224 3.04645 23.3657 2.49983 24.7489C2.37785 25.0567 2.6141 25.4009 2.92138 25.3479C6.40491 24.7357 8.47557 23.7959 9.37579 23.3061C10.5584 23.6441 11.7774 23.8143 13.0014 23.8124Z" fill="white"/>
<path d="M6.95504 13.3617C6.79531 13.493 6.54091 13.589 6.13069 13.5897C6.26633 13.5587 6.39762 13.5076 6.51326 13.4262L6.51329 13.4263L6.51978 13.4215C6.78753 13.2265 6.88883 12.9349 6.88883 12.6491C6.88883 12.4135 6.81671 12.185 6.65429 12.002L6.84537 12.1155C6.97753 12.1941 7.04446 12.2702 7.07918 12.3332L7.08434 12.3425L7.08989 12.3516C7.14352 12.4398 7.18595 12.5736 7.18595 12.7809C7.18595 13.0658 7.09847 13.2381 6.95504 13.3617ZM6.79824 11.2877L6.21664 11.7298C6.15481 11.7108 6.09164 11.6968 6.02829 11.6866C6.19124 11.6596 6.35126 11.6077 6.4887 11.5132L6.4887 11.5132L6.49005 11.5122C6.7704 11.3181 6.86144 11.0158 6.86144 10.7426C6.86144 10.4661 6.7639 10.1874 6.51427 9.99429C6.39632 9.90028 6.26363 9.84598 6.1382 9.81436C6.55972 9.82827 6.8146 9.9185 6.96071 10.027C7.08045 10.1203 7.17956 10.2831 7.17956 10.6239C7.17956 10.7679 7.1478 10.8771 7.09601 10.9657C7.02123 11.0849 6.9236 11.1924 6.79824 11.2877Z" fill="#F26222" stroke="#F26222"/>
<path d="M8.89957 13.2072C8.63681 12.9531 8.45312 12.5052 8.45312 11.7489C8.45312 10.9928 8.64627 10.5369 8.93455 10.2699L8.93455 10.2699L8.93648 10.2681C9.09192 10.1227 9.31018 10.0018 9.60809 9.92101C9.47734 9.97405 9.35649 10.0431 9.24915 10.1315L9.24914 10.1315L9.24691 10.1334C9.08666 10.2669 8.96798 10.434 8.88965 10.6244C8.80347 10.8254 8.76758 11.0402 8.76758 11.2593V11.7593H8.77397V12.2165C8.77397 12.6394 8.89993 13.0415 9.22668 13.3287C9.33777 13.4294 9.46405 13.5062 9.60074 13.5637C9.28496 13.4862 9.05828 13.3608 8.89957 13.2072ZM8.89957 13.2072L8.55553 13.5629L8.89957 13.2072ZM11.5261 11.9497C11.4322 11.8672 11.3272 11.8119 11.2192 11.7759C11.5436 11.8101 11.7483 11.8929 11.8706 11.9873C12.0041 12.0931 12.1076 12.271 12.1076 12.6235C12.1076 12.9778 11.9855 13.1949 11.7589 13.3502C11.6446 13.4286 11.4974 13.4961 11.3118 13.547C11.34 13.5322 11.3673 13.5162 11.3937 13.4988C11.6941 13.303 11.8196 12.9941 11.8196 12.6745C11.8196 12.4333 11.7534 12.1678 11.5432 11.9653L11.5348 11.9573L11.5261 11.9497Z" fill="#F26222" stroke="#F26222"/>
<path d="M16.3552 13.3307C16.2003 13.4557 15.9634 13.5516 15.6061 13.5801C15.7321 13.5462 15.8543 13.492 15.9601 13.4067L15.9601 13.4068L15.9632 13.4043C16.2192 13.1947 16.2825 12.8907 16.2825 12.6429C16.2825 12.391 16.2188 12.0903 15.9737 11.8781L15.9649 11.8705L15.9557 11.8633C15.8486 11.779 15.7249 11.7261 15.598 11.6935H15.599C15.9676 11.6935 16.2114 11.7876 16.3811 11.9327C16.4566 12.0105 16.5165 12.1012 16.5608 12.2076C16.6012 12.3187 16.6271 12.4621 16.6271 12.6429C16.6271 12.9898 16.5204 13.1939 16.3552 13.3307ZM13.4861 11.1935V11.6445H13.2656V9.8125H13.4861V10.2688V11.1935Z" fill="#F26222" stroke="#F26222"/>
<path d="M19.0278 15.4267C18.9403 15.4036 18.8537 15.3807 18.7696 15.3585L19.674 14.5735L21.3658 15.0463C21.3689 15.0477 21.3722 15.0493 21.3758 15.051C21.4006 15.0626 21.4371 15.0808 21.4797 15.1051C21.5688 15.1558 21.6657 15.2224 21.7385 15.2974C21.8129 15.3739 21.8304 15.4255 21.8332 15.4498L21.8332 15.4501C21.8343 15.4599 21.8415 15.521 21.7435 15.6467C21.5916 15.7901 21.5115 15.8543 21.3849 15.8907C21.2448 15.9311 20.9822 15.9513 20.4558 15.8161C20.2574 15.7543 19.6105 15.5811 19.0278 15.4267Z" fill="#F26222" stroke="#F26222"/>
<path d="M7.19572 15.4825C7.25933 15.6137 7.33117 15.7396 7.412 15.859L7.41216 15.8593C7.81243 16.4513 8.44726 16.8504 9.19687 17.0305L9.19711 17.0305C9.9565 17.2134 10.7786 17.1945 11.6025 17.0827L7.19572 15.4825ZM7.19572 15.4825C7.25246 15.5487 7.31211 15.6124 7.37449 15.6736L7.37515 15.6743C7.60057 15.8945 7.86007 16.0781 8.13918 16.2204C8.48998 16.4002 8.86485 16.5134 9.23777 16.5768C9.7282 16.6606 10.2215 16.6621 10.6947 16.6188L7.19572 15.4825ZM18.6294 9.066C18.9474 9.33364 19.2218 9.70362 19.2741 10.1926L19.2742 10.1929C19.3593 10.9919 19.0519 11.7033 18.6461 12.2871C18.2409 12.8702 17.7051 13.3728 17.2535 13.7686L17.2437 13.7771L17.2436 13.777C17.2287 13.7894 17.2138 13.8024 17.194 13.8196L17.1926 13.8209C15.8356 14.9943 14.2443 15.7424 12.5495 16.2451L12.5494 16.2451C11.9557 16.4211 11.3335 16.5605 10.6948 16.6188L18.6294 9.066ZM18.6294 9.066C18.7235 9.09524 18.8146 9.12751 18.9022 9.16297C19.4258 9.37492 19.7901 9.68491 19.9709 10.116C20.0664 10.4177 20.0909 10.7588 20.0615 11.1034L20.0615 11.1039C20.0064 11.7565 19.7433 12.3963 19.3466 12.9716L19.3464 12.9718C18.679 13.9411 17.6894 14.7096 16.6104 15.3466L16.6102 15.3467C15.7077 15.88 14.779 16.2931 13.7754 16.5938L13.7753 16.5939C13.0564 16.8094 12.3334 16.9835 11.6025 17.0827L18.6294 9.066ZM20.4438 9.95313L20.0695 10.0827L16.8646 15.7772C17.9737 15.1223 19.0326 14.3093 19.7583 13.2554C20.1928 12.6252 20.4958 11.9036 20.5597 11.1459C20.5935 10.7495 20.567 10.3355 20.4438 9.95313ZM20.4438 9.95313L20.1671 10.0423L20.4356 9.93116C20.4383 9.93819 20.441 9.94522 20.4438 9.95313ZM20.0685 10.0741L19.9679 10.1065C19.9685 10.1085 19.9692 10.1105 19.9698 10.1125L19.9696 10.1126L20.0685 10.0741Z" fill="#F26222" stroke="#F26222"/>
<mask id="path-7-inside-1_1541_85656" fill="white">
<path fill-rule="evenodd" clip-rule="evenodd" d="M7.71875 14.3985C7.71875 14.3985 10.2463 16.6004 14.5859 14.2412C14.1021 14.7914 8.69912 17.3079 7.71875 14.3985Z"/>
</mask>
<path fill-rule="evenodd" clip-rule="evenodd" d="M7.71875 14.3985C7.71875 14.3985 10.2463 16.6004 14.5859 14.2412C14.1021 14.7914 8.69912 17.3079 7.71875 14.3985Z" fill="#F26222"/>
<path d="M7.71875 14.3985L8.37559 13.6445L5.59248 11.2201L6.7711 14.7179L7.71875 14.3985ZM14.5859 14.2412L15.3369 14.9015L14.1083 13.3626L14.5859 14.2412ZM7.71875 14.3985C7.06191 15.1526 7.06243 15.153 7.06296 15.1535C7.06315 15.1537 7.06369 15.1541 7.06407 15.1544C7.06483 15.1551 7.06563 15.1558 7.06647 15.1565C7.06816 15.158 7.07001 15.1596 7.07203 15.1613C7.07606 15.1647 7.08075 15.1687 7.0861 15.1731C7.09681 15.1821 7.11015 15.193 7.12612 15.2057C7.15803 15.231 7.20051 15.2635 7.25337 15.3014C7.359 15.3771 7.50676 15.4747 7.69532 15.5796C8.07228 15.7893 8.61549 16.03 9.31235 16.1817C10.7281 16.4898 12.6893 16.4105 15.0635 15.1198L14.1083 13.3626C12.143 14.4311 10.6706 14.4305 9.73763 14.2274C9.26015 14.1235 8.90024 13.9613 8.66767 13.8319C8.55146 13.7672 8.46785 13.7112 8.4183 13.6757C8.39357 13.658 8.3775 13.6455 8.37028 13.6397C8.36667 13.6369 8.36529 13.6357 8.36616 13.6364C8.3666 13.6368 8.3676 13.6376 8.36917 13.639C8.36996 13.6396 8.37088 13.6404 8.37195 13.6414C8.37249 13.6418 8.37306 13.6423 8.37367 13.6428C8.37397 13.6431 8.37445 13.6435 8.3746 13.6437C8.37509 13.6441 8.37559 13.6445 7.71875 14.3985ZM13.8349 13.5809C13.8908 13.5173 13.8813 13.5474 13.6834 13.6643C13.5241 13.7585 13.3023 13.8743 13.0332 13.9965C12.4929 14.2419 11.8093 14.4912 11.1256 14.6402C10.4248 14.7929 9.81789 14.8192 9.38211 14.7092C9.00452 14.6138 8.78594 14.434 8.6664 14.0792L6.7711 14.7179C7.14175 15.8178 7.96617 16.4144 8.89249 16.6483C9.76062 16.8675 10.7185 16.7758 11.5515 16.5943C12.4016 16.4091 13.2207 16.1079 13.8601 15.8176C14.1809 15.6719 14.4682 15.5237 14.7008 15.3862C14.8948 15.2716 15.1601 15.1026 15.3369 14.9015L13.8349 13.5809Z" fill="#F26222" mask="url(#path-7-inside-1_1541_85656)"/>
</svg>
