<svg width="24" height="28" viewBox="0 0 24 28" fill="none" xmlns="http://www.w3.org/2000/svg">
<path d="M23.6693 22.6667V24H0.335938V22.6667L2.92853 20V12C2.92853 7.86667 5.56001 4.22667 9.41001 3.05333V2.66667C9.41001 1.95942 9.68316 1.28115 10.1694 0.781048C10.6556 0.280951 11.315 0 12.0026 0C12.6902 0 13.3496 0.280951 13.8358 0.781048C14.3221 1.28115 14.5952 1.95942 14.5952 2.66667V3.05333C18.4452 4.22667 21.0767 7.86667 21.0767 12V20L23.6693 22.6667ZM14.5952 25.3333C14.5952 26.0406 14.3221 26.7189 13.8358 27.219C13.3496 27.719 12.6902 28 12.0026 28C11.315 28 10.6556 27.719 10.1694 27.219C9.68316 26.7189 9.41001 26.0406 9.41001 25.3333" fill="white"/>
</svg>
