<svg width="34" height="34" viewBox="0 0 34 34" fill="none" xmlns="http://www.w3.org/2000/svg">
<rect width="34" height="34" rx="17" fill="#FEF2EC"/>
<mask id="path-2-outside-1_1587_93137" maskUnits="userSpaceOnUse" x="6.625" y="7.25" width="20" height="19" fill="black">
<rect fill="white" x="6.625" y="7.25" width="20" height="19"/>
<path d="M23.2501 8.25H15.4376C14.9207 8.25 14.5001 8.67062 14.5001 9.1875H12.3126C11.5582 9.1875 10.927 9.72531 10.7816 10.4375H8.56258C8.55914 10.4375 8.5557 10.4394 8.55227 10.4397C8.5332 10.4403 8.51508 10.4469 8.49602 10.4509C8.47477 10.4556 8.4532 10.4587 8.43352 10.4678C8.43008 10.4694 8.42633 10.4691 8.42258 10.4706C8.40727 10.4781 8.39727 10.4912 8.38414 10.5006C8.37008 10.5106 8.35383 10.5169 8.34164 10.5291L7.71664 11.1541C7.59445 11.2762 7.59445 11.4737 7.71664 11.5959L8.34164 12.2209C8.40039 12.2797 8.47945 12.3125 8.56258 12.3125H10.7816C10.927 13.0247 11.5579 13.5625 12.3126 13.5625H14.5001C14.5001 14.0794 14.9207 14.5 15.4376 14.5H18.0888L17.3379 16.2519C17.3048 16.3291 17.3041 16.4166 17.3363 16.4944C17.3685 16.5722 17.431 16.6334 17.5091 16.665L18.9407 17.2375L18.8804 17.5687C18.8657 17.6484 18.8829 17.7306 18.9276 17.7978L20.1251 19.5941V21.9994H18.2501C17.3885 21.9994 16.6876 22.7003 16.6876 23.5619V25.4369C16.6876 25.6097 16.8273 25.7494 17.0001 25.7494H25.1251C25.2979 25.7494 25.4376 25.6097 25.4376 25.4369V22.9369C25.4376 22.42 25.017 21.9994 24.5001 21.9994H23.8751V14.4369C25.2998 14.1466 26.3751 12.8837 26.3751 11.375C26.3751 9.65187 24.9732 8.25 23.2501 8.25ZM20.4376 8.875V10.75H16.6876V8.875H20.4376ZM10.6307 11.6875L10.3182 11.0625H10.7501V11.6875H10.6307ZM9.3807 11.6875L9.0682 11.0625H9.61945L9.93195 11.6875H9.3807ZM8.37945 11.375L8.47695 11.2775L8.67195 11.6672L8.37945 11.3747V11.375ZM12.3126 12.9375C11.7957 12.9375 11.3751 12.5169 11.3751 12V10.75C11.3751 10.2331 11.7957 9.8125 12.3126 9.8125H14.5001V10.4375H13.8751C13.7023 10.4375 13.5626 10.5772 13.5626 10.75C13.5626 10.9228 13.7023 11.0625 13.8751 11.0625H14.5001V11.6875H13.8751C13.7023 11.6875 13.5626 11.8272 13.5626 12C13.5626 12.1728 13.7023 12.3125 13.8751 12.3125H14.5001V12.9375H12.3126ZM15.1251 13.5625V9.1875C15.1251 9.015 15.2651 8.875 15.4376 8.875H16.0626V11.0625C16.0626 11.2353 16.2023 11.375 16.3751 11.375H20.7501C20.9229 11.375 21.0626 11.2353 21.0626 11.0625V8.875H21.6876V13.875H18.5663C18.5663 13.875 18.5641 13.875 18.5629 13.875H15.4376C15.2651 13.875 15.1251 13.735 15.1251 13.5625ZM18.0385 16.2037L18.7685 14.5H19.4382L19.0545 16.6103L18.0385 16.2037ZM24.8126 25.125H17.3126V24.5H24.8126V25.125ZM24.8126 22.9375V23.875H17.3126V23.5625C17.3126 23.0456 17.7332 22.625 18.2501 22.625H24.5001C24.6726 22.625 24.8126 22.765 24.8126 22.9375ZM22.3126 22V16.525L23.2501 15.7753V22H22.3126ZM23.2501 14.9747L21.8048 16.1309C21.7307 16.1903 21.6876 16.2803 21.6876 16.375V22H20.7501V19.5C20.7501 19.4384 20.7316 19.3778 20.6976 19.3266L19.5176 17.5566L20.0735 14.5H23.2501V14.9747ZM23.2501 13.875H22.3126V8.875H23.2501C24.6285 8.875 25.7501 9.99656 25.7501 11.375C25.7501 12.7534 24.6285 13.875 23.2501 13.875Z"/>
</mask>
<path d="M23.2501 8.25H15.4376C14.9207 8.25 14.5001 8.67062 14.5001 9.1875H12.3126C11.5582 9.1875 10.927 9.72531 10.7816 10.4375H8.56258C8.55914 10.4375 8.5557 10.4394 8.55227 10.4397C8.5332 10.4403 8.51508 10.4469 8.49602 10.4509C8.47477 10.4556 8.4532 10.4587 8.43352 10.4678C8.43008 10.4694 8.42633 10.4691 8.42258 10.4706C8.40727 10.4781 8.39727 10.4912 8.38414 10.5006C8.37008 10.5106 8.35383 10.5169 8.34164 10.5291L7.71664 11.1541C7.59445 11.2762 7.59445 11.4737 7.71664 11.5959L8.34164 12.2209C8.40039 12.2797 8.47945 12.3125 8.56258 12.3125H10.7816C10.927 13.0247 11.5579 13.5625 12.3126 13.5625H14.5001C14.5001 14.0794 14.9207 14.5 15.4376 14.5H18.0888L17.3379 16.2519C17.3048 16.3291 17.3041 16.4166 17.3363 16.4944C17.3685 16.5722 17.431 16.6334 17.5091 16.665L18.9407 17.2375L18.8804 17.5687C18.8657 17.6484 18.8829 17.7306 18.9276 17.7978L20.1251 19.5941V21.9994H18.2501C17.3885 21.9994 16.6876 22.7003 16.6876 23.5619V25.4369C16.6876 25.6097 16.8273 25.7494 17.0001 25.7494H25.1251C25.2979 25.7494 25.4376 25.6097 25.4376 25.4369V22.9369C25.4376 22.42 25.017 21.9994 24.5001 21.9994H23.8751V14.4369C25.2998 14.1466 26.3751 12.8837 26.3751 11.375C26.3751 9.65187 24.9732 8.25 23.2501 8.25ZM20.4376 8.875V10.75H16.6876V8.875H20.4376ZM10.6307 11.6875L10.3182 11.0625H10.7501V11.6875H10.6307ZM9.3807 11.6875L9.0682 11.0625H9.61945L9.93195 11.6875H9.3807ZM8.37945 11.375L8.47695 11.2775L8.67195 11.6672L8.37945 11.3747V11.375ZM12.3126 12.9375C11.7957 12.9375 11.3751 12.5169 11.3751 12V10.75C11.3751 10.2331 11.7957 9.8125 12.3126 9.8125H14.5001V10.4375H13.8751C13.7023 10.4375 13.5626 10.5772 13.5626 10.75C13.5626 10.9228 13.7023 11.0625 13.8751 11.0625H14.5001V11.6875H13.8751C13.7023 11.6875 13.5626 11.8272 13.5626 12C13.5626 12.1728 13.7023 12.3125 13.8751 12.3125H14.5001V12.9375H12.3126ZM15.1251 13.5625V9.1875C15.1251 9.015 15.2651 8.875 15.4376 8.875H16.0626V11.0625C16.0626 11.2353 16.2023 11.375 16.3751 11.375H20.7501C20.9229 11.375 21.0626 11.2353 21.0626 11.0625V8.875H21.6876V13.875H18.5663C18.5663 13.875 18.5641 13.875 18.5629 13.875H15.4376C15.2651 13.875 15.1251 13.735 15.1251 13.5625ZM18.0385 16.2037L18.7685 14.5H19.4382L19.0545 16.6103L18.0385 16.2037ZM24.8126 25.125H17.3126V24.5H24.8126V25.125ZM24.8126 22.9375V23.875H17.3126V23.5625C17.3126 23.0456 17.7332 22.625 18.2501 22.625H24.5001C24.6726 22.625 24.8126 22.765 24.8126 22.9375ZM22.3126 22V16.525L23.2501 15.7753V22H22.3126ZM23.2501 14.9747L21.8048 16.1309C21.7307 16.1903 21.6876 16.2803 21.6876 16.375V22H20.7501V19.5C20.7501 19.4384 20.7316 19.3778 20.6976 19.3266L19.5176 17.5566L20.0735 14.5H23.2501V14.9747ZM23.2501 13.875H22.3126V8.875H23.2501C24.6285 8.875 25.7501 9.99656 25.7501 11.375C25.7501 12.7534 24.6285 13.875 23.2501 13.875Z" fill="#F26222"/>
<path d="M23.2501 8.25H15.4376C14.9207 8.25 14.5001 8.67062 14.5001 9.1875H12.3126C11.5582 9.1875 10.927 9.72531 10.7816 10.4375H8.56258C8.55914 10.4375 8.5557 10.4394 8.55227 10.4397C8.5332 10.4403 8.51508 10.4469 8.49602 10.4509C8.47477 10.4556 8.4532 10.4587 8.43352 10.4678C8.43008 10.4694 8.42633 10.4691 8.42258 10.4706C8.40727 10.4781 8.39727 10.4912 8.38414 10.5006C8.37008 10.5106 8.35383 10.5169 8.34164 10.5291L7.71664 11.1541C7.59445 11.2762 7.59445 11.4737 7.71664 11.5959L8.34164 12.2209C8.40039 12.2797 8.47945 12.3125 8.56258 12.3125H10.7816C10.927 13.0247 11.5579 13.5625 12.3126 13.5625H14.5001C14.5001 14.0794 14.9207 14.5 15.4376 14.5H18.0888L17.3379 16.2519C17.3048 16.3291 17.3041 16.4166 17.3363 16.4944C17.3685 16.5722 17.431 16.6334 17.5091 16.665L18.9407 17.2375L18.8804 17.5687C18.8657 17.6484 18.8829 17.7306 18.9276 17.7978L20.1251 19.5941V21.9994H18.2501C17.3885 21.9994 16.6876 22.7003 16.6876 23.5619V25.4369C16.6876 25.6097 16.8273 25.7494 17.0001 25.7494H25.1251C25.2979 25.7494 25.4376 25.6097 25.4376 25.4369V22.9369C25.4376 22.42 25.017 21.9994 24.5001 21.9994H23.8751V14.4369C25.2998 14.1466 26.3751 12.8837 26.3751 11.375C26.3751 9.65187 24.9732 8.25 23.2501 8.25ZM20.4376 8.875V10.75H16.6876V8.875H20.4376ZM10.6307 11.6875L10.3182 11.0625H10.7501V11.6875H10.6307ZM9.3807 11.6875L9.0682 11.0625H9.61945L9.93195 11.6875H9.3807ZM8.37945 11.375L8.47695 11.2775L8.67195 11.6672L8.37945 11.3747V11.375ZM12.3126 12.9375C11.7957 12.9375 11.3751 12.5169 11.3751 12V10.75C11.3751 10.2331 11.7957 9.8125 12.3126 9.8125H14.5001V10.4375H13.8751C13.7023 10.4375 13.5626 10.5772 13.5626 10.75C13.5626 10.9228 13.7023 11.0625 13.8751 11.0625H14.5001V11.6875H13.8751C13.7023 11.6875 13.5626 11.8272 13.5626 12C13.5626 12.1728 13.7023 12.3125 13.8751 12.3125H14.5001V12.9375H12.3126ZM15.1251 13.5625V9.1875C15.1251 9.015 15.2651 8.875 15.4376 8.875H16.0626V11.0625C16.0626 11.2353 16.2023 11.375 16.3751 11.375H20.7501C20.9229 11.375 21.0626 11.2353 21.0626 11.0625V8.875H21.6876V13.875H18.5663C18.5663 13.875 18.5641 13.875 18.5629 13.875H15.4376C15.2651 13.875 15.1251 13.735 15.1251 13.5625ZM18.0385 16.2037L18.7685 14.5H19.4382L19.0545 16.6103L18.0385 16.2037ZM24.8126 25.125H17.3126V24.5H24.8126V25.125ZM24.8126 22.9375V23.875H17.3126V23.5625C17.3126 23.0456 17.7332 22.625 18.2501 22.625H24.5001C24.6726 22.625 24.8126 22.765 24.8126 22.9375ZM22.3126 22V16.525L23.2501 15.7753V22H22.3126ZM23.2501 14.9747L21.8048 16.1309C21.7307 16.1903 21.6876 16.2803 21.6876 16.375V22H20.7501V19.5C20.7501 19.4384 20.7316 19.3778 20.6976 19.3266L19.5176 17.5566L20.0735 14.5H23.2501V14.9747ZM23.2501 13.875H22.3126V8.875H23.2501C24.6285 8.875 25.7501 9.99656 25.7501 11.375C25.7501 12.7534 24.6285 13.875 23.2501 13.875Z" stroke="#F26222" stroke-width="0.4" mask="url(#path-2-outside-1_1587_93137)"/>
<path d="M24.1875 9.7125H23.25C23.022 9.7125 22.8375 9.89696 22.8375 10.125C22.8375 10.353 23.022 10.5375 23.25 10.5375H24.1875C24.4155 10.5375 24.6 10.353 24.6 10.125C24.6 9.89696 24.4155 9.7125 24.1875 9.7125ZM24.1875 10.9625H23.25C23.022 10.9625 22.8375 11.147 22.8375 11.375C22.8375 11.603 23.022 11.7875 23.25 11.7875H24.1875C24.4155 11.7875 24.6 11.603 24.6 11.375C24.6 11.147 24.4155 10.9625 24.1875 10.9625ZM24.1875 12.2125H23.25C23.022 12.2125 22.8375 12.397 22.8375 12.625C22.8375 12.853 23.022 13.0375 23.25 13.0375H24.1875C24.4155 13.0375 24.6 12.853 24.6 12.625C24.6 12.397 24.4155 12.2125 24.1875 12.2125Z" fill="#F26222" stroke="#F26222" stroke-width="0.2"/>
</svg>
