<svg width="34" height="34" viewBox="0 0 34 34" fill="none" xmlns="http://www.w3.org/2000/svg">
<rect width="34" height="34" rx="17" fill="#FEF2EC"/>
<path fill-rule="evenodd" clip-rule="evenodd" d="M8.35003 7.05626C8.02121 7.13856 7.77506 7.27908 7.52712 7.52612C7.27176 7.78058 7.11739 8.06078 7.04627 8.39897C6.9841 8.6946 6.98481 19.4506 7.04702 19.7413C7.19061 20.4123 7.72984 20.9516 8.40075 21.0952C8.5413 21.1253 9.32141 21.1395 10.8317 21.1395C12.055 21.1395 13.0558 21.147 13.0558 21.1561C13.0558 21.1653 12.8801 21.5286 12.6653 21.9635C12.3898 22.5214 12.2748 22.7957 12.2748 22.8946C12.2748 23.0923 12.3936 23.2922 12.5717 23.3944L12.7239 23.4816L15.7602 23.4823L18.7964 23.4829V24.4379C18.7964 25.0021 18.8146 25.4776 18.8407 25.5999C18.9843 26.2709 19.5236 26.8102 20.1945 26.9538C20.4805 27.015 25.309 27.0156 25.5994 26.9545C26.2621 26.8149 26.8155 26.2615 26.954 25.5999C27.0159 25.3043 27.015 15.7968 26.9531 15.5074C26.8811 15.1709 26.7255 14.8885 26.4719 14.6336C26.0902 14.2502 25.7008 14.1092 25.0233 14.1092H24.6543V11.3576C24.6543 9.45395 24.6406 8.54216 24.61 8.39897C24.466 7.72625 23.9252 7.185 23.2562 7.04431C22.9411 6.97799 8.61683 6.98951 8.35003 7.05626ZM23.1713 8.2511C23.2705 8.30172 23.3535 8.38468 23.4041 8.48392C23.4807 8.63406 23.4827 8.70905 23.4827 11.3736V14.1092H21.9421C20.9412 14.1092 20.3289 14.1247 20.1945 14.1535C19.5218 14.2974 18.9807 14.8384 18.84 15.5074C18.8148 15.6271 18.7964 16.1171 18.7964 16.6693V17.6243H13.4854H8.17429L8.17593 13.123C8.17777 8.06335 8.15387 8.45713 8.47081 8.26524L8.62339 8.17287L15.8203 8.17267C22.9563 8.17248 23.0185 8.17314 23.1713 8.2511ZM25.5144 15.3595C25.7476 15.4785 25.8258 15.6645 25.8258 16.0995V16.4526H22.8969H19.968L19.9696 16.0913C19.9716 15.664 20.0334 15.5136 20.2645 15.3737L20.4171 15.2813L22.8887 15.2811C25.289 15.2809 25.3648 15.2832 25.5144 15.3595ZM25.8258 20.5536V23.4829H22.8969H19.968V20.5536V17.6243H22.8969H25.8258V20.5536ZM18.7964 19.3819V19.9678H13.7152H8.63401L8.47823 19.8802C8.2458 19.7495 8.17429 19.5775 8.17429 19.1491V18.796H13.4854H18.7964V19.3819ZM17.5376 21.7062C17.693 22.0178 17.8201 22.2815 17.8201 22.292C17.8201 22.3026 16.9239 22.3112 15.8285 22.3112C14.7331 22.3112 13.8368 22.3026 13.8368 22.292C13.8368 22.2815 13.964 22.0178 14.1193 21.7062L14.4018 21.1395H15.8285H17.2551L17.5376 21.7062ZM18.7947 21.3445L18.7929 21.5496L18.6988 21.3738C18.5801 21.1521 18.5801 21.1395 18.6988 21.1395C18.7908 21.1395 18.7963 21.1514 18.7947 21.3445ZM25.8258 25.0077C25.8258 25.4428 25.7476 25.6288 25.5144 25.7477C25.3648 25.8241 25.2887 25.8263 22.894 25.8263H20.4277L20.272 25.7388C20.0395 25.6081 19.968 25.4361 19.968 25.0077V24.6546H22.8969H25.8258V25.0077Z" fill="#F26222"/>
</svg>
