<svg width="34" height="34" viewBox="0 0 34 34" fill="none" xmlns="http://www.w3.org/2000/svg">
<rect width="34" height="34" rx="17" fill="#FEF2EC"/>
<mask id="path-2-outside-1_1587_93133" maskUnits="userSpaceOnUse" x="6" y="5.99023" width="22" height="22" fill="black">
<rect fill="white" x="6" y="5.99023" width="22" height="22"/>
<path fill-rule="evenodd" clip-rule="evenodd" d="M24.121 7.00377C24.0672 7.01312 23.8911 7.03977 23.7297 7.0629C23.3634 7.11546 22.7225 7.29838 22.2696 7.47962C21.8875 7.63257 21.7942 7.72681 21.7942 7.95982C21.7942 8.15457 21.8983 8.2998 22.0724 8.34786C22.1987 8.38273 22.2795 8.3661 22.7401 8.21065C23.4286 7.9783 23.8534 7.88531 24.3625 7.85549C25.0608 7.81459 25.54 7.961 25.8537 8.31103C26.0676 8.5498 26.1585 8.79887 26.1846 9.21704C26.2283 9.92067 25.9638 10.9454 25.435 12.1214L25.3323 12.3498L24.9853 11.8279C22.7169 8.41615 18.6586 6.83012 14.7423 7.82477C13.4429 8.1548 12.2017 8.77632 11.1278 9.63462C8.74336 11.5404 7.39758 14.5774 7.60492 17.5848C7.65553 18.3192 7.72214 18.7319 7.90032 19.4153C8.31658 21.012 9.10118 22.3917 10.2844 23.6079C10.915 24.2561 11.4901 24.7129 12.2995 25.2086L12.4341 25.291L12.0863 25.4517C11.2813 25.8235 10.4127 26.089 9.76148 26.1623C8.69541 26.2822 8.08579 25.924 7.8943 25.0654C7.77403 24.5261 7.89578 23.684 8.22813 22.7565C8.39348 22.2951 8.42033 22.1123 8.3381 22.0079C8.17494 21.8009 7.87755 21.7512 7.70484 21.9021C7.52912 22.0556 7.17583 23.1063 7.06332 23.81C6.83766 25.2209 7.22041 26.2678 8.12786 26.7218C8.4986 26.9073 8.79157 26.9791 9.28841 27.006C10.2175 27.0564 11.5089 26.6951 12.9085 25.993C13.343 25.775 13.3869 25.7608 13.4955 25.8041C14.1865 26.0791 15.1567 26.33 15.9416 26.4366C16.5416 26.5182 17.8152 26.4985 18.4449 26.398C21.5846 25.8968 24.1651 24.0082 25.5658 21.1865C26.2663 19.7754 26.5928 18.2596 26.535 16.6872C26.4943 15.5792 26.3423 14.8052 25.9541 13.7283L25.7974 13.2937L25.9791 12.9318C26.3431 12.2072 26.6811 11.3083 26.8408 10.6407C27.292 8.75366 26.7778 7.50408 25.3813 7.09335C25.1274 7.01868 24.352 6.96357 24.121 7.00377ZM17.851 8.42981C19.8439 8.63692 21.5855 9.43592 23.0225 10.8023C23.6705 11.4184 24.3421 12.3099 24.6939 13.0209L24.8384 13.3128L24.569 13.777C23.8145 15.0776 22.6466 16.6359 21.3083 18.1278C20.5673 18.9538 20.5205 19.0165 20.5205 19.1821C20.5205 19.3843 20.7314 19.5833 20.9457 19.5833C21.1476 19.5833 21.2196 19.5209 21.8827 18.7714C22.9779 17.5334 23.8359 16.4234 24.6907 15.1387L25.2499 14.2982L25.3144 14.5201C25.5918 15.4741 25.6615 15.9748 25.6624 17.0199C25.6632 17.9653 25.619 18.345 25.4138 19.1541C24.4059 23.1279 20.6029 25.895 16.5399 25.6109C15.6988 25.5521 14.3352 25.2743 14.4399 25.183C14.4586 25.1666 14.7469 24.9895 15.0806 24.7893C16.0389 24.2144 17.583 23.1287 17.78 22.8915C17.8503 22.8068 17.842 22.499 17.7663 22.3835C17.685 22.2594 17.4609 22.1865 17.3159 22.2371C17.2552 22.2582 17.0047 22.4308 16.7594 22.6206C15.9426 23.2524 14.9119 23.9295 13.8496 24.5323L13.3818 24.7977L13.0865 24.6517C12.924 24.5714 12.5937 24.3754 12.3524 24.2162C9.22712 22.1536 7.78515 18.3889 8.74046 14.7859C9.66153 11.3119 12.7473 8.73014 16.3525 8.41709C16.708 8.38621 17.4958 8.39291 17.851 8.42981ZM21.5967 11.4474C20.9332 11.5275 20.3088 11.7481 19.8255 12.0733C19.7234 12.1419 18.169 13.666 16.3711 15.4602L13.1022 18.7223H12.5504C12.2469 18.7223 11.9391 18.7339 11.8665 18.7481C11.7656 18.7678 11.6055 18.9009 11.1874 19.3125C10.6614 19.8303 10.6404 19.8572 10.6404 20.0108C10.6404 20.3058 10.7082 20.3414 12.2432 20.8507C12.9966 21.1007 13.6485 21.3053 13.6919 21.3053C13.7353 21.3053 14.2812 21.1015 14.9051 20.8525L16.0394 20.3998L16.7732 19.6691C17.1768 19.2671 17.507 18.9498 17.507 18.9638C17.507 19.015 18.407 21.8972 18.4454 21.9689C18.4671 22.0095 18.5318 22.0797 18.5891 22.1247C18.7076 22.218 18.8752 22.2058 19.1116 22.0867C19.2805 22.0016 20.0751 21.1929 20.129 21.0512C20.1537 20.9864 20.1683 20.0861 20.1683 18.6313V16.3147L21.0323 15.4541C21.916 14.5737 22.1653 14.2775 22.3593 13.8769C22.5996 13.3809 22.7506 12.6654 22.751 12.0208C22.7513 11.7006 22.7443 11.6711 22.6403 11.5549C22.5356 11.4376 22.5123 11.4302 22.2196 11.4202C22.0492 11.4143 21.7689 11.4266 21.5967 11.4474ZM21.7493 12.4507C21.707 12.8068 21.5766 13.2647 21.4345 13.5563C21.3044 13.8231 21.1955 13.9466 20.2406 14.9108L19.1899 15.9717V18.3376V20.7036L19.0752 20.8134L18.9606 20.9232L18.8219 20.4783C18.7456 20.2336 18.5336 19.549 18.3508 18.9571C18.0658 18.0341 18.0029 17.8683 17.9095 17.793C17.781 17.6894 17.6294 17.6808 17.4561 17.7673C17.3873 17.8016 16.9082 18.2496 16.3916 18.7626L15.4524 19.6954L14.5139 20.0699C13.9977 20.2758 13.5575 20.4448 13.5355 20.4455C13.4633 20.4478 11.7935 19.8774 11.7933 19.8505C11.7932 19.8359 11.8387 19.7699 11.8944 19.7037L11.9958 19.5833H12.6658H13.3358L16.7422 16.1849C20.0421 12.8929 20.1585 12.7816 20.4618 12.6271C20.8653 12.4215 21.2286 12.3186 21.7232 12.2696C21.758 12.2661 21.7652 12.3164 21.7493 12.4507ZM13.0215 13.5733C12.857 13.6448 11.6334 14.4661 11.5531 14.5588C11.4032 14.7319 11.4354 15.0111 11.6223 15.158C11.6758 15.2002 12.3399 15.4411 13.0978 15.6934C14.604 16.1948 14.6079 16.1955 14.8126 15.9764C14.9428 15.837 14.9604 15.6455 14.8589 15.4736C14.7782 15.3371 14.7464 15.3224 13.926 15.0416C13.5601 14.9163 13.1767 14.7845 13.074 14.7486L12.8873 14.6833L13.1003 14.5308L13.3134 14.3782L14.8134 14.378C16.23 14.3779 16.3203 14.3736 16.4382 14.3018C16.6969 14.144 16.681 13.7205 16.4112 13.5857C16.2875 13.5239 16.1226 13.5174 14.7088 13.5188C13.48 13.5199 13.1171 13.5316 13.0215 13.5733Z"/>
</mask>
<path fill-rule="evenodd" clip-rule="evenodd" d="M24.121 7.00377C24.0672 7.01312 23.8911 7.03977 23.7297 7.0629C23.3634 7.11546 22.7225 7.29838 22.2696 7.47962C21.8875 7.63257 21.7942 7.72681 21.7942 7.95982C21.7942 8.15457 21.8983 8.2998 22.0724 8.34786C22.1987 8.38273 22.2795 8.3661 22.7401 8.21065C23.4286 7.9783 23.8534 7.88531 24.3625 7.85549C25.0608 7.81459 25.54 7.961 25.8537 8.31103C26.0676 8.5498 26.1585 8.79887 26.1846 9.21704C26.2283 9.92067 25.9638 10.9454 25.435 12.1214L25.3323 12.3498L24.9853 11.8279C22.7169 8.41615 18.6586 6.83012 14.7423 7.82477C13.4429 8.1548 12.2017 8.77632 11.1278 9.63462C8.74336 11.5404 7.39758 14.5774 7.60492 17.5848C7.65553 18.3192 7.72214 18.7319 7.90032 19.4153C8.31658 21.012 9.10118 22.3917 10.2844 23.6079C10.915 24.2561 11.4901 24.7129 12.2995 25.2086L12.4341 25.291L12.0863 25.4517C11.2813 25.8235 10.4127 26.089 9.76148 26.1623C8.69541 26.2822 8.08579 25.924 7.8943 25.0654C7.77403 24.5261 7.89578 23.684 8.22813 22.7565C8.39348 22.2951 8.42033 22.1123 8.3381 22.0079C8.17494 21.8009 7.87755 21.7512 7.70484 21.9021C7.52912 22.0556 7.17583 23.1063 7.06332 23.81C6.83766 25.2209 7.22041 26.2678 8.12786 26.7218C8.4986 26.9073 8.79157 26.9791 9.28841 27.006C10.2175 27.0564 11.5089 26.6951 12.9085 25.993C13.343 25.775 13.3869 25.7608 13.4955 25.8041C14.1865 26.0791 15.1567 26.33 15.9416 26.4366C16.5416 26.5182 17.8152 26.4985 18.4449 26.398C21.5846 25.8968 24.1651 24.0082 25.5658 21.1865C26.2663 19.7754 26.5928 18.2596 26.535 16.6872C26.4943 15.5792 26.3423 14.8052 25.9541 13.7283L25.7974 13.2937L25.9791 12.9318C26.3431 12.2072 26.6811 11.3083 26.8408 10.6407C27.292 8.75366 26.7778 7.50408 25.3813 7.09335C25.1274 7.01868 24.352 6.96357 24.121 7.00377ZM17.851 8.42981C19.8439 8.63692 21.5855 9.43592 23.0225 10.8023C23.6705 11.4184 24.3421 12.3099 24.6939 13.0209L24.8384 13.3128L24.569 13.777C23.8145 15.0776 22.6466 16.6359 21.3083 18.1278C20.5673 18.9538 20.5205 19.0165 20.5205 19.1821C20.5205 19.3843 20.7314 19.5833 20.9457 19.5833C21.1476 19.5833 21.2196 19.5209 21.8827 18.7714C22.9779 17.5334 23.8359 16.4234 24.6907 15.1387L25.2499 14.2982L25.3144 14.5201C25.5918 15.4741 25.6615 15.9748 25.6624 17.0199C25.6632 17.9653 25.619 18.345 25.4138 19.1541C24.4059 23.1279 20.6029 25.895 16.5399 25.6109C15.6988 25.5521 14.3352 25.2743 14.4399 25.183C14.4586 25.1666 14.7469 24.9895 15.0806 24.7893C16.0389 24.2144 17.583 23.1287 17.78 22.8915C17.8503 22.8068 17.842 22.499 17.7663 22.3835C17.685 22.2594 17.4609 22.1865 17.3159 22.2371C17.2552 22.2582 17.0047 22.4308 16.7594 22.6206C15.9426 23.2524 14.9119 23.9295 13.8496 24.5323L13.3818 24.7977L13.0865 24.6517C12.924 24.5714 12.5937 24.3754 12.3524 24.2162C9.22712 22.1536 7.78515 18.3889 8.74046 14.7859C9.66153 11.3119 12.7473 8.73014 16.3525 8.41709C16.708 8.38621 17.4958 8.39291 17.851 8.42981ZM21.5967 11.4474C20.9332 11.5275 20.3088 11.7481 19.8255 12.0733C19.7234 12.1419 18.169 13.666 16.3711 15.4602L13.1022 18.7223H12.5504C12.2469 18.7223 11.9391 18.7339 11.8665 18.7481C11.7656 18.7678 11.6055 18.9009 11.1874 19.3125C10.6614 19.8303 10.6404 19.8572 10.6404 20.0108C10.6404 20.3058 10.7082 20.3414 12.2432 20.8507C12.9966 21.1007 13.6485 21.3053 13.6919 21.3053C13.7353 21.3053 14.2812 21.1015 14.9051 20.8525L16.0394 20.3998L16.7732 19.6691C17.1768 19.2671 17.507 18.9498 17.507 18.9638C17.507 19.015 18.407 21.8972 18.4454 21.9689C18.4671 22.0095 18.5318 22.0797 18.5891 22.1247C18.7076 22.218 18.8752 22.2058 19.1116 22.0867C19.2805 22.0016 20.0751 21.1929 20.129 21.0512C20.1537 20.9864 20.1683 20.0861 20.1683 18.6313V16.3147L21.0323 15.4541C21.916 14.5737 22.1653 14.2775 22.3593 13.8769C22.5996 13.3809 22.7506 12.6654 22.751 12.0208C22.7513 11.7006 22.7443 11.6711 22.6403 11.5549C22.5356 11.4376 22.5123 11.4302 22.2196 11.4202C22.0492 11.4143 21.7689 11.4266 21.5967 11.4474ZM21.7493 12.4507C21.707 12.8068 21.5766 13.2647 21.4345 13.5563C21.3044 13.8231 21.1955 13.9466 20.2406 14.9108L19.1899 15.9717V18.3376V20.7036L19.0752 20.8134L18.9606 20.9232L18.8219 20.4783C18.7456 20.2336 18.5336 19.549 18.3508 18.9571C18.0658 18.0341 18.0029 17.8683 17.9095 17.793C17.781 17.6894 17.6294 17.6808 17.4561 17.7673C17.3873 17.8016 16.9082 18.2496 16.3916 18.7626L15.4524 19.6954L14.5139 20.0699C13.9977 20.2758 13.5575 20.4448 13.5355 20.4455C13.4633 20.4478 11.7935 19.8774 11.7933 19.8505C11.7932 19.8359 11.8387 19.7699 11.8944 19.7037L11.9958 19.5833H12.6658H13.3358L16.7422 16.1849C20.0421 12.8929 20.1585 12.7816 20.4618 12.6271C20.8653 12.4215 21.2286 12.3186 21.7232 12.2696C21.758 12.2661 21.7652 12.3164 21.7493 12.4507ZM13.0215 13.5733C12.857 13.6448 11.6334 14.4661 11.5531 14.5588C11.4032 14.7319 11.4354 15.0111 11.6223 15.158C11.6758 15.2002 12.3399 15.4411 13.0978 15.6934C14.604 16.1948 14.6079 16.1955 14.8126 15.9764C14.9428 15.837 14.9604 15.6455 14.8589 15.4736C14.7782 15.3371 14.7464 15.3224 13.926 15.0416C13.5601 14.9163 13.1767 14.7845 13.074 14.7486L12.8873 14.6833L13.1003 14.5308L13.3134 14.3782L14.8134 14.378C16.23 14.3779 16.3203 14.3736 16.4382 14.3018C16.6969 14.144 16.681 13.7205 16.4112 13.5857C16.2875 13.5239 16.1226 13.5174 14.7088 13.5188C13.48 13.5199 13.1171 13.5316 13.0215 13.5733Z" fill="#F26222"/>
<path fill-rule="evenodd" clip-rule="evenodd" d="M24.121 7.00377C24.0672 7.01312 23.8911 7.03977 23.7297 7.0629C23.3634 7.11546 22.7225 7.29838 22.2696 7.47962C21.8875 7.63257 21.7942 7.72681 21.7942 7.95982C21.7942 8.15457 21.8983 8.2998 22.0724 8.34786C22.1987 8.38273 22.2795 8.3661 22.7401 8.21065C23.4286 7.9783 23.8534 7.88531 24.3625 7.85549C25.0608 7.81459 25.54 7.961 25.8537 8.31103C26.0676 8.5498 26.1585 8.79887 26.1846 9.21704C26.2283 9.92067 25.9638 10.9454 25.435 12.1214L25.3323 12.3498L24.9853 11.8279C22.7169 8.41615 18.6586 6.83012 14.7423 7.82477C13.4429 8.1548 12.2017 8.77632 11.1278 9.63462C8.74336 11.5404 7.39758 14.5774 7.60492 17.5848C7.65553 18.3192 7.72214 18.7319 7.90032 19.4153C8.31658 21.012 9.10118 22.3917 10.2844 23.6079C10.915 24.2561 11.4901 24.7129 12.2995 25.2086L12.4341 25.291L12.0863 25.4517C11.2813 25.8235 10.4127 26.089 9.76148 26.1623C8.69541 26.2822 8.08579 25.924 7.8943 25.0654C7.77403 24.5261 7.89578 23.684 8.22813 22.7565C8.39348 22.2951 8.42033 22.1123 8.3381 22.0079C8.17494 21.8009 7.87755 21.7512 7.70484 21.9021C7.52912 22.0556 7.17583 23.1063 7.06332 23.81C6.83766 25.2209 7.22041 26.2678 8.12786 26.7218C8.4986 26.9073 8.79157 26.9791 9.28841 27.006C10.2175 27.0564 11.5089 26.6951 12.9085 25.993C13.343 25.775 13.3869 25.7608 13.4955 25.8041C14.1865 26.0791 15.1567 26.33 15.9416 26.4366C16.5416 26.5182 17.8152 26.4985 18.4449 26.398C21.5846 25.8968 24.1651 24.0082 25.5658 21.1865C26.2663 19.7754 26.5928 18.2596 26.535 16.6872C26.4943 15.5792 26.3423 14.8052 25.9541 13.7283L25.7974 13.2937L25.9791 12.9318C26.3431 12.2072 26.6811 11.3083 26.8408 10.6407C27.292 8.75366 26.7778 7.50408 25.3813 7.09335C25.1274 7.01868 24.352 6.96357 24.121 7.00377ZM17.851 8.42981C19.8439 8.63692 21.5855 9.43592 23.0225 10.8023C23.6705 11.4184 24.3421 12.3099 24.6939 13.0209L24.8384 13.3128L24.569 13.777C23.8145 15.0776 22.6466 16.6359 21.3083 18.1278C20.5673 18.9538 20.5205 19.0165 20.5205 19.1821C20.5205 19.3843 20.7314 19.5833 20.9457 19.5833C21.1476 19.5833 21.2196 19.5209 21.8827 18.7714C22.9779 17.5334 23.8359 16.4234 24.6907 15.1387L25.2499 14.2982L25.3144 14.5201C25.5918 15.4741 25.6615 15.9748 25.6624 17.0199C25.6632 17.9653 25.619 18.345 25.4138 19.1541C24.4059 23.1279 20.6029 25.895 16.5399 25.6109C15.6988 25.5521 14.3352 25.2743 14.4399 25.183C14.4586 25.1666 14.7469 24.9895 15.0806 24.7893C16.0389 24.2144 17.583 23.1287 17.78 22.8915C17.8503 22.8068 17.842 22.499 17.7663 22.3835C17.685 22.2594 17.4609 22.1865 17.3159 22.2371C17.2552 22.2582 17.0047 22.4308 16.7594 22.6206C15.9426 23.2524 14.9119 23.9295 13.8496 24.5323L13.3818 24.7977L13.0865 24.6517C12.924 24.5714 12.5937 24.3754 12.3524 24.2162C9.22712 22.1536 7.78515 18.3889 8.74046 14.7859C9.66153 11.3119 12.7473 8.73014 16.3525 8.41709C16.708 8.38621 17.4958 8.39291 17.851 8.42981ZM21.5967 11.4474C20.9332 11.5275 20.3088 11.7481 19.8255 12.0733C19.7234 12.1419 18.169 13.666 16.3711 15.4602L13.1022 18.7223H12.5504C12.2469 18.7223 11.9391 18.7339 11.8665 18.7481C11.7656 18.7678 11.6055 18.9009 11.1874 19.3125C10.6614 19.8303 10.6404 19.8572 10.6404 20.0108C10.6404 20.3058 10.7082 20.3414 12.2432 20.8507C12.9966 21.1007 13.6485 21.3053 13.6919 21.3053C13.7353 21.3053 14.2812 21.1015 14.9051 20.8525L16.0394 20.3998L16.7732 19.6691C17.1768 19.2671 17.507 18.9498 17.507 18.9638C17.507 19.015 18.407 21.8972 18.4454 21.9689C18.4671 22.0095 18.5318 22.0797 18.5891 22.1247C18.7076 22.218 18.8752 22.2058 19.1116 22.0867C19.2805 22.0016 20.0751 21.1929 20.129 21.0512C20.1537 20.9864 20.1683 20.0861 20.1683 18.6313V16.3147L21.0323 15.4541C21.916 14.5737 22.1653 14.2775 22.3593 13.8769C22.5996 13.3809 22.7506 12.6654 22.751 12.0208C22.7513 11.7006 22.7443 11.6711 22.6403 11.5549C22.5356 11.4376 22.5123 11.4302 22.2196 11.4202C22.0492 11.4143 21.7689 11.4266 21.5967 11.4474ZM21.7493 12.4507C21.707 12.8068 21.5766 13.2647 21.4345 13.5563C21.3044 13.8231 21.1955 13.9466 20.2406 14.9108L19.1899 15.9717V18.3376V20.7036L19.0752 20.8134L18.9606 20.9232L18.8219 20.4783C18.7456 20.2336 18.5336 19.549 18.3508 18.9571C18.0658 18.0341 18.0029 17.8683 17.9095 17.793C17.781 17.6894 17.6294 17.6808 17.4561 17.7673C17.3873 17.8016 16.9082 18.2496 16.3916 18.7626L15.4524 19.6954L14.5139 20.0699C13.9977 20.2758 13.5575 20.4448 13.5355 20.4455C13.4633 20.4478 11.7935 19.8774 11.7933 19.8505C11.7932 19.8359 11.8387 19.7699 11.8944 19.7037L11.9958 19.5833H12.6658H13.3358L16.7422 16.1849C20.0421 12.8929 20.1585 12.7816 20.4618 12.6271C20.8653 12.4215 21.2286 12.3186 21.7232 12.2696C21.758 12.2661 21.7652 12.3164 21.7493 12.4507ZM13.0215 13.5733C12.857 13.6448 11.6334 14.4661 11.5531 14.5588C11.4032 14.7319 11.4354 15.0111 11.6223 15.158C11.6758 15.2002 12.3399 15.4411 13.0978 15.6934C14.604 16.1948 14.6079 16.1955 14.8126 15.9764C14.9428 15.837 14.9604 15.6455 14.8589 15.4736C14.7782 15.3371 14.7464 15.3224 13.926 15.0416C13.5601 14.9163 13.1767 14.7845 13.074 14.7486L12.8873 14.6833L13.1003 14.5308L13.3134 14.3782L14.8134 14.378C16.23 14.3779 16.3203 14.3736 16.4382 14.3018C16.6969 14.144 16.681 13.7205 16.4112 13.5857C16.2875 13.5239 16.1226 13.5174 14.7088 13.5188C13.48 13.5199 13.1171 13.5316 13.0215 13.5733Z" stroke="#F26222" stroke-width="0.4" mask="url(#path-2-outside-1_1587_93133)"/>
</svg>
