<svg width="30" height="30" viewBox="0 0 30 30" fill="none" xmlns="http://www.w3.org/2000/svg">
<path fill-rule="evenodd" clip-rule="evenodd" d="M13.0371 10.0312V12.6562H10.3125V15.9902H13.0371V24.375H16.377V15.9902H18.9902L19.4062 12.6562H16.377V10.3594C16.377 9.39844 16.6348 8.73633 17.9766 8.73633H19.6875V5.75977C19.3945 5.71875 18.375 5.625 17.1914 5.625C14.7246 5.625 13.0371 7.17773 13.0371 10.0312Z" fill="#474747"/>
<path fill-rule="evenodd" clip-rule="evenodd" d="M0 15C0 6.71484 6.71484 0 15 0C23.2852 0 30 6.71484 30 15C30 23.2852 23.2852 30 15 30C6.71484 30 0 23.2852 0 15ZM15 28.2422C22.3125 28.2422 28.2422 22.3125 28.2422 15C28.2422 7.6875 22.3125 1.75781 15 1.75781C7.6875 1.75781 1.75781 7.6875 1.75781 15C1.75781 22.3125 7.6875 28.2422 15 28.2422Z" fill="#474747"/>
</svg>
