<svg width="14" height="14" viewBox="0 0 14 14" fill="none" xmlns="http://www.w3.org/2000/svg">
<path d="M6.9974 1.16699C5.46906 1.16699 4.22656 2.40949 4.22656 3.93783C4.22656 5.43699 5.39906 6.65033 6.9274 6.70283C6.97406 6.69699 7.02073 6.69699 7.05573 6.70283C7.0674 6.70283 7.07323 6.70283 7.0849 6.70283C7.09073 6.70283 7.09073 6.70283 7.09656 6.70283C8.5899 6.65033 9.7624 5.43699 9.76823 3.93783C9.76823 2.40949 8.52573 1.16699 6.9974 1.16699Z" fill="#999999"/>
<path d="M9.96063 8.25418C8.33313 7.16918 5.67896 7.16918 4.03979 8.25418C3.29896 8.75001 2.89062 9.42085 2.89062 10.1383C2.89062 10.8558 3.29896 11.5208 4.03396 12.0108C4.85063 12.5592 5.92396 12.8333 6.99729 12.8333C8.07063 12.8333 9.14396 12.5592 9.96063 12.0108C10.6956 11.515 11.104 10.85 11.104 10.1267C11.0981 9.40918 10.6956 8.74418 9.96063 8.25418Z" fill="#999999"/>
</svg>
