<svg width="34" height="34" viewBox="0 0 34 34" fill="none" xmlns="http://www.w3.org/2000/svg">
<rect width="34" height="34" rx="17" fill="#FEF2EC"/>
<mask id="path-2-outside-1_1587_93117" maskUnits="userSpaceOnUse" x="6" y="5.98926" width="22" height="22" fill="black">
<rect fill="white" x="6" y="5.98926" width="22" height="22"/>
<path fill-rule="evenodd" clip-rule="evenodd" d="M7.23465 7.0247C7.19163 7.04233 7.12124 7.09584 7.07822 7.14367C7.00043 7.2301 7 7.28567 7 17.0029V26.7752L7.10845 26.8836L7.21686 26.992L12.7511 27.0022C17.7263 27.0113 18.2973 27.0061 18.4045 26.9507C18.5993 26.85 18.6349 26.7022 18.6349 25.996V25.369H21.0793H23.5236V25.996C23.5236 27.0174 23.5172 27.0116 24.6656 27.0114C25.799 27.0112 25.7913 27.0184 25.7917 25.9654L25.7919 25.369H25.9307C26.1044 25.369 26.2689 25.2861 26.3315 25.167C26.3681 25.0973 26.3817 24.2661 26.3888 21.6536L26.3981 18.2316L26.5805 18.2198C26.795 18.206 26.9501 18.0779 26.9862 17.885C26.9989 17.8175 27.0037 17.4151 26.997 16.9907L26.9847 16.2191L26.8763 16.1107L26.7679 16.0024L23.0045 15.9828L19.2411 15.9633L19.2319 11.6222C19.2247 8.28229 19.2115 7.25998 19.1746 7.18974C19.0628 6.9771 19.3795 6.98754 13.1127 6.9902C9.92281 6.99157 7.27767 7.0071 7.23465 7.0247ZM12.6904 14.8487V21.8883H10.2461H7.80174V14.8487V7.80903H10.2461H12.6904V14.8487ZM18.4298 11.8861L18.4198 15.9633L16.8164 15.9828C15.9345 15.9936 15.1815 16.0177 15.143 16.0364C14.9814 16.1152 14.9587 16.2499 14.9587 17.1316V17.9714L15.0773 18.09C15.1844 18.1971 15.2235 18.2098 15.4782 18.2201L15.7604 18.2316L15.7697 21.6536C15.7768 24.2661 15.7904 25.0973 15.827 25.167C15.8896 25.2861 16.0541 25.369 16.2278 25.369H16.3666V25.7796V26.1903H14.9391H13.5117V16.9997V7.80903H15.9757H18.4397L18.4298 11.8861ZM11.0652 13.569C11.0547 13.5965 11.0508 13.9617 11.0567 14.3805L11.0673 15.142L11.4682 15.1531L11.8691 15.1643V14.3416V13.5189H11.4768C11.1942 13.5189 11.0791 13.5329 11.0652 13.569ZM14.3329 14.3402V15.1615H14.7436H15.1542V14.3402V13.5189H14.7436H14.3329V14.3402ZM26.183 17.0974V17.3907H20.9815H15.78V17.0974V16.8041H20.9815H26.183V17.0974ZM25.5572 19.5417V20.8714H21.0793H16.6013V19.5417V18.212H21.0793H25.5572V19.5417ZM20.4731 19.444V19.8546H21.0793H21.6854V19.444V19.0333H21.0793H20.4731V19.444ZM25.5572 23.1202V24.5477H21.0793H16.6013V23.1202V21.6927H21.0793H25.5572V23.1202ZM20.4731 22.9247V23.3353H21.0793H21.6854V22.9247V22.514H21.0793H20.4731V22.9247ZM12.6904 24.4499V26.1903H10.2461H7.80174V24.4499V22.7096H10.2461H12.6904V24.4499ZM9.63986 24.3717V24.7824H10.2461H10.8522V24.3717V23.9611H10.2461H9.63986V24.3717ZM17.8136 25.7796V26.1903H17.5008H17.1879V25.7796V25.369H17.5008H17.8136V25.7796ZM24.9706 25.7796V26.1903H24.6577H24.3449V25.7796V25.369H24.6577H24.9706V25.7796Z"/>
</mask>
<path fill-rule="evenodd" clip-rule="evenodd" d="M7.23465 7.0247C7.19163 7.04233 7.12124 7.09584 7.07822 7.14367C7.00043 7.2301 7 7.28567 7 17.0029V26.7752L7.10845 26.8836L7.21686 26.992L12.7511 27.0022C17.7263 27.0113 18.2973 27.0061 18.4045 26.9507C18.5993 26.85 18.6349 26.7022 18.6349 25.996V25.369H21.0793H23.5236V25.996C23.5236 27.0174 23.5172 27.0116 24.6656 27.0114C25.799 27.0112 25.7913 27.0184 25.7917 25.9654L25.7919 25.369H25.9307C26.1044 25.369 26.2689 25.2861 26.3315 25.167C26.3681 25.0973 26.3817 24.2661 26.3888 21.6536L26.3981 18.2316L26.5805 18.2198C26.795 18.206 26.9501 18.0779 26.9862 17.885C26.9989 17.8175 27.0037 17.4151 26.997 16.9907L26.9847 16.2191L26.8763 16.1107L26.7679 16.0024L23.0045 15.9828L19.2411 15.9633L19.2319 11.6222C19.2247 8.28229 19.2115 7.25998 19.1746 7.18974C19.0628 6.9771 19.3795 6.98754 13.1127 6.9902C9.92281 6.99157 7.27767 7.0071 7.23465 7.0247ZM12.6904 14.8487V21.8883H10.2461H7.80174V14.8487V7.80903H10.2461H12.6904V14.8487ZM18.4298 11.8861L18.4198 15.9633L16.8164 15.9828C15.9345 15.9936 15.1815 16.0177 15.143 16.0364C14.9814 16.1152 14.9587 16.2499 14.9587 17.1316V17.9714L15.0773 18.09C15.1844 18.1971 15.2235 18.2098 15.4782 18.2201L15.7604 18.2316L15.7697 21.6536C15.7768 24.2661 15.7904 25.0973 15.827 25.167C15.8896 25.2861 16.0541 25.369 16.2278 25.369H16.3666V25.7796V26.1903H14.9391H13.5117V16.9997V7.80903H15.9757H18.4397L18.4298 11.8861ZM11.0652 13.569C11.0547 13.5965 11.0508 13.9617 11.0567 14.3805L11.0673 15.142L11.4682 15.1531L11.8691 15.1643V14.3416V13.5189H11.4768C11.1942 13.5189 11.0791 13.5329 11.0652 13.569ZM14.3329 14.3402V15.1615H14.7436H15.1542V14.3402V13.5189H14.7436H14.3329V14.3402ZM26.183 17.0974V17.3907H20.9815H15.78V17.0974V16.8041H20.9815H26.183V17.0974ZM25.5572 19.5417V20.8714H21.0793H16.6013V19.5417V18.212H21.0793H25.5572V19.5417ZM20.4731 19.444V19.8546H21.0793H21.6854V19.444V19.0333H21.0793H20.4731V19.444ZM25.5572 23.1202V24.5477H21.0793H16.6013V23.1202V21.6927H21.0793H25.5572V23.1202ZM20.4731 22.9247V23.3353H21.0793H21.6854V22.9247V22.514H21.0793H20.4731V22.9247ZM12.6904 24.4499V26.1903H10.2461H7.80174V24.4499V22.7096H10.2461H12.6904V24.4499ZM9.63986 24.3717V24.7824H10.2461H10.8522V24.3717V23.9611H10.2461H9.63986V24.3717ZM17.8136 25.7796V26.1903H17.5008H17.1879V25.7796V25.369H17.5008H17.8136V25.7796ZM24.9706 25.7796V26.1903H24.6577H24.3449V25.7796V25.369H24.6577H24.9706V25.7796Z" fill="#F26222"/>
<path fill-rule="evenodd" clip-rule="evenodd" d="M7.23465 7.0247C7.19163 7.04233 7.12124 7.09584 7.07822 7.14367C7.00043 7.2301 7 7.28567 7 17.0029V26.7752L7.10845 26.8836L7.21686 26.992L12.7511 27.0022C17.7263 27.0113 18.2973 27.0061 18.4045 26.9507C18.5993 26.85 18.6349 26.7022 18.6349 25.996V25.369H21.0793H23.5236V25.996C23.5236 27.0174 23.5172 27.0116 24.6656 27.0114C25.799 27.0112 25.7913 27.0184 25.7917 25.9654L25.7919 25.369H25.9307C26.1044 25.369 26.2689 25.2861 26.3315 25.167C26.3681 25.0973 26.3817 24.2661 26.3888 21.6536L26.3981 18.2316L26.5805 18.2198C26.795 18.206 26.9501 18.0779 26.9862 17.885C26.9989 17.8175 27.0037 17.4151 26.997 16.9907L26.9847 16.2191L26.8763 16.1107L26.7679 16.0024L23.0045 15.9828L19.2411 15.9633L19.2319 11.6222C19.2247 8.28229 19.2115 7.25998 19.1746 7.18974C19.0628 6.9771 19.3795 6.98754 13.1127 6.9902C9.92281 6.99157 7.27767 7.0071 7.23465 7.0247ZM12.6904 14.8487V21.8883H10.2461H7.80174V14.8487V7.80903H10.2461H12.6904V14.8487ZM18.4298 11.8861L18.4198 15.9633L16.8164 15.9828C15.9345 15.9936 15.1815 16.0177 15.143 16.0364C14.9814 16.1152 14.9587 16.2499 14.9587 17.1316V17.9714L15.0773 18.09C15.1844 18.1971 15.2235 18.2098 15.4782 18.2201L15.7604 18.2316L15.7697 21.6536C15.7768 24.2661 15.7904 25.0973 15.827 25.167C15.8896 25.2861 16.0541 25.369 16.2278 25.369H16.3666V25.7796V26.1903H14.9391H13.5117V16.9997V7.80903H15.9757H18.4397L18.4298 11.8861ZM11.0652 13.569C11.0547 13.5965 11.0508 13.9617 11.0567 14.3805L11.0673 15.142L11.4682 15.1531L11.8691 15.1643V14.3416V13.5189H11.4768C11.1942 13.5189 11.0791 13.5329 11.0652 13.569ZM14.3329 14.3402V15.1615H14.7436H15.1542V14.3402V13.5189H14.7436H14.3329V14.3402ZM26.183 17.0974V17.3907H20.9815H15.78V17.0974V16.8041H20.9815H26.183V17.0974ZM25.5572 19.5417V20.8714H21.0793H16.6013V19.5417V18.212H21.0793H25.5572V19.5417ZM20.4731 19.444V19.8546H21.0793H21.6854V19.444V19.0333H21.0793H20.4731V19.444ZM25.5572 23.1202V24.5477H21.0793H16.6013V23.1202V21.6927H21.0793H25.5572V23.1202ZM20.4731 22.9247V23.3353H21.0793H21.6854V22.9247V22.514H21.0793H20.4731V22.9247ZM12.6904 24.4499V26.1903H10.2461H7.80174V24.4499V22.7096H10.2461H12.6904V24.4499ZM9.63986 24.3717V24.7824H10.2461H10.8522V24.3717V23.9611H10.2461H9.63986V24.3717ZM17.8136 25.7796V26.1903H17.5008H17.1879V25.7796V25.369H17.5008H17.8136V25.7796ZM24.9706 25.7796V26.1903H24.6577H24.3449V25.7796V25.369H24.6577H24.9706V25.7796Z" stroke="#F26222" stroke-width="0.4" mask="url(#path-2-outside-1_1587_93117)"/>
</svg>
