<svg width="34" height="34" viewBox="0 0 34 34" fill="none" xmlns="http://www.w3.org/2000/svg">
<rect width="34" height="34" rx="17" fill="#FEF2EC"/>
<path fill-rule="evenodd" clip-rule="evenodd" d="M13.3266 9.91295C11.2876 10.1743 9.49486 11.3815 8.45521 13.1931C7.94633 14.08 7.79897 14.6293 7.4693 16.8684C7.05727 19.667 7.00399 20.1097 7.00019 20.7671C6.99611 21.4733 7.05732 21.7555 7.33876 22.3289C7.48594 22.6289 7.60342 22.7863 7.90893 23.0929C8.62003 23.8067 9.4014 24.1278 10.4187 24.1242C11.4903 24.1204 12.4368 23.6432 13.0321 22.8065C13.1395 22.6556 13.5264 21.9339 13.8918 21.2027L14.5561 19.8734H16.995H19.4339L20.0983 21.2027C20.4637 21.9339 20.8505 22.6556 20.9579 22.8065C21.892 24.1192 23.7102 24.5113 25.2424 23.7305C25.5743 23.5614 25.7286 23.445 26.0584 23.1151C26.3878 22.7856 26.5004 22.6363 26.6507 22.3297C27.0623 21.4902 27.0883 21.0909 26.8427 19.3819C26.742 18.6815 26.569 17.4228 26.4582 16.5849C26.2058 14.6761 26.0452 14.0853 25.5361 13.1931C24.4917 11.3625 22.7047 10.1583 20.6646 9.9104C20.2101 9.85517 13.7599 9.85741 13.3266 9.91295ZM20.6464 11.3618C21.7375 11.5476 22.6341 12.0167 23.3991 12.8022C24.1448 13.5678 24.5501 14.3493 24.7772 15.4593C24.876 15.9419 25.1801 17.8958 25.4329 19.6723C25.621 20.9937 25.6147 21.1749 25.3627 21.6862C24.782 22.8642 23.0264 23.0928 22.2146 22.0962C22.1296 21.9918 21.7074 21.2013 21.2762 20.3394C20.4465 18.6808 20.3412 18.523 20.0269 18.4662C19.9464 18.4517 18.5282 18.4456 16.8753 18.4528C13.9313 18.4656 13.8674 18.4677 13.7437 18.5571C13.6525 18.623 13.3813 19.1129 12.7674 20.3209C11.8224 22.1803 11.7258 22.3219 11.2387 22.5615C10.6714 22.8404 9.86537 22.7824 9.31014 22.4226C8.82206 22.1064 8.53435 21.6787 8.44555 21.1375C8.39903 20.8541 8.42113 20.6512 8.77996 18.0637C8.9913 16.54 9.20617 15.1425 9.25749 14.9582C9.38038 14.5167 9.68571 13.8782 9.97127 13.4656C10.2602 13.0482 10.939 12.3886 11.3589 12.1173C11.9452 11.7385 12.5836 11.4861 13.2595 11.3659C13.8051 11.2688 20.0799 11.2654 20.6464 11.3618ZM13.0678 12.8129C12.7893 12.9392 12.7025 13.1536 12.7013 13.7183L12.7003 14.1539L12.2641 14.1549C11.6987 14.1562 11.4841 14.2429 11.3576 14.521C11.1799 14.9122 11.3034 15.3441 11.6362 15.495C11.7834 15.5617 11.9292 15.5821 12.2641 15.5828L12.7003 15.5838L12.7013 16.0195C12.7025 16.5842 12.7893 16.7986 13.0678 16.9248C13.3108 17.035 13.5213 17.035 13.7643 16.9248C14.0428 16.7986 14.1296 16.5842 14.1309 16.0195L14.1319 15.5838L14.568 15.5828C15.1334 15.5816 15.3481 15.4948 15.4745 15.2167C15.6522 14.8255 15.5287 14.3936 15.1959 14.2428C15.0487 14.176 14.9029 14.1557 14.568 14.1549L14.1319 14.1539L14.1309 13.7183C14.1296 13.1536 14.0428 12.9392 13.7643 12.8129C13.5213 12.7028 13.3108 12.7028 13.0678 12.8129ZM20.2258 12.8129C20.0795 12.8792 20.0135 12.9451 19.9471 13.0912C19.7694 13.4823 19.893 13.9142 20.2258 14.0651C20.6174 14.2426 21.0498 14.1192 21.2009 13.7868C21.3111 13.5441 21.3111 13.3339 21.2009 13.0912C21.0498 12.7588 20.6174 12.6354 20.2258 12.8129ZM18.7942 14.2428C18.6479 14.3091 18.5819 14.3749 18.5156 14.521C18.3378 14.9122 18.4614 15.3441 18.7942 15.495C19.1858 15.6725 19.6182 15.5491 19.7693 15.2167C19.8795 14.974 19.8795 14.7637 19.7693 14.521C19.6182 14.1886 19.1858 14.0652 18.7942 14.2428ZM21.6574 14.2428C21.5111 14.3091 21.4451 14.3749 21.3787 14.521C21.201 14.9122 21.3246 15.3441 21.6574 15.495C22.049 15.6725 22.4814 15.5491 22.6324 15.2167C22.7427 14.974 22.7427 14.7637 22.6324 14.521C22.4814 14.1886 22.049 14.0652 21.6574 14.2428ZM20.2258 15.6726C20.0795 15.7389 20.0135 15.8048 19.9471 15.9509C19.7694 16.3421 19.893 16.774 20.2258 16.9248C20.6174 17.1024 21.0498 16.9789 21.2009 16.6465C21.3111 16.4039 21.3111 16.1936 21.2009 15.9509C21.0498 15.6185 20.6174 15.4951 20.2258 15.6726Z" fill="#F26222"/>
</svg>
