<svg width="14" height="14" viewBox="0 0 14 14" fill="none" xmlns="http://www.w3.org/2000/svg">
<path d="M12.8442 9.81182L11.0184 5.54182C10.6859 4.76015 10.1901 4.31682 9.62423 4.28765C9.06423 4.25849 8.52173 4.64932 8.10756 5.39599L6.99923 7.38515C6.76589 7.80515 6.43339 8.05599 6.07173 8.08515C5.70423 8.12015 5.33673 7.92765 5.03923 7.54849L4.91089 7.38515C4.49673 6.86599 3.98339 6.61515 3.45839 6.66765C2.93339 6.72016 2.48423 7.08182 2.18673 7.67099L1.17756 9.68349C0.815892 10.4127 0.850893 11.2585 1.27673 11.9468C1.70256 12.6352 2.44339 13.0493 3.25423 13.0493H10.6976C11.4792 13.0493 12.2084 12.6585 12.6401 12.0052C13.0834 11.3518 13.1534 10.5293 12.8442 9.81182Z" fill="white"/>
<path d="M4.06542 4.88865C5.15434 4.88865 6.03708 4.0059 6.03708 2.91698C6.03708 1.82806 5.15434 0.945312 4.06542 0.945312C2.9765 0.945312 2.09375 1.82806 2.09375 2.91698C2.09375 4.0059 2.9765 4.88865 4.06542 4.88865Z" fill="white"/>
</svg>
