<svg width="66" height="13" viewBox="0 0 66 13" fill="none" xmlns="http://www.w3.org/2000/svg">
<path d="M7.32812 10.1719V12H1.60156V10.1719H7.32812ZM2.35938 0.625V12H0.015625V0.625H2.35938ZM10.9062 3.54688V12H8.64844V3.54688H10.9062ZM8.50781 1.34375C8.50781 1.01562 8.6224 0.744792 8.85156 0.53125C9.08073 0.317708 9.38802 0.210938 9.77344 0.210938C10.1536 0.210938 10.4583 0.317708 10.6875 0.53125C10.9219 0.744792 11.0391 1.01562 11.0391 1.34375C11.0391 1.67188 10.9219 1.94271 10.6875 2.15625C10.4583 2.36979 10.1536 2.47656 9.77344 2.47656C9.38802 2.47656 9.08073 2.36979 8.85156 2.15625C8.6224 1.94271 8.50781 1.67188 8.50781 1.34375ZM15.6406 10.3594L17.5156 3.54688H19.8672L17.0156 12H15.5938L15.6406 10.3594ZM14.3516 3.54688L16.2344 10.3672L16.2734 12H14.8438L11.9922 3.54688H14.3516ZM24.6562 12.1562C24 12.1562 23.4115 12.0521 22.8906 11.8438C22.3698 11.6302 21.9271 11.3359 21.5625 10.9609C21.2031 10.5859 20.9271 10.151 20.7344 9.65625C20.5417 9.15625 20.4453 8.625 20.4453 8.0625V7.75C20.4453 7.10938 20.5365 6.52344 20.7188 5.99219C20.901 5.46094 21.1615 5 21.5 4.60938C21.8438 4.21875 22.2604 3.91927 22.75 3.71094C23.2396 3.4974 23.7917 3.39062 24.4062 3.39062C25.0052 3.39062 25.5365 3.48958 26 3.6875C26.4635 3.88542 26.8516 4.16667 27.1641 4.53125C27.4818 4.89583 27.7214 5.33333 27.8828 5.84375C28.0443 6.34896 28.125 6.91146 28.125 7.53125V8.46875H21.4062V6.96875H25.9141V6.79688C25.9141 6.48438 25.8568 6.20573 25.7422 5.96094C25.6328 5.71094 25.4661 5.51302 25.2422 5.36719C25.0182 5.22135 24.7318 5.14844 24.3828 5.14844C24.0859 5.14844 23.8307 5.21354 23.6172 5.34375C23.4036 5.47396 23.2292 5.65625 23.0938 5.89062C22.9635 6.125 22.8646 6.40104 22.7969 6.71875C22.7344 7.03125 22.7031 7.375 22.7031 7.75V8.0625C22.7031 8.40104 22.75 8.71354 22.8438 9C22.9427 9.28646 23.0807 9.53385 23.2578 9.74219C23.4401 9.95052 23.6589 10.112 23.9141 10.2266C24.1745 10.3411 24.4688 10.3984 24.7969 10.3984C25.2031 10.3984 25.5807 10.3203 25.9297 10.1641C26.2839 10.0026 26.5885 9.76042 26.8438 9.4375L27.9375 10.625C27.7604 10.8802 27.5182 11.125 27.2109 11.3594C26.9089 11.5938 26.5443 11.7865 26.1172 11.9375C25.6901 12.0833 25.2031 12.1562 24.6562 12.1562ZM40.125 8.22656H42.4609C42.4141 8.99219 42.2031 9.67188 41.8281 10.2656C41.4583 10.8594 40.9401 11.3229 40.2734 11.6562C39.612 11.9896 38.8151 12.1562 37.8828 12.1562C37.1536 12.1562 36.5 12.0312 35.9219 11.7812C35.3438 11.526 34.849 11.1615 34.4375 10.6875C34.0312 10.2135 33.7214 9.64062 33.5078 8.96875C33.2943 8.29688 33.1875 7.54427 33.1875 6.71094V5.92188C33.1875 5.08854 33.2969 4.33594 33.5156 3.66406C33.7396 2.98698 34.0573 2.41146 34.4688 1.9375C34.8854 1.46354 35.3828 1.09896 35.9609 0.84375C36.5391 0.588542 37.1849 0.460938 37.8984 0.460938C38.8464 0.460938 39.6458 0.632812 40.2969 0.976562C40.9531 1.32031 41.4609 1.79427 41.8203 2.39844C42.1849 3.0026 42.4036 3.6901 42.4766 4.46094H40.1328C40.1068 4.0026 40.0156 3.61458 39.8594 3.29688C39.7031 2.97396 39.4661 2.73177 39.1484 2.57031C38.8359 2.40365 38.4193 2.32031 37.8984 2.32031C37.5078 2.32031 37.1667 2.39323 36.875 2.53906C36.5833 2.6849 36.3385 2.90625 36.1406 3.20312C35.9427 3.5 35.7943 3.875 35.6953 4.32812C35.6016 4.77604 35.5547 5.30208 35.5547 5.90625V6.71094C35.5547 7.29948 35.599 7.81771 35.6875 8.26562C35.776 8.70833 35.9115 9.08333 36.0938 9.39062C36.2812 9.69271 36.5208 9.92188 36.8125 10.0781C37.1094 10.2292 37.4661 10.3047 37.8828 10.3047C38.3724 10.3047 38.776 10.2266 39.0938 10.0703C39.4115 9.91406 39.6536 9.68229 39.8203 9.375C39.9922 9.06771 40.0938 8.6849 40.125 8.22656ZM46.0547 0V12H43.8047V0H46.0547ZM45.7344 7.47656H45.1172C45.1224 6.88802 45.2005 6.34635 45.3516 5.85156C45.5026 5.35156 45.7188 4.91927 46 4.55469C46.2812 4.1849 46.6172 3.89844 47.0078 3.69531C47.4036 3.49219 47.8411 3.39062 48.3203 3.39062C48.737 3.39062 49.1146 3.45052 49.4531 3.57031C49.7969 3.6849 50.0911 3.8724 50.3359 4.13281C50.5859 4.38802 50.7786 4.72396 50.9141 5.14062C51.0495 5.55729 51.1172 6.0625 51.1172 6.65625V12H48.8516V6.64062C48.8516 6.26562 48.7969 5.97135 48.6875 5.75781C48.5833 5.53906 48.4297 5.38542 48.2266 5.29688C48.0286 5.20312 47.7839 5.15625 47.4922 5.15625C47.1693 5.15625 46.8932 5.21615 46.6641 5.33594C46.4401 5.45573 46.2604 5.6224 46.125 5.83594C45.9896 6.04427 45.8906 6.28906 45.8281 6.57031C45.7656 6.85156 45.7344 7.15365 45.7344 7.47656ZM57.3906 10.0938V6.32812C57.3906 6.05729 57.3464 5.82552 57.2578 5.63281C57.1693 5.4349 57.0312 5.28125 56.8438 5.17188C56.6615 5.0625 56.4245 5.00781 56.1328 5.00781C55.8828 5.00781 55.6667 5.05208 55.4844 5.14062C55.3021 5.22396 55.1615 5.34635 55.0625 5.50781C54.9635 5.66406 54.9141 5.84896 54.9141 6.0625H52.6641C52.6641 5.70312 52.7474 5.36198 52.9141 5.03906C53.0807 4.71615 53.3229 4.43229 53.6406 4.1875C53.9583 3.9375 54.3359 3.74219 54.7734 3.60156C55.2161 3.46094 55.7109 3.39062 56.2578 3.39062C56.9141 3.39062 57.4974 3.5 58.0078 3.71875C58.5182 3.9375 58.9193 4.26562 59.2109 4.70312C59.5078 5.14062 59.6562 5.6875 59.6562 6.34375V9.96094C59.6562 10.4245 59.6849 10.8047 59.7422 11.1016C59.7995 11.3932 59.8828 11.6484 59.9922 11.8672V12H57.7188C57.6094 11.7708 57.526 11.4844 57.4688 11.1406C57.4167 10.7917 57.3906 10.4427 57.3906 10.0938ZM57.6875 6.85156L57.7031 8.125H56.4453C56.1484 8.125 55.8906 8.15885 55.6719 8.22656C55.4531 8.29427 55.2734 8.39062 55.1328 8.51562C54.9922 8.63542 54.888 8.77604 54.8203 8.9375C54.7578 9.09896 54.7266 9.27604 54.7266 9.46875C54.7266 9.66146 54.7708 9.83594 54.8594 9.99219C54.9479 10.1432 55.0755 10.263 55.2422 10.3516C55.4089 10.4349 55.6042 10.4766 55.8281 10.4766C56.1667 10.4766 56.4609 10.4089 56.7109 10.2734C56.9609 10.138 57.1536 9.97135 57.2891 9.77344C57.4297 9.57552 57.5026 9.38802 57.5078 9.21094L58.1016 10.1641C58.0182 10.3776 57.9036 10.599 57.7578 10.8281C57.6172 11.0573 57.4375 11.2734 57.2188 11.4766C57 11.6745 56.737 11.8385 56.4297 11.9688C56.1224 12.0938 55.7578 12.1562 55.3359 12.1562C54.7995 12.1562 54.3125 12.0495 53.875 11.8359C53.4427 11.6172 53.099 11.3177 52.8438 10.9375C52.5938 10.5521 52.4688 10.1146 52.4688 9.625C52.4688 9.18229 52.5521 8.78906 52.7188 8.44531C52.8854 8.10156 53.1302 7.8125 53.4531 7.57812C53.7812 7.33854 54.1901 7.15885 54.6797 7.03906C55.1693 6.91406 55.737 6.85156 56.3828 6.85156H57.6875ZM65.5312 3.54688V5.14062H60.6094V3.54688H65.5312ZM61.8281 1.46094H64.0781V9.45312C64.0781 9.69792 64.1094 9.88542 64.1719 10.0156C64.2396 10.1458 64.3385 10.237 64.4688 10.2891C64.599 10.3359 64.763 10.3594 64.9609 10.3594C65.1016 10.3594 65.2266 10.3542 65.3359 10.3438C65.4505 10.3281 65.5469 10.3125 65.625 10.2969L65.6328 11.9531C65.4401 12.0156 65.2318 12.0651 65.0078 12.1016C64.7839 12.138 64.5365 12.1562 64.2656 12.1562C63.7708 12.1562 63.3385 12.0755 62.9688 11.9141C62.6042 11.7474 62.3229 11.4818 62.125 11.1172C61.9271 10.7526 61.8281 10.2734 61.8281 9.67969V1.46094Z" fill="url(#paint0_linear_1445_79698)"/>
<defs>
<linearGradient id="paint0_linear_1445_79698" x1="32.5" y1="-3" x2="32.5" y2="16" gradientUnits="userSpaceOnUse">
<stop stop-color="#4250C2"/>
<stop offset="1" stop-color="#069AFA"/>
</linearGradient>
</defs>
</svg>
