<svg width="12" height="12" viewBox="0 0 12 12" fill="none" xmlns="http://www.w3.org/2000/svg">
<path d="M11.0286 3.92884C10.4161 1.23384 8.0653 0.0205078 6.0003 0.0205078C6.0003 0.0205078 6.0003 0.0205078 5.99447 0.0205078C3.9353 0.0205078 1.57863 1.22801 0.966133 3.92301C0.283633 6.93301 2.12697 9.48217 3.7953 11.0863C4.41363 11.6813 5.20697 11.9788 6.0003 11.9788C6.79363 11.9788 7.58697 11.6813 8.19947 11.0863C9.8678 9.48217 11.7111 6.93884 11.0286 3.92884ZM6.0003 6.85134C4.9853 6.85134 4.1628 6.02884 4.1628 5.01384C4.1628 3.99884 4.9853 3.17634 6.0003 3.17634C7.0153 3.17634 7.8378 3.99884 7.8378 5.01384C7.8378 6.02884 7.0153 6.85134 6.0003 6.85134Z" fill="#999999"/>
</svg>
