<svg width="185" height="40" viewBox="0 0 185 40" fill="none" xmlns="http://www.w3.org/2000/svg">
<path d="M43.7018 36.7744V30.3361C43.7018 29.863 43.62 29.4544 43.4565 29.1104C43.293 28.7663 43.0434 28.4996 42.7078 28.3104C42.3722 28.1212 41.9462 28.0266 41.4299 28.0266C40.9737 28.0266 40.5736 28.104 40.2293 28.2588C39.8937 28.4136 39.6355 28.633 39.4548 28.9168C39.2741 29.1921 39.1837 29.5103 39.1837 29.8716H35.7629C35.7629 29.2953 35.9006 28.7491 36.176 28.233C36.4514 27.7083 36.843 27.2438 37.3507 26.8395C37.8671 26.4267 38.4824 26.1041 39.1966 25.8718C39.9195 25.6396 40.7285 25.5235 41.6235 25.5235C42.682 25.5235 43.6243 25.7041 44.4505 26.0654C45.2853 26.418 45.9393 26.9514 46.4126 27.6653C46.8945 28.3792 47.1355 29.2781 47.1355 30.3619V36.4518C47.1355 37.1486 47.1785 37.7464 47.2646 38.2453C47.3592 38.7356 47.4969 39.1613 47.6777 39.5226V39.742H44.2052C44.0417 39.3893 43.9169 38.942 43.8309 38.4001C43.7448 37.8496 43.7018 37.3077 43.7018 36.7744ZM44.1794 31.2393L44.2052 33.2649H42.0495C41.5159 33.2649 41.0469 33.3208 40.6424 33.4327C40.2379 33.5359 39.9066 33.6907 39.6485 33.8972C39.3903 34.095 39.1966 34.3358 39.0676 34.6197C38.9385 34.8949 38.8739 35.2089 38.8739 35.5616C38.8739 35.9056 38.9514 36.2153 39.1063 36.4905C39.2698 36.7658 39.5022 36.9851 39.8034 37.1486C40.1132 37.3034 40.4746 37.3808 40.8877 37.3808C41.4901 37.3808 42.015 37.2604 42.4625 37.0195C42.9101 36.7701 43.2586 36.469 43.5082 36.1164C43.7577 35.7637 43.8911 35.4282 43.9083 35.11L44.8894 36.5809C44.7689 36.9335 44.5882 37.3077 44.3472 37.7034C44.1063 38.099 43.7964 38.4689 43.4178 38.813C43.0391 39.157 42.583 39.4409 42.0495 39.6645C41.5159 39.8882 40.8963 40 40.1906 40C39.287 40 38.4781 39.8194 37.7638 39.4581C37.0495 39.0968 36.4858 38.6022 36.0727 37.9743C35.6597 37.3464 35.4531 36.6325 35.4531 35.8325C35.4531 35.0928 35.5908 34.4391 35.8662 33.8714C36.1416 33.3036 36.5504 32.8263 37.0925 32.4392C37.6347 32.0435 38.3059 31.7468 39.1063 31.5489C39.9152 31.3425 40.8404 31.2393 41.8817 31.2393H44.1794Z" fill="white"/>
<path d="M49.6011 32.9037V32.6327C49.6011 31.6091 49.7474 30.6672 50.04 29.8071C50.3326 28.9383 50.7585 28.1857 51.3179 27.5492C51.8773 26.9126 52.5615 26.418 53.3704 26.0654C54.1793 25.7041 55.1002 25.5235 56.1329 25.5235C57.1828 25.5235 58.1122 25.7041 58.9211 26.0654C59.7387 26.418 60.4272 26.9126 60.9865 27.5492C61.5459 28.1857 61.9719 28.9383 62.2645 29.8071C62.5571 30.6672 62.7034 31.6091 62.7034 32.6327V32.9037C62.7034 33.9187 62.5571 34.8605 62.2645 35.7293C61.9719 36.5895 61.5459 37.3421 60.9865 37.9872C60.4272 38.6237 59.743 39.1183 58.9341 39.471C58.1251 39.8237 57.2 40 56.1587 40C55.126 40 54.2009 39.8237 53.3833 39.471C52.5658 39.1183 51.8773 38.6237 51.3179 37.9872C50.7585 37.3421 50.3326 36.5895 50.04 35.7293C49.7474 34.8605 49.6011 33.9187 49.6011 32.9037ZM53.009 32.6327V32.9037C53.009 33.5144 53.0692 34.0864 53.1897 34.6197C53.3102 35.153 53.4952 35.6218 53.7448 36.0261C53.9943 36.4303 54.317 36.7486 54.7129 36.9808C55.1174 37.2045 55.5993 37.3163 56.1587 37.3163C56.7095 37.3163 57.1828 37.2045 57.5786 36.9808C57.9745 36.7486 58.2972 36.4303 58.5468 36.0261C58.805 35.6218 58.9943 35.153 59.1148 34.6197C59.2353 34.0864 59.2955 33.5144 59.2955 32.9037V32.6327C59.2955 32.0306 59.2353 31.4672 59.1148 30.9425C58.9943 30.4092 58.805 29.9404 58.5468 29.5361C58.2972 29.1233 57.9702 28.8007 57.5657 28.5685C57.1699 28.3276 56.6922 28.2072 56.1329 28.2072C55.5821 28.2072 55.1088 28.3276 54.7129 28.5685C54.317 28.8007 53.9943 29.1233 53.7448 29.5361C53.4952 29.9404 53.3102 30.4092 53.1897 30.9425C53.0692 31.4672 53.009 32.0306 53.009 32.6327Z" fill="white"/>
<path d="M80.5432 20.956V39.742H76.9804L68.9899 26.7105V39.742H65.44V20.956H68.9899L77.0062 34.0004V20.956H80.5432Z" fill="white"/>
<path d="M87.2428 19.9238V39.742H83.822V19.9238H87.2428ZM86.7007 32.2585H85.6938C85.6938 31.2866 85.8229 30.392 86.081 29.5748C86.3392 28.7577 86.705 28.0481 87.1783 27.4459C87.6516 26.8352 88.2153 26.3621 88.8693 26.0267C89.532 25.6912 90.2635 25.5235 91.0638 25.5235C91.7523 25.5235 92.3762 25.6224 92.9356 25.8202C93.5036 26.0095 93.9898 26.3148 94.3942 26.7363C94.7987 27.1578 95.1085 27.7083 95.3237 28.3878C95.5474 29.0587 95.6593 29.8759 95.6593 30.8393V39.742H92.2256V30.8135C92.2256 30.1684 92.1309 29.6609 91.9416 29.291C91.7523 28.9125 91.4812 28.6416 91.1283 28.4781C90.7841 28.3147 90.3581 28.233 89.8504 28.233C89.2996 28.233 88.8263 28.3405 88.4304 28.5556C88.0346 28.762 87.7075 29.0501 87.4494 29.42C87.1998 29.7899 87.0105 30.2157 86.8814 30.6974C86.7609 31.179 86.7007 31.6994 86.7007 32.2585Z" fill="white"/>
<path d="M106.361 36.7744V30.3361C106.361 29.863 106.279 29.4544 106.115 29.1104C105.952 28.7663 105.702 28.4996 105.367 28.3104C105.031 28.1212 104.605 28.0266 104.089 28.0266C103.633 28.0266 103.232 28.104 102.888 28.2588C102.553 28.4136 102.294 28.633 102.114 28.9168C101.933 29.1921 101.843 29.5103 101.843 29.8716H98.4218C98.4218 29.2953 98.5595 28.7491 98.8348 28.233C99.1102 27.7083 99.5018 27.2438 100.01 26.8395C100.526 26.4267 101.141 26.1041 101.855 25.8718C102.578 25.6396 103.387 25.5235 104.282 25.5235C105.341 25.5235 106.283 25.7041 107.109 26.0654C107.944 26.418 108.598 26.9514 109.071 27.6653C109.553 28.3792 109.794 29.2781 109.794 30.3619V36.4518C109.794 37.1486 109.837 37.7464 109.923 38.2453C110.018 38.7356 110.156 39.1613 110.336 39.5226V39.742H106.864C106.701 39.3893 106.576 38.942 106.49 38.4001C106.404 37.8496 106.361 37.3077 106.361 36.7744ZM106.838 31.2393L106.864 33.2649H104.708C104.175 33.2649 103.706 33.3208 103.301 33.4327C102.897 33.5359 102.565 33.6907 102.307 33.8972C102.049 34.095 101.855 34.3358 101.726 34.6197C101.597 34.8949 101.533 35.2089 101.533 35.5616C101.533 35.9056 101.61 36.2153 101.765 36.4905C101.929 36.7658 102.161 36.9851 102.462 37.1486C102.772 37.3034 103.133 37.3808 103.547 37.3808C104.149 37.3808 104.674 37.2604 105.121 37.0195C105.569 36.7701 105.917 36.469 106.167 36.1164C106.417 35.7637 106.55 35.4282 106.567 35.11L107.548 36.5809C107.428 36.9335 107.247 37.3077 107.006 37.7034C106.765 38.099 106.455 38.4689 106.077 38.813C105.698 39.157 105.242 39.4409 104.708 39.6645C104.175 39.8882 103.555 40 102.849 40C101.946 40 101.137 39.8194 100.423 39.4581C99.7083 39.0968 99.1447 38.6022 98.7316 37.9743C98.3185 37.3464 98.112 36.6325 98.112 35.8325C98.112 35.0928 98.2496 34.4391 98.525 33.8714C98.8004 33.3036 99.2092 32.8263 99.7514 32.4392C100.294 32.0435 100.965 31.7468 101.765 31.5489C102.574 31.3425 103.499 31.2393 104.54 31.2393H106.838Z" fill="white"/>
<path d="M116.21 28.762V39.742H112.802V25.7815H116.003L116.21 28.762ZM115.668 32.2585H114.661C114.67 31.2436 114.807 30.3232 115.074 29.4974C115.341 28.6717 115.715 27.962 116.197 27.3685C116.688 26.775 117.268 26.3191 117.94 26.0009C118.611 25.6826 119.36 25.5235 120.186 25.5235C120.857 25.5235 121.464 25.6181 122.006 25.8073C122.548 25.9966 123.013 26.2976 123.4 26.7105C123.796 27.1234 124.097 27.6653 124.304 28.3362C124.519 28.9985 124.626 29.8157 124.626 30.7877V39.742H121.193V30.7619C121.193 30.1253 121.098 29.6222 120.909 29.2523C120.728 28.8824 120.461 28.6201 120.108 28.4652C119.764 28.3104 119.338 28.233 118.83 28.233C118.305 28.233 117.845 28.3405 117.449 28.5556C117.062 28.762 116.735 29.0501 116.468 29.42C116.21 29.7899 116.012 30.2157 115.874 30.6974C115.737 31.179 115.668 31.6994 115.668 32.2585Z" fill="white"/>
<path d="M130.978 19.9238V39.742H127.557V19.9238H130.978ZM130.435 32.2585H129.428C129.428 31.2866 129.558 30.392 129.816 29.5748C130.074 28.7577 130.44 28.0481 130.913 27.4459C131.386 26.8352 131.95 26.3621 132.604 26.0267C133.267 25.6912 133.998 25.5235 134.798 25.5235C135.487 25.5235 136.111 25.6224 136.67 25.8202C137.238 26.0095 137.724 26.3148 138.129 26.7363C138.533 27.1578 138.843 27.7083 139.058 28.3878C139.282 29.0587 139.394 29.8759 139.394 30.8393V39.742H135.96V30.8135C135.96 30.1684 135.866 29.6609 135.676 29.291C135.487 28.9125 135.216 28.6416 134.863 28.4781C134.519 28.3147 134.093 28.233 133.585 28.233C133.034 28.233 132.561 28.3405 132.165 28.5556C131.769 28.762 131.442 29.0501 131.184 29.42C130.934 29.7899 130.745 30.2157 130.616 30.6974C130.496 31.179 130.435 31.6994 130.435 32.2585Z" fill="white"/>
<path d="M146.008 29.1751H147.712C148.547 29.1751 149.236 29.0375 149.778 28.7623C150.329 28.4784 150.737 28.0956 151.004 27.6139C151.28 27.1237 151.417 26.5731 151.417 25.9624C151.417 25.2399 151.297 24.6335 151.056 24.1432C150.815 23.6529 150.453 23.283 149.971 23.0336C149.49 22.7841 148.879 22.6594 148.138 22.6594C147.467 22.6594 146.873 22.7927 146.357 23.0594C145.849 23.3174 145.449 23.6873 145.157 24.169C144.873 24.6507 144.731 25.2184 144.731 25.8721H142.342C142.342 24.9173 142.583 24.0486 143.065 23.2658C143.547 22.4831 144.223 21.8595 145.092 21.395C145.97 20.9305 146.985 20.6982 148.138 20.6982C149.274 20.6982 150.268 20.9004 151.12 21.3047C151.972 21.7003 152.635 22.2938 153.108 23.0852C153.582 23.8679 153.818 24.8442 153.818 26.014C153.818 26.4871 153.706 26.9946 153.483 27.5365C153.267 28.0698 152.928 28.5687 152.463 29.0332C152.007 29.4977 151.413 29.8805 150.681 30.1815C149.95 30.474 149.072 30.6202 148.048 30.6202H146.008V29.1751ZM146.008 31.1363V29.7041H148.048C149.244 29.7041 150.234 29.8461 151.017 30.1299C151.8 30.4138 152.415 30.7922 152.863 31.2653C153.319 31.7384 153.638 32.2588 153.818 32.8265C154.008 33.3856 154.102 33.9447 154.102 34.5038C154.102 35.3812 153.952 36.1596 153.65 36.8392C153.358 37.5187 152.94 38.095 152.398 38.5681C151.865 39.0412 151.236 39.3982 150.514 39.639C149.791 39.8798 149.003 40.0003 148.151 40.0003C147.334 40.0003 146.564 39.8841 145.841 39.6519C145.126 39.4197 144.494 39.0842 143.943 38.6455C143.392 38.1982 142.962 37.652 142.652 37.0069C142.342 36.3532 142.188 35.6091 142.188 34.7748H144.576C144.576 35.4285 144.718 36.0005 145.002 36.4908C145.294 36.9811 145.707 37.3639 146.241 37.6391C146.783 37.9058 147.42 38.0391 148.151 38.0391C148.883 38.0391 149.511 37.9144 150.036 37.6649C150.57 37.4069 150.978 37.0198 151.262 36.5037C151.555 35.9876 151.701 35.3382 151.701 34.5554C151.701 33.7727 151.538 33.1319 151.211 32.633C150.884 32.1255 150.419 31.7513 149.817 31.5105C149.223 31.261 148.521 31.1363 147.712 31.1363H146.008Z" fill="white"/>
<path d="M166.559 20.9305H166.766V22.9562H166.559C165.294 22.9562 164.236 23.1626 163.384 23.5755C162.532 23.9798 161.856 24.526 161.357 25.2141C160.858 25.8936 160.496 26.6592 160.273 27.5107C160.057 28.3623 159.95 29.2267 159.95 30.1041V32.8652C159.95 33.6996 160.049 34.4393 160.247 35.0844C160.445 35.721 160.716 36.2586 161.06 36.6973C161.404 37.1359 161.792 37.4671 162.222 37.6907C162.661 37.9144 163.117 38.0262 163.59 38.0262C164.141 38.0262 164.631 37.923 165.062 37.7165C165.492 37.5015 165.853 37.2047 166.146 36.8263C166.447 36.4392 166.675 35.9833 166.83 35.4586C166.985 34.9339 167.063 34.3576 167.063 33.7297C167.063 33.1706 166.994 32.633 166.856 32.1169C166.718 31.5922 166.507 31.1277 166.223 30.7234C165.94 30.3105 165.582 29.988 165.152 29.7557C164.73 29.5149 164.227 29.3945 163.642 29.3945C162.979 29.3945 162.359 29.5579 161.783 29.8848C161.215 30.203 160.746 30.6245 160.376 31.1492C160.014 31.6653 159.808 32.2287 159.756 32.8394L158.491 32.8265C158.612 31.8631 158.835 31.0417 159.162 30.3622C159.498 29.674 159.911 29.1149 160.402 28.6848C160.901 28.2462 161.456 27.9279 162.067 27.7301C162.687 27.5236 163.341 27.4204 164.029 27.4204C164.967 27.4204 165.776 27.5967 166.456 27.9494C167.136 28.3021 167.695 28.7752 168.134 29.3687C168.573 29.9536 168.896 30.6159 169.102 31.3556C169.317 32.0868 169.425 32.8394 169.425 33.6136C169.425 34.4995 169.3 35.3296 169.051 36.1037C168.801 36.8779 168.427 37.5574 167.927 38.1423C167.437 38.7272 166.83 39.1831 166.107 39.51C165.384 39.8368 164.545 40.0003 163.59 40.0003C162.575 40.0003 161.688 39.7938 160.931 39.381C160.174 38.9595 159.545 38.4004 159.046 37.7036C158.547 37.0069 158.173 36.2328 157.923 35.3812C157.674 34.5296 157.549 33.6652 157.549 32.7878V31.6653C157.549 30.3407 157.682 29.0418 157.949 27.7688C158.216 26.4957 158.676 25.3431 159.33 24.3109C159.993 23.2787 160.909 22.4573 162.08 21.8466C163.25 21.2358 164.743 20.9305 166.559 20.9305Z" fill="white"/>
<path d="M175.285 30.8008L173.375 30.3105L174.317 20.9563H183.96V23.1626H176.344L175.776 28.272C176.12 28.0741 176.555 27.8892 177.08 27.7172C177.613 27.5451 178.224 27.4591 178.913 27.4591C179.782 27.4591 180.561 27.6096 181.249 27.9107C181.938 28.2032 182.523 28.6246 183.005 29.1751C183.495 29.7256 183.87 30.388 184.128 31.1621C184.386 31.9363 184.515 32.8007 184.515 33.7555C184.515 34.6587 184.39 35.4887 184.141 36.2457C183.9 37.0026 183.534 37.6649 183.044 38.2326C182.553 38.7917 181.933 39.2261 181.185 39.5358C180.445 39.8454 179.571 40.0003 178.564 40.0003C177.807 40.0003 177.088 39.8971 176.408 39.6906C175.737 39.4756 175.135 39.153 174.601 38.7229C174.076 38.2842 173.646 37.7423 173.31 37.0972C172.983 36.4435 172.777 35.678 172.691 34.8006H174.963C175.066 35.5059 175.272 36.0994 175.582 36.5811C175.892 37.0628 176.297 37.4284 176.796 37.6778C177.303 37.9187 177.893 38.0391 178.564 38.0391C179.132 38.0391 179.636 37.9402 180.075 37.7423C180.513 37.5445 180.883 37.2607 181.185 36.8908C181.486 36.5209 181.714 36.0736 181.869 35.5489C182.032 35.0242 182.114 34.435 182.114 33.7813C182.114 33.1878 182.032 32.6373 181.869 32.1298C181.705 31.6223 181.46 31.1793 181.133 30.8008C180.815 30.4224 180.423 30.1299 179.958 29.9235C179.494 29.7084 178.96 29.6009 178.358 29.6009C177.557 29.6009 176.951 29.7084 176.538 29.9235C176.133 30.1385 175.716 30.431 175.285 30.8008Z" fill="white"/>
<path fill-rule="evenodd" clip-rule="evenodd" d="M32.3664 39.432C32.5647 39.2338 32.6762 38.965 32.6762 38.6847C32.6764 38.5343 32.6439 38.3857 32.581 38.2492L32.4255 38.0019L24.6182 25.6269C26.7141 24.5816 30.9038 20.9223 30.3804 13.6039C29.7586 4.84375 22.5233 1.05664 17.809 1.05664H1.05748C0.786118 1.05629 0.525005 1.16022 0.328169 1.34692C0.131333 1.53363 0.0138393 1.78882 0 2.0597V28.6364C0.0240783 28.6108 0.0491292 28.5857 0.0751519 28.5613L9.34646 19.8556C6.53325 16.2084 6.7991 10.953 10.144 7.60973C13.7777 3.97779 19.6691 3.97779 23.3028 7.60973C26.9365 11.2417 26.9365 17.1302 23.3028 20.7621C19.9816 24.0817 14.7743 24.3672 11.1287 21.6186L2.40994 30.8949C1.77151 31.5742 0.697463 31.5909 0.0381308 30.9319C0.0251588 30.9189 0.0124486 30.9058 0 30.8925V38.7386C0.0138393 39.0094 0.131333 39.2646 0.328169 39.4513C0.525005 39.6381 0.786118 39.742 1.05748 39.7416H11.5265C11.7795 39.7414 12.0241 39.6505 12.2158 39.4855C12.4075 39.3205 12.5336 39.0922 12.5713 38.8421V29.8061L18.3134 38.8823C18.3595 39.1239 18.4884 39.342 18.6779 39.4988C18.8675 39.6557 19.1058 39.7415 19.3519 39.7416H31.6187C31.8991 39.7416 32.1681 39.6303 32.3664 39.432Z" fill="white" fill-opacity="0.6"/>
<path fill-rule="evenodd" clip-rule="evenodd" d="M33.8402 37.628C33.8402 37.9083 33.7288 38.1772 33.5305 38.3754C33.3322 38.5736 33.0632 38.685 32.7827 38.685H20.516C20.2699 38.6849 20.0315 38.599 19.842 38.4422C19.6524 38.2853 19.5235 38.0673 19.4775 37.8257L13.7354 28.7495V37.7855C13.6977 38.0356 13.5715 38.2638 13.3799 38.4289C13.1882 38.5939 12.9436 38.6848 12.6906 38.685H2.22154C1.95018 38.6853 1.68907 38.5814 1.49223 38.3947C1.29539 38.208 1.1779 37.9528 1.16406 37.6819V30.0771C1.80169 30.5953 2.74558 30.5413 3.31865 29.9271L13.8576 18.6308C16.5262 20.5888 20.2974 20.3618 22.7105 17.95C25.3741 15.2876 25.3741 10.971 22.7105 8.30865C20.0468 5.64627 15.7281 5.64627 13.0645 8.30865C10.6514 10.7205 10.4244 14.4899 12.3833 17.1572L1.16406 27.6141V1.00306C1.1779 0.732185 1.29539 0.476991 1.49223 0.290285C1.68907 0.103578 1.95018 -0.000351166 2.22154 8.91524e-07H18.9731C23.6873 8.91524e-07 30.9226 3.78711 31.5444 12.5473C32.0679 19.8657 27.8781 23.5249 25.7822 24.5703L33.5896 36.9452L33.745 37.1925C33.808 37.3291 33.8405 37.4777 33.8402 37.628ZM23.5099 12.3654C23.5247 12.6299 23.3008 12.8379 23.036 12.8294C22.7711 12.8209 22.566 12.5988 22.5462 12.3347C22.4746 11.3785 22.0977 10.4655 21.4646 9.73399C20.8314 9.00245 19.9817 8.49835 19.0453 8.28998C18.7866 8.23242 18.5963 7.99758 18.6259 7.73437C18.6556 7.47116 18.8938 7.27969 19.1535 7.33237C20.3297 7.57095 21.3992 8.19243 22.1903 9.10641C22.9814 10.0204 23.4429 11.1677 23.5099 12.3654Z" fill="white"/>
</svg>
