<svg width="17" height="17" viewBox="0 0 17 17" fill="none" xmlns="http://www.w3.org/2000/svg">
<path fill-rule="evenodd" clip-rule="evenodd" d="M11.8344 4.03867V4.6418C14.3969 4.6418 16 6.5918 16.0063 8.66055V13.7324C16.0063 13.9949 15.7937 14.2043 15.5344 14.2043H9.76875V16.5293C9.76875 16.7918 9.55624 17.0012 9.29688 17.0012H6.70938C6.44687 17.0012 6.2375 16.7887 6.2375 16.5293V14.2043H0.471878C0.209381 14.2043 0 13.9918 0 13.7324V8.66055C0 6.44492 1.80313 4.6418 4.01562 4.6418H10.8906V1.46992C10.8906 1.20743 11.1031 0.998047 11.3625 0.998047H15.2812C15.5437 0.998047 15.7531 1.20743 15.7531 1.46992V3.5668C15.7531 3.8293 15.5406 4.03867 15.2812 4.03867H11.8344ZM14.8125 1.93867H11.8344V3.09492H14.8125V1.93867ZM0.940628 8.66055V13.2637H7.09688V8.66055C7.09688 6.96368 5.71562 5.58243 4.01875 5.58243C2.32188 5.58243 0.940628 6.96368 0.940628 8.66055ZM8.03751 8.66055V13.2637H15.0531V8.66055C15.0531 7.06993 13.825 5.58243 11.8281 5.58243V8.04181C12.4938 8.24493 12.9813 8.86368 12.9813 9.59492C12.9813 10.4887 12.2531 11.2168 11.3594 11.2168C10.4656 11.2168 9.7375 10.4887 9.7375 9.59492C9.7375 8.86368 10.225 8.24493 10.8906 8.04181V5.58243H6.60001C7.47813 6.31993 8.03751 7.42618 8.03751 8.66055ZM11.3625 8.91367C11.7375 8.91367 12.0437 9.21991 12.0437 9.59491C12.0437 9.96991 11.7375 10.2762 11.3625 10.2762C10.9875 10.2762 10.6812 9.96991 10.6812 9.59491C10.6812 9.21991 10.9875 8.91367 11.3625 8.91367ZM8.82501 16.0574H7.17813V14.2043H8.82501V16.0574Z" fill="#474747"/>
<path fill-rule="evenodd" clip-rule="evenodd" d="M5.05157 8.39648H2.37032C2.11094 8.39648 1.89844 8.60586 1.89844 8.86836C1.89844 9.12774 2.10782 9.34024 2.37032 9.34024H5.05157C5.31095 9.34024 5.52344 9.13086 5.52344 8.86836C5.52031 8.60586 5.31095 8.39648 5.05157 8.39648Z" fill="#474747"/>
</svg>
