<svg width="34" height="34" viewBox="0 0 34 34" fill="none" xmlns="http://www.w3.org/2000/svg">
<rect width="34" height="34" rx="17" fill="#FEF2EC"/>
<path fill-rule="evenodd" clip-rule="evenodd" d="M24.0494 7.02187C23.6739 7.12394 23.5271 7.18903 23.2535 7.37483C22.9737 7.56486 22.6689 7.89779 22.5196 8.17647C22.4596 8.28863 22.406 8.38606 22.4006 8.39297C22.3952 8.39988 22.317 8.36785 22.2268 8.32184C21.8029 8.10562 21.1939 8.03574 20.6806 8.14448C20.1995 8.24643 19.8655 8.4455 19.3689 8.92646L18.9258 9.35549L18.3678 8.80445C17.8839 8.32659 17.7818 8.24423 17.5984 8.1844C17.3249 8.09513 17.0323 8.1234 16.7738 8.26413C16.6497 8.33165 16.2982 8.65426 15.7974 9.16015C14.9501 10.0161 14.8853 10.1127 14.8853 10.5199C14.8853 10.8612 14.9857 11.055 15.3665 11.4487L15.7167 11.8106L15.4678 11.9358C14.8326 12.2553 13.8857 12.8312 13.264 13.2762C12.1219 14.0934 11.4464 14.6996 9.3832 16.7587C8.09352 18.0457 7.66402 18.4989 7.51492 18.7297C6.82782 19.7934 6.82841 21.1747 7.51637 22.2041C7.64035 22.3896 8.32285 23.0971 9.71075 24.4788C11.7059 26.4649 11.7286 26.4859 12.08 26.6649C12.9218 27.0935 13.7615 27.1556 14.6377 26.8542C15.2791 26.6335 15.4231 26.5146 17.2055 24.7335C18.1038 23.8359 19.0378 22.8806 19.2811 22.6107C20.3993 21.3705 21.1831 20.2695 21.9302 18.8896L22.234 18.3285L22.5573 18.6389C22.806 18.8776 22.9287 18.9653 23.0887 19.0184C23.3716 19.1124 23.733 19.0833 23.9617 18.9483C24.1938 18.8111 25.649 17.3291 25.7355 17.1417C25.8425 16.9099 25.859 16.6111 25.7786 16.3646C25.7187 16.1812 25.6364 16.079 25.1585 15.5951L24.6075 15.0371L25.0428 14.5878C25.5276 14.0873 25.7147 13.7722 25.8189 13.2802C25.9272 12.7691 25.857 12.1593 25.6411 11.7362C25.5951 11.646 25.5631 11.5678 25.57 11.5623C25.5769 11.557 25.6755 11.5028 25.7892 11.4419C26.262 11.1886 26.6928 10.6702 26.8878 10.1198C27.0217 9.74177 27.039 9.01753 26.9223 8.67483C26.649 7.87263 26.1234 7.33694 25.3382 7.06046C25.0027 6.94234 24.4076 6.92452 24.0494 7.02187ZM25.1507 8.2531C25.5836 8.47557 25.8161 8.85568 25.817 9.34218C25.8182 9.97036 25.4471 10.4135 24.7981 10.559C24.417 10.6444 24.1732 10.8873 24.1265 11.2282C24.0919 11.48 24.1618 11.6861 24.3654 11.9331C24.6123 12.2324 24.7119 12.5103 24.6894 12.8366C24.6633 13.2166 24.5572 13.4116 24.1447 13.838L23.781 14.2139L21.7867 12.2198C20.6898 11.1231 19.7923 10.2061 19.7923 10.1821C19.7923 10.1014 20.4774 9.47726 20.6663 9.38587C21.0508 9.1998 21.5681 9.24699 21.8951 9.49795C22.3531 9.84949 22.5169 9.90409 22.8469 9.81522C23.0684 9.75559 23.3063 9.51781 23.367 9.29535C23.4941 8.82993 23.5401 8.73018 23.7129 8.54552C24.005 8.23324 24.2717 8.12128 24.6797 8.13977C24.8798 8.14884 25.0078 8.17965 25.1507 8.2531ZM20.9503 13.0322L24.6009 16.683L24.0219 17.2619L23.443 17.8409L19.7827 14.1806L16.1224 10.5203L16.6908 9.95089C17.0035 9.6377 17.2684 9.38144 17.2795 9.38144C17.2906 9.38144 18.9425 11.0243 20.9503 13.0322ZM21.3233 17.4648C21.3233 17.5432 20.8193 18.4934 20.4679 19.0777C19.5175 20.6574 18.6222 21.6936 15.8863 24.3798C14.7913 25.455 14.6883 25.5454 14.419 25.6687C13.8456 25.9312 13.2717 25.925 12.6869 25.6501C12.4042 25.5172 12.3157 25.4348 10.4612 23.5803C8.60852 21.7277 8.52416 21.6369 8.391 21.3545C8.16877 20.8832 8.1177 20.4458 8.23264 19.9986C8.36085 19.4996 8.43033 19.4107 9.75044 18.0571C12.6071 15.1277 13.9089 14.0744 16.0374 12.9697L16.5929 12.6813L18.9581 15.0452C20.2589 16.3453 21.3233 17.4341 21.3233 17.4648ZM15.8681 16.1433C15.5876 16.2871 15.4672 16.6437 15.6089 16.9108C15.6763 17.0378 17.0273 18.3833 17.1497 18.4454C17.2729 18.5078 17.502 18.4989 17.6561 18.4258C17.7958 18.3595 17.9196 18.1903 17.963 18.0065C18.0228 17.7526 17.945 17.6408 17.1724 16.8695C16.3042 16.0028 16.2265 15.9595 15.8681 16.1433ZM13.9033 18.0891C13.7074 18.1914 13.573 18.469 13.6107 18.6938C13.6361 18.8457 13.7069 18.9307 14.3503 19.5816C14.7417 19.9775 15.1149 20.3292 15.1797 20.3632C15.4522 20.5063 15.8341 20.388 15.9607 20.1212C16.0388 19.9566 16.0417 19.7357 15.9675 19.5959C15.9001 19.4688 14.5491 18.1233 14.4266 18.0612C14.2979 17.996 14.0572 18.0088 13.9033 18.0891ZM11.9983 20.0151C11.8128 20.0994 11.7045 20.2468 11.6769 20.4525C11.6394 20.7323 11.7077 20.8297 12.4812 21.5984C13.2692 22.3815 13.3262 22.4187 13.6472 22.3584C13.9189 22.3075 14.1351 21.9675 14.0812 21.6758C14.059 21.5552 13.9331 21.4085 13.3217 20.7908C12.9186 20.3836 12.532 20.0258 12.4625 19.9958C12.2955 19.9238 12.1897 19.9282 11.9983 20.0151Z" fill="#F26222"/>
</svg>
