<svg width="16" height="17" viewBox="0 0 16 17" fill="none" xmlns="http://www.w3.org/2000/svg">
<path fill-rule="evenodd" clip-rule="evenodd" d="M0.0062561 8.99492C0.0062561 4.58554 3.57812 0.998047 7.97188 0.998047C12.3781 0.998047 16 4.59492 16 8.99805C16 13.4043 12.3719 16.9949 7.97188 16.9949C6.51875 16.9949 5.10625 16.6012 3.86874 15.8574L0 16.998L1.14375 13.1293C0.399994 11.8918 0.0062561 10.4668 0.0062561 8.99492ZM4.19063 14.9512C5.31876 15.673 6.625 16.0543 7.97188 16.0543C11.8813 16.0543 15.0625 12.8887 15.0625 8.99492C15.0625 5.10117 11.8813 1.93555 7.97188 1.93555C4.09688 1.93555 0.943756 5.10117 0.940628 8.99179C0.940628 10.3574 1.32188 11.6762 2.04375 12.8043L2.15938 12.9855L1.38438 15.6105L4.00938 14.8355L4.19063 14.9512Z" fill="#474747"/>
<path fill-rule="evenodd" clip-rule="evenodd" d="M11.4115 9.45899L12.899 10.9465C13.0865 11.134 13.1959 11.3902 13.1959 11.6559C13.1959 11.9215 13.0928 12.1715 12.9053 12.359L12.5334 12.7309C11.8647 13.3965 10.499 13.3715 9.56778 13.1934C8.75216 13.0371 7.18966 12.5809 5.85215 11.2402C4.51466 9.89962 4.05528 8.33712 3.89903 7.52462C3.65216 6.22774 3.82716 5.09336 4.36154 4.55898L4.73341 4.18711C5.12091 3.79961 5.75216 3.79961 6.13966 4.18711L7.63028 5.67774C8.01779 6.06524 8.01779 6.69649 7.63028 7.08399L7.2584 7.45586C7.03029 7.68398 7.03029 8.05274 7.2584 8.28086L7.26466 8.28711L8.74904 9.83399C8.97715 10.059 9.40529 10.059 9.6334 9.83086L10.0053 9.45899C10.1928 9.27149 10.4428 9.16835 10.7084 9.16835C10.974 9.16835 11.224 9.27149 11.4115 9.45899ZM12.2397 11.6902C12.249 11.6777 12.2553 11.6652 12.2553 11.6496C12.2553 11.6464 12.2556 11.6438 12.2556 11.6413C12.2556 11.6101 12.201 11.579 10.7459 10.1152C10.724 10.0934 10.6865 10.0934 10.6647 10.1152L10.2928 10.4871C9.69903 11.0809 8.67404 11.0809 8.08029 10.4871L8.07403 10.4809L6.58966 8.93398C5.99904 8.34023 5.99904 7.38086 6.59279 6.78711L6.96466 6.41524C6.97404 6.40273 6.98028 6.39023 6.98028 6.37461C6.98028 6.3713 6.98063 6.36876 6.98062 6.36625C6.98039 6.33547 6.92399 6.3051 5.47404 4.84649C5.46154 4.83712 5.44903 4.83086 5.43341 4.83086C5.38966 4.83086 5.41154 4.83712 5.02092 5.21836C4.76466 5.47461 4.61154 6.28711 4.81466 7.34649C4.94903 8.05587 5.34591 9.41524 6.50842 10.5746C7.67091 11.734 9.03029 12.134 9.73654 12.2684C10.7959 12.4684 11.6084 12.3184 11.8647 12.0621L12.2397 11.6902Z" fill="#474747"/>
</svg>
