<svg width="20" height="20" viewBox="0 0 20 20" fill="none" xmlns="http://www.w3.org/2000/svg">
<path d="M18.9993 7.75001H17.4993C17.4977 6.35811 16.9441 5.02367 15.9598 4.03945C14.9756 3.05523 13.6412 2.50159 12.2493 2.50001V1.00001C14.0389 1.00199 15.7546 1.71379 17.0201 2.97923C18.2855 4.24467 18.9973 5.9604 18.9993 7.75001ZM13.249 14.1115L14.929 12.4315C15.1539 12.2066 15.4398 12.0526 15.7514 11.9886C16.063 11.9246 16.3864 11.9534 16.6818 12.0715L18.7278 12.8905C19.0293 13.0112 19.2878 13.2194 19.4699 13.4884C19.652 13.7573 19.7493 14.0747 19.7493 14.3995V18.1203C19.7498 18.3414 19.7052 18.5603 19.6182 18.7636C19.5312 18.9669 19.4036 19.1504 19.2432 19.3026C19.0828 19.4549 18.8931 19.5729 18.6856 19.6493C18.478 19.7257 18.2571 19.7589 18.0363 19.747C3.69478 18.8545 0.798282 6.70751 0.260532 2.05601C0.234487 1.8286 0.256881 1.59826 0.326242 1.38013C0.395603 1.16201 0.510358 0.961036 0.66296 0.790439C0.815562 0.619842 1.00255 0.483486 1.21163 0.39034C1.42071 0.297193 1.64714 0.249367 1.87603 0.250006H5.53078C5.85558 0.249996 6.17294 0.347305 6.44191 0.529381C6.71088 0.711457 6.91912 0.969947 7.03978 1.27151L7.85803 3.31751C7.97612 3.61284 8.00495 3.93633 7.94096 4.24788C7.87696 4.55944 7.72296 4.84538 7.49803 5.07026L5.81803 6.75026C5.81803 6.75026 6.74953 13.2993 13.249 14.1115Z" fill="#4C5BD4"/>
</svg>
