<svg width="16" height="16" viewBox="0 0 16 16" fill="none" xmlns="http://www.w3.org/2000/svg">
<path d="M7.9974 14.6663C7.9974 14.6663 13.3307 11.9997 13.3307 7.99967V3.33301L7.9974 1.33301L2.66406 3.33301V7.99967C2.66406 11.9997 7.9974 14.6663 7.9974 14.6663Z" fill="white" stroke="white" stroke-width="2" stroke-linecap="round" stroke-linejoin="round"/>
<g clip-path="url(#clip0_1677_98116)">
<path d="M9.56927 6.66667C9.50292 6.47841 9.38175 6.31432 9.22136 6.19551C9.06097 6.0767 8.86869 6.00861 8.66927 6H7.33594C7.07072 6 6.81637 6.10536 6.62883 6.29289C6.44129 6.48043 6.33594 6.73478 6.33594 7C6.33594 7.26522 6.44129 7.51957 6.62883 7.70711C6.81637 7.89464 7.07072 8 7.33594 8H8.66927C8.93449 8 9.18884 8.10536 9.37638 8.29289C9.56391 8.48043 9.66927 8.73478 9.66927 9C9.66927 9.26522 9.56391 9.51957 9.37638 9.70711C9.18884 9.89464 8.93449 10 8.66927 10H7.33594C7.13652 9.99139 6.94424 9.9233 6.78385 9.80449C6.62345 9.68568 6.50229 9.52159 6.43594 9.33333" stroke="#76B51B" stroke-linecap="round" stroke-linejoin="round"/>
<path d="M8 10V11M8 5V6V5Z" stroke="#76B51B" stroke-linecap="round" stroke-linejoin="round"/>
</g>
<defs>
<clipPath id="clip0_1677_98116">
<rect width="8" height="8" fill="white" transform="translate(4 4)"/>
</clipPath>
</defs>
</svg>
