<svg width="34" height="34" viewBox="0 0 34 34" fill="none" xmlns="http://www.w3.org/2000/svg">
<rect width="34" height="34" rx="17" fill="#FEF2EC"/>
<path fill-rule="evenodd" clip-rule="evenodd" d="M16.3736 9.63673C15.2911 9.92105 14.5099 10.9069 14.4911 12.0125C14.4861 12.3068 14.5412 12.4173 14.7713 12.5738C15.0211 12.7439 15.3852 12.655 15.5502 12.3836C15.5912 12.3163 15.6371 12.1534 15.6522 12.0219C15.6967 11.6328 15.812 11.3808 16.0579 11.1349C16.3318 10.861 16.6078 10.7473 16.9987 10.7473C17.3897 10.7473 17.6657 10.861 17.9396 11.1349C18.2196 11.4149 18.3344 11.6984 18.3333 12.1071C18.3326 12.3411 18.3118 12.4363 18.2176 12.6346C18.076 12.9329 17.9286 13.084 17.5256 13.3444C16.8121 13.8055 16.4127 14.5286 16.4127 15.3593V15.6609L12.164 18.1173C8.17547 20.4232 7.89819 20.5904 7.63715 20.8471C7.32728 21.1519 7.14732 21.463 7.05543 21.8528C6.79924 22.9394 7.45348 24.0316 8.55677 24.3591C8.74903 24.4162 9.54292 24.4221 17.0087 24.4221H25.2485L25.5441 24.3229C26.0976 24.1371 26.5374 23.7515 26.7832 23.237C27.283 22.1901 26.9005 21.0735 25.8233 20.435C25.6222 20.3157 23.6862 19.1924 21.5212 17.9387L17.5848 15.6592V15.4169C17.5848 14.8779 17.7501 14.6034 18.2934 14.2406C18.7478 13.9371 19.0109 13.6565 19.2217 13.2506C19.4285 12.8525 19.4993 12.5559 19.4993 12.088C19.4993 11.3517 19.2872 10.8434 18.7604 10.3169C18.379 9.93578 18.0992 9.76988 17.6397 9.65232C17.2785 9.55995 16.6934 9.55277 16.3736 9.63673ZM21.2167 19.1163C23.4848 20.4294 25.3971 21.5456 25.4665 21.5968C25.5359 21.6479 25.6376 21.7665 25.6925 21.8603C25.9666 22.3279 25.7844 22.9362 25.3043 23.156L25.0978 23.2505L16.9525 23.2405L8.80725 23.2304L8.616 23.1122C8.49746 23.0389 8.37977 22.9212 8.30648 22.8027C8.20403 22.637 8.18825 22.5745 8.18825 22.3349C8.18825 22.1025 8.20567 22.0287 8.29737 21.8726C8.35743 21.7705 8.45413 21.6521 8.51226 21.6095C8.80776 21.3932 16.9869 16.6898 17.0361 16.7079C17.0674 16.7194 18.9487 17.8032 21.2167 19.1163Z" fill="#F26222"/>
</svg>
