<svg width="34" height="34" viewBox="0 0 34 34" fill="none" xmlns="http://www.w3.org/2000/svg">
<rect width="34" height="34" rx="17" fill="#FEF2EC"/>
<path fill-rule="evenodd" clip-rule="evenodd" d="M14.2827 8.3199C13.3059 8.53529 12.5014 9.25312 12.1165 10.2528C11.803 11.0669 11.786 12.0292 12.0707 12.8495C12.2433 13.3467 12.4658 13.6977 12.8556 14.0876C13.2632 14.4953 13.5216 14.6669 13.9568 14.8186C14.3345 14.9502 14.9793 14.9846 15.3668 14.8936C16.4927 14.6294 17.3595 13.682 17.652 12.3963C17.7564 11.9375 17.739 11.1509 17.6142 10.6789C17.1821 9.04536 15.7123 8.00466 14.2827 8.3199ZM15.4319 9.59574C15.915 9.83314 16.3146 10.3561 16.4739 10.9597C16.5628 11.2964 16.5629 11.9127 16.4741 12.2499C16.3096 12.8747 15.9102 13.3999 15.4165 13.6407C15.2049 13.744 15.1437 13.7552 14.7909 13.7552C14.438 13.7552 14.3772 13.744 14.1654 13.6406C13.7024 13.4144 13.2962 12.8896 13.1253 12.2969C13.0281 11.9597 13.0213 11.3409 13.1109 10.9928C13.3029 10.2464 13.8527 9.61665 14.4342 9.47704C14.7325 9.40541 15.1443 9.45436 15.4319 9.59574ZM20.6903 9.86254C19.5321 10.0461 18.5467 11.0014 18.2072 12.2695C18.0906 12.7052 18.0891 13.4714 18.2041 13.8973C18.5361 15.1271 19.4811 15.8961 20.6533 15.8903C21.8778 15.8844 22.95 15.0214 23.4161 13.6668C23.5442 13.2944 23.5471 13.2718 23.5463 12.6409C23.5457 12.0524 23.5368 11.9695 23.4449 11.696C23.1518 10.8239 22.4989 10.1638 21.6958 9.92783C21.4356 9.85136 20.9569 9.82024 20.6903 9.86254ZM21.5248 11.1175C22.0582 11.3489 22.3954 11.9342 22.3954 12.6283C22.3954 13.0216 22.3358 13.2737 22.1554 13.6438C21.9527 14.0596 21.6259 14.4005 21.2673 14.5704C21.0326 14.6816 20.9715 14.6935 20.636 14.6935C20.2135 14.6935 20.0861 14.648 19.7973 14.3937C19.5626 14.1871 19.36 13.7723 19.3033 13.3823C19.1519 12.339 19.9054 11.1782 20.8237 11.0402C21.0954 10.9993 21.3061 11.0226 21.5248 11.1175ZM8.82071 12.1932C7.37742 12.5432 6.62006 14.2127 7.19097 15.7858C7.51661 16.6831 8.22678 17.3846 9.08267 17.6544C9.46692 17.7756 10.0659 17.7752 10.4579 17.6537C11.0268 17.4773 11.5368 17.0339 11.8219 16.4678C12.0489 16.0169 12.1256 15.6359 12.1038 15.066C12.0879 14.6501 12.0664 14.5211 11.9615 14.2106C11.7804 13.675 11.5715 13.3423 11.1589 12.9327C10.8728 12.6487 10.7372 12.5469 10.4681 12.4141C9.92632 12.1467 9.3377 12.0678 8.82071 12.1932ZM9.91197 13.4444C10.0365 13.505 10.2354 13.6526 10.354 13.7722C11.1762 14.6013 11.1265 16.0092 10.2591 16.4647C10.0903 16.5534 10.0126 16.569 9.74733 16.5676C9.48334 16.5662 9.401 16.5488 9.21951 16.456C8.90982 16.2975 8.71015 16.1225 8.52576 15.8479C8.28406 15.488 8.18608 15.162 8.18463 14.7131C8.18331 14.3017 8.24668 14.0764 8.44635 13.7833C8.75765 13.326 9.37606 13.1831 9.91197 13.4444ZM24.1353 15.0088C23.9847 15.0418 23.6836 15.1551 23.466 15.2605C22.4302 15.7626 21.7303 16.867 21.7317 17.9973C21.7326 18.7322 21.9505 19.281 22.431 19.7582C22.9314 20.2553 23.438 20.4446 24.1744 20.4095C24.6598 20.3864 25.0005 20.2882 25.44 20.0445C25.7796 19.8562 26.3573 19.2796 26.5707 18.9161C27.0762 18.0548 27.1398 17.0257 26.7376 16.2183C26.5429 15.8276 26.3434 15.5952 26.0025 15.3624C25.4759 15.0025 24.772 14.8692 24.1353 15.0088ZM15.4536 15.4533C14.6004 15.6036 13.8582 15.9416 13.1879 16.4853C12.6655 16.909 12.3933 17.2738 11.1266 19.2484C10.4575 20.2913 9.86067 21.2502 9.80027 21.3792C9.43283 22.1642 9.43447 23.178 9.80445 23.9687C10.2033 24.821 10.9473 25.4297 11.8778 25.665C12.1566 25.7355 12.2853 25.7455 12.7171 25.7301C13.1599 25.7144 13.2708 25.6962 13.5594 25.5925C15.0666 25.0504 15.2248 25.0169 16.2766 25.0181C16.9348 25.0189 17.1217 25.0327 17.4572 25.1054C17.839 25.1882 17.9938 25.237 18.9157 25.5656C19.2868 25.6979 19.3732 25.7136 19.815 25.729C20.517 25.7535 20.998 25.6364 21.565 25.3029C21.8796 25.1178 22.3871 24.6014 22.5893 24.2606C22.8653 23.7955 22.9876 23.3793 23.0109 22.8258C23.0337 22.2866 22.9724 21.9071 22.7938 21.482C22.6942 21.245 20.9802 18.5199 20.3193 17.5477C20.0813 17.1976 19.6075 16.6805 19.2872 16.4214C18.2701 15.5983 16.7745 15.2207 15.4536 15.4533ZM25.0412 16.179C25.1561 16.2132 25.3129 16.3033 25.4176 16.3955C26.2153 17.0977 25.8015 18.5951 24.6631 19.1257C24.4809 19.2106 24.3914 19.2262 24.0766 19.2274C23.7561 19.2287 23.679 19.2155 23.5144 19.1314C23.2735 19.0084 23.084 18.7883 22.9782 18.5086C22.8713 18.2262 22.8895 17.6961 23.0169 17.3784C23.3752 16.485 24.2754 15.9516 25.0412 16.179ZM17.162 16.6637C18.0003 16.8802 18.7325 17.3655 19.2223 18.0291C19.559 18.4854 21.5406 21.6018 21.6826 21.8986C21.7965 22.1367 21.8221 22.2394 21.8383 22.5242C21.8725 23.1236 21.7362 23.5263 21.3629 23.9294C20.9141 24.4142 20.4962 24.5887 19.8598 24.5569C19.5279 24.5403 19.4271 24.5163 19.0196 24.3563C18.071 23.9838 17.325 23.8431 16.2962 23.8427C15.2171 23.8423 14.4814 23.9792 13.5203 24.3596C13.1258 24.5157 13.0244 24.5399 12.6935 24.5567C12.3818 24.5724 12.2683 24.5612 12.0401 24.4919C11.5039 24.329 11.0266 23.8896 10.8175 23.3663C10.7403 23.1729 10.7264 23.068 10.7257 22.6694C10.7248 22.2516 10.7358 22.1746 10.8251 21.9657C10.9289 21.7232 13.0511 18.3826 13.3494 17.9922C13.9106 17.2577 14.7953 16.7369 15.7293 16.5913C16.0792 16.5367 16.8145 16.5738 17.162 16.6637Z" fill="#F26222"/>
</svg>
