<svg width="34" height="34" viewBox="0 0 34 34" fill="none" xmlns="http://www.w3.org/2000/svg">
<rect width="34" height="34" rx="17" fill="#FEF2EC"/>
<path fill-rule="evenodd" clip-rule="evenodd" d="M24.2161 9.49499C23.0149 9.79879 21.9914 10.0692 21.9419 10.0959C21.7689 10.1892 21.732 10.3113 21.6306 11.128C21.5761 11.5664 21.5217 11.983 21.5097 12.0539L21.4879 12.1826L20.051 12.1941C18.6794 12.2051 18.61 12.2092 18.5256 12.2856C18.3057 12.4848 18.3069 12.4181 18.4859 14.5548C18.5764 15.6354 18.6449 16.5679 18.6381 16.6268C18.6166 16.8129 18.4804 16.7858 18.1874 16.5372C17.721 16.1415 17.2858 15.9776 16.7022 15.9776C16.4765 15.9776 16.2544 16.0036 16.1089 16.047L15.8763 16.1163L15.6687 15.9297C15.221 15.5272 14.7535 15.3449 14.1574 15.3405C13.5855 15.3363 13.1623 15.482 12.7124 15.8382L12.4944 16.0108L11.9333 16.0156C11.3099 16.0209 11.1163 16.064 10.6701 16.2972C10.5264 16.3723 10.3172 16.5138 10.2052 16.6118L10.0017 16.7898L9.80898 16.7318C9.69982 16.699 9.45276 16.6739 9.239 16.6739C8.2351 16.6739 7.37559 17.3193 7.07748 18.2969C6.97517 18.6324 6.97385 20.0835 7.07551 20.4901C7.2916 21.3547 7.87476 22.0844 8.66506 22.4792C8.87565 22.5844 9.15902 22.6939 9.29471 22.7225L9.54141 22.7745L9.55519 23.3227C9.5701 23.917 9.60092 24.0148 9.8182 24.1572C9.91919 24.2234 10.1912 24.2286 14.0956 24.2398C16.3888 24.2463 18.3451 24.2402 18.443 24.2261C18.57 24.2079 18.6588 24.1627 18.7536 24.068L18.8862 23.9353V23.3514V22.7674L19.0164 22.7322C19.0881 22.7129 19.1504 22.6995 19.1549 22.7026C19.1594 22.7056 19.2005 23.1492 19.2463 23.6884C19.2921 24.2275 19.3382 24.697 19.3488 24.7317C19.3594 24.7665 19.4231 24.8476 19.4904 24.9121L19.6128 25.0293L21.8035 25.0404C23.3939 25.0484 24.0249 25.0387 24.1062 25.005C24.1678 24.9795 24.2562 24.9052 24.3027 24.8399C24.3816 24.7291 24.4207 24.3189 24.8917 18.6636C25.4484 11.9779 25.4296 12.4249 25.161 12.2611C25.0471 12.1916 24.9394 12.1858 23.7652 12.1857C22.5797 12.1855 22.493 12.1808 22.4945 12.1154C22.4982 11.9507 22.6406 10.9424 22.6634 10.9196C22.6772 10.9059 23.5842 10.6706 24.6789 10.3967C25.7737 10.1228 26.7177 9.87385 26.7767 9.84335C26.9522 9.75259 27.0405 9.52031 26.9821 9.30331C26.9258 9.09457 26.7828 8.97326 26.5729 8.95651C26.4489 8.94657 25.7833 9.09865 24.2161 9.49499ZM15.4124 9.47719C15.2602 9.5456 15.1593 9.72273 15.1593 9.92134C15.1593 10.1355 15.2532 10.2809 15.4521 10.3743C15.5976 10.4427 15.6437 10.4934 15.7184 10.667C15.8198 10.9028 15.8106 11.1019 15.6921 11.2328C15.6527 11.2764 15.5065 11.3637 15.3672 11.4268C14.8976 11.6398 14.6338 11.9313 14.5016 12.3832C14.3088 13.0427 14.6093 13.7914 15.1916 14.1017C15.4628 14.2463 15.7392 14.2714 15.9 14.166C16.0469 14.0697 16.1409 13.7896 16.0841 13.6173C16.0293 13.4514 15.9 13.3234 15.7498 13.2861C15.5305 13.2316 15.3739 12.9037 15.4447 12.6472C15.4862 12.4969 15.6495 12.3536 15.8806 12.2645C16.2308 12.1296 16.5027 11.8782 16.655 11.5485C16.7245 11.3981 16.7404 11.2863 16.7412 10.9432C16.7422 10.5494 16.7338 10.5045 16.6098 10.2419C16.3313 9.65188 15.7912 9.30692 15.4124 9.47719ZM12.2064 10.3401C12.0426 10.44 11.9867 10.5475 11.9867 10.7628C11.9867 10.9833 12.0772 11.1203 12.2751 11.1995C12.4688 11.277 12.6064 11.5181 12.6113 11.7886C12.6155 12.023 12.5663 12.0797 12.2142 12.2467C11.8213 12.4332 11.5841 12.6528 11.4239 12.9784C11.3028 13.2244 11.2922 13.277 11.2924 13.6275C11.2927 13.9716 11.305 14.035 11.4187 14.2754C11.6363 14.7358 12.074 15.0696 12.4612 15.0705C12.8714 15.0714 13.0845 14.5673 12.8047 14.258C12.769 14.2186 12.6613 14.1516 12.5654 14.1092C12.4263 14.0477 12.3746 13.9949 12.3097 13.8482C12.1583 13.5058 12.2778 13.3044 12.7727 13.0682C13.1463 12.8899 13.3148 12.7259 13.4679 12.3915C13.7958 11.6753 13.4401 10.6545 12.7548 10.3451C12.5275 10.2425 12.3688 10.2411 12.2064 10.3401ZM21.3585 13.2976C21.346 13.3803 21.2873 13.8446 21.2278 14.3295C21.1684 14.8144 21.1156 15.2162 21.1105 15.2223C21.1054 15.2285 20.9681 15.1654 20.8052 15.0821C20.5241 14.9383 20.49 14.9306 20.1285 14.9306C19.9191 14.9306 19.6925 14.9448 19.625 14.9622L19.5022 14.9938L19.4342 14.1608C19.3968 13.7025 19.3665 13.2871 19.3667 13.2375L19.3671 13.1473H20.3741H21.3811L21.3585 13.2976ZM24.3478 13.1774C24.3649 13.2089 24.2228 15.0178 24.1971 15.0961C24.1868 15.1275 24.129 15.1311 24.0088 15.1079C23.5024 15.0101 23.0817 15.0906 22.4904 15.3987C22.2717 15.5126 22.0851 15.5982 22.0758 15.5888C22.0595 15.5725 22.3144 13.4227 22.3546 13.2375L22.3742 13.1473H23.3529C23.8912 13.1473 24.3389 13.1609 24.3478 13.1774ZM20.3602 15.9747C20.5661 16.0606 20.9694 16.3246 20.9693 16.3733C20.9693 16.3953 20.8898 17.0443 20.7928 17.8154C20.5959 19.3799 20.5965 19.3991 20.8575 19.5582C21.1005 19.7064 21.4344 19.6224 21.5434 19.3858C21.5756 19.3159 21.6686 18.7086 21.7501 18.0364C21.8315 17.3641 21.9113 16.7704 21.9274 16.717C21.9516 16.6361 21.9984 16.6113 22.2053 16.5691C22.343 16.541 22.6549 16.4174 22.9043 16.292L23.3545 16.0657L23.7041 16.0815C23.8963 16.0902 24.0673 16.111 24.0841 16.1277C24.109 16.1526 23.5373 23.3503 23.4654 23.9173L23.4438 24.0876H21.865C20.6377 24.0876 20.2826 24.0765 20.2696 24.0375C20.2436 23.9595 19.6016 16.153 19.6154 16.0824C19.6441 15.9352 20.1057 15.8684 20.3602 15.9747ZM14.6918 16.4302C14.9029 16.5324 15.0956 16.7162 15.2448 16.9576C15.4391 17.2722 15.686 17.3152 16.0881 17.1047C16.3159 16.9853 16.3672 16.9745 16.6998 16.9752C17.014 16.9759 17.0901 16.9902 17.2657 17.0823C17.4775 17.1933 17.6835 17.395 17.834 17.6388C17.9868 17.8865 18.2713 17.9461 18.5711 17.7931C18.6605 17.7475 18.7385 17.7159 18.7443 17.723C18.7502 17.7301 18.7669 17.8846 18.7815 18.0664L18.8079 18.397H13.4571C10.5141 18.397 8.10623 18.3871 8.10623 18.375C8.10623 18.2248 8.46168 17.871 8.74252 17.7417C9.02717 17.6105 9.49215 17.6229 9.80938 17.77C10.2244 17.9624 10.3307 17.9352 10.6746 17.5483C10.9664 17.22 11.2705 17.0513 11.6733 16.9944C12.0839 16.9363 12.3561 17.003 12.6658 17.2375C12.9789 17.4745 13.0701 17.5035 13.2669 17.4286C13.5789 17.3098 13.6955 16.918 13.4911 16.6751C13.3894 16.5542 13.3884 16.548 13.461 16.4929C13.5312 16.4397 13.6668 16.3867 13.8569 16.338C14.0299 16.2936 14.522 16.348 14.6918 16.4302ZM18.8871 19.4089C19.0329 21.0875 19.0753 21.6679 19.0535 21.6877C18.9083 21.8197 18.7967 21.8233 14.4179 21.8353C11.2773 21.8439 9.99781 21.8343 9.75424 21.8004C8.70181 21.6536 7.986 20.8159 7.986 19.7311V19.3989H13.4361C16.4337 19.3989 18.8866 19.4034 18.8871 19.4089ZM17.9244 23.0256V23.246H14.2376H10.5508V23.0256V22.8052H14.2376H17.9244V23.0256Z" fill="#F26222"/>
</svg>
