<svg width="14" height="14" viewBox="0 0 14 14" fill="none" xmlns="http://www.w3.org/2000/svg">
<path d="M7.00281 2.71289C4.21448 2.71289 1.94531 4.98206 1.94531 7.77039C1.94531 10.5587 4.21448 12.8337 7.00281 12.8337C9.79115 12.8337 12.0603 10.5646 12.0603 7.77622C12.0603 4.98789 9.79115 2.71289 7.00281 2.71289ZM7.44031 7.58372C7.44031 7.82289 7.24198 8.02122 7.00281 8.02122C6.76365 8.02122 6.56531 7.82289 6.56531 7.58372V4.66706C6.56531 4.42789 6.76365 4.22956 7.00281 4.22956C7.24198 4.22956 7.44031 4.42789 7.44031 4.66706V7.58372Z" fill="#999999"/>
<path d="M8.68229 2.01283H5.31062C5.07729 2.01283 4.89062 1.82616 4.89062 1.59283C4.89062 1.35949 5.07729 1.16699 5.31062 1.16699H8.68229C8.91563 1.16699 9.10229 1.35366 9.10229 1.58699C9.10229 1.82033 8.91563 2.01283 8.68229 2.01283Z" fill="#999999"/>
</svg>
