<svg width="34" height="34" viewBox="0 0 34 34" fill="none" xmlns="http://www.w3.org/2000/svg">
<rect width="34" height="34" rx="17" fill="#FEF2EC"/>
<path fill-rule="evenodd" clip-rule="evenodd" d="M17.7782 7.11418L17.6641 7.22836V16.668V26.1076L17.7782 26.2218C17.8771 26.3207 17.9216 26.3359 18.1103 26.3359H18.3281V26.668C18.3281 26.8513 18.4768 27 18.6602 27C18.8435 27 18.9922 26.8513 18.9922 26.668V26.3359H22.332H25.6719V26.668C25.6719 26.8513 25.8205 27 26.0039 27C26.1873 27 26.3359 26.8513 26.3359 26.668V26.3359H26.5538C26.7425 26.3359 26.7869 26.3207 26.8858 26.2218L27 26.1076V16.668V7.22836L26.8858 7.11418L26.7716 7H22.332H17.8924L17.7782 7.11418ZM26.3359 10.4961V13.3281H22.332H18.3281V10.4961V7.66406H22.332H26.3359V10.4961ZM19.3438 11.0039V12.332C19.3438 12.5154 19.4924 12.6641 19.6758 12.6641C19.8592 12.6641 20.0078 12.5154 20.0078 12.332V11.0039V9.67578C20.0078 9.49241 19.8592 9.34375 19.6758 9.34375C19.4924 9.34375 19.3438 9.49241 19.3438 9.67578V11.0039ZM7.11418 14.1064L7 14.2205V20.1641V26.1076L7.11418 26.2218C7.21309 26.3207 7.2575 26.3359 7.44621 26.3359H7.66406V26.668C7.66406 26.8513 7.81272 27 7.99609 27C8.17947 27 8.32812 26.8513 8.32812 26.668V26.3359H12H15.6719V26.668C15.6719 26.8513 15.8205 27 16.0039 27C16.1873 27 16.3359 26.8513 16.3359 26.668V26.3359H16.5538C16.7425 26.3359 16.7869 26.3207 16.8858 26.2218L17 26.1076V20.1641V14.2205L16.8858 14.1064L16.7716 13.9922H12H7.22836L7.11418 14.1064ZM26.3359 19.832V25.6719H22.332H18.3281V19.832V13.9922H22.332H26.3359V19.832ZM16.3359 15.6523V16.6484H12H7.66406V15.6523V14.6562H12H16.3359V15.6523ZM19.3438 17V19.0117C19.3438 19.1951 19.4924 19.3438 19.6758 19.3438C19.8592 19.3438 20.0078 19.1951 20.0078 19.0117V17V14.9883C20.0078 14.8049 19.8592 14.6562 19.6758 14.6562C19.4924 14.6562 19.3438 14.8049 19.3438 14.9883V17ZM8.32812 15.6523C8.32812 15.8357 8.47678 15.9844 8.66016 15.9844C8.84353 15.9844 8.99219 15.8357 8.99219 15.6523C8.99219 15.469 8.84353 15.3203 8.66016 15.3203C8.47678 15.3203 8.32812 15.469 8.32812 15.6523ZM9.6823 15.3464C9.66797 15.3607 9.65625 15.5101 9.65625 15.6784C9.65625 15.8474 9.79324 15.9844 9.96223 15.9844H9.98828C10.1717 15.9844 10.3203 15.8357 10.3203 15.6523V15.6263C10.3203 15.4573 10.1833 15.3203 10.0143 15.3203C9.84602 15.3203 9.6966 15.332 9.6823 15.3464ZM11.0104 15.3464C10.9961 15.3607 10.9844 15.5101 10.9844 15.6784C10.9844 15.8474 11.1214 15.9844 11.2904 15.9844H11.3164C11.4998 15.9844 11.6484 15.8357 11.6484 15.6523V15.6263C11.6484 15.4573 11.5114 15.3203 11.3425 15.3203C11.1741 15.3203 11.0247 15.332 11.0104 15.3464ZM13.6797 15.6523C13.6797 15.8357 13.8283 15.9844 14.0117 15.9844H14.6758H15.3398C15.5232 15.9844 15.6719 15.8357 15.6719 15.6523C15.6719 15.469 15.5232 15.3203 15.3398 15.3203H14.6758H14.0117C13.8283 15.3203 13.6797 15.469 13.6797 15.6523ZM16.3359 21.5117V25.6719H12H7.66406V21.5117V17.3516H12H16.3359V21.5117ZM11.5508 17.6917C9.84871 17.9227 8.55984 19.2387 8.35898 20.9506C8.27113 21.6993 8.45672 22.5401 8.86016 23.2212C9.11652 23.6539 9.68199 24.2194 10.1148 24.4758C11.6005 25.3559 13.4906 25.0925 14.6614 23.8423C16.1491 22.2536 15.9473 19.7546 14.2238 18.4242C13.4948 17.8614 12.4366 17.5714 11.5508 17.6917ZM12.5078 18.3833C12.6689 18.4122 12.9326 18.4872 13.0938 18.55C13.3894 18.6653 13.8359 18.9259 13.8359 18.9832C13.8359 19.0002 13.7348 19.1138 13.6113 19.2357L13.3867 19.4572L13.1832 19.3284C12.7324 19.0429 12.0517 18.9276 11.5055 19.0441C10.0044 19.3641 9.21734 21.0149 9.91 22.3903C10.0741 22.7162 10.4611 23.1396 10.7586 23.3188C11.5125 23.7729 12.4798 23.7754 13.1898 23.3252L13.3797 23.2047L13.6176 23.4436L13.8555 23.6825L13.7578 23.7586C13.5647 23.9091 13.0642 24.146 12.779 24.2219C12.3772 24.3288 11.9924 24.3577 11.6339 24.3079C10.2894 24.1209 9.27594 23.1496 9.04512 21.827C8.69262 19.8068 10.4878 18.0215 12.5078 18.3833ZM14.5246 19.7246C14.9698 20.3941 15.1089 21.3201 14.8853 22.1269C14.808 22.406 14.5685 22.9066 14.4228 23.0938L14.3468 23.1914L13.8374 22.6841L13.3281 22.1769V21.3333V20.4898L13.8198 19.9949C14.0902 19.7227 14.3258 19.5 14.3433 19.5C14.3609 19.5 14.4424 19.6011 14.5246 19.7246ZM12.294 19.6988C12.4206 19.7222 12.6103 19.785 12.7155 19.8383L12.9068 19.9353L12.8294 20.0204C12.6704 20.1952 12.6641 20.2457 12.6641 21.347V22.418L12.7826 22.5816L12.9012 22.7453L12.6947 22.8393C11.6922 23.2962 10.5306 22.6746 10.35 21.5846C10.2141 20.7645 10.755 19.9399 11.5683 19.7276C11.8751 19.6475 11.9914 19.6429 12.294 19.6988Z" fill="#F26222" stroke="#F26222" stroke-width="0.2"/>
</svg>
