<svg width="30" height="30" viewBox="0 0 30 30" fill="none" xmlns="http://www.w3.org/2000/svg">
<path fill-rule="evenodd" clip-rule="evenodd" d="M0 15C0 6.71484 6.71484 0 15 0C23.2852 0 30 6.71484 30 15C30 23.2852 23.2852 30 15 30C6.71484 30 0 23.2852 0 15ZM15 28.2422C22.3125 28.2422 28.2422 22.3125 28.2422 15C28.2422 7.6875 22.3125 1.75781 15 1.75781C7.6875 1.75781 1.75781 7.6875 1.75781 15C1.75781 22.3125 7.6875 28.2422 15 28.2422Z" fill="#474747"/>
<path fill-rule="evenodd" clip-rule="evenodd" d="M22.5605 8.74023C21.9277 9.12109 21.2246 9.38477 20.4805 9.53711C19.877 8.89844 19.0215 8.5 18.084 8.5C16.2676 8.5 14.8027 9.97656 14.8027 11.7812C14.8027 12.0391 14.8262 12.291 14.8789 12.5312C12.1484 12.3965 9.73438 11.0898 8.11133 9.09766C7.83008 9.58984 7.66016 10.1523 7.66016 10.7559C7.66016 11.8926 8.24609 12.9004 9.11914 13.4863C8.5918 13.4746 8.07617 13.3223 7.63672 13.082V13.1172C7.63672 14.7109 8.77344 16.0352 10.2676 16.3398C9.99805 16.4102 9.71094 16.4453 9.40625 16.4453C9.19531 16.4453 8.98438 16.4336 8.78516 16.3867C9.21289 17.6875 10.4199 18.6426 11.8496 18.6719C10.7305 19.5449 9.3125 20.0723 7.77734 20.0723C7.50781 20.0723 7.25 20.0605 6.99219 20.0254C8.44531 20.9629 10.168 21.4961 12.0254 21.4961C18.0664 21.4961 21.3652 16.4922 21.3652 12.1562C21.3652 12.0098 21.3594 11.8691 21.3535 11.7344C22.0039 11.2715 22.5547 10.6973 23 10.0293C22.4023 10.293 21.7695 10.4629 21.1074 10.5449C21.7988 10.1465 22.3145 9.50781 22.5605 8.74023Z" fill="#474747"/>
</svg>
