<svg width="9" height="10" viewBox="0 0 9 10" fill="none" xmlns="http://www.w3.org/2000/svg">
<path d="M8.44729 5.79398C8.39832 5.73492 8.33818 5.68609 8.27031 5.6503C8.20244 5.61451 8.12818 5.59247 8.05177 5.58542C7.97537 5.57838 7.89833 5.58647 7.82506 5.60925C7.75179 5.63203 7.68374 5.66903 7.62479 5.71815L5.08146 7.83565V0.917318C5.08146 0.762608 5.02 0.614235 4.9106 0.504839C4.80121 0.395443 4.65283 0.333984 4.49812 0.333984C4.34341 0.333984 4.19504 0.395443 4.08565 0.504839C3.97625 0.614235 3.91479 0.762608 3.91479 0.917318V7.83565L1.37146 5.71815C1.31247 5.66912 1.24441 5.6322 1.17115 5.60947C1.09789 5.58675 1.02088 5.57868 0.944502 5.58572C0.868126 5.59276 0.793885 5.61478 0.726017 5.65051C0.65815 5.68625 0.597985 5.735 0.548958 5.79398C0.499931 5.85297 0.463002 5.92103 0.44028 5.99429C0.417558 6.06755 0.409487 6.14456 0.416529 6.22094C0.423571 6.29732 0.445587 6.37156 0.481321 6.43942C0.517055 6.50729 0.565806 6.56746 0.624791 6.61648L4.12479 9.53315L4.21229 9.58565L4.28812 9.62648C4.42327 9.67863 4.57298 9.67863 4.70812 9.62648L4.78396 9.58565L4.87146 9.53315L8.37146 6.61648C8.43052 6.56751 8.47935 6.50737 8.51514 6.4395C8.55093 6.37163 8.57298 6.29737 8.58002 6.22097C8.58707 6.14456 8.57897 6.06752 8.55619 5.99425C8.53341 5.92098 8.49641 5.85293 8.44729 5.79398Z" fill="#4C5BD4"/>
</svg>
