<svg width="12" height="8" viewBox="0 0 12 8" fill="none" xmlns="http://www.w3.org/2000/svg">
<path d="M0.428063 0.631188C0.592149 0.467151 0.814668 0.375 1.04669 0.375C1.2787 0.375 1.50122 0.467151 1.66531 0.631188L5.99655 4.96244L10.3278 0.631188C10.4928 0.4718 10.7139 0.383605 10.9433 0.385598C11.1727 0.387592 11.3922 0.479615 11.5544 0.641847C11.7166 0.804079 11.8086 1.02354 11.8106 1.25296C11.8126 1.48238 11.7244 1.70341 11.565 1.86844L6.61518 6.81831C6.45109 6.98235 6.22857 7.0745 5.99655 7.0745C5.76454 7.0745 5.54202 6.98235 5.37793 6.81831L0.428063 1.86844C0.264026 1.70435 0.171875 1.48183 0.171875 1.24981C0.171875 1.01779 0.264026 0.795275 0.428063 0.631188Z" fill="white"/>
</svg>
