<svg width="34" height="34" viewBox="0 0 34 34" fill="none" xmlns="http://www.w3.org/2000/svg">
<rect width="34" height="34" rx="17" fill="#FEF2EC"/>
<path d="M12 26.375C12 26.375 10.75 26.375 10.75 25.125C10.75 23.875 12 20.125 17 20.125C22 20.125 23.25 23.875 23.25 25.125C23.25 26.375 22 26.375 22 26.375H12ZM17 18.9375C17.8288 18.9375 18.6237 18.6083 19.2097 18.0222C19.7958 17.4362 20.125 16.6413 20.125 15.8125C20.125 14.9837 19.7958 14.1888 19.2097 13.6028C18.6237 13.0167 17.8288 12.6875 17 12.6875C16.1712 12.6875 15.3763 13.0167 14.7903 13.6028C14.2042 14.1888 13.875 14.9837 13.875 15.8125C13.875 16.6413 14.2042 17.4362 14.7903 18.0222C15.3763 18.6083 16.1712 18.9375 17 18.9375Z" fill="#F26222"/>
<path d="M9.5 7.625C8.83696 7.625 8.20107 7.88839 7.73223 8.35723C7.26339 8.82607 7 9.46196 7 10.125L7 22C7 22.4973 7.19754 22.9742 7.54917 23.3258C7.90081 23.6775 8.37772 23.875 8.875 23.875H9.69125C9.95261 22.9564 10.4069 22.1041 11.0238 21.375H8.25V10.125C8.25 9.79348 8.3817 9.47554 8.61612 9.24112C8.85054 9.0067 9.16848 8.875 9.5 8.875H24.5C24.8315 8.875 25.1495 9.0067 25.3839 9.24112C25.6183 9.47554 25.75 9.79348 25.75 10.125V21.375H22.9762C23.6688 22.1925 24.0888 23.0913 24.3088 23.875H25.125C25.6223 23.875 26.0992 23.6775 26.4508 23.3258C26.8025 22.9742 27 22.4973 27 22V10.125C27 9.46196 26.7366 8.82607 26.2678 8.35723C25.7989 7.88839 25.163 7.625 24.5 7.625H9.5Z" fill="#F26222"/>
</svg>
