<svg width="34" height="34" viewBox="0 0 34 34" fill="none" xmlns="http://www.w3.org/2000/svg">
<rect width="34" height="34" rx="17" fill="#FEF2EC"/>
<path opacity="0.9" fill-rule="evenodd" clip-rule="evenodd" d="M18.9449 9.34948C18.801 9.41376 18.6706 9.55231 18.6151 9.69972C18.5921 9.76061 18.5733 9.99519 18.5733 10.221V10.6315H17.7936C17.3648 10.6315 16.9732 10.6471 16.9234 10.6662C16.7769 10.7224 16.6211 10.9056 16.5757 11.0753C16.5187 11.2883 16.6119 11.5371 16.8039 11.6845L16.9439 11.792L17.7546 11.8046L18.5653 11.8173L18.5791 12.2767C18.5912 12.682 18.6036 12.7513 18.684 12.8646C18.806 13.0366 18.9592 13.1098 19.1972 13.1098C19.3058 13.1098 19.3947 13.1189 19.3947 13.1299C19.3947 13.141 19.3239 13.2543 19.2376 13.3816C19.0503 13.6575 18.8416 14.1016 18.7458 14.4277C18.6845 14.6367 18.6749 14.8928 18.6618 16.6602L18.647 18.6567H17.4398H16.2327L16.1919 18.5288C16.1068 18.2622 15.6009 16.5226 15.6009 16.4966C15.6009 16.4816 15.6781 16.4316 15.7725 16.3855C16.0329 16.2582 16.2105 16.0806 16.3422 15.8155C16.4456 15.6072 16.4613 15.5336 16.4613 15.2558C16.4613 14.8646 16.3868 14.5545 16.205 14.189C15.8818 13.5391 15.2297 13.0474 14.5147 12.9145C14.3767 12.8888 13.2392 12.8738 11.4366 12.8738C8.32859 12.8738 8.33841 12.8732 7.93208 13.0956C7.83039 13.1513 7.65635 13.2877 7.54527 13.3989C6.96322 13.9813 6.83392 14.844 7.22139 15.5601C7.44077 15.9655 7.97866 16.3764 8.37314 16.4398C8.45488 16.453 8.52176 16.4727 8.52176 16.4836C8.52176 16.4946 8.40075 16.6317 8.25283 16.7883C7.62822 17.4497 7.20512 18.3409 7.07746 19.2638C7.05443 19.4307 7.03553 20.0813 7.03553 20.7096C7.03553 21.8113 7.03859 21.8575 7.12095 22.005C7.24302 22.2234 7.45144 22.3152 7.8255 22.3152H8.12142L8.2226 22.6398C8.36836 23.1074 8.56748 23.4245 8.97232 23.8338C9.27148 24.1362 9.38393 24.2202 9.69658 24.3746C10.2158 24.6312 10.4785 24.6933 11.0444 24.6933C11.6106 24.6933 11.8729 24.6312 12.3938 24.374C12.709 24.2183 12.8187 24.1364 13.1173 23.8331C13.5181 23.4262 13.7083 23.1234 13.8624 22.647L13.9698 22.3148L17.5464 22.3249L21.1229 22.3349L21.2104 22.6103C21.629 23.9276 22.8577 24.7862 24.2039 24.7021C24.6674 24.6732 24.9566 24.597 25.3624 24.3969C26.118 24.0244 26.7031 23.3054 26.9284 22.4726C27.0242 22.1186 27.0238 21.3296 26.9277 20.9777C26.8541 20.7077 26.653 20.2548 26.5149 20.0479L26.4327 19.9246L26.5355 19.8986C26.7047 19.8559 26.8256 19.7555 26.9114 19.5862C26.9807 19.4496 26.9891 19.382 26.9691 19.121C26.8674 17.7944 25.9931 16.7536 24.6942 16.4127C24.49 16.3591 24.1967 16.3227 23.8495 16.3078L23.3177 16.2851L22.9792 14.668C22.7931 13.7785 22.6408 13.0329 22.6408 13.0109C22.6409 12.9889 22.7358 12.9138 22.8518 12.844C23.3015 12.5734 23.6531 12.047 23.7428 11.5099C23.9084 10.5192 23.2084 9.52218 22.2151 9.33386C21.8829 9.27088 19.0908 9.28421 18.9449 9.34948ZM22.1234 10.535C22.3167 10.6162 22.4405 10.7361 22.5279 10.9265C22.6164 11.1195 22.6207 11.2964 22.5416 11.4869C22.464 11.6738 22.3817 11.7631 22.2025 11.8552C22.0697 11.9233 21.9585 11.9297 20.902 11.9297H19.7467V11.2019V10.4741H20.8626C21.7813 10.4741 22.0041 10.4848 22.1234 10.535ZM21.4825 13.2574C21.4936 13.2952 21.6709 14.1317 21.8764 15.1161L22.2501 16.9061L22.2499 18.1059L22.2496 19.3058L21.927 19.6402C21.5747 20.0052 21.3593 20.3657 21.2097 20.84L21.1229 21.1154L18.2105 21.1254L15.2981 21.1356L15.2713 20.9322C15.2346 20.6541 15.0425 20.0677 14.8866 19.7582C14.6582 19.3049 14.4613 19.0387 14.057 18.637C13.4905 18.0742 12.9033 17.7414 12.1395 17.5502C11.7299 17.4477 10.9445 17.4112 10.5136 17.4745C9.91842 17.5621 9.26186 17.8169 8.82487 18.13C8.72271 18.2032 8.63909 18.2497 8.63909 18.2332C8.63909 18.2167 8.69991 18.1124 8.7743 18.0013C9.22173 17.333 9.93418 16.8272 10.7475 16.6006C11.023 16.5237 11.1642 16.5167 12.7074 16.5025L14.3704 16.4872L14.6727 17.5228C15.1818 19.2664 15.1491 19.1774 15.3662 19.4163C15.4859 19.548 15.6391 19.6657 15.7663 19.7235C15.9717 19.8168 15.9778 19.8172 17.4391 19.8172H18.9058L19.1272 19.7078C19.3821 19.5819 19.6018 19.3552 19.7218 19.0942C19.8027 18.918 19.806 18.8491 19.8272 16.8667C19.8434 15.3406 19.862 14.7811 19.9001 14.6637C20.1074 14.0251 20.5908 13.5062 21.1938 13.2751C21.4595 13.1732 21.4578 13.1733 21.4825 13.2574ZM14.5932 14.1662C14.9654 14.3522 15.2431 14.739 15.2797 15.122L15.2979 15.3128H11.9868C9.27876 15.3128 8.65243 15.3031 8.548 15.2592C8.17457 15.1022 8.0545 14.5986 8.31603 14.286C8.5162 14.0467 8.39281 14.0552 11.5333 14.0648L14.408 14.0736L14.5932 14.1662ZM24.5261 17.5892C24.8595 17.7065 25.0779 17.8497 25.3133 18.1054C25.5007 18.309 25.7251 18.6754 25.6862 18.7145C25.6784 18.7223 25.166 18.7347 24.5475 18.7419L23.4231 18.755V18.1099L23.4231 17.4648L23.8631 17.4877C24.15 17.5027 24.3807 17.538 24.5261 17.5892ZM11.9722 18.7287C12.9675 19.0283 13.7221 19.7853 14.0319 20.795C14.0774 20.9433 14.1147 21.0805 14.1147 21.0998C14.1147 21.1203 12.8803 21.135 11.1806 21.135H8.24649L8.27008 21.0269C8.51155 19.9199 9.22865 19.0715 10.1869 18.759C10.5444 18.6424 10.7249 18.6208 11.2204 18.6353C11.5622 18.6453 11.7884 18.6734 11.9722 18.7287ZM24.8095 20.0853C25.9523 20.6311 26.1997 22.1275 25.2929 23.0086C25.0236 23.2702 24.7956 23.3985 24.4587 23.4783C23.7589 23.6439 23.0529 23.3871 22.6146 22.8075C22.3978 22.5209 22.2829 22.207 22.2593 21.8371C22.2048 20.9811 22.712 20.2525 23.56 19.9683C23.662 19.9341 23.8544 19.9204 24.1125 19.9287C24.4738 19.9404 24.535 19.9542 24.8095 20.0853ZM23.7454 21.2135C23.3646 21.447 23.3724 22.0028 23.7596 22.2261C23.9515 22.3367 24.1338 22.3386 24.3225 22.2319C24.6032 22.0732 24.7097 21.7266 24.5631 21.4491C24.406 21.1517 24.0252 21.042 23.7454 21.2135ZM12.6898 22.4525C12.3731 23.2149 11.4913 23.667 10.665 23.4905C10.1239 23.3749 9.60576 22.95 9.39906 22.4525L9.34204 22.3152H11.0444H12.7468L12.6898 22.4525Z" fill="#F26222"/>
</svg>
