<svg width="30" height="30" viewBox="0 0 30 30" fill="none" xmlns="http://www.w3.org/2000/svg">
<path fill-rule="evenodd" clip-rule="evenodd" d="M0 15C0 6.71484 6.71484 0 15 0C23.2852 0 30 6.71484 30 15C30 23.2852 23.2852 30 15 30C6.71484 30 0 23.2852 0 15ZM15 28.2422C22.3125 28.2422 28.2422 22.3125 28.2422 15C28.2422 7.6875 22.3125 1.75781 15 1.75781C7.6875 1.75781 1.75781 7.6875 1.75781 15C1.75781 22.3125 7.6875 28.2422 15 28.2422Z" fill="#474747"/>
<path fill-rule="evenodd" clip-rule="evenodd" d="M15 10.1562C15 10.1562 19.3242 10.1562 20.4082 10.4551C21 10.6191 21.4688 11.082 21.627 11.6738C21.9258 12.7578 21.9141 15.0137 21.9141 15.0137C21.9141 15.0137 21.9141 17.2578 21.627 18.3418C21.4688 18.9336 21 19.4023 20.4082 19.5605C19.3301 19.8477 15 19.8477 15 19.8477C15 19.8477 10.6875 19.8477 9.5918 19.5488C9 19.3906 8.53125 18.9219 8.37305 18.3301C8.08594 17.2578 8.08594 15.002 8.08594 15.002C8.08594 15.002 8.08594 12.7578 8.37305 11.6738C8.53125 11.082 9.01172 10.6016 9.5918 10.4434C10.6699 10.1562 15 10.1562 15 10.1562ZM17.2207 15.002L13.623 12.9277V17.0762L17.2207 15.002Z" fill="#474747"/>
</svg>
