<svg width="22" height="22" viewBox="0 0 22 22" fill="none" xmlns="http://www.w3.org/2000/svg">
<path d="M22 11C22 16.3158 17.0748 20.625 11 20.625C9.91052 20.6265 8.82556 20.485 7.77287 20.2043C6.96987 20.6112 5.126 21.3923 2.024 21.901C1.749 21.945 1.54 21.659 1.64863 21.4032C2.13538 20.2537 2.57538 18.722 2.70738 17.325C1.023 15.6338 0 13.42 0 11C0 5.68425 4.92525 1.375 11 1.375C17.0748 1.375 22 5.68425 22 11ZM6.1875 6.875C6.00516 6.875 5.8303 6.94743 5.70136 7.07636C5.57243 7.2053 5.5 7.38016 5.5 7.5625C5.5 7.74484 5.57243 7.9197 5.70136 8.04864C5.8303 8.17757 6.00516 8.25 6.1875 8.25H15.8125C15.9948 8.25 16.1697 8.17757 16.2986 8.04864C16.4276 7.9197 16.5 7.74484 16.5 7.5625C16.5 7.38016 16.4276 7.2053 16.2986 7.07636C16.1697 6.94743 15.9948 6.875 15.8125 6.875H6.1875ZM6.1875 10.3125C6.00516 10.3125 5.8303 10.3849 5.70136 10.5139C5.57243 10.6428 5.5 10.8177 5.5 11C5.5 11.1823 5.57243 11.3572 5.70136 11.4861C5.8303 11.6151 6.00516 11.6875 6.1875 11.6875H15.8125C15.9948 11.6875 16.1697 11.6151 16.2986 11.4861C16.4276 11.3572 16.5 11.1823 16.5 11C16.5 10.8177 16.4276 10.6428 16.2986 10.5139C16.1697 10.3849 15.9948 10.3125 15.8125 10.3125H6.1875ZM6.1875 13.75C6.00516 13.75 5.8303 13.8224 5.70136 13.9514C5.57243 14.0803 5.5 14.2552 5.5 14.4375C5.5 14.6198 5.57243 14.7947 5.70136 14.9236C5.8303 15.0526 6.00516 15.125 6.1875 15.125H11.6875C11.8698 15.125 12.0447 15.0526 12.1736 14.9236C12.3026 14.7947 12.375 14.6198 12.375 14.4375C12.375 14.2552 12.3026 14.0803 12.1736 13.9514C12.0447 13.8224 11.8698 13.75 11.6875 13.75H6.1875Z" fill="white"/>
</svg>
