<svg width="22" height="22" viewBox="0 0 22 22" fill="none" xmlns="http://www.w3.org/2000/svg">
<rect width="22" height="22" rx="11" fill="white" fill-opacity="0.5"/>
<path d="M6.38753 6.38753C6.45139 6.3235 6.52725 6.2727 6.61078 6.23805C6.6943 6.20339 6.78385 6.18555 6.87428 6.18555C6.96471 6.18555 7.05425 6.20339 7.13777 6.23805C7.2213 6.2727 7.29716 6.3235 7.36103 6.38753L10.9993 10.0272L14.6375 6.38753C14.7014 6.3236 14.7773 6.2729 14.8608 6.23831C14.9444 6.20371 15.0339 6.18591 15.1243 6.18591C15.2147 6.18591 15.3042 6.20371 15.3877 6.23831C15.4712 6.2729 15.5471 6.3236 15.611 6.38753C15.6749 6.45145 15.7257 6.52733 15.7602 6.61085C15.7948 6.69436 15.8126 6.78388 15.8126 6.87428C15.8126 6.96467 15.7948 7.05419 15.7602 7.1377C15.7257 7.22122 15.6749 7.2971 15.611 7.36103L11.9714 10.9993L15.611 14.6375C15.6749 14.7014 15.7257 14.7773 15.7602 14.8608C15.7948 14.9444 15.8126 15.0339 15.8126 15.1243C15.8126 15.2147 15.7948 15.3042 15.7602 15.3877C15.7257 15.4712 15.6749 15.5471 15.611 15.611C15.5471 15.6749 15.4712 15.7257 15.3877 15.7602C15.3042 15.7948 15.2147 15.8126 15.1243 15.8126C15.0339 15.8126 14.9444 15.7948 14.8608 15.7602C14.7773 15.7257 14.7014 15.6749 14.6375 15.611L10.9993 11.9714L7.36103 15.611C7.2971 15.6749 7.22122 15.7257 7.1377 15.7602C7.05419 15.7948 6.96467 15.8126 6.87428 15.8126C6.78388 15.8126 6.69436 15.7948 6.61085 15.7602C6.52733 15.7257 6.45145 15.6749 6.38753 15.611C6.3236 15.5471 6.2729 15.4712 6.23831 15.3877C6.20371 15.3042 6.18591 15.2147 6.18591 15.1243C6.18591 15.0339 6.20371 14.9444 6.23831 14.8608C6.2729 14.7773 6.3236 14.7014 6.38753 14.6375L10.0272 10.9993L6.38753 7.36103C6.3235 7.29716 6.2727 7.2213 6.23805 7.13777C6.20339 7.05425 6.18555 6.96471 6.18555 6.87428C6.18555 6.78385 6.20339 6.6943 6.23805 6.61078C6.2727 6.52725 6.3235 6.45139 6.38753 6.38753Z" fill="#666666"/>
</svg>
