<svg width="25" height="24" viewBox="0 0 25 24" fill="none" xmlns="http://www.w3.org/2000/svg">
<path d="M4.67962 3.63617L6.60868 1.70711C6.99921 1.31658 7.63237 1.31658 8.0229 1.70711L11.6613 5.34552C12.0518 5.73605 12.0518 6.36921 11.6613 6.75974L9.21113 9.20992C8.8336 9.58745 8.74 10.1642 8.97878 10.6418C10.3591 13.4024 12.5976 15.6409 15.3582 17.0212C15.8358 17.26 16.4125 17.1664 16.7901 16.7889L19.2403 14.3387C19.6308 13.9482 20.264 13.9482 20.6545 14.3387L24.2929 17.9771C24.6834 18.3676 24.6834 19.0008 24.2929 19.3913L22.3638 21.3204C20.2525 23.4317 16.9099 23.6693 14.5212 21.8777L11.2075 19.3925C9.46399 18.0848 7.91517 16.536 6.60752 14.7925L4.12226 11.4788C2.33072 9.09009 2.56827 5.74752 4.67962 3.63617Z" fill="white"/>
</svg>
