<svg width="36" height="35" viewBox="0 0 36 35" fill="none" xmlns="http://www.w3.org/2000/svg">
<rect x="0.5" width="35" height="35" rx="17.5" fill="#AAAAAA"/>
<g clip-path="url(#clip0_459_72193)">
<path d="M27 17.5C27 21.8492 22.9703 25.375 18 25.375C17.1086 25.3762 16.2209 25.2605 15.3596 25.0308C14.7026 25.3638 13.194 26.0028 10.656 26.419C10.431 26.455 10.26 26.221 10.3489 26.0117C10.7471 25.0712 11.1071 23.818 11.2151 22.675C9.837 21.2913 9 19.48 9 17.5C9 13.1508 13.0297 9.625 18 9.625C22.9703 9.625 27 13.1508 27 17.5ZM14.625 17.5C14.625 17.2016 14.5065 16.9155 14.2955 16.7045C14.0845 16.4935 13.7984 16.375 13.5 16.375C13.2016 16.375 12.9155 16.4935 12.7045 16.7045C12.4935 16.9155 12.375 17.2016 12.375 17.5C12.375 17.7984 12.4935 18.0845 12.7045 18.2955C12.9155 18.5065 13.2016 18.625 13.5 18.625C13.7984 18.625 14.0845 18.5065 14.2955 18.2955C14.5065 18.0845 14.625 17.7984 14.625 17.5ZM19.125 17.5C19.125 17.2016 19.0065 16.9155 18.7955 16.7045C18.5845 16.4935 18.2984 16.375 18 16.375C17.7016 16.375 17.4155 16.4935 17.2045 16.7045C16.9935 16.9155 16.875 17.2016 16.875 17.5C16.875 17.7984 16.9935 18.0845 17.2045 18.2955C17.4155 18.5065 17.7016 18.625 18 18.625C18.2984 18.625 18.5845 18.5065 18.7955 18.2955C19.0065 18.0845 19.125 17.7984 19.125 17.5ZM22.5 18.625C22.7984 18.625 23.0845 18.5065 23.2955 18.2955C23.5065 18.0845 23.625 17.7984 23.625 17.5C23.625 17.2016 23.5065 16.9155 23.2955 16.7045C23.0845 16.4935 22.7984 16.375 22.5 16.375C22.2016 16.375 21.9155 16.4935 21.7045 16.7045C21.4935 16.9155 21.375 17.2016 21.375 17.5C21.375 17.7984 21.4935 18.0845 21.7045 18.2955C21.9155 18.5065 22.2016 18.625 22.5 18.625Z" fill="white"/>
</g>
<defs>
<clipPath id="clip0_459_72193">
<rect width="18" height="18" fill="white" transform="translate(9 8.5)"/>
</clipPath>
</defs>
</svg>
