<svg width="36" height="35" viewBox="0 0 36 35" fill="none" xmlns="http://www.w3.org/2000/svg">
<rect x="0.5" width="35" height="35" rx="17.5" fill="#FF0000"/>
<path d="M16.4 12.4H19.6C19.6 11.9491 19.4314 11.5167 19.1314 11.1979C18.8313 10.8791 18.4243 10.7 18 10.7C17.5757 10.7 17.1687 10.8791 16.8686 11.1979C16.5686 11.5167 16.4 11.9491 16.4 12.4ZM14.8 12.4C14.8 11.4983 15.1371 10.6335 15.7373 9.99584C16.3374 9.35821 17.1513 9 18 9C18.8487 9 19.6626 9.35821 20.2627 9.99584C20.8629 10.6335 21.2 11.4983 21.2 12.4H25.2C25.4122 12.4 25.6157 12.4896 25.7657 12.649C25.9157 12.8084 26 13.0246 26 13.25C26 13.4754 25.9157 13.6916 25.7657 13.851C25.6157 14.0104 25.4122 14.1 25.2 14.1H24.4944L23.7856 22.889C23.7175 23.7377 23.352 24.5283 22.7615 25.1044C22.171 25.6805 21.3985 26.0001 20.5968 26H15.4032C14.6015 26.0001 13.829 25.6805 13.2385 25.1044C12.648 24.5283 12.2825 23.7377 12.2144 22.889L11.5056 14.1H10.8C10.5878 14.1 10.3843 14.0104 10.2343 13.851C10.0843 13.6916 10 13.4754 10 13.25C10 13.0246 10.0843 12.8084 10.2343 12.649C10.3843 12.4896 10.5878 12.4 10.8 12.4H14.8ZM20.4 17.5C20.4 17.2746 20.3157 17.0584 20.1657 16.899C20.0157 16.7396 19.8122 16.65 19.6 16.65C19.3878 16.65 19.1843 16.7396 19.0343 16.899C18.8843 17.0584 18.8 17.2746 18.8 17.5V20.9C18.8 21.1254 18.8843 21.3416 19.0343 21.501C19.1843 21.6604 19.3878 21.75 19.6 21.75C19.8122 21.75 20.0157 21.6604 20.1657 21.501C20.3157 21.3416 20.4 21.1254 20.4 20.9V17.5ZM16.4 16.65C16.6122 16.65 16.8157 16.7396 16.9657 16.899C17.1157 17.0584 17.2 17.2746 17.2 17.5V20.9C17.2 21.1254 17.1157 21.3416 16.9657 21.501C16.8157 21.6604 16.6122 21.75 16.4 21.75C16.1878 21.75 15.9843 21.6604 15.8343 21.501C15.6843 21.3416 15.6 21.1254 15.6 20.9V17.5C15.6 17.2746 15.6843 17.0584 15.8343 16.899C15.9843 16.7396 16.1878 16.65 16.4 16.65ZM13.808 22.7445C13.8421 23.169 14.0249 23.5644 14.3204 23.8525C14.6158 24.1406 15.0022 24.3003 15.4032 24.3H20.5968C20.9975 24.2998 21.3836 24.1399 21.6786 23.8519C21.9737 23.5639 22.1563 23.1687 22.1904 22.7445L22.888 14.1H13.112L13.8096 22.7445H13.808Z" fill="white"/>
</svg>
