<svg width="26" height="26" viewBox="0 0 26 26" fill="none" xmlns="http://www.w3.org/2000/svg">
<path d="M9.74967 10.8333C10.9463 10.8333 11.9163 9.86328 11.9163 8.66667C11.9163 7.47005 10.9463 6.5 9.74967 6.5C8.55306 6.5 7.58301 7.47005 7.58301 8.66667C7.58301 9.86328 8.55306 10.8333 9.74967 10.8333Z" stroke="white" stroke-width="2" stroke-linecap="round" stroke-linejoin="round"/>
<path d="M14.0837 2.16602H9.75033C4.33366 2.16602 2.16699 4.33268 2.16699 9.74935V16.2493C2.16699 21.666 4.33366 23.8327 9.75033 23.8327H16.2503C21.667 23.8327 23.8337 21.666 23.8337 16.2493V10.8327" stroke="white" stroke-width="2" stroke-linecap="round" stroke-linejoin="round"/>
<path d="M20.7348 2.80571L16.8023 6.73821C16.6506 6.88988 16.499 7.18238 16.4773 7.39905L16.2606 8.90488C16.1848 9.44655 16.564 9.82571 17.1056 9.74988L18.6115 9.53321C18.8173 9.50071 19.1206 9.35988 19.2723 9.20821L23.2048 5.27571C23.8873 4.59321 24.2015 3.81321 23.2048 2.81654C22.1973 1.79821 21.4173 2.12321 20.7348 2.80571Z" stroke="white" stroke-width="2" stroke-miterlimit="10" stroke-linecap="round" stroke-linejoin="round"/>
<path d="M20.1719 3.36914C20.5077 4.56081 21.4394 5.49247 22.631 5.82831" stroke="white" stroke-width="2" stroke-miterlimit="10" stroke-linecap="round" stroke-linejoin="round"/>
<path d="M2.89258 20.5299L8.23341 16.9441C9.08924 16.3699 10.3242 16.4349 11.0934 17.0958L11.4509 17.4099C12.2959 18.1358 13.6609 18.1358 14.5059 17.4099L19.0126 13.5424C19.8576 12.8166 21.2226 12.8166 22.0676 13.5424L23.8334 15.0591" stroke="white" stroke-width="2" stroke-linecap="round" stroke-linejoin="round"/>
</svg>
