<svg width="22" height="20" viewBox="0 0 22 20" fill="none" xmlns="http://www.w3.org/2000/svg">
<path d="M2.82221 11.0674L10.3542 18.1429C10.6415 18.4128 10.7852 18.5477 10.9586 18.5624C10.9866 18.5647 11.0147 18.5647 11.0427 18.5624C11.2161 18.5477 11.3598 18.4128 11.6471 18.1429L19.1791 11.0674C21.2983 9.07664 21.5556 5.80065 19.7733 3.5034L19.4381 3.07145C17.3059 0.323291 13.0261 0.784179 11.5279 3.92328C11.3162 4.3667 10.6851 4.3667 10.4734 3.92328C8.97522 0.784178 4.69535 0.323291 2.56316 3.07145L2.22802 3.5034C0.445678 5.80065 0.703023 9.07663 2.82221 11.0674Z" stroke="#FF4343"/>
</svg>
