<svg width="16" height="16" viewBox="0 0 16 16" fill="none" xmlns="http://www.w3.org/2000/svg">
<path d="M9.28692 6.71403C8.60433 6.03173 7.67871 5.64844 6.71358 5.64844C5.74846 5.64844 4.82284 6.03173 4.14025 6.71403L1.56608 9.28737C0.883481 9.96997 0.5 10.8958 0.5 11.8611C0.5 12.8265 0.883481 13.7523 1.56608 14.4349C2.24868 15.1175 3.17449 15.501 4.13983 15.501C5.10518 15.501 6.03098 15.1175 6.71358 14.4349L8.00025 13.1482" stroke="#666666" stroke-linecap="round" stroke-linejoin="round"/>
<path d="M6.71094 9.28692C7.39353 9.96922 8.31914 10.3525 9.28427 10.3525C10.2494 10.3525 11.175 9.96922 11.8576 9.28692L14.4318 6.71358C15.1144 6.03098 15.4979 5.10518 15.4979 4.13983C15.4979 3.17449 15.1144 2.24868 14.4318 1.56608C13.7492 0.883481 12.8234 0.5 11.858 0.5C10.8927 0.5 9.96687 0.883481 9.28427 1.56608L7.9976 2.85275" stroke="#666666" stroke-linecap="round" stroke-linejoin="round"/>
</svg>
