<svg width="112" height="20" viewBox="0 0 112 20" fill="none" xmlns="http://www.w3.org/2000/svg">
<path d="M9.52447 3.08156C9.67415 2.6209 10.3259 2.6209 10.4755 3.08156L11.5451 6.37336C11.7459 6.99139 12.3218 7.40983 12.9717 7.40983H16.4329C16.9172 7.40983 17.1186 8.02964 16.7268 8.31434L13.9266 10.3488C13.4009 10.7307 13.1809 11.4078 13.3817 12.0258L14.4513 15.3176C14.6009 15.7783 14.0737 16.1613 13.6818 15.8766L10.8817 13.8422C10.3559 13.4602 9.64405 13.4602 9.11832 13.8422L6.31815 15.8766C5.9263 16.1613 5.39906 15.7783 5.54873 15.3176L6.6183 12.0258C6.81911 11.4078 6.59913 10.7307 6.07339 10.3488L3.27323 8.31434C2.88137 8.02964 3.08276 7.40983 3.56712 7.40983H7.02832C7.67816 7.40983 8.25409 6.99139 8.4549 6.37336L9.52447 3.08156Z" fill="#F1C644" stroke="#F1C644"/>
<path d="M32.5245 3.08156C32.6741 2.6209 33.3259 2.6209 33.4755 3.08156L34.5451 6.37336C34.7459 6.99139 35.3218 7.40983 35.9717 7.40983H39.4329C39.9172 7.40983 40.1186 8.02964 39.7268 8.31434L36.9266 10.3488C36.4009 10.7307 36.1809 11.4078 36.3817 12.0258L37.4513 15.3176C37.6009 15.7783 37.0737 16.1613 36.6818 15.8766L33.8817 13.8422C33.3559 13.4602 32.6441 13.4602 32.1183 13.8422L29.3182 15.8766C28.9263 16.1613 28.3991 15.7783 28.5487 15.3176L29.6183 12.0258C29.8191 11.4078 29.5991 10.7307 29.0734 10.3488L26.2732 8.31434C25.8814 8.02964 26.0828 7.40983 26.5671 7.40983H30.0283C30.6782 7.40983 31.2541 6.99139 31.4549 6.37336L32.5245 3.08156Z" fill="#F1C644" stroke="#F1C644"/>
<path d="M55.5245 3.08156C55.6741 2.6209 56.3259 2.6209 56.4755 3.08156L57.5451 6.37336C57.7459 6.99139 58.3218 7.40983 58.9717 7.40983H62.4329C62.9172 7.40983 63.1186 8.02964 62.7268 8.31434L59.9266 10.3488C59.4009 10.7307 59.1809 11.4078 59.3817 12.0258L60.4513 15.3176C60.6009 15.7783 60.0737 16.1613 59.6818 15.8766L56.8817 13.8422C56.3559 13.4602 55.6441 13.4602 55.1183 13.8422L52.3182 15.8766C51.9263 16.1613 51.3991 15.7783 51.5487 15.3176L52.6183 12.0258C52.8191 11.4078 52.5991 10.7307 52.0734 10.3488L49.2732 8.31434C48.8814 8.02964 49.0828 7.40983 49.5671 7.40983H53.0283C53.6782 7.40983 54.2541 6.99139 54.4549 6.37336L55.5245 3.08156Z" fill="#F1C644" stroke="#F1C644"/>
<path d="M78.5245 3.08156C78.6741 2.6209 79.3259 2.6209 79.4755 3.08156L80.5451 6.37336C80.7459 6.99139 81.3218 7.40983 81.9717 7.40983H85.4329C85.9172 7.40983 86.1186 8.02964 85.7268 8.31434L82.9266 10.3488C82.4009 10.7307 82.1809 11.4078 82.3817 12.0258L83.4513 15.3176C83.6009 15.7783 83.0737 16.1613 82.6818 15.8766L79.8817 13.8422C79.3559 13.4602 78.6441 13.4602 78.1183 13.8422L75.3182 15.8766C74.9263 16.1613 74.3991 15.7783 74.5487 15.3176L75.6183 12.0258C75.8191 11.4078 75.5991 10.7307 75.0734 10.3488L72.2732 8.31434C71.8814 8.02964 72.0828 7.40983 72.5671 7.40983H76.0283C76.6782 7.40983 77.2541 6.99139 77.4549 6.37336L78.5245 3.08156Z" fill="#F1C644" stroke="#F1C644"/>
<path d="M101.524 3.08156C101.674 2.6209 102.326 2.6209 102.476 3.08156L103.545 6.37336C103.746 6.99139 104.322 7.40983 104.972 7.40983H108.433C108.917 7.40983 109.119 8.02964 108.727 8.31434L105.927 10.3488C105.401 10.7307 105.181 11.4078 105.382 12.0258L106.451 15.3176C106.601 15.7783 106.074 16.1613 105.682 15.8766L102.882 13.8422C102.356 13.4602 101.644 13.4602 101.118 13.8422L98.3182 15.8766C97.9263 16.1613 97.3991 15.7783 97.5487 15.3176L98.6183 12.0258C98.8191 11.4078 98.5991 10.7307 98.0734 10.3488L95.2732 8.31434C94.8814 8.02964 95.0828 7.40983 95.5671 7.40983H99.0283C99.6782 7.40983 100.254 6.99139 100.455 6.37336L101.524 3.08156Z" stroke="#F1C644"/>
<path fill-rule="evenodd" clip-rule="evenodd" d="M101.997 2.23584V14.0555C101.791 14.056 101.586 14.1197 101.411 14.2465L98.6113 16.2809C97.8276 16.8503 96.7731 16.0842 97.0725 15.1629L98.142 11.8711C98.2759 11.4591 98.1292 11.0077 97.7788 10.7531L94.9786 8.71862C94.1949 8.14921 94.5976 6.9096 95.5664 6.9096H99.0276C99.4608 6.9096 99.8448 6.63064 99.9786 6.21862L101.048 2.92682C101.198 2.46716 101.597 2.23684 101.997 2.23584Z" fill="#F1C644"/>
</svg>
