<svg width="21" height="20" viewBox="0 0 21 20" fill="none" xmlns="http://www.w3.org/2000/svg">
<path d="M14.3274 13.6878L20.1735 7.93791L20.2476 7.85341C20.3573 7.70612 20.4102 7.52419 20.3966 7.34104C20.383 7.15788 20.3038 6.98578 20.1735 6.85631L14.3274 1.10901L14.2468 1.04011C13.7788 0.689113 13.0898 1.02711 13.0898 1.64981V4.41881L12.7973 4.43831C8.16544 4.80491 5.45234 7.73641 4.80494 13.0534C4.72174 13.7359 5.50434 14.1636 6.01134 13.7112C7.87164 12.0498 9.79434 11.0176 11.7898 10.6042C12.1096 10.5379 12.4307 10.4872 12.7544 10.4521L13.0898 10.4222V13.147L13.0963 13.2536C13.1743 13.8425 13.888 14.1194 14.3274 13.6878ZM12.8922 5.73441L14.3898 5.63431V2.99141L18.8696 7.39581L14.3898 11.8028V8.99871L12.627 9.15731H12.6166C10.4027 9.39521 8.31364 10.2818 6.34154 11.7599C6.72894 10.0192 7.39064 8.71011 8.26034 7.77281C9.33934 6.60931 10.8473 5.89691 12.8922 5.73311V5.73441ZM4.14844 2.19841C3.28648 2.19841 2.45983 2.54082 1.85034 3.15032C1.24085 3.75981 0.898438 4.58646 0.898438 5.44841V15.8484C0.898438 16.7104 1.24085 17.537 1.85034 18.1465C2.45983 18.756 3.28648 19.0984 4.14844 19.0984H14.5484C15.4104 19.0984 16.237 18.756 16.8465 18.1465C17.456 17.537 17.7984 16.7104 17.7984 15.8484V14.5484C17.7984 14.376 17.73 14.2107 17.6081 14.0888C17.4862 13.9669 17.3208 13.8984 17.1484 13.8984C16.976 13.8984 16.8107 13.9669 16.6888 14.0888C16.5669 14.2107 16.4984 14.376 16.4984 14.5484V15.8484C16.4984 16.3656 16.293 16.8616 15.9273 17.2273C15.5616 17.593 15.0656 17.7984 14.5484 17.7984H4.14844C3.63127 17.7984 3.13527 17.593 2.76958 17.2273C2.40388 16.8616 2.19844 16.3656 2.19844 15.8484V5.44841C2.19844 4.93124 2.40388 4.43525 2.76958 4.06955C3.13527 3.70386 3.63127 3.49841 4.14844 3.49841H8.04844C8.22083 3.49841 8.38616 3.42993 8.50806 3.30803C8.62996 3.18613 8.69844 3.0208 8.69844 2.84841C8.69844 2.67602 8.62996 2.51069 8.50806 2.38879C8.38616 2.26689 8.22083 2.19841 8.04844 2.19841H4.14844Z" fill="#F26222"/>
</svg>
