<svg width="20" height="20" viewBox="0 0 20 20" fill="none" xmlns="http://www.w3.org/2000/svg">
<path d="M10 8.125L6.875 11.25L7.75625 12.1312L9.375 10.5187V17.5H3.75V18.75H9.375C9.70652 18.75 10.0245 18.6183 10.2589 18.3839C10.4933 18.1495 10.625 17.8315 10.625 17.5V10.5187L12.2437 12.1312L13.125 11.25L10 8.125Z" fill="#666666"/>
<path d="M14.688 13.75H14.3755V12.5H14.688C15.4157 12.5024 16.116 12.2224 16.6415 11.719C17.1669 11.2155 17.4767 10.5279 17.5055 9.80074C17.5343 9.07358 17.28 8.36358 16.796 7.82013C16.312 7.27668 15.6361 6.94214 14.9105 6.8869L14.4011 6.8469L14.3392 6.3394C14.2087 5.28066 13.6956 4.30617 12.8965 3.59949C12.0974 2.89281 11.0675 2.50274 10.0008 2.50274C8.93402 2.50274 7.90409 2.89281 7.10499 3.59949C6.30589 4.30617 5.79279 5.28066 5.66233 6.3394L5.59983 6.8469L5.09045 6.8869C4.36482 6.94214 3.68891 7.27668 3.20491 7.82013C2.72091 8.36358 2.46657 9.07358 2.4954 9.80074C2.52422 10.5279 2.83396 11.2155 3.35946 11.719C3.88495 12.2224 4.58523 12.5024 5.31295 12.5H5.62545V13.75H5.31295C4.30596 13.7511 3.33449 13.3779 2.58714 12.703C1.83979 12.0281 1.36988 11.0996 1.26863 10.0977C1.16738 9.09578 1.44202 8.09201 2.03923 7.28121C2.63644 6.47042 3.51361 5.91045 4.50045 5.71002C4.76677 4.44864 5.45857 3.31713 6.45991 2.50513C7.46125 1.69313 8.71126 1.25 10.0005 1.25C11.2896 1.25 12.5397 1.69313 13.541 2.50513C14.5423 3.31713 15.2341 4.44864 15.5005 5.71002C16.4873 5.91045 17.3645 6.47042 17.9617 7.28121C18.5589 8.09201 18.8335 9.09578 18.7323 10.0977C18.631 11.0996 18.1611 12.0281 17.4138 12.703C16.6664 13.3779 15.695 13.7511 14.688 13.75Z" fill="#666666"/>
</svg>
